<?xml version="1.0" standalone="no"?>
<!DOCTYPE svg PUBLIC "-//W3C//DTD SVG 1.1//EN" "http://www.w3.org/Graphics/SVG/1.1/DTD/svg11.dtd" >
<svg xmlns="http://www.w3.org/2000/svg" xmlns:xlink="http://www.w3.org/1999/xlink" version="1.1">
<metadata></metadata>
<defs>
<font id="gregorianflfregular" horiz-adv-x="1112" >
<font-face units-per-em="2048" ascent="1638" descent="-410" />
<missing-glyph horiz-adv-x="739" />
<glyph horiz-adv-x="0" />
<glyph horiz-adv-x="682" />
<glyph horiz-adv-x="947" d="M144 1379l20 -33q19 -33 59.5 -73.5t103 -72t147.5 -29.5q75 3 136 35t105 71t66 70l22 32q-104 -53 -180.5 -79.5t-148.5 -26.5q-71 -3 -149 25t-181 81z" />
<glyph horiz-adv-x="798" d="M229 1326q0 -72 49.5 -121t120.5 -49q72 0 121 49t49 121t-49 121t-121 49q-71 0 -120.5 -49t-49.5 -121z" />
<glyph horiz-adv-x="798" d="M216 1339q0 -77 53 -130t130 -53q40 0 73.5 17t57.5 43.5t35.5 60t11.5 65.5q0 23 -11.5 53t-34.5 54t-54.5 39.5t-72.5 15.5q-45 0 -79.5 -15.5t-58.5 -39.5t-37 -53.5t-13 -56.5zM264 1372q0 29 32 67.5t80 38.5q35 0 63.5 -20t47.5 -48t30 -58.5t11 -55.5 q0 -51 -35 -80t-94 -29q-23 0 -47 17.5t-44.5 44t-32 58.5t-11.5 65z" />
<glyph unicode="&#xa;" horiz-adv-x="1171" d="M261 1217q5 -8 54.5 2.5t109.5 41t117 77t81 110.5l-125 102q-24 -80 -65.5 -140.5t-81 -100t-67.5 -62t-23 -30.5zM554 1217q5 -8 54.5 2.5t109 41t117 77t81.5 110.5l-126 102q-23 -80 -64.5 -140.5t-81.5 -100t-67.5 -62t-22.5 -30.5z" />
<glyph horiz-adv-x="798" d="M292 -133q-7 -88 11.5 -132t50.5 -57t71.5 -4t73.5 24t53.5 30.5t14.5 12.5q-91 -23 -127 2.5t-40 72t11 99.5t26 85h-117l-10 -25q-10 -26 -18 -108z" />
<glyph horiz-adv-x="798" d="M173 1453q30 -7 69.5 -43t74 -76t58.5 -74l24 -33l269 269l-23 24l-200 -199q-3 5 -31 43.5t-77.5 89t-94.5 68.5z" />
<glyph unicode="&#xd;" horiz-adv-x="600" d="M16 924q0 -10 10 -11q10 0 21 13.5t22 13.5q13 0 19 -12t16 -28q13 -21 33 -33.5t33 -12.5v-630q0 -64 16.5 -117.5t36 -93t39.5 -61t25 -21.5t37 23t70 50.5t67 52.5t29 34q0 13 -24 26t-53 37t-53.5 67t-24.5 114v519q6 0 32.5 8.5t57 26.5t56 52t25.5 81q0 2 -28 -9.5 t-68 -11.5q-46 0 -78 19t-52.5 39.5t-35.5 39.5t-26 19q-15 0 -32 -16l-160 -160q-10 -10 -10 -18z" />
<glyph horiz-adv-x="851" d="M18 -147h150l607 2146h-150z" />
<glyph horiz-adv-x="1969" d="M10 1641q0 -80 33.5 -127.5t73.5 -70.5t76 -30.5t41 -2.5q8 8 -13 22t-52 38t-56 61t-25 90q0 64 36 107t92 43q38 0 85 -15t100.5 -33.5t108 -33.5t108.5 -15q132 0 219 47t137 101.5t66.5 101.5t11.5 47q-8 0 -33.5 -17.5t-61 -38t-80 -37t-92.5 -16.5q-61 0 -105 18 t-86.5 39.5t-89 40.5t-113.5 19q-162 0 -271.5 -90t-109.5 -248zM309 -122q6 -3 50.5 31.5t128.5 77.5t205.5 78.5t281.5 35.5t277 -40t193.5 -86.5t119.5 -86.5t53 -40q8 0 37.5 25.5t68.5 64.5t82.5 83.5t78.5 85t54.5 68.5t14.5 30q-3 3 -12 -5.5t-25 -17.5t-39 -17 t-54 -8q-13 0 -52 10.5t-81.5 25.5t-81.5 28l-54 18v879q0 21 9 33.5t20 22.5t20 20t9 25q0 16 -11.5 31t-25.5 15q-19 0 -36.5 -17.5t-17.5 -63.5v-933q-15 3 -52 10.5t-92 15.5t-121.5 14.5t-138.5 6.5q-122 0 -230 -30.5t-198.5 -77t-162.5 -101t-121.5 -101t-74 -78.5 t-22.5 -32zM340.5 719q7.5 -3 15 7.5t25.5 27t51 36.5t96 36l58 15v-305q0 -89 -20 -158t-43 -117t-41.5 -74.5t-18.5 -29.5q2 -7 51.5 13.5t105.5 70t103 130.5t47 193v325l167 46v-299q0 -77 -21.5 -135.5t-46.5 -98t-45.5 -61t-13.5 -26.5q2 -6 51 10t108 56t105.5 105 t46.5 161v338l35 8q48 13 83.5 60t59.5 99t33.5 93t1.5 41q-11 0 -18.5 -10.5t-24 -27t-44.5 -33t-76 -28.5l-50 -13v365q0 59 12 121t40 111.5t69 81.5t102 32q82 0 134.5 -41.5t52.5 -78.5q0 -20 -2.5 -37.5t-2.5 -33.5q0 -13 8 -29.5t21 -16.5q48 0 114.5 46.5t128 102 t102.5 102.5t38 47q-5 3 -21 -5t-40.5 -17t-51 -19t-49.5 -10q-21 0 -49 19t-64.5 40.5t-78.5 39.5t-88 18q-74 0 -170 -39.5t-182.5 -109t-146.5 -165t-60 -210.5v-365l-167 -45v245q0 72 13 128t28 96t25 61t5 26q-8 5 -49 -10.5t-86.5 -52.5t-82.5 -99t-37 -146v-295 l-78 -22q-43 -11 -76 -57.5t-55.5 -97.5t-33 -91.5t-3 -43.5z" />
<glyph horiz-adv-x="691" d="M-61 708q8 -2 14.5 8.5t25 26.5t52 35.5t94.5 36.5l405 109q48 13 84 60t60 98.5t33 93t1 41.5q-10 0 -18.5 -10.5t-24 -26.5t-43.5 -34t-76 -28l-439 -120q-43 -10 -76.5 -57t-56 -97.5t-33 -91.5t-2.5 -44zM104 13l19 7q19 6 47 6q51 0 85.5 -17t58.5 -38.5t36.5 -39 t17.5 -17.5q2 0 43 32.5t90.5 72t90.5 73t41 35.5q0 11 -8 11q-7 0 -20 -9t-28 -19.5t-29.5 -20.5t-28.5 -10q-8 0 -19.5 10t-25.5 20.5t-27 19.5t-23 9v1313q0 88 29 165.5t63.5 134.5t63.5 90l30 34q-69 0 -117 -36.5t-78.5 -79t-49.5 -78t-30 -35.5q-10 0 -22.5 20.5 t-32 45t-48.5 45.5t-77 21q2 -5 26 -43.5t51 -117t27 -169.5v-1310q-11 0 -36 -9t-52 -25t-47 -40t-20 -51z" />
<glyph horiz-adv-x="1682" d="M48 -69q0 -8 9 -12.5t17 -4.5q26 0 75 28t134 62t212.5 62t314.5 28q183 0 286 -28t154 -63t71.5 -63t44.5 -28q13 0 41 35t60 87t66.5 113t61 113t41.5 86.5t10 34.5q-13 0 -32 -21.5t-43 -47t-50.5 -47t-51.5 -21.5q-18 0 -51.5 11t-84 24t-118 24.5t-150.5 11.5 q-133 0 -261 -28t-233.5 -62t-175.5 -64.5t-86 -38.5q6 5 52 40.5t109 94t132 135t122 167.5q26 48 58.5 105.5t60.5 106.5t47 84l20 34h248q110 0 181 58.5t113 128t55 128t7 58.5q-7 0 -35 -30.5t-71.5 -69.5t-105.5 -69.5t-138 -30.5h-192q-2 0 30 58.5t83 145t114 182.5 t122 170q37 49 97 104.5t116 107.5t95.5 94.5t39.5 67.5q0 26 -18 26q-16 0 -79 -37t-161 -84t-226 -84t-278 -37q-135 0 -213.5 29t-124 65t-67.5 65t-47 29q-10 0 -20.5 -5t-30.5 -26l-290 -292q0 -16 -2.5 -15.5t10.5 0.5q16 0 38.5 8.5t45.5 17.5t44.5 17t31.5 8 q33 0 66 -15.5t76.5 -35.5t102.5 -36.5t144 -16.5q109 0 230 35t221 73.5t165 64t65 6.5q0 -2 -36 -33.5t-88 -77.5t-109 -102t-97 -109q-51 -64 -94.5 -131t-76.5 -119t-53 -85l-21 -33h-300q-125 0 -193 -50.5t-97.5 -112t-30.5 -112t4 -50.5t20 24t45.5 52t79.5 52 t124 24h279l-14 -41q-15 -41 -51 -115.5t-97 -180t-152 -232.5q-56 -80 -117 -145.5t-112 -115t-84 -81t-33 -47.5zM716 2183q30 -8 70 -44t74 -76t58 -73l24 -34l270 270l-25 24l-199 -200q-3 5 -30.5 43.5t-77 89t-95.5 70.5z" />
<glyph horiz-adv-x="981" d="M-10 -13q7 0 30 13t60 28t85 28t107 13q82 0 142 -23t100 -50.5t64 -50t32 -22.5l261 263q-21 0 -42.5 -8t-71.5 -8q-43 0 -77.5 9t-69.5 21.5t-71 21.5t-79 9q-88 0 -166 -27.5t-117 -52t-44 -29.5l286 352h135q64 0 106.5 32t69.5 70.5t36 70.5t6 32q-8 0 -38.5 -19.5 t-86.5 -19.5h-96l317 391q21 30 31.5 47t0.5 17q-16 0 -57.5 -19t-99 -43t-126 -42.5t-140.5 -18.5q-86 0 -144.5 29.5t-82.5 54t-26 31.5l-224 -224q69 0 112 -12.5t77.5 -25.5t68.5 -25t90 -12q77 0 154.5 29t140.5 65.5t101 65.5l39 30l-275 -338h-162q-61 0 -102 -24 t-67.5 -56t-38 -64.5t-11.5 -48.5q0 -13 6 -13q5 0 11 6.5t16 13t31.5 13.5t62.5 7h122l-353 -434q-15 -18 -27 -35.5t-6 -17.5zM285 1453q30 -7 69.5 -43t74 -76t58.5 -74l24 -33l269 269l-23 24l-201 -199q-2 5 -30 43.5t-77.5 89t-94.5 68.5z" />
<glyph unicode=" "  horiz-adv-x="739" />
<glyph unicode="&#x09;" horiz-adv-x="739" />
<glyph unicode="&#xa0;" horiz-adv-x="739" />
<glyph unicode="!" horiz-adv-x="544" d="M109 96q0 -8 16.5 -34.5t38.5 -53t48 -48t42 -21.5l19 32t34 45q30 32 56 45t26 27q0 11 -28 30.5t-49.5 46t-33.5 50.5t-22 24t-34 -18t-49.5 -42t-44.5 -48t-19 -35zM117 1632q0 -26 22.5 -77t22.5 -135v-1047q0 -38 26 -38q19 0 46 15t54 32t47.5 32t32.5 15 q21 0 21 3q0 5 -9.5 14t-21.5 29t-21 53.5t-9 86.5v1121q0 45 -4 61.5t-9 16.5q-8 0 -24.5 -24.5t-36.5 -52t-45.5 -52t-51.5 -24.5q-40 0 -40 -29z" />
<glyph unicode="&#x22;" horiz-adv-x="670" d="M35 1707q3 -3 12 3.5t18 14.5t19 16.5t17 8.5q11 0 13.5 -53.5t2.5 -120.5v-120t5 -61q3 -5 18 12.5t30.5 70.5t29 151.5t13.5 260.5q0 5 -30.5 -20t-65.5 -59.5t-61 -66.5t-21 -37zM295 1707q3 -3 12.5 3.5t18.5 14.5t18.5 16.5t18.5 8.5q10 0 12.5 -53.5t2.5 -120.5 v-120t6 -61q2 -5 16.5 12.5t30.5 70.5t29.5 151.5t13.5 260.5q0 5 -31 -20t-65.5 -59.5t-61 -66.5t-21.5 -37z" />
<glyph unicode="#" horiz-adv-x="1095" d="M23 1349h238l-99 -193l160 69l67 124h167l-93 -185l179 101l44 84h150l132 86h-241l74 143h134l125 86h-219l89 165l-166 -66l-48 -99h-173l87 165l-162 -66l-47 -99h-157l-129 -86h241l-73 -143h-151zM429 1433l71 145h173l-74 -145h-170z" />
<glyph unicode="$" horiz-adv-x="1235" d="M0 5q3 3 28 19t82.5 33t128.5 17q59 0 119.5 -13t108 -28t77.5 -28l31 -13v-236h32v221l69 -35v-186h32v170q3 -3 24.5 -16.5t46 -28t31.5 -14.5q18 0 35.5 38.5t53.5 86.5t103.5 86.5t187.5 38.5q15 0 16 13q0 10 -18.5 35.5t-42.5 59.5t-42.5 71t-18.5 69v461 q0 45 13 83.5t30.5 71.5t30.5 58.5t13 40.5q0 8 -3.5 16.5t-17.5 8.5q-12 0 -35 -12.5t-59.5 -26.5t-85 -26t-116.5 -12h-146v580q14 0 47 -5t73 -5q91 0 160 35.5t117 85t72 101.5t24 81q-2 -3 -31.5 -17.5t-94 -32t-145.5 -17.5q-54 0 -107 10.5t-81 19t-34 11.5v162h-32 v-155l-69 26v129h-32v-114q-56 21 -89.5 50t-43.5 29q-16 0 -25.5 -52t-37.5 -115.5t-88 -115.5t-177 -52q-23 0 -23 -21q0 -16 9 -42t18 -54t19 -57t10 -53v-421q0 -35 -15 -70.5t-30.5 -67.5t-30.5 -55t-15 -30q0 -19 16 -19q12 0 41 10.5t60.5 23t67.5 23t66 10.5h268 v-600l-58 21q-57 20 -141 20q-56 0 -122 -19t-121.5 -54.5t-94 -87.5t-38.5 -119zM330 1143v412q0 109 23 146t43 37q24 0 48 -13t47 -30.5t44 -33t40 -20.5v-613h-95q-46 0 -79 10.5t-52 33.5t-19 71zM607 231v613h69v-653zM607 1028v601l69 -16v-585h-69zM708 176v668 q77 0 134.5 -58.5t57.5 -143.5v-474q0 -48 -23.5 -54.5t-61.5 8.5q-13 5 -40 19t-45.5 23t-21.5 12z" />
<glyph unicode="%" horiz-adv-x="1511" d="M8 1230l23 5q22 5 43 5q40 0 72 -17t56 -38t38 -39t19 -18q2 0 42 23t98.5 51t122.5 52t114 24q23 0 63.5 -1.5t40.5 3.5q0 8 -16 18t-34.5 21.5t-34 26.5t-15.5 36v391q0 3 16.5 18t38 33t39 37t17.5 27q-2 0 -21 -1.5t-48 0t-49 8.5q-48 24 -83.5 64t-49.5 40 q-7 0 -31 -21.5t-71 -45.5t-114.5 -44.5t-161.5 -20.5q-15 0 -43 2l-28 3q0 -18 29 -44t29 -68v-376q0 -32 -16 -54t-34.5 -38.5t-34.5 -31.5t-16 -30zM226 1369v433q0 30 41.5 51.5t78.5 21.5q32 0 62.5 -15t56 -32t41.5 -33l15 -17v-455q0 -18 -15.5 -33t-35.5 -25.5 t-39 -17.5t-27 -7t-35.5 14t-59.5 34t-57.5 40.5t-25.5 40.5zM376 -10q-3 -8 6 -7t23 7.5t29.5 14.5t25.5 16q13 8 38.5 30.5t41.5 40t19 20.5l551 1811q0 5 -11.5 3.5t-29 -5t-34 -11t-21.5 -9.5q-5 -6 -19.5 -20t-29.5 -31.5t-26.5 -32.5t-11.5 -18zM742 26l23 6 q23 6 45 6q40 0 71.5 -17.5t55.5 -39t37.5 -38.5t18.5 -17q3 0 42.5 22t98.5 50t123 52t115 24q23 0 63.5 -1t40.5 4q0 7 -16.5 17t-35.5 21.5t-34.5 26.5t-15.5 36v391q0 3 17 18t38.5 34t39 37t17.5 26q-3 0 -21.5 -1.5t-48 0t-47.5 9.5q-48 23 -84 63.5t-50 40.5 q-8 0 -32 -21t-70 -45t-114.5 -45.5t-161.5 -21.5q-16 0 -44 3l-28 2q0 -18 29.5 -43.5t29.5 -68.5v-375q0 -33 -16 -55t-34.5 -38t-35 -30.5t-16.5 -31.5zM961 165v434q0 30 41.5 51t77.5 21q33 0 63.5 -14.5t56 -32t41.5 -33.5l16 -16v-455q0 -19 -16 -33.5t-36.5 -25 t-38.5 -17t-26 -6.5t-36.5 13t-60.5 33t-57 41.5t-25 39.5z" />
<glyph unicode="&#x26;" horiz-adv-x="2038" d="M61 575q0 -43 25.5 -112t67 -149t89 -162.5t94.5 -147.5t84 -106.5t53 -41.5q14 0 84 43t161 100t182.5 119.5t149 101.5t62.5 41q63 -114 129 -187.5t129.5 -117.5t123.5 -61t108 -17q86 0 151 48t108.5 104t66.5 103l22 48q-58 -59 -116.5 -80.5t-119.5 -21.5 q-56 0 -110.5 27t-105.5 72.5t-94.5 102.5t-78.5 121l205 136q26 -38 91 -64.5t149 -26.5q50 0 101 16.5t90.5 37t63.5 44.5t24 39l-32 -6t-81 2.5t-107.5 35t-109.5 90.5l-410 -272l-368 666q3 2 44.5 27.5t108 76t127.5 114.5t106.5 142.5t45.5 157.5q0 51 -28 107 t-69.5 103t-87.5 77.5t-84 30.5q-86 0 -205.5 -38.5t-228.5 -93t-185 -113.5t-76 -99q0 -15 30.5 -80.5t72 -147t85.5 -164t72 -133t31 -56.5l-48 -29q-49 -29 -119.5 -72.5t-153 -95.5t-153 -101.5t-118.5 -87t-48 -50.5zM282 706q3 2 44.5 29t107.5 69t128.5 82.5 t108 69.5t45.5 27l379 -691l-424 -274q-18 0 -54.5 43t-80 109.5t-88 146t-81.5 156t-61 138.5t-24 95zM628 1659q0 10 19 36.5t52 53.5t81 48.5t104 21.5q162 0 231 -77.5t69 -194.5q0 -56 -14 -114.5t-46 -114.5t-80 -105t-114 -85z" />
<glyph unicode="'" horiz-adv-x="318" d="M35 1707q3 -3 13 6t22 18.5t21.5 18t9.5 0.5q11 -72 15 -135t4 -111q0 -45 -1.5 -74.5t3.5 -34.5q3 -5 19 12.5t33 70.5t29.5 151.5t9.5 260.5q0 5 -30.5 -20t-65.5 -59.5t-61 -66.5t-21 -37z" />
<glyph unicode="(" horiz-adv-x="598" d="M32 857q0 -229 42.5 -415t97 -320.5t102.5 -208t61 -73.5q8 0 34.5 37t64.5 70q30 26 62 34.5t32 18.5q0 16 -49.5 71.5t-108 173.5t-108 306.5t-49.5 467.5q0 206 26.5 363t66.5 271.5t86.5 192t84 126t60 72.5t17.5 32q-8 8 -49.5 -17t-99 -88t-123.5 -161t-120.5 -235 t-92 -317t-37.5 -401z" />
<glyph unicode=")" horiz-adv-x="569" d="M3 -122q0 -11 15 -11q13 0 56 32t99 98.5t117 167.5t113 238.5t86.5 310.5t34.5 383q0 226 -42.5 414t-97 322t-104 207.5t-59.5 73.5q-8 0 -34.5 -37t-64.5 -70q-30 -26 -61 -34.5t-31 -18.5q0 -16 48.5 -72t107 -173t108 -306t49.5 -468q0 -293 -53 -487t-117 -314.5 t-117 -177.5t-53 -78z" />
<glyph unicode="*" horiz-adv-x="600" d="M64 1606h200l-139 -140l25 -23l137 139v-221l33 31v190l138 -139l24 23l-139 140h168l30 32h-198l139 138l-24 23l-138 -138v221l-33 -32v-189l-137 138l-25 -23l139 -138h-168z" />
<glyph unicode="+" horiz-adv-x="813" d="M56 623q5 -5 15.5 2.5t32 20t60.5 21.5t100 9h125v-229l32 33v196h87q51 0 98 36t82.5 80t55.5 81t12 40t-20 -5t-31 -18.5t-50.5 -19.5t-79.5 -9h-154v219l-32 -31v-188h-97q-42 0 -87 -36.5t-79.5 -79t-54.5 -81.5t-15 -41z" />
<glyph unicode="," horiz-adv-x="338" d="M35 64q8 -6 30.5 18.5t35.5 24.5q8 0 38.5 -38.5t30.5 -100.5q0 -43 -21.5 -76.5t-45.5 -58t-43.5 -41t-16.5 -19t41 18t83.5 58.5t82.5 92.5t37 118.5q0 33 -13 64.5t-29 57t-31.5 40t-22.5 14.5q-5 0 -31.5 -25.5t-57 -56t-51.5 -58.5t-16 -33z" />
<glyph unicode="-" horiz-adv-x="819" d="M56 623q5 -5 15.5 2.5t32 20t60.5 21.5t100 9h244q51 0 98 36t82.5 80t55.5 81t12 40t-20 -5t-31 -18.5t-50.5 -19.5t-79.5 -9h-283q-42 0 -87 -36.5t-79.5 -79t-54.5 -81.5t-15 -41z" />
<glyph unicode="." horiz-adv-x="542" d="M109 96q0 -8 16.5 -34.5t38.5 -53t48 -48t42 -21.5l19 32t34 45q30 32 56 45t26 27q0 11 -28 30.5t-49.5 46t-33.5 50.5t-22 24t-34 -18t-49.5 -42t-44.5 -48t-19 -35z" />
<glyph unicode="/" horiz-adv-x="1157" d="M18 -147h150l886 2146h-149z" />
<glyph unicode="0" horiz-adv-x="1410" d="M10 21q0 -11 8 -11q3 0 18 10t36.5 20.5t49.5 19.5t61 9q80 0 136.5 -36t100 -78.5t80 -78.5t69.5 -36t65 21.5t73 52t91.5 65t120.5 59.5q72 26 140.5 41t122 25t86.5 19.5t33 26.5q0 7 -16.5 19t-37 32t-36 53t-15.5 87v1267q8 0 41 19t69 47t65 57t29 50q0 13 -10 13 q-8 0 -13 -6.5t-16.5 -15.5t-36.5 -15.5t-72 -6.5q-64 0 -118 33t-98.5 71.5t-82 71.5t-69.5 33q-10 0 -80 -41t-175 -90.5t-237.5 -90.5t-274.5 -41q-30 0 -13.5 -17.5t45.5 -39t58.5 -39.5t29.5 -22v-1375q-6 0 -41.5 -16.5t-77 -41.5t-75 -57t-33.5 -67zM421 203v1453 q0 8 33.5 33.5t78 49.5t90 37t69.5 -5q82 -64 141 -97t97 -48t57 -17.5t24 -2.5v-1364q0 -51 -25 -84t-58.5 -52.5t-69.5 -29.5t-57 -10q-48 0 -97 21.5t-98.5 47t-96 47t-88.5 21.5z" />
<glyph unicode="1" horiz-adv-x="952" d="M5 -30q0 -2 62.5 14t158.5 20t208 -21.5t211 -109.5q2 -3 27.5 15t58.5 49t71.5 67t71.5 69.5t54.5 56t21.5 25.5q0 13 -13 13t-25 -10.5t-25 -25.5t-27 -25.5t-24 -10.5q-18 0 -76.5 32t-134.5 48v1472q0 104 -26.5 169t-58.5 102t-60 52t-33 15q-8 0 -50.5 -52 t-142.5 -153q-102 -99 -162 -131t-60 -42q0 -8 12 -21.5t12 -49.5q0 -30 -4 -53t-1 -23q48 0 87.5 39t72.5 86.5t61 86.5t53 39q13 0 33 -8t38.5 -30.5t32 -64t13.5 -105.5v-1309q-86 0 -164 -25.5t-139.5 -60.5t-97.5 -74t-36 -65z" />
<glyph unicode="2" horiz-adv-x="1277" d="M0 -56q0 -71 30 -71q21 0 34 18t25 46t28 58.5t43 55.5q38 32 100 57t174 25q74 0 147.5 -38.5t134.5 -84t105.5 -84t65.5 -38.5q7 0 36.5 21.5t67 53.5t81 71.5t78 80t58.5 72t24 50.5q0 23 -20 24q-30 0 -47 -15t-33.5 -30.5t-36.5 -30.5t-54 -15q-63 0 -112.5 19 t-95 42t-95 41t-113.5 18q-99 0 -182.5 -23t-144.5 -49.5t-95.5 -43.5t-34.5 -9q0 96 48 177.5t122 153t170 139.5t192 137t182 145t149 163q61 91 87.5 160.5t36 118.5t10.5 83t14 49q11 16 27 25.5t32 17.5t26.5 14.5t10.5 16.5q0 13 -26.5 15t-78.5 12.5t-129.5 38.5 t-179.5 94q-86 56 -137 109.5t-80 95t-44.5 67.5t-35.5 26q-18 0 -26 -47.5t-29 -113t-64 -132t-128 -101.5q-53 -21 -106.5 -29t-96.5 -8h-68t-28 -5q0 -10 17.5 -33t49.5 -47t75 -41.5t96 -17.5q88 0 178 41.5t164.5 89t124 88t52.5 37.5l119 -70q36 -18 50 -55t14 -83 q0 -127 -73 -244.5t-175.5 -225t-211.5 -206t-183 -190.5q-64 -76 -122 -177.5t-100 -201t-67.5 -182t-25.5 -125.5z" />
<glyph unicode="3" horiz-adv-x="1240" d="M0 122q0 -13 21.5 -14t55.5 -1q37 0 86.5 -8t102.5 -35q56 -30 94.5 -66t66.5 -69t48 -56t36 -23q18 0 39.5 23t58 56t92.5 73.5t140 71.5q51 18 110.5 24t113 8.5t91 6.5t43.5 20q5 18 -12.5 31.5t-40.5 30t-42.5 33t-19.5 44.5v335q0 40 13 56t30.5 24.5t30.5 11 t13 12.5q0 11 -49.5 46.5t-117 79.5t-139.5 89.5t-118 73.5t-49 31q3 3 32 21t90 40.5t136 22.5q68 0 115 -9t47 2q0 40 -21.5 64t-21.5 63v309q0 24 16.5 37.5t36.5 22.5t35.5 15.5t15.5 21.5t-19.5 16.5t-58.5 6.5t-99 26.5t-139 77.5q-86 58 -131.5 104t-68.5 73.5 t-35.5 42t-28.5 14.5q-15 0 -30 -39.5t-43 -88t-79 -88.5t-138 -40q-35 0 -73 8.5t-72 16t-56 11.5t-22 -1q0 -18 19.5 -56t58.5 -76t91 -66t115 -28q77 0 153 30.5t137.5 66t99.5 65.5l38 29l94 -72v-481q-5 -2 -58.5 -30.5t-140 -77.5t-167.5 -103.5t-139.5 -109 t-58.5 -95.5q0 -20 20 -20q8 0 37.5 27.5t64.5 57t70.5 49t59.5 3.5l320 -223v-501l-208 -74q-3 0 -36 25.5t-87.5 57.5t-125 58.5t-145.5 26.5q-72 0 -126.5 -17.5t-93 -41.5t-58.5 -48t-20 -35z" />
<glyph unicode="4" horiz-adv-x="1428" d="M18 660q0 -45 35 -65t94 -20h694v-450q-45 0 -98.5 -17t-98.5 -41t-76.5 -52t-31.5 -47q0 -3 42 12t108 15q72 0 123.5 -21.5t84.5 -45.5t50 -45t24 -21q6 0 50 40t96 89t94 89l41 40q-13 7 -24 7q-13 0 -31 -22.5t-38 -22.5q-13 0 -51 12.5t-81 19.5v461h381l-48 32 h-333v1034q6 0 37 15.5t64 44.5t60 71t27 95q0 8 -6 8q-7 0 -22 -12.5t-34 -27t-40 -26.5t-40 -12q-40 0 -65 25t-44 57t-35 57.5t-37 25.5t-53.5 -27t-78.5 -103l-671 -1022q-33 -51 -50.5 -81.5t-17.5 -68.5zM181 780q0 43 18.5 105.5t47.5 107.5l456 694q3 -2 18.5 -16.5 t48.5 -30.5t71 -16v-1017h-500q-51 0 -83 16.5t-49.5 41t-22.5 55.5t-5 60z" />
<glyph unicode="5" horiz-adv-x="1324" d="M0 142q0 -8 37 -14t91.5 -12.5t114.5 -18t108 -33.5q48 -24 93.5 -63t82.5 -77t69 -66t54 -28q18 0 30 22.5t34.5 57t65.5 75.5t125 79q71 32 131.5 40t103.5 8h69q26 0 26 15q0 19 -18 31t-39.5 27t-40.5 37t-19 60v559q16 3 44 28t53 56t45 60t20 46l-2 4q-3 4 -5 4 q-11 0 -37.5 -17.5t-95.5 -17.5q-71 0 -124 35.5t-95 80t-81 80t-83 35.5q-19 0 -73 -25.5t-120 -57t-137 -57t-127 -25.5q-40 0 -63.5 16t-23.5 59v567h724q94 0 156.5 34.5t100.5 82.5t54.5 100t16.5 83q0 38 -13 38t-34.5 -24t-59 -53t-91 -53.5t-130.5 -24.5h-612 q-45 0 -73 -3.5t-44.5 -15.5t-21.5 -32t-5 -55v-714q0 -66 15 -90t41 -24q23 0 58 16t76 33.5t88 33.5t92 16q51 0 101.5 -20.5t104.5 -76.5q63 -69 103 -99.5t75 -37.5v-682l-115 -70q-2 0 -44 25.5t-109.5 56t-157.5 57t-192 26.5q-66 0 -124 -11.5t-100 -29t-67.5 -33 t-25.5 -23.5z" />
<glyph unicode="6" horiz-adv-x="1298" d="M0 64q0 -6 24 9t77 15q77 0 148 -40t127 -89.5t93 -89t45 -39.5q12 0 61.5 50.5t138.5 111.5t221 112t314 51q8 0 8 7q0 8 -16 24.5t-35 36t-34.5 42t-15.5 44.5v588q5 0 25 16.5t42 40.5t41 53t19 58q0 10 -29 -7t-83 -17q-63 0 -107.5 23t-79 51t-61 50t-57.5 22 q-18 0 -36 -4t-47 -22l-399 -264v772l144 89l30 -24q31 -24 82.5 -55t119.5 -57.5t142 -26.5q91 0 185.5 53.5t174.5 193.5q8 13 -14.5 5.5t-63.5 -22t-94.5 -25.5t-109.5 -6q-48 5 -85.5 31.5t-67 56t-49 53.5t-33.5 24q-18 0 -50 -24t-73.5 -58.5t-89 -71.5t-95.5 -64 q-91 -51 -158.5 -72t-113 -28t-68.5 -9.5t-25 -18.5q-3 -18 17 -27.5t44 -21.5t45.5 -34.5t21.5 -68.5v-1210q-5 0 -37.5 -13.5t-68.5 -37.5t-65 -58.5t-29 -77.5zM384 251v603q0 3 29 25.5t72 48t89 45.5t81 20q30 0 54.5 -16t56.5 -35.5t80 -38.5t126 -27v-685 q0 -13 -35 -35.5t-78.5 -43.5t-85 -36t-54.5 -15q-43 0 -95 29.5t-99.5 65t-86.5 65.5t-54 30z" />
<glyph unicode="7" horiz-adv-x="1227" d="M0 1433q0 -19 18 -20q18 0 39.5 36.5t42 80t38 80t27.5 36.5q5 0 38.5 -17.5t88 -38t129 -37t168.5 -16.5q91 0 164 18t123.5 39.5t77 37.5t26.5 11q0 -53 -56 -141.5t-139.5 -200t-181 -244.5t-181.5 -272.5t-140 -284t-56 -279.5q0 -88 24 -158.5t54.5 -121t60 -77 t42.5 -26.5t69.5 42.5t117.5 100t109 113.5t48 82t-29 27q-16 0 -32.5 -17.5t-32 -38t-35.5 -36t-47 -15.5q-54 0 -83 52t-29 129q0 130 54.5 278t137 299.5t177.5 305t177.5 296t137 269.5t54.5 229q0 53 -25 53q-32 0 -56.5 -41t-66.5 -89t-109.5 -89.5t-186.5 -41.5 q-110 0 -196.5 36.5t-150.5 80t-105 81t-61 37.5q-10 0 -31.5 -36.5t-49.5 -91t-57 -119.5t-51.5 -126t-38.5 -109t-16 -66z" />
<glyph unicode="8" horiz-adv-x="1394" d="M0 21q0 -5 8 3t25.5 18.5t45.5 20t68 9.5q74 0 151.5 -37.5t139.5 -81.5t105 -81t49 -37q2 0 8.5 15t19.5 37t37 48.5t62 48.5q66 41 147.5 69.5t160 50t147.5 32.5t109 11q11 0 11 10q0 8 -17 24.5t-40 37t-40.5 47t-17.5 54.5v330q0 43 13.5 57.5t29.5 19.5t28 10 t12 20q0 29 -24 45t-51 29l-372 186l28 21q28 22 80 46t125 45t161 21q16 0 16 8t-10.5 21.5t-23 29.5t-23 34.5t-10.5 34.5v340q13 0 43.5 18t61.5 51t55 80t24 102q0 3 -16 -8t-41 -24t-57 -25.5t-64 -12.5q-36 0 -74 31.5t-78 68.5t-82.5 67.5t-83.5 30.5 q-23 0 -98 -45.5t-179 -101.5t-224.5 -101t-237.5 -45q-16 0 -16 -5q0 -8 18 -23t39.5 -36.5t40.5 -46.5t19 -54v-314q0 -30 -13.5 -45.5t-29 -26t-29.5 -19t-14 -16.5q0 -13 34.5 -29.5t94.5 -44.5l316 -155l-135 -96q-46 -33 -109.5 -43t-122 -13t-100.5 -5.5t-42 -17.5 q0 -13 21.5 -24t46 -25.5t45 -37.5t20.5 -63v-320q-8 0 -39.5 -14t-65 -42t-60 -71t-26.5 -96zM376 247v400q0 24 35.5 62.5t77 74.5t77.5 63l36 27l394 -195v-471q0 -38 -34.5 -66t-79 -46.5t-85 -28t-55.5 -9.5q-40 0 -95 29.5t-108.5 65t-99 65t-63.5 29.5zM391 1225v351 q0 35 15 73t40 70.5t62.5 53.5t83.5 21q58 0 120.5 -28t117 -60t93 -60t52.5 -28v-380q0 -24 -31 -59.5t-68.5 -68t-67.5 -54.5l-31 -22z" />
<glyph unicode="9" horiz-adv-x="1372" d="M0 724q0 -8 8 -8q18 0 62 23t80 23q40 0 92.5 -25.5t100.5 -57.5t81.5 -57t35.5 -25q5 0 61 39.5t129.5 87.5t145.5 88t106 40q33 0 48.5 -29.5t15.5 -98.5v-415q0 -85 -21 -126t-57 -52t-88 0t-112 28t-127.5 33t-139.5 16q-82 0 -146 -25.5t-108.5 -56t-68.5 -58.5 t-24 -36q0 -12 35 -4.5t104 7.5q112 0 182 -30.5t115.5 -69.5t71 -69.5t46.5 -30.5t37 17.5t44 49.5t75 75.5t132 96.5q56 35 118.5 58t114.5 38.5t85.5 26.5t33.5 27q0 18 -19 26.5t-40.5 21.5t-40 39.5t-18.5 82.5v1204q11 0 45.5 22.5t70 54.5t65.5 67.5t30 59.5 q0 10 -12 12q-10 0 -31.5 -11.5t-45 -25.5t-50 -25t-51.5 -11q-53 0 -106.5 39t-99.5 85t-83.5 85t-61.5 39q-8 0 -73.5 -47t-166 -104t-228.5 -104t-261 -47q-26 0 -27 -13q0 -10 16 -30t35.5 -48t37 -62.5t17.5 -74.5v-554q-8 -5 -35.5 -24.5t-58 -46.5t-53.5 -56.5 t-23 -53.5zM354 930v604q0 48 24 90.5t60 75.5t77 52t77 19q23 0 63.5 -27t87.5 -60t104.5 -59.5t118.5 -26.5v-602q0 -21 -45 -56t-102 -67t-109 -56t-65 -24q-16 0 -56 20t-87 47t-88 48.5t-60 21.5z" />
<glyph unicode=":" horiz-adv-x="523" d="M109 96q0 -8 16.5 -34.5t38.5 -53t48 -48t42 -21.5l19 32t34 45q30 32 56 45t26 27q0 11 -28 30.5t-49.5 46t-33.5 50.5t-22 24t-34 -18t-49.5 -42t-44.5 -48t-19 -35zM109 937q0 -7 16.5 -34t38.5 -53.5t48 -48t42 -21.5l19 32q19 32 34 45q30 32 56 45.5t26 27.5 q0 10 -28 30t-49.5 47t-33.5 50t-22 23t-34 -18t-49.5 -42t-44.5 -48t-19 -35z" />
<glyph unicode=";" horiz-adv-x="478" d="M104 64q8 -6 30.5 18.5t35.5 24.5q8 0 38.5 -38.5t30.5 -100.5q0 -43 -20.5 -76.5t-44.5 -58t-44.5 -41t-18 -19t41 18t84 58.5t82.5 92.5t37 118.5q0 33 -13 64.5t-29 57t-32 40t-21 14.5t-31.5 -25.5t-57 -56t-52 -58.5t-16.5 -33zM109 932q0 -8 16.5 -34.5t38.5 -53 t48 -48t42 -21.5l19 32q19 31 34 45q30 32 56 45t26 27q0 11 -28 31t-49.5 46.5t-33.5 50t-22 23.5t-34 -18t-49.5 -42t-44.5 -48.5t-19 -34.5z" />
<glyph unicode="&#x3c;" horiz-adv-x="737" d="M0 905l60 -40q60 -39 142.5 -107.5t170 -156t143.5 -186.5q5 2 33 13t69.5 32.5t67.5 45.5l-30 44q-31 44 -96 114t-166.5 159.5t-238.5 182.5l35 32q36 32 109.5 84t183 117.5t254.5 129.5l-23 31l-69 -30q-68 -31 -172.5 -92t-231.5 -154t-241 -219z" />
<glyph unicode="=" horiz-adv-x="833" d="M56 516q5 -5 15.5 3.5t32 20t60.5 20.5t100 9h244q51 0 98 36.5t82.5 80t55.5 80.5t12 40.5t-20 -5t-31 -19t-50.5 -19.5t-79.5 -9h-283q-42 0 -87 -36.5t-79.5 -78.5t-54.5 -81t-15 -42zM56 836q5 -5 15.5 2.5t32 20t60.5 21.5t100 9h244q51 0 98 36t82.5 80t55.5 81 t12 39.5t-20 -5t-31 -18t-50.5 -20.5t-79.5 -10h-283q-42 0 -87 -35.5t-79.5 -78t-54.5 -81.5t-15 -41z" />
<glyph unicode="&#x3e;" horiz-adv-x="737" d="M0 500l23 -32l69 31q68 31 173 92.5t231.5 154t240.5 217.5l-60 41q-59 40 -142 107.5t-170.5 155.5t-143.5 186q-5 -2 -33 -12.5t-69.5 -32t-67.5 -44.5l30 -44q31 -45 96 -115.5t165 -159.5t242 -182l-37 -32q-36 -33 -109 -84t-182 -117t-256 -130z" />
<glyph unicode="?" horiz-adv-x="785" d="M46 1606q10 0 44.5 6t78.5 13t87.5 14t71.5 7q146 0 201 -62t55 -162q0 -91 -36.5 -205.5t-79 -234t-78.5 -238.5t-36 -216q0 -21 1 -39t4 -37q0 -10 12.5 -14t25.5 -2.5t24 8t11 16.5q0 155 52 298.5t114 278t114 259t52 238.5q0 77 -30.5 139.5t-98.5 105t-176 65.5 t-264 23q-8 0 -35 -41.5t-55 -90t-46.5 -89t-12.5 -40.5zM234 117q0 -13 19 -37t44 -48t49 -41t35 -17q10 0 22 23.5t33.5 50t49.5 46.5t28 31q0 13 -26 26.5t-56 46.5q-13 13 -34 44l-20 32q-15 0 -40.5 -21.5t-48.5 -48t-39 -53t-16 -34.5z" />
<glyph unicode="@" horiz-adv-x="1106" d="M0 618q0 -181 38.5 -297t102.5 -185.5t144 -96t165 -26.5q76 0 151 17.5t135 41.5t99 47t46 33q3 5 -31.5 -11t-91.5 -35.5t-132 -37t-155 -17.5t-157 24t-137 86.5t-95.5 173t-35.5 283.5q0 146 42 248t114 168t164 95t190 29q80 0 157 -24t138.5 -67t100.5 -104 t39 -132q0 -145 -24.5 -248t-58.5 -170t-74.5 -97.5t-71.5 -30.5q-30 0 -47 21.5t-17 61.5v425q5 3 32 19t57.5 39t54.5 48t24 46q0 8 -6 19t-16 11q-21 0 -29 -24t-19 -45.5t-22.5 -36.5t-41.5 -15q-16 0 -26 23t-22.5 48t-28 48t-43.5 23q-5 0 -24 -28t-52 -61 t-79.5 -62.5t-110.5 -29.5l17 36q18 36 18 73q0 24 -16.5 42.5t-57.5 18.5t-58.5 -22.5t-17.5 -52.5q0 -38 16.5 -75t37.5 -58l144 -144q-40 -8 -87 -27.5t-85.5 -54.5t-63.5 -83.5t-25 -111.5q0 -74 34.5 -124.5t104.5 -50.5q37 0 83.5 31.5t87.5 72t69 72.5t30 32l3 -36 q4 -36 10.5 -79t20 -78.5t39.5 -35.5q46 0 112 33t127 112t104 207t43 319q0 82 -40 150t-108 116t-155.5 73.5t-183.5 25.5q-99 0 -196 -32.5t-175.5 -101.5t-128 -179.5t-49.5 -264.5zM285 439q0 59 42.5 112t96.5 53q21 0 42.5 -5t21.5 3q0 5 -11 16l-155 154l-4 7 q-3 6 2 6q18 0 42 4t42 9q43 11 71 33.5t39 22.5q7 0 17 -9t17.5 -21t14 -21.5t14.5 -9.5v-367q-2 -5 -27.5 -36t-70.5 -67t-88 -36q-48 0 -77 49.5t-29 102.5z" />
<glyph unicode="A" horiz-adv-x="1855" d="M0 -21q0 -2 13 -2q5 0 25 9t48 18t64 18.5t76 9.5q82 0 155.5 -26.5t127 -60t87.5 -60.5t44 -27q2 0 25.5 19t58.5 45.5t72 60t69 61.5t53.5 48t21.5 22q0 8 -8 8q-13 0 -32 -9t-39 -18t-37 -19t-26 -10q-10 0 -47 15t-93 33.5t-129.5 33t-158.5 14.5l192 440h772 l216 -722q10 -32 48 -32q40 0 98.5 37.5t113 81t93 82.5t38.5 45q0 2 -10.5 -5t-28 -17.5t-37.5 -18t-36 -7.5q-23 0 -46 16.5t-40 72.5l-526 1649v175l-165 -61q-26 5 -88 25.5t-179 20.5q-99 0 -161 -48.5t-96.5 -107t-45.5 -106.5t-5 -48q5 0 23.5 21.5t51 47t77 47 t100.5 21.5q59 0 103 -16.5t71 -40.5t36 -50t1 -51l-96 -221l-22 7q-21 6 -54.5 16t-77 17.5t-86.5 7.5q-37 0 -75.5 -9t-69 -31.5t-50.5 -61.5t-20 -98q0 -13 1 -33t2.5 -39.5t5.5 -33t9 -13.5q3 0 14 24t35 53t61 53t93 24t95.5 -17.5t39.5 -61.5q0 -16 -2.5 -33.5 t-13.5 -44.5l-414 -956q-43 0 -98 -22.5t-103 -52t-81 -60t-33 -48.5zM628 757l314 731q11 24 30 50.5t34 26.5q16 0 36 -26.5t28 -50.5l218 -731h-660z" />
<glyph unicode="B" horiz-adv-x="1905" d="M13 1611q3 -120 24 -187t35 -67q2 0 -12 59.5t-14 133.5q0 40 11.5 81t35.5 74t58.5 53t79.5 20q54 0 102 -20t100 -42t111.5 -42t136.5 -20q72 0 132.5 39.5t100 86t54.5 86.5t-5 40q-10 0 -21.5 -10.5t-30.5 -23.5t-48.5 -24t-77.5 -11q-71 0 -129.5 20t-113 43 t-112 42.5t-127.5 19.5q-89 0 -144 -34.5t-88 -86.5t-45.5 -113t-12.5 -117zM142 823q0 -53 15.5 -97.5t20.5 -44.5q3 0 8 26.5t21.5 60t47 60t86.5 26.5q58 0 74.5 -17t16.5 -75v-330q0 -36 -11 -75.5t-23 -72.5t-20 -58.5t-5 -27.5q3 -6 41 15t82.5 61.5t81.5 96t37 119.5 v727q0 71 12.5 120.5t26.5 79t23 41t2 11.5q-21 0 -62.5 -9t-82.5 -51.5t-71.5 -132t-30.5 -248.5l-17 7q-16 6 -45 6q-119 0 -173.5 -58.5t-54.5 -159.5zM176 -77q0 -5 29 4t79.5 23.5t120 27t149.5 12.5q119 0 207 -24t147.5 -53.5t93.5 -53.5t42 -24q5 0 26.5 24t60 57 t95.5 66.5t131 52.5q86 21 205.5 27.5t279.5 6.5q0 15 -14 31.5t-30.5 38t-31 52t-14.5 81.5v457q0 94 -45.5 152.5t-101 91.5t-101 50.5t-45.5 30.5q0 16 45.5 59t100 110.5t100 162.5t45.5 214q0 168 -66 265t-206 97q-94 0 -213.5 -58.5t-227 -154t-182.5 -217.5 t-75 -246v-653q0 -135 -13 -220t-16 -93q-10 -21 21 -9.5t74 54t80 110.5t37 158v784q0 91 32.5 174t91 145.5t135.5 100.5t170 38q61 0 91.5 -36.5t44.5 -92.5t14 -122v-125q0 -72 -6.5 -138.5t-28 -124t-59.5 -105t-101 -82.5q-24 -13 -53 -28t-57 -21.5t-47 4t-19 50.5 v245q0 10 5.5 14.5t12.5 7t11 10.5t1 26q0 8 -11 15t-21.5 4.5t-19.5 -20t-9 -57.5v-1131q0 -51 -31 -59q-14 -4 -34 -4q-23 -1 -55 5q-58 10 -144 27.5t-195 17.5q-112 0 -204.5 -33.5t-159 -75t-104 -78.5t-37.5 -45zM1171 125v144q0 46 56 71t128 25q37 0 75.5 -7 t69.5 -21.5t49.5 -37t18.5 -55.5q0 -53 -40 -88.5t-92 -58.5t-104 -32t-72 -9q-33 0 -61 19t-28 50zM1171 429v231q0 36 35 36q24 0 65.5 -8.5t100.5 -8.5q61 0 101.5 11t63.5 11q15 0 23 -8.5t8 -32.5v-228q0 -30 -12 -40.5t-34 -10.5q-26 0 -64 7.5t-92 7.5 q-53 0 -92 -7.5t-62 -7.5q-21 0 -31 9t-10 39zM1171 775v106q0 24 21.5 46.5t53.5 40t67.5 29.5t65.5 12q33 0 67.5 -13t61 -37t43.5 -58.5t17 -74.5q0 -62 -60 -88.5t-136 -26.5q-77 0 -139 17t-62 47z" />
<glyph unicode="C" horiz-adv-x="1705" d="M30 950q0 -231 62.5 -421.5t173 -326.5t260.5 -210t328 -74q138 0 255.5 36t209 90.5t158.5 117t108 117t55 90t1 35.5q-3 0 -34 -25t-75 -62t-94.5 -75.5t-93.5 -65t-71 -35t-28 20.5v1451q49 0 107 19t110 54.5t87.5 87.5t35.5 116q0 24 -4.5 56.5t-12.5 32.5 q-5 0 -22 -21.5t-49.5 -45.5t-78.5 -45.5t-110 -21.5q-33 0 -57 16t-45.5 36.5t-41 36t-46.5 15.5q-26 0 -60 -27t-57 -50l-597 -597l22 -21l216 215v-1022q0 -74 -12 -111.5t-5 -37.5q24 0 59 28t65.5 73.5t53.5 102.5t23 116v1036l98 98q18 -15 50 -40t72.5 -45.5t84 -37 t83.5 -16.5v-1451q0 -29 -20 -43.5t-48 -19.5t-54.5 -6.5t-42.5 -1.5q-213 0 -366 74t-253 202t-148 297t-48 358q0 157 36.5 278.5t88 213.5t111.5 157t107.5 109t75.5 69.5t18 35.5q-5 5 -56 -10.5t-121 -59.5t-151.5 -117.5t-152 -179t-115.5 -246.5t-45 -322z" />
<glyph unicode="D" horiz-adv-x="1825" d="M0 1997q-13 -5 11 -58.5t81.5 -116t147.5 -114.5t210 -52q53 0 122.5 27t131.5 43q37 10 67 10q21 0 39 -4q42 -12 42 -91v-1465q-51 12 -117.5 15.5t-104.5 3.5q-127 0 -244 -44t-203.5 -99t-136.5 -104q-43 -42 -42 -56q0 -2 1 -4q3 -5 49.5 17.5t115.5 50.5t151.5 52 t155.5 24q104 0 199.5 -31t169 -68t119.5 -67.5t54 -30.5t39 26.5t74.5 63.5t97 75t104.5 58q74 33 154 46t146 18q55 4 92 4h14q41 -1 41 4q0 10 -11.5 28t-28 43t-28 62t-11.5 93v922q0 147 -51 271.5t-144.5 218.5t-226 146.5t-297.5 52.5q-79 0 -143.5 -15.5t-128.5 -36 t-134.5 -36t-166.5 -15.5q-89 0 -159 22t-122 47.5t-84 45.5t-45 18zM168 879q0 -77 24 -135t34 -58q3 0 5.5 24t16 52t40.5 52t75 24t81 -17.5t33 -78.5v-265q0 -35 -16 -72t-35 -69.5t-33.5 -53.5t-11.5 -21q48 0 97.5 19.5t90.5 56t66 87t25 109.5v831q0 50 8 90t18 66.5 t16 39.5t1 13q-32 0 -70.5 -18t-73.5 -52t-58.5 -81.5t-23.5 -105.5v-297l-31 10t-92 10q-86 0 -136 -48.5t-50 -111.5zM884 168v356q0 51 29 84.5t76 52t101.5 25t105.5 6.5q46 0 94.5 -5.5t91.5 -18.5t69.5 -37t26.5 -64v-85q0 -35 2.5 -63l5 -56t10.5 -68 q11 -56 33.5 -78t22.5 -36q0 -3 -41.5 -14.5t-93.5 -33.5q-66 -24 -134.5 -48t-106.5 -24q-48 0 -91.5 15t-81 33t-69.5 35.5t-50 23.5zM884 745v373q0 21 6.5 34.5t22.5 13.5q29 0 93 -22.5t178 -22.5q86 0 150 21.5t101 21.5q21 0 32 -12t11 -44v-363q0 -49 -35 -49h-3 q-30 0 -89 14t-155 14q-112 0 -179 -20t-98 -20q-35 0 -35 61zM884 1288v402q0 40 19 64t60 24q104 0 193 -42t156 -110.5t105.5 -149.5t38.5 -158q0 -53 -36 -85t-81 -50.5t-91 -24t-64 -5.5t-67.5 2.5t-101.5 17t-91.5 41t-39.5 74.5z" />
<glyph unicode="E" horiz-adv-x="1881" d="M0 1702q0 -72 23 -135t50.5 -106.5t50.5 -66t26 -20.5q2 3 -10.5 27t-26.5 59.5t-26.5 81t-12.5 90.5q0 20 10 50t28 58t44.5 47t61.5 19q51 0 94.5 -17.5t89 -39t99 -38.5t124.5 -17q104 0 176.5 35.5t114.5 82.5t59.5 88t15.5 49q-3 2 -15.5 -8.5t-41.5 -25 t-76.5 -27.5t-123.5 -13q-37 0 -84.5 15.5t-103.5 35.5t-117 36.5t-126 16.5q-46 0 -98.5 -17.5t-98 -53.5t-76 -88t-30.5 -118zM234 -181q16 0 52 37t104 81.5t177 81.5t274 37q130 0 235.5 -41t185.5 -89t129 -89.5t68 -41.5q10 0 60.5 39t109 86.5t105.5 89t47 46.5 q0 10 -10 10q-21 0 -37.5 -6.5t-30 -15.5t-29 -16t-36.5 -7q-13 0 -36.5 12.5t-49.5 29t-57 34t-60 30.5q-45 19 -74.5 30t-52 16t-39.5 9t-37 9v843q24 -14 41.5 -25t36.5 -29q16 -15 24 -31.5t15.5 -30t16 -21.5t21.5 -8q8 0 58.5 26.5t109 62.5t107 71t48.5 48 q0 16 -16 16q-21 0 -57.5 -9t-66.5 -9q-32 0 -59.5 16.5t-54 37t-54.5 38t-60 17.5q-33 0 -56.5 -5.5t-53.5 -19.5v216q0 32 18 44t18 37q0 23 -28 23q-13 0 -26 -8t-13 -27v-300q-21 -14 -50.5 -39t-96.5 -25q-18 0 -40.5 4t-22.5 30v444q0 54 22.5 100.5t57 81t78.5 54.5 t89 20q48 0 81 -30.5t65.5 -66t69.5 -66t90 -30.5q54 0 112.5 34.5t106.5 76.5t80 82.5t32 50.5q0 8 -12.5 4t-33.5 -13t-54.5 -17.5t-72.5 -8.5q-48 0 -88.5 20t-80 43t-82.5 43t-96 20q-72 0 -143.5 -30.5t-127.5 -85t-91 -128t-35 -156.5v-1352q-114 0 -213.5 -31 t-182 -75t-145.5 -97t-105.5 -97t-62.5 -74.5t-15 -30.5zM272 866q0 -69 20 -112t25 -43q3 0 7 21.5t18 45t41 45t75 21.5q45 0 75.5 -10.5t30.5 -48.5v-297q0 -64 -10.5 -112t-22.5 -79t-17 -38l-14 -25q6 0 45 15t83.5 47t82 82.5t37.5 119.5v841q0 59 9.5 98t21 62 t22.5 35.5t11 20.5q0 5 -39 -5.5t-85 -38.5t-85 -77.5t-39 -123.5v-291l-32 6t-67 6q-81 0 -137 -37.5t-56 -127.5zM991 224v795q0 30 37 35.5t67 5.5q58 0 106 -14v-846q-53 11 -105 17.5t-105 6.5z" />
<glyph unicode="F" horiz-adv-x="1628" d="M0 -3q10 0 22.5 20.5t42 45.5t81.5 44.5t144 19.5q71 0 126 -27.5t107 -59.5t109 -60t130 -28q74 0 146 29t129.5 78.5t92 113.5t34.5 130v589q0 21 26.5 24t44.5 3q45 0 72 -15t40 -28v-855q0 -16 -6.5 -23.5t-15.5 -14t-16.5 -16.5t-7.5 -28q0 -35 30 -35q21 0 34 19 t14 56v875q11 -5 28.5 -13t17.5 3q0 8 -17.5 30.5t-17.5 81.5q0 32 13.5 56t28 41t28 30.5t13.5 24.5q0 5 -36.5 10t-57.5 0v538q89 0 151 52t98 116t51 116t6 52q-5 0 -15.5 -20.5t-29.5 -43t-48 -42t-72 -19.5q-41 0 -65.5 19.5t-42 42t-28 43t-18.5 20.5q-13 0 -33 -23 t-46.5 -56t-56 -70t-59.5 -70q-26 -30 -59.5 -56.5t-63 -50t-49 -46t-19.5 -38.5v-1384q0 -62 -19 -93t-74 -31q-56 0 -109.5 32t-114.5 69.5t-136 69.5t-173 32q-107 0 -178.5 -44.5t-113 -95.5t-56 -95.5t-6.5 -44.5zM144 1656q0 -66 17 -115.5t41 -82.5t49.5 -49.5 t38.5 -16.5q5 0 -5.5 15t-26.5 42t-29 65t-13 86q0 26 15.5 60t42 62t64.5 46t77 18q45 0 89.5 -13t88 -30.5t86.5 -30.5t85 -13q86 0 161.5 42.5t131.5 95.5t86.5 100t25.5 52q-3 3 -29.5 -12t-66 -32t-84 -33.5t-84.5 -16.5q-53 0 -100.5 15t-97 32t-103 32t-116.5 15 q-77 0 -141.5 -28t-110 -73.5t-69 -106.5t-23.5 -125zM356 963q0 -76 23 -123t28 -47q3 0 8.5 24t20 53.5t41 53.5t74.5 24q74 0 90.5 -25.5t16.5 -91.5v-191q0 -59 -12.5 -104.5t-27 -77.5t-24.5 -52t-5 -22q3 -6 43.5 7t86 43.5t84 81.5t38.5 126v689q0 46 11 84t23 67.5 t19.5 45.5t2.5 16q-13 0 -53.5 -21t-81 -57t-72.5 -84t-32 -99v-178l-24 7q-24 6 -75 6q-101 0 -152 -42t-51 -113zM1164 1095v620q0 21 16 24.5t29 3.5q35 0 57 -11.5t38.5 -28t25.5 -28t17 -11.5v-554q-21 -10 -53 -26.5t-82 -16.5q-13 0 -30.5 2.5t-17.5 25.5z" />
<glyph unicode="G" horiz-adv-x="1825" d="M46 961q0 -245 77 -439t203 -330t288.5 -208t333.5 -72q162 0 306 63t251.5 169.5t171.5 246t64 293.5q0 138 -37 234t-95.5 157t-132 93.5t-146.5 47t-140 17t-110 2.5l640 640q35 35 52 66.5t22 55t1 38.5t-11 15q-13 0 -34.5 -22.5t-62.5 -50.5t-104 -51t-158 -23 q-61 0 -105.5 23t-76 51t-54.5 50.5t-44 22.5q-13 0 -27 -13l-623 -624q-5 -5 -13 -14t-8 -12q0 -5 22.5 8t50.5 30.5t54.5 32.5t34.5 15q18 0 22.5 -17.5t4.5 -45.5v-973q0 -56 -9 -99t-20 -71t-17.5 -45t-1.5 -19q5 -5 43 18t78.5 65t75 95t34.5 107v513l171 170v-1046 q0 -53 -41 -82.5t-95 -29.5q-76 0 -177.5 47t-192 161t-153.5 307.5t-63 485.5q0 178 39 315t95 240t119.5 175t114.5 117t79 70t12 33q-6 3 -15 3q-20 0 -61 -13q-58 -18 -136.5 -67.5t-166.5 -131t-160.5 -195.5t-120.5 -263.5t-48 -335.5zM846 1049v488q0 35 7.5 76 t24 76.5t46 59.5t72.5 24q35 0 59.5 -11.5t48.5 -26.5t53.5 -27t72.5 -12q82 0 152.5 18.5t120 40t75 36.5t20.5 8l-549 -547v138q0 26 14.5 37t14.5 32q0 20 -24 22q-13 0 -25 -15t-12 -46v-201zM1049 112v205q0 48 53.5 73t119.5 25q38 0 76 -8t70 -22.5t52 -35.5t20 -51 t-35.5 -75t-86 -87t-102.5 -71.5t-85 -29.5t-57.5 22t-24.5 55zM1049 500v280q0 38 29 38q26 0 73.5 -15t123.5 -15q69 0 113.5 7.5t70.5 7.5t37 -16.5t11 -70.5v-178q0 -69 -19 -94t-50 -25q-35 0 -84.5 14t-110.5 14q-51 0 -88 -6.5t-60 -6.5q-21 0 -33.5 14.5t-12.5 51.5 zM1049 919v234q0 26 20 34.5t41 8.5q80 0 149.5 -24t122.5 -60.5t83.5 -81.5t30.5 -85q0 -48 -25 -73.5t-59.5 -37t-72.5 -13t-64 -1.5q-21 0 -58.5 4t-74.5 14.5t-65 29.5t-28 51z" />
<glyph unicode="H" horiz-adv-x="2160" d="M18 -117q5 -3 45.5 21t100.5 55t130.5 56t134.5 25q86 0 155 -22.5t118 -48t79.5 -48t38.5 -22.5t64 34.5t121 79.5t118 91t53 66q-2 -2 -23.5 -10t-53.5 -19t-53 -11q-26 0 -27 14v327q0 18 30.5 35.5t78.5 30t103 20t103 7.5q32 0 85.5 -5t105 -15.5t89 -28t37.5 -44.5 v-240q0 -18 -41.5 -59.5t-91 -83.5t-86.5 -74t-29 -32q18 0 37 10.5t37.5 22t40 22.5t42.5 11q40 0 76 -24t64 -53t49.5 -53.5t34.5 -24.5q2 0 32.5 17.5t75 44.5t93.5 60t85 63.5t53.5 56t-1.5 38.5q-3 -3 -23 -13t-54.5 -22.5t-60.5 -12.5q-56 5 -103 42.5t-47 74.5v1452 q0 2 45.5 34t94.5 73t84 81q21 25 21 43q0 11 -8 19q-3 2 -18.5 -12t-39.5 -33t-54.5 -34t-60.5 -15q-32 0 -54.5 24t-40 54.5t-31.5 54.5t-29 24t-49.5 -17t-77.5 -44.5t-89 -59t-84 -59.5t-62 -47.5t-20 -21.5q5 -6 56.5 6t111.5 12q48 0 85 -19t37 -72v-163 q0 -45 -32 -72.5t-80 -43.5t-102.5 -22.5t-97.5 -6.5q-40 0 -96 7.5t-105 26.5t-84 49.5t-35 76.5v478q-2 -3 -21.5 -25.5t-66.5 -47t-111 -24.5q-35 0 -85.5 14t-111.5 30.5t-129 30.5t-135 14t-125 -24t-102 -63.5t-69 -93t-25 -111.5q0 -56 17 -110.5t39.5 -96.5 t41.5 -65t24 -21q2 3 -7 27t-24 59.5t-26.5 79.5t-11.5 86q0 67 37 108.5t98 41.5q46 0 95 -15t101 -33t103.5 -33t99.5 -15q82 0 149 26.5t115 57t73.5 53.5t25.5 15v-1742q0 -16 -37.5 -3.5t-101.5 32t-150.5 39.5t-184.5 20q-136 0 -232 -53t-156 -117t-86.5 -118.5 t-21.5 -54.5zM312 930q0 -38 6.5 -74t15.5 -65t20 -48t19 -19q3 0 5.5 28t14 62.5t34.5 62.5t63 28h146v-338q0 -69 -10.5 -116t-22 -75t-20 -41t-3.5 -18t42.5 5.5t81.5 39.5t80 80t36 125v866q0 58 12 100.5t25.5 69t24 41.5t7.5 20q0 3 -39.5 -9t-87.5 -41t-87 -77.5 t-39 -111.5v-350q-173 0 -248.5 -25.5t-75.5 -119.5zM1019 556v349h632v-338q0 -13 -19 -13q-30 0 -105.5 21.5t-192.5 21.5q-133 0 -205 -27t-95 -27q-15 0 -15 13zM1019 1075v280q0 40 27 40q33 0 104.5 -25.5t188.5 -25.5q112 0 185.5 24t104.5 24q21 0 22 -26v-291h-632 z" />
<glyph unicode="I" horiz-adv-x="1101" d="M3 -32q0 -33 3.5 -54t9.5 -21q7 0 15.5 25.5t31.5 55t64 54.5t112 25q67 0 113.5 -22.5t87 -49.5t82.5 -49.5t98 -22.5q59 0 125.5 25.5t122.5 73.5t93 114t37 152v1436q0 81 12 133t25.5 84t22.5 45.5t7 19.5q-5 5 -43.5 -5.5t-85.5 -47t-84 -101.5t-37 -166v-1534 q0 -38 -16 -73t-75 -35q-53 0 -104 29t-106.5 62.5t-119.5 62.5t-143 29q-40 0 -84.5 -22.5t-80 -58.5t-59.5 -79t-24 -85zM5 1733q0 -69 28 -130t64 -106.5t67 -73.5t39 -28q5 0 -12.5 20t-40.5 52t-42.5 73.5t-19.5 85.5q0 54 34.5 91.5t93.5 37.5q26 0 59.5 -15 t69.5 -30.5t74.5 -30.5t75.5 -15q43 0 96.5 41t99.5 91.5t76.5 93.5t25.5 48q-8 6 -19.5 -3.5t-29 -24.5t-41.5 -28t-56 -13q-29 0 -71.5 16t-94.5 37.5t-109 39t-113 17.5q-51 0 -96.5 -19t-80 -52t-56 -78.5t-21.5 -96.5zM162 907q0 -81 25.5 -128t36.5 -47q0 5 5 42.5 t31.5 80t80.5 42.5h43q20 0 36.5 -6.5t27 -22.5t10.5 -50v-262q0 -108 -26 -178q-19 -53 -19 -74q0 -6 2 -9q2 -5 38.5 8.5t79 48t76 88t33.5 124.5v853q0 64 9 102t18.5 62.5t16 36t3.5 16.5q-3 3 -38.5 -7.5t-78 -36t-78.5 -69t-36 -101.5v-368l-24 6q-24 7 -58 7 q-99 0 -156.5 -41t-57.5 -117z" />
<glyph unicode="J" horiz-adv-x="1469" d="M10 1661q0 -79 38 -137t89 -93.5t104.5 -52.5t86.5 -17q13 0 24 2.5t11 8.5q0 2 -38 11t-81.5 32t-80 64t-36.5 108q0 86 45.5 120t99.5 34q50 0 114 -15.5t127.5 -34.5t124 -34.5t102.5 -15.5q50 0 114.5 43.5t117 96.5t88 101t27 53.5t-33.5 -5t-64 -25.5t-88 -28 t-105 -13q-72 0 -126.5 15.5t-105 33t-104 33.5t-125.5 16q-55 0 -112.5 -9t-104 -40t-77.5 -90.5t-31 -161.5zM61 -35q0 -86 28 -169t97.5 -151.5t182.5 -109.5t286 -41q122 0 238 33.5t206.5 99.5t146 169t55.5 244v1581q0 91 20.5 151t43 97t37.5 57t3 30q-5 6 -50 -15 t-98 -65t-96 -108t-43 -147v-1530q0 -251 -125 -392t-335 -141q-112 0 -205.5 26.5t-161 72t-104.5 106.5t-37 130q0 26 7 56q3 5 37.5 -11.5t97.5 -16.5q64 0 111 44.5t47 108.5t-47 109.5t-111 45.5q-55 0 -97.5 -24t-73 -62.5t-45.5 -85.5t-15 -92zM419 767 q0 -96 22 -142l22 -45q2 0 8 26.5t17.5 58t37 57.5t68.5 26h56q32 0 57 -5.5t42.5 -18.5t17.5 -38v-612q0 -30 -13.5 -61t-30.5 -58t-24 -36l-20 -28q2 -5 45 5t93.5 38t91.5 77.5t41 121.5v1188q0 40 8 85t17.5 85t16 67t4.5 29q-8 5 -44 -17.5t-77.5 -61.5t-74.5 -89 t-33 -101v-386l-28 5t-66 5q-135 0 -194.5 -48t-59.5 -127z" />
<glyph unicode="K" horiz-adv-x="2160" d="M26 1661q0 -76 28 -130.5t60.5 -88.5t60.5 -47t28 -8t-20.5 22.5t-43 44.5t-42.5 61.5t-20 79.5q0 33 16 61.5t42.5 51t61 36.5t69.5 14q75 0 164 -27t182 -27q112 0 192 37t130.5 85.5t75 90.5t24.5 50t-24.5 -5t-59 -32t-74.5 -36t-73 -17q-32 0 -74.5 14.5t-95.5 32 t-115.5 32.5t-133.5 15q-80 0 -147 -28t-113.5 -72.5t-72 -100t-25.5 -109.5zM155 -112q7 -8 49.5 17.5t113.5 58.5t162.5 62.5t195.5 29.5q122 0 206 -29.5t137 -64t77.5 -63.5t26.5 -29q8 0 37.5 22t68.5 56t79.5 72t76 72.5t56 60t18 28t-17 -1t-34.5 -9t-44 -10.5 t-45 -5t-37 6.5t-16 26.5v283q0 26 22.5 55.5t53.5 53.5t58.5 40t40.5 16t37.5 -57.5t55 -144t65 -187t65.5 -187t55.5 -144.5t39.5 -58q20 0 56 27t79 68.5t88.5 89.5t80 89t56.5 70l23 29q-5 6 -21.5 -4.5t-41.5 -27t-55.5 -29.5t-60.5 -13q-33 0 -56.5 32t-44.5 81.5 t-45.5 106.5t-52.5 108q-24 43 -57.5 89t-61.5 87.5t-48 73.5t-20 48q0 32 44 73t97.5 82.5t97.5 77.5t44 51q0 33 -37.5 86t-86 102.5t-96 85.5t-71.5 36q-33 0 -76.5 -20.5t-87 -48.5t-82.5 -58.5t-57 -48.5v212q0 18 9 32t18 26t19 22.5t10 26.5q0 20 -13.5 31.5 t-30.5 10t-31 -14.5t-14 -43v-335l-170 -171v528q0 59 16.5 118.5t47 107t75 79t104.5 31.5q79 0 131 -31.5t86.5 -67t55 -65t40.5 -29.5q30 0 87.5 44.5t116 97.5t99.5 96.5t38 43.5t-19.5 -9t-40.5 -20t-52 -20t-53 -9q-21 0 -52.5 16t-74.5 35.5t-94 37t-112 17.5 q-53 0 -111.5 -17.5t-124.5 -58.5q-64 -41 -126.5 -99.5t-110.5 -120.5t-78.5 -122.5t-30.5 -102.5v-815q0 -86 -15 -143t-30.5 -94t-28 -56t-7.5 -22q3 0 44.5 10t91 42t89 91.5t39.5 161.5v292l170 170v-929q0 -8 -13 -10.5t-26 -2.5q-10 0 -42.5 9t-83 19t-113 19 t-131.5 9q-160 0 -286.5 -52t-212.5 -115q-86 -62 -130 -116q-39 -48 -40 -56q0 -1 1 -2zM213 924q0 -86 25.5 -136.5t30.5 -50.5q0 5 8 40t32 76t64 41q82 0 107.5 -16.5t25.5 -79.5v-327q0 -54 -14.5 -93.5t-30.5 -66t-28 -41t-7 -16.5q3 -6 45.5 6t90.5 42.5t87.5 77 t39.5 115.5v785q0 64 9.5 113.5t20 82.5t17 50.5t4.5 20.5q-8 5 -45 -4t-78.5 -39.5t-76 -89.5t-34.5 -149v-208l-30 5q-29 5 -66 5q-77 0 -137 -39.5t-60 -103.5zM1265 589v559q40 40 97.5 63.5t96.5 23.5q18 0 51.5 -28t67 -66.5t58.5 -78.5t25 -66q0 -18 -29 -60 t-73.5 -91t-96.5 -101t-95.5 -92t-72.5 -59.5t-29 -3.5z" />
<glyph unicode="L" horiz-adv-x="1969" d="M10 1641q0 -80 33.5 -127.5t73.5 -70.5t76 -30.5t41 -2.5q8 8 -13 22t-52 38t-56 61t-25 90q0 64 36 107t92 43q38 0 85 -15t100.5 -33.5t108 -33.5t108.5 -15q132 0 219 47t137 101.5t66.5 101.5t11.5 47q-8 0 -33.5 -17.5t-61 -38t-80 -37t-92.5 -16.5q-61 0 -105 18 t-86.5 39.5t-89 40.5t-113.5 19q-162 0 -271.5 -90t-109.5 -248zM280 937q0 -40 7.5 -75.5t20 -65t21.5 -47t14 -17.5q3 0 7 28t13.5 60t29 59.5t54.5 27.5q48 0 93.5 -11.5t45.5 -72.5v-287q0 -89 -20 -158t-43 -117t-41.5 -74.5t-18.5 -29.5q2 -7 51.5 13.5t105.5 70 t103 130.5t47 193v759q0 72 13 128t28 96t25 61t5 26q-8 5 -49 -10.5t-86.5 -52.5t-82.5 -99t-37 -146v-251l-35 6t-80 6q-89 0 -140 -39t-51 -111zM309 -122q6 -3 50.5 31.5t128.5 77.5t205.5 78.5t281.5 35.5t277 -40t193.5 -86.5t119.5 -86.5t53 -40q8 0 37.5 25.5 t68.5 64.5t82.5 83.5t78.5 85t54.5 68.5t14.5 30q-3 3 -12 -5.5t-25 -17.5t-39 -17t-54 -8q-13 0 -52 10.5t-81.5 25.5t-81.5 28l-54 18v879q0 21 9 33.5t20 22.5t20 20t9 25q0 16 -11.5 31t-25.5 15q-19 0 -36.5 -17.5t-17.5 -63.5v-933q-15 3 -52 10.5t-92 15.5 t-121.5 14.5t-138.5 6.5q-122 0 -230 -30.5t-198.5 -77t-162.5 -101t-121.5 -101t-74 -78.5t-22.5 -32zM810 315q2 -6 51 10t108 56t105.5 105t46.5 161v892q0 59 12 121t40 111.5t69 81.5t102 32q82 0 134.5 -41.5t52.5 -78.5q0 -20 -2.5 -37.5t-2.5 -33.5q0 -13 8 -29.5 t21 -16.5q48 0 114.5 46.5t128 102t102.5 102.5t38 47q-5 3 -21 -5t-40.5 -17t-51 -19t-49.5 -10q-21 0 -49 19t-64.5 40.5t-78.5 39.5t-88 18q-74 0 -170 -39.5t-182.5 -109t-146.5 -165t-60 -210.5v-852q0 -77 -21.5 -135.5t-46.5 -98t-44.5 -61t-14.5 -26.5z" />
<glyph unicode="M" horiz-adv-x="2662" d="M10 -138q8 -8 31 15.5t60 55.5t90 60t129 28q69 0 121 -21t100 -45t99.5 -45.5t121.5 -21.5q50 0 118 21.5t126.5 69t100 125t41.5 188.5v640h311v-666q0 -15 -38.5 -55.5t-84 -82.5t-80 -78.5t-26.5 -46.5q5 -6 20 6t36.5 29.5t46 32.5t49.5 15q48 0 84 -30t66.5 -66 t59.5 -65t67 -29q5 0 18 19t32 45.5t41.5 57t46.5 52t54.5 42.5t58.5 39.5t48.5 32.5t20.5 19q0 15 -19 13t-40.5 -9t-39.5 -9.5t-18 13.5v721h332v-695q0 -54 18.5 -112.5t42.5 -107.5t49.5 -81t38.5 -32q7 0 31 20t53.5 49.5t60 65t56 65t41.5 50.5l16 22q-2 2 -30 -12 t-66 -14q-23 0 -46 10t-40.5 39.5t-29 81.5t-11.5 131v1275q8 0 48.5 42t87.5 92.5t81.5 92.5t29.5 45q-8 3 -28 -11.5t-43.5 -34.5t-46.5 -37t-40 -17q-53 0 -86 41t-62.5 90.5t-61 90.5t-82.5 41t-107 -56l-206 -207v133q0 23 15.5 35.5t15.5 35.5q0 33 -29 33 q-13 0 -24 -8.5t-11 -29.5v-232l-186 -185q0 29 -20 107t-52 159.5t-71 144t-73 62.5q-13 0 -41.5 -21.5t-70.5 -56t-94 -78t-113 -89.5q-59 -45 -121.5 -77t-113 -65t-83.5 -73.5t-33 -101.5v-452h-76q-35 0 -74.5 -8t-75.5 -28t-60 -58t-24 -96q0 -86 12 -124t18 -38 q3 0 7 29.5t19.5 63t49 62.5t92.5 29h112v-389q0 -37 -14 -75.5t-27 -73.5t-24 -60t-6 -31q6 -8 46 2t87 41.5t84 87.5t37 141v1038q0 33 13 63.5t32 54.5t41.5 38.5t38.5 14.5q18 0 34 -20.5t16 -64.5v-1369q0 -101 -71.5 -158.5t-186.5 -57.5q-67 0 -117.5 21.5t-99 48.5 t-104.5 48.5t-137 21.5q-82 0 -156.5 -59.5t-129.5 -131t-83 -132.5q-22 -49 -21 -64q0 -3 1 -5zM1148 1100v678q0 62 18 84.5t46 22.5q20 0 62 -20t83 -49.5t71.5 -64t30.5 -64.5v-587h-311zM1643 274v1313l186 186v-1562q0 -26 -17.5 -33.5t-40.5 -7.5q-11 0 -32.5 5.5 t-43 17.5t-37 31.5t-15.5 49.5zM1862 1100v706l71 71q18 18 29 26t30 8q20 0 44 -38.5t49.5 -86.5t52 -86.5t56.5 -38.5v-561h-332z" />
<glyph unicode="N" horiz-adv-x="1799" d="M-2.5 1833q-5.5 -55 2.5 -55q3 0 20.5 18t50.5 38.5t82.5 38t115.5 17.5q26 0 65 -6.5t75 -24t61 -46.5t25 -75v-458l-30 10q-31 9 -76 9q-41 0 -83 -8t-78.5 -30.5t-58.5 -61t-22 -97.5q0 -85 15 -134l16 -49q3 0 10 26.5t25 60t52.5 60t93.5 26.5q18 0 42.5 -4 t44 -17.5t34.5 -41.5t15 -76v-687q-130 0 -223.5 -55.5t-152 -122.5t-86.5 -123t-25 -56q8 -5 44 20t89.5 56t116 57.5t123.5 26.5q48 0 94 -15.5t84 -34.5t64.5 -35t34.5 -16q5 0 35.5 25t73.5 64t88 84t82.5 85t59.5 69.5t17 34.5q-8 8 -30.5 -9.5t-52 -41t-61.5 -45 t-58 -21.5q-29 0 -102.5 26.5t-181.5 26.5v275q0 63 76.5 101.5t180.5 38.5q120 0 226.5 -38.5t149.5 -106.5l285 -483q15 -26 36.5 -51t43 -45.5t41.5 -34t33 -13.5q11 0 11 17q0 30 -19 86.5t-19 125.5v1622q26 0 78.5 29.5t113.5 85.5q26 23 51.5 63.5t44.5 78.5t28 66 t4 28q-8 0 -27 -13t-45.5 -29t-58.5 -29t-63 -13q-32 0 -53.5 14t-36 30.5t-24 30.5t-20.5 14q-13 0 -52.5 -25t-86.5 -59.5t-91 -71.5t-68 -61t-42.5 -54.5t-29.5 -57.5t-16 -46t0 -21.5t21.5 19t42 47t57 47.5t72.5 22q32 0 55.5 -14.5t42 -33t34.5 -33t38 -14.5v-208 q0 -40 -29.5 -68t-73.5 -46t-98.5 -25.5t-102.5 -7.5q-46 0 -92 7.5t-87.5 17.5t-71 24.5t-39.5 33.5l-194 344q-72 127 -190.5 212t-246.5 85q-112 0 -178.5 -54.5t-101 -120.5t-40 -121zM528 757v897q0 42 44 42q21 0 33.5 -14.5t19.5 -33.5l432 -891q13 -33 13 -54 q0 -18 -26 -19q-26 0 -91.5 15t-167.5 15q-74 0 -126 -15t-84 -15q-24 0 -35.5 15t-11.5 58zM1016 1368q8 22 46 22q33 0 77.5 -8t98.5 -8h16q90 0 152 20q67 22 101 23q35 0 35 -43v-975q0 -10 -10 -18t-18 -8q-26 0 -42 19.5t-26 44.5l-407 841q-24 55 -24 80q-1 6 1 10z " />
<glyph unicode="O" horiz-adv-x="1873" d="M0 1001q0 -253 77.5 -456.5t205 -345t291 -217.5t336.5 -76q211 0 380 95t289 249t183.5 352.5t63.5 408.5q0 206 -58 390t-146 322.5t-190.5 219t-191.5 80.5q-26 0 -75.5 -29.5t-84 -54t-39.5 -31.5v41q0 15 14.5 25t14.5 36q0 8 -8 16t-21 8t-22.5 -12t-9.5 -33v-99 l-455 -303q-61 -37 -81.5 -60t-20.5 -36q0 -32 36 -32q18 0 25.5 11t13.5 25t11 29t16 23l104 69v-1134q0 -91 -14 -148t-28 -89t-26.5 -47t-5.5 -17q2 -5 43 4.5t89 41.5t86.5 94.5t38.5 168.5v1248l168 112v-1771q1 -58 -57 -80q-32 -12 -72 -12q-33 0 -72 8 q-86 18 -186.5 83.5t-187 182.5t-143.5 292.5t-57 412.5q0 239 62.5 425.5t138.5 313.5t138 192l63 65q0 10 -11 11q-15 0 -67 -26.5t-121 -78.5t-146.5 -133t-141 -189t-106.5 -244t-43 -301zM1041 152v471q0 40 23 64t56 37t74 17t81 4q16 0 60 -6.5t91 -22t82.5 -43.5 t35.5 -74q0 -69 -52 -158.5t-124 -171t-148.5 -137t-127.5 -55.5q-23 0 -37 16t-14 59zM1041 780v424q0 48 64 48q45 0 92.5 -6t101.5 -6q76 0 126.5 17.5t103.5 17.5q32 0 49 -26.5t25 -66t9 -89t1 -92.5q0 -48 -1 -97.5t-7.5 -89t-19 -65t-35.5 -25.5q-36 0 -65 8t-58 19 t-65 18.5t-87 7.5q-82 0 -130 -16t-75 -16q-30 0 -29 35zM1041 1377v468q0 40 43 40q80 0 165 -60t156 -142.5t115.5 -170t44.5 -143.5q0 -16 -25.5 -33.5t-65 -31t-86 -22.5t-89.5 -9q-46 0 -90.5 1t-82 11.5t-61.5 32t-24 59.5z" />
<glyph unicode="P" horiz-adv-x="1730" d="M35 1638q0 -18 5 -20q3 0 20 23t46 51t72 50.5t96 22.5q89 0 150 -39t61 -158v-367l-32 4t-77 4q-46 0 -81.5 -19t-61 -47t-40.5 -61t-15 -65q0 -43 6.5 -73.5t18.5 -30.5q2 0 10 21.5t25.5 48t47 48t77.5 21.5q53 0 87.5 -12t34.5 -79v-453q-61 0 -132 -34.5t-131 -87.5 t-100 -119.5t-40 -133.5q0 -13 3 -23.5t9 -10.5q2 0 23 34.5t61 77.5t102.5 77t151.5 34q20 0 36.5 -6.5t16.5 -33.5v-429q0 -71 -28 -126t-60 -94.5t-60 -63.5t-28 -32q0 -13 12 -19t22 -6q30 0 60.5 24.5t63.5 53.5t73 53t90 24q43 0 77.5 -30.5t62.5 -67.5t53.5 -68 t50.5 -31q35 0 33 35q0 32 -18 90.5t-18 106.5v559q0 16 6.5 20t19.5 4q18 0 42 -17t47 -41t39 -48t16 -37q13 0 50 33t92 74t123 74t140 33q74 0 115.5 -13t59.5 -13q21 0 22 16q0 10 -16 25t-36.5 43t-36 71t-15.5 107v1095q13 0 43.5 16.5t61 39t54.5 45.5t24 36 q0 10 -7 10q-13 0 -36 -11.5t-87 -11.5q-48 0 -77 26.5t-49 58.5t-39 58.5t-45 26.5q-16 0 -43 -17l-468 -292v253q0 21 17 29t17 32q0 13 -9 19.5t-22 6.5t-24.5 -13t-11.5 -53v-295l-87 -53q-20 -13 -34 -17.5t-25 -4.5q-24 0 -24 56q0 180 -73.5 266t-240.5 86 q-62 0 -119 -40.5t-100.5 -95t-71.5 -113t-28 -97.5zM668 -133v1637l170 107v-1898q0 -21 -3.5 -44t-24.5 -23q-18 0 -43 14.5t-47 42.5t-37 69.5t-15 94.5zM871 508v277q0 21 25.5 42.5t62.5 37.5t79 26.5t75 10.5q43 0 85 -11.5t77 -33t57.5 -48t22.5 -58.5v-304 q0 -53 -43.5 -86t-76.5 -33q-38 0 -77.5 28t-83 62t-94 62t-109.5 28zM871 905v333q0 37 10 37q13 0 57.5 -20t153.5 -20q74 0 135 21.5t96 21.5q33 0 32 -43v-335q0 -33 -13 -32q-11 0 -31 10.5t-49.5 22.5t-66.5 23t-82 11q-41 0 -76.5 -9.5t-63.5 -21.5t-48 -21t-33 -9 q-11 0 -16 5t-5 26zM871 1355v277l287 182q8 5 18 5q6 0 26 -20.5t45.5 -45.5t54.5 -45.5t53 -20.5v-318q0 -18 -25 -37t-65 -32.5t-86.5 -22.5t-86.5 -9q-30 0 -68.5 3.5t-71.5 13t-57 27t-24 43.5z" />
<glyph unicode="Q" horiz-adv-x="1916" d="M21 905q0 -251 73.5 -438t193 -311t274 -187t317.5 -63q35 0 72 6t71 11q8 -15 36.5 -70.5t74.5 -112.5t113 -102t152 -45q74 0 126 21t85.5 49t49 57t15.5 46q0 13 -7 13q-13 0 -23 -6.5t-24 -15t-34.5 -15t-51.5 -6.5q-64 0 -109.5 33t-76 76t-49.5 84t-26 58 q5 3 52 25.5t113 71.5t143.5 125t142.5 183.5t108 247.5t43 318q0 247 -39 419.5t-99 286.5t-130 179t-132 97.5t-105.5 40.5t-48.5 8q-18 0 -54.5 -17.5t-75 -39t-71.5 -41t-45 -24.5v66q0 16 15 27t15 29q0 38 -30 38q-13 0 -22 -11t-9 -30v-139q-5 -2 -46.5 -26t-104 -64 t-105.5 -75q-48 -38 -78.5 -89t-30.5 -91v-1092q0 -59 -12 -101.5t-24.5 -71.5t-18.5 -46.5t1 -25.5q3 -3 40.5 10t81 42.5t80 79t36.5 118.5v1193q0 43 25 68.5t62 45.5q11 6 28.5 17t30.5 16t25 5q10 0 10 -14v-1551q-13 0 -50.5 -3.5t-78.5 -9.5t-73 -18t-32 -31 q0 -8 21 -16t50 -21.5t60 -37t50 -66.5q-16 -5 -23 -6.5t-36 -1.5q-40 0 -105 9.5t-140 42.5t-149.5 97.5t-134.5 173t-98.5 272t-38.5 393.5q0 158 36 292t90.5 241.5t118.5 193t117 142.5t86.5 90t28 39t-60 -9t-134.5 -60.5t-173 -125t-171.5 -201t-130.5 -286.5 t-52 -383zM1075 195v338q0 35 28 60t68.5 41t84 24t75.5 8q30 0 75 -12t88 -32t73.5 -49.5t30.5 -61.5q0 -59 -51 -137.5t-114.5 -150t-121 -122t-71.5 -50.5q-5 13 -23 37t-42.5 48t-51 41.5t-48.5 17.5zM1075 684v466q0 33 25 32q32 0 93 -28t138 -28q53 0 101.5 19 t88 41.5t67.5 40.5t38 18q11 0 22 -23t17.5 -63.5t10.5 -91t4 -106.5q0 -59 -4 -120t-12 -111.5t-21.5 -82.5t-31.5 -32q-19 0 -45.5 13.5t-59.5 28t-76 28t-96 13.5q-82 0 -140 -20t-86 -20q-13 0 -23 4t-10 22zM1075 1299v464q0 30 33 28q42 0 125 -48.5t164 -119.5 t142 -151t61 -141q0 -26 -25 -57t-63.5 -56t-86.5 -42.5t-94 -17.5q-43 0 -87.5 13t-82.5 33.5t-62 45.5t-24 49z" />
<glyph unicode="R" horiz-adv-x="2055" d="M40 1592q0 -63 13 -63q3 0 18 34.5t47 75.5t84 76t128 35q51 0 99 -12.5t86.5 -39t61 -70t22.5 -106.5v-450l-35 6q-36 6 -101 6q-102 0 -160.5 -60.5t-58.5 -155.5q0 -61 11 -98.5t22 -37.5q3 0 8 25.5t25 56t57 55.5t104 25q61 0 94.5 -25t33.5 -76v-549 q-76 0 -153.5 -31.5t-139.5 -79t-101.5 -106.5t-39.5 -113q0 -26 5 -26q8 0 34.5 29.5t76 62.5t125.5 62.5t180 29.5t181 -29.5t129 -62.5t81 -62.5t34 -29.5q6 0 61.5 40t120 90.5t118 96t53.5 55.5q0 16 -17 16q-18 0 -35.5 -12t-37.5 -25.5t-46.5 -25t-66.5 -11.5 q-5 0 -25.5 9t-44.5 21.5t-48 24t-37 19.5v637q0 13 21.5 32t56 34.5t75 28t76.5 12.5q56 0 101.5 -64.5t80 -161.5t60 -212.5t40.5 -219.5q8 -56 28 -120t48 -118.5t64.5 -92t75.5 -37.5q8 0 53.5 33t97.5 77t93 86t41 60q0 16 -13 16q-19 0 -43 -24.5t-59 -24.5 q-48 0 -82.5 66t-63.5 161.5t-57 204.5t-62 198q-21 50 -61 100t-80.5 92t-71 69.5t-30.5 33.5q0 5 61 43.5t136 104t136 153t61 191.5q0 26 -19.5 97t-54.5 146t-86 130.5t-109 55.5q-33 0 -69 -22l-445 -277v249q0 10 4 11.5t11 5.5t12.5 11.5t5.5 32.5q0 18 -10 24.5 t-21.5 2.5t-22 -17t-10.5 -32v-308l-192 -120q0 46 -10.5 121t-47 148.5t-109.5 127t-195 53.5q-119 0 -192.5 -44.5t-116.5 -105.5t-57.5 -127t-14.5 -115zM783 244v1151q0 30 29 60.5t65 56t67 40.5l31 16v-1368q-8 3 -30.5 10.5t-50.5 15.5t-59.5 13t-51.5 5zM1006 950 v637l336 194q7 5 43.5 -16.5t76.5 -63.5t71.5 -106t31.5 -144q0 -117 -63.5 -212.5t-150 -165t-173 -108t-134.5 -38.5q-38 0 -38 23z" />
<glyph unicode="S" horiz-adv-x="1814" d="M40 -292q0 -43 12 -83t36 -72.5t61 -50.5t90 -18q89 0 185.5 70t180.5 167.5t155 199.5t109 168t41 71q46 -16 107 -53.5t115.5 -73.5t93.5 -63.5t42 -27.5q12 0 56.5 26.5t101.5 73t122 113t118.5 146.5t88 170.5t34.5 186.5q0 147 -58.5 241t-134.5 150t-145 80t-90 29 q3 6 26 48.5t70 111.5t100 128q35 40 71 64t65 37t47 22t18 21q0 8 -10 14.5t-18 6.5q-37 0 -79.5 -28t-85.5 -72.5t-81 -95.5t-70 -100.5t-55 -90t-30 -58.5q-6 0 -80.5 16.5t-191.5 52t-229 89t-192 130.5t-80 172q0 43 20.5 87.5t56 78.5t83.5 55.5t102 21.5 q109 0 191.5 -48t139.5 -104t91.5 -104t50.5 -48q10 0 61 45.5t108 104t104 110.5t47 68q0 13 -5 13q-16 0 -36 -18.5t-41.5 -42.5t-45.5 -42.5t-43 -18.5q-15 0 -47 28t-86.5 61t-136 61t-198.5 28q-63 0 -147.5 -12t-158.5 -51.5t-125 -118t-51 -210.5q0 -117 57 -203.5 t142.5 -148.5t185.5 -101t185 -61t142 -32l58 -10l-73 -160q-5 3 -60 19t-144 45.5t-179 62.5t-167.5 68t-103.5 59q-43 40 -65.5 87.5t-32 89t-12 70.5t-8.5 29q-3 0 -14.5 -18.5t-26.5 -52t-25.5 -77t-10.5 -88.5q0 -53 21.5 -105t74.5 -93q38 -30 118.5 -65.5t174 -70 t184 -65t144 -47t58.5 -18.5l-165 -359l-51 9t-133 9q-56 0 -122.5 -7.5t-137 -29t-141.5 -61.5t-134 -103q-79 -82 -134 -202.5t-55 -231.5zM135 -282q0 86 49.5 192t145.5 191q69 61 165.5 82.5t183.5 21.5q61 0 115.5 -9.5t81.5 -22.5q-2 -5 -42.5 -63.5t-112 -151.5 t-152.5 -181.5t-164 -152t-146 -63.5q-61 0 -92.5 48t-31.5 109zM980 317l165 356q77 -20 149 -53.5t114 -76.5q26 -26 41 -54.5t23.5 -52.5t11 -38t7.5 -14q3 0 19 13t31.5 37t29.5 57t14 73q0 48 -28 99q-20 40 -75 73.5t-113.5 57.5t-103.5 38l-46 14l72 160l64 -15 q65 -16 141.5 -56.5t141 -106.5t64.5 -168q0 -109 -34 -202t-77.5 -161t-86.5 -105t-58 -37q-21 0 -55 11.5t-72.5 29t-78 36.5t-74.5 32q-32 13 -77 24.5t-74.5 20t-34.5 8.5z" />
<glyph unicode="T" horiz-adv-x="1649" d="M32 1730.5q6 -2.5 31 15t66 40t99.5 42t134.5 19.5q58 0 151 -19.5t191 -47.5t189 -57t144.5 -46.5t58.5 -20.5v-1539l-34 -5q-35 -5 -102 -5q-125 0 -248.5 46.5t-221 143.5t-158.5 248t-61 360q0 147 34.5 266.5t74.5 206t69.5 134.5t17.5 53h-2q-15 0 -71 -43 q-60 -46 -127.5 -142.5t-122 -236t-54.5 -320.5t57 -343.5t158 -285t240.5 -193t305.5 -70.5q135 0 246 37t198.5 91.5t150 119.5t104 121t60 94t15.5 40q-5 3 -23 -18.5t-53.5 -57.5t-84 -77.5t-110.5 -77.5q-94 -56 -160 -68l-67 -13v1529q3 0 27 -4t61.5 -8.5t66.5 -4.5 q91 0 156 48t106.5 105.5t58.5 105.5t14 51q-2 0 -30 -13t-71.5 -29.5t-99.5 -29.5t-118 -13q-107 0 -192 22t-164.5 47.5t-163 48t-187.5 22.5q-150 0 -258 -40.5t-175.5 -91.5t-100 -92.5t-26.5 -44zM745 389q0 -8 35 -3t76 32t75.5 81.5t34.5 145.5v872q0 82 -18 83 q-16 0 -46.5 -31.5t-78.5 -77.5q-33 -30 -52.5 -40.5t-25.5 -23.5q15 -10 26.5 -23.5t11.5 -72.5v-724q0 -61 -5.5 -102.5t-13 -65.5t-13.5 -36t-6 -14z" />
<glyph unicode="U" horiz-adv-x="1911" d="M35 1603q0 -69 11 -69q5 0 14 47.5t37 104.5t84 105.5t152 48.5q48 0 83.5 -24.5t58.5 -62.5t34.5 -86.5t11.5 -96.5v-434l-25 7q-25 7 -62 7q-96 0 -157 -44t-61 -145q0 -30 6.5 -58.5t17.5 -52.5t20 -39t14 -15q3 0 5.5 29t16 64t38.5 64.5t73 29.5q61 0 87.5 -23 t26.5 -84v-599q-135 0 -228 -54.5t-150 -118.5t-81 -118.5t-19 -54.5l33 27q33 26 93 58t142.5 58.5t186.5 26.5q82 0 143.5 -29t101.5 -63.5t60 -64.5l20 -30q13 0 58.5 34t106.5 86t130 110.5t133.5 110.5t111.5 85t70 33q18 0 18 -35q0 -53 11 -128t30.5 -142.5t46 -117 t56.5 -49.5q3 0 28 20.5t59.5 52t73 67.5t72.5 68.5t54.5 54.5t20.5 24q0 11 -8 12q-7 0 -17.5 -11t-25.5 -22.5t-34 -21.5t-37 -10q-26 0 -52.5 28t-47 73.5t-34 102.5t-13.5 119v1224q16 0 59 34t88 75t81 76.5t36 40.5q0 11 -10 12q-8 0 -28 -13.5t-44.5 -30.5 t-49.5 -30.5t-49 -13.5q-48 0 -78.5 26.5t-52 58.5t-41 58.5t-51.5 26.5q-13 0 -65 -41t-108 -93t-101.5 -96t-45.5 -47q0 -13 16 -13q7 0 21 10.5t28.5 24t29 24t25.5 10.5q7 0 24.5 -15.5t40.5 -33t47 -34t45 -16.5v-244q0 -30 -33.5 -55.5t-77.5 -42.5t-89 -28t-72 -11 q-23 0 -65 8.5t-80 23t-66 37t-28 52.5v423q0 26 19 38t19 40q0 15 -8.5 27t-24.5 12q-38 0 -38 -47v-1712q-2 2 -28.5 18t-75.5 36t-97 20v1395q0 66 -23 128t-64.5 109t-98.5 75t-124 28q-111 0 -181.5 -44.5t-110.5 -109t-54.5 -134.5t-14.5 -121zM940 181v498 q0 40 24 68t60 45.5t76.5 24t78.5 6.5q48 0 96 -10t86.5 -30.5t64 -52.5t25.5 -80v-192q0 -3 -30.5 -27t-78.5 -60t-104 -76.5t-103.5 -77t-82.5 -60.5t-41 -24q-10 0 -31.5 17.5t-39.5 30.5zM940 854v414q0 35 4 44t17 9q23 0 75.5 -25.5t142.5 -25.5q46 0 83 10.5t68 23 t53 22.5t39 10q30 0 29 -58v-432q0 -48 -18 -48q-26 0 -86.5 28t-167.5 28q-82 0 -135 -19.5t-81 -19.5q-23 -1 -23 39z" />
<glyph unicode="V" horiz-adv-x="1921" d="M18 1590q0 -21 5 -22q11 0 30 29t55 64t92 64.5t135 29.5q49 0 89.5 -8.5t73 -30.5t49.5 -61t17 -100v-362l-23 6q-22 5 -46 5q-119 0 -188.5 -58.5t-69.5 -160.5q0 -58 21.5 -108.5t33.5 -50.5q3 0 7 29t19 62t44 62.5t83 29.5q119 0 119 -99v-367q0 -88 36 -174.5 t90.5 -166.5t120 -147.5t125.5 -118t103 -80t56 -29.5q15 0 71 53.5t128 127.5t149 148.5t133 120.5q30 23 75 34t86 16.5t72 6.5t31 4q0 5 -20.5 20t-42.5 43t-42 69t-20 99v1087q15 0 58 30.5t82.5 66.5t64 66.5t3.5 30.5q-19 0 -40 -18t-54 -18q-64 0 -104 30.5t-68 68.5 t-51.5 68.5t-53.5 30.5q-13 0 -30.5 -9t-35.5 -22l-506 -338v252q0 30 17 42t17 30t-8 31.5t-23 13.5q-35 0 -35 -50v-341l-200 -133v141q0 160 -86.5 261.5t-277.5 101.5q-110 0 -180.5 -51t-111.5 -117t-57.5 -134.5t-16.5 -99.5zM748 671v777l200 134v-1356l-31 31 q-30 30 -68.5 88.5t-69.5 140t-31 185.5zM980 195v338q0 33 28 56t69 39.5t88 24t80 7.5q56 0 108 -10t92.5 -26.5t63 -36.5t22.5 -38v-64q0 -40 4 -63t8 -37.5t8 -22.5t4 -16q0 -13 -47 -61t-106.5 -99t-115.5 -90.5t-77 -39.5q-30 0 -69.5 21.5t-75.5 48t-60 48.5z M980 703v501q0 23 5.5 31t18.5 8q26 0 84.5 -26.5t156.5 -26.5q86 0 148.5 21t100.5 21q37 0 37 -50v-479q0 -30 -9.5 -39t-27.5 -9q-35 0 -97.5 18.5t-151.5 18.5q-79 0 -137.5 -22.5t-90.5 -22.5q-19 0 -28 10.5t-9 45.5zM980 1357v246l39 27q38 26 90 58t108 58.5 t91 26.5q45 0 81 -18.5t64 -39.5t46 -40t32 -19v-325q0 -23 -39 -44.5t-89.5 -35t-95.5 -21.5t-62 -8q-26 0 -70 8t-87.5 25.5t-75.5 42.5t-32 59z" />
<glyph unicode="W" horiz-adv-x="2350" d="M16 1576q0 -56 7 -56q11 0 27 37.5t46.5 82.5t79 82.5t124.5 37.5q51 0 88.5 -29t61.5 -74.5t34.5 -101.5t10.5 -109v-346q-88 0 -145.5 -17.5t-90.5 -45.5t-47 -62.5t-14 -72.5q0 -86 16.5 -132t29.5 -46q3 0 7.5 28t21.5 61t54.5 61t106.5 28q24 0 42.5 -9t18.5 -39 v-617q-69 0 -130.5 -33.5t-107.5 -73t-71.5 -76t-23.5 -38.5q3 -6 22 2t49.5 18t72.5 19t96 9q117 0 182.5 -29.5t105 -64t66.5 -63.5t67 -29q26 0 38.5 28t27.5 64q18 40 53.5 73.5t111.5 33.5q64 0 118.5 -30.5t101.5 -67.5t81.5 -68t54.5 -31q16 0 59 47t112.5 103 t165 102t215.5 46q88 0 157 -24t100 -45t37 -23q0 23 -18 53.5t-40.5 57.5t-45.5 44.5t-33 17.5v1402q8 0 44.5 23t77.5 58.5t74 81t33 91.5q0 15 -8 15q-5 0 -17 -11t-29.5 -22.5t-40 -22t-51.5 -10.5q-71 0 -111.5 34.5t-53.5 72.5q-10 35 -25 58.5t-50 23.5 q-13 0 -30 -6.5t-34 -23.5l-306 -306v203q0 26 17 43.5t17 41.5q0 35 -26 35q-13 0 -26.5 -11t-13.5 -37v-302l-87 -87q-11 -11 -20.5 -12t-14.5 -1q-16 0 -25.5 18t-16 50t-13 72.5t-17.5 82.5t-28 85t-37.5 76t-43 53.5t-43.5 20.5q-30 0 -58 -30l-277 -277v208 q0 18 13 31.5t13 37.5q0 32 -26 32q-33 0 -33 -38v-297l-76 -77q-8 -8 -23 -21.5t-28 -13.5q-30 0 -44.5 37t-24.5 82q-8 41 -28 95.5t-57 102t-93.5 82.5t-136.5 35q-93 0 -155.5 -53.5t-98 -128t-50.5 -153t-15 -126.5zM679 237v1193q0 35 26.5 77.5t57 80.5t57.5 64 l26 25v-1474l-49 17t-118 17zM879 186v426q0 24 15.5 42.5t42 30t56 16.5t59.5 5q26 0 57 -4t56 -15t41 -28t16 -41v-389q-30 0 -63 -15.5t-63.5 -36t-53.5 -36.5t-28 -16q-8 0 -23.5 8.5t-35.5 18.5t-41.5 19.5t-34.5 14.5zM879 724v432q0 30 23 28q21 0 57.5 -11.5 t92.5 -11.5t94 19t60 19q8 0 12 -4.5t4 -20.5v-440q0 -29 -16 -28q-15 0 -53 15.5t-101 15.5q-69 0 -107 -19.5t-53 -19.5q-13 0 -13 26zM879 1283v421q0 3 11.5 14.5t31.5 25.5t44.5 25.5t44.5 11.5q51 0 81.5 -13t49.5 -37t28 -57t20 -76q5 -18 18.5 -37t13.5 -22v-279 q0 -6 -16 -17t-41 -22.5t-56 -19.5t-57 -8q-30 0 -59.5 4t-56 14.5t-42 26.5t-15.5 45zM1405 229v1188q0 38 24 80t53.5 75.5t53.5 56t24 19.5v-1475q-3 3 -21.5 15t-55.5 26.5t-78 14.5zM1592 173v439q0 24 16 42.5t42.5 30t56 16.5t58.5 5q26 0 56.5 -4t56 -15t42 -28 t16.5 -41v-349q-67 0 -128.5 -15t-109 -33t-76.5 -33zM1592 722v428q0 33 24 32q21 0 57.5 -9t91.5 -9q59 0 97.5 20t57.5 20q16 0 16 -25v-447q0 -30 -11 -29q-15 0 -54 17t-106 17q-71 0 -110 -20.5t-52 -20.5q-11 0 -11 26zM1592 1283v391q3 3 21.5 23t56 43t80.5 23 q40 0 66 -16.5t46 -34.5t36.5 -34.5t37.5 -16.5v-401q0 -6 -16.5 -15.5t-42 -21t-56 -19.5t-56.5 -8q-29 0 -58.5 2.5t-56 13t-42.5 26.5t-16 45z" />
<glyph unicode="X" horiz-adv-x="1969" d="M46 -56q0 -21 5 -21q7 0 30 17t57.5 40t78.5 40.5t92 17.5q59 0 96 -20.5t61 -45.5t38.5 -45.5t25.5 -20.5q16 0 24 28l465 1001l440 -887q20 -40 49 -88t57 -48q13 0 29.5 16t35 36t41.5 41t49 33q40 18 76 46t61 57t41.5 57t16.5 44q0 15 -9 17q-8 0 -26 -15t-42 -34 t-53.5 -33.5t-59.5 -14.5q-114 0 -157 97l-336 676h221q102 0 169.5 44.5t109 100.5t56 103t6.5 49q-5 3 -35.5 -15t-78.5 -41t-110.5 -43t-136.5 -20h-269l-38 74l229 517l55 -25q56 -25 145 -25q93 0 161 52t110.5 114t61 114t13.5 55q-8 3 -18.5 -11t-33.5 -31t-60 -31.5 t-102 -14.5q-40 0 -68.5 17.5t-52.5 40t-41.5 39.5t-33.5 17q-13 0 -25.5 -9t-27.5 -47l-328 -742l-300 564q-51 96 -116.5 158.5t-179.5 62.5q-89 0 -154 -32t-108.5 -82.5t-65 -110.5t-21.5 -118q0 -41 8 -41q13 0 29 23t43 49.5t68 49.5t106 23q88 0 159.5 -39 t107.5 -108l264 -503h-300q-94 0 -156 -41t-100 -90.5t-51 -92.5t-8 -45q3 -3 18 12t47 32t85 32t130 15h368l-269 -584q-26 -59 -60 -77t-70 -18q-56 0 -115 25.5t-113 25.5q-53 0 -107 -45.5t-99.5 -106.5t-74.5 -121t-29 -90z" />
<glyph unicode="Y" horiz-adv-x="1674" d="M3 1738q0 -30 6.5 -60t16 -55t17.5 -41.5t10 -16.5q5 0 10.5 39t25.5 84t63 84t125 39q74 0 135.5 -43t61.5 -117v-416q-23 0 -74.5 -4t-103.5 -19.5t-90 -50.5t-38 -99q0 -94 26.5 -142.5t58.5 -68.5t58.5 -21.5t29 1t-6.5 10.5t-20 21.5t-20 30.5t-9 42q0 140 134 140 h2q21 0 37 -9t16 -32v-592q0 -69 47.5 -115.5t107.5 -76t114 -44.5t67 -18q-8 -5 -61 -33t-113.5 -74t-108 -104.5t-47.5 -126.5q0 -124 82.5 -173.5t214.5 -54.5h12q72 0 147 32q83 34 160.5 75.5t145.5 77.5t119 36q64 0 97 -40t33 -98q0 -35 -24 -64.5t-58.5 -52 t-72 -34.5t-63.5 -12q-54 0 -99.5 14.5t-73.5 17.5q-51 0 -51 -48q0 -19 19 -29.5t45.5 -17.5t58.5 -8t58 -1q99 0 167.5 29.5t114 76t67 106t21.5 123.5q0 91 -73.5 149.5t-184.5 58.5q-64 0 -153 -33t-181 -74t-177.5 -75t-141.5 -34q-48 0 -72.5 26.5t-24.5 72.5 q0 51 34 100.5t87.5 86.5t117 59.5t125.5 22.5q104 0 204 28t176.5 81.5t124.5 129.5t48 171v1158q19 0 52.5 17.5t68 44t60 54.5t25.5 49q0 16 -8 17q-5 0 -12.5 -11t-21.5 -23t-34.5 -23t-51.5 -11q-45 0 -81.5 36.5t-71 72.5t-71.5 56q-15 8 -31 8q-25 0 -54 -18 l-426 -277v134q0 26 16 42.5t16 31.5q0 35 -23 34q-13 0 -27 -15.5t-14 -33.5v-214l-13 -9q-14 -10 -32 -22t-39.5 -23.5t-39.5 -23.5q-11 -5 -24.5 -1t-13.5 18v115q0 71 -32 121.5t-80 81.5t-104 44t-107 13q-173 0 -252.5 -84t-79.5 -196zM658 500v940q0 46 25 88t56 74 t56 49.5t25 15.5v-1380q0 -21 -25 -13t-56 38.5t-56 78.5t-25 109zM852 292v409q0 18 25 38t63 33t79 22t70 9q30 0 71 -9t78 -23t62.5 -33t25.5 -37v-165q0 -64 -30.5 -120.5t-81 -99t-118.5 -67.5t-143 -25q-43 0 -72 15t-29 53zM852 812v463q0 35 13.5 36.5t41.5 -12 t72.5 -29.5t109.5 -16q64 0 109 16t73 29.5t41.5 12t13.5 -36.5v-463q0 -20 -4 -26t-12 -6q-20 0 -74 28t-147 28t-146.5 -28t-74.5 -28q-7 0 -11.5 5t-4.5 27zM852 1390v295q0 2 30.5 25t74.5 49.5t88 46.5t73 20q48 0 81 -14.5t57 -31.5t40.5 -32t29.5 -15v-343 q0 -21 -25.5 -40t-62.5 -32t-78.5 -22.5t-70.5 -9.5t-70 9.5t-79 24t-63 33.5t-25 37z" />
<glyph unicode="Z" horiz-adv-x="1682" d="M48 -69q0 -8 9 -12.5t17 -4.5q26 0 75 28t134 62t212.5 62t314.5 28q183 0 286 -28t154 -63t71.5 -63t44.5 -28q13 0 41 35t60 87t66.5 113t61 113t41.5 86.5t10 34.5q-13 0 -32 -21.5t-43 -47t-50.5 -47t-51.5 -21.5q-18 0 -51.5 11t-84 24t-118 24.5t-150.5 11.5 q-133 0 -261 -28t-233.5 -62t-175.5 -64.5t-86 -38.5q6 5 52 40.5t109 94t132 135t122 167.5q26 48 58.5 105.5t60.5 106.5t47 84l20 34h248q110 0 181 58.5t113 128t55 128t7 58.5q-7 0 -35 -30.5t-71.5 -69.5t-105.5 -69.5t-138 -30.5h-192q-2 0 30 58.5t83 145t114 182.5 t122 170q37 49 97 104.5t116 107.5t95.5 94.5t39.5 67.5q0 26 -18 26q-16 0 -79 -37t-161 -84t-226 -84t-278 -37q-135 0 -213.5 29t-124 65t-67.5 65t-47 29q-10 0 -20.5 -5t-30.5 -26l-290 -292q0 -16 -2.5 -15.5t10.5 0.5q16 0 38.5 8.5t45.5 17.5t44.5 17t31.5 8 q33 0 66 -15.5t76.5 -35.5t102.5 -36.5t144 -16.5q109 0 230 35t221 73.5t165 64.5q37 15 53 14q12 0 12 -8q0 -2 -36 -33.5t-88 -77.5t-109 -102t-97 -109q-51 -64 -94.5 -131t-76.5 -119t-53 -85l-21 -33h-300q-125 0 -193 -50.5t-97.5 -112t-30.5 -112t4 -50.5t20 24 t45.5 52t79.5 52t124 24h279l-14 -41q-15 -41 -51 -115.5t-97 -180t-152 -232.5q-56 -80 -117 -145.5t-112 -115t-84 -81t-33 -47.5z" />
<glyph unicode="[" horiz-adv-x="734" d="M74 -86h341l235 86h-309v1906h74l235 96h-320q-10 0 -57 -19t-85 -42q-18 -13 -38 -29.5t-37 -33t-28 -30.5t-11 -16v-1918z" />
<glyph unicode="\" horiz-adv-x="891" d="M0 1971l640 -2037l186 92l-640 2037z" />
<glyph unicode="]" horiz-adv-x="734" d="M74 -21h320q10 0 57 18.5t85 42.5q18 11 38 28.5t37 34.5t28 29t11 18v1916h-341l-235 -85h310v-1907h-75z" />
<glyph unicode="^" horiz-adv-x="851" d="M183 1245l25 -23l199 200q3 -5 30.5 -44t77 -89.5t95.5 -69.5l69 69q-30 8 -70 44.5t-74.5 76t-58.5 72.5l-24 33z" />
<glyph unicode="_" horiz-adv-x="1064" d="M-74 -74h1065l74 74h-1065z" />
<glyph unicode="`" horiz-adv-x="798" d="M218 1453q24 -63 81 -110t117.5 -77.5t109.5 -41t54.5 -2.5t-21 30.5t-67 62.5t-82.5 100.5t-67 139.5z" />
<glyph unicode="a" horiz-adv-x="1037" d="M18 218q0 -42 11 -86t35 -79t60 -55.5t89 -20.5q56 0 119.5 43.5t121 96.5t96.5 101t44 54q0 -8 1.5 -60t10.5 -109t28 -104t52 -47q8 0 53.5 32t95 72t89 74.5t39.5 39.5q0 3 -11.5 -1t-30.5 -11.5t-41.5 -15t-43.5 -7.5q-33 0 -56 20.5t-23 83.5v589l37 24t81 57t81 69 t37 66q0 10 -15 23t-28 13q-26 0 -37 -30.5t-24 -64.5q-13 -26 -30.5 -47.5t-55.5 -21.5q-23 0 -36 29.5t-29 65t-37.5 66.5t-58.5 31q-10 0 -40 -38.5t-77.5 -84t-113 -84t-145.5 -38.5l7 13q7 13 16 34.5t17.5 48t8.5 50.5q0 37 -21.5 62.5t-82.5 25.5q-56 0 -81.5 -29 t-25.5 -75q0 -45 21.5 -97t55.5 -86l205 -206q-51 0 -114.5 -26.5t-119.5 -76t-95 -121t-39 -162.5zM178 348q0 46 19 86t48 71t65 47.5t71 16.5q38 0 58.5 -6.5t25.5 -0.5q3 2 -18 27l-213 212q-8 8 -5.5 13.5t10.5 5.5q48 0 95 16t86.5 36t67.5 36t36 16q32 0 50 -26.5 t18 -64.5v-513l-23 -31q-23 -30 -59 -66.5t-81 -67t-91 -30.5q-77 0 -118.5 69.5t-41.5 153.5z" />
<glyph unicode="b" horiz-adv-x="1042" d="M0 40q0 -8 8 -8q5 0 21.5 8t36.5 8q33 0 66 -21.5t62.5 -48t50.5 -48t29 -21.5q6 0 54 34t124 73.5t175.5 72.5t208.5 33q23 0 65 -5l41 -5q0 10 -17.5 29t-38 40.5t-38 48t-17.5 55.5v553q7 0 30 9.5t44.5 28t38.5 48t17 72.5l-24 -9t-50 -9q-56 0 -90.5 18t-62.5 39.5 t-53.5 40.5t-62.5 19q-38 0 -69 -33l-262 -261v690q0 77 27 140t58.5 106.5t58.5 66.5l27 22q-54 0 -97.5 -26.5t-76.5 -58t-54.5 -58.5t-29.5 -27q-13 0 -29 12t-39 27t-52 26.5t-72 11.5q5 -3 30.5 -31t54.5 -98t29 -171v-1252q0 -13 -18 -28t-42 -32t-43 -37t-19 -44z M287 216v541l184 183q5 5 13.5 11.5t13.5 6.5q13 0 32 -18t40.5 -41t46.5 -42t49 -19v-627q0 -38 -25.5 -62t-57.5 -39.5t-62.5 -23t-40.5 -7.5q-21 0 -53.5 16.5t-63 39t-53.5 45.5t-23 36z" />
<glyph unicode="c" horiz-adv-x="877" d="M0 61q0 -8 10 -8q13 0 45.5 19t61.5 19q33 0 66 -25.5t63.5 -54.5t57 -54.5t44.5 -25.5q16 0 57.5 42.5t118.5 92.5q40 26 79 52t71 48t51.5 41t19.5 35q0 5 -8 13.5t-15 8.5q-14 0 -31.5 -25.5t-45.5 -52.5q-33 -30 -66 -47t-46 -17q-8 0 -44.5 15t-76 34.5t-70 39.5 t-30.5 33v650q0 46 4 60t14 14q11 0 31 -22t48 -50t66.5 -50.5t88.5 -22.5q48 0 90 19t72.5 42t46 48.5t15.5 39.5q0 11 -13 11q-69 0 -113 19.5t-71 44.5t-40 45.5t-23 20.5q-8 0 -36.5 -20.5t-73.5 -44.5t-101 -43.5t-119 -19.5q-26 0 -60 3t-61 3q-13 0 -14.5 -1.5 t-1.5 -6.5t12.5 -16t25.5 -29.5t24.5 -44t11.5 -55.5v-596q0 -5 -20.5 -23.5t-46 -43.5t-47 -56.5t-21.5 -57.5z" />
<glyph unicode="d" d="M-16 1646q0 -11 16 -20.5t42.5 -25t59.5 -39.5t66 -59l368 -405q15 -18 -28 -49t-114.5 -60.5t-156.5 -50.5t-151 -21q-18 0 -20 -11q0 -5 14 -14.5t29.5 -21.5t29 -27.5t13.5 -31.5v-592q0 -5 -24 -25t-52 -44t-50.5 -48t-22.5 -37t26.5 -2.5t79.5 10.5q51 0 94.5 -24.5 t78.5 -53.5t56 -52.5t27 -23.5q8 0 49 32t108 70t151 70t173 32q59 0 94 -9t45 -9q19 0 19 10q0 8 -18 27t-37 45.5t-37 60t-18 70.5v405q0 42 25.5 80.5t56 70.5t56 57.5t25.5 41.5q0 8 -11 16q-7 3 -42.5 -17.5t-76.5 -20.5q-21 0 -40 8t-38 30l-562 638q-26 30 -37 64.5 t-16 65t-10.5 50.5t-20.5 20q-18 0 -37 -38t-59 -71q-41 -35 -82 -46.5t-41 -24.5zM317 226v635q0 29 32 55t75.5 49t89 40t75.5 31q8 -8 30.5 -32t46 -50.5t43.5 -50.5t20 -29v-663q0 -21 -28 -41t-63.5 -39t-66 -29.5t-35.5 -10.5q-16 0 -52.5 19.5t-73.5 43.5t-65 45.5 t-28 26.5z" />
<glyph unicode="e" horiz-adv-x="851" d="M0 8l23 12t68 12q48 0 90.5 -20t75.5 -44t55.5 -44t28.5 -20q5 0 39.5 19t82.5 48t101.5 62t98.5 65t76 55t31 28q0 10 -13 10h-20q-21 0 -46 -17t-53 -39.5t-58.5 -40t-63.5 -17.5q-35 0 -62.5 18.5t-56.5 37.5t-67 38.5t-38 49.5v74l462 462q4 4 4 12q0 19 -20 61 q-30 60 -72.5 127t-81 122t-46.5 55q-5 0 -36 -28t-82.5 -62.5t-121 -62.5t-151.5 -28q-16 0 -42 1.5t-31 1.5q-18 0 -18 -14q0 -2 10.5 -10t25.5 -21.5t25 -37.5t10 -58v-620q0 -18 -19.5 -37.5t-43.5 -41.5t-44 -47.5t-20 -60.5zM292 343v567q0 8 24.5 35t67.5 27 q32 0 69 -31t67.5 -74.5t52 -93t21.5 -87.5q0 -13 -7 -34.5t-23 -36.5z" />
<glyph unicode="f" horiz-adv-x="747" d="M0 871l28 29q28 30 86 30h74v-765q-7 0 -34 -16t-53.5 -38.5t-47.5 -47.5t-21 -47l30 12q29 12 80 12q43 0 77.5 -17.5t59 -39t40.5 -38.5t22 -17q5 0 17 13t28 31t37.5 38t44.5 36q13 7 36.5 20t44 27t37 28t16.5 23q0 13 -13 13t-23 -6.5t-19 -16t-22.5 -16t-36.5 -6.5 q-11 0 -27 7.5t-35 19t-37.5 19t-34.5 7.5v765h109q69 0 117 53t48 162l-36 -25q-36 -25 -107 -25h-131v481q0 71 15 98.5t35 27.5q18 0 39.5 -11t44.5 -24t44.5 -24t42.5 -11q15 0 45 13.5t58 37.5t49 61t21 85q0 38 -11 69q0 3 -6.5 -5t-18 -18.5t-29 -19t-41.5 -8.5 q-32 0 -62.5 17.5t-55 38t-40.5 37t-21 16.5t-21 -50.5t-91 -124.5q-38 -38 -73.5 -60t-63.5 -35.5t-43.5 -20t-15.5 -11.5q0 -13 5 -23t11.5 -21.5t11.5 -29t5 -49.5v-436q-37 0 -69.5 -4t-59.5 -27t-43 -68.5t-16 -124.5z" />
<glyph unicode="g" horiz-adv-x="1024" d="M-16 -303q0 -5 28 5.5t82 10.5q76 0 136 -39t100 -84t63 -84t26 -39q5 3 53.5 25.5t127.5 69.5t153.5 108t128 138.5t53.5 159.5q0 48 -25.5 77t-56 59.5t-56 72t-25.5 110.5v551q0 41 21.5 74t48 59.5t47.5 45.5t21 32l-29 -5t-69 -5q-58 0 -97 14t-63 31.5t-36 32 t-17 14.5t-29 -13t-60 -34.5t-84 -45.5t-104 -42q-42 -16 -86.5 -24.5t-81.5 -12t-63.5 -5t-34.5 -1.5q-18 0 -17 -5.5t1 -10.5q3 -2 22.5 -16t42 -44.5t22.5 -66.5v-454q0 -15 -16.5 -34t-39.5 -36t-40.5 -32t-17.5 -17q0 -11 17 -11q10 0 27 2.5t39 2.5q66 0 117 -15.5 t85.5 -37t53 -46.5t18.5 -41q0 -8 -5 -14l-365 -364zM142 -191l465 465q0 -5 1.5 -34t16.5 -82.5t48 -106.5q19 -30 41.5 -45.5t41.5 -30.5t30.5 -31t11.5 -48q0 -48 -32 -99t-72.5 -93t-79.5 -70t-52 -28q-8 0 -31 34.5t-61 77.5t-93 77.5t-126 34.5q-53 0 -83 -12.5 t-26 -8.5zM292 363v524q0 29 27 54t61.5 44t68 29t44.5 10q23 0 44.5 -18t36.5 -46t24 -63.5t9 -70.5v-506l-74 -76q-13 -13 -33 -13q-18 0 -41 16.5t-47 32.5q-32 18 -54.5 27.5t-36.5 15t-21.5 13t-7.5 27.5z" />
<glyph unicode="h" horiz-adv-x="1151" d="M0 26l20 7t54 7q48 0 81 -17.5t56 -39t35.5 -38.5t17.5 -17q2 0 43 33.5t90.5 73t91 73.5t41.5 36q0 11 -14 11q-5 0 -15.5 -10t-25.5 -20.5t-30.5 -19.5t-25.5 -9q-30 0 -54 28t-45 28v463l239 239q30 30 51 30q10 0 23.5 -16t29.5 -36t34.5 -36t39.5 -16v-676 q0 -30 -14.5 -52t-32 -43.5t-31.5 -44t-14 -50.5q0 -40 14 -77t33 -73t33.5 -75.5t14.5 -87.5q0 -56 -17 -94l-17 -37q26 0 54 12t50.5 29.5t37.5 41t15 48.5q0 40 -26.5 69.5t-59 58.5t-59 66t-26.5 91q0 58 37.5 94t85.5 50q35 8 71 14.5t64 13t44.5 11.5t16.5 13 q0 5 -16.5 12t-37 21.5t-38 36t-17.5 53.5v575q11 0 29.5 13.5t37.5 32t32 38.5t13 30q0 8 -13 8q-96 0 -157 54q-18 15 -29.5 38t-19 45.5t-13 37.5t-12.5 15q-8 0 -20.5 -6t-30.5 -24l-399 -399v844q0 79 42 142t93 105.5t94 64.5l43 23q-104 0 -164 -22.5t-95 -48 t-52 -47.5t-34 -22q-10 0 -27 17t-41 37t-54.5 37.5t-66.5 17.5q3 -3 24.5 -35.5t47 -113t25.5 -198.5v-1312q-13 0 -40 -9.5t-52 -25.5t-44 -40t-19 -51z" />
<glyph unicode="i" horiz-adv-x="600" d="M16 924q0 -10 10 -11q10 0 21 13.5t22 13.5q13 0 19 -12t16 -28q13 -21 33 -33.5t33 -12.5v-630q0 -64 16.5 -117.5t36 -93t39.5 -61t25 -21.5t37 23t70 50.5t67 52.5t29 34q0 13 -24 26t-53 37t-53.5 67t-24.5 114v519q6 0 32.5 8.5t57 26.5t56 52t25.5 81q0 2 -28 -9.5 t-68 -11.5q-46 0 -78 19t-52.5 39.5t-35.5 39.5t-26 19q-15 0 -32 -16l-160 -160q-10 -10 -10 -18zM74 1339q0 -8 14 -8q11 0 22.5 9t22.5 9q15 0 30 -14t35 -30.5t48 -30.5t71 -14q41 0 75 15.5t62 38t44 49.5t16 50l-19 -6q-18 -7 -50 -7q-46 0 -79 17.5t-56 39t-36 38.5 t-18 17h-12q-5 0 -10 -5l-157 -158q-3 -2 -3 -10z" />
<glyph unicode="j" horiz-adv-x="510" d="M-18 930q0 -11 10 -11q11 0 21 13t22 13q13 0 18 -11.5t16 -28.5q31 -44 51 -44h2v-637q0 -64 12.5 -100t28 -62.5t28 -53t12.5 -74.5q0 -54 -26.5 -87t-58.5 -62t-59 -61.5t-27 -82.5q0 -23 7 -53t16 -55.5t16.5 -43t14.5 -17.5q2 0 5 14t4 31.5t1 35.5v28q0 54 41 89 t89 70.5t89 81t41 117.5q0 71 -10.5 104.5t-23.5 60t-24 61.5t-11 107v589q5 0 32 7.5t57.5 26t56 52t25.5 81.5q0 3 -28 -9.5t-67 -12.5q-46 0 -75 19t-48 40.5t-32 39.5t-25 18q-15 0 -31 -15l-160 -160q-10 -11 -10 -18zM8 1344q0 -8 13 -8q10 0 22.5 9.5t22.5 9.5 q16 0 31 -14.5t35 -30.5t48 -30.5t71 -14.5q40 0 74 15.5t62 38.5t44 49.5t16 51.5l-19 -8q-18 -7 -50 -7q-45 0 -78.5 17.5t-56 39t-35.5 38.5t-20 17h-10t-10 -5l-158 -157q-2 -3 -2 -11z" />
<glyph unicode="k" horiz-adv-x="1095" d="M0 18h53q67 0 111 -17t70.5 -37t39.5 -36t18 -16l36 35q35 35 77 76t77 76l34 36q0 8 -13 9q-8 0 -17 -9.5t-21.5 -20t-24 -19.5t-21.5 -9q-13 0 -36.5 20.5t-44.5 20.5v254q0 8 30.5 29.5t69.5 42.5t70 37l30 16q54 -30 78 -71t35.5 -93t18 -110.5t22.5 -119.5 q18 -74 54.5 -130t49.5 -56q5 0 36 21t64.5 48.5t61 53t27.5 33.5q0 5 -22.5 29t-49 62t-49.5 84t-23 99q0 59 -22.5 103t-49.5 74.5t-49 48t-22 22.5q0 3 34.5 26t75.5 53.5t76 63.5t35 56q0 13 -35 60t-84 99t-104.5 92.5t-98.5 40.5q-35 0 -56 -23l-203 -201v580 q0 77 34.5 153t76 135.5t76.5 97.5l34 38q-64 0 -114.5 -33.5t-89 -72.5t-65 -72t-36.5 -33q-11 0 -26 16t-37.5 34.5t-56 34.5t-78.5 16l19 -25q19 -25 39.5 -69.5t39.5 -101.5t19 -121v-1313q-30 0 -60.5 -13t-55.5 -30.5t-41 -37t-16 -36.5zM338 508v315l101 101 q11 11 26 11q35 0 81 -36t86.5 -81.5t68.5 -85.5t28 -48q0 -11 -41 -44t-98 -68.5t-117.5 -65t-96.5 -29.5q-38 0 -38 31z" />
<glyph unicode="l" horiz-adv-x="566" d="M0 13l19 7q19 6 47 6q51 0 85.5 -17t58.5 -38.5t36.5 -39t17.5 -17.5q2 0 43 32.5t90.5 72t91 73t41.5 35.5q0 11 -9 11q-7 0 -20 -9t-28 -19.5t-29.5 -20.5t-28.5 -10q-8 0 -19.5 10t-25.5 20.5t-27 19.5t-23 9v1313q0 88 29 165.5t63.5 134.5t63.5 90l30 34 q-69 0 -117 -36.5t-78.5 -79t-49.5 -78t-30 -35.5q-10 0 -21.5 20.5t-32 45t-49.5 45.5t-77 21q2 -5 26 -43.5t51 -117t27 -169.5v-1310q-11 0 -36 -9t-52 -25t-47 -40t-20 -51z" />
<glyph unicode="m" horiz-adv-x="1660" d="M0 23l19 5q19 4 47 4q67 0 108.5 -17.5t65.5 -40t35.5 -39.5t16.5 -17l182 183q0 11 -9 11q-10 0 -24.5 -13t-28.5 -13q-18 0 -43.5 23.5t-43.5 23.5v596l203 203q15 16 39 16q45 0 82 -68t37 -169v-586q-5 0 -24.5 -10.5t-39.5 -26.5t-36.5 -34.5t-16.5 -35.5l19 3 q19 2 40 2q58 0 96 -16.5t58.5 -37t32 -36t16.5 -15.5l193 156q0 10 -7 12q-8 0 -18.5 -7t-18.5 -7q-5 0 -18.5 9.5t-31 20t-38.5 19.5t-40 9v566l187 185q10 11 26 11q7 0 25 -14.5t39 -32t45.5 -32.5t39.5 -15v-590q0 -86 15.5 -140.5t37 -87.5t43 -46t32.5 -13 q7 0 45 23.5t77.5 52.5t72.5 57t36 34q3 2 -28 0q-10 -1 -21 0q-22 0 -47 3q-37 5 -67.5 24.5t-30.5 70.5v612q5 0 30.5 16.5t52 41.5t48 59.5t21.5 75.5l-35 -19q-35 -19 -79 -19q-33 0 -58 22.5t-46.5 49.5t-41 48.5t-44.5 21.5q-23 0 -48 -28l-327 -327 q0 106 -14.5 174.5t-40 108t-58.5 56t-68 16.5q-30 0 -53 -25l-293 -293q0 19 -2.5 69.5t-15 104t-38 96t-69.5 42.5q-30 0 -63 -29t-62 -65.5t-49.5 -68.5t-20.5 -34q0 -8 34.5 -12t69.5 -28q21 -16 36 -41.5t15 -70.5v-607q-3 0 -28 -8t-54.5 -22.5t-53.5 -34.5t-24 -45z " />
<glyph unicode="n" horiz-adv-x="1166" d="M0 -3l43 9q43 10 90 10q63 0 103.5 -13t64.5 -31t35.5 -31t17.5 -13l174 176q0 10 -9 10q-11 0 -25 -13t-29 -13q-7 0 -17.5 9.5t-28 21t-41.5 22.5t-58 11v511q0 18 26.5 62.5t65 91t82.5 81t81 34.5q29 0 52 -17.5t41 -40t30.5 -39.5t20.5 -17v-594q0 -86 16 -140 t37 -88t42.5 -47t31.5 -13q8 0 46 24t78.5 53.5t74 57.5t33.5 33q0 4 -30 -2q-21 -4 -45 -4h-22q-36 2 -66.5 24t-30.5 81v615q10 0 34 13t51 35.5t47 53t20 68.5l-25 -14q-26 -13 -69 -13q-50 0 -82 21.5t-58.5 48t-52 48t-60.5 21.5q-21 0 -42.5 -8t-44.5 -32l-282 -283 q0 19 -2.5 69.5t-15 104t-38 96t-69.5 42.5q-30 0 -63 -29t-62.5 -65.5t-49.5 -68.5t-20 -34q0 -8 34.5 -12t69.5 -28q21 -16 36 -41.5t15 -70.5v-588q-21 0 -48.5 -17.5t-51 -41.5t-39.5 -50.5t-16 -45.5z" />
<glyph unicode="o" d="M-5 53l33 7q33 6 60 6q54 0 98.5 -24t76.5 -53t53.5 -53t26.5 -24q3 0 59 32.5t136 70.5t169 70t161 32q16 0 41.5 -1.5t46.5 -1.5q23 0 39 1.5t16 6.5q0 13 -21.5 26.5t-47.5 30t-47 36t-21 46.5v546q0 3 24 24t53 47.5t53 50.5t24 34q-4 -1 -30 -3q-13 -1 -30 -1 q-16 -1 -36 1q-40 2 -66 18q-35 15 -65.5 40.5t-54.5 48t-42 38.5t-25 16q-8 0 -42.5 -29.5t-98.5 -64t-158.5 -63.5t-224.5 -29q-13 0 -38.5 2.5t-42 3.5t-18.5 1q0 -12 11.5 -27t28 -33.5t28 -41t11.5 -52.5v-522q0 -45 -22 -75.5t-47.5 -54.5t-48 -43t-22.5 -40zM300 242 v604q0 18 16.5 36t42 33t54.5 22.5t52 7.5q43 0 87.5 -20t79 -44t55.5 -45t21 -24v-631q0 -24 -21 -45.5t-49 -37.5t-55 -24t-37 -8q-8 0 -48 19t-84 45.5t-79 57t-35 54.5z" />
<glyph unicode="p" horiz-adv-x="1047" d="M0 53q0 -5 16 1.5t39.5 15.5t53 17.5t59.5 8.5v-421q0 -38 -23 -71t-51 -59.5t-50.5 -45t-22.5 -20.5q0 -5 49.5 0t106.5 31.5t106.5 82.5t49.5 156v347q53 0 90 -26.5t62.5 -57t39 -57.5t18.5 -27q3 0 16 28t53.5 60t114.5 60t200 28q10 0 10 5t-15 19t-30.5 31 t-30.5 42t-15 55v532q8 0 28 13.5t39 32t33.5 38.5t14.5 33q-89 0 -141.5 30.5t-82 67t-47 67t-32.5 30.5q-13 0 -40 -28l-253 -252q-13 -10 -22 -10q-23 0 -40.5 48.5t-32 109t-27 109.5t-27.5 49q-11 0 -20.5 -14.5t-20 -38.5t-24 -53t-34.5 -57q-35 -43 -71 -65t-36 -32 q0 -11 34.5 -16.5t67.5 -37.5q21 -20 38.5 -52.5t17.5 -93.5v-466l-27 -12t-57.5 -32.5t-57 -47t-26.5 -55.5zM333 224v452q0 21 20 57.5t49.5 69.5t62.5 58.5t56 25.5q21 0 44.5 -16.5t43 -33.5t38.5 -33t34 -16v-671q0 -35 -15 -35q-21 0 -45 22.5t-60.5 48t-91 48.5 t-136.5 23z" />
<glyph unicode="q" horiz-adv-x="1095" d="M16 101q0 -10 30.5 7t86.5 17q63 0 110 -24t80 -52t60 -51.5t51 -23.5q11 0 9.5 -4.5t-3 -6t1.5 2.5t23 21l262 196v-449q0 -69 38 -118.5t86.5 -79t87.5 -40t39 0.5q0 15 -14 25t-29.5 31t-29 66.5t-13.5 129.5v1095q5 0 22.5 12t35.5 30.5t33 42.5t15 49q0 7 -2.5 17.5 t-7.5 10.5q-3 0 -21.5 -11.5t-53.5 -11.5q-49 0 -84.5 22.5t-62 50.5t-43.5 51.5t-31 23.5q-13 0 -56.5 -29.5t-120 -63.5t-183 -63.5t-241.5 -29.5q-13 0 -14 -5q0 -5 9.5 -19t21.5 -30.5t21 -39.5t9 -48v-505q0 -48 -18.5 -77.5t-42.5 -49t-42.5 -34.5t-18.5 -36zM303 277 v569q0 59 59 87t123 28q51 0 82.5 -18.5t57 -40t48.5 -40t54 -18.5v-615q-5 -3 -33 -27t-65 -50.5t-52 -26.5q-10 0 -53.5 16t-93 40t-88.5 49.5t-39 46.5z" />
<glyph unicode="r" horiz-adv-x="930" d="M8 -5q0 -5 34.5 8t87.5 13q61 0 98.5 -14.5t60.5 -32t31 -32t13 -14.5q2 0 32.5 29.5t66.5 65t64 66t28 36.5q0 15 -16 15q-13 0 -31.5 -17t-34.5 -17q-21 0 -47.5 20.5t-61.5 20.5v646l112 112q2 -6 22.5 -31t65 -54.5t109.5 -29.5q48 0 91.5 26.5t75.5 60t52 68.5 t20 51q0 7 -30.5 -11.5t-75.5 -18.5q-30 0 -52 21.5t-41 45.5t-38 45.5t-42 21.5q-16 0 -33 -17l-236 -237q0 46 -2.5 90t-15 79.5t-37 58.5t-67.5 23q-8 0 -37.5 -19t-62 -43t-57 -48t-24.5 -34q0 -13 21 -15.5t47.5 -11t48 -31t21.5 -80.5v-668q-11 0 -37.5 -15t-53 -36.5 t-48 -47t-21.5 -48.5z" />
<glyph unicode="s" horiz-adv-x="1054" d="M-35.5 90q-4.5 -4 3.5 -4q10 0 36 9t65 9q74 0 142.5 -29t121.5 -63.5t87.5 -64t44.5 -29.5q11 0 33.5 30.5t72 66.5t132 66.5t213.5 30.5q11 0 11 5t-15 17.5t-32 29.5t-32 39.5t-15 47.5v244q0 33 9.5 57.5t21.5 46t22.5 39t10.5 33.5q0 8 -11.5 2.5t-37 -14.5t-66 -20 t-93.5 -11h-151l397 383q23 24 25.5 31t-2.5 7q-13 0 -71.5 -7.5t-141.5 -7.5q-77 0 -127.5 22t-82.5 47t-51 48t-26 23q-6 0 -24.5 -33t-55.5 -75t-97 -75t-151 -33q-26 0 -54 4t-28 -6q0 -8 9 -18.5t21.5 -23t23 -28t10.5 -32.5v-300q0 -13 -10.5 -21.5t-23 -16.5 t-21.5 -15.5t-9 -20.5q0 -18 51 -20q66 0 135 12.5t112 12.5l-364 -378q-13 -13 -17.5 -17zM94 170l300 315h165h14q47 1 69 -17q26 -20 26 -74v-252q0 -51 -40 -51q-30 0 -72 19.5t-93 43.5t-101 44t-96 20q-42 0 -85 -11.5t-64 -22.5t-23 -14zM277 742v124q0 58 10.5 75 t32.5 17q15 0 40.5 -10.5t57.5 -24t66.5 -24t69.5 -10.5q106 0 163.5 15t115.5 54l-343 -330q-125 0 -169 25.5t-44 88.5z" />
<glyph unicode="t" horiz-adv-x="724" d="M10 868q0 -2 5.5 7t20.5 20.5t41.5 23t72.5 11.5h79v-780q-8 0 -37.5 -15t-62.5 -38t-58 -48.5t-25 -48.5l37 10q37 11 90 11q51 0 85 -17t54.5 -37t32 -36.5t20.5 -16.5q3 0 36 32.5t70 72t69 73t32 35.5q0 16 -21 17q-13 0 -25 -16t-36 -16q-16 0 -40 19t-56 19v780 h117q58 0 113 47t55 125q0 11 -3 28.5t-8 17.5q-8 0 -14.5 -8.5t-22.5 -19t-42.5 -18t-69.5 -7.5h-125v651q0 26 -8 27q-8 0 -24 -22.5t-37.5 -52t-47.5 -56t-53 -34.5q-41 -10 -41 -35q0 -23 23 -72.5t23 -134.5v-271q-33 0 -70 -5.5t-70 -27t-56 -67t-23 -127.5z" />
<glyph unicode="u" horiz-adv-x="1176" d="M0 5q0 -2 39.5 8t82.5 10q59 0 94 -16.5t54.5 -38t33 -39t31.5 -17.5q33 0 79 37.5t92 82.5l213 212q0 -42 4 -100t16 -110t34.5 -88.5t57.5 -36.5l35 28q36 28 79 64.5t79 67t36 38.5q0 5 -12 6t-31 1q-16 0 -37.5 3t-39.5 16q-24 13 -40 45.5t-16 93.5v582 q5 0 31.5 8.5t57.5 26.5t56 52t25 81q0 2 -28 -9.5t-68 -11.5q-45 0 -77 19t-53 39.5t-36 39.5t-25 19q-16 0 -33 -16l-159 -160q-11 -10 -11 -18q0 -10 11 -11q10 0 21 13.5t22 13.5q12 0 18 -12t17 -28q13 -21 33 -33.5t33 -12.5v-564l-176 -176q-35 -35 -66 -35 q-21 0 -49.5 12.5t-55 28t-45 33t-18.5 28.5v607q0 82 -11 141t-26.5 97.5t-31.5 56t-24 17.5t-43 -28t-73.5 -61t-68.5 -61l-31 -28q0 -8 17.5 -12.5t40.5 -4.5q16 0 31 -4t26.5 -15.5t20 -35.5t8.5 -67v-628q-5 0 -27.5 -12.5t-49.5 -32t-47 -47.5t-20 -58z" />
<glyph unicode="v" horiz-adv-x="1133" d="M0 1128q0 -79 28 -125.5t61 -76t61 -51t28 -55.5v-586q0 -13 -29 -38.5t-62.5 -53.5t-60 -53t-21.5 -35.5t21.5 2.5t59.5 13q53 0 103 -24t91.5 -52t69.5 -50t39 -22q15 0 45.5 44.5t97.5 98t179 99t290 45.5q10 0 10 13q0 5 -16.5 17.5t-37 30.5t-38 43.5t-17.5 60.5 v476q8 0 33.5 7t52 24t48 47.5t21.5 81.5q0 2 -21.5 -8t-55.5 -10q-35 0 -77 18.5t-88 77.5q-12 17 -28 17q-17 0 -36 -20l-176 -177q-8 -7 -8 -18q0 -10 17 -10q8 0 24.5 20t46.5 20q35 0 59 -20l23 -20v-605q0 -20 -24 -44.5t-56 -47t-65 -37.5t-51 -15q-11 0 -43.5 15 t-67 35t-61 41t-26.5 38v681q0 61 -39.5 82.5t-86.5 33t-86.5 29t-39.5 71.5q0 63 33 101.5t71.5 60t71.5 32.5t33 16q0 8 -34 8q-29 0 -74 -11t-88 -39t-73.5 -75.5t-30.5 -120.5z" />
<glyph unicode="w" horiz-adv-x="1623" d="M0 48l24 8q24 8 62 8q58 0 98 -21.5t65 -47t38 -46.5t22 -21q8 0 61.5 28t117 62.5t121 68t72.5 43.5q0 -13 8.5 -46t26.5 -69t47.5 -64t69.5 -28q16 0 59 21t104 47.5t138.5 48t159.5 21.5q32 0 57.5 -2.5t46.5 -2.5q63 0 63 21q0 7 -13 21t-30.5 35.5t-30.5 53 t-13 82.5v564q8 0 34.5 12t54.5 32t49.5 48t21.5 60q0 3 -30.5 -3.5t-57.5 -6.5q-43 0 -72.5 18t-49 39.5t-33 40.5t-23.5 19q-6 0 -10.5 0.5t-22.5 -12.5l-27 -24q-26 -25 -56.5 -57.5t-57.5 -59.5l-27 -26q-5 -6 -6 -12l-1 -7q0 -15 18 -15q8 0 25.5 14t39.5 14 q30 0 48 -22l18 -22v-655q0 -64 -53.5 -104t-109.5 -40q-12 0 -46 15t-67 39t-60 57t-27 69v587l26 10q25 11 54.5 31t54.5 48t25 68q0 5 -22.5 -2.5t-59.5 -7.5q-40 0 -69 18t-50.5 39.5t-37.5 40.5t-33 19q-12 0 -23 -11l-165 -165q-5 -5 -6 -12l-2 -7q0 -16 18 -16 q8 0 23 14.5t36 14.5q30 0 48 -23l18 -22v-692q-5 -3 -39.5 -24.5t-80 -47t-55.5 -25.5q-11 0 -41.5 17.5t-62.5 45.5t-57 62.5t-25 72.5v580l10 -4q11 -4 21 -4q21 0 47 39t48 84t37 84l15 39q-10 0 -52 -25.5t-116 -25.5q-76 0 -116.5 48t-40.5 114q0 80 37 145.5 t91.5 115.5t120.5 86.5t120.5 60.5t91.5 37t37 16q0 2 -43.5 -7t-110.5 -33t-143 -64.5t-142.5 -101.5t-110.5 -143.5t-44 -191.5q0 -69 20 -121t37.5 -75t20.5 -25v-714q-5 0 -29.5 -11.5t-52 -32t-50.5 -47t-23 -52.5z" />
<glyph unicode="x" horiz-adv-x="1103" d="M0 -5q0 -11 30.5 -0.5t73.5 10.5q30 0 53.5 -11.5t43.5 -28t35 -28t23 -11.5q10 0 21 21l183 418l192 -370q35 -69 87 -69q43 0 87.5 38.5t76 84t46 83.5t-1.5 38q-13 0 -37 -29t-56 -29q-41 0 -72 64l-221 421l109 244l46 -12q45 -11 84 -11q26 0 58.5 10t59.5 31.5 t44.5 56t17.5 82.5q0 3 -32 -14.5t-75 -17.5q-35 0 -54 21.5t-30.5 48t-16.5 48t-11 21.5q-5 0 -10.5 -8t-19.5 -43l-188 -424l-155 297q-30 61 -59 104.5t-63 43.5q-18 0 -50.5 -38.5t-64.5 -87.5t-56 -94t-24 -57q0 -15 5 -15t28 27.5t66 27.5q18 0 34.5 -11.5t36.5 -49.5 l201 -378l-82 -188q-13 -30 -28 -39.5t-35 -9.5q-13 0 -52.5 10.5t-82.5 10.5q-35 0 -65.5 -25t-52 -57t-34.5 -62.5t-13 -43.5z" />
<glyph unicode="y" horiz-adv-x="1024" d="M32 916q0 -5 11 -6q5 0 13 1.5t16 1.5q23 0 44.5 -23.5t21.5 -112.5v-516q0 -56 25 -91t54.5 -55.5t55 -34.5t25.5 -27q0 -7 -25.5 -15t-55 -21.5t-54.5 -39t-25 -68.5q0 -94 61.5 -147.5t141.5 -53.5q45 0 90.5 14t89 31.5t85 32t78.5 14.5q38 0 60.5 -27t22.5 -60 q0 -48 -43 -84t-106.5 -60t-138.5 -36.5t-141 -12.5q-26 0 -60 -4t-34 -16q0 -14 32.5 -21t86.5 -7q63 0 144.5 14t153 47t121 89t49.5 139q0 132 -51 179t-127 47q-49 0 -103.5 -15t-106.5 -32t-97.5 -32t-73.5 -15q-21 0 -37.5 8t-16.5 30q0 40 31 59.5t80 30.5t109 19 t118 24q46 13 85.5 30.5t70 45.5t49.5 67.5t19 101.5v537q0 3 20 10t44 20t42 37q16 21 16 54v11q0 2 -13 -2t-32 -6t-42 -2t-42 11.5t-36.5 30t-35 38t-34.5 34.5t-37 15t-31 -17l-122 -122q-10 -10 -12 -26q0 -10 20 -10q5 0 15.5 15.5t23.5 15.5t29 -13t30 -29.5 t23 -29.5l9 -13v-591q0 -86 -45.5 -131t-114.5 -45t-110.5 37.5t-41.5 105.5v678q0 82 -15.5 123.5t-58.5 41.5q-18 0 -51.5 -23t-66 -52t-56 -57t-23.5 -39z" />
<glyph unicode="z" horiz-adv-x="981" d="M-10 -13q7 0 30 13t60 28t85 28t107 13q82 0 142 -23t100 -50.5t64 -50t32 -22.5l261 263q-21 0 -42.5 -8t-71.5 -8q-43 0 -77.5 9t-69.5 21.5t-71 21.5t-79 9q-88 0 -166 -27.5t-117 -52t-44 -29.5l286 352h135q64 0 106.5 32t69.5 70.5t36 70.5t6 32q-8 0 -38.5 -19.5 t-86.5 -19.5h-96l317 391q21 30 31.5 47t0.5 17q-16 0 -57.5 -19t-99 -43t-126 -42.5t-140.5 -18.5q-86 0 -144.5 29.5t-82.5 54t-26 31.5l-224 -224q69 0 112 -12.5t77.5 -25.5t68.5 -25t90 -12q77 0 154.5 29t140.5 65.5t101 65.5l39 30l-275 -338h-162q-61 0 -102 -24 t-67.5 -56t-38 -64.5t-11.5 -48.5q0 -13 6 -13q5 0 11 6.5t16 13t31.5 13.5t62.5 7h122l-353 -434q-15 -18 -27 -35.5t-6 -17.5z" />
<glyph unicode="{" horiz-adv-x="1064" d="M0 798q112 -13 183 -59.5t111.5 -115.5t57 -159.5t16.5 -191.5q0 -310 81 -447t211 -137q86 0 194.5 60.5t199.5 177.5q-5 -3 -37 -16.5t-91.5 -28t-122.5 -14.5q-48 0 -94 14.5t-80.5 50.5t-56 97.5t-21.5 156.5q0 208 -16 346.5t-46.5 221t-78 119.5t-112.5 43 q122 41 189 91t99 144t38 249t6 408q0 16 7.5 27.5t29.5 20t65 14t114 5.5l208 201q-178 0 -295 -14t-186.5 -47.5t-97.5 -88t-28 -132.5q0 -168 -1 -290t-11.5 -212.5t-36 -158.5t-75 -122.5t-128 -105.5t-195.5 -107z" />
<glyph unicode="|" horiz-adv-x="287" d="M0 -53l183 93v2023l-183 -92v-2024z" />
<glyph unicode="}" horiz-adv-x="1103" d="M0 -300q178 0 295 14t186.5 47.5t97.5 88t28 132.5q0 165 1.5 288.5t11.5 214t35.5 158.5t75 122.5t128 104t195.5 108.5q-112 13 -182.5 59.5t-111.5 115.5t-57.5 159.5t-16.5 191.5q0 310 -81 447t-211 137q-86 0 -194.5 -60.5t-199.5 -177.5q5 2 37 16t91.5 28 t122.5 14q48 0 94 -14t80.5 -50t56 -97.5t21.5 -156.5q0 -208 16.5 -346.5t47 -221t78 -119.5t112.5 -42q-123 -41 -190 -91.5t-98.5 -145t-38 -250.5t-6.5 -406q0 -16 -7 -28t-29.5 -20t-65 -13.5t-114.5 -5.5z" />
<glyph unicode="~" horiz-adv-x="915" d="M138 1217q2 -3 17 7.5t40.5 24t61 24t81.5 10.5q48 0 76 -6.5t48 -14.5t38.5 -15t48.5 -7q53 0 98 32.5t77.5 71t49 71.5t14 35.5t-15.5 -7.5t-37 -22.5t-57 -23t-74 -10.5q-37 0 -60 6.5t-42.5 16.5t-43.5 16.5t-62 6.5q-61 0 -110 -32t-83.5 -72.5t-51 -75t-13.5 -36.5 z" />
<glyph unicode="&#xa1;" horiz-adv-x="478" d="M109 1496q0 -8 16.5 -34.5t38.5 -53t48 -48t42 -21.5l19 32t34 46q30 33 56 46t26 25q0 11 -28 31t-49.5 46.5t-33.5 51t-22 24.5t-34 -19t-49.5 -43t-44.5 -48t-19 -35zM112 1150q0 -5 9 -14.5t21.5 -29t21.5 -53.5t9 -87v-1121q0 -45 4 -60.5t9 -15.5q8 0 24 24t36 52 t45.5 52t51.5 24q41 0 41 28q0 26 -23 77t-23 136v1047q0 38 -26 36q-18 0 -45.5 -14t-54 -31.5t-47.5 -32t-32 -14.5q-21 0 -21 -3z" />
<glyph unicode="&#xa2;" horiz-adv-x="877" d="M0 61q0 -5 16 -5q15 0 43.5 17.5t57.5 17.5q33 0 66 -25.5t65 -54.5t58.5 -54.5t47.5 -25.5q7 0 21 10.5t29 26.5t29 32t30 26v-140l32 26v136q8 5 49.5 28t86.5 52t81 59.5t36 51.5q0 5 -8 15t-18 10q-16 0 -29.5 -24t-45.5 -54q-7 -8 -23.5 -18.5t-35.5 -20 t-36.5 -17.5t-27.5 -8q-13 0 -21 4l-8 4v706l20 -7q21 -6 49 -6q54 0 96.5 24t72 54.5t42.5 54.5t10 24q-66 0 -110.5 21t-73.5 45t-46 45.5t-34 21.5q-5 0 -15.5 -10.5t-10.5 -2.5v117l-32 -41v-92l-22 -17q-22 -18 -60 -38t-91 -37t-112 -17q-43 0 -65 8t-36 8 q-16 0 -16 -8q0 -5 10.5 -16t25.5 -28t26.5 -42.5t11.5 -58.5v-599l-21 -19q-20 -20 -45.5 -48t-47 -59t-21.5 -52zM312 244v650q0 43 5 58.5t13 15.5t20.5 -11.5t23 -26t19.5 -29t17 -20.5q10 -7 31 -21l22 -14v-702z" />
<glyph unicode="&#xa3;" horiz-adv-x="1756" d="M0 924q0 -15 6.5 -47.5t16 -64.5t19 -56t14.5 -24q2 0 6 28t14 60t29.5 59.5t54.5 27.5q23 0 47 -1t44.5 -9t33.5 -25.5t13 -48.5v-287q0 -89 -19.5 -158t-42.5 -117t-41.5 -74.5t-18.5 -29.5q2 -7 51.5 13.5t105.5 70t102.5 130.5t46.5 193v759q0 72 13 128t28 96 t25.5 61t5.5 26q-8 5 -49.5 -10.5t-86.5 -52.5t-82.5 -99t-37.5 -146v-234q-61 0 -116 -2.5t-94.5 -19t-63.5 -51t-24 -95.5zM21 -122q5 -3 50.5 31.5t129.5 77.5t205.5 78.5t279.5 35.5q160 0 277 -40t194.5 -86.5t120.5 -86.5t53 -40q8 0 37.5 25.5t68.5 64.5t82.5 83.5 t78 85t54.5 68.5t15 30q-3 0 -12 -7t-26.5 -16t-40.5 -17t-51 -8q-13 0 -80 23t-165.5 48.5t-218.5 47.5t-240 22q-183 0 -334 -65t-258.5 -144t-166 -144t-53.5 -67zM521 315q3 -6 52.5 10t108 56t105 105t46.5 161v245l27 -4t67 -4q35 0 71 6.5t66.5 25.5t50 53.5 t19.5 90.5q0 15 -8 47.5t-17 64.5t-20 54.5t-14 22.5q-5 0 -5 -27q0 -26 -8 -60t-28 -60.5t-62 -26.5q-23 0 -49 1.5t-46 10t-32 25t-12 49.5v378q0 59 12 121t38.5 111.5t68 81.5t102.5 32q72 0 111 -37t58.5 -81.5t28 -81.5t16.5 -37q48 0 114 46.5t127 102t103 102.5 t39 47q-5 3 -21.5 -5t-40.5 -17t-50.5 -19t-50.5 -10q-20 0 -50 19t-64.5 42t-73 41t-81.5 18q-76 0 -175 -39.5t-186.5 -110.5t-147.5 -166.5t-60 -210.5v-852q0 -77 -21.5 -135.5t-47 -98t-45.5 -61t-15 -26.5z" />
<glyph unicode="&#xa6;" horiz-adv-x="287" d="M0 -138l183 92v836l-183 -92v-836zM0 1134l183 93v836l-183 -92v-837z" />
<glyph unicode="&#xa8;" horiz-adv-x="1037" d="M18 1296q0 -10 8 -10t21.5 9.5t26.5 9.5t28 -13.5t34 -30t45.5 -29.5t65.5 -13q38 0 72.5 15t59.5 36t41.5 46.5t16.5 47.5q0 5 -17.5 -2t-46.5 -7q-45 0 -76 17.5t-53.5 37.5t-34 37t-21.5 17t-26 -16l-132 -132q-10 -11 -12 -20zM498 1296q0 -10 8 -10t21.5 9.5 t26.5 9.5t28 -13.5t33 -30t44.5 -29.5t67.5 -13q37 0 71.5 15t60 36t41.5 46.5t16 47.5q0 5 -17.5 -2t-46.5 -7q-46 0 -76.5 17.5t-52.5 37.5t-34.5 37t-20.5 17q-10 0 -26 -16l-134 -132q-10 -11 -10 -20z" />
<glyph unicode="&#xa9;" horiz-adv-x="1024" d="M0 1384q0 -106 39.5 -199t109 -162.5t162.5 -109t200 -39.5t199.5 39.5t162 109t109.5 162.5t40 199q0 107 -40 200t-109.5 162.5t-162 109t-199.5 39.5t-200 -39.5t-162.5 -109t-109 -162.5t-39.5 -200zM53 1384q0 97 36 179.5t99 145t145 98t178 35.5t178.5 -35.5 t145 -98t98 -145t35.5 -179.5q0 -96 -35.5 -178.5t-98 -145t-145 -98t-178.5 -35.5t-178 35.5t-145 98t-99 145t-36 178.5zM205 1382q0 -163 81.5 -263t206.5 -100q74 0 128.5 26.5t89 58.5t49.5 59t7 27l-21 -19q-22 -18 -47.5 -38t-47 -30.5t-21.5 2.5v508q33 0 75.5 27 t42.5 72q0 8 -1.5 18.5t-4.5 10.5q-5 0 -24.5 -22.5t-64.5 -22.5q-24 0 -36.5 17t-30.5 17q-10 0 -21 -9t-22 -17l-208 -208l8 -8l76 75v-357q0 -26 -4.5 -39.5t-2.5 -13.5q16 0 43 36t27 76v361l34 35q13 -10 43 -29t59 -19v-508q0 -18 -23 -21.5t-33 -3.5q-74 0 -127.5 27 t-88 71t-52 104t-17.5 123q0 82 25.5 138.5t56 91t53 52t17.5 23.5q-3 2 -39 -13t-77 -53t-74.5 -102t-33.5 -160z" />
<glyph unicode="&#xaa;" horiz-adv-x="531" d="M0 1062h439l32 33h-439zM13 1243q0 -43 22.5 -82.5t76.5 -39.5q26 0 58.5 22.5t60.5 49t47.5 51t21.5 26.5q0 -5 1.5 -30.5t6 -53.5t13.5 -52t27 -24q3 0 25.5 16.5t48 36t46 37t20.5 19.5q0 6 -21.5 -4.5t-42.5 -10.5q-16 0 -28 9t-12 41v296q5 2 30 19.5t55.5 43 t30.5 43.5q0 5 -7.5 11.5t-12.5 6.5q-13 0 -19 -14t-11 -34q-5 -13 -14.5 -23.5t-28.5 -10.5q-13 0 -19.5 14.5t-14.5 33.5t-19 33t-29 14q-5 0 -20 -18t-39 -42t-56 -43t-72 -19q-3 0 10.5 24t13.5 52q0 43 -53 41q-53 0 -53 -50q0 -54 40 -93l102 -101q-24 0 -56.5 -14 t-60.5 -38.5t-48 -61t-20 -81.5zM94 1310q0 46 33 78t68 32q21 0 30 -5t12 2q5 0 -8 13l-107 107q-8 7 3 7q23 0 48 8t43 19t31.5 19t18.5 8q16 0 25 -14t9 -32v-258q-2 -3 -19 -24t-47.5 -46t-60.5 -25q-38 0 -58.5 33t-20.5 78z" />
<glyph unicode="&#xab;" horiz-adv-x="1423" d="M13 330l48 -21q48 -22 125.5 -60t175.5 -93t200 -118l271 61q-85 56 -175.5 104t-163.5 82.5t-120 52.5l-46 18q82 13 147.5 36t117.5 63t94 97.5t85 136.5l-261 -31q-18 -56 -51.5 -108t-92 -93.5t-145.5 -75t-209 -51.5zM636 359l65 -21q66 -21 152.5 -61t173 -97.5 t131.5 -131.5l255 59q-43 69 -114.5 124.5t-140.5 94.5t-119 59l-51 19q86 35 142.5 65.5t94 66.5t59 79t37.5 101l-282 -48q-11 -53 -31 -91.5t-63 -73.5t-115.5 -68t-193.5 -76z" />
<glyph unicode="&#xad;" horiz-adv-x="819" d="M56 623q5 -5 15.5 2.5t32 20t60.5 21.5t100 9h244q51 0 98 36t82.5 80t55.5 81t12 40t-20 -5t-31 -18.5t-50.5 -19.5t-79.5 -9h-283q-42 0 -87 -36.5t-79.5 -79t-54.5 -81.5t-15 -41z" />
<glyph unicode="&#xae;" horiz-adv-x="1024" d="M0 1384q0 -106 39.5 -199t109 -162.5t162.5 -109t200 -39.5t199.5 39.5t162 109t109.5 162.5t40 199q0 107 -40 200t-109.5 162.5t-162 109t-199.5 39.5t-200 -39.5t-162.5 -109t-109 -162.5t-39.5 -200zM53 1384q0 97 36 179.5t99 145t145 98t178 35.5t178.5 -35.5 t145 -98t98 -145t35.5 -179.5q0 -96 -35.5 -178.5t-98 -145t-145 -98t-178.5 -35.5t-178 35.5t-145 98t-99 145t-36 178.5zM216 1585q0 -19 2 -20l6 11q5 11 14 23t24 22.5t38 10.5q33 0 58.5 -16t25.5 -53v-136l-11 3q-10 3 -32 3q-64 0 -64 -67q0 -40 8 -40q2 0 10 24 t48 24q41 0 41 -30v-165q-46 0 -88 -33t-42 -66v-8q5 0 34 28t90 28q33 0 55 -9t38.5 -18t24 -19t10.5 -10q2 0 18.5 12.5t36 27t35.5 28t16 18.5q0 3 -5 3q-13 0 -22.5 -10.5t-33.5 -10.5q-2 0 -19.5 8t-25.5 13v191q0 8 22.5 20t43.5 12q18 0 32 -18.5t25 -48t17.5 -64 t11.5 -66t22.5 -70.5t43.5 -39q3 0 16.5 9.5t29 22.5t28 25.5t12.5 17.5t-7 5q-5 0 -11.5 -6.5t-16.5 -6.5q-16 0 -25.5 19.5t-18.5 47.5t-17 62t-18 60q-14 30 -45 56.5t-31 31.5l19 12t41.5 32t41 46.5t18.5 55.5q0 8 -5.5 30.5t-16 44t-25 39t-33.5 17.5q-13 0 -20 -9 l-134 -82v74q0 5 2 5q6 0 6 15q2 13 -8.5 10.5t-10.5 -16.5v-93l-58 -38q0 13 -2.5 36t-13.5 45.5t-32 39t-59 16.5t-58.5 -14t-34 -32t-17.5 -38t-4 -33zM437 1179v347q0 11 14 24t28 19.5t16 6.5v-410q-5 3 -25 8t-33 5zM506 1392v190l98 59q3 2 14.5 -5t24 -20t21.5 -32 t9 -42q0 -35 -20 -64.5t-44.5 -49.5t-51.5 -32t-41 -12q-10 0 -10 8z" />
<glyph unicode="&#xaf;" horiz-adv-x="1024" d="M107 1201h625l187 93h-627z" />
<glyph unicode="&#xb0;" horiz-adv-x="798" d="M216 1339q0 -77 53 -130t130 -53q40 0 73.5 17t57.5 43.5t35.5 60t11.5 65.5q0 23 -11.5 53t-34.5 54t-54.5 39.5t-72.5 15.5q-45 0 -79.5 -15.5t-58.5 -39.5t-37 -53.5t-13 -56.5zM264 1372q0 29 32 67.5t80 38.5q35 0 63.5 -20t47.5 -48t30 -58.5t11 -55.5 q0 -51 -35 -80t-94 -29q-23 0 -47 17.5t-44.5 44t-32 58.5t-11.5 65z" />
<glyph unicode="&#xb2;" horiz-adv-x="638" d="M0 988q0 -35 16 -35q20 0 28.5 32t34.5 59q19 16 51 28t88 12q38 0 74 -19t66.5 -43t53 -42.5t33.5 -18.5q5 0 33 22.5t58.5 52t56 58.5t25.5 42q0 11 -11 12q-13 0 -22.5 -7t-17.5 -16.5t-18.5 -16t-27.5 -6.5q-32 0 -57 9.5t-47.5 21.5t-46.5 21.5t-55 9.5 q-49 0 -91.5 -12t-73 -24.5t-47.5 -22.5t-17 -5q0 71 50 127t119.5 108t142.5 104t118 118q30 46 43 80.5t19 59.5t7 41.5t7 24.5q10 15 29 20.5t19 15.5q0 8 -15 9q-13 0 -38 5.5t-65 19.5t-90 47q-43 26 -68.5 54t-40 48t-23 33.5t-18.5 13.5q-8 0 -13 -24t-15 -55.5 t-30.5 -65.5t-63.5 -52q-53 -21 -101.5 -18.5t-48.5 -2.5q0 -11 32 -40.5t85 -29.5q43 0 90 20t84 44t61 44t27 20l58 -35q18 -8 25.5 -26.5t7.5 -42.5q0 -63 -36.5 -121.5t-88.5 -112t-106 -103t-92 -94.5q-32 -40 -60 -90.5t-51 -99.5t-34.5 -92t-11.5 -64z" />
<glyph unicode="&#xb3;" horiz-adv-x="824" d="M104 1136q0 -13 39.5 -7.5t93.5 -20.5q53 -30 79.5 -68.5t42.5 -38.5q8 0 19 10.5t29.5 28t46.5 37.5t70 36q23 8 54.5 10.5t58 3.5t45.5 4t21.5 11t-7.5 16t-21.5 14.5t-20.5 16.5t-9 23v167q0 19 6.5 28.5t15.5 13.5t15.5 5t6.5 7q0 5 -37 31.5t-80.5 54.5t-81.5 51 l-38 22l35 21q34 21 93 21q35 0 59 -5t24 0q0 21 -10.5 32t-10.5 33v153q0 11 8 19.5t17 12t17 7.5t8 9q0 8 -11 8q-8 0 -28 4t-49 13.5t-68 38.5q-43 30 -67 52.5t-36 37t-17.5 21t-13.5 6.5t-14.5 -19.5t-21.5 -43.5t-40.5 -44t-66.5 -20q-35 0 -73.5 12t-38.5 6 q0 -8 10.5 -27.5t28 -38.5t44 -34t57.5 -15q41 0 78 16.5t67.5 34t50.5 31.5l20 15l46 -34v-243l-45 -23q-44 -23 -97 -56t-97 -69t-44 -60q0 -11 11 -11q5 0 20 14t32 29.5t34.5 25t30.5 0.5l160 -112v-249l-104 -38l-18 14q-17 13 -43 29t-62.5 29.5t-72.5 13.5 q-72 0 -111 -30t-39 -43z" />
<glyph unicode="&#xb4;" horiz-adv-x="798" d="M261 1217q5 -8 54.5 2.5t109.5 41t117 77t81 110.5l-125 102q-24 -80 -65.5 -140.5t-81 -100t-67.5 -62t-23 -30.5z" />
<glyph unicode="&#xb7;" horiz-adv-x="447" d="M32 1070q46 -86 91 -123.5t53 -24.5q32 50 58.5 76t43.5 38.5t27 18t7 12.5q-3 11 -7.5 14t-17.5 13.5t-38 38.5t-71 86q-5 8 -30.5 -12t-52 -48t-48 -54.5t-15.5 -34.5z" />
<glyph unicode="&#xb8;" horiz-adv-x="798" d="M292 -346q-5 -2 23 -5t67 -1.5t80 10.5t62.5 34.5t13.5 67.5t-67 110q-46 53 -46.5 82.5t12.5 38.5t15 9h-117q-29 -30 -23.5 -54.5t24 -51.5t41 -52t28 -54.5t-17 -63t-95.5 -70.5z" />
<glyph unicode="&#xb9;" horiz-adv-x="838" d="M226 1092q0 -3 32 5t80 10.5t104 -10.5t104 -56q3 -2 27 18.5t52 47.5t50.5 49.5t22.5 25.5q0 10 -6 11q-13 0 -25 -20t-25 -20q-10 0 -40 15.5t-66 24.5v740q0 51 -14 83t-29.5 50.5t-29 25t-16.5 6.5q-5 0 -25 -24t-74 -75q-50 -53 -79.5 -67t-29.5 -24q0 -5 6 -9 t6 -22q0 -13 -2 -25l-2 -12q23 0 45.5 20t38 42.5t29 42t26.5 19.5t36 -20.5t23 -81.5v-656q-43 0 -83 -13.5t-69 -30.5t-48 -37t-19 -33z" />
<glyph unicode="&#xba;" horiz-adv-x="526" d="M0 1062h442l32 33h-442zM5 1166l18 4q17 4 30 4q26 0 49 -12t39 -28t26.5 -27.5t13.5 -11.5q2 0 30 15.5t68.5 35.5t84 36.5t78.5 16.5q18 0 45 -1.5t27 3.5q0 8 -10.5 14.5t-24.5 14.5t-24 17.5t-10 22.5v274l11 11q12 10 27 23.5t26.5 25.5t11.5 17l-29 -1 q-29 -2 -50 9q-35 15 -60.5 44t-33.5 29q-5 0 -22 -15t-49.5 -32t-78.5 -32t-112 -15q-11 0 -29 1l-19 2q0 -13 19.5 -30.5t19.5 -46.5v-261q0 -21 -10.5 -37.5t-25.5 -28t-25.5 -21.5t-10.5 -20zM160 1262v301q0 20 28 35t54 15q21 0 43 -10.5t39 -22.5t28 -23l11 -10v-317 q0 -13 -11 -22t-24 -17.5t-27 -12.5t-19 -4t-25 9.5t-41 22.5t-38.5 28t-17.5 28z" />
<glyph unicode="&#xbb;" horiz-adv-x="1487" d="M99 640q43 -69 114.5 -125.5t141 -95t119.5 -58.5l50 -20q-86 -35 -142.5 -66t-93.5 -66.5t-59 -78t-38 -100.5l283 47q11 50 30.5 90.5t62.5 75t116.5 67.5t192.5 76l-65 22q-66 21 -152.5 60.5t-174.5 97t-130 132.5zM679 647q85 -55 175.5 -103.5t164 -83t119.5 -52.5 l46 -19q-86 -13 -149 -36t-115 -62.5t-94.5 -97.5t-85.5 -137l261 32q18 56 52 107.5t91 93t143.5 73.5t211.5 53l-48 21q-48 22 -125 61t-175.5 93.5t-200.5 117.5z" />
<glyph unicode="&#xbc;" horiz-adv-x="838" d="M16 216q0 -21 17.5 -32t45.5 -11h350v-221q-21 0 -48 -9t-50.5 -23t-40 -27t-16.5 -23l22 6q21 7 55 7q35 0 60.5 -10.5t42.5 -22.5t25.5 -22.5t13.5 -10.5q2 0 23.5 20.5t47 44.5t46.5 46l20 21h-10q-5 0 -14 -9t-20 -9q-8 0 -26.5 5.5t-40.5 10.5v226h192l-25 15h-167 v518q2 0 17 8t32.5 24t30.5 37t13 48h-2q-8 0 -28 -17.5t-39 -17.5q-20 0 -32.5 13.5t-21.5 28t-17.5 28t-19.5 13.5q-13 0 -27.5 -16.5t-38.5 -53.5l-335 -511q-16 -21 -25.5 -37t-9.5 -37zM48 871q5 -5 24 10.5t80 15.5h521q24 0 48 17.5t43 40.5t28 41t6 21 q-10 2 -25.5 -12t-64.5 -14h-540q-21 0 -44 -19t-41.5 -40.5t-27.5 -39.5t-7 -21zM99 280q0 18 9 48.5t22 57.5l229 343l20 -15q20 -16 50 -16v-510h-251q-53 0 -66 31.5t-13 60.5zM211 1092q0 -3 31.5 5t79.5 10.5t104 -10.5t104 -56q3 -2 26.5 18.5t51.5 47.5t50.5 49.5 t22.5 25.5q0 10 -5 11q-13 0 -24.5 -20t-26.5 -20q-10 0 -39.5 15.5t-66.5 24.5v740q0 51 -13 83t-29.5 50.5t-29.5 25t-15 6.5q-6 0 -26 -24t-73 -75q-51 -53 -80 -67t-29 -24q0 -5 5 -9t5 -22q0 -13 -1 -25l-2 -12q24 0 45.5 20t37.5 42.5t29 42t27 19.5t36.5 -20.5 t22.5 -81.5v-656q-43 0 -82.5 -13.5t-69.5 -30.5t-48 -37t-18 -33z" />
<glyph unicode="&#xbd;" horiz-adv-x="872" d="M48 871q5 -5 24 10.5t80 15.5h521q24 0 48 17.5t43 40.5t28 41t6 21q-10 2 -25.5 -12t-64.5 -14h-540q-21 0 -44 -19t-41.5 -40.5t-27.5 -39.5t-7 -21zM91 -173q0 -35 16 -35q20 0 28.5 32t34.5 59q18 16 51 28t88 12q38 0 74 -18.5t66.5 -42.5t52.5 -43t34 -19 q5 0 33 22.5t58.5 52t55.5 58.5t25 44q0 10 -10 10q-13 0 -22.5 -6.5t-17.5 -16.5t-19 -16t-27 -6q-32 0 -57 9t-47.5 21t-46.5 21.5t-57 9.5q-48 0 -90 -12t-72.5 -24.5t-48 -22.5t-17.5 -5q0 71 50.5 127t119.5 108t142.5 104t118.5 118q30 46 43 80.5t18 60t6.5 41.5 t6.5 24q11 16 29.5 21t18.5 17q0 7 -13 7t-38 5.5t-65.5 19.5t-91.5 47q-43 26 -67.5 54t-39.5 48t-22.5 33.5t-18.5 13.5q-8 0 -13.5 -24t-15 -55.5t-31 -65.5t-62.5 -52q-53 -21 -101.5 -18.5t-48.5 -2.5q0 -10 32 -40t85 -30q43 0 89.5 20t84 44t61.5 44t27 20l58 -35 q18 -7 24.5 -26t6.5 -43q0 -63 -35.5 -121.5t-87.5 -112t-106.5 -103t-92.5 -94.5q-33 -40 -60 -90.5t-50 -99.5t-34.5 -92t-11.5 -64zM226 1092q0 -3 32 5t80 10.5t104 -10.5t104 -56q3 -2 27 18.5t52 47.5t50.5 49.5t22.5 25.5q0 10 -6 11q-13 0 -25 -20t-25 -20 q-10 0 -40 15.5t-66 24.5v740q0 51 -14 83t-29.5 50.5t-29 25t-16.5 6.5q-5 0 -25 -24t-74 -75q-50 -53 -79.5 -67t-29.5 -24q0 -5 6 -9t6 -22q0 -13 -2 -25l-2 -12q23 0 45.5 20t38 42.5t29 42t26.5 19.5t36 -20.5t23 -81.5v-656q-43 0 -83 -13.5t-69 -30.5t-48 -37 t-19 -33z" />
<glyph unicode="&#xbe;" horiz-adv-x="1240" d="M35 216q0 -21 17 -32t47 -11h348v-221q-21 0 -47.5 -9t-50.5 -23t-40.5 -27t-16.5 -23l22 6q21 7 56 7q36 0 60.5 -10.5t42 -22.5t25.5 -22.5t13 -10.5q3 0 24 20.5t46.5 44.5t47.5 46l21 21h-10q-6 0 -15.5 -9t-20.5 -9q-7 0 -26 5.5t-40 10.5v226h191l-23 15h-168v518 q3 0 17 8t31.5 24t30.5 37t13 48h-2q-8 0 -28 -17.5t-38 -17.5q-21 0 -33.5 13.5t-21.5 28t-17 28t-19 13.5q-13 0 -27.5 -16.5t-39.5 -53.5l-335 -511q-16 -21 -25 -37t-9 -37zM48 871q5 -5 24 10.5t80 15.5h521q24 0 48 17.5t43 40.5t28 41t6 21q-10 2 -25.5 -12 t-64.5 -14h-540q-21 0 -44 -19t-41.5 -40.5t-27.5 -39.5t-7 -21zM104 1136q0 -13 39.5 -7.5t93.5 -20.5q53 -30 79.5 -68.5t42.5 -38.5q8 0 19 10.5t29.5 28t46.5 37.5t70 36q23 8 54.5 10.5t58 3.5t45.5 4t21.5 11t-7.5 16t-21.5 14.5t-20.5 16.5t-9 23v167q0 19 6.5 28.5 t15.5 13.5t15.5 5t6.5 7q0 5 -37 31.5t-80.5 54.5t-81.5 51l-38 22l35 21q34 21 93 21q35 0 59 -5t24 0q0 21 -10.5 32t-10.5 33v153q0 11 8 19.5t17 12t17 7.5t8 9q0 8 -11 8q-8 0 -28 4t-49 13.5t-68 38.5q-43 30 -67 52.5t-36 37t-17.5 21t-13.5 6.5t-14.5 -19.5 t-21.5 -43.5t-40.5 -44t-66.5 -20q-35 0 -73.5 12t-38.5 6q0 -8 10.5 -27.5t28 -38.5t44 -34t57.5 -15q41 0 78 16.5t67.5 34t50.5 31.5l20 15l46 -34v-243l-45 -23q-44 -23 -97 -56t-97 -69t-44 -60q0 -11 11 -11q5 0 20 14t32 29.5t34.5 25t30.5 0.5l160 -112v-249 l-104 -38l-18 14q-17 13 -43 29t-62.5 29.5t-72.5 13.5q-72 0 -111 -30t-39 -43zM117 280q0 18 9 48.5t24 57.5l228 343l20 -15q21 -16 49 -16v-510h-249q-54 0 -67.5 31.5t-13.5 60.5z" />
<glyph unicode="&#xbf;" horiz-adv-x="811" d="M23 186q0 -77 31.5 -139.5t99 -105t175.5 -65.5t265 -23q8 0 34.5 41.5t54.5 89.5t46.5 89t12.5 41q-10 0 -44.5 -6.5t-78.5 -13t-87.5 -13.5t-71.5 -7q-147 0 -201 62t-54 162q0 91 36 205.5t79 234t78.5 238.5t35.5 217q0 21 -1 38.5t-4 36.5q0 10 -12.5 14t-25.5 2.5 t-24 -8t-11 -16.5q0 -155 -51 -298.5t-114.5 -278t-115.5 -259t-52 -238.5zM295 1603q0 -8 16.5 -34.5t39 -53.5t48 -48t40.5 -21l21 31q20 32 33 45q30 33 56 46.5t26 26.5q0 11 -28 31t-49 46.5t-33.5 50t-22.5 23.5t-34 -18t-49.5 -42.5t-44.5 -48.5t-19 -34z" />
<glyph unicode="&#xc0;" horiz-adv-x="1969" d="M0 -21q0 -2 13 -2q5 0 25 9t48 18t64 18.5t76 9.5q82 0 155.5 -26.5t127 -60t87.5 -60.5t44 -27q2 0 25.5 19t58.5 45.5t72 60t69 61.5t53.5 48t21.5 22q0 8 -8 8q-13 0 -32 -9t-39 -18t-37 -19t-26 -10q-10 0 -47 15t-93 33.5t-129.5 33t-158.5 14.5l192 440h772 l216 -722q10 -32 48 -32q40 0 98.5 37.5t113 81t93 82.5t38.5 45q0 2 -10.5 -5t-28 -17.5t-37.5 -18t-36 -7.5q-23 0 -46 16.5t-40 72.5l-526 1649v175l-165 -61q-26 5 -88 25.5t-179 20.5q-99 0 -161 -48.5t-96.5 -107t-45.5 -106.5t-5 -48q5 0 23.5 21.5t51 47t77 47 t100.5 21.5q59 0 103 -16.5t71 -40.5t36 -50t1 -51l-96 -221l-22 7q-21 6 -54.5 16t-77 17.5t-86.5 7.5q-37 0 -75.5 -9t-69 -31.5t-50.5 -61.5t-20 -98q0 -13 1 -33t2.5 -39.5t5.5 -33t9 -13.5q3 0 14 24t35 53t61 53t93 24t95.5 -17.5t39.5 -61.5q0 -16 -2.5 -33.5 t-13.5 -44.5l-414 -956q-43 0 -98 -22.5t-103 -52t-81 -60t-33 -48.5zM628 757l314 731q11 24 30 50.5t34 26.5q16 0 36 -26.5t28 -50.5l218 -731h-660zM716 2226q24 -64 81 -111t117.5 -77.5t109 -41t54.5 -2.5t-20.5 31t-67 62.5t-82.5 100t-67 139.5z" />
<glyph unicode="&#xc1;" horiz-adv-x="1862" d="M0 -21q0 -2 13 -2q5 0 25 9t48 18t64 18.5t76 9.5q82 0 155.5 -26.5t127 -60t87.5 -60.5t44 -27q2 0 25.5 19t58.5 45.5t72 60t69 61.5t53.5 48t21.5 22q0 8 -8 8q-13 0 -32 -9t-39 -18t-37 -19t-26 -10q-10 0 -47 15t-93 33.5t-129.5 33t-158.5 14.5l192 440h772 l216 -722q10 -32 48 -32q40 0 98.5 37.5t113 81t93 82.5t38.5 45q0 2 -10.5 -5t-28 -17.5t-37.5 -18t-36 -7.5q-23 0 -46 16.5t-40 72.5l-526 1649v175l-165 -61q-26 5 -88 25.5t-179 20.5q-99 0 -161 -48.5t-96.5 -107t-45.5 -106.5t-5 -48q5 0 23.5 21.5t51 47t77 47 t100.5 21.5q59 0 103 -16.5t71 -40.5t36 -50t1 -51l-96 -221l-22 7q-21 6 -54.5 16t-77 17.5t-86.5 7.5q-37 0 -75.5 -9t-69 -31.5t-50.5 -61.5t-20 -98q0 -13 1 -33t2.5 -39.5t5.5 -33t9 -13.5q3 0 14 24t35 53t61 53t93 24t95.5 -17.5t39.5 -61.5q0 -16 -2.5 -33.5 t-13.5 -44.5l-414 -956q-43 0 -98 -22.5t-103 -52t-81 -60t-33 -48.5zM628 757l314 731q11 24 30 50.5t34 26.5q16 0 36 -26.5t28 -50.5l218 -731h-660zM916 1989q6 -8 54.5 2.5t109 41t117.5 77.5t81 110l-125 102q-23 -80 -65 -140t-82 -100t-67.5 -62.5t-22.5 -30.5z" />
<glyph unicode="&#xc2;" horiz-adv-x="1862" d="M0 -21q0 -2 13 -2q5 0 25 9t48 18t64 18.5t76 9.5q82 0 155.5 -26.5t127 -60t87.5 -60.5t44 -27q2 0 25.5 19t58.5 45.5t72 60t69 61.5t53.5 48t21.5 22q0 8 -8 8q-13 0 -32 -9t-39 -18t-37 -19t-26 -10q-10 0 -47 15t-93 33.5t-129.5 33t-158.5 14.5l192 440h772 l216 -722q10 -32 48 -32q40 0 98.5 37.5t113 81t93 82.5t38.5 45q0 2 -10.5 -5t-28 -17.5t-37.5 -18t-36 -7.5q-23 0 -46 16.5t-40 72.5l-526 1649v175l-165 -61q-26 5 -88 25.5t-179 20.5q-99 0 -161 -48.5t-96.5 -107t-45.5 -106.5t-5 -48q5 0 23.5 21.5t51 47t77 47 t100.5 21.5q59 0 103 -16.5t71 -40.5t36 -50t1 -51l-96 -221l-22 7q-21 6 -54.5 16t-77 17.5t-86.5 7.5q-37 0 -75.5 -9t-69 -31.5t-50.5 -61.5t-20 -98q0 -13 1 -33t2.5 -39.5t5.5 -33t9 -13.5q3 0 14 24t35 53t61 53t93 24t95.5 -17.5t39.5 -61.5q0 -16 -2.5 -33.5 t-13.5 -44.5l-414 -956q-43 0 -98 -22.5t-103 -52t-81 -60t-33 -48.5zM628 757l314 731q11 24 30 50.5t34 26.5q16 0 36 -26.5t28 -50.5l218 -731h-660zM764 2023l24 -24l200 201q3 -6 30.5 -45t77 -89.5t94.5 -68.5l70 69q-30 8 -70 44t-75 76t-58 73l-23 33z" />
<glyph unicode="&#xc3;" horiz-adv-x="1855" d="M0 -21q0 -2 13 -2q5 0 25 9t48 18t64 18.5t76 9.5q82 0 155.5 -26.5t127 -60t87.5 -60.5t44 -27q2 0 25.5 19t58.5 45.5t72 60t69 61.5t53.5 48t21.5 22q0 8 -8 8q-13 0 -32 -9t-39 -18t-37 -19t-26 -10q-10 0 -47 15t-93 33.5t-129.5 33t-158.5 14.5l192 440h772 l216 -722q10 -32 48 -32q40 0 98.5 37.5t113 81t93 82.5t38.5 45q0 2 -10.5 -5t-28 -17.5t-37.5 -18t-36 -7.5q-23 0 -46 16.5t-40 72.5l-526 1649v175l-165 -61q-26 5 -88 25.5t-179 20.5q-99 0 -161 -48.5t-96.5 -107t-45.5 -106.5t-5 -48q5 0 23.5 21.5t51 47t77 47 t100.5 21.5q59 0 103 -16.5t71 -40.5t36 -50t1 -51l-96 -221l-22 7q-21 6 -54.5 16t-77 17.5t-86.5 7.5q-37 0 -75.5 -9t-69 -31.5t-50.5 -61.5t-20 -98q0 -13 1 -33t2.5 -39.5t5.5 -33t9 -13.5q3 0 14 24t35 53t61 53t93 24t95.5 -17.5t39.5 -61.5q0 -16 -2.5 -33.5 t-13.5 -44.5l-414 -956q-43 0 -98 -22.5t-103 -52t-81 -60t-33 -48.5zM628 757l314 731q11 24 30 50.5t34 26.5q16 0 36 -26.5t28 -50.5l218 -731h-660zM660 1989q3 -3 17.5 7.5t39.5 24t61.5 24t82.5 10.5q48 0 75 -6.5t47.5 -14t39 -15t47.5 -7.5q53 0 98.5 32t77.5 71 t49.5 72t15 36t-16.5 -7.5t-38 -23t-57 -23t-73 -10.5q-38 0 -60 6.5t-42 16.5t-44 16.5t-61 6.5q-61 0 -110.5 -32t-84.5 -72.5t-50.5 -74.5t-13.5 -37z" />
<glyph unicode="&#xc4;" horiz-adv-x="1855" d="M0 -21q0 -2 13 -2q5 0 25 9t48 18t64 18.5t76 9.5q82 0 155.5 -26.5t127 -60t87.5 -60.5t44 -27q2 0 25.5 19t58.5 45.5t72 60t69 61.5t53.5 48t21.5 22q0 8 -8 8q-13 0 -32 -9t-39 -18t-37 -19t-26 -10q-10 0 -47 15t-93 33.5t-129.5 33t-158.5 14.5l192 440h772 l216 -722q10 -32 48 -32q40 0 98.5 37.5t113 81t93 82.5t38.5 45q0 2 -10.5 -5t-28 -17.5t-37.5 -18t-36 -7.5q-23 0 -46 16.5t-40 72.5l-526 1649v175l-165 -61q-26 5 -88 25.5t-179 20.5q-99 0 -161 -48.5t-96.5 -107t-45.5 -106.5t-5 -48q5 0 23.5 21.5t51 47t77 47 t100.5 21.5q59 0 103 -16.5t71 -40.5t36 -50t1 -51l-96 -221l-22 7q-21 6 -54.5 16t-77 17.5t-86.5 7.5q-37 0 -75.5 -9t-69 -31.5t-50.5 -61.5t-20 -98q0 -13 1 -33t2.5 -39.5t5.5 -33t9 -13.5q3 0 14 24t35 53t61 53t93 24t95.5 -17.5t39.5 -61.5q0 -16 -2.5 -33.5 t-13.5 -44.5l-414 -956q-43 0 -98 -22.5t-103 -52t-81 -60t-33 -48.5zM569 2109q0 -11 8 -11t21.5 9t26.5 9t28 -13t34 -29t45.5 -29t65.5 -13q38 0 72.5 14t60 35.5t41.5 47t16 46.5q0 5 -17.5 -1.5t-46.5 -6.5q-45 0 -75.5 17.5t-53.5 37t-35 37t-20 17.5q-11 0 -26 -15 l-134 -134q-11 -11 -11 -18zM628 757l314 731q11 24 30 50.5t34 26.5q16 0 36 -26.5t28 -50.5l218 -731h-660zM1049 2109q0 -11 8 -11t21.5 9t26.5 9t28 -13t33 -29t45 -29t67 -13q38 0 72 14t59.5 35.5t41 47t15.5 46.5q0 5 -16.5 -1.5t-46.5 -6.5q-46 0 -76.5 17.5 t-52.5 37t-34.5 37t-20.5 17.5q-10 0 -26 -15l-133 -134q-11 -11 -11 -18z" />
<glyph unicode="&#xc5;" horiz-adv-x="1855" d="M0 -21q0 -2 13 -2q5 0 25 9t48 18t64 18.5t76 9.5q82 0 155.5 -26.5t127 -60t87.5 -60.5t44 -27q2 0 25.5 19t58.5 45.5t72 60t69 61.5t53.5 48t21.5 22q0 8 -8 8q-13 0 -32 -9t-39 -18t-37 -19t-26 -10q-10 0 -47 15t-93 33.5t-129.5 33t-158.5 14.5l192 440h772 l216 -722q10 -32 48 -32q40 0 98.5 37.5t113 81t93 82.5t38.5 45q0 2 -10.5 -5t-28 -17.5t-37.5 -18t-36 -7.5q-23 0 -46 16.5t-40 72.5l-526 1649v175l-165 -61q-26 5 -88 25.5t-179 20.5q-99 0 -161 -48.5t-96.5 -107t-45.5 -106.5t-5 -48q5 0 23.5 21.5t51 47t77 47 t100.5 21.5q59 0 103 -16.5t71 -40.5t36 -50t1 -51l-96 -221l-22 7q-21 6 -54.5 16t-77 17.5t-86.5 7.5q-37 0 -75.5 -9t-69 -31.5t-50.5 -61.5t-20 -98q0 -13 1 -33t2.5 -39.5t5.5 -33t9 -13.5q3 0 14 24t35 53t61 53t93 24t95.5 -17.5t39.5 -61.5q0 -16 -2.5 -33.5 t-13.5 -44.5l-414 -956q-43 0 -98 -22.5t-103 -52t-81 -60t-33 -48.5zM628 757l314 731q11 24 30 50.5t34 26.5q16 0 36 -26.5t28 -50.5l218 -731h-660zM849 2164q0 -76 53.5 -129.5t131.5 -53.5q40 0 73 17t56.5 43.5t36 60t12.5 65.5q0 23 -12.5 53t-34.5 53.5t-54 40 t-72 16.5q-46 0 -80.5 -16.5t-58.5 -40t-37.5 -52.5t-13.5 -57zM897 2197q0 30 32 68.5t80 38.5q35 0 64 -20.5t48 -48.5t29.5 -58.5t10.5 -54.5q0 -51 -34.5 -80.5t-92.5 -29.5q-24 0 -48.5 18t-44 44.5t-32 58t-12.5 64.5z" />
<glyph unicode="&#xc6;" horiz-adv-x="2256" d="M0 -18q0 -13 10 -14q6 0 21 9.5t41.5 21t63.5 22.5t90 11q77 0 178.5 -36t235.5 -138l22 18q22 17 55.5 45t71 61.5t70.5 61.5t54.5 48t21.5 22q0 3 -2.5 8t-8.5 5q-13 0 -31.5 -9t-39 -20.5t-38 -21.5t-22.5 -10q-10 0 -43.5 15t-86.5 33.5t-128 33t-165 14.5l192 440 h772l142 -485q-8 0 -38 -24t-62 -56t-56 -60t-24 -35q0 -11 14 -11q6 0 22.5 10.5t38 24t45.5 24t45 10.5q48 0 93.5 -25.5t84 -57t66.5 -57t41 -25.5q5 0 40 19t86 48t108 63.5t104.5 67.5t80 58.5t32.5 35.5q0 16 -12 17q-5 0 -23 -11t-45 -24t-60.5 -24t-64.5 -11 q-38 0 -75 13.5t-70 30.5t-61 30.5t-48 13.5l-257 801q-5 13 10.5 25.5t43.5 20.5t63.5 13.5t70.5 5.5q48 0 73.5 -17.5t43.5 -44.5q21 -30 36 -56t50 -26q5 0 57 29t112 66.5t109.5 71t49.5 38.5q0 19 -22 19q-21 2 -54.5 -5.5t-63.5 -7.5q-32 0 -60.5 16.5t-56.5 38 t-59.5 39t-62.5 17.5q-53 0 -115.5 -29t-115.5 -65.5t-90 -65.5l-36 -29l-170 527l22 45q23 45 60 99.5t87.5 100t104.5 45.5q53 0 89.5 -30.5t72 -67.5t76.5 -67.5t102 -30.5q21 0 75 33t110 74t98 79t42 43q0 18 -31 18q-38 0 -73.5 -17.5t-88.5 -17.5q-56 0 -96.5 19 t-80 41.5t-85 41.5t-109.5 19q-101 0 -174 -60.5t-121 -132t-71 -131.5l-23 -60l-63 197v175l-165 -61q-3 0 -24.5 6.5t-54.5 15t-76 16.5t-87 8q-51 0 -101.5 -12t-96 -42.5t-81.5 -85t-54 -140.5q-5 -30 0 -30q3 0 22.5 21.5t53 47t77 47t99.5 21.5q59 0 103 -16.5 t71 -40.5t36 -50t1 -51l-96 -221l-20 7q-21 6 -52.5 14.5t-72.5 16.5t-84 8t-84 -9t-73 -34.5t-50.5 -70t-18.5 -112.5q0 -21 1 -56t6 -35q3 0 15.5 24t37.5 53t63.5 53t97.5 24q76 0 116.5 -33t2.5 -124l-414 -956q-41 0 -95.5 -24t-102.5 -54.5t-82.5 -59.5t-34.5 -42z M628 757l314 731q11 24 30 50.5t34 26.5q16 0 36 -26.5t28 -50.5l218 -731h-660z" />
<glyph unicode="&#xc7;" horiz-adv-x="1705" d="M32 851.5q11 -193.5 69.5 -358.5t164.5 -293t255 -200q89 -40 163.5 -58.5t110.5 -19.5t41 -1q-30 -30 -24 -55.5t24 -52t41 -52t28 -54.5t-17 -62.5t-95 -70.5q-5 -3 23 -5.5t67 -1.5t80 11t62 34.5t13.5 67.5t-66.5 109q-45 54 -46.5 83t11.5 39t16 10 q93 -5 183.5 26.5t172 81.5t149.5 113t113 119t64 95.5t6 47.5q-3 0 -34 -24t-75 -61t-94.5 -75.5t-93.5 -66t-71 -35t-28 19.5v1467q3 0 44.5 12.5t101.5 40.5t112 67.5t77.5 98t-7.5 131.5q-3 5 -18.5 -15t-47 -45.5t-82.5 -48.5t-117 -25q-33 0 -58 16t-48 36.5t-42.5 36 t-41.5 15.5q-26 0 -60 -27t-57 -50l-597 -597l22 -21l216 215v-1022q0 -32 -12 -53t-12 -53q-3 -51 29 -33.5t72 69.5t73.5 121t33.5 120v1036l98 98q33 -35 66.5 -55t79.5 -41q56 -26 100 -25t44 -2v-1491q0 -30 -80 -41t-194 2t-237 57t-208 131q-53 54 -102.5 131 t-88 171.5t-58.5 203.5t-12 229q8 168 48 294.5t93.5 217t112 151.5t103.5 100t69 63t11 37q-16 16 -61.5 -2.5t-106.5 -61.5t-132 -106.5t-133 -139.5t-110.5 -161t-63.5 -169q-43 -200 -32 -393.5z" />
<glyph unicode="&#xc8;" horiz-adv-x="1926" d="M0 1702q0 -72 23 -135t50.5 -106.5t50.5 -66t26 -20.5q2 3 -10.5 27t-26.5 59.5t-26.5 81t-12.5 90.5q0 20 10 50t28 58t44.5 47t61.5 19q51 0 94.5 -17.5t89 -39t99 -38.5t124.5 -17q104 0 176.5 35.5t114.5 82.5t59.5 88t15.5 49q-3 2 -15.5 -8.5t-41.5 -25 t-76.5 -27.5t-123.5 -13q-37 0 -84.5 15.5t-103.5 35.5t-117 36.5t-126 16.5q-46 0 -98.5 -17.5t-98 -53.5t-76 -88t-30.5 -118zM234 -181q16 0 52 37t104 81.5t177 81.5t274 37q130 0 235.5 -41t185.5 -89t129 -89.5t68 -41.5q10 0 60.5 39t109 86.5t105.5 89t47 46.5 q0 10 -10 10q-21 0 -37.5 -6.5t-30 -15.5t-29 -16t-36.5 -7q-13 0 -36.5 12.5t-49.5 29t-57 34t-60 30.5q-45 19 -74.5 30t-52 16t-39.5 9t-37 9v843q24 -14 41.5 -25t36.5 -29q16 -15 24 -31.5t15.5 -30t16 -21.5t21.5 -8q8 0 58.5 26.5t109 62.5t107 71t48.5 48 q0 16 -16 16q-21 0 -57.5 -9t-66.5 -9q-32 0 -59.5 16.5t-54 37t-54.5 38t-60 17.5q-33 0 -56.5 -5.5t-53.5 -19.5v216q0 32 18 44t18 37q0 23 -28 23q-13 0 -26 -8t-13 -27v-300q-21 -14 -50.5 -39t-96.5 -25q-18 0 -40.5 4t-22.5 30v444q0 54 22.5 100.5t57 81t78.5 54.5 t89 20q48 0 81 -30.5t65.5 -66t69.5 -66t90 -30.5q54 0 112.5 34.5t106.5 76.5t80 82.5t32 50.5q0 8 -12.5 4t-33.5 -13t-54.5 -17.5t-72.5 -8.5q-48 0 -88.5 20t-80 43t-82.5 43t-96 20q-72 0 -143.5 -30.5t-127.5 -85t-91 -128t-35 -156.5v-1352q-114 0 -213.5 -31 t-182 -75t-145.5 -97t-105.5 -97t-62.5 -74.5t-15 -30.5zM272 866q0 -69 20 -112t25 -43q3 0 7 21.5t18 45t41 45t75 21.5q45 0 75.5 -10.5t30.5 -48.5v-297q0 -64 -10.5 -112t-22.5 -79t-17 -38l-14 -25q6 0 45 15t83.5 47t82 82.5t37.5 119.5v841q0 59 9.5 98t21 62 t22.5 35.5t11 20.5q0 5 -39 -5.5t-85 -38.5t-85 -77.5t-39 -123.5v-291l-32 6t-67 6q-81 0 -137 -37.5t-56 -127.5zM798 2215q24 -63 81.5 -110t117.5 -77.5t109.5 -41t54.5 -2.5t-21.5 30.5t-66 62t-82.5 99.5t-67 141zM991 224v795q0 30 37 35.5t67 5.5q58 0 106 -14v-846 q-53 11 -105 17.5t-105 6.5z" />
<glyph unicode="&#xc9;" horiz-adv-x="1881" d="M0 1702q0 -72 23 -135t50.5 -106.5t50.5 -66t26 -20.5q2 3 -10.5 27t-26.5 59.5t-26.5 81t-12.5 90.5q0 20 10 50t28 58t44.5 47t61.5 19q51 0 94.5 -17.5t89 -39t99 -38.5t124.5 -17q104 0 176.5 35.5t114.5 82.5t59.5 88t15.5 49q-3 2 -15.5 -8.5t-41.5 -25 t-76.5 -27.5t-123.5 -13q-37 0 -84.5 15.5t-103.5 35.5t-117 36.5t-126 16.5q-46 0 -98.5 -17.5t-98 -53.5t-76 -88t-30.5 -118zM234 -181q16 0 52 37t104 81.5t177 81.5t274 37q130 0 235.5 -41t185.5 -89t129 -89.5t68 -41.5q10 0 60.5 39t109 86.5t105.5 89t47 46.5 q0 10 -10 10q-21 0 -37.5 -6.5t-30 -15.5t-29 -16t-36.5 -7q-13 0 -36.5 12.5t-49.5 29t-57 34t-60 30.5q-45 19 -74.5 30t-52 16t-39.5 9t-37 9v843q24 -14 41.5 -25t36.5 -29q16 -15 24 -31.5t15.5 -30t16 -21.5t21.5 -8q8 0 58.5 26.5t109 62.5t107 71t48.5 48 q0 16 -16 16q-21 0 -57.5 -9t-66.5 -9q-32 0 -59.5 16.5t-54 37t-54.5 38t-60 17.5q-33 0 -56.5 -5.5t-53.5 -19.5v216q0 32 18 44t18 37q0 23 -28 23q-13 0 -26 -8t-13 -27v-300q-21 -14 -50.5 -39t-96.5 -25q-18 0 -40.5 4t-22.5 30v444q0 54 22.5 100.5t57 81t78.5 54.5 t89 20q48 0 81 -30.5t65.5 -66t69.5 -66t90 -30.5q54 0 112.5 34.5t106.5 76.5t80 82.5t32 50.5q0 8 -12.5 4t-33.5 -13t-54.5 -17.5t-72.5 -8.5q-48 0 -88.5 20t-80 43t-82.5 43t-96 20q-72 0 -143.5 -30.5t-127.5 -85t-91 -128t-35 -156.5v-1352q-114 0 -213.5 -31 t-182 -75t-145.5 -97t-105.5 -97t-62.5 -74.5t-15 -30.5zM272 866q0 -69 20 -112t25 -43q3 0 7 21.5t18 45t41 45t75 21.5q45 0 75.5 -10.5t30.5 -48.5v-297q0 -64 -10.5 -112t-22.5 -79t-17 -38l-14 -25q6 0 45 15t83.5 47t82 82.5t37.5 119.5v841q0 59 9.5 98t21 62 t22.5 35.5t11 20.5q0 5 -39 -5.5t-85 -38.5t-85 -77.5t-39 -123.5v-291l-32 6t-67 6q-81 0 -137 -37.5t-56 -127.5zM991 224v795q0 30 37 35.5t67 5.5q58 0 106 -14v-846q-53 11 -105 17.5t-105 6.5zM1087 2042q5 -8 54 2.5t109 41t117.5 77.5t80.5 111l-125 101 q-23 -79 -64.5 -139.5t-82 -100t-67.5 -62.5t-22 -31z" />
<glyph unicode="&#xca;" horiz-adv-x="1929" d="M0 1702q0 -72 23 -135t50.5 -106.5t50.5 -66t26 -20.5q2 3 -10.5 27t-26.5 59.5t-26.5 81t-12.5 90.5q0 20 10 50t28 58t44.5 47t61.5 19q51 0 94.5 -17.5t89 -39t99 -38.5t124.5 -17q104 0 176.5 35.5t114.5 82.5t59.5 88t15.5 49q-3 2 -15.5 -8.5t-41.5 -25 t-76.5 -27.5t-123.5 -13q-37 0 -84.5 15.5t-103.5 35.5t-117 36.5t-126 16.5q-46 0 -98.5 -17.5t-98 -53.5t-76 -88t-30.5 -118zM234 -181q16 0 52 37t104 81.5t177 81.5t274 37q130 0 235.5 -41t185.5 -89t129 -89.5t68 -41.5q10 0 60.5 39t109 86.5t105.5 89t47 46.5 q0 10 -10 10q-21 0 -37.5 -6.5t-30 -15.5t-29 -16t-36.5 -7q-13 0 -36.5 12.5t-49.5 29t-57 34t-60 30.5q-45 19 -74.5 30t-52 16t-39.5 9t-37 9v843q24 -14 41.5 -25t36.5 -29q16 -15 24 -31.5t15.5 -30t16 -21.5t21.5 -8q8 0 58.5 26.5t109 62.5t107 71t48.5 48 q0 16 -16 16q-21 0 -57.5 -9t-66.5 -9q-32 0 -59.5 16.5t-54 37t-54.5 38t-60 17.5q-33 0 -56.5 -5.5t-53.5 -19.5v216q0 32 18 44t18 37q0 23 -28 23q-13 0 -26 -8t-13 -27v-300q-21 -14 -50.5 -39t-96.5 -25q-18 0 -40.5 4t-22.5 30v444q0 54 22.5 100.5t57 81t78.5 54.5 t89 20q48 0 81 -30.5t65.5 -66t69.5 -66t90 -30.5q54 0 112.5 34.5t106.5 76.5t80 82.5t32 50.5q0 8 -12.5 4t-33.5 -13t-54.5 -17.5t-72.5 -8.5q-48 0 -88.5 20t-80 43t-82.5 43t-96 20q-72 0 -143.5 -30.5t-127.5 -85t-91 -128t-35 -156.5v-1352q-114 0 -213.5 -31 t-182 -75t-145.5 -97t-105.5 -97t-62.5 -74.5t-15 -30.5zM272 866q0 -69 20 -112t25 -43q3 0 7 21.5t18 45t41 45t75 21.5q45 0 75.5 -10.5t30.5 -48.5v-297q0 -64 -10.5 -112t-22.5 -79t-17 -38l-14 -25q6 0 45 15t83.5 47t82 82.5t37.5 119.5v841q0 59 9.5 98t21 62 t22.5 35.5t11 20.5q0 5 -39 -5.5t-85 -38.5t-85 -77.5t-39 -123.5v-291l-32 6t-67 6q-81 0 -137 -37.5t-56 -127.5zM742 2023l25 -24l199 201q2 -6 30 -45t77.5 -89.5t95.5 -68.5l69 69q-30 8 -70 44t-74 76t-59 73l-24 33zM991 224v795q0 30 37 35.5t67 5.5q58 0 106 -14 v-846q-53 11 -105 17.5t-105 6.5z" />
<glyph unicode="&#xcb;" horiz-adv-x="1929" d="M0 1702q0 -72 23 -135t50.5 -106.5t50.5 -66t26 -20.5q2 3 -10.5 27t-26.5 59.5t-26.5 81t-12.5 90.5q0 20 10 50t28 58t44.5 47t61.5 19q51 0 94.5 -17.5t89 -39t99 -38.5t124.5 -17q104 0 176.5 35.5t114.5 82.5t59.5 88t15.5 49q-3 2 -15.5 -8.5t-41.5 -25 t-76.5 -27.5t-123.5 -13q-37 0 -84.5 15.5t-103.5 35.5t-117 36.5t-126 16.5q-46 0 -98.5 -17.5t-98 -53.5t-76 -88t-30.5 -118zM234 -181q16 0 52 37t104 81.5t177 81.5t274 37q130 0 235.5 -41t185.5 -89t129 -89.5t68 -41.5q10 0 60.5 39t109 86.5t105.5 89t47 46.5 q0 10 -10 10q-21 0 -37.5 -6.5t-30 -15.5t-29 -16t-36.5 -7q-13 0 -36.5 12.5t-49.5 29t-57 34t-60 30.5q-45 19 -74.5 30t-52 16t-39.5 9t-37 9v843q24 -14 41.5 -25t36.5 -29q16 -15 24 -31.5t15.5 -30t16 -21.5t21.5 -8q8 0 58.5 26.5t109 62.5t107 71t48.5 48 q0 16 -16 16q-21 0 -57.5 -9t-66.5 -9q-32 0 -59.5 16.5t-54 37t-54.5 38t-60 17.5q-33 0 -56.5 -5.5t-53.5 -19.5v216q0 32 18 44t18 37q0 23 -28 23q-13 0 -26 -8t-13 -27v-300q-21 -14 -50.5 -39t-96.5 -25q-18 0 -40.5 4t-22.5 30v444q0 54 22.5 100.5t57 81t78.5 54.5 t89 20q48 0 81 -30.5t65.5 -66t69.5 -66t90 -30.5q54 0 112.5 34.5t106.5 76.5t80 82.5t32 50.5q0 8 -12.5 4t-33.5 -13t-54.5 -17.5t-72.5 -8.5q-48 0 -88.5 20t-80 43t-82.5 43t-96 20q-72 0 -143.5 -30.5t-127.5 -85t-91 -128t-35 -156.5v-1352q-114 0 -213.5 -31 t-182 -75t-145.5 -97t-105.5 -97t-62.5 -74.5t-15 -30.5zM272 866q0 -69 20 -112t25 -43q3 0 7 21.5t18 45t41 45t75 21.5q45 0 75.5 -10.5t30.5 -48.5v-297q0 -64 -10.5 -112t-22.5 -79t-17 -38l-14 -25q6 0 45 15t83.5 47t82 82.5t37.5 119.5v841q0 59 9.5 98t21 62 t22.5 35.5t11 20.5q0 5 -39 -5.5t-85 -38.5t-85 -77.5t-39 -123.5v-291l-32 6t-67 6q-81 0 -137 -37.5t-56 -127.5zM536 2068q0 -10 7 -10q8 0 21.5 9t27.5 9q12 0 26.5 -13t33.5 -29t45.5 -29t66.5 -13q38 0 72.5 14t60 35.5t41 47t15.5 46.5q0 5 -17 -1.5t-47 -6.5 q-45 0 -75.5 17.5t-53.5 37.5t-34.5 37t-19.5 17q-10 0 -27 -16l-133 -132q-10 -11 -10 -20zM991 224v795q0 30 37 35.5t67 5.5q58 0 106 -14v-846q-53 11 -105 17.5t-105 6.5zM1014 2068q0 -10 8 -10t21.5 9t26.5 9t28 -13t33.5 -29t45.5 -29t66 -13q37 0 71.5 14t60 35.5 t42 47t16.5 46.5q0 5 -17.5 -1.5t-46.5 -6.5q-46 0 -76.5 17.5t-53 37.5t-34.5 37t-21 17q-10 0 -26 -16l-134 -132q-10 -11 -10 -20z" />
<glyph unicode="&#xcc;" horiz-adv-x="1101" d="M3 -32q0 -33 3.5 -54t9.5 -21q7 0 15.5 25.5t31.5 55t64 54.5t112 25q67 0 113.5 -22.5t87 -49.5t82.5 -49.5t98 -22.5q59 0 125.5 25.5t122.5 73.5t93 114t37 152v1436q0 81 12 133t25.5 84t22.5 45.5t7 19.5q-5 5 -43.5 -5.5t-85.5 -47t-84 -101.5t-37 -166v-1534 q0 -38 -16 -73t-75 -35q-53 0 -104 29t-106.5 62.5t-119.5 62.5t-143 29q-40 0 -84.5 -22.5t-80 -58.5t-59.5 -79t-24 -85zM5 1733q0 -69 28 -130t64 -106.5t67 -73.5t39 -28q5 0 -12.5 20t-40.5 52t-42.5 73.5t-19.5 85.5q0 54 34.5 91.5t93.5 37.5q26 0 59.5 -15 t69.5 -30.5t74.5 -30.5t75.5 -15q43 0 96.5 41t99.5 91.5t76.5 93.5t25.5 48q-8 6 -19.5 -3.5t-29 -24.5t-41.5 -28t-56 -13q-29 0 -71.5 16t-94.5 37.5t-109 39t-113 17.5q-51 0 -96.5 -19t-80 -52t-56 -78.5t-21.5 -96.5zM162 907q0 -81 25.5 -128t36.5 -47q0 5 5 42.5 t31.5 80t80.5 42.5h43q20 0 36.5 -6.5t27 -22.5t10.5 -50v-262q0 -109 -25.5 -178.5t-17.5 -82.5q2 -5 38.5 8.5t79 48t76 88t33.5 124.5v853q0 64 9 102t18.5 62.5t16 36t3.5 16.5q-3 3 -38.5 -7.5t-78 -36t-78.5 -69t-36 -101.5v-368l-24 6q-24 7 -58 7q-99 0 -156.5 -41 t-57.5 -117zM538 2215q24 -63 81 -110t117 -77.5t109 -41t54.5 -2.5t-21 30.5t-66.5 62t-83 99.5t-66 141z" />
<glyph unicode="&#xcd;" horiz-adv-x="1101" d="M3 -32q0 -33 3.5 -54t9.5 -21q7 0 15.5 25.5t31.5 55t64 54.5t112 25q67 0 113.5 -22.5t87 -49.5t82.5 -49.5t98 -22.5q59 0 125.5 25.5t122.5 73.5t93 114t37 152v1436q0 81 12 133t25.5 84t22.5 45.5t7 19.5q-5 5 -43.5 -5.5t-85.5 -47t-84 -101.5t-37 -166v-1534 q0 -38 -16 -73t-75 -35q-53 0 -104 29t-106.5 62.5t-119.5 62.5t-143 29q-40 0 -84.5 -22.5t-80 -58.5t-59.5 -79t-24 -85zM5 1733q0 -69 28 -130t64 -106.5t67 -73.5t39 -28q5 0 -12.5 20t-40.5 52t-42.5 73.5t-19.5 85.5q0 54 34.5 91.5t93.5 37.5q26 0 59.5 -15 t69.5 -30.5t74.5 -30.5t75.5 -15q43 0 96.5 41t99.5 91.5t76.5 93.5t25.5 48q-8 6 -19.5 -3.5t-29 -24.5t-41.5 -28t-56 -13q-29 0 -71.5 16t-94.5 37.5t-109 39t-113 17.5q-51 0 -96.5 -19t-80 -52t-56 -78.5t-21.5 -96.5zM162 907q0 -81 25.5 -128t36.5 -47q0 5 5 42.5 t31.5 80t80.5 42.5h43q20 0 36.5 -6.5t27 -22.5t10.5 -50v-262q0 -109 -25.5 -178.5t-17.5 -82.5q2 -5 38.5 8.5t79 48t76 88t33.5 124.5v853q0 64 9 102t18.5 62.5t16 36t3.5 16.5q-3 3 -38.5 -7.5t-78 -36t-78.5 -69t-36 -101.5v-368l-24 6q-24 7 -58 7q-99 0 -156.5 -41 t-57.5 -117zM655 1989q5 -8 54.5 2.5t109.5 41t117 77.5t81 110l-125 102q-24 -80 -65.5 -140t-81 -100t-67.5 -62.5t-23 -30.5z" />
<glyph unicode="&#xce;" horiz-adv-x="1101" d="M3 -32q0 -33 3.5 -54t9.5 -21q7 0 15.5 25.5t31.5 55t64 54.5t112 25q67 0 113.5 -22.5t87 -49.5t82.5 -49.5t98 -22.5q59 0 125.5 25.5t122.5 73.5t93 114t37 152v1436q0 81 12 133t25.5 84t22.5 45.5t7 19.5q-5 5 -43.5 -5.5t-85.5 -47t-84 -101.5t-37 -166v-1534 q0 -38 -16 -73t-75 -35q-53 0 -104 29t-106.5 62.5t-119.5 62.5t-143 29q-40 0 -84.5 -22.5t-80 -58.5t-59.5 -79t-24 -85zM5 1733q0 -69 28 -130t64 -106.5t67 -73.5t39 -28q5 0 -12.5 20t-40.5 52t-42.5 73.5t-19.5 85.5q0 54 34.5 91.5t93.5 37.5q26 0 59.5 -15 t69.5 -30.5t74.5 -30.5t75.5 -15q43 0 96.5 41t99.5 91.5t76.5 93.5t25.5 48q-8 6 -19.5 -3.5t-29 -24.5t-41.5 -28t-56 -13q-29 0 -71.5 16t-94.5 37.5t-109 39t-113 17.5q-51 0 -96.5 -19t-80 -52t-56 -78.5t-21.5 -96.5zM162 907q0 -81 25.5 -128t36.5 -47q0 5 5 42.5 t31.5 80t80.5 42.5h43q20 0 36.5 -6.5t27 -22.5t10.5 -50v-262q0 -109 -25.5 -178.5t-17.5 -82.5q2 -5 38.5 8.5t79 48t76 88t33.5 124.5v853q0 64 9 102t18.5 62.5t16 36t3.5 16.5q-3 3 -38.5 -7.5t-78 -36t-78.5 -69t-36 -101.5v-368l-24 6q-24 7 -58 7q-99 0 -156.5 -41 t-57.5 -117zM471 2029l24 -24l201 200q2 -5 30 -44t77 -90t94 -69l69 69q-30 8 -69.5 44.5t-74 76t-58.5 72.5l-24 33z" />
<glyph unicode="&#xcf;" horiz-adv-x="1101" d="M3 -32q0 -33 3.5 -54t9.5 -21q7 0 15.5 25.5t31.5 55t64 54.5t112 25q67 0 113.5 -22.5t87 -49.5t82.5 -49.5t98 -22.5q59 0 125.5 25.5t122.5 73.5t93 114t37 152v1436q0 81 12 133t25.5 84t22.5 45.5t7 19.5q-5 5 -43.5 -5.5t-85.5 -47t-84 -101.5t-37 -166v-1534 q0 -38 -16 -73t-75 -35q-53 0 -104 29t-106.5 62.5t-119.5 62.5t-143 29q-40 0 -84.5 -22.5t-80 -58.5t-59.5 -79t-24 -85zM5 1733q0 -69 28 -130t64 -106.5t67 -73.5t39 -28q5 0 -12.5 20t-40.5 52t-42.5 73.5t-19.5 85.5q0 54 34.5 91.5t93.5 37.5q26 0 59.5 -15 t69.5 -30.5t74.5 -30.5t75.5 -15q43 0 96.5 41t99.5 91.5t76.5 93.5t25.5 48q-8 6 -19.5 -3.5t-29 -24.5t-41.5 -28t-56 -13q-29 0 -71.5 16t-94.5 37.5t-109 39t-113 17.5q-51 0 -96.5 -19t-80 -52t-56 -78.5t-21.5 -96.5zM162 907q0 -81 25.5 -128t36.5 -47q0 5 5 42.5 t31.5 80t80.5 42.5h43q20 0 36.5 -6.5t27 -22.5t10.5 -50v-262q0 -109 -25.5 -178.5t-17.5 -82.5q2 -5 38.5 8.5t79 48t76 88t33.5 124.5v853q0 64 9 102t18.5 62.5t16 36t3.5 16.5q-3 3 -38.5 -7.5t-78 -36t-78.5 -69t-36 -101.5v-368l-24 6q-24 7 -58 7q-99 0 -156.5 -41 t-57.5 -117zM178 2074q0 -11 8 -11t21.5 10t26.5 10t28 -14t34 -30t45.5 -29t65.5 -13q38 0 72.5 15t59.5 35.5t41.5 46t16.5 47.5q0 5 -17.5 -2t-46.5 -7q-45 0 -76 17.5t-53.5 37.5t-35 37t-20.5 17q-10 0 -26 -15l-134 -133q-10 -10 -10 -19zM658 2074q0 -11 8 -11 q7 0 21 10t27 10t28 -14t33 -30t44.5 -29t67.5 -13q37 0 71.5 15t60 35.5t41 46t15.5 47.5q0 5 -17 -2t-47 -7q-45 0 -75.5 17.5t-52.5 37.5t-34.5 37t-20.5 17q-10 0 -27 -15l-133 -133q-10 -10 -10 -19z" />
<glyph unicode="&#xd0;" horiz-adv-x="1825" d="M0 1997q-13 -5 11 -58.5t81.5 -116t147.5 -114.5t210 -52q53 0 122.5 27t132 43.5t105 5t42.5 -90.5v-1465q-51 12 -117.5 15.5t-104.5 3.5q-127 0 -244 -44t-203.5 -99t-136 -104t-41.5 -60q3 -5 49.5 17.5t115.5 50.5t151.5 52t155.5 24q104 0 199.5 -31t169 -68 t119.5 -67.5t54 -30.5t39 26.5t74.5 63.5t97 75t104.5 58q74 33 154 46t145.5 18t106.5 4t41 4q0 10 -11.5 28t-28 43t-28 62t-11.5 93v922q0 147 -51 271.5t-144.5 218.5t-226 146.5t-297.5 52.5q-79 0 -143.5 -15.5t-128.5 -36t-134.5 -36t-166.5 -15.5q-89 0 -159 22 t-122 47.5t-84 45.5t-45 18zM130 857q5 -5 16 3t32.5 20t60 21t99.5 9h77v-433q0 -35 -15.5 -72t-34.5 -69.5t-33.5 -53.5t-11.5 -21q48 0 96.5 19.5t90.5 56t67 87t25 109.5v377q48 8 93 44.5t78 78.5t50.5 77t10 37.5t-20 -5.5t-30.5 -18.5t-50 -19.5t-80 -9h-51v269 q0 50 8 90t17 66.5t16 39.5t2 13q-32 0 -70.5 -18t-73.5 -52t-59 -81.5t-24 -105.5v-221h-47q-43 0 -88.5 -36.5t-80 -79t-54.5 -80.5t-15 -42zM884 168v356q0 51 29 84.5t76 52t101.5 25t105.5 6.5q46 0 94.5 -5.5t91.5 -18.5t69.5 -37t26.5 -64v-85q0 -35 2.5 -63l5 -56 t10.5 -68q11 -56 33.5 -78t22.5 -36q0 -3 -41.5 -14.5t-93.5 -33.5q-66 -24 -134.5 -48t-106.5 -24q-48 0 -91.5 15t-81 33t-69.5 35.5t-50 23.5zM884 745v373q0 21 6.5 34.5t22.5 13.5q29 0 93 -22.5t178 -22.5q86 0 150 21.5t101 21.5q21 0 32 -12t11 -44v-363 q0 -51 -38 -49q-30 0 -89 14t-155 14q-112 0 -179 -20t-98 -20q-35 0 -35 61zM884 1288v402q0 40 19 64t60 24q104 0 193 -42t156 -110.5t105.5 -149.5t38.5 -158q0 -53 -36 -85t-81 -50.5t-91 -24t-64 -5.5t-67.5 2.5t-101.5 17t-91.5 41t-39.5 74.5z" />
<glyph unicode="&#xd1;" horiz-adv-x="1799" d="M-2.5 1833q-5.5 -55 2.5 -55q3 0 20.5 18t50.5 38.5t82.5 38t115.5 17.5q26 0 65 -6.5t75 -24t61 -46.5t25 -75v-458l-30 10q-31 9 -76 9q-41 0 -83 -8t-78.5 -30.5t-58.5 -61t-22 -97.5q0 -85 15 -134l16 -49q3 0 10 26.5t25 60t52.5 60t93.5 26.5q18 0 42.5 -4 t44 -17.5t34.5 -41.5t15 -76v-687q-130 0 -223.5 -55.5t-152 -122.5t-86.5 -123t-25 -56q8 -5 44 20t89.5 56t116 57.5t123.5 26.5q48 0 94 -15.5t84 -34.5t64.5 -35t34.5 -16q5 0 35.5 25t73.5 64t88 84t82.5 85t59.5 69.5t17 34.5q-8 8 -30.5 -9.5t-52 -41t-61.5 -45 t-58 -21.5q-29 0 -102.5 26.5t-181.5 26.5v275q0 63 76.5 101.5t180.5 38.5q120 0 226.5 -38.5t149.5 -106.5l285 -483q15 -26 36.5 -51t43 -45.5t41.5 -34t33 -13.5q11 0 11 17q0 30 -19 86.5t-19 125.5v1622q26 0 78.5 29.5t113.5 85.5q26 23 51.5 63.5t44.5 78.5t28 66 t4 28q-8 0 -27 -13t-45.5 -29t-58.5 -29t-63 -13q-32 0 -53.5 14t-36 30.5t-24 30.5t-20.5 14q-13 0 -52.5 -25t-86.5 -59.5t-91 -71.5t-68 -61t-42.5 -54.5t-29.5 -57.5t-16 -46t0 -21.5t21.5 19t42 47t57 47.5t72.5 22q32 0 55.5 -14.5t42 -33t34.5 -33t38 -14.5v-208 q0 -40 -29.5 -68t-73.5 -46t-98.5 -25.5t-102.5 -7.5q-46 0 -92 7.5t-87.5 17.5t-71 24.5t-39.5 33.5l-194 344q-72 127 -190.5 212t-246.5 85q-112 0 -178.5 -54.5t-101 -120.5t-40 -121zM528 757v897q0 42 44 42q21 0 33.5 -14.5t19.5 -33.5l432 -891q13 -33 13 -54 q0 -18 -26 -19q-26 0 -91.5 15t-167.5 15q-74 0 -126 -15t-84 -15q-24 0 -35.5 15t-11.5 58zM734 2027q3 -3 18 7.5t40.5 23.5t61 24t81.5 11q48 0 76 -7t47.5 -15t38 -14.5t48.5 -6.5q54 0 98.5 32t76.5 71t49.5 72t15 35.5t-16 -8.5t-37 -22.5t-57.5 -22t-73 -10.5 q-37 0 -60 6.5t-43 15.5t-43.5 15.5t-61.5 6.5q-61 0 -110.5 -31.5t-84 -71.5t-50.5 -74.5t-14 -36.5zM1016.5 1368.5q7.5 21.5 45.5 21.5q33 0 77.5 -8t98.5 -8q101 -2 168 20.5t101 22.5q35 0 35 -43v-975q0 -10 -10 -18t-18 -8q-26 0 -42 19.5t-26 44.5l-407 841 q-30 69 -22.5 90.5z" />
<glyph unicode="&#xd2;" horiz-adv-x="1842" d="M0 1001q0 -253 77.5 -456.5t205 -345t291 -217.5t336.5 -76q211 0 380 95t289 249t183.5 352.5t63.5 408.5q0 206 -58 390t-146 322.5t-190.5 219t-191.5 80.5q-26 0 -75.5 -29.5t-84 -54t-39.5 -31.5v41q0 15 14.5 25t14.5 36q0 8 -8 16t-21 8t-22.5 -12t-9.5 -33v-99 l-455 -303q-61 -37 -81.5 -60t-20.5 -36q0 -32 36 -32q18 0 25.5 11t13.5 25t11 29t16 23l104 69v-1134q0 -91 -14 -148t-28 -89t-26.5 -47t-5.5 -17q2 -5 43 4.5t89 41.5t86.5 94.5t38.5 168.5v1248l168 112v-1771q0 -58 -57.5 -80t-143.5 -4t-186.5 83.5t-187 182.5 t-143.5 292.5t-57 412.5q0 239 62.5 425.5t138.5 313.5t138 192l63 65q0 10 -11 11q-15 0 -67 -26.5t-121 -78.5t-146.5 -133t-141 -189t-106.5 -244t-43 -301zM575 2231q23 -64 81 -110.5t117.5 -77.5t109 -41t54.5 -2.5t-21.5 30.5t-66 62.5t-82.5 100t-66 139.5z M1041 152v471q0 40 23 64t56 37t74 17t81 4q16 0 60 -6.5t91 -22t82.5 -43.5t35.5 -74q0 -69 -52 -158.5t-124 -171t-148.5 -137t-127.5 -55.5q-23 0 -37 16t-14 59zM1041 780v424q0 48 64 48q45 0 92.5 -6t101.5 -6q76 0 126.5 17.5t103.5 17.5q32 0 49 -26.5t25 -66t9 -89 t1 -92.5q0 -48 -1 -97.5t-7.5 -89t-19 -65t-35.5 -25.5q-36 0 -65 8t-58 19t-65 18.5t-87 7.5q-82 0 -130 -16t-75 -16q-30 0 -29 35zM1041 1377v468q0 40 43 40q80 0 165 -60t156 -142.5t115.5 -170t44.5 -143.5q0 -16 -25.5 -33.5t-65 -31t-86 -22.5t-89.5 -9 q-46 0 -90.5 1t-82 11.5t-61.5 32t-24 59.5z" />
<glyph unicode="&#xd3;" horiz-adv-x="1842" d="M0 1001q0 -253 77.5 -456.5t205 -345t291 -217.5t336.5 -76q211 0 380 95t289 249t183.5 352.5t63.5 408.5q0 206 -58 390t-146 322.5t-190.5 219t-191.5 80.5q-26 0 -75.5 -29.5t-84 -54t-39.5 -31.5v41q0 15 14.5 25t14.5 36q0 8 -8 16t-21 8t-22.5 -12t-9.5 -33v-99 l-455 -303q-61 -37 -81.5 -60t-20.5 -36q0 -32 36 -32q18 0 25.5 11t13.5 25t11 29t16 23l104 69v-1134q0 -91 -14 -148t-28 -89t-26.5 -47t-5.5 -17q2 -5 43 4.5t89 41.5t86.5 94.5t38.5 168.5v1248l168 112v-1771q0 -58 -57.5 -80t-143.5 -4t-186.5 83.5t-187 182.5 t-143.5 292.5t-57 412.5q0 239 62.5 425.5t138.5 313.5t138 192l63 65q0 10 -11 11q-15 0 -67 -26.5t-121 -78.5t-146.5 -133t-141 -189t-106.5 -244t-43 -301zM777 1989q6 -8 55 2.5t109 41t117 77.5t82 110l-126 102q-23 -80 -65 -140t-81.5 -100t-67.5 -62.5t-23 -30.5z M1041 152v471q0 40 23 64t56 37t74 17t81 4q16 0 60 -6.5t91 -22t82.5 -43.5t35.5 -74q0 -69 -52 -158.5t-124 -171t-148.5 -137t-127.5 -55.5q-23 0 -37 16t-14 59zM1041 780v424q0 48 64 48q45 0 92.5 -6t101.5 -6q76 0 126.5 17.5t103.5 17.5q32 0 49 -26.5t25 -66t9 -89 t1 -92.5q0 -48 -1 -97.5t-7.5 -89t-19 -65t-35.5 -25.5q-36 0 -65 8t-58 19t-65 18.5t-87 7.5q-82 0 -130 -16t-75 -16q-30 0 -29 35zM1041 1377v468q0 40 43 40q80 0 165 -60t156 -142.5t115.5 -170t44.5 -143.5q0 -16 -25.5 -33.5t-65 -31t-86 -22.5t-89.5 -9 q-46 0 -90.5 1t-82 11.5t-61.5 32t-24 59.5z" />
<glyph unicode="&#xd4;" horiz-adv-x="1842" d="M0 985q0 -251 77.5 -450.5t205 -339t291 -214.5t336.5 -75q211 0 380 94t289 245t183.5 347t63.5 401q0 203 -58 383.5t-146 318t-190.5 217.5t-191.5 80q-21 0 -54 -18t-65 -38.5t-56 -38.5l-24 -17v38q0 15 14.5 24t14.5 37q0 7 -8 15t-21 8t-22.5 -11.5t-9.5 -34.5 v-94l-455 -302q-61 -38 -81.5 -58.5t-20.5 -35.5q0 -32 36 -31q18 0 25.5 10.5t13.5 25.5t11 29t16 22l104 68v-1119q0 -89 -14 -144t-28 -87t-26.5 -47t-5.5 -17q2 -6 43 2t89 40.5t86.5 95t38.5 166.5v1230l168 111v-1744q0 -59 -57.5 -81t-143.5 -4t-186.5 82t-187 181.5 t-143.5 289t-57 405.5q0 237 62.5 419.5t138.5 307.5t138 189l63 64q0 11 -11 11q-15 0 -67 -25.5t-121 -77.5t-146.5 -132t-141 -184.5t-106.5 -239t-43 -297.5zM706 2050l23 -23l201 199q2 -6 30 -44t77.5 -89t93.5 -70l70 70q-30 8 -69.5 43.5t-74.5 76t-59 73.5l-23 33z M1041 147v465q0 38 23 62t56 37t74 17t81 4q16 0 60 -6.5t91 -23t82.5 -43.5t35.5 -70q0 -66 -52 -156t-124 -170t-148.5 -134.5t-127.5 -54.5q-23 0 -37 15t-14 58zM1041 767v415q0 48 64 48q45 0 92.5 -5.5t101.5 -5.5q76 0 126.5 17.5t103.5 17.5q32 0 49 -25t25 -65.5 t9 -88t1 -90.5q0 -48 -1 -97.5t-7.5 -87.5t-19 -63.5t-35.5 -25.5q-36 0 -65 8t-58 18.5t-65 18.5t-87 8q-82 0 -130 -16t-75 -16q-30 0 -29 35zM1041 1352v464q0 40 43 39q80 0 165 -58.5t156 -139.5t115.5 -167.5t44.5 -142.5q0 -16 -25.5 -33.5t-65 -30.5t-86 -22 t-89.5 -9q-46 0 -90.5 1t-82 11.5t-61.5 31t-24 56.5z" />
<glyph unicode="&#xd5;" horiz-adv-x="1842" d="M0 980q0 -242 73.5 -437t195.5 -330.5t279.5 -207t322.5 -71.5q200 0 360.5 90t275 238t175.5 338t61 391q0 195 -55.5 370.5t-139.5 308t-182 209.5t-182 77q-23 0 -71 -27.5t-80 -52t-37 -29.5v38q0 16 13 25.5t13 33.5q0 7 -8 15t-18 8q-13 0 -23 -10.5t-10 -31.5v-96 l-433 -290q-58 -37 -78 -57.5t-20 -33.5q0 -32 33 -31q16 0 24.5 10.5t13.5 24.5t10.5 28t16.5 22l98 66v-1086q0 -88 -13 -141.5t-26.5 -85t-25.5 -44.5t-7 -16q3 -5 43.5 2.5t85 39.5t81.5 92t37 161v1195l160 106v-1692q0 -56 -54.5 -79t-137 -4t-178 81.5t-178 174.5 t-137 279.5t-54.5 393.5q0 231 59.5 408.5t132 298.5t131.5 184l60 62q0 10 -8 10q-15 0 -64.5 -24.5t-116.5 -75t-140 -126.5t-136 -180t-102.5 -235t-39.5 -287zM660 1989q3 -3 17.5 7.5t39.5 24t61.5 24t82.5 10.5q48 0 75 -6.5t47.5 -14t39 -15t47.5 -7.5q53 0 98.5 32 t77.5 71t49.5 72t15 36t-16.5 -7.5t-38 -23t-57 -23t-73 -10.5q-38 0 -60 6.5t-42 16.5t-44 16.5t-61 6.5q-61 0 -110.5 -32t-84.5 -72.5t-50.5 -74.5t-13.5 -37zM996 168v450q0 37 21.5 60t53 36t71.5 16.5t77 3.5q16 0 57.5 -5t85 -21t79 -43.5t35.5 -70.5 q0 -64 -49.5 -151t-118 -163.5t-142.5 -130t-122 -53.5q-24 0 -36 14.5t-12 57.5zM996 767v404q0 48 61 48q45 0 89 -5t94 -5q77 0 123.5 15.5t95.5 15.5q32 0 47.5 -25t24 -63.5t10 -84t1.5 -87.5q0 -45 -1.5 -93.5t-8 -86.5t-18.5 -62t-33 -24q-33 0 -61 7.5t-57 17 t-62 17.5t-82 8q-76 0 -123 -15t-74 -15q-26 0 -26 33zM996 1339v447q0 38 40 38q74 0 156.5 -57t149 -136t110.5 -163t44 -137q0 -15 -24 -31.5t-62 -31t-84 -22.5t-86 -8q-43 0 -85 1t-78 12t-58.5 30.5t-22.5 57.5z" />
<glyph unicode="&#xd6;" horiz-adv-x="1842" d="M0 950q0 -251 76 -450.5t201 -339t286 -213.5t334 -74q208 0 374.5 92.5t283.5 245t180.5 348t63.5 399.5q0 203 -58.5 383.5t-145 318t-187 217t-186.5 79.5q-21 0 -54.5 -16.5t-65.5 -38t-55 -39.5l-23 -17v37q0 16 15 26t15 36q0 7 -7.5 15t-22.5 8q-13 0 -22 -11.5 t-9 -32.5v-97l-447 -300q-61 -38 -81 -59t-20 -34q0 -33 35 -33q18 0 26 11t13 25.5t11 29.5t16 22l101 67v-1118q0 -89 -13.5 -144.5t-26.5 -87.5t-25.5 -46.5t-6.5 -16.5q2 -6 43.5 2t87 40t84 94.5t38.5 166.5v1229l165 112v-1743q0 -59 -56 -81.5t-141 -3.5t-183.5 82.5 t-184 180.5t-141.5 288.5t-56 406.5q0 237 61.5 419t136 307.5t135.5 189.5l61 63q0 11 -10 11q-16 0 -66.5 -25.5t-118 -77t-143.5 -131.5t-140.5 -185t-105.5 -239.5t-41 -297.5zM514 2103q0 -10 7 -10q8 0 21.5 9t26.5 9t28 -13t34 -29t45.5 -29t65.5 -13q38 0 72.5 14 t60 35.5t41.5 47t16 46.5q0 5 -17.5 -1.5t-46.5 -6.5q-45 0 -75.5 17.5t-53.5 37t-35 37t-20 17.5q-11 0 -26 -15l-134 -134q-10 -11 -10 -19zM993 2103q0 -10 8 -10t21.5 9t26.5 9t28 -13t33 -29t45 -29t67 -13q38 0 72.5 14t59.5 35.5t40.5 47t15.5 46.5q0 5 -16.5 -1.5 t-46.5 -6.5q-46 0 -76.5 17.5t-52.5 37t-34.5 37t-19.5 17.5q-11 0 -28 -15l-132 -134q-11 -11 -11 -19zM1024 112v465q0 38 21.5 62t56 37t75 17.5t80.5 4.5q16 0 58 -7t89 -22.5t81.5 -43.5t34.5 -71q0 -66 -50 -155.5t-121 -169t-147 -134.5t-127 -55q-23 0 -37 14.5 t-14 57.5zM1024 732v416q0 48 65 48q46 0 92 -6t99 -6q77 0 125 17.5t99 17.5q33 0 49.5 -25t25 -65t10 -88t1.5 -91q0 -48 -1.5 -97.5t-8.5 -87.5t-18.5 -63.5t-35.5 -25.5q-35 0 -63 8t-57 19t-65 18.5t-84 7.5q-82 0 -129.5 -15.5t-73.5 -15.5q-30 0 -30 34zM1024 1318 v463q0 40 43 40q80 0 164.5 -58.5t153 -139.5t113 -167.5t44.5 -142.5q0 -16 -25.5 -33.5t-64.5 -31t-84 -22.5t-88 -9q-45 0 -90 1t-81.5 11.5t-60.5 30.5t-24 58z" />
<glyph unicode="&#xd7;" horiz-adv-x="813" d="M56 1145q2 -7 14 -9t36 -10t58 -28t75 -62l91 -88l-162 -163h45l138 142l64 -64q35 -35 93.5 -43t114.5 -2.5t96 18.5t38 21q-6 7 -18 9t-33.5 8.5t-51 21t-62.5 49.5l-110 112l158 155h-46l-134 -134l-69 67q-30 33 -87 39t-113 -1t-95.5 -18.5t-39.5 -19.5z" />
<glyph unicode="&#xd8;" horiz-adv-x="1948" d="M21 1001q0 -195 41.5 -345t92 -251.5t91.5 -154.5l41 -52l-71 -102q-8 -13 -21.5 -18.5t-28 -9.5t-24 -9.5t-9.5 -15.5q0 -13 9.5 -26.5t30.5 -13.5q18 0 32 20l104 147l43 -41q42 -41 119.5 -90t189 -91t249.5 -42q195 0 365.5 84t298.5 232t200.5 350.5t72.5 438.5 q0 195 -50.5 346.5t-113 257t-113.5 159.5l-50 55l40 48q21 30 37 34t24 4q13 0 23 14.5t10 26.5q0 14 -10 22t-23 8q-10 0 -20.5 -5t-24.5 -25l-77 -101l-24 27q-24 26 -60 57.5t-78.5 57.5t-76.5 26q-41 0 -74 -18.5t-63 -37.5l-623 -404q-53 -33 -74.5 -56.5t-21.5 -40.5 q0 -26 41 -26q18 0 25 12t9.5 27t6.5 28t17 19l48 21v-480q0 -91 -15 -147.5t-30.5 -89t-28 -46.5t-6.5 -17q2 -5 43.5 4t88.5 41t85.5 94t38.5 169v581l282 194q74 48 112 48q40 0 86.5 -29t89 -63.5t56.5 -49.5l42 -44l-1014 -1387l-23 45t-50.5 129.5t-50.5 202.5 t-23 264q0 130 30.5 256.5t77.5 238.5t101.5 205.5t100 162.5t74.5 106.5t27 37.5q-21 0 -75 -33.5t-123 -93.5t-145 -147.5t-137 -195.5t-102.5 -234t-41.5 -268zM399 292l170 224q11 16 52.5 38.5t98.5 43t125 35t138 14.5q86 0 167.5 -30.5t146 -73.5t103 -83.5 t38.5 -60.5q0 -21 -51 -88t-131 -138.5t-179 -128.5t-198 -57q-107 0 -194.5 47.5t-152 105.5t-81.5 81zM642 604q-8 0 8 21l364 511q5 8 37.5 19t77.5 19t95.5 15t93.5 7q69 0 123.5 -16t91.5 -37.5t56 -47t19 -43.5q0 -133 -16 -242t-37 -186.5t-42.5 -120.5t-31.5 -43 q-21 0 -61.5 35t-100 75t-141 74.5t-185.5 34.5q-71 0 -130.5 -12t-103 -25.5t-72.5 -25.5t-45 -12zM1067 1209l350 476l29 -40q30 -39 65.5 -109t66 -164t30.5 -203q0 -11 -8 -11q-5 0 -29 10.5t-61 24t-86.5 24t-105.5 10.5q-99 0 -158.5 -15.5t-81.5 -15.5q-18 0 -11 13z " />
<glyph unicode="&#xd9;" horiz-adv-x="1929" d="M35 1603q0 -69 11 -69q5 0 14 47.5t37 104.5t84 105.5t152 48.5q48 0 83.5 -24.5t58.5 -62.5t34.5 -86.5t11.5 -96.5v-434l-25 7q-25 7 -62 7q-96 0 -157 -44t-61 -145q0 -30 6.5 -58.5t17.5 -52.5t20 -39t14 -15q3 0 5.5 29t16 64t38.5 64.5t73 29.5q61 0 87.5 -23 t26.5 -84v-599q-135 0 -228 -54.5t-150 -118.5t-81 -118.5t-19 -54.5l33 27q33 26 93 58t142.5 58.5t186.5 26.5q82 0 143.5 -29t101.5 -63.5t60 -64.5l20 -30q13 0 58.5 34t106.5 86t130 110.5t133.5 110.5t111.5 85t70 33q18 0 18 -35q0 -53 11 -128t30.5 -142.5t46 -117 t56.5 -49.5q3 0 28 20.5t59.5 52t73 67.5t72.5 68.5t54.5 54.5t20.5 24q0 11 -8 12q-7 0 -17.5 -11t-25.5 -22.5t-34 -21.5t-37 -10q-26 0 -52.5 28t-47 73.5t-34 102.5t-13.5 119v1224q16 0 59 34t88 75t81 76.5t36 40.5q0 11 -10 12q-8 0 -28 -13.5t-44.5 -30.5 t-49.5 -30.5t-49 -13.5q-48 0 -78.5 26.5t-52 58.5t-41 58.5t-51.5 26.5q-13 0 -65 -41t-108 -93t-101.5 -96t-45.5 -47q0 -13 16 -13q7 0 21 10.5t28.5 24t29 24t25.5 10.5q7 0 24.5 -15.5t40.5 -33t47 -34t45 -16.5v-244q0 -30 -33.5 -55.5t-77.5 -42.5t-89 -28t-72 -11 q-23 0 -65 8.5t-80 23t-66 37t-28 52.5v423q0 26 19 38t19 40q0 15 -8.5 27t-24.5 12q-38 0 -38 -47v-1712q-2 2 -28.5 18t-75.5 36t-97 20v1395q0 66 -23 128t-64.5 109t-98.5 75t-124 28q-111 0 -181.5 -44.5t-110.5 -109t-54.5 -134.5t-14.5 -121zM777 2210 q24 -64 81.5 -110.5t117.5 -77t109 -41t54.5 -3t-21 30.5t-67 62.5t-82.5 99.5t-67 140zM940 181v498q0 40 24 68t60 45.5t76.5 24t78.5 6.5q48 0 96 -10t86.5 -30.5t64 -52.5t25.5 -80v-192q0 -3 -30.5 -27t-78.5 -60t-104 -76.5t-103.5 -77t-82.5 -60.5t-41 -24 q-10 0 -31.5 17.5t-39.5 30.5zM940 854v414q0 35 4 44t17 9q23 0 75.5 -25.5t142.5 -25.5q46 0 83 10.5t68 23t53 22.5t39 10q30 0 29 -58v-432q0 -48 -18 -48q-26 0 -86.5 28t-167.5 28q-82 0 -135 -19.5t-81 -19.5q-23 -1 -23 39z" />
<glyph unicode="&#xda;" horiz-adv-x="1929" d="M35 1603q0 -69 11 -69q5 0 14 47.5t37 104.5t84 105.5t152 48.5q48 0 83.5 -24.5t58.5 -62.5t34.5 -86.5t11.5 -96.5v-434l-25 7q-25 7 -62 7q-96 0 -157 -44t-61 -145q0 -30 6.5 -58.5t17.5 -52.5t20 -39t14 -15q3 0 5.5 29t16 64t38.5 64.5t73 29.5q61 0 87.5 -23 t26.5 -84v-599q-135 0 -228 -54.5t-150 -118.5t-81 -118.5t-19 -54.5l33 27q33 26 93 58t142.5 58.5t186.5 26.5q82 0 143.5 -29t101.5 -63.5t60 -64.5l20 -30q13 0 58.5 34t106.5 86t130 110.5t133.5 110.5t111.5 85t70 33q18 0 18 -35q0 -53 11 -128t30.5 -142.5t46 -117 t56.5 -49.5q3 0 28 20.5t59.5 52t73 67.5t72.5 68.5t54.5 54.5t20.5 24q0 11 -8 12q-7 0 -17.5 -11t-25.5 -22.5t-34 -21.5t-37 -10q-26 0 -52.5 28t-47 73.5t-34 102.5t-13.5 119v1224q16 0 59 34t88 75t81 76.5t36 40.5q0 11 -10 12q-8 0 -28 -13.5t-44.5 -30.5 t-49.5 -30.5t-49 -13.5q-48 0 -78.5 26.5t-52 58.5t-41 58.5t-51.5 26.5q-13 0 -65 -41t-108 -93t-101.5 -96t-45.5 -47q0 -13 16 -13q7 0 21 10.5t28.5 24t29 24t25.5 10.5q7 0 24.5 -15.5t40.5 -33t47 -34t45 -16.5v-244q0 -30 -33.5 -55.5t-77.5 -42.5t-89 -28t-72 -11 q-23 0 -65 8.5t-80 23t-66 37t-28 52.5v423q0 26 19 38t19 40q0 15 -8.5 27t-24.5 12q-38 0 -38 -47v-1712q-2 2 -28.5 18t-75.5 36t-97 20v1395q0 66 -23 128t-64.5 109t-98.5 75t-124 28q-111 0 -181.5 -44.5t-110.5 -109t-54.5 -134.5t-14.5 -121zM940 181v498 q0 40 24 68t60 45.5t76.5 24t78.5 6.5q48 0 96 -10t86.5 -30.5t64 -52.5t25.5 -80v-192q0 -3 -30.5 -27t-78.5 -60t-104 -76.5t-103.5 -77t-82.5 -60.5t-41 -24q-10 0 -31.5 17.5t-39.5 30.5zM940 854v414q0 35 4 44t17 9q23 0 75.5 -25.5t142.5 -25.5q46 0 83 10.5t68 23 t53 22.5t39 10q30 0 29 -58v-432q0 -48 -18 -48q-26 0 -86.5 28t-167.5 28q-82 0 -135 -19.5t-81 -19.5q-23 -1 -23 39zM1065 1979q5 -8 54.5 2.5t109 41t117 77t81.5 110.5l-126 101q-23 -79 -64 -139.5t-81.5 -100t-68 -62.5t-22.5 -30z" />
<glyph unicode="&#xdb;" horiz-adv-x="1911" d="M35 1603q0 -69 11 -69q5 0 14 47.5t37 104.5t84 105.5t152 48.5q48 0 83.5 -24.5t58.5 -62.5t34.5 -86.5t11.5 -96.5v-434l-25 7q-25 7 -62 7q-96 0 -157 -44t-61 -145q0 -30 6.5 -58.5t17.5 -52.5t20 -39t14 -15q3 0 5.5 29t16 64t38.5 64.5t73 29.5q61 0 87.5 -23 t26.5 -84v-599q-135 0 -228 -54.5t-150 -118.5t-81 -118.5t-19 -54.5l33 27q33 26 93 58t142.5 58.5t186.5 26.5q82 0 143.5 -29t101.5 -63.5t60 -64.5l20 -30q13 0 58.5 34t106.5 86t130 110.5t133.5 110.5t111.5 85t70 33q18 0 18 -35q0 -53 11 -128t30.5 -142.5t46 -117 t56.5 -49.5q3 0 28 20.5t59.5 52t73 67.5t72.5 68.5t54.5 54.5t20.5 24q0 11 -8 12q-7 0 -17.5 -11t-25.5 -22.5t-34 -21.5t-37 -10q-26 0 -52.5 28t-47 73.5t-34 102.5t-13.5 119v1224q16 0 59 34t88 75t81 76.5t36 40.5q0 11 -10 12q-8 0 -28 -13.5t-44.5 -30.5 t-49.5 -30.5t-49 -13.5q-48 0 -78.5 26.5t-52 58.5t-41 58.5t-51.5 26.5q-13 0 -65 -41t-108 -93t-101.5 -96t-45.5 -47q0 -13 16 -13q7 0 21 10.5t28.5 24t29 24t25.5 10.5q7 0 24.5 -15.5t40.5 -33t47 -34t45 -16.5v-244q0 -30 -33.5 -55.5t-77.5 -42.5t-89 -28t-72 -11 q-23 0 -65 8.5t-80 23t-66 37t-28 52.5v423q0 26 19 38t19 40q0 15 -8.5 27t-24.5 12q-38 0 -38 -47v-1712q-2 2 -28.5 18t-75.5 36t-97 20v1395q0 66 -23 128t-64.5 109t-98.5 75t-124 28q-111 0 -181.5 -44.5t-110.5 -109t-54.5 -134.5t-14.5 -121zM716 2018l24 -24 l200 200q2 -5 30 -44t77.5 -89.5t95.5 -68.5l69 68q-30 8 -70 44.5t-74 76t-59 73.5l-24 33zM940 181v498q0 40 24 68t60 45.5t76.5 24t78.5 6.5q48 0 96 -10t86.5 -30.5t64 -52.5t25.5 -80v-192q0 -3 -30.5 -27t-78.5 -60t-104 -76.5t-103.5 -77t-82.5 -60.5t-41 -24 q-10 0 -31.5 17.5t-39.5 30.5zM940 854v414q0 35 4 44t17 9q23 0 75.5 -25.5t142.5 -25.5q46 0 83 10.5t68 23t53 22.5t39 10q30 0 29 -58v-432q0 -48 -18 -48q-26 0 -86.5 28t-167.5 28q-82 0 -135 -19.5t-81 -19.5q-23 -1 -23 39z" />
<glyph unicode="&#xdc;" horiz-adv-x="1911" d="M35 1587q0 -66 11 -67q5 0 14 46.5t37 104t82.5 104t150.5 46.5q48 0 82.5 -24t57.5 -61t34.5 -83.5t11.5 -95.5v-431l-25 7q-26 7 -62 7q-94 0 -155 -43t-61 -144q0 -30 6.5 -57.5t17 -51.5t20 -39t15.5 -15q2 0 5 29.5t16.5 63t38 63t70.5 29.5q61 0 87.5 -22.5 t26.5 -84.5v-591q-132 0 -225 -53.5t-149 -118.5t-80 -118t-19 -53l33 26q33 27 91.5 59t141 58.5t184.5 26.5q79 0 141 -29t101.5 -63.5t59.5 -64.5l20 -29q13 0 57 33t104 84t129 109.5t131.5 108.5t112 83.5t68.5 33.5q18 0 18 -32q0 -53 10.5 -126.5t30.5 -142.5 t45.5 -117t54.5 -48q5 0 54.5 43t105 96t101 96.5t45.5 48.5q0 11 -7 12q-8 0 -19 -11t-25.5 -22.5t-32 -21.5t-35.5 -10q-26 0 -53.5 28t-47 72.5t-33 101.5t-13.5 118v1212q16 0 58.5 33t88 73.5t80 76t34.5 40.5q0 11 -10 11q-8 0 -27 -13t-43 -30.5t-49.5 -30.5 t-48.5 -13q-48 0 -77.5 26.5t-52 58t-42.5 58.5t-49 27q-10 0 -37.5 -20t-62 -49.5t-72.5 -64t-70 -65t-53.5 -52t-21.5 -23.5q0 -14 15 -14q8 0 22 10.5t28 23.5t29 24t25 11q8 0 25.5 -16t39 -33t45 -33t45.5 -16v-242q0 -30 -31.5 -54t-76 -42.5t-89.5 -28t-72 -9.5 q-23 0 -64.5 7t-79 21.5t-65 37t-27.5 51.5v418q0 26 18 38.5t18 38.5q0 16 -8 28.5t-23 12.5q-38 0 -38 -49v-1692q-3 2 -29.5 18t-74.5 36t-95 20v1379q0 66 -22.5 127.5t-64.5 108t-97.5 74.5t-122.5 28q-111 0 -180 -45.5t-108 -109t-53.5 -132.5t-14.5 -120zM514 2103 q0 -10 7 -10q8 0 21.5 9t26.5 9t28 -13t34 -29t45.5 -29t65.5 -13q38 0 72.5 14t60 35.5t41.5 47t16 46.5q0 5 -17.5 -1.5t-46.5 -6.5q-45 0 -75.5 17.5t-53.5 37t-35 37t-20 17.5q-11 0 -26 -15l-134 -134q-10 -11 -10 -19zM930 181v492q0 41 22.5 69t58 44.5t76.5 24 t79 7.5q48 0 96 -10t86.5 -30.5t62.5 -53t24 -79.5v-190q0 -3 -30.5 -27t-77.5 -59.5t-102.5 -76.5t-104 -76t-81.5 -59t-38 -24q-10 0 -31.5 17.5t-39.5 30.5zM930 846v411q0 35 3.5 44t16.5 9q24 0 76 -25t140 -25q46 0 83 9t66 20.5t52 22.5t38 11q13 0 21.5 -12t8.5 -43 v-430q0 -45 -18 -45q-26 0 -86.5 26.5t-164.5 26.5q-79 0 -132.5 -18t-80.5 -18q-23 -1 -23 36zM993 2103q0 -10 8 -10t21.5 9t26.5 9t28 -13t33 -29t45 -29t67 -13q38 0 72.5 14t59.5 35.5t40.5 47t15.5 46.5q0 5 -16.5 -1.5t-46.5 -6.5q-46 0 -76.5 17.5t-52.5 37 t-34.5 37t-19.5 17.5q-11 0 -28 -15l-132 -134q-11 -11 -11 -19z" />
<glyph unicode="&#xdd;" horiz-adv-x="1674" d="M3 1738q0 -30 6.5 -60t16 -55t17.5 -41.5t10 -16.5q5 0 10.5 39t25.5 84t63 84t125 39q74 0 135.5 -43t61.5 -117v-416q-23 0 -74.5 -4t-103.5 -19.5t-90 -50.5t-38 -99q0 -94 26.5 -142.5t58.5 -68.5t58.5 -21.5t29 1t-6.5 10.5t-20 21.5t-20 30.5t-9 42q0 141 136 140 q21 0 37 -9t16 -32v-592q0 -69 47.5 -115.5t107.5 -76t114 -44.5t67 -18q-8 -5 -61 -33t-113.5 -74t-108 -104.5t-47.5 -126.5q0 -124 82.5 -173.5t214.5 -54.5q77 -3 159.5 31.5t160 76t145.5 77.5t119 36q64 0 97 -40t33 -98q0 -35 -24 -64.5t-58.5 -52t-72 -34.5 t-63.5 -12q-54 0 -99.5 14.5t-73.5 17.5q-51 0 -51 -48q0 -19 19 -29.5t45.5 -17.5t58.5 -8t58 -1q99 0 167.5 29.5t114 76t67 106t21.5 123.5q0 91 -73.5 149.5t-184.5 58.5q-64 0 -153 -33t-181 -74t-177.5 -75t-141.5 -34q-48 0 -72.5 26.5t-24.5 72.5q0 51 34 100.5 t87.5 86.5t117 59.5t125.5 22.5q104 0 204 28t176.5 81.5t124.5 129.5t48 171v1158q19 0 52.5 17.5t68 44t60 54.5t25.5 49q0 16 -8 17q-5 0 -12.5 -11t-21.5 -23t-34.5 -23t-51.5 -11q-45 0 -81.5 36.5t-71 72.5t-71.5 56t-85 -10l-426 -277v134q0 26 16 42.5t16 31.5 q0 35 -23 34q-13 0 -27 -15.5t-14 -33.5v-214l-13 -9q-14 -10 -32 -22t-39.5 -23.5t-39.5 -23.5q-11 -5 -24.5 -1t-13.5 18v115q0 71 -32 121.5t-80 81.5t-104 44t-107 13q-173 0 -252.5 -84t-79.5 -196zM658 500v940q0 46 25 88t56 74t56 49.5t25 15.5v-1380q0 -21 -25 -13 t-56 38.5t-56 78.5t-25 109zM762 2090q5 -7 54.5 3t109 40.5t117 77.5t80.5 111l-125 101q-23 -79 -64.5 -139.5t-81.5 -100t-67.5 -62.5t-22.5 -31zM852 292v409q0 18 25 38t63 33t79 22t70 9q30 0 71 -9t78 -23t62.5 -33t25.5 -37v-165q0 -64 -30.5 -120.5t-81 -99 t-118.5 -67.5t-143 -25q-43 0 -72 15t-29 53zM852 812v463q0 35 13.5 36.5t41.5 -12t72.5 -29.5t109.5 -16q64 0 109 16t73 29.5t41.5 12t13.5 -36.5v-463q0 -20 -4 -26t-12 -6q-20 0 -74 28t-147 28t-146.5 -28t-74.5 -28q-7 0 -11.5 5t-4.5 27zM852 1390v295q0 2 30.5 25 t74.5 49.5t88 46.5t73 20q48 0 81 -14.5t57 -31.5t40.5 -32t29.5 -15v-343q0 -21 -25.5 -40t-62.5 -32t-78.5 -22.5t-70.5 -9.5t-70 9.5t-79 24t-63 33.5t-25 37z" />
<glyph unicode="&#xde;" horiz-adv-x="1730" d="M35 1638q0 -18 5 -20q3 0 20 23t46 51t72 50.5t96 22.5q89 0 150 -39t61 -158v-367l-32 4t-77 4q-46 0 -81.5 -19t-61 -47t-40.5 -61t-15 -65q0 -43 6.5 -73.5t18.5 -30.5q2 0 10 21.5t25.5 48t47 48t77.5 21.5q53 0 87.5 -12t34.5 -79v-453q-61 0 -132 -34.5t-131 -87.5 t-100 -119.5t-40 -133.5q0 -13 3 -23.5t9 -10.5q2 0 23 34.5t61 77.5t102.5 77t151.5 34q20 0 36.5 -6.5t16.5 -33.5v-429q0 -71 -28 -126t-60 -94.5t-60 -63.5t-28 -32q0 -13 12 -19t22 -6q30 0 60.5 24.5t63.5 53.5t73 53t90 24q43 0 77.5 -30.5t62.5 -67.5t53.5 -68 t50.5 -31q35 0 33 35q0 32 -18 90.5t-18 106.5v389q0 16 6.5 19.5t19.5 3.5q18 0 42 -17.5t47 -41t39 -47.5t16 -38q13 0 50 34t92 75t123 74t140 33q74 0 115.5 -13t59.5 -13q21 0 22 16q0 10 -16 25t-36.5 43t-36 70t-15.5 107v804q13 0 43.5 16t61 38t54.5 45t24 37 q0 11 -7 11q-13 0 -36 -12.5t-87 -12.5q-48 0 -77 26.5t-49 58.5t-39 58.5t-45 26.5q-16 0 -43 -15l-468 -293v716q0 21 17 29t17 32q0 13 -9 19.5t-22 6.5t-24.5 -13t-11.5 -53v-759l-170 -107v552q0 180 -73.5 266t-240.5 86q-62 0 -119 -40.5t-100.5 -95t-71.5 -113 t-28 -97.5zM668 -133v1174l170 107v-1435q0 -21 -3.5 -44t-24.5 -23q-18 0 -43 14.5t-47 42.5t-37 69.5t-15 94.5zM871 338v203q0 21 25.5 42t62.5 37t79 27t75 11q43 0 85 -12.5t77 -33t57.5 -47.5t22.5 -59v-229q0 -53 -43.5 -86.5t-76.5 -33.5q-38 0 -77.5 28t-83 62.5 t-94 62.5t-109.5 28zM871 660v247q0 38 10 38q13 0 57.5 -20t153.5 -20q74 0 135 21.5t96 21.5q33 0 32 -43v-250q0 -32 -13 -32q-11 0 -31 11t-49.5 22.5t-66.5 22t-82 10.5q-41 0 -76.5 -9t-63.5 -21t-48 -21.5t-33 -9.5q-11 0 -16 6t-5 26zM871 1024v145l287 180 q8 6 18 6q6 0 26 -19.5t45.5 -45t54.5 -45.5t53 -20v-186q0 -19 -25 -37.5t-65 -32t-86.5 -23t-86.5 -9.5q-30 0 -68.5 4t-71.5 13t-57 26.5t-24 43.5z" />
<glyph unicode="&#xdf;" horiz-adv-x="986" d="M38 16q0 -13 8 -13q15 0 39 9t57.5 20t78.5 20t107 9q68 0 107 -21.5t57.5 -46.5t22.5 -46t6 -21q8 0 25.5 21t45.5 50t68.5 59t93.5 43q66 18 107 26t65 9t32 1h10q0 5 -11.5 20t-26 38t-26.5 56t-12 73v407q0 82 -41 133t-90.5 80.5t-91 45.5t-41.5 26q0 13 40 52 t89.5 100t89.5 146.5t40 191.5q0 66 -16.5 124.5t-44.5 103t-67.5 69.5t-87.5 25q-82 0 -184.5 -55.5t-192 -143.5t-149 -194.5t-59.5 -210.5v-711q0 -120 -12.5 -197t-12.5 -83q0 -5 29.5 9t65 48t65.5 89t30 134v825q0 74 28 149t74 132t103.5 93t112.5 36q54 0 82 -32 t40 -82t12 -110v-112q0 -141 -33.5 -224.5t-72 -129t-71.5 -59.5t-33 -19q0 -6 35.5 -19.5t80 -39t81.5 -69t37 -110.5v-450q0 -77 -19 -122.5t-80 -45.5q-38 0 -52 11t-22 24q-16 21 -36 37.5t-79 16.5q-81 0 -154.5 -27t-128.5 -60t-86.5 -65.5t-31.5 -42.5z" />
<glyph unicode="&#xe0;" horiz-adv-x="1037" d="M18 218q0 -42 11 -86t35 -79t60 -55.5t89 -20.5q56 0 119.5 43.5t121 96.5t96.5 101t44 54q0 -8 1.5 -60t10.5 -109t28 -104t52 -47q8 0 53.5 32t95 72t89 74.5t39.5 39.5q0 3 -11.5 -1t-30.5 -11.5t-41.5 -15t-43.5 -7.5q-33 0 -56 20.5t-23 83.5v589l37 24t81 57t81 69 t37 66q0 10 -15 23t-28 13q-26 0 -37 -30.5t-24 -64.5q-13 -26 -30.5 -47.5t-55.5 -21.5q-23 0 -36 29.5t-29 65t-37.5 66.5t-58.5 31q-10 0 -40 -38.5t-77.5 -84t-113 -84t-145.5 -38.5l7 13q7 13 16 34.5t17.5 48t8.5 50.5q0 37 -21.5 62.5t-82.5 25.5q-56 0 -81.5 -29 t-25.5 -75q0 -45 21.5 -97t55.5 -86l205 -206q-51 0 -114.5 -26.5t-119.5 -76t-95 -121t-39 -162.5zM178 348q0 46 19 86t48 71t65 47.5t71 16.5q38 0 58.5 -6.5t25.5 -0.5q3 2 -18 27l-213 212q-8 8 -5.5 13.5t10.5 5.5q48 0 95 16t86.5 36t67.5 36t36 16q32 0 50 -26.5 t18 -64.5v-513l-23 -31q-23 -30 -59 -66.5t-81 -67t-91 -30.5q-77 0 -118.5 69.5t-41.5 153.5zM218 1448q24 -64 81 -110.5t117.5 -77t109.5 -41t54.5 -2.5t-21 30.5t-67 62t-82.5 99.5t-67 141z" />
<glyph unicode="&#xe1;" horiz-adv-x="1037" d="M18 218q0 -42 11 -86t35 -79t60 -55.5t89 -20.5q56 0 119.5 43.5t121 96.5t96.5 101t44 54q0 -8 1.5 -60t10.5 -109t28 -104t52 -47q8 0 53.5 32t95 72t89 74.5t39.5 39.5q0 3 -11.5 -1t-30.5 -11.5t-41.5 -15t-43.5 -7.5q-33 0 -56 20.5t-23 83.5v589l37 24t81 57t81 69 t37 66q0 10 -15 23t-28 13q-26 0 -37 -30.5t-24 -64.5q-13 -26 -30.5 -47.5t-55.5 -21.5q-23 0 -36 29.5t-29 65t-37.5 66.5t-58.5 31q-10 0 -40 -38.5t-77.5 -84t-113 -84t-145.5 -38.5l7 13q7 13 16 34.5t17.5 48t8.5 50.5q0 37 -21.5 62.5t-82.5 25.5q-56 0 -81.5 -29 t-25.5 -75q0 -45 21.5 -97t55.5 -86l205 -206q-51 0 -114.5 -26.5t-119.5 -76t-95 -121t-39 -162.5zM178 348q0 46 19 86t48 71t65 47.5t71 16.5q38 0 58.5 -6.5t25.5 -0.5q3 2 -18 27l-213 212q-8 8 -5.5 13.5t10.5 5.5q48 0 95 16t86.5 36t67.5 36t36 16q32 0 50 -26.5 t18 -64.5v-513l-23 -31q-23 -30 -59 -66.5t-81 -67t-91 -30.5q-77 0 -118.5 69.5t-41.5 153.5zM341 1222q5 -8 54.5 2.5t109 41t117 77.5t81.5 110l-126 102q-23 -79 -64.5 -139.5t-81.5 -100.5t-68 -62.5t-22 -30.5z" />
<glyph unicode="&#xe2;" horiz-adv-x="1037" d="M18 218q0 -42 11 -86t35 -79t60 -55.5t89 -20.5q56 0 119.5 43.5t121 96.5t96.5 101t44 54q0 -8 1.5 -60t10.5 -109t28 -104t52 -47q8 0 53.5 32t95 72t89 74.5t39.5 39.5q0 3 -11.5 -1t-30.5 -11.5t-41.5 -15t-43.5 -7.5q-33 0 -56 20.5t-23 83.5v589l37 24t81 57t81 69 t37 66q0 10 -15 23t-28 13q-26 0 -37 -30.5t-24 -64.5q-13 -26 -30.5 -47.5t-55.5 -21.5q-23 0 -36 29.5t-29 65t-37.5 66.5t-58.5 31q-10 0 -40 -38.5t-77.5 -84t-113 -84t-145.5 -38.5l7 13q7 13 16 34.5t17.5 48t8.5 50.5q0 37 -21.5 62.5t-82.5 25.5q-56 0 -81.5 -29 t-25.5 -75q0 -45 21.5 -97t55.5 -86l205 -206q-51 0 -114.5 -26.5t-119.5 -76t-95 -121t-39 -162.5zM178 348q0 46 19 86t48 71t65 47.5t71 16.5q38 0 58.5 -6.5t25.5 -0.5q3 2 -18 27l-213 212q-8 8 -5.5 13.5t10.5 5.5q48 0 95 16t86.5 36t67.5 36t36 16q32 0 50 -26.5 t18 -64.5v-513l-23 -31q-23 -30 -59 -66.5t-81 -67t-91 -30.5q-77 0 -118.5 69.5t-41.5 153.5zM338 1245l25 -23l199 200q2 -5 30 -44t77.5 -89.5t94.5 -69.5l69 69q-30 8 -69.5 44.5t-74 76t-58.5 72.5l-24 33z" />
<glyph unicode="&#xe3;" horiz-adv-x="1037" d="M18 218q0 -42 11 -86t35 -79t60 -55.5t89 -20.5q56 0 119.5 43.5t121 96.5t96.5 101t44 54q0 -8 1.5 -60t10.5 -109t28 -104t52 -47q8 0 53.5 32t95 72t89 74.5t39.5 39.5q0 3 -11.5 -1t-30.5 -11.5t-41.5 -15t-43.5 -7.5q-33 0 -56 20.5t-23 83.5v589l37 24t81 57t81 69 t37 66q0 10 -15 23t-28 13q-26 0 -37 -30.5t-24 -64.5q-13 -26 -30.5 -47.5t-55.5 -21.5q-23 0 -36 29.5t-29 65t-37.5 66.5t-58.5 31q-10 0 -40 -38.5t-77.5 -84t-113 -84t-145.5 -38.5l7 13q7 13 16 34.5t17.5 48t8.5 50.5q0 37 -21.5 62.5t-82.5 25.5q-56 0 -81.5 -29 t-25.5 -75q0 -45 21.5 -97t55.5 -86l205 -206q-51 0 -114.5 -26.5t-119.5 -76t-95 -121t-39 -162.5zM178 348q0 46 19 86t48 71t65 47.5t71 16.5q38 0 58.5 -6.5t25.5 -0.5q3 2 -18 27l-213 212q-8 8 -5.5 13.5t10.5 5.5q48 0 95 16t86.5 36t67.5 36t36 16q32 0 50 -26.5 t18 -64.5v-513l-23 -31q-23 -30 -59 -66.5t-81 -67t-91 -30.5q-77 0 -118.5 69.5t-41.5 153.5zM261 1217q3 -3 17 7.5t39.5 24t61.5 24t81 10.5q48 0 76 -6.5t48 -14.5t39 -15t48 -7q53 0 98.5 32.5t77.5 71t49 71.5t14 35.5t-16 -7.5t-37 -22.5t-57 -23t-73 -10.5 q-38 0 -60 6.5t-42.5 16.5t-44.5 16.5t-61 6.5q-61 0 -110.5 -32t-84 -72.5t-50 -75t-13.5 -36.5z" />
<glyph unicode="&#xe4;" horiz-adv-x="1037" d="M18 218q0 -42 11 -86t35 -79t60 -55.5t89 -20.5q56 0 119.5 43.5t121 96.5t96.5 101t44 54q0 -8 1.5 -60t10.5 -109t28 -104t52 -47q8 0 53.5 32t95 72t89 74.5t39.5 39.5q0 3 -11.5 -1t-30.5 -11.5t-41.5 -15t-43.5 -7.5q-33 0 -56 20.5t-23 83.5v589l37 24t81 57t81 69 t37 66q0 10 -15 23t-28 13q-26 0 -37 -30.5t-24 -64.5q-13 -26 -30.5 -47.5t-55.5 -21.5q-23 0 -36 29.5t-29 65t-37.5 66.5t-58.5 31q-10 0 -40 -38.5t-77.5 -84t-113 -84t-145.5 -38.5l7 13q7 13 16 34.5t17.5 48t8.5 50.5q0 37 -21.5 62.5t-82.5 25.5q-56 0 -81.5 -29 t-25.5 -75q0 -45 21.5 -97t55.5 -86l205 -206q-51 0 -114.5 -26.5t-119.5 -76t-95 -121t-39 -162.5zM94 1296q0 -10 7 -10q8 0 21.5 9.5t27.5 9.5q12 0 26.5 -13.5t33.5 -30t45.5 -29.5t66.5 -13q38 0 72.5 15t60 36t41 46.5t15.5 47.5q0 5 -17 -2t-47 -7q-45 0 -75.5 17.5 t-53.5 37.5t-34.5 37t-19.5 17q-10 0 -27 -16l-133 -132q-10 -11 -10 -20zM178 348q0 46 19 86t48 71t65 47.5t71 16.5q38 0 58.5 -6.5t25.5 -0.5q3 2 -18 27l-213 212q-8 8 -5.5 13.5t10.5 5.5q48 0 95 16t86.5 36t67.5 36t36 16q32 0 50 -26.5t18 -64.5v-513l-23 -31 q-23 -30 -59 -66.5t-81 -67t-91 -30.5q-77 0 -118.5 69.5t-41.5 153.5zM572 1296q0 -10 8 -10t21.5 9.5t26.5 9.5t28 -13.5t33.5 -30t45.5 -29.5t66 -13q37 0 71.5 15t60 36t42 46.5t16.5 47.5q0 5 -17.5 -2t-46.5 -7q-46 0 -76.5 17.5t-53 37.5t-34.5 37t-21 17 q-15 0 -26 -16l-132 -132q-11 -11 -12 -20z" />
<glyph unicode="&#xe5;" horiz-adv-x="1037" d="M18 218q0 -42 11 -86t35 -79t60 -55.5t89 -20.5q56 0 119.5 43.5t121 96.5t96.5 101t44 54q0 -8 1.5 -60t10.5 -109t28 -104t52 -47q8 0 53.5 32t95 72t89 74.5t39.5 39.5q0 3 -11.5 -1t-30.5 -11.5t-41.5 -15t-43.5 -7.5q-33 0 -56 20.5t-23 83.5v589l37 24t81 57t81 69 t37 66q0 10 -15 23t-28 13q-26 0 -37 -30.5t-24 -64.5q-13 -26 -30.5 -47.5t-55.5 -21.5q-23 0 -36 29.5t-29 65t-37.5 66.5t-58.5 31q-10 0 -40 -38.5t-77.5 -84t-113 -84t-145.5 -38.5l7 13q7 13 16 34.5t17.5 48t8.5 50.5q0 37 -21.5 62.5t-82.5 25.5q-56 0 -81.5 -29 t-25.5 -75q0 -45 21.5 -97t55.5 -86l205 -206q-51 0 -114.5 -26.5t-119.5 -76t-95 -121t-39 -162.5zM178 348q0 46 19 86t48 71t65 47.5t71 16.5q38 0 58.5 -6.5t25.5 -0.5q3 2 -18 27l-213 212q-8 8 -5.5 13.5t10.5 5.5q48 0 95 16t86.5 36t67.5 36t36 16q32 0 50 -26.5 t18 -64.5v-513l-23 -31q-23 -30 -59 -66.5t-81 -67t-91 -30.5q-77 0 -118.5 69.5t-41.5 153.5zM322 1395q0 -77 53.5 -130t130.5 -53q40 0 73 16.5t57 43.5t36 60.5t12 65.5q0 23 -12 53t-34.5 54t-54.5 39.5t-72 15.5q-46 0 -80.5 -15.5t-58.5 -39.5t-37 -53.5t-13 -56.5z M370 1427q0 30 32 68.5t80 38.5q35 0 64 -20t47.5 -48t29 -58.5t10.5 -55.5q0 -51 -34.5 -80t-92.5 -29q-24 0 -48 17.5t-44 44t-32 58.5t-12 64z" />
<glyph unicode="&#xe6;" horiz-adv-x="1314" d="M21 224q0 -97 45.5 -172t146.5 -75q64 0 130.5 31.5t121 70t72.5 54.5l55 48q0 -74 29 -127.5t67.5 -86.5t73 -48t41.5 -15q11 0 48.5 19t85.5 48t100 63.5t95.5 65t71.5 53.5t28 28q0 15 -33 17q-26 0 -53.5 -21.5t-60.5 -45.5t-75 -45.5t-97 -21.5q-33 0 -60 17.5 t-48.5 41.5t-34.5 52t-13 49v71l460 462q5 5 5 13q0 26 -33 87.5t-73.5 122.5t-76 107.5t-41.5 46.5q-5 0 -23.5 -21t-46.5 -47.5t-61.5 -48t-65.5 -21.5q-30 0 -48.5 17.5t-35 38t-34 38.5t-41.5 18q-10 0 -40 -38.5t-76 -84t-112 -84t-148 -38.5q3 3 12 25t21.5 59.5 t12.5 71.5q0 33 -21.5 55.5t-79.5 22.5q-59 0 -83 -30.5t-24 -75.5q0 -46 20 -95.5t57 -85.5l205 -206q-38 0 -99 -21t-119.5 -68t-102.5 -118.5t-44 -172.5zM178 341q0 53 19 96t49.5 72t65 44.5t66.5 15.5q41 0 64 -9t23 4q0 5 -6.5 12.5t-11.5 12.5l-213 212 q-13 13 -9 12t4 2q0 5 40 8t107 26q50 18 92.5 46.5t55.5 28.5q30 0 49 -30.5t19 -60.5v-604q-6 -3 -41 -27t-96 -50.5t-120 -26.5q-55 0 -106 63t-51 153zM757 343v567q0 8 23 33t66 25q33 0 74 -29t86 -108q18 -35 34.5 -71t16.5 -71q0 -45 -29 -74z" />
<glyph unicode="&#xe7;" horiz-adv-x="877" d="M0 61q0 -10 9 -6.5t26.5 11.5t39 16.5t42.5 8.5q38 0 73.5 -16.5t65 -44t47 -63.5t14.5 -76q0 -18 18.5 -41t28 -44.5t-4 -35.5t-79.5 -14q-16 0 -2 -11t42 -16.5t60 1t46 44.5q8 21 -7 41t-28 40t-18 41.5t23 50.5q51 50 123.5 99.5t130.5 92t86 74t-9 48.5 q-16 5 -23.5 -6t-24 -31.5t-48.5 -47t-95 -51.5q-8 -3 -44.5 11t-76 33t-71.5 40.5t-32 34.5v650q0 51 6.5 66t19.5 6.5t33 -32.5t49.5 -48.5t64 -43.5t79.5 -19q59 3 105.5 28t77 55.5t38.5 54.5t-10 22q-59 -8 -103 13t-73.5 48.5t-47.5 50.5t-30 18q-63 -41 -110.5 -68.5 t-97 -42t-105.5 -17t-131 5.5q-24 2 -17.5 -7t24 -28t34.5 -48t17 -70v-596q0 -5 -19.5 -23.5t-43.5 -43.5t-46.5 -56.5t-25.5 -57.5z" />
<glyph unicode="&#xe8;" horiz-adv-x="851" d="M0 8l23 12t68 12q48 0 90.5 -20t75.5 -44t55.5 -44t28.5 -20q5 0 39.5 19t82.5 48t101.5 62t98.5 65t76 55t31 28q0 10 -13 10h-20q-21 0 -46 -17t-53 -39.5t-58.5 -40t-63.5 -17.5q-35 0 -62.5 18.5t-56.5 37.5t-67 38.5t-38 49.5v74l462 462q13 13 -16.5 72.5t-72 127 t-81 122.5t-46.5 55q-5 0 -36 -28t-82.5 -62.5t-121 -62.5t-151.5 -28q-16 0 -42 1.5t-31 1.5q-18 0 -18 -14q0 -2 10.5 -10t25.5 -21.5t25 -37.5t10 -58v-620q0 -18 -19.5 -37.5t-43.5 -41.5t-44 -47.5t-20 -60.5zM117 1453q23 -63 81 -110t118 -77.5t109 -41t54.5 -2.5 t-21 30.5t-67 62.5t-83 100.5t-66.5 139.5zM292 343v567q0 8 24.5 35t67.5 27q32 0 69 -31t67.5 -74.5t52 -93t21.5 -87.5q0 -13 -7 -34.5t-23 -36.5z" />
<glyph unicode="&#xe9;" horiz-adv-x="851" d="M0 8l23 12t68 12q48 0 90.5 -20t75.5 -44t55.5 -44t28.5 -20q5 0 39.5 19t82.5 48t101.5 62t98.5 65t76 55t31 28q0 10 -13 10h-20q-21 0 -46 -17t-53 -39.5t-58.5 -40t-63.5 -17.5q-35 0 -62.5 18.5t-56.5 37.5t-67 38.5t-38 49.5v74l462 462q13 13 -16.5 72.5t-72 127 t-81 122.5t-46.5 55q-5 0 -36 -28t-82.5 -62.5t-121 -62.5t-151.5 -28q-16 0 -42 1.5t-31 1.5q-18 0 -18 -14q0 -2 10.5 -10t25.5 -21.5t25 -37.5t10 -58v-620q0 -18 -19.5 -37.5t-43.5 -41.5t-44 -47.5t-20 -60.5zM261 1217q5 -8 54.5 2.5t109.5 41t117 77t81 110.5 l-125 102q-24 -80 -65.5 -140.5t-81 -100t-67.5 -62t-23 -30.5zM292 343v567q0 8 24.5 35t67.5 27q32 0 69 -31t67.5 -74.5t52 -93t21.5 -87.5q0 -13 -7 -34.5t-23 -36.5z" />
<glyph unicode="&#xea;" horiz-adv-x="851" d="M0 8l23 12t68 12q48 0 90.5 -20t75.5 -44t55.5 -44t28.5 -20q5 0 39.5 19t82.5 48t101.5 62t98.5 65t76 55t31 28q0 10 -13 10h-20q-21 0 -46 -17t-53 -39.5t-58.5 -40t-63.5 -17.5q-35 0 -62.5 18.5t-56.5 37.5t-67 38.5t-38 49.5v74l462 462q13 13 -16.5 72.5t-72 127 t-81 122.5t-46.5 55q-5 0 -36 -28t-82.5 -62.5t-121 -62.5t-151.5 -28q-16 0 -42 1.5t-31 1.5q-18 0 -18 -14q0 -2 10.5 -10t25.5 -21.5t25 -37.5t10 -58v-620q0 -18 -19.5 -37.5t-43.5 -41.5t-44 -47.5t-20 -60.5zM183 1245l25 -23l199 200q3 -5 30.5 -44t77 -89.5 t95.5 -69.5l69 69q-30 8 -70 44.5t-74.5 76t-58.5 72.5l-24 33zM292 343v567q0 8 24.5 35t67.5 27q32 0 69 -31t67.5 -74.5t52 -93t21.5 -87.5q0 -13 -7 -34.5t-23 -36.5z" />
<glyph unicode="&#xeb;" horiz-adv-x="851" d="M0 8l23 12t68 12q48 0 90.5 -20t75.5 -44t55.5 -44t28.5 -20q5 0 39.5 19t82.5 48t101.5 62t98.5 65t76 55t31 28q0 10 -13 10h-20q-21 0 -46 -17t-53 -39.5t-58.5 -40t-63.5 -17.5q-35 0 -62.5 18.5t-56.5 37.5t-67 38.5t-38 49.5v74l462 462q13 13 -16.5 72.5t-72 127 t-81 122.5t-46.5 55q-5 0 -36 -28t-82.5 -62.5t-121 -62.5t-151.5 -28q-16 0 -42 1.5t-31 1.5q-18 0 -18 -14q0 -2 10.5 -10t25.5 -21.5t25 -37.5t10 -58v-620q0 -18 -19.5 -37.5t-43.5 -41.5t-44 -47.5t-20 -60.5zM18 1296q0 -10 8 -10t21.5 9.5t26.5 9.5t28 -13.5t34 -30 t45.5 -29.5t65.5 -13q38 0 72.5 15t59.5 36t41.5 46.5t16.5 47.5q0 5 -17.5 -2t-46.5 -7q-45 0 -76 17.5t-53.5 37.5t-34 37t-21.5 17t-26 -16l-132 -132q-10 -11 -12 -20zM292 343v567q0 8 24.5 35t67.5 27q32 0 69 -31t67.5 -74.5t52 -93t21.5 -87.5q0 -13 -7 -34.5 t-23 -36.5zM498 1296q0 -10 8 -10t21.5 9.5t26.5 9.5t28 -13.5t33 -30t44.5 -29.5t67.5 -13q37 0 71.5 15t60 36t41.5 46.5t16 47.5q0 5 -17.5 -2t-46.5 -7q-46 0 -76.5 17.5t-52.5 37.5t-34.5 37t-20.5 17q-10 0 -26 -16l-134 -132q-10 -11 -10 -20z" />
<glyph unicode="&#xec;" horiz-adv-x="600" d="M8 922q0 -6 5 -6t13.5 3t11.5 5q10 11 27 13.5t17 -2.5q2 -13 16 -25.5t30 -20.5t28 -13l12 -5v-647q0 -64 16 -117.5t35.5 -93t40 -61t25.5 -21.5t37 23t68 50.5t67 52.5t31 34q2 13 -22 26t-53 37t-54.5 67t-25.5 114v517l23 8q22 8 52.5 25t58.5 50t36 87l-24 -9 q-24 -9 -59.5 -12t-80 13.5t-83.5 69.5q-13 16 -29 30t-44 -12l-160 -160q-15 -15 -15 -20zM21 1453q23 -63 81 -110t118 -77.5t109 -41t54.5 -2.5t-21.5 30.5t-66.5 62.5t-82.5 100.5t-66 139.5z" />
<glyph unicode="&#xed;" horiz-adv-x="600" d="M8 922q0 -6 5 -6t13.5 3t11.5 5q10 11 27 13.5t17 -2.5q2 -13 16 -25.5t30 -20.5t28 -13l12 -5v-647q0 -64 16 -117.5t35.5 -93t40 -61t25.5 -21.5t37 23t68 50.5t67 52.5t31 34q2 13 -22 26t-53 37t-54.5 67t-25.5 114v517l23 8q22 8 52.5 25t58.5 50t36 87l-24 -9 q-24 -9 -59.5 -12t-80 13.5t-83.5 69.5q-13 16 -29 30t-44 -12l-160 -160q-15 -15 -15 -20zM69 1217q5 -8 54.5 2.5t109 41t117 77t82.5 110.5l-125 102q-24 -80 -65.5 -140.5t-81.5 -100t-68 -62t-23 -30.5z" />
<glyph unicode="&#xee;" horiz-adv-x="600" d="M8 922q0 -6 5 -6t13.5 3t11.5 5q10 11 27 13.5t17 -2.5q2 -13 16 -25.5t30 -20.5t28 -13l12 -5v-647q0 -64 16 -117.5t35.5 -93t40 -61t25.5 -21.5t37 23t68 50.5t67 52.5t31 34q2 13 -22 26t-53 37t-54.5 67t-25.5 114v517l23 8q22 8 52.5 25t58.5 50t36 87l-24 -9 q-24 -9 -59.5 -12t-80 13.5t-83.5 69.5q-13 16 -29 30t-44 -12l-160 -160q-15 -15 -15 -20zM18 1245l25 -23l199 200q2 -5 30 -44t77.5 -89.5t95.5 -69.5l69 69q-30 8 -70 44.5t-74.5 76t-58.5 72.5l-24 33z" />
<glyph unicode="&#xef;" horiz-adv-x="600" d="M-125 1296q0 -10 8 -10t21.5 9.5t26.5 9.5t28 -13.5t33 -30t45 -29.5t67 -13q38 0 72.5 15t59.5 36t40.5 46.5t15.5 47.5q0 5 -16.5 -2t-46.5 -7q-46 0 -76.5 17.5t-53 37.5t-34.5 37t-19 17q-11 0 -28 -16l-132 -132q-11 -11 -11 -20zM8 922q0 -6 5 -6t13.5 3t11.5 5 q10 11 27 13.5t17 -2.5q2 -13 16 -25.5t30 -20.5t28 -13l12 -5v-647q0 -64 16 -117.5t35.5 -93t40 -61t25.5 -21.5t37 23t68 50.5t67 52.5t31 34q2 13 -22 26t-53 37t-54.5 67t-25.5 114v517l23 8q22 8 52.5 25t58.5 50t36 87l-24 -9q-24 -9 -59.5 -12t-80 13.5t-83.5 69.5 q-13 16 -29 30t-44 -12l-160 -160q-15 -15 -15 -20zM354 1296q0 -10 9 -10q7 0 20 9.5t27 9.5q12 0 27 -13.5t34 -30t45.5 -29.5t67.5 -13q37 0 71 15t59.5 36t41.5 46.5t16 47.5q0 5 -17.5 -2t-46.5 -7q-45 0 -75.5 17.5t-53.5 37.5t-34.5 37t-20.5 17q-10 0 -26 -16 l-133 -132q-10 -11 -11 -20z" />
<glyph unicode="&#xf0;" d="M-16 1646q0 -11 16 -20.5t42.5 -25t59.5 -39.5t66 -59l91 -102h-15q-42 0 -87 -35.5t-79.5 -78.5t-54.5 -81.5t-15 -40.5q5 -6 16 2t32 20.5t60 21.5t100 9h210l110 -120q15 -18 -28 -49t-114.5 -60.5t-156.5 -50.5t-151 -21q-18 0 -20 -11q0 -5 14 -14.5t29.5 -21.5 t29 -27.5t13.5 -31.5v-592q0 -5 -24 -25t-52 -44t-50.5 -48t-22.5 -37t26.5 -2.5t79.5 10.5q51 0 94.5 -24.5t78.5 -53.5t56 -52.5t27 -23.5q8 0 49 32t108 70t151 70t173 32q59 0 94 -9t45 -9q19 0 19 10q0 8 -18 27t-37 45.5t-37 60t-18 70.5v405q0 42 25.5 80.5t56 70.5 t56 57.5t25.5 41.5q0 8 -11 16q-7 3 -42.5 -17.5t-76.5 -20.5q-21 0 -40 8t-38 30l-202 229h37q50 0 97 35.5t83 80t54.5 81.5t11 39.5t-20 -5.5t-30.5 -18t-50.5 -20t-80.5 -10h-263l-198 226q-26 30 -37 64.5t-16 65t-10.5 50.5t-20.5 20q-18 0 -37 -38t-59 -71 q-41 -35 -82 -46.5t-41 -24.5zM317 226v635q0 29 32 55t75.5 49t89 40t75.5 31q8 -8 30.5 -32t46 -50.5t43.5 -50.5t20 -29v-663q0 -21 -28 -41t-63.5 -39t-66 -29.5t-35.5 -10.5q-16 0 -52.5 19.5t-73.5 43.5t-65 45.5t-28 26.5z" />
<glyph unicode="&#xf1;" horiz-adv-x="1166" d="M0 -3l43 9q43 10 90 10q63 0 103.5 -13t64.5 -31t35.5 -31t17.5 -13l174 176q0 10 -9 10q-11 0 -25 -13t-29 -13q-7 0 -17.5 9.5t-28 21t-41.5 22.5t-58 11v511q0 18 26.5 62.5t65 91t82.5 81t81 34.5q29 0 52 -17.5t41 -40t30.5 -39.5t20.5 -17v-594q0 -86 16 -140 t37 -88t42.5 -47t31.5 -13q8 0 46 24t78.5 53.5t74 57.5t33.5 33q0 3 -30.5 -2.5t-66.5 -3t-66.5 24t-30.5 80.5v615q10 0 34 13t51 35.5t47 53t20 68.5l-25 -14q-26 -13 -69 -13q-50 0 -82 21.5t-58.5 48t-52 48t-60.5 21.5q-21 0 -42.5 -8t-44.5 -32l-282 -283 q0 19 -2.5 69.5t-15 104t-38 96t-69.5 42.5q-30 0 -63 -29t-62.5 -65.5t-49.5 -68.5t-20 -34q0 -8 34.5 -12t69.5 -28q21 -16 36 -41.5t15 -70.5v-588q-21 0 -48.5 -17.5t-51 -41.5t-39.5 -50.5t-16 -45.5zM234 1217q3 -3 17.5 7.5t40 24t61.5 24t81 10.5q48 0 76 -6.5 t47.5 -14.5t38.5 -15t49 -7q53 0 98 32.5t77 71t49.5 71.5t14.5 35.5t-16.5 -7.5t-37 -22.5t-57 -23t-72.5 -10.5q-38 0 -60.5 6.5t-43 16.5t-44 16.5t-60.5 6.5q-61 0 -110.5 -32t-84 -72.5t-51 -75t-13.5 -36.5z" />
<glyph unicode="&#xf2;" d="M-5 53l33 7q33 6 60 6q54 0 98.5 -24t76.5 -53t53.5 -53t26.5 -24q3 0 59 32.5t136 70.5t169 70t161 32q16 0 41.5 -1.5t46.5 -1.5q23 0 39 1.5t16 6.5q0 13 -21.5 26.5t-47.5 30t-47 36t-21 46.5v546q0 3 24 24t53 47.5t53 50.5t24 34q-5 0 -30.5 -2.5t-65.5 0t-66 17.5 q-35 15 -65.5 40.5t-54.5 48t-42 38.5t-25 16q-8 0 -42.5 -29.5t-98.5 -64t-158.5 -63.5t-224.5 -29q-13 0 -38.5 2.5t-42 3.5t-18.5 1q0 -12 11.5 -27t28 -33.5t28 -41t11.5 -52.5v-522q0 -45 -22 -75.5t-47.5 -54.5t-48 -43t-22.5 -40zM218 1453q24 -63 81 -110 t117.5 -77.5t109.5 -41t54.5 -2.5t-21 30.5t-67 62.5t-82.5 100.5t-67 139.5zM300 242v604q0 18 16.5 36t42 33t54.5 22.5t52 7.5q43 0 87.5 -20t79 -44t55.5 -45t21 -24v-631q0 -24 -21 -45.5t-49 -37.5t-55 -24t-37 -8q-8 0 -48 19t-84 45.5t-79 57t-35 54.5z" />
<glyph unicode="&#xf3;" d="M-5 53l33 7q33 6 60 6q54 0 98.5 -24t76.5 -53t53.5 -53t26.5 -24q3 0 59 32.5t136 70.5t169 70t161 32q16 0 41.5 -1.5t46.5 -1.5q23 0 39 1.5t16 6.5q0 13 -21.5 26.5t-47.5 30t-47 36t-21 46.5v546q0 3 24 24t53 47.5t53 50.5t24 34q-5 0 -30.5 -2.5t-65.5 0t-66 17.5 q-35 15 -65.5 40.5t-54.5 48t-42 38.5t-25 16q-8 0 -42.5 -29.5t-98.5 -64t-158.5 -63.5t-224.5 -29q-13 0 -38.5 2.5t-42 3.5t-18.5 1q0 -12 11.5 -27t28 -33.5t28 -41t11.5 -52.5v-522q0 -45 -22 -75.5t-47.5 -54.5t-48 -43t-22.5 -40zM300 242v604q0 18 16.5 36t42 33 t54.5 22.5t52 7.5q43 0 87.5 -20t79 -44t55.5 -45t21 -24v-631q0 -24 -21 -45.5t-49 -37.5t-55 -24t-37 -8q-8 0 -48 19t-84 45.5t-79 57t-35 54.5zM351 1217q5 -8 54.5 2.5t109.5 41t117 77t82 110.5l-125 102q-23 -80 -65 -140.5t-82 -100t-68 -62t-23 -30.5z" />
<glyph unicode="&#xf4;" d="M-5 53l33 7q33 6 60 6q54 0 98.5 -24t76.5 -53t53.5 -53t26.5 -24q3 0 59 32.5t136 70.5t169 70t161 32q16 0 41.5 -1.5t46.5 -1.5q23 0 39 1.5t16 6.5q0 13 -21.5 26.5t-47.5 30t-47 36t-21 46.5v546q0 3 24 24t53 47.5t53 50.5t24 34q-5 0 -30.5 -2.5t-65.5 0t-66 17.5 q-35 15 -65.5 40.5t-54.5 48t-42 38.5t-25 16q-8 0 -42.5 -29.5t-98.5 -64t-158.5 -63.5t-224.5 -29q-13 0 -38.5 2.5t-42 3.5t-18.5 1q0 -12 11.5 -27t28 -33.5t28 -41t11.5 -52.5v-522q0 -45 -22 -75.5t-47.5 -54.5t-48 -43t-22.5 -40zM300 242v604q0 18 16.5 36t42 33 t54.5 22.5t52 7.5q43 0 87.5 -20t79 -44t55.5 -45t21 -24v-631q0 -24 -21 -45.5t-49 -37.5t-55 -24t-37 -8q-8 0 -48 19t-84 45.5t-79 57t-35 54.5zM312 1245l23 -23l201 200q2 -5 30 -44t77 -89.5t94 -69.5l70 69q-30 8 -69.5 44.5t-74.5 76t-59 72.5l-24 33z" />
<glyph unicode="&#xf5;" d="M-5 53l33 7q33 6 60 6q54 0 98.5 -24t76.5 -53t53.5 -53t26.5 -24q3 0 59 32.5t136 70.5t169 70t161 32q16 0 41.5 -1.5t46.5 -1.5q23 0 39 1.5t16 6.5q0 13 -21.5 26.5t-47.5 30t-47 36t-21 46.5v546q0 3 24 24t53 47.5t53 50.5t24 34q-5 0 -30.5 -2.5t-65.5 0t-66 17.5 q-35 15 -65.5 40.5t-54.5 48t-42 38.5t-25 16q-8 0 -42.5 -29.5t-98.5 -64t-158.5 -63.5t-224.5 -29q-13 0 -38.5 2.5t-42 3.5t-18.5 1q0 -12 11.5 -27t28 -33.5t28 -41t11.5 -52.5v-522q0 -45 -22 -75.5t-47.5 -54.5t-48 -43t-22.5 -40zM234 1217q3 -3 17.5 7.5t40 24 t61.5 24t81 10.5q48 0 76 -6.5t47.5 -14.5t38.5 -15t49 -7q53 0 98 32.5t77 71t49.5 71.5t14.5 35.5t-16.5 -7.5t-37 -22.5t-57 -23t-72.5 -10.5q-38 0 -60.5 6.5t-43 16.5t-44 16.5t-60.5 6.5q-61 0 -110.5 -32t-84 -72.5t-51 -75t-13.5 -36.5zM300 242v604q0 18 16.5 36 t42 33t54.5 22.5t52 7.5q43 0 87.5 -20t79 -44t55.5 -45t21 -24v-631q0 -24 -21 -45.5t-49 -37.5t-55 -24t-37 -8q-8 0 -48 19t-84 45.5t-79 57t-35 54.5z" />
<glyph unicode="&#xf6;" d="M-5 53l33 7q33 6 60 6q54 0 98.5 -24t76.5 -53t53.5 -53t26.5 -24q3 0 59 32.5t136 70.5t169 70t161 32q16 0 41.5 -1.5t46.5 -1.5q23 0 39 1.5t16 6.5q0 13 -21.5 26.5t-47.5 30t-47 36t-21 46.5v546q0 3 24 24t53 47.5t53 50.5t24 34q-5 0 -30.5 -2.5t-65.5 0t-66 17.5 q-35 15 -65.5 40.5t-54.5 48t-42 38.5t-25 16q-8 0 -42.5 -29.5t-98.5 -64t-158.5 -63.5t-224.5 -29q-13 0 -38.5 2.5t-42 3.5t-18.5 1q0 -12 11.5 -27t28 -33.5t28 -41t11.5 -52.5v-522q0 -45 -22 -75.5t-47.5 -54.5t-48 -43t-22.5 -40zM109 1296q0 -10 8 -10t21.5 9.5 t26.5 9.5t28 -13.5t33 -30t45 -29.5t67 -13q38 0 72.5 15t59.5 36t41.5 46.5t16.5 47.5q0 5 -17.5 -2t-47.5 -7q-46 0 -76.5 17.5t-52.5 37.5t-34.5 37t-19.5 17q-11 0 -26 -16l-134 -132q-11 -11 -11 -20zM300 242v604q0 18 16.5 36t42 33t54.5 22.5t52 7.5q43 0 87.5 -20 t79 -44t55.5 -45t21 -24v-631q0 -24 -21 -45.5t-49 -37.5t-55 -24t-37 -8q-8 0 -48 19t-84 45.5t-79 57t-35 54.5zM589 1296q0 -10 8 -10q7 0 21 9.5t27 9.5t27 -13.5t33 -30t45.5 -29.5t67.5 -13q37 0 71.5 15t60 36t41 46.5t15.5 47.5q0 5 -17 -2t-47 -7q-45 0 -75.5 17.5 t-53.5 37.5t-34.5 37t-19.5 17q-10 0 -27 -16l-133 -132q-10 -11 -10 -20z" />
<glyph unicode="&#xf7;" horiz-adv-x="819" d="M56 857q5 -5 15.5 3t32 20t60.5 21t100 9h244q51 0 98 36.5t82.5 80t55.5 81t12 40t-20 -5.5t-31 -18.5t-50.5 -19.5t-79.5 -9h-283q-42 0 -87 -36.5t-79.5 -79t-54.5 -81.5t-15 -41zM264 589q0 -8 15.5 -34.5t38.5 -53.5t48 -48t41 -21l20 31q20 32 33 45q30 33 56.5 46 t26.5 26q0 10 -27.5 30t-49 47t-33.5 51t-23 24t-35 -18t-49.5 -42.5t-43.5 -48.5t-18 -34zM264 1427q0 -7 15.5 -34t38.5 -53.5t48 -48t41 -21.5l20 32q20 32 33 45q30 32 56.5 45t26.5 28q0 10 -27.5 29.5t-49 46t-33.5 50.5t-23 24t-35 -18t-49.5 -42t-43.5 -48t-18 -35z " />
<glyph unicode="&#xf8;" d="M0 53l31 7q30 6 57 6q24 0 37 -2.5t32 -12.5l-43 -61q-10 -13 -27.5 -16.5t-17.5 -21.5q0 -26 27 -26q8 0 17 8t14 18l61 83q69 -32 108 -77.5t47 -45.5q3 0 59 32.5t136 70.5t169 70t161 32q16 0 41.5 -1.5t46.5 -1.5q23 0 39 1.5t16 6.5q0 13 -21.5 26.5t-47.5 30 t-47 36t-21 46.5v546l24 21t53 47.5t53 52t24 35.5q-5 0 -33.5 -3.5t-78.5 4.5t-93 40l29 45q12 21 30 19.5t28 18.5q3 8 0 19.5t-10.5 19.5t-20.5 8q-11 0 -22 -19l-61 -93q-46 35 -75 67t-42 32q-8 0 -42.5 -29.5t-98.5 -64t-158.5 -63.5t-224.5 -29q-13 0 -38.5 2.5 t-42 3.5t-18.5 1q0 -12 11.5 -27t28 -33.5t28 -41t11.5 -52.5v-522q0 -45 -20.5 -75.5t-46 -54.5t-47 -43t-21.5 -40zM300 242v604q0 18 16.5 36t42 33t54.5 22.5t52 7.5q61 0 121 -38.5t95 -68.5zM317 205l391 613v-637q0 -24 -21 -45.5t-49 -37.5t-55 -24t-37 -8 q-8 0 -36 14t-63 33.5t-70.5 44t-59.5 47.5z" />
<glyph unicode="&#xf9;" horiz-adv-x="1176" d="M0 5q0 -2 39.5 8t82.5 10q59 0 94 -16.5t54.5 -38t33 -39t31.5 -17.5q33 0 79 37.5t92 82.5l213 212q0 -42 4 -100t16 -110t34.5 -88.5t57.5 -36.5l35 28q36 28 79 64.5t79 67t36 38.5q0 5 -12 6t-31 1q-16 0 -37.5 3t-39.5 16q-24 13 -40 45.5t-16 93.5v582 q5 0 31.5 8.5t57.5 26.5t56 52t25 81q0 2 -28 -9.5t-68 -11.5q-45 0 -77 19t-53 39.5t-36 39.5t-25 19q-16 0 -33 -16l-159 -160q-11 -10 -11 -18q0 -10 11 -11q10 0 21 13.5t22 13.5q12 0 18 -12t17 -28q13 -21 33 -33.5t33 -12.5v-564l-176 -176q-35 -35 -66 -35 q-21 0 -49.5 12.5t-55 28t-45 33t-18.5 28.5v607q0 82 -11 141t-26.5 97.5t-31.5 56t-24 17.5t-43 -28t-73.5 -61t-68.5 -61l-31 -28q0 -8 17.5 -12.5t40.5 -4.5q16 0 31 -4t26.5 -15.5t20 -35.5t8.5 -67v-628q-5 0 -27.5 -12.5t-49.5 -32t-47 -47.5t-20 -58zM218 1453 q24 -63 81 -110t117.5 -77.5t109.5 -41t54.5 -2.5t-21 30.5t-67 62.5t-82.5 100.5t-67 139.5z" />
<glyph unicode="&#xfa;" horiz-adv-x="1176" d="M0 5q0 -2 39.5 8t82.5 10q59 0 94 -16.5t54.5 -38t33 -39t31.5 -17.5q33 0 79 37.5t92 82.5l213 212q0 -42 4 -100t16 -110t34.5 -88.5t57.5 -36.5l35 28q36 28 79 64.5t79 67t36 38.5q0 5 -12 6t-31 1q-16 0 -37.5 3t-39.5 16q-24 13 -40 45.5t-16 93.5v582 q5 0 31.5 8.5t57.5 26.5t56 52t25 81q0 2 -28 -9.5t-68 -11.5q-45 0 -77 19t-53 39.5t-36 39.5t-25 19q-16 0 -33 -16l-159 -160q-11 -10 -11 -18q0 -10 11 -11q10 0 21 13.5t22 13.5q12 0 18 -12t17 -28q13 -21 33 -33.5t33 -12.5v-564l-176 -176q-35 -35 -66 -35 q-21 0 -49.5 12.5t-55 28t-45 33t-18.5 28.5v607q0 82 -11 141t-26.5 97.5t-31.5 56t-24 17.5t-43 -28t-73.5 -61t-68.5 -61l-31 -28q0 -8 17.5 -12.5t40.5 -4.5q16 0 31 -4t26.5 -15.5t20 -35.5t8.5 -67v-628q-5 0 -27.5 -12.5t-49.5 -32t-47 -47.5t-20 -58zM384 1217 q5 -8 54.5 2.5t109 41t117 77t80.5 110.5l-125 102q-23 -80 -64.5 -140.5t-81.5 -100t-68 -62t-22 -30.5z" />
<glyph unicode="&#xfb;" horiz-adv-x="1176" d="M0 5q0 -2 39.5 8t82.5 10q59 0 94 -16.5t54.5 -38t33 -39t31.5 -17.5q33 0 79 37.5t92 82.5l213 212q0 -42 4 -100t16 -110t34.5 -88.5t57.5 -36.5l35 28q36 28 79 64.5t79 67t36 38.5q0 5 -12 6t-31 1q-16 0 -37.5 3t-39.5 16q-24 13 -40 45.5t-16 93.5v582 q5 0 31.5 8.5t57.5 26.5t56 52t25 81q0 2 -28 -9.5t-68 -11.5q-45 0 -77 19t-53 39.5t-36 39.5t-25 19q-16 0 -33 -16l-159 -160q-11 -10 -11 -18q0 -10 11 -11q10 0 21 13.5t22 13.5q12 0 18 -12t17 -28q13 -21 33 -33.5t33 -12.5v-564l-176 -176q-35 -35 -66 -35 q-21 0 -49.5 12.5t-55 28t-45 33t-18.5 28.5v607q0 82 -11 141t-26.5 97.5t-31.5 56t-24 17.5t-43 -28t-73.5 -61t-68.5 -61l-31 -28q0 -8 17.5 -12.5t40.5 -4.5q16 0 31 -4t26.5 -15.5t20 -35.5t8.5 -67v-628q-5 0 -27.5 -12.5t-49.5 -32t-47 -47.5t-20 -58zM254 1245 l23 -23l200 200q3 -5 31 -44t76.5 -89.5t94.5 -69.5l69 69q-30 8 -69 44.5t-74.5 76t-59.5 72.5l-24 33z" />
<glyph unicode="&#xfc;" horiz-adv-x="1176" d="M0 5q0 -2 39.5 8t82.5 10q59 0 94 -16.5t54.5 -38t33 -39t31.5 -17.5q33 0 79 37.5t92 82.5l213 212q0 -42 4 -100t16 -110t34.5 -88.5t57.5 -36.5l35 28q36 28 79 64.5t79 67t36 38.5q0 5 -12 6t-31 1q-16 0 -37.5 3t-39.5 16q-24 13 -40 45.5t-16 93.5v582 q5 0 31.5 8.5t57.5 26.5t56 52t25 81q0 2 -28 -9.5t-68 -11.5q-45 0 -77 19t-53 39.5t-36 39.5t-25 19q-16 0 -33 -16l-159 -160q-11 -10 -11 -18q0 -10 11 -11q10 0 21 13.5t22 13.5q12 0 18 -12t17 -28q13 -21 33 -33.5t33 -12.5v-564l-176 -176q-35 -35 -66 -35 q-21 0 -49.5 12.5t-55 28t-45 33t-18.5 28.5v607q0 82 -11 141t-26.5 97.5t-31.5 56t-24 17.5t-43 -28t-73.5 -61t-68.5 -61l-31 -28q0 -8 17.5 -12.5t40.5 -4.5q16 0 31 -4t26.5 -15.5t20 -35.5t8.5 -67v-628q-5 0 -27.5 -12.5t-49.5 -32t-47 -47.5t-20 -58zM77 1296 q0 -10 9 -10q8 0 21 9.5t26 9.5t28 -13.5t33.5 -30t45 -29.5t67.5 -13q37 0 71 15t59.5 36t41.5 46.5t16 47.5q0 5 -17.5 -2t-45.5 -7q-46 0 -76.5 17.5t-53 37.5t-34.5 37t-21 17q-10 0 -26 -16l-133 -132q-10 -11 -11 -20zM556 1296q0 -10 8 -10t21.5 9.5t26.5 9.5 t28 -13.5t33.5 -30t45 -29.5t66.5 -13q38 0 72.5 15t59.5 36t41.5 46.5t16.5 47.5q0 5 -17.5 -2t-47.5 -7q-46 0 -76.5 17.5t-52.5 37.5t-34.5 37t-19.5 17q-11 0 -26 -16l-134 -132q-11 -11 -11 -20z" />
<glyph unicode="&#xfd;" horiz-adv-x="1024" d="M32 916q0 -5 11 -6q5 0 13 1.5t16 1.5q23 0 44.5 -23.5t21.5 -112.5v-516q0 -56 25 -91t54.5 -55.5t55 -34.5t25.5 -27q0 -7 -25.5 -15t-55 -21.5t-54.5 -39t-25 -68.5q0 -94 61.5 -147.5t141.5 -53.5q45 0 90.5 14t89 31.5t85 32t78.5 14.5q38 0 60.5 -27t22.5 -60 q0 -48 -43 -84t-106.5 -60t-138.5 -36.5t-141 -12.5q-26 0 -60 -4t-34 -16q0 -14 32.5 -21t86.5 -7q63 0 144.5 14t153 47t121 89t49.5 139q0 132 -51 179t-127 47q-49 0 -103.5 -15t-106.5 -32t-97.5 -32t-73.5 -15q-21 0 -37.5 8t-16.5 30q0 40 31 59.5t80 30.5t109 19 t118 24q46 13 85.5 30.5t70 45.5t49.5 67.5t19 101.5v537q0 3 20 10t44 20t42.5 37t15.5 65q0 2 -13 -2t-32 -6t-42 -2t-42 11.5t-36.5 30t-35 38t-34.5 34.5t-37 15t-31 -17l-122 -122q-10 -10 -12 -26q0 -10 20 -10q5 0 15.5 15.5t23.5 15.5t29 -13t30 -29.5t23 -29.5 l9 -13v-591q0 -86 -45.5 -131t-114.5 -45t-110.5 37.5t-41.5 105.5v678q0 82 -15.5 123.5t-58.5 41.5q-18 0 -51.5 -23t-66 -52t-56 -57t-23.5 -39zM341 1217q5 -8 54.5 2.5t109 41t117 77t81.5 110.5l-126 102q-23 -80 -64.5 -140.5t-81.5 -100t-68 -62t-22 -30.5z" />
<glyph unicode="&#xfe;" horiz-adv-x="1047" d="M0 53q0 -5 16 1.5t39.5 15.5t53 17.5t59.5 8.5v-421q0 -38 -23 -71t-51 -59.5t-50.5 -45t-22.5 -20.5q0 -5 49.5 0t106.5 31.5t106.5 82.5t49.5 156v347q53 0 90 -26.5t62.5 -57t39 -57.5t18.5 -27q3 0 16 28t53.5 60t114.5 60t200 28q10 0 10 5t-15 19t-30.5 31 t-30.5 42t-15 55v532q8 0 28 13.5t39 32t33.5 38.5t14.5 33q-89 0 -141.5 30.5t-82 67t-47 67t-32.5 30.5q-13 0 -40 -28l-253 -252q-13 -10 -22 -10q-10 0 -10 39v109v493q0 88 29 165.5t63.5 134.5t63.5 90l30 34q-69 0 -117 -36.5t-79 -79t-49 -78t-30 -35.5 q-10 0 -21.5 20.5t-32 45t-49.5 45.5t-77 21q2 -5 26 -43.5t51 -117t27 -169.5v-1248l-27 -12t-57.5 -32.5t-57 -47t-26.5 -55.5zM333 224v452q0 21 20 57.5t49.5 69.5t62.5 58.5t56 25.5q21 0 44.5 -16.5t43 -33.5t38.5 -33t34 -16v-671q0 -35 -15 -35q-21 0 -45 22.5 t-60.5 48t-91 48.5t-136.5 23z" />
<glyph unicode="&#xff;" horiz-adv-x="1024" d="M18 1296q0 -10 8 -10t21.5 9.5t26.5 9.5t28 -13.5t34 -30t45.5 -29.5t65.5 -13q38 0 72.5 15t59.5 36t41.5 46.5t16.5 47.5q0 5 -17.5 -2t-46.5 -7q-45 0 -76 17.5t-53.5 37.5t-34 37t-21.5 17t-26 -16l-132 -132q-10 -11 -12 -20zM32 916q0 -5 11 -6q5 0 13 1.5t16 1.5 q23 0 44.5 -23.5t21.5 -112.5v-516q0 -56 25 -91t54.5 -55.5t55 -34.5t25.5 -27q0 -7 -25.5 -15t-55 -21.5t-54.5 -39t-25 -68.5q0 -94 61.5 -147.5t141.5 -53.5q45 0 90.5 14t89 31.5t85 32t78.5 14.5q38 0 60.5 -27t22.5 -60q0 -48 -43 -84t-106.5 -60t-138.5 -36.5 t-141 -12.5q-26 0 -60 -4t-34 -16q0 -14 32.5 -21t86.5 -7q63 0 144.5 14t153 47t121 89t49.5 139q0 132 -51 179t-127 47q-49 0 -103.5 -15t-106.5 -32t-97.5 -32t-73.5 -15q-21 0 -37.5 8t-16.5 30q0 40 31 59.5t80 30.5t109 19t118 24q46 13 85.5 30.5t70 45.5t49.5 67.5 t19 101.5v537q0 3 20 10t44 20t42.5 37t15.5 65q0 2 -13 -2t-32 -6t-42 -2t-42 11.5t-36.5 30t-35 38t-34.5 34.5t-37 15t-31 -17l-122 -122q-10 -10 -12 -26q0 -10 20 -10q5 0 15.5 15.5t23.5 15.5t29 -13t30 -29.5t23 -29.5l9 -13v-591q0 -86 -45.5 -131t-114.5 -45 t-110.5 37.5t-41.5 105.5v678q0 82 -15.5 123.5t-58.5 41.5q-18 0 -51.5 -23t-66 -52t-56 -57t-23.5 -39zM498 1296q0 -10 8 -10t21.5 9.5t26.5 9.5t28 -13.5t33 -30t44.5 -29.5t67.5 -13q37 0 71.5 15t60 36t41.5 46.5t16 47.5q0 5 -17.5 -2t-46.5 -7q-46 0 -76.5 17.5 t-52.5 37.5t-34.5 37t-20.5 17q-10 0 -26 -16l-134 -132q-10 -11 -10 -20z" />
<glyph unicode="&#x152;" horiz-adv-x="2774" d="M0 1001q0 -253 77.5 -456.5t205 -345t291 -217.5t336.5 -76q211 0 380 95t289 249t183.5 352.5t63.5 408.5q0 206 -58 390t-146 322.5t-190.5 219t-191.5 80.5q-26 0 -75.5 -29.5t-84 -54t-39.5 -31.5v41q0 15 14.5 25t14.5 36q0 8 -8 16t-21 8t-22.5 -12t-9.5 -33v-99 l-455 -303q-61 -37 -81.5 -60t-20.5 -36q0 -32 36 -32q18 0 25.5 11t13.5 25t11 29t16 23l104 69v-1134q0 -91 -14 -148t-28 -89t-26.5 -47t-5.5 -17q2 -5 43 4.5t89 41.5t86.5 94.5t38.5 168.5v1248l168 112v-1771q0 -58 -57.5 -80t-143.5 -4t-186.5 83.5t-187 182.5 t-143.5 292.5t-57 412.5q0 239 62.5 425.5t138.5 313.5t138 192l63 65q0 10 -11 11q-15 0 -67 -26.5t-121 -78.5t-146.5 -133t-141 -189t-106.5 -244t-43 -301zM1041 152v471q0 40 23 64t56 37t74 17t81 4q16 0 60 -6.5t91 -22t82.5 -43.5t35.5 -74q0 -69 -52 -158.5 t-124 -171t-148.5 -137t-127.5 -55.5q-23 0 -37 16t-14 59zM1041 780v424q0 48 64 48q45 0 92.5 -6t101.5 -6q76 0 126.5 17.5t103.5 17.5q32 0 49 -26.5t25 -66t9 -89t1 -92.5q0 -48 -1 -97.5t-7.5 -89t-19 -65t-35.5 -25.5q-36 0 -65 8t-58 19t-65 18.5t-87 7.5 q-82 0 -130 -16t-75 -16q-30 0 -29 35zM1041 1377v468q0 40 43 40q80 0 165 -60t156 -142.5t115.5 -170t44.5 -143.5q0 -16 -25.5 -33.5t-65 -31t-86 -22.5t-89.5 -9q-46 0 -90.5 1t-82 11.5t-61.5 32t-24 59.5zM1190 -181q15 0 66.5 37t125.5 81.5t166.5 81.5t192.5 37 q119 0 218 -41t172.5 -89t119.5 -89.5t66 -41.5q10 0 60.5 39t109 86.5t105.5 89t47 46.5q0 10 -12 10q-21 0 -37 -6.5t-29 -15.5t-29 -16t-37 -7q-30 0 -88.5 39t-114.5 67q-38 19 -79 36.5t-81 27.5v843q23 -14 41.5 -25t36.5 -29q16 -15 23.5 -31.5t16 -30t16.5 -21.5 t21 -8q7 0 53 26.5t98 62.5t92.5 71t40.5 48q0 16 -15 16q-21 0 -57.5 -9t-64.5 -9q-33 0 -57 16.5t-45 37t-42.5 38t-48.5 17.5q-32 0 -55.5 -5.5t-53.5 -19.5v216q0 32 17.5 44t17.5 37q0 23 -26 23q-13 0 -26.5 -8t-13.5 -27v-300q-21 -14 -51 -39t-96 -25q-18 0 -41 4 t-23 30v444q0 54 23 100.5t57.5 81t78.5 54.5t89 20q49 0 82 -30.5t65 -66t69 -66t90 -30.5t109 34.5t101.5 76.5t75 82.5t29.5 50.5q0 8 -11.5 4t-32 -13t-50 -17.5t-64.5 -8.5q-48 0 -87.5 20t-80 43t-82.5 43t-95 20q-72 0 -144 -30.5t-128 -85t-90.5 -128t-34.5 -156.5 v-1352q-99 0 -188 -31t-165 -75t-137 -97t-102.5 -97t-62 -74.5t-14.5 -30.5zM1890 224v795q0 30 37 35.5t67 5.5q59 0 107 -14v-846q-53 11 -105 17.5t-106 6.5z" />
<glyph unicode="&#x153;" horiz-adv-x="1431" d="M0 58q0 -10 24 0.5t67 10.5q48 0 90.5 -24t75.5 -52t54.5 -51.5t29.5 -23.5q7 0 36.5 21t71 46t93.5 46.5t108 21.5q66 0 114 -24t80 -52t52 -50.5t28 -22.5t42.5 20t82.5 49.5t102.5 64t99.5 65t73 53t25 25.5q-13 13 -31 14q-21 0 -48 -19t-55 -40.5t-58.5 -40 t-61.5 -18.5q-38 0 -64 24q-11 8 -38 21t-53.5 29.5t-46 34t-19.5 38.5v71l439 439q8 8 15.5 18t7.5 20q0 30 -31.5 91t-71.5 121t-76 105t-42 45q-7 0 -26 -21t-47 -46.5t-65 -47t-80 -21.5q-45 0 -79.5 19t-62.5 41t-47 41t-29 19q-8 0 -44 -29t-98.5 -62.5t-150.5 -62.5 t-195 -29q-38 0 -69 1t-53 1q-11 0 -11 -5t12 -18.5t27 -32t26.5 -42.5t11.5 -51v-522q0 -45 -20.5 -75.5t-46 -53.5t-47 -41.5t-21.5 -37.5zM300 242v604q0 18 16.5 36t40.5 33t53 22.5t55 7.5q43 0 87.5 -20t79 -44t55.5 -45t21 -24v-665q0 -18 -26.5 -32t-59.5 -23.5 t-61 -14.5t-31 -5q-7 0 -45 17.5t-79 42.5t-73.5 55.5t-32.5 54.5zM874 343v567q0 10 24 36t65 26q30 0 72.5 -31t87.5 -110q18 -35 34.5 -71t16.5 -71q0 -45 -29 -74z" />
<glyph unicode="&#x178;" horiz-adv-x="1674" d="M3 1738q0 -30 6.5 -60t16 -55t17.5 -41.5t10 -16.5q5 0 10.5 39t25.5 84t63 84t125 39q74 0 135.5 -43t61.5 -117v-416q-23 0 -74.5 -4t-103.5 -19.5t-90 -50.5t-38 -99q0 -94 26.5 -142.5t58.5 -68.5t58.5 -21.5t29 1t-6.5 10.5t-20 21.5t-20 30.5t-9 42q0 141 136 140 q21 0 37 -9t16 -32v-592q0 -69 47.5 -115.5t107.5 -76t114 -44.5t67 -18q-8 -5 -61 -33t-113.5 -74t-108 -104.5t-47.5 -126.5q0 -124 82.5 -173.5t214.5 -54.5q77 -3 159.5 31.5t160 76t145.5 77.5t119 36q64 0 97 -40t33 -98q0 -35 -24 -64.5t-58.5 -52t-72 -34.5 t-63.5 -12q-54 0 -99.5 14.5t-73.5 17.5q-51 0 -51 -48q0 -19 19 -29.5t45.5 -17.5t58.5 -8t58 -1q99 0 167.5 29.5t114 76t67 106t21.5 123.5q0 91 -73.5 149.5t-184.5 58.5q-64 0 -153 -33t-181 -74t-177.5 -75t-141.5 -34q-48 0 -72.5 26.5t-24.5 72.5q0 51 34 100.5 t87.5 86.5t117 59.5t125.5 22.5q104 0 204 28t176.5 81.5t124.5 129.5t48 171v1158q19 0 52.5 17.5t68 44t60 54.5t25.5 49q0 16 -8 17q-5 0 -12.5 -11t-21.5 -23t-34.5 -23t-51.5 -11q-45 0 -81.5 36.5t-71 72.5t-71.5 56t-85 -10l-426 -277v134q0 26 16 42.5t16 31.5 q0 35 -23 34q-13 0 -27 -15.5t-14 -33.5v-214l-13 -9q-14 -10 -32 -22t-39.5 -23.5t-39.5 -23.5q-11 -5 -24.5 -1t-13.5 18v115q0 71 -32 121.5t-80 81.5t-104 44t-107 13q-173 0 -252.5 -84t-79.5 -196zM429 2068q0 -10 8 -10t21.5 9t26.5 9t28 -13t33 -29t45 -29t67 -13 q38 0 72 14t59.5 35.5t41 47t15.5 46.5q0 5 -17 -1.5t-46 -6.5q-46 0 -76.5 17.5t-53.5 37.5t-34.5 37t-19.5 17q-10 0 -27 -16l-133 -132q-10 -11 -10 -20zM658 500v940q0 46 25 88t56 74t56 49.5t25 15.5v-1380q0 -21 -25 -13t-56 38.5t-56 78.5t-25 109zM852 292v409 q0 18 25 38t63 33t79 22t70 9q30 0 71 -9t78 -23t62.5 -33t25.5 -37v-165q0 -64 -30.5 -120.5t-81 -99t-118.5 -67.5t-143 -25q-43 0 -72 15t-29 53zM852 812v463q0 35 13.5 36.5t41.5 -12t72.5 -29.5t109.5 -16q64 0 109 16t73 29.5t41.5 12t13.5 -36.5v-463q0 -20 -4 -26 t-12 -6q-20 0 -74 28t-147 28t-146.5 -28t-74.5 -28q-7 0 -11.5 5t-4.5 27zM852 1390v295q0 2 30.5 25t74.5 49.5t88 46.5t73 20q48 0 81 -14.5t57 -31.5t40.5 -32t29.5 -15v-343q0 -21 -25.5 -40t-62.5 -32t-78.5 -22.5t-70.5 -9.5t-70 9.5t-79 24t-63 33.5t-25 37z M907 2068q0 -10 9 -10q8 0 21 9t26 9t28 -13t34 -29t45.5 -29t65.5 -13q38 0 72.5 14t60 35.5t41.5 47t16 46.5q0 5 -17.5 -1.5t-46.5 -6.5q-45 0 -75.5 17.5t-53.5 37.5t-34.5 37t-20.5 17q-11 0 -26 -16l-133 -132q-10 -11 -12 -20z" />
<glyph unicode="&#x2c6;" horiz-adv-x="798" d="M183 1245l25 -23l199 200q3 -5 30.5 -44t77 -89.5t95.5 -69.5l69 69q-30 8 -70 44.5t-74.5 76t-58.5 72.5l-24 33z" />
<glyph unicode="&#x2dc;" horiz-adv-x="824" d="M138 1217q2 -3 17 7.5t40.5 24t61 24t81.5 10.5q48 0 76 -6.5t48 -14.5t38.5 -15t48.5 -7q53 0 98 32.5t77.5 71t49 71.5t14 35.5t-15.5 -7.5t-37 -22.5t-57 -23t-74 -10.5q-37 0 -60 6.5t-42.5 16.5t-43.5 16.5t-62 6.5q-61 0 -110 -32t-83.5 -72.5t-51 -75t-13.5 -36.5 z" />
<glyph unicode="&#x2000;" horiz-adv-x="1211" />
<glyph unicode="&#x2001;" horiz-adv-x="2423" />
<glyph unicode="&#x2002;" horiz-adv-x="1211" />
<glyph unicode="&#x2003;" horiz-adv-x="2423" />
<glyph unicode="&#x2004;" horiz-adv-x="807" />
<glyph unicode="&#x2005;" horiz-adv-x="605" />
<glyph unicode="&#x2006;" horiz-adv-x="403" />
<glyph unicode="&#x2007;" horiz-adv-x="403" />
<glyph unicode="&#x2008;" horiz-adv-x="302" />
<glyph unicode="&#x2009;" horiz-adv-x="484" />
<glyph unicode="&#x200a;" horiz-adv-x="134" />
<glyph unicode="&#x2010;" horiz-adv-x="819" d="M56 623q5 -5 15.5 2.5t32 20t60.5 21.5t100 9h244q51 0 98 36t82.5 80t55.5 81t12 40t-20 -5t-31 -18.5t-50.5 -19.5t-79.5 -9h-283q-42 0 -87 -36.5t-79.5 -79t-54.5 -81.5t-15 -41z" />
<glyph unicode="&#x2011;" horiz-adv-x="819" d="M56 623q5 -5 15.5 2.5t32 20t60.5 21.5t100 9h244q51 0 98 36t82.5 80t55.5 81t12 40t-20 -5t-31 -18.5t-50.5 -19.5t-79.5 -9h-283q-42 0 -87 -36.5t-79.5 -79t-54.5 -81.5t-15 -41z" />
<glyph unicode="&#x2012;" horiz-adv-x="819" d="M56 623q5 -5 15.5 2.5t32 20t60.5 21.5t100 9h244q51 0 98 36t82.5 80t55.5 81t12 40t-20 -5t-31 -18.5t-50.5 -19.5t-79.5 -9h-283q-42 0 -87 -36.5t-79.5 -79t-54.5 -81.5t-15 -41z" />
<glyph unicode="&#x2013;" horiz-adv-x="958" d="M0 623q5 -5 15.5 2.5t32 20t60.5 21.5t100 9h445q50 0 96.5 36t82.5 80t55.5 81t12 40t-19.5 -5t-30.5 -18.5t-50.5 -19.5t-80 -9h-482q-43 0 -88 -36.5t-79.5 -79t-54.5 -81.5t-15 -41z" />
<glyph unicode="&#x2014;" horiz-adv-x="1413" d="M0 623q5 -5 15.5 2.5t32 20t60.5 21.5t100 9h884q51 0 97 36t82.5 80t56 81t11.5 40t-19.5 -5t-30.5 -18.5t-51 -19.5t-80 -9h-921q-43 0 -88 -36.5t-79.5 -79t-54.5 -81.5t-15 -41z" />
<glyph unicode="&#x2018;" horiz-adv-x="358" d="M10 1760q0 -61 38 -114.5t84 -92.5t85 -58t39 -17q3 3 -17.5 18.5t-44.5 42t-45.5 61t-21.5 77.5q0 23 10 48t21.5 43t22.5 30.5t17 12.5q5 0 14 -8.5t19.5 -17.5t19 -15.5t13.5 -1.5t-16.5 33t-52 58.5t-57 56t-31.5 25.5q-6 0 -22 -13t-31.5 -37t-29.5 -58t-14 -73z " />
<glyph unicode="&#x2019;" horiz-adv-x="332" d="M61 1768q3 -5 12 1.5t20 15.5t20 17.5t14 8.5q3 0 15.5 -12.5t24 -30.5t21.5 -42t10 -49q0 -43 -21.5 -77.5t-45.5 -61t-44.5 -42t-17.5 -18.5q0 -2 39 17t85 58t84 92.5t38 114.5q0 40 -14 73.5t-29.5 57.5t-31.5 37t-22 13q-5 0 -31.5 -25.5t-57 -56t-52 -58.5 t-16.5 -33z" />
<glyph unicode="&#x201a;" horiz-adv-x="313" d="M35 234q3 -5 12 1.5t19.5 16t20 17.5t14.5 8q3 0 14.5 -11.5t24 -30.5t21.5 -43t9 -48q0 -43 -21.5 -77.5t-45.5 -61t-43.5 -42.5t-16.5 -19q0 -2 38.5 18t85 58t83.5 91.5t37 114.5q0 40 -13 73.5t-29 57.5t-31.5 37t-22.5 13q-5 0 -31.5 -25.5t-57 -56t-51.5 -58.5 t-16 -33z" />
<glyph unicode="&#x201c;" horiz-adv-x="744" d="M26 1760q0 -61 37.5 -114.5t84.5 -92.5t85.5 -58t38.5 -17q2 3 -18 18.5t-44 42t-45 61t-21 77.5q0 23 9 48t21 43t23 30.5t16 12.5t14.5 -8.5t20.5 -17.5t18.5 -15.5t13 -1.5t-16 33t-52 58.5t-57.5 56t-32 25.5t-20.5 -13t-32 -37t-30 -58t-13.5 -73zM363 1760 q0 -61 37 -114.5t83.5 -92.5t85 -58t38.5 -17q3 3 -17.5 18.5t-44.5 42t-44.5 61t-20.5 77.5q0 23 9 48t20.5 43t22.5 30.5t17 12.5q5 0 14 -8.5t20 -17.5t19 -15.5t13 -1.5t-16.5 33t-52 58.5t-57 56t-31.5 25.5q-6 0 -21.5 -13t-31.5 -37t-29 -58t-13 -73z" />
<glyph unicode="&#x201d;" horiz-adv-x="665" d="M72 1768q2 -5 12 1.5t20 15.5t19.5 17.5t14.5 8.5q2 0 14.5 -12.5t24 -30.5t21.5 -42t10 -49q0 -43 -21.5 -77.5t-45.5 -61t-44 -42t-18 -18.5q0 -2 39 17t86 58t84 92.5t37 114.5q0 40 -13.5 73.5t-29.5 57.5t-32 37t-21 13t-32 -25.5t-57.5 -56t-52 -58.5t-15.5 -33z M407 1768q3 -5 12.5 1.5t20 15.5t19.5 17.5t15 8.5q3 0 14.5 -12.5t23.5 -30.5t21.5 -42t9.5 -49q0 -43 -21.5 -77.5t-45.5 -61t-44 -42t-17 -18.5q0 -2 39 17t85.5 58t83.5 92.5t37 114.5q0 40 -13.5 73.5t-29 57.5t-32 37t-21.5 13t-31.5 -25.5t-57 -56t-52 -58.5 t-16.5 -33z" />
<glyph unicode="&#x201e;" horiz-adv-x="678" d="M35 234q3 -5 12 1.5t19.5 16t20 17.5t14.5 8q3 0 14.5 -11.5t24 -30.5t21.5 -43t9 -48q0 -43 -21.5 -77.5t-45.5 -61t-43.5 -42.5t-16.5 -19q0 -2 38.5 18t85 58t83.5 91.5t37 114.5q0 40 -13 73.5t-29 57.5t-31.5 37t-22.5 13q-5 0 -31.5 -25.5t-57 -56t-51.5 -58.5 t-16 -33zM370 234q3 -5 12 1.5t19.5 16t20.5 17.5t15 8q2 0 14 -11.5t24.5 -30.5t21.5 -43t9 -48q0 -43 -21.5 -77.5t-45.5 -61t-43.5 -42.5t-17.5 -19q0 -2 38.5 18t85.5 58t84 91.5t37 114.5q0 40 -13 73.5t-29.5 57.5t-32 37t-20.5 13t-32.5 -25.5t-58 -56t-51.5 -58.5 t-16 -33z" />
<glyph unicode="&#x2022;" horiz-adv-x="1258" d="M23 922q0 -110 42 -204.5t112 -165t165 -112t204 -41.5q107 0 202.5 41.5t166 112t111.5 165t41 204.5q0 106 -41 201.5t-111.5 166.5t-166 112t-202.5 41q-109 0 -204 -41t-165 -112t-112 -166.5t-42 -201.5z" />
<glyph unicode="&#x2026;" horiz-adv-x="1463" d="M112 91q45 -86 90.5 -124.5t53.5 -24.5q33 50 59 77t43.5 38.5t26.5 16.5t6 14q-2 11 -6 13.5t-17.5 13t-39 38.5t-69.5 86q-5 8 -30.5 -11.5t-52 -47.5t-48 -54.5t-16.5 -34.5zM592 91q45 -86 90 -124.5t52 -24.5q33 50 59.5 77t43.5 38.5t27 16.5t7 14q-3 11 -6.5 13.5 t-17.5 13t-39 38.5t-71 86q-5 8 -30.5 -11.5t-52 -47.5t-47.5 -54.5t-15 -34.5zM1070 91q45 -86 90.5 -124.5t53.5 -24.5q33 50 59 77t43.5 38.5t26.5 16.5t6 14q-2 11 -6 13.5t-17 13t-38.5 38.5t-70.5 86q-5 8 -30.5 -11.5t-52 -47.5t-48 -54.5t-16.5 -34.5z" />
<glyph unicode="&#x202f;" horiz-adv-x="484" />
<glyph unicode="&#x2039;" horiz-adv-x="811" d="M0 333l65 -22q65 -21 151.5 -60.5t173.5 -97t131 -132.5l256 58q-43 69 -114 125.5t-141 95t-120 58.5l-51 20q86 35 143 65.5t94 66.5t58.5 78t37.5 101l-282 -47q-11 -53 -31 -92t-62.5 -73.5t-115.5 -67.5t-193 -76z" />
<glyph unicode="&#x203a;" horiz-adv-x="787" d="M23 640q43 -69 115.5 -125.5t141 -95t119.5 -58.5l51 -20q-86 -35 -142.5 -66t-94 -66.5t-59 -78t-37.5 -100.5l282 47q11 50 31 90.5t63 75t115.5 67.5t192.5 76l-65 22q-65 21 -151.5 60.5t-174.5 97t-130 132.5z" />
<glyph unicode="&#x205f;" horiz-adv-x="605" />
<glyph unicode="&#x2122;" horiz-adv-x="998" d="M0 1898q5 -3 24 12t55 15q24 0 70 -12t76.5 -21.5t35.5 -11.5v-376l-9 -1q-10 -1 -26 -1q-61 0 -114.5 46.5t-53.5 147.5q0 36 8 65.5t19 50t17.5 32t4.5 11.5q-3 0 -18 -10.5t-30.5 -33t-29 -57t-13.5 -77.5q0 -91 52.5 -154.5t131.5 -63.5q51 0 86.5 18.5t58.5 41.5 t33 43l11 20q-3 3 -20.5 -17.5t-46.5 -38.5q-20 -13 -38 -16l-18 -3v370l14 -1q12 -1 27 -1q21 0 35 11.5t25 25t15 25.5l4 12q-2 0 -25 -10.5t-52 -10.5q-53 0 -88 17t-86 17q-37 0 -62 -10.5t-42.5 -22t-24.5 -21.5zM173 1570q0 -2 9 -1t19 8.5t19 20.5t9 34v213 q0 21 -5 22q-6 0 -12.5 -8.5t-16.5 -18.5q-8 -8 -13.5 -11t-8.5 -5q5 -3 7.5 -6.5t2.5 -18.5v-175q0 -30 -5 -40.5t-5 -13.5zM376 1464q5 -3 19.5 16t49.5 19q29 0 47.5 -15t48.5 -15q23 0 53.5 20t30.5 71v142h71v-147q0 -5 -10 -13t-19 -18t-17 -17.5t-5.5 -10t12 7.5 t22.5 10q20 0 32.5 -20.5t28.5 -20.5q2 0 10.5 13t19 23.5t25.5 19t15 10.5q0 8 -13.5 1.5t-13.5 1.5v160h74v-155q0 -21 13.5 -46t18.5 -25q3 0 19 14t26.5 27.5t13.5 16.5q-3 0 -8 -2.5t-13 -2.5q-11 0 -20.5 10.5t-9.5 47.5v280q3 0 12.5 9t18.5 19.5t17 21.5l8 11 q-5 2 -17 -10t-17 -12q-13 0 -20 9.5t-13.5 19t-14.5 18.5t-19 9t-24 -11l-45 -45v30q0 5 3.5 6.5t3.5 6.5q0 7 -5 7q-8 0 -8 -7v-51l-43 -43q0 8 -3.5 25.5t-11.5 35t-15.5 32t-17.5 14.5q-5 0 -23 -17t-45 -39q-26 -18 -51.5 -28.5t-25.5 -40.5v-99h-17q-16 0 -34.5 -8 t-18.5 -34q0 -35 9 -35l5 21q5 20 31 20h25v-86q0 -16 -10 -33.5t-7 -19.5q2 -6 29 8t27 50v229q0 13 11 25.5t16 12.5q13 0 13 -19v-301q0 -48 -58 -48q-30 0 -47 16t-55 16q-18 0 -34 -13t-28 -29t-18.5 -30t-3.5 -16zM625 1738v150q0 23 15 23q10 0 33 -15.5t23 -28.5 v-129h-71zM734 1555v290l43 40v-343q0 -8 -13 -8q-5 0 -17.5 4t-12.5 17zM783 1738v155l15 15q8 8 14 10q11 0 21.5 -28t23.5 -28v-124h-74z" />
<glyph unicode="&#x25fc;" horiz-adv-x="1103" d="M0 0v1105h1105v-1105h-1105z" />
</font>
</defs>
</svg>
