<?xml version="1.0" standalone="no"?>
<!DOCTYPE svg PUBLIC "-//W3C//DTD SVG 1.1//EN" "http://www.w3.org/Graphics/SVG/1.1/DTD/svg11.dtd" >
<svg xmlns="http://www.w3.org/2000/svg">
<metadata></metadata>
<defs>
<font id="libre_baskervilleregular" horiz-adv-x="1205" >
<font-face units-per-em="2048" ascent="1638" descent="-410" />
<missing-glyph horiz-adv-x="528" />
<glyph horiz-adv-x="0" />
<glyph unicode="&#xd;" horiz-adv-x="612" />
<glyph horiz-adv-x="0" />
<glyph horiz-adv-x="0" />
<glyph unicode=" "  horiz-adv-x="528" />
<glyph unicode="&#x09;" horiz-adv-x="528" />
<glyph unicode="&#xa0;" horiz-adv-x="528" />
<glyph unicode="!" horiz-adv-x="567" d="M164 102q0 51 34.5 86t85.5 35t86.5 -35t35.5 -86t-35.5 -85.5t-86.5 -34.5q-50 0 -85 35t-35 85zM164 1316q0 51 33 86t87 35t87 -35t33 -86q0 -42 -1 -64t-7 -67t-20 -116q-25 -139 -36.5 -277.5t-11.5 -409.5h-89q0 276 -10.5 415t-36.5 279q-19 102 -23.5 142 t-4.5 98z" />
<glyph unicode="&#x22;" horiz-adv-x="675" d="M111 1439q0 39 24.5 65t61.5 26t62 -26.5t25 -66.5q0 -27 -10.5 -93.5t-26 -158t-22.5 -145.5h-54q-7 55 -23 146.5t-26.5 159.5t-10.5 93zM391 1439q0 39 24.5 65t61.5 26t62 -26.5t25 -66.5q0 -26 -10.5 -93t-26 -158.5t-22.5 -145.5h-53q-7 55 -23 146.5t-27 159.5 t-11 93z" />
<glyph unicode="#" horiz-adv-x="1226" d="M72 470l14 92h262l44 314h-263l15 92h266l63 451h111l-64 -451h278l62 451h111l-62 -451h247l-15 -92h-249l-42 -314h252l-15 -92h-255l-69 -470h-109l65 470h-279l-69 -470h-111l70 470h-258zM459 562h278l42 314h-276z" />
<glyph unicode="$" horiz-adv-x="1145" d="M70 310q0 57 26 85.5t64 28.5q23 0 41 -11t29 -25t21 -38t14 -40.5t10.5 -43t8.5 -34.5q40 -150 247 -156v552q-49 20 -81 35t-76 38t-72 45.5t-59.5 54t-49.5 67t-30 81t-12 98.5q0 165 104 271.5t276 117.5v223h101v-225q156 -16 269.5 -99t113.5 -185q0 -47 -25 -73.5 t-70 -26.5q-33 0 -53.5 15t-31 39.5t-18 54t-18.5 60t-28.5 57t-52.5 46.5t-86 25v-508q240 -105 337 -204t97 -235q0 -173 -120 -285t-314 -129v-299h-101v297q-123 5 -227.5 46.5t-169 115.5t-64.5 164zM324 1139q0 -153 207 -256v463q-96 -14 -151.5 -68.5t-55.5 -138.5z M632 79q119 15 180.5 76t61.5 156q0 43 -13 79t-34 62.5t-53.5 51.5t-65 42.5t-76.5 37.5v-505z" />
<glyph unicode="%" horiz-adv-x="1236" d="M65 0l1019 1419h89l-1004 -1419h-104zM151 1143q0 123 64 208.5t154 85.5t153.5 -85.5t63.5 -208.5q0 -120 -63.5 -204t-153.5 -84t-154 84t-64 204zM256 1139q0 -132 28 -185t85 -53q56 0 84.5 53t28.5 185q0 140 -28 196t-85 56t-85 -56t-28 -196zM651 269 q0 123 63.5 209t153.5 86t153.5 -86t63.5 -209q0 -120 -63.5 -203.5t-153.5 -83.5t-153.5 83.5t-63.5 203.5zM756 266q0 -133 28 -185.5t84 -52.5t84.5 53t28.5 185q0 139 -28 195.5t-84.5 56.5t-84.5 -56.5t-28 -195.5z" />
<glyph unicode="&#x26;" horiz-adv-x="1618" d="M67 308q0 124 100 231t318 213q-59 86 -85.5 162t-26.5 159q0 162 89 263t231 101q126 0 207 -77.5t81 -196.5q0 -102 -68 -192.5t-222 -196.5l299 -389q91 111 147.5 209t56.5 147q0 29 -26.5 42t-85.5 13v64h424v-64q-80 0 -120 -19.5t-79 -78.5l-262 -383 q157 -213 328 -213q49 0 76.5 21t58.5 83l45 -12q-19 -103 -89.5 -157.5t-182.5 -54.5q-91 0 -171 44.5t-196 157.5q-90 -95 -212 -148.5t-247 -53.5q-168 0 -278 92t-110 234zM290 330q0 -101 65.5 -166.5t168.5 -65.5q76 0 165 39t168 108l-322 425q-117 -65 -181 -154.5 t-64 -185.5zM545 1139q0 -162 95 -295q169 132 169 294q0 85 -38.5 136.5t-103.5 51.5q-59 0 -90.5 -48t-31.5 -139z" />
<glyph unicode="'" horiz-adv-x="396" d="M111 1439q0 39 24.5 65t61.5 26t62 -26.5t25 -66.5q0 -27 -10.5 -93.5t-26 -158t-22.5 -145.5h-54q-7 55 -23 146.5t-26.5 159.5t-10.5 93z" />
<glyph unicode="(" horiz-adv-x="611" d="M86 596q0 249 109.5 486t322.5 450l57 -52q-178 -241 -241 -420.5t-63 -433.5q0 -305 74.5 -524t244.5 -408l-57 -51q-220 213 -333.5 455.5t-113.5 497.5z" />
<glyph unicode=")" horiz-adv-x="611" d="M22 -306q170 189 244.5 408t74.5 524q0 254 -63 433.5t-241 420.5l57 52q212 -213 322 -450.5t110 -485.5q0 -255 -113.5 -497.5t-333.5 -455.5z" />
<glyph unicode="*" horiz-adv-x="950" d="M116 886q0 33 15 51t44.5 27t64 15t84.5 21.5t94 40.5q-64 36 -117.5 50.5t-86.5 18.5t-50 14q-44 24 -44 74q0 36 26 59.5t60 23.5q22 0 47 -20t47.5 -47.5t62.5 -63.5t85 -61q0 115 -31 188q-25 40 -25 76t23.5 60t59.5 24t61 -24t25 -60q0 -21 -25 -76 q-30 -64 -33 -188q59 35 101 74t57.5 62.5t35.5 39.5t47 16q35 0 61.5 -24.5t26.5 -58.5t-11.5 -50.5t-37.5 -23.5t-58 -11.5t-85.5 -22.5t-106.5 -49q58 -34 122 -51.5t98.5 -20.5t58 -22t23.5 -62q0 -36 -26 -58.5t-61 -22.5q-25 0 -46.5 14t-47.5 56q-18 28 -59 60.5 t-94 59.5q0 -66 13 -123.5t26.5 -93.5t13.5 -51q0 -33 -23.5 -57.5t-57.5 -24.5q-37 0 -60.5 26t-23.5 64q0 11 13.5 43.5t28 89.5t15.5 127q-66 -37 -109.5 -76.5t-57 -62.5t-31.5 -38t-47 -15q-35 0 -60 25t-25 59z" />
<glyph unicode="+" horiz-adv-x="1013" d="M76 577v92h383v385h95v-385h384v-92h-384v-385h-95v385h-383z" />
<glyph unicode="," horiz-adv-x="503" d="M90 -264q98 70 141 134.5t43 143.5q-23 -14 -54 -14q-42 0 -69.5 30.5t-27.5 78.5q0 51 34.5 82.5t89.5 31.5q64 0 98.5 -47t34.5 -137q0 -103 -54.5 -182.5t-193.5 -178.5z" />
<glyph unicode="-" horiz-adv-x="853" d="M142 457v153h570v-153h-570z" />
<glyph unicode="." horiz-adv-x="487" d="M123 102q0 51 35 86t85 35q51 0 86.5 -35t35.5 -86t-35.5 -85.5t-86.5 -34.5q-50 0 -85 35t-35 85z" />
<glyph unicode="/" horiz-adv-x="847" d="M53 0l651 1419h91l-635 -1419h-107z" />
<glyph unicode="0" horiz-adv-x="1315" d="M112 698q0 153 43.5 291t117 236t174 155t211.5 57t211.5 -57t174 -155t116.5 -236t43 -291q0 -196 -73 -361t-198.5 -260t-274 -95t-273.5 95t-198.5 260t-73.5 361zM352 693q0 -176 20 -298.5t61 -193t95.5 -101t129.5 -30.5q74 0 128.5 30.5t95 101t61.5 193t21 298.5 q0 185 -20.5 313t-61 202.5t-95 107.5t-129.5 33t-129.5 -33t-95.5 -107.5t-61 -202.5t-20 -313z" />
<glyph unicode="1" horiz-adv-x="821" d="M127 1291v69q186 8 381 77v-1138q0 -51 3 -83t11 -59t20 -41.5t35 -25.5t51.5 -14.5t71.5 -5.5v-70h-563v70q64 3 99.5 12t57.5 34t28 63t6 106v677q0 236 -8 269q-9 38 -51 49t-142 11z" />
<glyph unicode="2" horiz-adv-x="1134" d="M92 0v61q211 188 345.5 327.5t212.5 255.5t107.5 206.5t29.5 192.5q0 142 -67.5 226t-183.5 84q-109 0 -179 -72t-70 -186q0 -99 55.5 -158t147.5 -59q-8 -45 -47.5 -72t-96.5 -27q-102 0 -169.5 79t-67.5 199q0 164 130.5 273t326.5 109q194 0 318 -112t124 -287 q0 -90 -34 -181t-90.5 -173t-142.5 -170t-176.5 -164.5t-205.5 -161.5l2 -9h367q92 0 139 42.5t84 168.5h69l-70 -392h-858z" />
<glyph unicode="3" horiz-adv-x="1134" d="M94 308q0 99 61 166.5t151 67.5q51 0 91.5 -23.5t50.5 -57.5q-69 0 -113.5 -51t-44.5 -130q0 -94 66.5 -153t174.5 -59q126 0 193 84.5t67 241.5q0 152 -62.5 237t-174.5 85q-68 -34 -123 -34q-37 0 -61 17t-24 45q0 25 22 38.5t60 13.5q52 0 112 -20q98 0 159 89.5 t61 235.5q0 131 -54 194t-164 63q-97 0 -153.5 -44t-56.5 -122q0 -62 36.5 -101t95.5 -39q-8 -30 -44 -49.5t-84 -19.5q-80 0 -134 56t-54 139q0 117 108 188t286 71q199 0 319 -90t120 -237q0 -122 -79.5 -217t-197.5 -124v-11q141 -37 230 -138.5t89 -237.5 q0 -172 -138.5 -286t-349.5 -114q-191 0 -316 92t-125 234z" />
<glyph unicode="4" horiz-adv-x="1078" d="M33 330v92l649 1015h57v-1019q61 2 92 8t51 25.5t24.5 48t4.5 86.5h64v-410h-64q0 54 -5 82t-24.5 47.5t-51 25t-91.5 7.5v-39q0 -50 2 -83.5t8.5 -60t16.5 -42t27 -26t38.5 -14t53.5 -3.5v-70h-518v70q63 0 98.5 8.5t57.5 34.5t29 65t7 107v45h-526zM125 422h434v656 h-10z" />
<glyph unicode="5" horiz-adv-x="1046" d="M40 236q0 50 23 77.5t66 27.5q35 0 57.5 -20.5t30.5 -51.5t20 -67t27 -67t50.5 -51.5t89.5 -20.5q142 0 223.5 131t81.5 353q0 159 -43.5 231.5t-143.5 72.5q-76 0 -126 -41.5t-81 -132.5q-11 -33 -19.5 -42.5t-24.5 -9.5q-18 0 -29.5 9.5t-11.5 27.5q0 9 2 15l197 760 q77 -32 216 -32q175 0 245 34l11 -2q-23 -105 -97.5 -161.5t-189.5 -56.5h-162l-87 -331l4 -5q28 21 80.5 34.5t106.5 13.5q163 0 272.5 -122.5t109.5 -303.5q0 -108 -42 -205.5t-114 -166.5t-172 -110t-212 -41q-156 0 -257 71.5t-101 182.5z" />
<glyph unicode="6" horiz-adv-x="1184" d="M112 621q0 221 79 409t213.5 297.5t292.5 109.5q133 0 225.5 -54t92.5 -133q0 -45 -26.5 -70.5t-72.5 -25.5q-39 0 -64.5 20.5t-40.5 50.5t-31.5 59t-50 49.5t-85.5 20.5q-84 0 -152 -75t-107 -208t-39 -297l6 -4q59 86 129.5 126t162.5 40q186 0 311 -131.5t125 -327.5 q0 -136 -65 -250t-178 -179.5t-246 -65.5q-139 0 -248 81t-170 226.5t-61 331.5zM343 522q0 -226 65 -341.5t191 -115.5q127 0 189 99t62 306q0 183 -59.5 279.5t-173.5 96.5q-83 0 -148 -55.5t-126 -178.5v-90z" />
<glyph unicode="7" horiz-adv-x="925" d="M59 1013l129 517h74q-7 -22 -7 -58q0 -31 27.5 -42t111.5 -11h540v-37q-182 -411 -260.5 -600t-207.5 -531q-59 -158 -100.5 -213.5t-91.5 -55.5q-31 0 -55 23.5t-24 51.5q0 35 17.5 83t84.5 184.5t221 431.5l251 481h-343q-62 0 -97.5 -3.5t-64.5 -10.5t-46.5 -26 t-30.5 -43t-30 -69l-28 -72h-70z" />
<glyph unicode="8" horiz-adv-x="1116" d="M109 332q0 230 309 380q-260 138 -260 357q0 153 118 266q111 102 277 102q143 0 258 -77q140 -98 140 -248q0 -197 -242 -314q295 -156 295 -407q0 -174 -129.5 -291.5t-321.5 -117.5q-189 0 -316.5 101t-127.5 249zM284 338q0 -125 75 -198t202 -73q126 0 201 72 t75 191q0 83 -50.5 144t-179.5 136l-111 63q-104 -57 -158 -143.5t-54 -191.5zM317 1141q0 -73 53 -133t175 -125l87 -46q79 53 122.5 122t43.5 143q0 108 -73 180t-181 72q-103 0 -165 -58.5t-62 -154.5z" />
<glyph unicode="9" horiz-adv-x="1184" d="M105 942q0 136 65 250t177.5 179.5t245.5 65.5q140 0 249 -81t170 -226.5t61 -331.5q0 -220 -79 -408t-213.5 -298t-291.5 -110q-133 0 -226.5 54.5t-93.5 132.5q0 44 27 70.5t73 26.5q40 0 65 -21t40 -50t31.5 -59t50.5 -50.5t86 -20.5q84 0 151.5 75t106.5 208.5 t39 296.5l-6 4q-59 -86 -129 -126t-162 -40q-186 0 -311.5 131.5t-125.5 327.5zM336 950q0 -184 59 -280.5t173 -96.5q84 0 148.5 55.5t125.5 178.5v90q0 226 -65 341.5t-191 115.5q-127 0 -188.5 -99t-61.5 -305z" />
<glyph unicode=":" horiz-adv-x="524" d="M142 102q0 51 35 86t85 35q51 0 86 -35t35 -86t-35 -85.5t-86 -34.5q-50 0 -85 35t-35 85zM142 702q0 51 35 86.5t85 35.5q51 0 86 -35.5t35 -86.5q0 -50 -35 -85t-86 -35q-50 0 -85 35t-35 85z" />
<glyph unicode=";" horiz-adv-x="572" d="M130 -264q99 70 142 134.5t43 143.5q-23 -14 -55 -14q-41 0 -68.5 30.5t-27.5 78.5q0 51 34 82.5t89 31.5q65 0 99 -47t34 -137q0 -103 -54.5 -182.5t-191.5 -178.5zM164 702q0 51 34.5 86.5t85.5 35.5t86.5 -35.5t35.5 -86.5q0 -50 -35.5 -85t-86.5 -35q-50 0 -85 35 t-35 85z" />
<glyph unicode="&#x3c;" horiz-adv-x="1070" d="M72 561v118l844 427v-103l-761 -384l761 -387v-100z" />
<glyph unicode="=" horiz-adv-x="1142" d="M153 464v92h837v-92h-837zM153 778v92h837v-92h-837z" />
<glyph unicode="&#x3e;" horiz-adv-x="1070" d="M155 132v100l761 387l-761 384v103l844 -427v-118z" />
<glyph unicode="?" horiz-adv-x="735" d="M127 1335q0 102 114 102q99 0 189 -64t144 -171.5t54 -225.5q0 -139 -77.5 -216.5t-218.5 -77.5v-246h-102v423h54q118 0 179 46t61 136q0 89 -47.5 152t-113.5 63q-23 0 -70.5 -10.5t-67.5 -10.5q-43 0 -70.5 28t-27.5 72zM155 102q0 51 34.5 86t84.5 35q52 0 87 -35 t35 -86t-35 -85.5t-87 -34.5q-49 0 -84 35t-35 85z" />
<glyph unicode="@" horiz-adv-x="1896" d="M95 553q0 183 74 347.5t200 282t301 186t371 68.5q218 0 386.5 -82.5t260.5 -232.5t92 -344q0 -166 -64.5 -313t-173 -235t-230.5 -88q-177 0 -193 212h-7q-57 -96 -142.5 -154t-169.5 -58q-119 0 -197.5 89t-78.5 226q0 132 70.5 257.5t185 203t233.5 77.5q86 0 138 -44 t78 -137l8 -1l40 163h177l-123 -436q-49 -171 -49 -232q0 -34 22.5 -54t59.5 -20q80 0 157.5 79t126.5 205.5t49 255.5q0 165 -83 297.5t-230.5 207.5t-331.5 75q-164 0 -310 -62t-251 -169t-166 -256t-61 -316q0 -209 93.5 -370.5t264 -250t391.5 -88.5q311 0 579 184 l39 -58q-162 -112 -315 -163.5t-326 -51.5q-258 0 -462.5 102t-318.5 284t-114 414zM704 418q0 -95 31.5 -144t92.5 -49q77 0 157 75.5t131.5 193.5t51.5 232q0 90 -37 141t-102 51q-79 0 -155.5 -72.5t-123 -189t-46.5 -238.5z" />
<glyph unicode="A" horiz-adv-x="1422" d="M-11 0v70q86 10 127.5 40.5t73.5 109.5l479 1199h79l418 -1039q44 -107 73.5 -165t62.5 -92t63.5 -42.5t81.5 -8.5v-72h-601v72q96 0 133.5 18t37.5 61q0 35 -8.5 67t-33.5 97l-76 199h-491q-115 -274 -115 -354q0 -50 33 -70t110 -20v-70h-447zM445 607h420l-205 543z " />
<glyph unicode="B" horiz-adv-x="1413" d="M70 0v70q75 2 115.5 10t66 32.5t33 62t7.5 105.5v859q0 129 -33 167t-152 43v70h551q247 0 386.5 -89t139.5 -248q0 -120 -77 -198t-242 -128v-8q112 -12 173.5 -31t118.5 -57q164 -116 164 -291q0 -97 -55 -181t-151 -133q-62 -32 -141.5 -43.5t-239.5 -11.5h-664z M485 290q0 -113 59 -162t195 -49q334 0 334 286q0 208 -172 291q-58 28 -121 36t-212 8h-83v-410zM485 793h103q114 0 161 8t93 36q58 36 83.5 88t25.5 135q0 144 -70.5 208.5t-222.5 64.5h-142q-31 0 -31 -32v-508z" />
<glyph unicode="C" horiz-adv-x="1477" d="M111 686q0 165 51.5 305t144 238.5t224 153t285.5 54.5q111 0 209 -31t212 -101l33 114h51l17 -424h-68q-40 161 -157 254t-280 93q-223 0 -349.5 -172t-126.5 -473q0 -297 125 -456.5t357 -159.5q175 0 291 96t166 282h76v-459h-65l-43 146q-193 -164 -468 -164 q-313 0 -499 191t-186 513z" />
<glyph unicode="D" horiz-adv-x="1629" d="M70 0v70q75 2 115 9.5t65.5 32t33.5 62t8 106.5v859q0 129 -33 167t-152 43v70h647q220 0 395 -94.5t273.5 -261.5t98.5 -377q0 -200 -92.5 -356t-258.5 -243t-379 -87h-721zM485 301q0 -107 67.5 -159t207.5 -52q252 0 386.5 151.5t134.5 440.5q0 304 -141.5 475.5 t-388.5 171.5h-235q-31 0 -31 -31v-997z" />
<glyph unicode="E" horiz-adv-x="1337" d="M83 0v70q55 2 88 8t57.5 18t35.5 37t16 58.5t5 88.5v859q0 69 -5.5 105.5t-27 60.5t-55 32.5t-95.5 11.5v70h1064l18 -324h-65q-22 144 -102.5 194.5t-272.5 50.5h-234q-15 0 -23 -8.5t-8 -22.5v-530q195 0 272 49.5t77 163.5h64v-503h-64q0 77 -29 122t-106 69.5 t-214 25.5v-416q0 -120 65.5 -165.5t240.5 -45.5q195 0 279.5 60t120.5 224h71l-28 -363h-1145z" />
<glyph unicode="F" horiz-adv-x="1234" d="M83 0v70q55 2 88 8t57.5 18t35.5 37t16 58.5t5 88.5v859q0 69 -5.5 105.5t-27 60.5t-55 32.5t-95.5 11.5v70h1064l21 -352h-65q-23 157 -101 210.5t-277 53.5h-234q-15 0 -23 -8.5t-8 -22.5v-558q184 0 260.5 47.5t88.5 183.5h64v-540h-64q-10 73 -30 116.5t-61 71 t-101 37.5t-157 11v-376q0 -50 3 -81.5t14 -58t27 -40.5t47 -24t68.5 -13.5t96.5 -5.5v-70h-652z" />
<glyph unicode="G" horiz-adv-x="1602" d="M111 686q0 165 51.5 305t144 238.5t224 153t285.5 54.5q111 0 209 -31t212 -101l38 114h65l-24 -424h-88q0 87 -33.5 155t-90 109t-125.5 62t-146 21q-223 0 -349.5 -172t-126.5 -473q0 -297 125 -456.5t357 -159.5q172 0 274 76t102 184q0 105 -42 144t-143 39v69h523 v-69q-89 0 -119.5 -34.5t-30.5 -130.5v-206q-74 0 -127.5 -16t-155.5 -74q-144 -81 -331 -81q-312 0 -495 191t-183 513z" />
<glyph unicode="H" horiz-adv-x="1704" d="M83 0v70q55 2 88 8t57.5 18t35.5 37t16 58.5t5 88.5v859q0 69 -5.5 105.5t-27 60.5t-55 32.5t-95.5 11.5v70h560v-70q-119 -3 -151 -43t-32 -180v-354h747v367q0 129 -33 167t-152 43v70h561v-70q-119 -3 -151 -43t-32 -180v-833q0 -49 3 -81t11.5 -58.5t21 -40.5t37 -24 t53.5 -13.5t75 -5.5v-70h-597v70q55 2 88.5 8t57.5 18t35.5 37t16.5 58.5t5 88.5v400h-747v-387q0 -74 6 -113.5t29.5 -65.5t60 -34t105.5 -10v-70h-597z" />
<glyph unicode="I" horiz-adv-x="764" d="M83 0v70q47 2 75.5 5.5t53.5 15.5t37.5 28.5t21.5 47.5t11.5 69.5t2.5 99.5v748q0 54 -2 90.5t-9.5 68t-20 49.5t-34 31t-49.5 18.5t-68 7.5v70h560v-70q-50 -2 -80.5 -10.5t-52 -25t-32 -50.5t-14.5 -77.5t-4 -114.5v-723q0 -64 2.5 -105t11.5 -73.5t21 -49.5t37 -29 t54 -15.5t75 -5.5v-70h-597z" />
<glyph unicode="J" horiz-adv-x="725" d="M-202 -301q0 47 24 73t69 26q34 0 55.5 -18t49.5 -70q32 -59 55.5 -80t59.5 -21q74 0 115 81.5t41 230.5v1218q0 129 -32.5 167t-151.5 43v70h561v-70q-119 -3 -151 -43t-32 -180v-1130q0 -231 -98.5 -353t-285.5 -122q-126 0 -202.5 49t-76.5 129z" />
<glyph unicode="K" horiz-adv-x="1435" d="M83 0v70q128 0 165 39t37 171v859q0 72 -7 112.5t-30.5 63t-55 28.5t-90.5 6v70h560v-70q-48 0 -76.5 -5t-51.5 -17t-33.5 -38t-16 -64.5t-5.5 -98.5v-456l461 556q36 45 36 72q0 51 -104 51v70h444v-68q-76 0 -122 -25.5t-121 -112.5l-347 -400l538 -647 q47 -55 88 -75.5t108 -20.5v-70h-566v70q72 0 103.5 12t31.5 38q0 35 -63 110l-359 443l-128 -147v-233q0 -73 7 -114t30.5 -67t60.5 -34t103 -8v-70h-597z" />
<glyph unicode="L" horiz-adv-x="1339" d="M83 0v70q55 2 88 8t57.5 18t35.5 37t16 58.5t5 88.5v859q0 69 -5.5 105.5t-27 60.5t-55 32.5t-95.5 11.5v70h560v-70q-119 -3 -151 -43t-32 -180v-794q0 -52 6 -90t22.5 -66t40 -46t62 -28.5t85 -14.5t112.5 -4q110 0 178.5 11t119 43t78 84.5t48.5 141.5h70l-27 -363 h-1191z" />
<glyph unicode="M" horiz-adv-x="2008" d="M83 0v70q47 2 75.5 5.5t53.5 15.5t37.5 28.5t21.5 47.5t11.5 69.5t2.5 99.5v748q0 54 -2 90.5t-9.5 68t-20 49.5t-34 31t-49.5 18.5t-68 7.5v70h440l464 -1089h7l480 1089h413v-70q-49 -2 -79.5 -10.5t-52.5 -25t-32 -50.5t-14 -77.5t-4 -114.5v-723q0 -64 2 -105 t11 -73.5t21 -49.5t37 -29t53.5 -15.5t75.5 -5.5v-70h-596v70q46 2 75 5.5t53.5 15.5t37.5 28.5t22 47.5t11.5 69.5t2.5 99.5v855h-19l-538 -1209h-41l-528 1209h-8v-843q0 -64 2.5 -105t11.5 -73.5t21.5 -49.5t37 -29t53.5 -15.5t76 -5.5v-70h-515z" />
<glyph unicode="N" horiz-adv-x="1662" d="M83 0v70q47 2 75.5 5.5t53.5 15.5t37.5 28.5t21.5 47.5t11.5 69.5t2.5 99.5v748q0 54 -2 90.5t-9.5 68t-20 49.5t-34 31t-49.5 18.5t-68 7.5v70h364l806 -1074h7v726q0 64 -2.5 105t-10.5 73.5t-19 50t-33.5 29t-48.5 15t-68 5.5v70h495v-70q-47 -2 -75.5 -5.5t-53.5 -15 t-37.5 -28.5t-21.5 -48t-11.5 -69.5t-2.5 -98.5v-1102h-111l-875 1154h-8v-788q0 -55 2 -91.5t6.5 -68t14 -50t22 -32.5t34 -21t45 -10.5t59.5 -4.5v-70h-496z" />
<glyph unicode="O" horiz-adv-x="1743" d="M105 698q0 206 101.5 375.5t277.5 266.5t388 97t388 -97t277.5 -266.5t101.5 -375.5q0 -147 -60.5 -280t-162.5 -228.5t-244 -151.5t-299.5 -56t-300 56t-244.5 151.5t-162.5 228.5t-60.5 280zM345 693q0 -281 142 -445.5t385 -164.5q242 0 384.5 164.5t142.5 445.5 q0 296 -142 469.5t-385 173.5t-385 -173.5t-142 -469.5z" />
<glyph unicode="P" horiz-adv-x="1265" d="M83 0v70q55 2 88 8t57.5 18t35.5 37t16 58.5t5 88.5v859q0 69 -5.5 105.5t-27 60.5t-55 32.5t-95.5 11.5v70h578q253 0 393 -94t140 -261q0 -203 -135 -311t-433 -108h-166v-355q0 -73 7.5 -112t36.5 -65.5t76 -34.5t135 -8v-70h-651zM479 737h131q186 0 274.5 72.5 t88.5 231.5q0 153 -70.5 222.5t-222.5 69.5h-170q-15 0 -23 -8.5t-8 -23.5v-564z" />
<glyph unicode="Q" horiz-adv-x="1746" d="M107 693q0 157 59.5 295t161.5 236.5t244.5 155.5t301.5 57q212 0 388 -97t277.5 -267t101.5 -376q0 -168 -69.5 -312t-190.5 -250q-71 -60 -161.5 -105.5t-213.5 -90.5q-122 -48 -182 -94v-7q28 4 64 4q74 0 154.5 -22t140.5 -48t137 -47.5t143 -21.5q85 0 130 37 t73 128h47q7 -45 7 -78q0 -115 -93 -192t-230 -77q-76 0 -153.5 26t-140.5 63t-123 74t-121 63t-111 26q-43 0 -77.5 -19t-53.5 -41t-44.5 -40.5t-52.5 -18.5q-25 0 -39.5 12.5t-14.5 32.5q0 26 20.5 44.5t101.5 66.5l240 137q-153 4 -287 65t-229 160.5t-150 235t-55 285.5 zM346 693q0 -301 142.5 -478.5t385.5 -177.5q241 0 383.5 177.5t142.5 478.5q0 296 -141.5 469.5t-384.5 173.5t-385.5 -173.5t-142.5 -469.5z" />
<glyph unicode="R" horiz-adv-x="1451" d="M83 0v70q55 2 88 8t57.5 18t35.5 37t16 58.5t5 88.5v859q0 69 -5.5 105.5t-27 60.5t-55 32.5t-95.5 11.5v70h578q253 0 393 -94t140 -261q0 -151 -91 -247.5t-280 -128.5l408 -491q48 -57 107 -85.5t145 -41.5v-70h-355l-452 579q-47 61 -87 77.5t-129 16.5v-383 q0 -73 7.5 -112t36.5 -65.5t76 -34.5t135 -8v-70h-651zM479 765h131q185 0 274 69t89 220q0 147 -70.5 213t-222.5 66h-170q-15 0 -23 -8.5t-8 -23.5v-536z" />
<glyph unicode="S" horiz-adv-x="1188" d="M107 433h69q26 -167 138.5 -262t278.5 -95q136 0 215.5 64.5t79.5 174.5q0 95 -68 160t-254 146q-229 101 -314.5 192t-85.5 234q0 171 116 280.5t297 109.5q157 0 293 -108l48 83h42l21 -367h-69q-88 299 -330 299q-112 0 -178.5 -56t-66.5 -149q0 -87 62.5 -148.5 t219.5 -131.5q140 -63 227.5 -113.5t143 -105t76.5 -110.5t21 -130q0 -186 -139.5 -302t-361.5 -116q-106 0 -190 30t-169 99l-52 -90h-42z" />
<glyph unicode="T" horiz-adv-x="1479" d="M39 1067v352h1391l19 -352h-76q-11 158 -81 215.5t-234 57.5q-90 0 -135 -6t-59 -17.5t-14 -34.5v-985q0 -65 8 -102t32.5 -67t71.5 -42.5t125 -15.5v-70h-696v70q78 3 124.5 15.5t72.5 42.5t34 67.5t8 101.5v985q0 23 -12 34.5t-51.5 17.5t-116.5 6q-49 0 -80 -1.5 t-70.5 -7t-63.5 -16.5t-51 -31t-41 -48.5t-24.5 -71t-12.5 -97.5h-68z" />
<glyph unicode="U" horiz-adv-x="1586" d="M53 1349v70h629v-70q-68 0 -104.5 -8.5t-57.5 -35.5q-24 -31 -32.5 -102.5t-8.5 -212.5v-501q0 -197 86.5 -295.5t285.5 -98.5q183 0 276 103t93 302v444q0 169 -13 252t-48 116q-23 23 -60 30t-100 7v70h535v-70q-64 0 -100 -10t-57 -39q-27 -37 -36.5 -117.5 t-9.5 -238.5v-372q0 -299 -124 -444.5t-407 -145.5q-139 0 -238 27t-168 88t-102.5 161.5t-33.5 244.5v487q0 156 -7 221.5t-37 97.5q-21 22 -58.5 31t-102.5 9z" />
<glyph unicode="V" horiz-adv-x="1444" d="M-24 1347v72h601v-72q-98 0 -132.5 -18t-34.5 -59q0 -47 44 -158l327 -830l325 800q50 120 50 177q0 51 -31.5 70.5t-112.5 19.5v70h448v-70q-85 -10 -127 -41t-74 -108l-499 -1218h-65l-475 1148q-50 116 -101 164t-143 53z" />
<glyph unicode="W" horiz-adv-x="2167" d="M-21 1347v72h601v-72q-95 0 -132 -17t-37 -64q0 -40 29 -128l281 -854l227 638q14 42 46.5 125t43.5 119q-49 105 -89 143t-94 38v72h564v-72q-103 0 -135 -15t-32 -58q0 -39 39 -168l246 -828l288 800q48 130 48 188q0 47 -30.5 65t-108.5 18v70h448v-70q-82 0 -126 -34 t-74 -115l-463 -1218h-65l-353 1048l-394 -1048h-63l-384 1058q-35 96 -59.5 149t-56.5 92t-70 52.5t-95 13.5z" />
<glyph unicode="X" horiz-adv-x="1507" d="M4 0v70q88 0 151.5 39t148.5 147l361 461l-373 511q-46 63 -104 92t-137 29v70h612v-70q-119 0 -119 -72q0 -45 52 -121l200 -299l180 228q52 65 72.5 105.5t20.5 77.5q0 46 -30 63.5t-108 17.5v70h506v-70q-90 0 -138 -32.5t-149 -162.5l-293 -378l424 -575 q97 -131 234 -131v-70h-629v70q79 0 111.5 15t32.5 44q0 27 -17 62t-77 126l-210 313l-158 -199q-115 -146 -158 -212.5t-43 -100.5q0 -28 31.5 -38t117.5 -10v-70h-512z" />
<glyph unicode="Y" horiz-adv-x="1350" d="M-9 1349v70h581v-70q-92 0 -130 -14t-38 -48q0 -41 42 -111l286 -488h7l209 350q109 183 109 249q0 34 -27 48t-94 14v70h422v-70q-54 0 -92.5 -24t-84 -84.5t-124.5 -193.5l-285 -479v-220q0 -64 2.5 -104t11 -74t20.5 -51t36.5 -29.5t54 -16t76.5 -3.5v-70h-597v70 q55 0 89 7t58 21.5t35.5 47t16 75.5t4.5 115v225l-369 630q-57 95 -100 126.5t-119 31.5z" />
<glyph unicode="Z" horiz-adv-x="1418" d="M30 0v7l969 1335h-505q-130 0 -195.5 -59.5t-90.5 -202.5h-68l27 339h1124v-7l-961 -1327h571q66 0 111.5 5t82 21.5t60 39.5t43 64t31 91.5t23.5 126.5h79l-22 -433h-1279z" />
<glyph unicode="[" horiz-adv-x="683" d="M197 -276v1787h445v-86h-279v-1615h279v-86h-445z" />
<glyph unicode="\" horiz-adv-x="847" d="M53 1419h91l651 -1419h-107z" />
<glyph unicode="]" horiz-adv-x="683" d="M42 -190h278v1615h-278v86h445v-1787h-445v86z" />
<glyph unicode="^" horiz-adv-x="884" d="M140 424l219 330h167l218 -330h-82l-219 218l-220 -218h-83z" />
<glyph unicode="_" horiz-adv-x="1330" d="M140 -139h1051v-125h-1051v125z" />
<glyph unicode="`" horiz-adv-x="506" d="M37 1416q0 29 19 46.5t51 17.5q57 0 123 -61l240 -219h-87l-253 119q-93 45 -93 97z" />
<glyph unicode="a" horiz-adv-x="1020" d="M79 201q0 91 68.5 164.5t230.5 142.5l266 117v75q0 115 -47 170t-145 55q-63 0 -89.5 -23.5t-51.5 -95.5q-20 -53 -39.5 -71t-55.5 -18q-45 0 -69 24t-24 68q0 88 94.5 137t267.5 49q185 0 262 -65t77 -223v-412q0 -210 83 -210q66 0 90 40l26 -44q-22 -42 -81 -70.5 t-124 -28.5q-79 0 -119.5 51t-40.5 146h-9q-50 -91 -134.5 -143t-186.5 -52q-114 0 -181.5 59.5t-67.5 157.5zM266 232q0 -61 40.5 -99.5t106.5 -38.5q95 0 163 90t68 216v145q-205 -77 -291.5 -152t-86.5 -161z" />
<glyph unicode="b" d="M-2 1410v46l347 74v-684h7q59 77 130.5 113t164.5 36q131 0 239 -66.5t169.5 -183t61.5 -256.5q0 -217 -137 -363.5t-338 -146.5q-104 0 -196 39t-151 105l-87 -123h-41v1113q0 187 -23 238q-13 27 -37 37.5t-109 21.5zM348 385q0 -138 77 -227.5t196 -89.5 q129 0 208.5 114.5t79.5 300.5q0 188 -82.5 307t-212.5 119q-75 0 -134 -36.5t-91 -100.5q-41 -79 -41 -223v-164z" />
<glyph unicode="c" horiz-adv-x="987" d="M90 482q0 234 141.5 373.5t371.5 139.5q142 0 233 -45t91 -117q0 -36 -24.5 -56.5t-65.5 -20.5q-34 0 -56.5 15t-56.5 61q-36 43 -70.5 60t-87.5 17q-130 0 -197.5 -102t-67.5 -299q0 -209 75 -320t217 -111q153 0 285 129l54 -53q-66 -80 -171 -125.5t-226 -45.5 q-197 0 -321 138t-124 362z" />
<glyph unicode="d" horiz-adv-x="1243" d="M88 490q0 219 136.5 362t343.5 143q167 0 291 -123v188q0 222 -11 271q-10 41 -53 57.5t-137 16.5v55l378 70v-1064q0 -272 12 -326q11 -46 38.5 -60.5t111.5 -14.5v-63l-306 -20v173h-7q-66 -92 -140.5 -132.5t-176.5 -40.5q-209 0 -344.5 143t-135.5 365zM297 500 q0 -199 70 -314.5t201 -115.5q68 0 136.5 31.5t102.5 84.5q26 40 37 97t11 157v122q0 98 -10.5 147t-38.5 86q-40 53 -106 82.5t-132 29.5q-130 0 -200.5 -109.5t-70.5 -297.5z" />
<glyph unicode="e" horiz-adv-x="1055" d="M90 477q0 227 142 372.5t364 145.5q177 0 275 -97.5t98 -276.5q0 -24 -9.5 -30.5t-46.5 -6.5h-607q-7 -28 -7 -83q0 -192 89 -308t237 -116q149 0 280 146l57 -52q-157 -189 -389 -189q-215 0 -349 137t-134 358zM319 669h339q74 0 92.5 9t18.5 43q0 85 -55 135.5 t-148 50.5q-98 0 -161 -60.5t-86 -177.5z" />
<glyph unicode="f" horiz-adv-x="758" d="M40 860v88h208v132q0 212 112.5 331t318.5 119q113 0 185 -35t72 -90q0 -37 -23.5 -62t-57.5 -25q-39 0 -113 61q-45 39 -71.5 51t-60.5 12q-110 0 -158 -113q-30 -63 -30 -238v-143h297v-88h-297v-563q0 -138 38 -183.5t154 -48.5v-65h-524v65q38 2 61 5.5t42 13 t28.5 22.5t16.5 38.5t8.5 56.5t1.5 81v578h-208z" />
<glyph unicode="g" horiz-adv-x="1103" d="M59 -221q0 77 48.5 130.5t115.5 53.5q63 0 113 -39q-50 -10 -81.5 -53.5t-31.5 -99.5q0 -80 80.5 -124.5t227.5 -44.5q315 0 315 194q0 71 -48.5 120.5t-118.5 59.5q-153 21 -331 40q-102 11 -155.5 56t-53.5 122q0 64 52.5 114.5t134.5 62.5v7q-82 33 -135.5 115.5 t-53.5 176.5q0 141 103 233t260 92q80 0 152 -25.5t124 -72.5q119 98 200 98q67 0 106.5 -30.5t39.5 -81.5q0 -30 -20.5 -49.5t-53.5 -19.5q-35 0 -71.5 29t-65.5 29q-46 0 -91 -31q45 -69 45 -172q0 -156 -99.5 -246.5t-292.5 -103.5q-115 -9 -157.5 -24.5t-42.5 -53.5 q0 -52 131 -60q127 -10 303 -35q135 -20 214.5 -103t79.5 -205q0 -153 -123.5 -235t-353.5 -82q-206 0 -335.5 71.5t-129.5 186.5zM330 665q0 -121 48 -195t127 -74q77 0 120.5 70.5t43.5 196.5q0 125 -44 194.5t-122 69.5q-79 0 -126 -71t-47 -191z" />
<glyph unicode="h" horiz-adv-x="1268" d="M40 1397v63l340 70v-702h7q57 74 158 120.5t203 46.5q84 0 155.5 -29t109.5 -80q62 -79 62 -298v-295q0 -55 0.5 -86t7 -59.5t14.5 -41t27.5 -22.5t41 -13t60.5 -6v-65h-489v65q38 2 60.5 5t42 13t28.5 22t15 38t7.5 56.5t1.5 80.5v232q0 208 -47.5 295t-160.5 87 q-86 0 -158 -44t-111 -122q-20 -39 -26 -76.5t-6 -122.5v-236q0 -41 0.5 -67t4 -52t7 -39.5t12.5 -27t18.5 -19.5t27 -12t35.5 -7.5t47 -3.5v-65h-491v65q33 2 54 5t40 8.5t28.5 16.5t18 24.5t12 38t4.5 52t1 70.5v772q0 209 -12 271q-8 45 -37.5 59.5t-112.5 14.5z" />
<glyph unicode="i" horiz-adv-x="628" d="M59 860v65l361 70v-702q0 -74 6 -115t26 -67.5t51 -35t88 -10.5v-65h-528v65q77 3 113 21t49.5 60.5t13.5 133.5v236q0 224 -12 271q-8 43 -43 58t-125 15zM208 1369.5q0 48.5 33 81.5t81.5 33t81 -33t32.5 -81.5t-32.5 -81t-81 -32.5t-81.5 32.5t-33 81z" />
<glyph unicode="j" horiz-adv-x="559" d="M-253 -308q0 42 25 64.5t70 22.5q33 0 50 -16t45 -71q27 -56 49 -74t67 -18q88 0 123.5 61t35.5 214v641q0 220 -13 271q-8 43 -42.5 58t-124.5 15v65l360 70v-999q0 -229 -97.5 -352t-280.5 -123q-118 0 -192.5 48t-74.5 123zM184 1369.5q0 48.5 33 81.5t81.5 33 t81.5 -33t33 -81.5t-33 -81t-81.5 -32.5t-81.5 32.5t-33 81z" />
<glyph unicode="k" horiz-adv-x="1134" d="M28 1397v63l355 70v-1012l171 168q16 15 35 34t31 30t26.5 25.5t22.5 23t18 18.5t14.5 17t9.5 13.5t6.5 11.5t1.5 9q0 20 -39.5 32.5t-109.5 12.5v63h478v-63q-67 0 -107 -18.5t-109 -80.5l-266 -235l365 -413q54 -62 90.5 -81.5t104.5 -19.5v-65h-484v65q106 0 106 20 q-3 27 -101 145l-195 236l-69 -65v-108q0 -143 30.5 -184t140.5 -44v-65h-522v65q58 2 90 10.5t52.5 33.5t27 63.5t6.5 107.5v772q0 222 -8 268q-5 28 -14 42q-15 24 -48 29.5t-110 5.5z" />
<glyph unicode="l" horiz-adv-x="598" d="M37 1399v63l348 68v-1243q0 -140 29 -179.5t135 -42.5v-65h-509v65q110 5 142 44t32 165v795q0 207 -12 259q-8 42 -42 56.5t-123 14.5z" />
<glyph unicode="m" horiz-adv-x="1977" d="M65 860v65l300 70l24 -184h9q84 94 175 139t201 45q116 0 195.5 -47.5t110.5 -134.5h7q68 86 167 134t208 48q86 0 157 -28.5t108 -78.5q33 -42 47 -111.5t14 -188.5v-293q0 -56 1.5 -87.5t8 -59.5t14.5 -41t27 -23t41.5 -13t60.5 -6v-65h-490v65q38 2 60.5 5.5t42 13 t28.5 22t15.5 38.5t8 56t1.5 80v232q0 211 -48.5 296.5t-167.5 85.5q-80 0 -152 -45.5t-111 -120.5q-20 -37 -25.5 -74t-5.5 -125v-234q0 -42 0.5 -67.5t3.5 -52t7 -40t13 -27.5t18.5 -20t27.5 -11.5t36.5 -7.5t48.5 -4v-65h-491v65q38 3 60.5 6t42 13t28.5 22t15.5 38 t7.5 56t1 80v232q0 214 -46.5 298t-165.5 84q-82 0 -155.5 -45.5t-110.5 -120.5q-20 -37 -25 -74t-5 -125v-234q0 -57 1 -88t7 -59.5t14 -41t27.5 -23t41 -13t60.5 -5.5v-65h-491v65q34 2 54.5 5t39.5 8.5t29 16.5t18 24.5t11.5 38t5 52t1.5 70.5v236q0 224 -13 271 q-9 46 -37 59.5t-112 13.5z" />
<glyph unicode="n" horiz-adv-x="1269" d="M65 867v58l294 70l23 -182h7q69 86 165 134t204 48q84 0 154.5 -27.5t107.5 -75.5q31 -42 43.5 -109t12.5 -185v-308q0 -54 1.5 -85.5t8 -59t15 -40.5t27.5 -23t40 -13t58 -6v-63h-478v63q37 2 59.5 5t41.5 13t28 22.5t15 38t7.5 55.5t1.5 79v244q0 208 -47.5 292 t-162.5 84q-82 0 -151.5 -44t-108.5 -118q-20 -39 -26.5 -76t-6.5 -122v-246q0 -55 1 -85.5t7 -59t14.5 -40.5t28 -22.5t41.5 -13.5t61 -6v-63h-483v63q56 4 83 10.5t45.5 31t22.5 61t4 110.5v246q0 220 -11 267q-10 50 -37.5 64t-109.5 14z" />
<glyph unicode="o" d="M88 496q0 142 70.5 257t187 178.5t253.5 63.5q104 0 199 -37.5t165 -103t112 -159t42 -199.5q0 -146 -71 -265t-189 -184t-258 -65q-137 0 -253.5 65t-187 183.5t-70.5 265.5zM297 494q0 -191 82 -304.5t220 -113.5q142 0 226 114t84 304q0 185 -85 299t-225 114 q-136 0 -219 -113.5t-83 -299.5z" />
<glyph unicode="p" horiz-adv-x="1251" d="M33 855v63l354 70v-144h7q125 151 286 151q209 0 345 -143.5t136 -364.5q0 -223 -137.5 -364t-344.5 -141q-171 0 -285 122v-270q0 -77 6.5 -118t31 -67.5t62.5 -34.5t111 -10v-65h-568v65q58 2 90 11t53.5 33.5t27.5 64t6 108.5v689q0 219 -13 269q-8 45 -42.5 60.5 t-125.5 15.5zM394 428q0 -99 11 -147t40 -86q42 -58 101.5 -90.5t122.5 -32.5q127 0 205.5 109t78.5 298q0 191 -81.5 309.5t-213.5 118.5q-67 0 -123 -30.5t-92 -85.5q-49 -76 -49 -219v-144z" />
<glyph unicode="q" horiz-adv-x="1203" d="M88 475q0 107 38 203.5t101.5 166t151.5 110t185.5 40.5t190.5 -40.5t154 -108.5l81 127h46v-1139q0 -56 1.5 -87.5t9 -60.5t18.5 -41.5t34.5 -23t51 -13t75.5 -4.5v-65h-563v65q117 3 157 47t40 170v311h-7q-65 -80 -134.5 -115t-165.5 -35q-206 0 -335.5 137 t-129.5 356zM297 489q0 -193 78 -306t211 -113q76 0 136.5 35.5t91.5 98.5q41 80 41 224v162q0 136 -77.5 225.5t-193.5 89.5q-131 0 -209 -113t-78 -303z" />
<glyph unicode="r" horiz-adv-x="878" d="M67 841v64l322 70l26 -229h7q50 111 138.5 180t181.5 69q60 0 94 -28t34 -77q0 -45 -28 -69.5t-79 -24.5q-43 0 -85.5 23t-60.5 23q-49 0 -99 -63.5t-78 -161.5q-30 -103 -30 -261v-63v-67t3.5 -52t7 -39.5t12.5 -27t18.5 -19.5t27 -12t35.5 -7.5t47 -3.5v-65h-491v65 q39 2 62 5t42.5 13t28.5 22t16 38t8.5 56.5t1.5 80.5v216v112t-3.5 82t-6 63t-13 40t-19 27.5t-29 12.5t-38.5 7.5t-53 0.5z" />
<glyph unicode="s" horiz-adv-x="836" d="M118 0v317h46q71 -260 262 -260q75 0 117.5 36.5t42.5 108.5q0 53 -35.5 86t-177.5 122q-60 37 -91.5 58.5t-67 52t-52 56t-28 59.5t-11.5 76q0 124 79 203.5t196 79.5q50 0 104 -15.5t94 -41.5l36 38h35v-264h-48q-39 112 -87.5 160t-118.5 48q-63 0 -101 -33.5 t-38 -91.5q0 -57 38 -95t143 -102q72 -45 113.5 -73t81.5 -61.5t59 -61.5t30.5 -63t11.5 -77q0 -129 -85 -204.5t-223 -75.5q-144 0 -248 83l-37 -65h-40z" />
<glyph unicode="t" horiz-adv-x="696" d="M74 860v69q100 59 154.5 116t82.5 135h54v-232h247v-88h-247v-559q0 -131 27 -180t100 -49q46 0 79 19.5t63 65.5l46 -35q-26 -68 -90 -104t-157 -36q-122 0 -185.5 58t-63.5 166v654h-110z" />
<glyph unicode="u" horiz-adv-x="1234" d="M39 913v63h334v-503q0 -199 47 -290t150 -91q160 0 252 212q19 44 25 82.5t6 114.5v181q0 42 -0.5 67.5t-3.5 51t-6.5 39t-12.5 27t-18.5 20t-27.5 12t-36 8.5t-48 6v63h334v-565q0 -205 11 -271q8 -46 36 -59.5t113 -13.5v-65l-304 -23l-20 222h-8 q-68 -110 -158.5 -164.5t-193.5 -54.5q-79 0 -150.5 29t-108.5 79q-59 78 -59 299v293q0 56 -1 86.5t-7.5 59t-14.5 40.5t-27.5 23t-41.5 14.5t-61 7.5z" />
<glyph unicode="v" horiz-adv-x="1124" d="M9 913v63h489v-63q-80 -3 -102 -13t-22 -52q0 -41 26 -114l196 -535h7l167 397q72 170 72 245q0 42 -23 57t-95 15v63h367v-63q-53 0 -96 -53q-17 -23 -38.5 -71.5t-44 -106.5t-31.5 -77l-271 -626h-107l-311 769q-30 76 -54.5 109.5t-50 43.5t-78.5 12z" />
<glyph unicode="w" horiz-adv-x="1569" d="M22 913v63h488v-63q-71 0 -100.5 -17.5t-29.5 -56.5q0 -31 20 -105l126 -441h7l271 683h56l246 -683h7l111 298q46 123 61 173t15 82q0 40 -24.5 53.5t-99.5 13.5v63h368v-63q-54 0 -85 -40.5t-89 -184.5l-286 -706h-69l-224 680h-8l-271 -680h-67l-241 766 q-31 102 -65.5 133.5t-116.5 31.5z" />
<glyph unicode="x" horiz-adv-x="1122" d="M18 0v65q86 0 140 32.5t135 134.5l189 231l-246 348q-41 58 -77 80t-89 22v63h454v-63q-95 0 -95 -45q0 -27 35 -77l134 -193l125 162q44 54 44 93q0 60 -109 60v63h404v-63q-66 0 -112 -31t-113 -117l-190 -241l245 -323q56 -74 105 -105t105 -31v-65h-490v65 q67 0 92.5 10.5t25.5 38.5q0 21 -68 111l-129 166l-157 -199q-28 -35 -28 -67q0 -60 92 -60v-65h-422z" />
<glyph unicode="y" horiz-adv-x="1177" d="M7 913v63h489v-63q-123 0 -123 -62q0 -56 51 -181l202 -489h10l168 415q49 119 63 162t14 74q0 48 -26 64.5t-103 16.5v63h405v-63q-24 0 -40.5 -3.5t-35 -16.5t-32.5 -31t-34.5 -55.5t-41.5 -82.5t-53 -119l-402 -895q-85 -189 -263 -189q-116 0 -116 87q0 46 31.5 67.5 t119.5 34.5q75 12 114.5 41.5t74.5 99.5l65 128l-354 769q-48 103 -79 131t-104 34z" />
<glyph unicode="z" horiz-adv-x="1026" d="M33 0v7l637 892h-204q-84 0 -130.5 -6t-81 -25.5t-50 -53t-25.5 -91.5h-59l29 253h793v-7l-629 -884h216q80 0 131 4.5t91.5 16.5t65 36t41.5 57t30 86h62l-32 -285h-885z" />
<glyph unicode="{" horiz-adv-x="617" d="M53 608v46q99 20 132 72.5t33 165.5v323q0 93 12.5 149t47.5 95t96.5 55t160.5 16v-42q-84 -22 -118 -78t-34 -156v-331q0 -49 -3.5 -84.5t-14.5 -71t-31 -59.5t-53 -43t-79 -29v-10q107 -18 144 -79.5t37 -181.5v-365q0 -104 34 -157.5t125 -78.5v-40q-96 0 -155.5 12.5 t-99 45.5t-54.5 86.5t-15 138.5v362q0 44 -8.5 83t-26.5 74t-51.5 57t-78.5 25z" />
<glyph unicode="|" horiz-adv-x="533" d="M194 -461v1972h147v-1972h-147z" />
<glyph unicode="}" horiz-adv-x="617" d="M76 -236q90 25 124 78.5t34 157.5v365q0 120 37.5 181.5t143.5 79.5v10q-46 10 -79 29t-52.5 43t-31 59.5t-15 71t-3.5 84.5v331q0 100 -34 156t-117 78v42q99 0 160 -16t96 -55t48 -95t13 -149v-323q0 -113 32.5 -165.5t131.5 -72.5v-46q-45 -3 -78 -25t-51 -57 t-26.5 -74t-8.5 -83v-362q0 -85 -15.5 -138.5t-54.5 -86.5t-99 -45.5t-155 -12.5v40z" />
<glyph unicode="~" horiz-adv-x="1018" d="M155 459q17 97 71 153.5t131 56.5q52 0 178.5 -42.5t185.5 -42.5q34 0 52.5 16.5t32.5 61.5h61q-14 -97 -66.5 -157t-123.5 -60q-51 0 -183 44t-193 44q-35 0 -53 -16.5t-30 -57.5h-63z" />
<glyph unicode="&#xa1;" horiz-adv-x="567" d="M164 104q0 57 4.5 97t23.5 142q26 140 36.5 279t10.5 416h89q0 -272 11.5 -410t36.5 -278q14 -71 20 -116t7 -67t1 -63q0 -52 -33 -87t-87 -35t-87 35t-33 87zM164 1318q0 50 35 84.5t85 34.5q51 0 86.5 -34.5t35.5 -84.5q0 -52 -35.5 -87t-86.5 -35t-85.5 35t-34.5 87z " />
<glyph unicode="&#xa2;" horiz-adv-x="1022" d="M98 482q0 212 117.5 348.5t315.5 159.5v269h92v-264q137 -2 224 -46.5t87 -115.5q0 -36 -24 -56.5t-66 -20.5q-34 0 -56.5 15t-55.5 61q-54 62 -109 73v-828q138 9 262 129l55 -53q-56 -67 -138.5 -110.5t-178.5 -55.5v-258h-92v253q-193 4 -313 141.5t-120 358.5z M308 508q0 -181 56.5 -289t166.5 -134v820q-110 -15 -166.5 -116t-56.5 -281z" />
<glyph unicode="&#xa3;" horiz-adv-x="1252" d="M72 130q0 76 54 125t138 49q96 0 195 -57q11 41 11 110q0 55 -21 145.5t-55 179.5h-255v113h220q-42 142 -42 248q0 182 118 288t316 106q152 0 252.5 -60t100.5 -151q0 -41 -21 -63t-60 -22q-37 0 -60 21.5t-37.5 52.5t-33 61t-58.5 51.5t-102 21.5q-104 0 -164.5 -55.5 t-60.5 -148.5q0 -68 24 -160l48 -190h399v-113h-375q25 -90 25 -184q0 -178 -62 -294q66 -17 155.5 -28.5t156.5 -11.5q90 0 155.5 31t116.5 97l18 -8q0 -154 -71 -228t-198 -74q-78 0 -158 26t-225 101q-36 -55 -113 -92.5t-156 -37.5q-81 0 -128 41t-47 110zM190 142 q0 -59 92 -59t151 70q-98 48 -162 48q-36 0 -58.5 -16t-22.5 -43z" />
<glyph unicode="&#xa4;" horiz-adv-x="1129" d="M118 868l65 64l132 -132q108 86 249 86q138 0 249 -86l133 132l64 -64l-132 -133q88 -109 88 -250t-87 -249l131 -131l-64 -65l-132 131q-107 -86 -250 -86q-144 0 -251 89l-130 -132l-63 63l131 131q-87 109 -87 249q0 142 87 250zM256 485q0 -127 90.5 -217.5 t217.5 -90.5t218.5 90.5t91.5 217.5t-91.5 218.5t-218.5 91.5t-217.5 -91.5t-90.5 -218.5z" />
<glyph unicode="&#xa5;" horiz-adv-x="1477" d="M55 1349v70h581v-70q-101 0 -134.5 -13t-33.5 -49q0 -41 42 -111l286 -488h8l208 350q108 183 108 249q0 34 -26.5 48t-92.5 14v70h422v-70q-41 0 -69.5 -10.5t-63.5 -46t-72.5 -90.5t-97.5 -155l-223 -377h257v-109h-317v-128h317v-111h-317q1 -85 7.5 -131t29.5 -75.5 t59.5 -37.5t104.5 -8v-70h-598v70q46 0 75.5 3.5t53.5 14.5t37 27t22 47t12 67.5t4 92.5h-327v111h327v128h-327v109h262l-305 521q-56 95 -100 126.5t-119 31.5z" />
<glyph unicode="&#xa6;" horiz-adv-x="549" d="M201 -332v710h147v-710h-147zM201 673v709h147v-709h-147z" />
<glyph unicode="&#xa7;" horiz-adv-x="1043" d="M111 -18q0 69 32 111t84 42q48 0 83 -33.5t35 -80.5q0 -34 -20.5 -64t-40.5 -54t-20 -40q0 -39 75.5 -70t172.5 -31q119 0 186 54t67 151q0 67 -46.5 120t-162.5 119l-108 61q-182 102 -257 191.5t-75 206.5q0 96 47.5 166.5t135.5 106.5q-63 52 -97.5 126t-34.5 156 q0 143 94.5 226.5t254.5 83.5q150 0 249.5 -70.5t99.5 -178.5q0 -59 -31 -94t-83 -35q-49 0 -79 29t-30 75q0 28 13 49t25.5 36t12.5 31q0 36 -51.5 60t-127.5 24q-99 0 -154.5 -46t-55.5 -131q0 -68 44 -121t150 -113l110 -64q170 -99 245.5 -194t75.5 -208q0 -81 -38 -145 t-122 -126q142 -117 142 -282q0 -153 -114 -249.5t-294 -96.5q-171 0 -281.5 85.5t-110.5 216.5zM253 739q0 -57 36.5 -109.5t102.5 -91.5l299 -177q58 45 81 78t23 73q0 60 -44.5 119.5t-125.5 109.5l-245 145q-71 -37 -99 -69t-28 -78z" />
<glyph unicode="&#xa8;" horiz-adv-x="594" d="M37 1307q0 46 30.5 76.5t76.5 30.5t76.5 -30.5t30.5 -76.5t-30.5 -76.5t-76.5 -30.5t-76.5 30.5t-30.5 76.5zM345 1307q0 46 30.5 76.5t76.5 30.5t76.5 -30.5t30.5 -76.5t-30.5 -76.5t-76.5 -30.5t-76.5 30.5t-30.5 76.5z" />
<glyph unicode="&#xa9;" horiz-adv-x="1636" d="M105 709.5q0 147.5 56 282t150.5 232t226 155.5t275.5 58q146 0 279.5 -57t229.5 -153.5t153 -231.5t57 -283q0 -200 -96.5 -368t-261 -265t-360.5 -97q-144 0 -275.5 58t-226 155t-151 232t-56.5 282.5zM194 709q0 -173 82 -320t225 -233t313.5 -86t315 86t229.5 234 t85 322t-85 321t-229.5 231.5t-316.5 84.5q-170 0 -313 -86.5t-224.5 -233.5t-81.5 -320zM417 691q0 193 114.5 312t298.5 119q111 0 232 -75l18 65h39l9 -242h-48q-22 83 -86.5 130.5t-154.5 47.5q-124 0 -193 -92.5t-69 -257.5q0 -162 68.5 -247.5t196.5 -85.5 q180 0 234 197h62q-28 -126 -108 -199t-212 -73q-184 0 -292.5 109t-108.5 292z" />
<glyph unicode="&#xaa;" horiz-adv-x="696" d="M116 1043q0 48 34.5 83.5t122.5 73.5l128 57v35q0 54 -21.5 77.5t-69.5 23.5q-42 0 -58.5 -10.5t-24.5 -46.5q-10 -44 -48 -44q-47 0 -47 54q0 38 53 64.5t141 26.5q98 0 138.5 -32t40.5 -109v-207q0 -106 40 -106q29 0 45 23l13 -21q-12 -22 -44 -36.5t-67 -14.5 q-81 0 -81 89h-7q-24 -40 -65.5 -64.5t-90.5 -24.5q-60 0 -96 30t-36 79zM230 1069q0 -30 18 -50t47 -20q43 0 74.5 43t31.5 101v62q-171 -63 -171 -136z" />
<glyph unicode="&#xab;" horiz-adv-x="900" d="M90 483l314 293l36 -39l-182 -254l180 -254l-34 -37zM406 483l313 293l37 -39l-183 -254l181 -254l-35 -37z" />
<glyph unicode="&#xac;" horiz-adv-x="1152" d="M153 577v92h844v-467h-92v375h-752z" />
<glyph unicode="&#xad;" horiz-adv-x="853" d="M142 457v153h570v-153h-570z" />
<glyph unicode="&#xae;" horiz-adv-x="1636" d="M105 709.5q0 147.5 56 282t150.5 232t226 155.5t275.5 58q146 0 279.5 -57t229.5 -153.5t153 -231.5t57 -283q0 -200 -96.5 -368t-261 -265t-360.5 -97q-144 0 -275.5 58t-226 155t-151 232t-56.5 282.5zM194 709q0 -173 82 -320t225 -233t313.5 -86t315 86t229.5 234 t85 322t-85 321t-229.5 231.5t-316.5 84.5q-170 0 -313 -86.5t-224.5 -233.5t-81.5 -320zM448 338v40q66 3 84.5 24t18.5 92v477q0 71 -16.5 92t-75.5 24v47h322q147 0 228.5 -53t81.5 -147q0 -177 -199 -210l228 -276q27 -31 54.5 -47t69.5 -23v-40h-199l-254 314 q-24 35 -45 44.5t-66 9.5v-206q0 -41 4 -62t18.5 -36t39.5 -19.5t71 -4.5v-40h-365zM680 767h74q94 0 139 38.5t45 123.5q0 81 -37 115t-120 34h-84q-17 0 -17 -16v-295z" />
<glyph unicode="&#xaf;" horiz-adv-x="570" d="M37 1294v92h498v-92h-498z" />
<glyph unicode="&#xb0;" horiz-adv-x="637" d="M98 1217q0 91 65 155.5t156 64.5t156 -64.5t65 -155.5t-65 -156.5t-156 -65.5t-156 65.5t-65 156.5zM153 1216.5q0 -67.5 49 -117t116.5 -49.5t116 49.5t48.5 117t-48.5 116t-116 48.5t-116.5 -48.5t-49 -116z" />
<glyph unicode="&#xb1;" horiz-adv-x="1168" d="M153 176v91h862v-91h-862zM153 816v93h383v385h96v-385h383v-93h-383v-385h-96v385h-383z" />
<glyph unicode="&#xb2;" horiz-adv-x="524" d="M63 862v24q164 146 221 229.5t57 163.5q0 54 -27 85t-75 31q-38 0 -64 -27t-26 -67q0 -36 22.5 -57.5t58.5 -21.5q-2 -20 -20.5 -34t-45.5 -14q-41 0 -67.5 31t-26.5 79q0 66 52 109.5t131 43.5q81 0 133 -44.5t52 -113.5q0 -84 -67.5 -164t-191.5 -173v-8h157 q36 0 54.5 17.5t33.5 68.5h37l-28 -158h-370z" />
<glyph unicode="&#xb3;" horiz-adv-x="513" d="M65 986q0 40 24 67t60 27q25 0 44 -12t23 -30q-28 0 -46.5 -17.5t-18.5 -45.5q0 -34 25 -55t63 -21q51 0 77.5 31.5t26.5 91t-25 91.5t-70 32q-27 -14 -49 -14q-15 0 -24 8.5t-9 21.5q0 12 9 19t22 7q22 0 46 -9q39 0 63 34t24 91q0 49 -21 71.5t-66 22.5 q-34 0 -54 -15.5t-20 -41.5q0 -21 14.5 -34.5t37.5 -13.5q-2 -15 -20 -25.5t-41 -10.5q-31 0 -52.5 22.5t-21.5 56.5q0 47 43 74.5t114 27.5q85 0 135 -35.5t50 -94.5q0 -50 -34 -88t-86 -49v-7q61 -14 99.5 -54t38.5 -94q0 -69 -58.5 -114.5t-146.5 -45.5 q-77 0 -126.5 37.5t-49.5 93.5z" />
<glyph unicode="&#xb4;" horiz-adv-x="506" d="M37 1200l239 219q67 61 124 61q32 0 51 -17.5t19 -46.5q0 -52 -94 -97l-253 -119h-86z" />
<glyph unicode="&#xb5;" horiz-adv-x="1328" d="M86 913v63h334v-503q0 -206 47 -299t152 -93q80 0 141 53.5t110 169.5q19 42 25 80t6 117v181q0 78 -5 120t-23 68.5t-46 34.5t-79 8v63h334v-565q0 -205 11 -271q8 -46 35.5 -59.5t113.5 -13.5v-65l-304 -23l-20 222h-7q-58 -107 -136 -163t-165 -56q-153 0 -228 169 l-8 -2q30 -145 53 -297t23 -202q0 -60 -28 -94.5t-76 -34.5q-45 0 -76 32.5t-31 81.5v1047q0 78 -4.5 119.5t-22.5 68.5t-46 35t-80 8z" />
<glyph unicode="&#xb6;" horiz-adv-x="1162" d="M67 1040q0 183 128 281t369 98h509v-70q-89 0 -126.5 -14t-54.5 -53q-20 -53 -20 -225v-941q0 -220 24 -283q12 -36 52.5 -51.5t124.5 -15.5v-70h-338v1642h-95v-1642h-358v70q96 0 142.5 16.5t58.5 55.5q7 24 12.5 107t5.5 171v572q-10 0 -28.5 -1t-34.5 -1 q-175 0 -273 93t-98 261z" />
<glyph unicode="&#xb7;" horiz-adv-x="524" d="M142 505q0 51 35 86t85 35q51 0 86 -35t35 -86t-35 -85.5t-86 -34.5q-50 0 -85 35t-35 85z" />
<glyph unicode="&#xb8;" horiz-adv-x="427" d="M11 -339q0 31 15 48.5t42 17.5q19 0 31.5 -12t29.5 -47q17 -39 35 -53.5t48 -14.5q41 0 66.5 26t25.5 66q0 49 -37.5 74.5t-108.5 25.5q-19 0 -64 -4l-6 10l98 224h98l-57 -154q228 0 228 -160q0 -86 -62.5 -136.5t-169.5 -50.5q-93 0 -152.5 39t-59.5 101z" />
<glyph unicode="&#xb9;" horiz-adv-x="452" d="M109 1370v37q73 2 162 30v-445q0 -58 14 -75t63 -18v-37h-236v37q50 3 64 18.5t14 68.5v252q0 98 -4 108q-2 14 -20 19t-57 5z" />
<glyph unicode="&#xba;" horiz-adv-x="705" d="M98 1189q0 106 74 177t178 71q106 0 182 -71t76 -177q0 -109 -76 -182t-182 -73q-104 0 -178 73t-74 182zM216 1189q0 -93 37 -148.5t97 -55.5q62 0 100.5 55.5t38.5 148.5q0 89 -38.5 145t-100.5 56q-59 0 -96.5 -56.5t-37.5 -144.5z" />
<glyph unicode="&#xbb;" horiz-adv-x="900" d="M146 737l37 39l313 -293l-313 -291l-35 37l180 254zM461 737l37 39l313 -293l-313 -291l-35 37l181 254z" />
<glyph unicode="&#xbc;" horiz-adv-x="1233" d="M57 0l1019 1419h89l-1003 -1419h-105zM241 1370v37q74 2 163 30v-445q0 -58 14 -75t64 -18v-37h-237v37q49 3 63 18.5t14 68.5v252q0 98 -3 108q-3 14 -20.5 19t-57.5 5zM651 132v47l260 396h40v-398q47 1 58 12t11 54h34v-173h-34q0 41 -12 52.5t-57 12.5v-15 q0 -57 11 -74t48 -18v-28h-227v28q49 3 63 18t14 68v18h-209zM697 179h163v239h-7z" />
<glyph unicode="&#xbd;" horiz-adv-x="1243" d="M57 0l1019 1419h89l-1003 -1419h-105zM241 1370v37q74 2 163 30v-445q0 -58 14 -75t64 -18v-37h-237v37q49 3 63 18.5t14 68.5v252q0 98 -3 108q-3 14 -20.5 19t-57.5 5zM680 0v24q164 146 221 229.5t57 163.5q0 54 -27 85t-74 31q-39 0 -64.5 -27.5t-25.5 -67.5 q0 -36 22.5 -57.5t58.5 -21.5q-3 -21 -21.5 -34.5t-45.5 -13.5q-40 0 -66.5 31.5t-26.5 79.5q0 66 51.5 109.5t130.5 43.5q82 0 134.5 -44.5t52.5 -113.5q0 -84 -68 -164.5t-193 -173.5v-7h157q36 0 54.5 17t33.5 68h37l-28 -157h-370z" />
<glyph unicode="&#xbe;" horiz-adv-x="1236" d="M70 0l1019 1419h89l-1002 -1419h-106zM166 986q0 40 24.5 67t60.5 27q23 0 42.5 -12t23.5 -30q-28 0 -46 -17.5t-18 -45.5q0 -34 24.5 -55t63.5 -21q51 0 77.5 31.5t26.5 91t-25 91.5t-70 32q-27 -14 -49 -14q-16 0 -25 8.5t-9 21.5q0 12 9 19t23 7q21 0 46 -9 q38 0 62 34t24 91q0 49 -20.5 71.5t-65.5 22.5q-35 0 -54.5 -15.5t-19.5 -41.5q0 -22 14 -35t37 -13q-2 -15 -20 -25.5t-40 -10.5q-32 0 -53 22.5t-21 56.5q0 47 43 74.5t114 27.5q84 0 134 -35.5t50 -94.5q0 -50 -33.5 -88t-85.5 -49v-7q61 -14 99 -54t38 -94 q0 -69 -58 -114.5t-146 -45.5q-77 0 -127 37.5t-50 93.5zM663 132v47l260 396h41v-398q47 1 57.5 12t10.5 54h35v-173h-35q0 41 -11.5 52.5t-56.5 12.5v-15q0 -57 11 -73.5t48 -18.5v-28h-227v28q50 3 64 18t14 68v18h-211zM709 179h165v239h-7z" />
<glyph unicode="&#xbf;" horiz-adv-x="735" d="M107 443q0 139 78 216.5t219 77.5v246h101v-422h-53q-240 0 -240 -183q0 -88 47.5 -151t113.5 -63q22 0 69.5 10t67.5 10q44 0 71 -27.5t27 -71.5q0 -103 -114 -103q-99 0 -189 64.5t-144 171.5t-54 225zM339 1318q0 50 35.5 84.5t86.5 34.5q50 0 84.5 -34.5t34.5 -84.5 q0 -52 -34.5 -87t-84.5 -35q-51 0 -86.5 35t-35.5 87z" />
<glyph unicode="&#xc0;" horiz-adv-x="1422" d="M-11 0v70q86 10 127.5 40.5t73.5 109.5l479 1199h79l418 -1039q44 -107 73.5 -165t62.5 -92t63.5 -42.5t81.5 -8.5v-72h-601v72q96 0 133.5 18t37.5 61q0 35 -8.5 67t-33.5 97l-76 199h-491q-115 -274 -115 -354q0 -50 33 -70t110 -20v-70h-447zM431 1705q0 29 19 46.5 t51 17.5q35 0 70 -13.5t91 -47.5l239 -141h-110l-221 51q-139 30 -139 87zM445 607h420l-205 543z" />
<glyph unicode="&#xc1;" horiz-adv-x="1422" d="M-11 0v70q86 10 127.5 40.5t73.5 109.5l479 1199h79l418 -1039q44 -107 73.5 -165t62.5 -92t63.5 -42.5t81.5 -8.5v-72h-601v72q96 0 133.5 18t37.5 61q0 35 -8.5 67t-33.5 97l-76 199h-491q-115 -274 -115 -354q0 -50 33 -70t110 -20v-70h-447zM445 607h420l-205 543z M522 1567l239 141q56 34 90.5 47.5t70.5 13.5q32 0 51 -17.5t19 -46.5q0 -57 -139 -87l-221 -51h-110z" />
<glyph unicode="&#xc2;" horiz-adv-x="1422" d="M-11 0v70q86 10 127.5 40.5t73.5 109.5l479 1199h79l418 -1039q44 -107 73.5 -165t62.5 -92t63.5 -42.5t81.5 -8.5v-72h-601v72q96 0 133.5 18t37.5 61q0 35 -8.5 67t-33.5 97l-76 199h-491q-115 -274 -115 -354q0 -50 33 -70t110 -20v-70h-447zM404 1569l201 200h202 l201 -200h-83l-219 99l-219 -99h-83zM445 607h420l-205 543z" />
<glyph unicode="&#xc3;" horiz-adv-x="1422" d="M-11 0v70q86 10 127.5 40.5t73.5 109.5l479 1199h79l418 -1039q44 -107 73.5 -165t62.5 -92t63.5 -42.5t81.5 -8.5v-72h-601v72q96 0 133.5 18t37.5 61q0 35 -8.5 67t-33.5 97l-76 199h-491q-115 -274 -115 -354q0 -50 33 -70t110 -20v-70h-447zM391 1560q15 93 69 151 t126 58q49 0 144.5 -42t141.5 -42q34 0 53.5 17.5t32.5 59.5h62q-9 -92 -62.5 -155t-122.5 -63q-48 0 -148 45t-151 45q-34 0 -52 -16.5t-30 -57.5h-63zM445 607h420l-205 543z" />
<glyph unicode="&#xc4;" horiz-adv-x="1422" d="M-11 0v70q86 10 127.5 40.5t73.5 109.5l479 1199h79l418 -1039q44 -107 73.5 -165t62.5 -92t63.5 -42.5t81.5 -8.5v-72h-601v72q96 0 133.5 18t37.5 61q0 35 -8.5 67t-33.5 97l-76 199h-491q-115 -274 -115 -354q0 -50 33 -70t110 -20v-70h-447zM445 607h420l-205 543z M446 1678q0 38 27 64.5t65 26.5q40 0 67 -26.5t27 -64.5q0 -40 -27 -67.5t-67 -27.5q-38 0 -65 27.5t-27 67.5zM781 1678q0 38 27.5 64.5t67.5 26.5q38 0 65 -26.5t27 -64.5q0 -40 -27 -67.5t-65 -27.5q-40 0 -67.5 27.5t-27.5 67.5z" />
<glyph unicode="&#xc5;" horiz-adv-x="1422" d="M-11 0v70q86 10 127.5 40.5t73.5 109.5l479 1199h79l418 -1039q44 -107 73.5 -165t62.5 -92t63.5 -42.5t81.5 -8.5v-72h-601v72q96 0 133.5 18t37.5 61q0 35 -8.5 67t-33.5 97l-76 199h-491q-115 -274 -115 -354q0 -50 33 -70t110 -20v-70h-447zM445 607h420l-205 543z M586 1649.5q0 51.5 34 85.5t85.5 34t86 -34t34.5 -85.5t-34.5 -85.5t-86 -34t-85.5 34t-34 85.5zM644 1650q0 -28 17 -45.5t45 -17.5q26 0 43.5 17.5t17.5 45.5q0 26 -17.5 43.5t-43.5 17.5q-27 0 -44.5 -17.5t-17.5 -43.5z" />
<glyph unicode="&#xc6;" horiz-adv-x="1936" d="M-21 0v70q83 9 124.5 39.5t84.5 110.5q5 7 26.5 46t30.5 55.5t37 66.5t51 93.5t65.5 123.5t88.5 167.5t111.5 213.5t142.5 275q13 31 13 42q0 25 -34.5 35.5t-118.5 10.5v70h1172v-324h-65q-21 145 -97.5 195t-266.5 50h-234q-16 0 -24 -8.5t-8 -22.5v-530 q184 0 260.5 44t87.5 169h65v-503h-65q-13 89 -47 134t-102.5 63.5t-198.5 19.5v-416q0 -120 66 -165.5t240 -45.5q196 0 280 60t120 224h70l-27 -363h-1145v70q55 2 88.5 8t57.5 18t35.5 37t16.5 58.5t5 88.5v244h-426l-7 -17q-15 -28 -44.5 -83t-45.5 -85.5t-34.5 -71.5 t-27 -71t-8.5 -52q0 -15 3.5 -27t13 -19t17 -12t23 -7.5t24.5 -4t27 -2.5t26 -2v-70h-447zM503 607h382v722z" />
<glyph unicode="&#xc7;" horiz-adv-x="1477" d="M111 686q0 165 51.5 305t144 238.5t224 153t285.5 54.5q111 0 209 -31t212 -101l33 114h51l17 -424h-68q-40 161 -157 254t-280 93q-223 0 -349.5 -172t-126.5 -473q0 -297 125 -456.5t357 -159.5q175 0 291 96t166 282h76v-459h-65l-43 146q-183 -154 -432 -162 l-43 -116q228 0 228 -160q0 -86 -62.5 -136.5t-169.5 -50.5q-94 0 -153 39t-59 101q0 31 15.5 48.5t41.5 17.5q19 0 31.5 -12t29.5 -47q17 -39 34.5 -53.5t48.5 -14.5q40 0 66.5 26t26.5 66q0 49 -38 74.5t-108 25.5q-20 0 -65 -4l-5 10l81 186q-286 20 -453.5 208.5 t-167.5 493.5z" />
<glyph unicode="&#xc8;" horiz-adv-x="1337" d="M83 0v70q55 2 88 8t57.5 18t35.5 37t16 58.5t5 88.5v859q0 69 -5.5 105.5t-27 60.5t-55 32.5t-95.5 11.5v70h1064l18 -324h-65q-22 144 -102.5 194.5t-272.5 50.5h-234q-15 0 -23 -8.5t-8 -22.5v-530q195 0 272 49.5t77 163.5h64v-503h-64q0 77 -29 122t-106 69.5 t-214 25.5v-416q0 -120 65.5 -165.5t240.5 -45.5q195 0 279.5 60t120.5 224h71l-28 -363h-1145zM424 1705q0 29 19 46.5t51 17.5q35 0 69.5 -13.5t90.5 -47.5l240 -141h-111l-221 51q-138 30 -138 87z" />
<glyph unicode="&#xc9;" horiz-adv-x="1337" d="M83 0v70q55 2 88 8t57.5 18t35.5 37t16 58.5t5 88.5v859q0 69 -5.5 105.5t-27 60.5t-55 32.5t-95.5 11.5v70h1064l18 -324h-65q-22 144 -102.5 194.5t-272.5 50.5h-234q-15 0 -23 -8.5t-8 -22.5v-530q195 0 272 49.5t77 163.5h64v-503h-64q0 77 -29 122t-106 69.5 t-214 25.5v-416q0 -120 65.5 -165.5t240.5 -45.5q195 0 279.5 60t120.5 224h71l-28 -363h-1145zM514 1567l240 141q56 34 90.5 47.5t69.5 13.5q33 0 52 -17.5t19 -46.5q0 -57 -139 -87l-221 -51h-111z" />
<glyph unicode="&#xca;" horiz-adv-x="1337" d="M83 0v70q55 2 88 8t57.5 18t35.5 37t16 58.5t5 88.5v859q0 69 -5.5 105.5t-27 60.5t-55 32.5t-95.5 11.5v70h1064l18 -324h-65q-22 144 -102.5 194.5t-272.5 50.5h-234q-15 0 -23 -8.5t-8 -22.5v-530q195 0 272 49.5t77 163.5h64v-503h-64q0 77 -29 122t-106 69.5 t-214 25.5v-416q0 -120 65.5 -165.5t240.5 -45.5q195 0 279.5 60t120.5 224h71l-28 -363h-1145zM396 1569l202 200h202l201 -200h-83l-220 99l-219 -99h-83z" />
<glyph unicode="&#xcb;" horiz-adv-x="1337" d="M83 0v70q55 2 88 8t57.5 18t35.5 37t16 58.5t5 88.5v859q0 69 -5.5 105.5t-27 60.5t-55 32.5t-95.5 11.5v70h1064l18 -324h-65q-22 144 -102.5 194.5t-272.5 50.5h-234q-15 0 -23 -8.5t-8 -22.5v-530q195 0 272 49.5t77 163.5h64v-503h-64q0 77 -29 122t-106 69.5 t-214 25.5v-416q0 -120 65.5 -165.5t240.5 -45.5q195 0 279.5 60t120.5 224h71l-28 -363h-1145zM413 1678q0 38 26.5 64.5t65.5 26.5t66.5 -26.5t27.5 -64.5q0 -40 -27.5 -67.5t-66.5 -27.5t-65.5 27.5t-26.5 67.5zM748 1678q0 38 27.5 64.5t66.5 26.5t65.5 -26.5 t26.5 -64.5q0 -40 -26.5 -67.5t-65.5 -27.5t-66.5 27.5t-27.5 67.5z" />
<glyph unicode="&#xcc;" horiz-adv-x="764" d="M83 0v70q47 2 75.5 5.5t53.5 15.5t37.5 28.5t21.5 47.5t11.5 69.5t2.5 99.5v748q0 54 -2 90.5t-9.5 68t-20 49.5t-34 31t-49.5 18.5t-68 7.5v70h560v-70q-50 -2 -80.5 -10.5t-52 -25t-32 -50.5t-14.5 -77.5t-4 -114.5v-723q0 -64 2.5 -105t11.5 -73.5t21 -49.5t37 -29 t54 -15.5t75 -5.5v-70h-597zM105 1705q0 29 19 46.5t52 17.5q35 0 69.5 -13.5t90.5 -47.5l239 -141h-111l-221 51q-138 30 -138 87z" />
<glyph unicode="&#xcd;" horiz-adv-x="764" d="M83 0v70q47 2 75.5 5.5t53.5 15.5t37.5 28.5t21.5 47.5t11.5 69.5t2.5 99.5v748q0 54 -2 90.5t-9.5 68t-20 49.5t-34 31t-49.5 18.5t-68 7.5v70h560v-70q-50 -2 -80.5 -10.5t-52 -25t-32 -50.5t-14.5 -77.5t-4 -114.5v-723q0 -64 2.5 -105t11.5 -73.5t21 -49.5t37 -29 t54 -15.5t75 -5.5v-70h-597zM195 1567l240 141q55 34 90.5 47.5t70.5 13.5q31 0 50 -17t19 -47q0 -57 -138 -87l-221 -51h-111z" />
<glyph unicode="&#xce;" horiz-adv-x="764" d="M77 1569l201 200h204l200 -200h-83l-219 99l-220 -99h-83zM83 0v70q47 2 75.5 5.5t53.5 15.5t37.5 28.5t21.5 47.5t11.5 69.5t2.5 99.5v748q0 54 -2 90.5t-9.5 68t-20 49.5t-34 31t-49.5 18.5t-68 7.5v70h560v-70q-50 -2 -80.5 -10.5t-52 -25t-32 -50.5t-14.5 -77.5 t-4 -114.5v-723q0 -64 2.5 -105t11.5 -73.5t21 -49.5t37 -29t54 -15.5t75 -5.5v-70h-597z" />
<glyph unicode="&#xcf;" horiz-adv-x="764" d="M83 0v70q47 2 75.5 5.5t53.5 15.5t37.5 28.5t21.5 47.5t11.5 69.5t2.5 99.5v748q0 54 -2 90.5t-9.5 68t-20 49.5t-34 31t-49.5 18.5t-68 7.5v70h560v-70q-50 -2 -80.5 -10.5t-52 -25t-32 -50.5t-14.5 -77.5t-4 -114.5v-723q0 -64 2.5 -105t11.5 -73.5t21 -49.5t37 -29 t54 -15.5t75 -5.5v-70h-597zM123 1678q0 38 27 64.5t66 26.5q40 0 67 -26.5t27 -64.5q0 -40 -27 -67.5t-67 -27.5q-39 0 -66 27.5t-27 67.5zM459 1678q0 38 27 64.5t67 26.5q38 0 65 -26.5t27 -64.5q0 -40 -27 -67.5t-65 -27.5q-40 0 -67 27.5t-27 67.5z" />
<glyph unicode="&#xd0;" horiz-adv-x="1625" d="M67 0v70q74 2 113.5 9.5t66 32t33.5 62t7 106.5v426h-147v98h147v335q0 69 -6 105.5t-27 60.5t-54.5 32.5t-95.5 11.5v70h647q219 0 394 -94.5t273.5 -261.5t98.5 -377q0 -200 -92.5 -356t-259 -243t-378.5 -87h-720zM482 301q0 -107 67 -159t207 -52q252 0 386.5 151.5 t134.5 440.5q0 304 -141.5 475.5t-389.5 171.5h-234q-30 0 -30 -31v-494h301v-98h-301v-405z" />
<glyph unicode="&#xd1;" horiz-adv-x="1662" d="M83 0v70q47 2 75.5 5.5t53.5 15.5t37.5 28.5t21.5 47.5t11.5 69.5t2.5 99.5v748q0 54 -2 90.5t-9.5 68t-20 49.5t-34 31t-49.5 18.5t-68 7.5v70h364l806 -1074h7v726q0 64 -2.5 105t-10.5 73.5t-19 50t-33.5 29t-48.5 15t-68 5.5v70h495v-70q-47 -2 -75.5 -5.5t-53.5 -15 t-37.5 -28.5t-21.5 -48t-11.5 -69.5t-2.5 -98.5v-1102h-111l-875 1154h-8v-788q0 -55 2 -91.5t6.5 -68t14 -50t22 -32.5t34 -21t45 -10.5t59.5 -4.5v-70h-496zM540 1560q15 93 69 151t126 58q50 0 145.5 -42t141.5 -42q34 0 53 17.5t33 59.5h60q-10 -92 -62.5 -155 t-120.5 -63q-49 0 -149 45t-150 45q-34 0 -52 -16.5t-31 -57.5h-63z" />
<glyph unicode="&#xd2;" horiz-adv-x="1743" d="M105 698q0 206 101.5 375.5t277.5 266.5t388 97t388 -97t277.5 -266.5t101.5 -375.5q0 -147 -60.5 -280t-162.5 -228.5t-244 -151.5t-299.5 -56t-300 56t-244.5 151.5t-162.5 228.5t-60.5 280zM345 693q0 -281 142 -445.5t385 -164.5q242 0 384.5 164.5t142.5 445.5 q0 296 -142 469.5t-385 173.5t-385 -173.5t-142 -469.5zM599 1705q0 30 19 47t51 17q35 0 70 -13.5t91 -47.5l239 -141h-111l-221 51q-138 30 -138 87z" />
<glyph unicode="&#xd3;" horiz-adv-x="1743" d="M105 698q0 206 101.5 375.5t277.5 266.5t388 97t388 -97t277.5 -266.5t101.5 -375.5q0 -147 -60.5 -280t-162.5 -228.5t-244 -151.5t-299.5 -56t-300 56t-244.5 151.5t-162.5 228.5t-60.5 280zM345 693q0 -281 142 -445.5t385 -164.5q242 0 384.5 164.5t142.5 445.5 q0 296 -142 469.5t-385 173.5t-385 -173.5t-142 -469.5zM689 1567l240 141q56 34 90.5 47.5t69.5 13.5q32 0 51 -17.5t19 -46.5q0 -57 -137 -87l-222 -51h-111z" />
<glyph unicode="&#xd4;" horiz-adv-x="1743" d="M105 698q0 206 101.5 375.5t277.5 266.5t388 97t388 -97t277.5 -266.5t101.5 -375.5q0 -147 -60.5 -280t-162.5 -228.5t-244 -151.5t-299.5 -56t-300 56t-244.5 151.5t-162.5 228.5t-60.5 280zM345 693q0 -281 142 -445.5t385 -164.5q242 0 384.5 164.5t142.5 445.5 q0 296 -142 469.5t-385 173.5t-385 -173.5t-142 -469.5zM572 1569l200 200h203l201 -200h-83l-219 99l-220 -99h-82z" />
<glyph unicode="&#xd5;" horiz-adv-x="1743" d="M105 698q0 206 101.5 375.5t277.5 266.5t388 97t388 -97t277.5 -266.5t101.5 -375.5q0 -147 -60.5 -280t-162.5 -228.5t-244 -151.5t-299.5 -56t-300 56t-244.5 151.5t-162.5 228.5t-60.5 280zM345 693q0 -281 142 -445.5t385 -164.5q242 0 384.5 164.5t142.5 445.5 q0 296 -142 469.5t-385 173.5t-385 -173.5t-142 -469.5zM559 1560q15 93 69 151t126 58q50 0 145 -42t141 -42q34 0 53 17.5t33 59.5h61q-9 -92 -62 -155t-122 -63q-49 0 -149 45t-150 45q-34 0 -52 -16.5t-31 -57.5h-62z" />
<glyph unicode="&#xd6;" horiz-adv-x="1743" d="M105 698q0 206 101.5 375.5t277.5 266.5t388 97t388 -97t277.5 -266.5t101.5 -375.5q0 -147 -60.5 -280t-162.5 -228.5t-244 -151.5t-299.5 -56t-300 56t-244.5 151.5t-162.5 228.5t-60.5 280zM345 693q0 -281 142 -445.5t385 -164.5q242 0 384.5 164.5t142.5 445.5 q0 296 -142 469.5t-385 173.5t-385 -173.5t-142 -469.5zM614 1678q0 38 26.5 64.5t65.5 26.5t66.5 -26.5t27.5 -64.5q0 -40 -27.5 -67.5t-66.5 -27.5t-65.5 27.5t-26.5 67.5zM950 1678q0 38 27 64.5t66 26.5t66 -26.5t27 -64.5q0 -40 -27 -67.5t-66 -27.5t-66 27.5t-27 67.5 z" />
<glyph unicode="&#xd7;" horiz-adv-x="955" d="M125 339l286 286l-284 284l65 64l283 -284l286 286l69 -68l-286 -286l284 -283l-65 -65l-284 283l-285 -285z" />
<glyph unicode="&#xd8;" horiz-adv-x="1743" d="M105 698q0 206 101.5 375.5t277.5 266.5t388 97q224 0 409 -109l161 202h127l-205 -260q129 -104 202 -252t73 -320q0 -147 -60.5 -280t-162.5 -228.5t-244 -151.5t-300 -56q-238 0 -432 122l-199 -253h-125l245 309q-121 99 -188.5 239t-67.5 299zM345 693 q0 -252 112 -409l741 938q-132 114 -326 114q-243 0 -385 -173.5t-142 -469.5zM524 208q136 -125 348 -125q242 0 384.5 164.5t142.5 445.5q0 284 -131 455z" />
<glyph unicode="&#xd9;" horiz-adv-x="1586" d="M53 1349v70h629v-70q-68 0 -104.5 -8.5t-57.5 -35.5q-24 -31 -32.5 -102.5t-8.5 -212.5v-501q0 -197 86.5 -295.5t285.5 -98.5q183 0 276 103t93 302v444q0 169 -13 252t-48 116q-23 23 -60 30t-100 7v70h535v-70q-64 0 -100 -10t-57 -39q-27 -37 -36.5 -117.5 t-9.5 -238.5v-372q0 -299 -124 -444.5t-407 -145.5q-139 0 -238 27t-168 88t-102.5 161.5t-33.5 244.5v487q0 156 -7 221.5t-37 97.5q-21 22 -58.5 31t-102.5 9zM572 1705q0 29 18.5 46.5t51.5 17.5q35 0 69.5 -13.5t90.5 -47.5l239 -141h-110l-222 51q-137 30 -137 87z" />
<glyph unicode="&#xda;" horiz-adv-x="1586" d="M53 1349v70h629v-70q-68 0 -104.5 -8.5t-57.5 -35.5q-24 -31 -32.5 -102.5t-8.5 -212.5v-501q0 -197 86.5 -295.5t285.5 -98.5q183 0 276 103t93 302v444q0 169 -13 252t-48 116q-23 23 -60 30t-100 7v70h535v-70q-64 0 -100 -10t-57 -39q-27 -37 -36.5 -117.5 t-9.5 -238.5v-372q0 -299 -124 -444.5t-407 -145.5q-139 0 -238 27t-168 88t-102.5 161.5t-33.5 244.5v487q0 156 -7 221.5t-37 97.5q-21 22 -58.5 31t-102.5 9zM662 1567l239 141q56 34 91 47.5t70 13.5q32 0 50.5 -17t18.5 -47q0 -57 -137 -87l-222 -51h-110z" />
<glyph unicode="&#xdb;" horiz-adv-x="1586" d="M53 1349v70h629v-70q-68 0 -104.5 -8.5t-57.5 -35.5q-24 -31 -32.5 -102.5t-8.5 -212.5v-501q0 -197 86.5 -295.5t285.5 -98.5q183 0 276 103t93 302v444q0 169 -13 252t-48 116q-23 23 -60 30t-100 7v70h535v-70q-64 0 -100 -10t-57 -39q-27 -37 -36.5 -117.5 t-9.5 -238.5v-372q0 -299 -124 -444.5t-407 -145.5q-139 0 -238 27t-168 88t-102.5 161.5t-33.5 244.5v487q0 156 -7 221.5t-37 97.5q-21 22 -58.5 31t-102.5 9zM544 1569l200 200h204l200 -200h-82l-220 99l-220 -99h-82z" />
<glyph unicode="&#xdc;" horiz-adv-x="1586" d="M53 1349v70h629v-70q-68 0 -104.5 -8.5t-57.5 -35.5q-24 -31 -32.5 -102.5t-8.5 -212.5v-501q0 -197 86.5 -295.5t285.5 -98.5q183 0 276 103t93 302v444q0 169 -13 252t-48 116q-23 23 -60 30t-100 7v70h535v-70q-64 0 -100 -10t-57 -39q-27 -37 -36.5 -117.5 t-9.5 -238.5v-372q0 -299 -124 -444.5t-407 -145.5q-139 0 -238 27t-168 88t-102.5 161.5t-33.5 244.5v487q0 156 -7 221.5t-37 97.5q-21 22 -58.5 31t-102.5 9zM586 1678q0 38 27 64.5t66 26.5t66 -26.5t27 -64.5q0 -40 -27 -67.5t-66 -27.5t-66 27.5t-27 67.5zM922 1678 q0 38 27 64.5t66 26.5t66 -26.5t27 -64.5q0 -40 -27 -67.5t-66 -27.5t-66 27.5t-27 67.5z" />
<glyph unicode="&#xdd;" horiz-adv-x="1350" d="M-9 1349v70h581v-70q-92 0 -130 -14t-38 -48q0 -41 42 -111l286 -488h7l209 350q109 183 109 249q0 34 -27 48t-94 14v70h422v-70q-54 0 -92.5 -24t-84 -84.5t-124.5 -193.5l-285 -479v-220q0 -64 2.5 -104t11 -74t20.5 -51t36.5 -29.5t54 -16t76.5 -3.5v-70h-597v70 q55 0 89 7t58 21.5t35.5 47t16 75.5t4.5 115v225l-369 630q-57 95 -100 126.5t-119 31.5zM512 1567l240 141q56 34 91 47.5t70 13.5q32 0 51 -17.5t19 -46.5q0 -57 -139 -87l-221 -51h-111z" />
<glyph unicode="&#xde;" horiz-adv-x="1287" d="M86 0v70q46 2 76 5.5t54 13t37 23t22 38.5t12 54.5t3 75.5v859q0 46 -3 76t-12 54.5t-22 38t-37 23t-54 13t-76 5.5v70h651v-70q-87 0 -134.5 -7.5t-75.5 -34t-36 -65.5t-8 -112v-31h201q249 0 391 -104t142 -274q0 -200 -133.5 -298.5t-434.5 -98.5h-166v-34 q0 -74 8 -112.5t36 -65t75.5 -34.5t134.5 -8v-70h-651zM483 417h131q185 0 273.5 72.5t88.5 231.5q0 153 -70 222t-222 69h-170q-31 0 -31 -31v-564z" />
<glyph unicode="&#xdf;" horiz-adv-x="1212" d="M44 0v70q56 0 84.5 6.5t47 30.5t22.5 62t4 113v798q0 210 112 330t309 120q171 0 280 -96t109 -247q0 -271 -266 -327v-9q162 0 270 -127.5t108 -322.5q0 -179 -112.5 -299t-274.5 -120q-93 0 -147.5 41t-54.5 106q0 40 18.5 64.5t45.5 24.5q52 0 76 -63q2 -5 7 -18 t7 -18t7 -15.5t10 -15t11.5 -11t15 -8.5t18.5 -2q63 0 108 94.5t45 234.5q0 182 -86.5 295t-255.5 113v93q118 0 173.5 65.5t55.5 203.5q0 134 -49 202.5t-144 68.5q-142 0 -192 -111q-30 -63 -30 -235v-794q0 -95 10 -141.5t34.5 -66t73.5 -19.5v-70h-450z" />
<glyph unicode="&#xe0;" horiz-adv-x="1020" d="M79 201q0 91 68.5 164.5t230.5 142.5l266 117v75q0 115 -47 170t-145 55q-63 0 -89.5 -23.5t-51.5 -95.5q-20 -53 -39.5 -71t-55.5 -18q-45 0 -69 24t-24 68q0 88 94.5 137t267.5 49q185 0 262 -65t77 -223v-412q0 -210 83 -210q66 0 90 40l26 -44q-22 -42 -81 -70.5 t-124 -28.5q-79 0 -119.5 51t-40.5 146h-9q-50 -91 -134.5 -143t-186.5 -52q-114 0 -181.5 59.5t-67.5 157.5zM239 1416q0 29 19 46.5t52 17.5q56 0 123 -61l240 -219h-87l-252 119q-95 45 -95 97zM266 232q0 -61 40.5 -99.5t106.5 -38.5q95 0 163 90t68 216v145 q-205 -77 -291.5 -152t-86.5 -161z" />
<glyph unicode="&#xe1;" horiz-adv-x="1020" d="M79 201q0 91 68.5 164.5t230.5 142.5l266 117v75q0 115 -47 170t-145 55q-63 0 -89.5 -23.5t-51.5 -95.5q-20 -53 -39.5 -71t-55.5 -18q-45 0 -69 24t-24 68q0 88 94.5 137t267.5 49q185 0 262 -65t77 -223v-412q0 -210 83 -210q66 0 90 40l26 -44q-22 -42 -81 -70.5 t-124 -28.5q-79 0 -119.5 51t-40.5 146h-9q-50 -91 -134.5 -143t-186.5 -52q-114 0 -181.5 59.5t-67.5 157.5zM266 232q0 -61 40.5 -99.5t106.5 -38.5q95 0 163 90t68 216v145q-205 -77 -291.5 -152t-86.5 -161zM322 1200l240 219q67 61 124 61q32 0 51 -17.5t19 -46.5 q0 -52 -94 -97l-252 -119h-88z" />
<glyph unicode="&#xe2;" horiz-adv-x="1020" d="M79 201q0 91 68.5 164.5t230.5 142.5l266 117v75q0 115 -47 170t-145 55q-63 0 -89.5 -23.5t-51.5 -95.5q-20 -53 -39.5 -71t-55.5 -18q-45 0 -69 24t-24 68q0 88 94.5 137t267.5 49q185 0 262 -65t77 -223v-412q0 -210 83 -210q66 0 90 40l26 -44q-22 -42 -81 -70.5 t-124 -28.5q-79 0 -119.5 51t-40.5 146h-9q-50 -91 -134.5 -143t-186.5 -52q-114 0 -181.5 59.5t-67.5 157.5zM186 1200l220 237h166l219 -237h-84l-218 126l-220 -126h-83zM266 232q0 -61 40.5 -99.5t106.5 -38.5q95 0 163 90t68 216v145q-205 -77 -291.5 -152t-86.5 -161z " />
<glyph unicode="&#xe3;" horiz-adv-x="1020" d="M79 201q0 91 68.5 164.5t230.5 142.5l266 117v75q0 115 -47 170t-145 55q-63 0 -89.5 -23.5t-51.5 -95.5q-20 -53 -39.5 -71t-55.5 -18q-45 0 -69 24t-24 68q0 88 94.5 137t267.5 49q185 0 262 -65t77 -223v-412q0 -210 83 -210q66 0 90 40l26 -44q-22 -42 -81 -70.5 t-124 -28.5q-79 0 -119.5 51t-40.5 146h-9q-50 -91 -134.5 -143t-186.5 -52q-114 0 -181.5 59.5t-67.5 157.5zM176 1217q15 93 69 151t126 58q49 0 144 -42t141 -42q34 0 53.5 17.5t32.5 59.5h62q-9 -92 -62.5 -154.5t-122.5 -62.5q-48 0 -148 44.5t-151 44.5 q-34 0 -52 -16.5t-30 -57.5h-62zM266 232q0 -61 40.5 -99.5t106.5 -38.5q95 0 163 90t68 216v145q-205 -77 -291.5 -152t-86.5 -161z" />
<glyph unicode="&#xe4;" horiz-adv-x="1020" d="M79 201q0 91 68.5 164.5t230.5 142.5l266 117v75q0 115 -47 170t-145 55q-63 0 -89.5 -23.5t-51.5 -95.5q-20 -53 -39.5 -71t-55.5 -18q-45 0 -69 24t-24 68q0 88 94.5 137t267.5 49q185 0 262 -65t77 -223v-412q0 -210 83 -210q66 0 90 40l26 -44q-22 -42 -81 -70.5 t-124 -28.5q-79 0 -119.5 51t-40.5 146h-9q-50 -91 -134.5 -143t-186.5 -52q-114 0 -181.5 59.5t-67.5 157.5zM229 1307q0 46 30.5 76.5t76.5 30.5t76.5 -30.5t30.5 -76.5t-30.5 -76.5t-76.5 -30.5t-76.5 30.5t-30.5 76.5zM266 232q0 -61 40.5 -99.5t106.5 -38.5 q95 0 163 90t68 216v145q-205 -77 -291.5 -152t-86.5 -161zM536 1307q0 46 31 76.5t76.5 30.5t76.5 -30.5t31 -76.5t-31 -76.5t-76.5 -30.5t-76.5 30.5t-31 76.5z" />
<glyph unicode="&#xe5;" horiz-adv-x="1020" d="M79 201q0 91 68.5 164.5t230.5 142.5l266 117v75q0 115 -47 170t-145 55q-63 0 -89.5 -23.5t-51.5 -95.5q-20 -53 -39.5 -71t-55.5 -18q-45 0 -69 24t-24 68q0 88 94.5 137t267.5 49q185 0 262 -65t77 -223v-412q0 -210 83 -210q66 0 90 40l26 -44q-22 -42 -81 -70.5 t-124 -28.5q-79 0 -119.5 51t-40.5 146h-9q-50 -91 -134.5 -143t-186.5 -52q-114 0 -181.5 59.5t-67.5 157.5zM266 232q0 -61 40.5 -99.5t106.5 -38.5q95 0 163 90t68 216v145q-205 -77 -291.5 -152t-86.5 -161zM343 1368q0 70 45.5 116t112.5 46q71 0 116.5 -46t45.5 -116 q0 -68 -45.5 -113.5t-116.5 -45.5q-67 0 -112.5 45.5t-45.5 113.5zM415 1368q0 -37 24.5 -62t61.5 -25q36 0 59.5 25t23.5 62q0 36 -23.5 59.5t-59.5 23.5q-37 0 -61.5 -23.5t-24.5 -59.5z" />
<glyph unicode="&#xe6;" horiz-adv-x="1569" d="M79 201q0 101 73.5 176t225.5 131l266 99v93q0 116 -47.5 170.5t-148.5 54.5q-57 0 -83.5 -23.5t-53.5 -95.5q-19 -53 -38.5 -71t-54.5 -18q-46 0 -70.5 23.5t-24.5 68.5q0 88 95.5 137t268.5 49q125 0 198.5 -30t107.5 -97q127 127 324 127q173 0 271 -99t98 -271 q0 -22 -12.5 -31.5t-45.5 -9.5h-569q-8 -22 -8 -81q0 -197 79.5 -311.5t216.5 -114.5q143 0 274 146l57 -52q-162 -189 -383 -189q-134 0 -236.5 62t-158.5 174q-51 -112 -146 -173t-218 -61q-119 0 -188 58t-69 159zM266 232q0 -61 41 -99.5t106 -38.5q94 0 162.5 79 t68.5 190v164q-200 -73 -289 -142.5t-89 -152.5zM872 669h302q73 0 91.5 8.5t18.5 41.5q0 85 -54.5 136.5t-142.5 51.5t-140 -58.5t-75 -179.5z" />
<glyph unicode="&#xe7;" horiz-adv-x="987" d="M90 482q0 234 141.5 373.5t371.5 139.5q142 0 233 -45.5t91 -116.5q0 -36 -24.5 -56.5t-65.5 -20.5q-34 0 -56.5 15t-56.5 61q-36 43 -70.5 60t-87.5 17q-130 0 -197.5 -102t-67.5 -299q0 -209 75 -320t217 -111q153 0 285 129l54 -53q-60 -75 -154 -118.5t-205 -50.5 l-42 -116q229 0 229 -160q0 -86 -63 -136.5t-170 -50.5q-93 0 -152.5 39t-59.5 101q0 31 15.5 48.5t42.5 17.5q19 0 31 -12t29 -47q17 -39 34.5 -53.5t48.5 -14.5q40 0 66 26t26 66q0 49 -37.5 74.5t-107.5 25.5q-20 0 -65 -4l-6 10l81 188q-172 20 -277.5 154.5 t-105.5 341.5z" />
<glyph unicode="&#xe8;" horiz-adv-x="1055" d="M90 477q0 227 142 372.5t364 145.5q177 0 275 -97.5t98 -276.5q0 -24 -9.5 -30.5t-46.5 -6.5h-607q-7 -28 -7 -83q0 -192 89 -308t237 -116q149 0 280 146l57 -52q-157 -189 -389 -189q-215 0 -349 137t-134 358zM319 669h339q74 0 92.5 9t18.5 43q0 85 -55 135.5 t-148 50.5q-98 0 -161 -60.5t-86 -177.5zM389 1416q0 29 19 46.5t51 17.5q57 0 123 -61l240 -219h-87l-252 119q-94 45 -94 97z" />
<glyph unicode="&#xe9;" horiz-adv-x="1055" d="M90 477q0 227 142 372.5t364 145.5q177 0 275 -97.5t98 -276.5q0 -24 -9.5 -30.5t-46.5 -6.5h-607q-7 -28 -7 -83q0 -192 89 -308t237 -116q149 0 280 146l57 -52q-157 -189 -389 -189q-215 0 -349 137t-134 358zM319 669h339q74 0 92.5 9t18.5 43q0 85 -55 135.5 t-148 50.5q-98 0 -161 -60.5t-86 -177.5zM443 1200l239 219q67 61 124 61q32 0 51 -17.5t19 -46.5q0 -52 -95 -97l-252 -119h-86z" />
<glyph unicode="&#xea;" horiz-adv-x="1055" d="M90 477q0 227 142 372.5t364 145.5q177 0 275 -97.5t98 -276.5q0 -24 -9.5 -30.5t-46.5 -6.5h-607q-7 -28 -7 -83q0 -192 89 -308t237 -116q149 0 280 146l57 -52q-157 -189 -389 -189q-215 0 -349 137t-134 358zM274 1200l220 237h166l219 -237h-83l-219 126l-220 -126 h-83zM319 669h339q74 0 92.5 9t18.5 43q0 85 -55 135.5t-148 50.5q-98 0 -161 -60.5t-86 -177.5z" />
<glyph unicode="&#xeb;" horiz-adv-x="1055" d="M90 477q0 227 142 372.5t364 145.5q177 0 275 -97.5t98 -276.5q0 -24 -9.5 -30.5t-46.5 -6.5h-607q-7 -28 -7 -83q0 -192 89 -308t237 -116q149 0 280 146l57 -52q-157 -189 -389 -189q-215 0 -349 137t-134 358zM317 1307q0 46 30.5 76.5t76.5 30.5t76.5 -30.5 t30.5 -76.5t-30.5 -76.5t-76.5 -30.5t-76.5 30.5t-30.5 76.5zM319 669h339q74 0 92.5 9t18.5 43q0 85 -55 135.5t-148 50.5q-98 0 -161 -60.5t-86 -177.5zM625 1307q0 46 30.5 76.5t76.5 30.5t76.5 -30.5t30.5 -76.5t-30.5 -76.5t-76.5 -30.5t-76.5 30.5t-30.5 76.5z" />
<glyph unicode="&#xec;" horiz-adv-x="628" d="M35 1416q0 29 19 46.5t51 17.5q57 0 124 -61l239 -219h-86l-253 119q-94 45 -94 97zM59 857v68l361 70v-696q0 -61 4 -97.5t13.5 -64t31 -41t49 -20t73.5 -8.5v-68h-528v68q77 4 113 22t49.5 60.5t13.5 133.5v228q0 222 -12 269q-8 45 -42.5 60.5t-125.5 15.5z" />
<glyph unicode="&#xed;" horiz-adv-x="628" d="M59 857v68l361 70v-696q0 -61 4 -97.5t13.5 -64t31 -41t49 -20t73.5 -8.5v-68h-528v68q77 4 113 22t49.5 60.5t13.5 133.5v228q0 222 -12 269q-8 45 -42.5 60.5t-125.5 15.5zM166 1200l240 219q66 61 123 61q33 0 51.5 -17.5t18.5 -46.5q0 -52 -94 -97l-252 -119h-87z " />
<glyph unicode="&#xee;" horiz-adv-x="628" d="M30 1200l218 237h167l219 -237h-83l-219 126l-220 -126h-82zM59 857v68l361 70v-696q0 -61 4 -97.5t13.5 -64t31 -41t49 -20t73.5 -8.5v-68h-528v68q77 4 113 22t49.5 60.5t13.5 133.5v228q0 222 -12 269q-8 45 -42.5 60.5t-125.5 15.5z" />
<glyph unicode="&#xef;" horiz-adv-x="628" d="M59 857v68l361 70v-696q0 -61 4 -97.5t13.5 -64t31 -41t49 -20t73.5 -8.5v-68h-528v68q77 4 113 22t49.5 60.5t13.5 133.5v228q0 222 -12 269q-8 45 -42.5 60.5t-125.5 15.5zM72 1307q0 46 30.5 76.5t76.5 30.5t76 -30.5t30 -76.5t-30 -76.5t-76 -30.5t-76.5 30.5 t-30.5 76.5zM380 1307q0 46 30.5 76.5t76.5 30.5t76 -30.5t30 -76.5t-30 -76.5t-76 -30.5t-76.5 30.5t-30.5 76.5z" />
<glyph unicode="&#xf0;" horiz-adv-x="1179" d="M92 450q0 196 132 332t329 136q98 0 170.5 -40.5t111.5 -117.5l6 3q-73 287 -233 439l-239 -138l-45 58l223 132q-78 60 -252 121l35 62q212 -62 319 -125l239 139l46 -60l-215 -125q160 -112 250.5 -300t90.5 -398q0 -127 -37 -236t-102 -186t-156.5 -120.5 t-196.5 -43.5q-132 0 -241 60.5t-172 168t-63 239.5zM322 450q0 -182 66 -283.5t182 -101.5q118 0 187 103.5t69 281.5q0 176 -68.5 277t-186 101t-183.5 -100t-66 -278z" />
<glyph unicode="&#xf1;" horiz-adv-x="1269" d="M65 867v58l294 70l23 -182h7q69 86 165 134t204 48q84 0 154.5 -27.5t107.5 -75.5q31 -42 43.5 -109t12.5 -185v-308q0 -54 1.5 -85.5t8 -59t15 -40.5t27.5 -23t40 -13t58 -6v-63h-478v63q37 2 59.5 5t41.5 13t28 22.5t15 38t7.5 55.5t1.5 79v244q0 208 -47.5 292 t-162.5 84q-82 0 -151.5 -44t-108.5 -118q-20 -39 -26.5 -76t-6.5 -122v-246q0 -55 1 -85.5t7 -59t14.5 -40.5t28 -22.5t41.5 -13.5t61 -6v-63h-483v63q56 4 83 10.5t45.5 31t22.5 61t4 110.5v246q0 220 -11 267q-10 50 -37.5 64t-109.5 14zM322 1217q16 93 70 151t126 58 q49 0 144.5 -42t141.5 -42q34 0 53.5 17.5t32.5 59.5h61q-9 -92 -62 -154.5t-122 -62.5q-49 0 -149 44.5t-150 44.5q-34 0 -52 -16.5t-31 -57.5h-63z" />
<glyph unicode="&#xf2;" d="M88 496q0 142 70.5 257t187 178.5t253.5 63.5q104 0 199 -37.5t165 -103t112 -159t42 -199.5q0 -146 -71 -265t-189 -184t-258 -65q-137 0 -253.5 65t-187 183.5t-70.5 265.5zM297 494q0 -191 82 -304.5t220 -113.5q142 0 226 114t84 304q0 185 -85 299t-225 114 q-136 0 -219 -113.5t-83 -299.5zM387 1416q0 29 19 46.5t51 17.5q57 0 123 -61l240 -219h-86l-252 119q-95 45 -95 97z" />
<glyph unicode="&#xf3;" d="M88 496q0 142 70.5 257t187 178.5t253.5 63.5q104 0 199 -37.5t165 -103t112 -159t42 -199.5q0 -146 -71 -265t-189 -184t-258 -65q-137 0 -253.5 65t-187 183.5t-70.5 265.5zM297 494q0 -191 82 -304.5t220 -113.5q142 0 226 114t84 304q0 185 -85 299t-225 114 q-136 0 -219 -113.5t-83 -299.5zM433 1200l240 219q67 61 123 61q33 0 52 -17.5t19 -46.5q0 -52 -95 -97l-252 -119h-87z" />
<glyph unicode="&#xf4;" d="M88 496q0 142 70.5 257t187 178.5t253.5 63.5q104 0 199 -37.5t165 -103t112 -159t42 -199.5q0 -146 -71 -265t-189 -184t-258 -65q-137 0 -253.5 65t-187 183.5t-70.5 265.5zM297 494q0 -191 82 -304.5t220 -113.5q142 0 226 114t84 304q0 185 -85 299t-225 114 q-136 0 -219 -113.5t-83 -299.5zM297 1200l219 237h166l219 -237h-83l-219 126l-219 -126h-83z" />
<glyph unicode="&#xf5;" d="M88 496q0 142 70.5 257t187 178.5t253.5 63.5q104 0 199 -37.5t165 -103t112 -159t42 -199.5q0 -146 -71 -265t-189 -184t-258 -65q-137 0 -253.5 65t-187 183.5t-70.5 265.5zM271 1217q15 93 69 151t126 58q50 0 145 -42t141 -42q35 0 54 17.5t33 59.5h60 q-10 -92 -62.5 -154.5t-120.5 -62.5q-49 0 -149 44.5t-150 44.5q-35 0 -53 -16.5t-30 -57.5h-63zM297 494q0 -191 82 -304.5t220 -113.5q142 0 226 114t84 304q0 185 -85 299t-225 114q-136 0 -219 -113.5t-83 -299.5z" />
<glyph unicode="&#xf6;" d="M88 496q0 142 70.5 257t187 178.5t253.5 63.5q104 0 199 -37.5t165 -103t112 -159t42 -199.5q0 -146 -71 -265t-189 -184t-258 -65q-137 0 -253.5 65t-187 183.5t-70.5 265.5zM297 494q0 -191 82 -304.5t220 -113.5q142 0 226 114t84 304q0 185 -85 299t-225 114 q-136 0 -219 -113.5t-83 -299.5zM339 1307q0 46 30.5 76.5t76.5 30.5t76.5 -30.5t30.5 -76.5t-30.5 -76.5t-76.5 -30.5t-76.5 30.5t-30.5 76.5zM647 1307q0 46 30.5 76.5t76.5 30.5t76 -30.5t30 -76.5t-30 -76.5t-76 -30.5t-76.5 30.5t-30.5 76.5z" />
<glyph unicode="&#xf7;" horiz-adv-x="1103" d="M122 577v92h863v-92h-863zM436 299q0 51 35 86t85 35q52 0 87.5 -35t35.5 -86t-35.5 -85.5t-87.5 -34.5q-50 0 -85 34.5t-35 85.5zM436 944q0 51 35 86.5t85 35.5q52 0 87.5 -35.5t35.5 -86.5q0 -50 -35.5 -85t-87.5 -35q-49 0 -84.5 35t-35.5 85z" />
<glyph unicode="&#xf8;" horiz-adv-x="1199" d="M74 -112l177 224q-77 72 -121 170.5t-44 213.5q0 142 70.5 257t187 178.5t254.5 63.5q156 0 285 -82l142 178h127l-190 -240q72 -68 112.5 -159t40.5 -196q0 -146 -71 -265t-189 -184t-257 -65q-145 0 -268 71l-131 -165h-125zM295 494q0 -155 53 -258l456 577 q-82 94 -206 94q-137 0 -220 -113.5t-83 -299.5zM408 151q75 -75 190 -75q141 0 225 114t84 304q0 129 -47 230z" />
<glyph unicode="&#xf9;" horiz-adv-x="1234" d="M39 913v63h334v-503q0 -199 47 -290t150 -91q160 0 252 212q19 44 25 82.5t6 114.5v181q0 42 -0.5 67.5t-3.5 51t-6.5 39t-12.5 27t-18.5 20t-27.5 12t-36 8.5t-48 6v63h334v-565q0 -205 11 -271q8 -46 36 -59.5t113 -13.5v-65l-304 -23l-20 222h-8 q-68 -110 -158.5 -164.5t-193.5 -54.5q-79 0 -150.5 29t-108.5 79q-59 78 -59 299v293q0 56 -1 86.5t-7.5 59t-14.5 40.5t-27.5 23t-41.5 14.5t-61 7.5zM328 1416q0 30 19 47t51 17q57 0 124 -61l239 -219h-86l-253 119q-94 45 -94 97z" />
<glyph unicode="&#xfa;" horiz-adv-x="1234" d="M39 913v63h334v-503q0 -199 47 -290t150 -91q160 0 252 212q19 44 25 82.5t6 114.5v181q0 42 -0.5 67.5t-3.5 51t-6.5 39t-12.5 27t-18.5 20t-27.5 12t-36 8.5t-48 6v63h334v-565q0 -205 11 -271q8 -46 36 -59.5t113 -13.5v-65l-304 -23l-20 222h-8 q-68 -110 -158.5 -164.5t-193.5 -54.5q-79 0 -150.5 29t-108.5 79q-59 78 -59 299v293q0 56 -1 86.5t-7.5 59t-14.5 40.5t-27.5 23t-41.5 14.5t-61 7.5zM411 1200l240 219q66 61 123 61q32 0 51 -17.5t19 -46.5q0 -52 -93 -97l-253 -119h-87z" />
<glyph unicode="&#xfb;" horiz-adv-x="1234" d="M39 913v63h334v-503q0 -199 47 -290t150 -91q160 0 252 212q19 44 25 82.5t6 114.5v181q0 42 -0.5 67.5t-3.5 51t-6.5 39t-12.5 27t-18.5 20t-27.5 12t-36 8.5t-48 6v63h334v-565q0 -205 11 -271q8 -46 36 -59.5t113 -13.5v-65l-304 -23l-20 222h-8 q-68 -110 -158.5 -164.5t-193.5 -54.5q-79 0 -150.5 29t-108.5 79q-59 78 -59 299v293q0 56 -1 86.5t-7.5 59t-14.5 40.5t-27.5 23t-41.5 14.5t-61 7.5zM274 1200l220 237h166l219 -237h-83l-219 126l-220 -126h-83z" />
<glyph unicode="&#xfc;" horiz-adv-x="1234" d="M39 913v63h334v-503q0 -199 47 -290t150 -91q160 0 252 212q19 44 25 82.5t6 114.5v181q0 42 -0.5 67.5t-3.5 51t-6.5 39t-12.5 27t-18.5 20t-27.5 12t-36 8.5t-48 6v63h334v-565q0 -205 11 -271q8 -46 36 -59.5t113 -13.5v-65l-304 -23l-20 222h-8 q-68 -110 -158.5 -164.5t-193.5 -54.5q-79 0 -150.5 29t-108.5 79q-59 78 -59 299v293q0 56 -1 86.5t-7.5 59t-14.5 40.5t-27.5 23t-41.5 14.5t-61 7.5zM317 1307q0 46 30.5 76.5t76.5 30.5t76.5 -30.5t30.5 -76.5t-30.5 -76.5t-76.5 -30.5t-76.5 30.5t-30.5 76.5zM625 1307 q0 46 30.5 76.5t76.5 30.5t76.5 -30.5t30.5 -76.5t-30.5 -76.5t-76.5 -30.5t-76.5 30.5t-30.5 76.5z" />
<glyph unicode="&#xfd;" horiz-adv-x="1177" d="M7 913v63h489v-63q-123 0 -123 -62q0 -56 51 -181l202 -489h10l168 415q49 119 63 162t14 74q0 48 -26 64.5t-103 16.5v63h405v-63q-24 0 -40.5 -3.5t-35 -16.5t-32.5 -31t-34.5 -55.5t-41.5 -82.5t-53 -119l-402 -895q-85 -189 -263 -189q-116 0 -116 87q0 46 31.5 67.5 t119.5 34.5q75 12 114.5 41.5t74.5 99.5l65 128l-354 769q-48 103 -79 131t-104 34zM477 1200l240 219q67 61 124 61q32 0 51 -17.5t19 -46.5q0 -52 -95 -97l-252 -119h-87z" />
<glyph unicode="&#xfe;" d="M-5 -396q57 2 89 10.5t52 34t25.5 64t5.5 108.5v1292q0 187 -23 238q-13 27 -37 37.5t-109 21.5v46l347 74v-684h7q59 77 130.5 113t164.5 36q131 0 239 -66.5t169.5 -183t61.5 -256.5q0 -217 -137 -363.5t-338 -146.5q-180 0 -290 125v-270q0 -77 6 -118t31 -67.5 t63 -34.5t110 -10v-65h-567v65zM348 385q0 -138 77 -227.5t196 -89.5q129 0 208.5 114.5t79.5 300.5q0 188 -82.5 307t-212.5 119q-75 0 -134 -36.5t-91 -100.5q-41 -79 -41 -223v-164z" />
<glyph unicode="&#xff;" horiz-adv-x="1177" d="M7 913v63h489v-63q-123 0 -123 -62q0 -56 51 -181l202 -489h10l168 415q49 119 63 162t14 74q0 48 -26 64.5t-103 16.5v63h405v-63q-24 0 -40.5 -3.5t-35 -16.5t-32.5 -31t-34.5 -55.5t-41.5 -82.5t-53 -119l-402 -895q-85 -189 -263 -189q-116 0 -116 87q0 46 31.5 67.5 t119.5 34.5q75 12 114.5 41.5t74.5 99.5l65 128l-354 769q-48 103 -79 131t-104 34zM383 1307q0 46 31 76.5t76.5 30.5t76.5 -30.5t31 -76.5t-31 -76.5t-76.5 -30.5t-76.5 30.5t-31 76.5zM691 1307q0 46 30.5 76.5t76.5 30.5t76.5 -30.5t30.5 -76.5t-30.5 -76.5t-76.5 -30.5 t-76.5 30.5t-30.5 76.5z" />
<glyph unicode="&#x152;" horiz-adv-x="2123" d="M107 698q0 200 101.5 365.5t277.5 260.5t388 95h1078l16 -324h-64q-21 144 -101.5 194.5t-272.5 50.5h-234q-15 0 -23.5 -8.5t-8.5 -22.5v-530q188 0 268.5 44.5t80.5 168.5h65v-503h-65q0 65 -18.5 107t-62.5 66.5t-106 33.5t-162 10v-416q0 -120 66 -165.5t240 -45.5 q196 0 280 60t120 224h70l-28 -363h-1144q-157 0 -298.5 55t-242.5 148t-160.5 222.5t-59.5 272.5zM346 693q0 -284 142.5 -450t385.5 -166q46 0 75 3t52.5 12t36 21.5t20.5 37.5t10.5 53.5t2.5 75.5v859q0 88 -17 131t-57 59.5t-123 16.5q-244 0 -386 -175.5t-142 -477.5z " />
<glyph unicode="&#x153;" horiz-adv-x="1873" d="M88 496q0 142 70.5 257t187 178.5t253.5 63.5q122 0 230.5 -51t180.5 -140q67 91 171 141t233 50q177 0 275.5 -97.5t98.5 -276.5q0 -24 -10 -30.5t-47 -6.5h-607q-7 -28 -7 -83v-19q4 -184 93 -294.5t234 -110.5q76 0 143.5 35.5t136.5 110.5l56 -52 q-157 -189 -389 -189q-126 0 -226 48t-164 137q-72 -87 -177.5 -136t-224.5 -49q-137 0 -253.5 65t-187 183.5t-70.5 265.5zM297 494q0 -191 82 -304.5t220 -113.5q137 0 221 109t89 292v17q0 185 -85 299t-225 114q-136 0 -219 -113.5t-83 -299.5zM1138 669h338 q74 0 92.5 9t18.5 43q0 85 -55 135.5t-148 50.5q-98 0 -160.5 -60t-85.5 -178z" />
<glyph unicode="&#x178;" horiz-adv-x="1350" d="M-9 1349v70h581v-70q-92 0 -130 -14t-38 -48q0 -41 42 -111l286 -488h7l209 350q109 183 109 249q0 34 -27 48t-94 14v70h422v-70q-54 0 -92.5 -24t-84 -84.5t-124.5 -193.5l-285 -479v-220q0 -64 2.5 -104t11 -74t20.5 -51t36.5 -29.5t54 -16t76.5 -3.5v-70h-597v70 q55 0 89 7t58 21.5t35.5 47t16 75.5t4.5 115v225l-369 630q-57 95 -100 126.5t-119 31.5zM492 1678q0 38 26.5 64.5t65.5 26.5q40 0 67.5 -26.5t27.5 -64.5q0 -40 -27.5 -67.5t-67.5 -27.5q-39 0 -65.5 27.5t-26.5 67.5zM828 1678q0 38 27 64.5t67 26.5q38 0 64.5 -26.5 t26.5 -64.5q0 -40 -26.5 -67.5t-64.5 -27.5q-40 0 -67 27.5t-27 67.5z" />
<glyph unicode="&#x2c6;" horiz-adv-x="677" d="M37 1200l219 237h166l220 -237h-83l-220 126l-219 -126h-83z" />
<glyph unicode="&#x2dc;" horiz-adv-x="702" d="M37 1217q15 93 69 151t126 58q50 0 145 -42t141 -42q34 0 53.5 17.5t33.5 59.5h60q-10 -92 -62.5 -154.5t-120.5 -62.5q-49 0 -149 44.5t-150 44.5q-35 0 -53 -16.5t-30 -57.5h-63z" />
<glyph unicode="&#x2000;" horiz-adv-x="884" />
<glyph unicode="&#x2001;" horiz-adv-x="1769" />
<glyph unicode="&#x2002;" horiz-adv-x="884" />
<glyph unicode="&#x2003;" horiz-adv-x="1769" />
<glyph unicode="&#x2004;" horiz-adv-x="589" />
<glyph unicode="&#x2005;" horiz-adv-x="442" />
<glyph unicode="&#x2006;" horiz-adv-x="294" />
<glyph unicode="&#x2007;" horiz-adv-x="294" />
<glyph unicode="&#x2008;" horiz-adv-x="221" />
<glyph unicode="&#x2009;" horiz-adv-x="353" />
<glyph unicode="&#x200a;" horiz-adv-x="98" />
<glyph unicode="&#x2010;" horiz-adv-x="853" d="M142 457v153h570v-153h-570z" />
<glyph unicode="&#x2011;" horiz-adv-x="853" d="M142 457v153h570v-153h-570z" />
<glyph unicode="&#x2012;" horiz-adv-x="853" d="M142 457v153h570v-153h-570z" />
<glyph unicode="&#x2013;" horiz-adv-x="1333" d="M142 457v153h1050v-153h-1050z" />
<glyph unicode="&#x2014;" horiz-adv-x="2049" d="M142 457v153h1766v-153h-1766z" />
<glyph unicode="&#x2018;" horiz-adv-x="473" d="M104 1203q0 95 46.5 165t171.5 162l43 -50q-83 -62 -120 -121t-37 -130q23 15 56 15q42 0 68.5 -28t26.5 -73q0 -50 -34 -81.5t-91 -31.5q-64 0 -97 44.5t-33 128.5z" />
<glyph unicode="&#x2019;" horiz-adv-x="468" d="M118 1080q84 63 120 122t36 129q-24 -15 -54 -15q-43 0 -70 28t-27 74q0 50 34.5 81t90.5 31q64 0 98 -44.5t34 -129.5q0 -93 -47 -163t-173 -163z" />
<glyph unicode="&#x201a;" horiz-adv-x="506" d="M122 -255q83 63 119.5 122t36.5 129q-23 -14 -55 -14q-42 0 -69 28.5t-27 72.5q0 50 34.5 81t91.5 31q64 0 97 -44t33 -129q0 -93 -47 -163.5t-172 -162.5z" />
<glyph unicode="&#x201c;" horiz-adv-x="827" d="M104 1203q0 95 46.5 165t171.5 162l43 -50q-83 -62 -120 -121t-37 -130q23 15 56 15q42 0 68.5 -28t26.5 -73q0 -50 -34 -81.5t-91 -31.5q-64 0 -97 44.5t-33 128.5zM457 1203q0 94 47.5 164t172.5 163l42 -50q-84 -62 -120.5 -121t-36.5 -130q24 15 55 15q43 0 70 -28.5 t27 -72.5q0 -50 -35 -81.5t-91 -31.5q-64 0 -97.5 44.5t-33.5 128.5z" />
<glyph unicode="&#x201d;" horiz-adv-x="821" d="M118 1080q84 63 120 122t36 129q-24 -15 -54 -15q-43 0 -70 28t-27 74q0 50 34.5 81t90.5 31q64 0 98 -44.5t34 -129.5q0 -93 -47 -163t-173 -163zM472 1080q83 63 119.5 122t36.5 129q-24 -15 -55 -15q-42 0 -69 28t-27 74q0 50 34.5 81t91.5 31q63 0 97 -44.5 t34 -129.5q0 -93 -47 -163t-173 -163z" />
<glyph unicode="&#x201e;" horiz-adv-x="860" d="M122 -255q83 63 119.5 122t36.5 129q-23 -14 -55 -14q-42 0 -69 28.5t-27 72.5q0 50 34.5 81t91.5 31q64 0 97 -44t33 -129q0 -93 -47 -163.5t-172 -162.5zM475 -255q84 63 120.5 122t36.5 129q-24 -14 -55 -14q-42 0 -68.5 28t-26.5 73q0 50 34 81t91 31q63 0 96.5 -44 t33.5 -129q0 -93 -47 -163.5t-172 -162.5z" />
<glyph unicode="&#x2022;" horiz-adv-x="876" d="M155 680q0 117 85 198.5t203 81.5q114 0 197 -82t83 -198q0 -117 -84.5 -199.5t-205.5 -82.5q-112 0 -195 83t-83 199z" />
<glyph unicode="&#x2026;" horiz-adv-x="1284" d="M123 102q0 51 35 86t85 35q51 0 86.5 -35t35.5 -86t-35.5 -85.5t-86.5 -34.5q-50 0 -85 35t-35 85zM522 102q0 51 34.5 86t85.5 35t86 -35t35 -86t-35 -85.5t-86 -34.5q-50 0 -85 35t-35 85zM920 102q0 51 34.5 86t85.5 35t86 -35t35 -86t-35 -85.5t-86 -34.5 q-50 0 -85 35t-35 85z" />
<glyph unicode="&#x202f;" horiz-adv-x="353" />
<glyph unicode="&#x2039;" horiz-adv-x="585" d="M90 483l314 293l36 -39l-182 -254l180 -254l-34 -37z" />
<glyph unicode="&#x203a;" horiz-adv-x="585" d="M146 737l37 39l313 -293l-313 -291l-35 37l180 254z" />
<glyph unicode="&#x205f;" horiz-adv-x="442" />
<glyph unicode="&#x20ac;" horiz-adv-x="1321" d="M77 793v106h166q47 256 195.5 397t361.5 141q86 0 143.5 -22t132.5 -89l32 93h51v-397h-79q-31 160 -100 243.5t-173 83.5q-137 0 -222 -114t-112 -336h426v-106h-431q-4 -52 -4 -79q0 -38 2 -54h433v-107h-429q0 -215 90.5 -349t234.5 -134q125 0 211.5 108.5 t101.5 285.5h79v-464h-63l-22 127q-122 -145 -323 -145q-208 0 -355 154.5t-186 416.5h-159v107h150q-2 18 -2 56t5 77h-155z" />
<glyph unicode="&#x2122;" horiz-adv-x="1632" d="M135 1279v140h556v-140h-39q-7 64 -27.5 82t-86.5 18q-70 0 -70 -32v-369q0 -54 20 -72t76 -18v-37h-297v37q57 0 76.5 18.5t19.5 71.5v369q0 32 -71 32q-70 0 -94 -20.5t-27 -79.5h-36zM735 851v37q53 0 67 19t14 88v280q0 64 -14.5 85.5t-59.5 21.5v37h200l168 -416h7 l183 416h184v-37q-44 0 -59 -22.5t-15 -89.5v-269q0 -72 14.5 -92.5t66.5 -20.5v-37h-249v37q52 0 66.5 20t14.5 87v333h-7l-215 -484h-16l-207 484h-8v-327q0 -74 14 -93.5t67 -19.5v-37h-216z" />
<glyph unicode="&#x25fc;" horiz-adv-x="976" d="M0 0v976h976v-976h-976z" />
</font>
</defs>
</svg>
