<?xml version="1.0" standalone="no"?>
<!DOCTYPE svg PUBLIC "-//W3C//DTD SVG 1.1//EN" "http://www.w3.org/Graphics/SVG/1.1/DTD/svg11.dtd" >
<svg xmlns="http://www.w3.org/2000/svg" xmlns:xlink="http://www.w3.org/1999/xlink" version="1.1">
<metadata></metadata>
<defs>
<font id="tangerinebold" horiz-adv-x="1003" >
<font-face units-per-em="2048" ascent="1536" descent="-512" />
<missing-glyph horiz-adv-x="460" />
<glyph horiz-adv-x="0" />
<glyph unicode="&#xd;" horiz-adv-x="460" />
<glyph unicode=" "  horiz-adv-x="460" />
<glyph unicode="&#x09;" horiz-adv-x="460" />
<glyph unicode="&#xa0;" horiz-adv-x="460" />
<glyph unicode="!" horiz-adv-x="613" d="M170 74q0 18 12 42.5t33.5 48t49 38.5t55.5 15q18 0 33.5 -14t15.5 -34q0 -24 -12.5 -56t-33.5 -56t-46 -41t-49 -17q-27 0 -42.5 15t-15.5 59zM369 424q37 83 89 221t107.5 293.5t104 309t80.5 270.5q21 34 73.5 69t101.5 56.5t78 17t8 -50.5q-61 -126 -144.5 -295 t-167.5 -339t-158.5 -324t-118.5 -250q-24 -27 -43 -19.5t-10 41.5z" />
<glyph unicode="&#x22;" horiz-adv-x="651" d="M156 854q12 26 37 74t51 99t52 100t42 83q26 35 148 34q24 0 34.5 -9t4.5 -19q-27 -30 -72 -81t-94 -108t-97 -108.5t-78 -88.5q-14 -6 -24 1t-4 23zM446 854q12 26 36.5 74t51 99t52.5 100t41 83q27 35 147 34q24 0 35 -9t5 -19q-26 -30 -71 -81t-95 -108t-97 -108.5 t-79 -88.5q-14 -6 -23 1t-3 23z" />
<glyph unicode="#" horiz-adv-x="912" d="M43 323q3 15 17 33.5t35.5 35t39.5 19.5l120 11q21 58 43 116t46 116q-47 -6 -86.5 -10.5t-73.5 -10.5q-14 3 -10 18t18 32t34 32t38 19q56 8 120 10q34 70 74 141q12 21 36.5 46t49 40t41.5 16t13 -25q-34 -53 -64 -106.5t-58 -105.5q52 3 104.5 3h105.5q40 77 73 126 q12 21 39.5 49t55.5 46.5t44.5 21.5t13.5 -26q-34 -55 -67 -108.5t-68 -108.5q47 0 89.5 -1.5t83.5 -4.5q8 -3 5 -16t-13 -26t-26 -27.5t-28 -20.5q-38 3 -77.5 4.5t-82.5 1.5q-35 -59 -65 -116.5t-59 -116.5h95t87 -2q9 -4 6 -16.5t-13.5 -29t-27.5 -30.5t-29 -20 q-38 2 -78 4t-82 2q-34 -80 -65 -155t-57 -149q-12 -34 -32 -34q-18 0 -12 21q18 61 46 144.5t62 172.5q-58 0 -114 -2t-111 -4q-61 -156 -101 -298q-12 -34 -31 -34q-18 0 -12 21q15 61 38 138.5t52 166.5q-47 -4 -90 -8t-79 -14q-16 4 -13 19zM320 424q55 4 110.5 5 t109.5 1q46 118 99 233q-53 0 -107 -1.5t-104 -4.5q-30 -59 -57 -116.5t-51 -116.5z" />
<glyph unicode="$" horiz-adv-x="880" d="M30 129q0 18 13 45.5t31 57t41 59t49 49.5q12 4 21 -5t3 -25q-28 -24 -36 -64t-2 -74q15 -76 105 -108q47 114 89.5 215.5t85.5 206.5q-46 52 -83 104t-37 126q0 98 84 170t242 76q40 94 92 202q14 21 33 16.5t13 -28.5q-21 -50 -42.5 -98.5t-43.5 -95.5q68 -8 115 -36 t47 -52q0 -44 -16 -96t-39 -86q-6 -6 -18 -1t-12 19q18 59 0 114q-24 62 -102 83q-37 -79 -70 -154t-68 -153q27 -35 60 -65t58.5 -65.5t44 -78.5t18.5 -97q0 -56 -26 -107t-78 -92t-129 -66t-177 -25h-20q-18 -46 -37 -92t-37 -98q-18 -28 -38 -29t-17 25q21 53 41 101.5 t43 95.5q-89 12 -145 48.5t-56 77.5zM298 56q10 -4 30 -4q108 0 170 50t62 135q0 71 -29.5 121t-66.5 94q-44 -100 -84 -198t-82 -198zM458 762q0 -38 10 -68.5t27 -54.5q27 61 56 127t64 140q-77 -3 -117 -41.5t-40 -102.5z" />
<glyph unicode="%" horiz-adv-x="1323" d="M62 566q0 70 30.5 140.5t84.5 127.5t123 92.5t142 35.5q80 0 129.5 -53t49.5 -132q0 -67 -33.5 -138t-87.5 -129t-122 -95t-138 -37q-74 0 -126 50t-52 138zM156 -182q120 170 232.5 330t226 319.5t236.5 327t263 354.5q18 15 50 9t22 -30q-248 -322 -497 -665t-461 -659 q-24 -24 -52.5 -17t-19.5 31zM188 648q0 -76 36.5 -126t97.5 -50q80 0 125 65t45 163q0 71 -38 122t-97 51q-83 0 -126 -64.5t-43 -160.5zM704 188q0 70 30.5 140.5t83 127.5t121.5 92.5t145 35.5q80 0 129.5 -53t49.5 -132q0 -67 -33.5 -138t-87.5 -129t-122 -95t-138 -37 q-76 0 -127 51t-51 137zM826 270q0 -80 38.5 -128t99.5 -48q80 0 125 63t45 165q0 71 -38 120.5t-100 49.5q-82 0 -126 -63t-44 -159z" />
<glyph unicode="&#x26;" horiz-adv-x="1609" d="M62 314q0 102 39.5 172t104 123.5t146.5 94t164 82.5q-12 64 -18 127t-6 122q0 73 28 150.5t75 137.5t110 98.5t131 38.5q91 0 136 -54t45 -137q0 -89 -30.5 -155.5t-81.5 -120t-117 -96.5t-134 -83q34 -146 103 -279t167 -231q62 77 117 161.5t114 156.5t125 118t151 46 q77 0 120 -56t43 -128q0 -16 -12 -23t-25 7q-24 35 -65.5 56t-99.5 21q-74 0 -129 -35.5t-106 -90t-97 -124t-102 -137.5q80 -70 181 -111.5t219 -41.5q61 0 102.5 23.5t69.5 55.5q9 16 26.5 10t0.5 -34q-41 -79 -117 -128.5t-196 -49.5q-118 0 -217.5 41t-178.5 115 q-77 -70 -176.5 -113t-241.5 -43q-169 0 -268.5 83t-99.5 231zM234 381q0 -138 75 -215.5t231 -77.5q82 0 149 28t125 74q-108 108 -180 252t-109 302q-59 -34 -112 -71t-93.5 -80t-63 -95t-22.5 -117zM615 1128q0 -132 27 -272q99 62 165 147t66 223q0 64 -27.5 109 t-89.5 45q-70 0 -105.5 -57t-35.5 -195z" />
<glyph unicode="'" horiz-adv-x="361" d="M156 854q12 26 37 74t51 99t52 100t42 83q26 35 148 34q24 0 34.5 -9t4.5 -19q-27 -30 -72 -81t-94 -108t-97 -108.5t-78 -88.5q-14 -6 -24 1t-4 23z" />
<glyph unicode="(" horiz-adv-x="798" d="M289 547q7 169 49 341q79 338 253 604t417 466q18 12 34 6t-1 -35q-61 -59 -132 -152.5t-129 -188.5q-80 -134 -146 -310t-112 -366t-72 -384t-26 -369q0 -49 3 -108.5t11 -119.5t20 -117t28 -99q3 -24 -15.5 -32.5t-30.5 9.5q-47 106 -85.5 241t-55.5 290t-10 324z" />
<glyph unicode=")" horiz-adv-x="874" d="M88 -285q62 61 135 153t127 190q79 136 145.5 309t112.5 363.5t72 384t26 369.5q0 49 -3 109t-10 120t-20 116.5t-28 99.5q-3 27 16 34t33 -13q50 -114 87 -253.5t52 -295t7 -321t-48 -324.5q-76 -326 -251 -598t-415 -472q-21 -12 -36.5 -6t-1.5 35z" />
<glyph unicode="*" horiz-adv-x="589" d="M130.5 1020q4.5 18 19 40t32.5 35t30 7q18 -12 41 -25t45 -27l48 -30q4 38 11 74q6 30 7.5 66t7.5 62q3 18 26.5 31t50.5 19t45.5 1.5t12.5 -16.5q-15 -35 -37 -73t-40 -76l-43 -85q47 18 89 37q37 16 76.5 31t74.5 31q15 6 19.5 -13t1.5 -42t-12 -44t-21 -21 q-35 -3 -74.5 -4.5t-74.5 -4.5q-40 -3 -82 -7l62 -62q24 -24 51.5 -52t50.5 -46q12 -12 -1 -27.5t-34 -27.5t-41 -16.5t-26 10.5q-12 24 -26.5 59.5t-29.5 66.5q-15 35 -33 73q-24 -40 -47 -76q-18 -34 -36.5 -66.5t-33.5 -56.5q-9 -15 -29.5 -13.5t-40.5 12t-30.5 24.5 t-1.5 24q24 24 58.5 54.5t64.5 57.5q35 34 71 64q-38 4 -71 8q-30 3 -62.5 3t-57.5 3q-15 0 -10.5 18z" />
<glyph unicode="+" horiz-adv-x="924" d="M166 440q18 32 92 43q38 3 86.5 3h107.5q24 68 47 132t49 129q2 12 19 22.5t35.5 15t32 1.5t13.5 -15q-27 -77 -53.5 -147t-51.5 -138q71 -3 143.5 -3.5t139.5 -4.5q12 0 11 -10t-10 -22t-25 -23.5t-34 -14.5h-249q-24 -68 -45.5 -131t-43.5 -124q-6 -18 -21.5 -31.5 t-32 -18t-29.5 0t-13 16.5q22 74 43.5 146t46.5 142q-64 0 -128.5 -1.5t-125.5 -4.5q-22 6 -4 38z" />
<glyph unicode="," horiz-adv-x="373" d="M6 -261q-3 9 9 24q65 41 107 102t42 132q0 67 -35 83q-9 8 1.5 31.5t32 47t48 39.5t47.5 16q15 -6 27.5 -38t12.5 -68q0 -102 -77 -205t-200 -173q-12 0 -15 9z" />
<glyph unicode="-" horiz-adv-x="751" d="M118.5 456q19.5 42 59.5 54q41 3 104.5 9t135 10.5t139 7.5t119.5 3q12 -6 12 -22.5t-12.5 -37t-32 -38.5t-41.5 -24q-56 0 -122 -2t-132 -3.5t-127.5 -3t-100.5 -1.5q-21 6 -1.5 48z" />
<glyph unicode="." horiz-adv-x="367" d="M92 74q0 18 12.5 42.5t33.5 48t48.5 38.5t56.5 15q18 0 33.5 -14t15.5 -34q0 -24 -12.5 -56t-33.5 -56t-46.5 -41t-46.5 -17q-27 0 -44 15t-17 59z" />
<glyph unicode="/" horiz-adv-x="657" d="M-74 -102q68 120 160 280t195 341t215.5 375t220 381t207 356t178.5 304q18 15 49 12t25 -27q-70 -114 -167 -278t-207 -353t-226 -390t-221.5 -389t-196 -350.5t-149.5 -273.5q-9 -12 -24 -16.5t-29 -3t-23 9t-7 22.5z" />
<glyph unicode="0" horiz-adv-x="1176" d="M170 320q0 114 48.5 228.5t133 207t198 149.5t242.5 57q153 0 246 -88t93 -229q0 -126 -52.5 -240.5t-138.5 -205.5t-198 -145t-235 -54q-147 0 -242 86t-95 234zM322 442q0 -166 75 -257t215 -91q156 0 260 116t104 318q0 147 -67 246t-211 99q-86 0 -156 -33.5 t-118.5 -90.5t-75 -136t-26.5 -171z" />
<glyph unicode="1" horiz-adv-x="625" d="M126 9q38 99 80.5 203t90 208.5t93.5 203t86 184.5q-74 -18 -137 -33.5t-114 -15.5q-15 3 -13 18t22 25q58 6 126 24t134 46t127 63t107 73q14 6 25.5 0t11.5 -22q-77 -102 -144 -221.5t-124 -244t-98.5 -249t-70.5 -231.5q-14 -24 -65 -41t-104 -17q-41 0 -33 27z" />
<glyph unicode="2" horiz-adv-x="897" d="M-3 20q0 20 15 36q132 85 258 155.5t223 141.5t155 151t58 188q0 79 -47 128.5t-131 49.5q-99 0 -164.5 -68t-87.5 -166q-9 -9 -21 0t-12 24q12 56 42.5 110t78 96.5t113 69t141.5 26.5q138 0 199.5 -66t61.5 -152q0 -88 -38.5 -158t-112.5 -131.5t-183 -126t-249 -146.5 q64 -22 149.5 -37.5t190.5 -15.5q70 0 107 20.5t55 52.5q15 12 24.5 2t3.5 -32q-52 -79 -121 -125.5t-177 -46.5q-86 0 -150 17t-115 32t-92.5 20t-82.5 -19q-24 -16 -42.5 -28.5t-33.5 -21.5q-15 0 -15 20z" />
<glyph unicode="3" horiz-adv-x="816" d="M-176 -290q4 10 16.5 15t18.5 -4q21 -59 93 -101t201 -42q185 0 305 107t120 306q0 153 -69 235t-201 82q-71 0 -130 -41q-14 0 -22.5 14.5t3.5 28.5q141 59 238.5 101.5t157.5 85.5t85.5 91t25.5 116q0 73 -43 130t-128 57q-79 0 -136 -33.5t-95 -95.5q-6 -9 -21 0 t-9 24q34 64 120 120t218 56q128 0 194 -65t66 -147q0 -123 -98 -203.5t-292 -156.5q65 12 122 -6t98.5 -58.5t66 -100t24.5 -133.5q0 -126 -61.5 -233.5t-162.5 -187t-235.5 -124.5t-278.5 -45q-99 0 -145 57t-46 151z" />
<glyph unicode="4" horiz-adv-x="1141" d="M123 454q132 164 288.5 317t321 293t332 262t324.5 219q15 3 27 -9t6 -27q-44 -47 -75 -88t-60.5 -84.5t-56 -89t-57.5 -101.5q-71 -129 -141 -287.5t-135 -336.5h41q108 0 171.5 28t92.5 80q6 6 16 -1.5t8 -24.5q-59 -108 -140 -156.5t-236 -51.5q-58 -170 -97 -334 q-6 -16 -29.5 -30t-49.5 -24.5t-54 -18t-42 -7.5q-30 0 -35 18q35 99 68.5 200.5t74.5 204.5q-102 9 -185 25t-146 26t-108 13t-69 -15q-12 -8 -25 -20q-12 -6 -24 0t-6 20zM302 592q85 -24 193.5 -41t238.5 -23q85 212 179.5 410.5t188.5 357.5q-234 -166 -429 -333.5 t-371 -370.5z" />
<glyph unicode="5" horiz-adv-x="768" d="M-214 -290q2 16 16 19.5t20 -5.5q30 -52 116 -83t197 -31q185 0 284.5 117t99.5 300q0 117 -66 209t-183 127q-40 15 -46 47t10 94q27 102 73.5 220t91.5 214q15 14 49 14q62 4 132.5 5t143.5 5q138 8 164 61q6 12 18 6t12 -21q-27 -102 -66.5 -142t-139.5 -46 q-24 0 -59 -1t-72.5 -4t-73 -5t-55.5 -2q-65 -2 -77 -40q-15 -30 -26 -62t-23 -76q-16 -52 -2 -80t60 -49q138 -59 221 -166t83 -230q0 -111 -51 -215t-143 -186t-221 -129t-288 -47q-199 0 -199 182z" />
<glyph unicode="6" d="M153 328q0 114 42 249t114 269t171.5 258t216.5 219.5t246 152.5t259 57q108 0 155 -61.5t32 -155.5q-6 -10 -15.5 -12t-15.5 4q-38 62 -100 91t-162 29q-252 0 -417.5 -184t-291.5 -534q55 82 152 134.5t202 52.5q59 0 104.5 -23.5t78 -63t48.5 -88t16 -104.5 q0 -111 -54.5 -219.5t-141 -198t-192 -145t-207.5 -55.5q-114 0 -177 85t-63 243zM316 384q0 -159 49 -224.5t148 -65.5q53 0 107 29.5t98 86.5t72 141.5t28 198.5q0 108 -46 176.5t-145 68.5q-59 0 -114 -32.5t-99.5 -87t-71 -130t-26.5 -161.5z" />
<glyph unicode="7" horiz-adv-x="1000" d="M-27 -466q123 181 241 313t239 261t249 279t272 369q-53 6 -97.5 12t-90 9t-101 4.5t-125.5 1.5q-150 0 -220 -53.5t-109 -181.5q-9 -12 -23 -2t-12 26q24 79 62 171.5t70 153.5q16 15 36 28t51 20t75 12t108 5q106 0 204 -14t209 -33q43 -9 77 25q26 30 34 46 q12 6 21 -5t3 -31q-147 -258 -271.5 -437t-237 -326t-215 -288.5t-208.5 -326.5q-12 -12 -38 -24t-58 -23t-64.5 -17t-56.5 -6q-12 0 -21.5 7.5t-2.5 24.5z" />
<glyph unicode="8" horiz-adv-x="1032" d="M123 290q0 166 132 307t393 217q-58 68 -102.5 140t-44.5 177q0 59 30.5 118t87.5 107t140 77t187 29q130 0 209 -68t79 -162q0 -250 -367 -400q65 -70 116.5 -152t51.5 -208q0 -88 -44.5 -174t-123 -152t-181 -106t-222.5 -40q-167 0 -254 78t-87 212zM298 363 q0 -126 71 -201.5t211 -75.5q132 0 211 77t79 215q0 141 -57 230.5t-127 165.5q-215 -62 -301.5 -167.5t-86.5 -243.5zM663 1202q0 -114 51 -189t118 -146q246 105 246 303q0 105 -60 162t-158 57q-89 0 -143 -52.5t-54 -134.5z" />
<glyph unicode="9" horiz-adv-x="1029" d="M-92 -304q4 8 13 15t15 -1q24 -37 79 -59.5t144 -22.5q120 0 212.5 37t162.5 114t126 198.5t105 292.5q-61 -88 -150.5 -147t-206.5 -59q-144 0 -207 66t-63 202q0 110 46.5 222t123 203t179.5 148t217 57q146 0 226.5 -83.5t80.5 -202.5q0 -224 -81.5 -430t-210.5 -364 t-291 -252t-329 -94q-95 0 -143 43t-48 117zM308 396q0 -232 205 -232q65 0 122 38t101 102.5t70 145.5t26 165q0 114 -51 187.5t-166 73.5q-144 0 -225.5 -120t-81.5 -360z" />
<glyph unicode=":" horiz-adv-x="490" d="M62 74q0 18 12 42.5t33.5 48t49 38.5t55.5 15q18 0 33.5 -14t15.5 -34q0 -24 -12 -56t-33.5 -56t-46.5 -41t-46 -17q-27 0 -44 15t-17 59zM243 642q0 18 12 43t32.5 48t48 38t54.5 15q18 0 34 -13.5t16 -34.5q0 -24 -13 -55.5t-34 -56t-46 -41.5t-45 -17q-28 0 -43.5 15 t-15.5 59z" />
<glyph unicode=";" horiz-adv-x="499" d="M-12 -252q-3 9 9 24q65 40 106 102t41 132q0 68 -33 82q-9 10 1.5 33t32 46t48 40.5t47.5 17.5q15 -6 27 -39t12 -69q0 -102 -76.5 -204.5t-199.5 -173.5q-12 0 -15 9zM249 642q0 18 12 43t32.5 48t48 38t57.5 15q15 0 32 -13.5t17 -34.5q0 -24 -13 -55.5t-33.5 -56 t-47 -41.5t-46.5 -17q-28 0 -43.5 15t-15.5 59z" />
<glyph unicode="&#x3c;" horiz-adv-x="924" d="M92 424q-16 10 1.5 34.5t62.5 39.5q50 15 134.5 42.5t181 58.5t193.5 62t167 51q18 -2 2 -33t-60 -46q-30 -9 -94.5 -31t-143 -46.5t-159.5 -52t-143 -49.5q92 -40 215 -95t231 -104q14 -15 -15 -38t-69 -17q-44 18 -109 47t-136.5 61t-140.5 64t-118 52z" />
<glyph unicode="=" horiz-adv-x="924" d="M131 329q17 31 94 43h113.5h142t155.5 -1.5t153 -1.5q24 -6 3 -36.5t-58 -34.5q-142 0 -298.5 -1t-303.5 -5q-18 6 -1 37zM207.5 554q17.5 32 90.5 42q47 0 113.5 1t144 1t157 -1t154.5 -5q12 0 10.5 -10t-11.5 -24.5t-23 -25t-31 -10.5q-142 3 -298.5 1.5t-305.5 -7.5 q-18 6 -0.5 38z" />
<glyph unicode="&#x3e;" horiz-adv-x="924" d="M91 224.5q17 30.5 59 45.5q30 9 95 30.5t143 46.5t160 53t144 48q-92 41 -215 95.5t-231 104.5q-15 15 14.5 38.5t67.5 17.5q44 -18 110 -47.5t136.5 -62t139.5 -63.5t118 -53q16 -8 -1 -32t-63 -41q-50 -15 -134 -43t-180.5 -58.5l-193 -61t-168.5 -52.5q-18 4 -1 34.5z " />
<glyph unicode="?" horiz-adv-x="909" d="M170 74q0 18 12 42.5t32 48t48 38.5t54 15q18 0 34 -14t16 -34q0 -24 -13 -56t-34 -56t-45.5 -41t-45.5 -17q-27 0 -42.5 15t-15.5 59zM347 447q-3 36 12.5 77.5t54.5 79.5q82 89 193 151.5t209.5 126.5t167.5 147t69 211q0 108 -59.5 177t-169.5 69q-114 0 -185 -63 t-91 -151q-16 -15 -34.5 0t-15.5 30q21 58 62.5 111t95.5 92.5t118 64t135 24.5t129 -23t99.5 -61t65 -89t23.5 -103q0 -122 -44.5 -204t-113.5 -142t-153.5 -103t-165 -82.5t-146.5 -87.5t-99 -115q-24 -53 -6 -91.5t70 -44.5q22 -2 8 -18t-43 -34t-63 -32t-56 -7 q-27 6 -45.5 30t-21.5 60z" />
<glyph unicode="@" horiz-adv-x="1575" d="M153 357q0 150 55.5 288t158.5 243t250.5 167.5t332.5 62.5q110 0 202 -38.5t160 -103t105 -148.5t37 -177q0 -102 -45 -196.5t-114 -168.5t-155.5 -117t-171.5 -43q-108 0 -108 138q0 70 34 158q-68 -106 -141 -181t-155 -91q-55 0 -91.5 45t-36.5 133q0 83 39 164.5 t102 146.5t141 104.5t160 39.5q46 0 78.5 -10.5t59.5 -28.5q15 12 55.5 22.5t61.5 10.5q15 0 9 -12q-44 -53 -77 -113t-57.5 -120t-36.5 -113t-12 -91q0 -97 73 -97q124 0 205 90t81 265q0 89 -32.5 172.5t-95.5 146.5t-156.5 99.5t-219.5 36.5q-130 0 -234 -39.5 t-180.5 -117.5t-118.5 -197t-42 -276q0 -117 36.5 -217t108 -172t174 -113t238.5 -41q175 0 283.5 60t170.5 166q9 10 16.5 -1t4.5 -25q-77 -138 -224 -220t-337 -82q-270 0 -430.5 152t-160.5 439zM604 372q0 -52 19 -87.5t43 -35.5q27 0 69 36.5t84.5 93.5t86.5 129 t76 146q-12 34 -41 57t-74 23q-49 0 -97 -26t-85 -74t-59 -114t-22 -148z" />
<glyph unicode="A" horiz-adv-x="3117" d="M156 261q-16 56 -17 117q-1 63 17 132q34 135 136 261q10 6 22 -1.5t8 -28.5q-70 -77 -78 -177q-1 -13 -1 -26q1 -86 45 -161q50 -87 158 -147t270 -60q260 0 489 107t433 291q70 62 141 132.5t147 147.5q-108 -6 -203 -14t-178 -20q-15 4 -6 16t28 26t45 24.5t50 13.5 q40 3 124 4.5t192 4.5q173 179 383 386t499 435q-205 67 -424.5 111.5t-423.5 44.5q-232 0 -379 -128t-179 -400q-6 -16 -17.5 -13t-14.5 19q38 301 225 460.5t485 159.5q126 0 264.5 -17t272 -42.5t255 -58.5t212.5 -63q10 -6 10 -16.5t-18 -30.5q-102 -110 -182 -253 t-135 -311.5t-86 -356t-31 -383.5q0 -148 35 -229.5t125 -81.5q124 0 233 173q9 6 19 0t6 -18q-79 -130 -176.5 -210t-179.5 -80q-124 0 -187 95t-63 271q0 246 56 501q-144 0 -284 -3.5t-272 -9.5q-102 -108 -195 -203t-183 -175q-246 -226 -506 -351t-568 -125 q-167 0 -266.5 73.5t-131.5 187.5zM2055 903q147 3 290 3h226q49 220 138.5 429.5t218.5 384.5q-270 -217 -482 -423.5t-391 -393.5z" />
<glyph unicode="B" horiz-adv-x="2041" d="M92 363q-10 15 4.5 35t42 35t60 21t59.5 -6q58 -58 117 -74q31 -9 69 -9q35 0 75 7q79 15 133 59.5t98.5 139.5t92.5 249t113 388q64 230 161 399t235 286q-18 0 -38.5 1.5t-44.5 1.5q-102 0 -200.5 -28t-186 -83t-158 -133t-112.5 -180q-9 -6 -17.5 -2t-4.5 20 q37 94 110.5 184t177.5 157.5t236 107t281 39.5h40t37 -2q64 37 134.5 65.5t149.5 48.5q16 0 16.5 -11.5t-16.5 -17.5q-110 -27 -202 -91q270 -35 404 -155t134 -279q0 -92 -36.5 -169t-99.5 -132.5t-150.5 -86t-189.5 -30.5q91 -28 163.5 -83t123.5 -127t78 -150t27 -154 q0 -132 -50 -242t-153 -192t-262.5 -126t-378.5 -44q-346 0 -603 94t-469 269zM428 314q156 -118 364 -193t440 -75q138 0 247 38.5t183 104.5t112 155.5t38 192.5q0 399 -490 533q-10 8 7 28t44.5 40t58 32t48.5 9q30 -12 53.5 -18t60.5 -6q56 0 109 24.5t95 66t68.5 100 t26.5 126.5q0 146 -111 260t-332 148q-196 -203 -307 -617q-79 -299 -158 -482t-163 -285.5t-179 -139t-215 -42.5z" />
<glyph unicode="C" horiz-adv-x="1771" d="M212 753q0 261 93.5 487t264.5 388.5t404.5 256t515.5 93.5q110 0 202.5 -10t160 -32t105.5 -51t38 -67q0 -24 -12 -65t-29 -86t-38 -88t-41 -67q-8 -6 -22 1.5t-8 22.5q41 73 41 124q0 29 -13 52q-41 64 -169.5 122.5t-318.5 58.5q-240 0 -420 -74.5t-299 -209.5 t-179 -328t-60 -433q0 -173 45.5 -318.5t135 -251.5t218.5 -166t295 -60q220 0 368 137t210 365q6 14 21 11t15 -17q-12 -65 -35.5 -143.5t-51 -147.5t-55.5 -120t-46 -57q-99 -38 -219.5 -59t-256.5 -21q-430 0 -645 199.5t-215 553.5z" />
<glyph unicode="D" horiz-adv-x="2509" d="M92 86q0 40 29 87t83 88t126 67t162 26q120 0 220 -22t197 -56q108 123 203.5 332.5t198.5 534.5q61 191 134 338t167 255q-122 61 -259 93.5t-283 32.5q-136 0 -236 -40t-168 -107.5t-107.5 -157t-54.5 -187.5q-6 -6 -16 -3t-10 16q12 126 68 234.5t149.5 188.5 t222.5 126t292 46q142 0 274 -32t254 -90q80 64 174 107t210 68q10 0 10 -11.5t-10 -17.5q-181 -48 -319 -176q150 -83 278.5 -198.5t219.5 -254.5t142 -289t51 -301q0 -169 -64 -313t-181 -248.5t-281.5 -163t-363.5 -58.5q-118 0 -219 13.5t-192 37t-175 52.5t-168 56 q-116 -83 -259 -121t-318 -38q-99 0 -140 23t-41 63zM220 156q0 -46 39 -73t119 -27q129 0 231.5 26t192.5 94q-102 30 -209 51.5t-236 21.5q-71 0 -104 -24.5t-33 -68.5zM968 255q76 -27 158 -53t177 -49.5t205 -37t246 -13.5q295 0 433 154.5t138 431.5q0 144 -45.5 289 t-129 277t-200 245t-261.5 196q-138 -187 -235 -487q-108 -341 -224 -573.5t-262 -379.5z" />
<glyph unicode="E" horiz-adv-x="1575" d="M184 486q0 147 59 271.5t161.5 222.5t243.5 166t310 98q-116 49 -187 132.5t-71 189.5q0 82 41.5 158t122 131.5t196.5 89t268 33.5q82 0 155.5 -15.5t130.5 -39.5t89.5 -56.5t32.5 -63.5q0 -24 -11 -60.5t-28 -74.5t-33.5 -70t-25.5 -44q-9 -6 -18.5 0t-7.5 20 q18 34 25 73q2 10 2 21q0 30 -15 62q-37 76 -136 130t-234 54q-184 0 -276.5 -85t-92.5 -223q0 -108 73.5 -183t249.5 -127q8 -6 -2 -22.5t-29 -37t-41 -35.5t-34 -19q-29 1 -57 1q-299 -1 -469 -147q-186 -160 -186 -476q0 -108 32 -200.5t92 -160t145 -105.5t191 -38 q252 0 412 117t230 377q10 16 21 10t14 -26q-37 -172 -87.5 -285.5t-93.5 -131.5q-130 -59 -262 -88t-310 -29q-290 0 -440 127.5t-150 358.5z" />
<glyph unicode="F" horiz-adv-x="1980" d="M153 393q0 108 63 200.5t180 144.5q12 0 19 -11t-1 -21q-56 -43 -81 -93.5t-25 -140.5q0 -79 27.5 -145t85 -117t150 -78t221.5 -27q147 0 259.5 36.5t204.5 133.5t172.5 266t163.5 433q-156 -6 -304 -18t-289 -35q-9 3 3 14t35 23t50 23.5t44 14.5q231 12 473 18 q14 50 30 101.5t31 106.5q67 250 171.5 383t285.5 198q-166 24 -317.5 44.5t-289.5 20.5q-231 0 -382 -88t-221 -300q-9 -8 -18 -2t-9 20q67 218 265 351t491 133q114 0 228.5 -12t234.5 -29.5t248 -36t266 -30.5q12 -10 3 -29t-29.5 -39.5t-48 -36t-49.5 -15.5 q-73 6 -148.5 15.5t-149.5 21.5q-64 -18 -111.5 -53.5t-86 -93.5t-70.5 -146t-66 -214q-22 -70 -40.5 -138t-42.5 -129h317q14 -6 10 -13.5t-30 -15.5q-80 -2 -156 -4t-153 -4q-185 -508 -469 -744t-680 -236q-220 0 -342.5 104t-122.5 289z" />
<glyph unicode="G" horiz-adv-x="1873" d="M-114 -105q0 129 80 240t246 173q14 6 18 -11.5t-10 -29.5q-73 -43 -108.5 -112t-35.5 -185q0 -231 134 -358.5t376 -127.5q167 0 308 51t261 163t218.5 295t180.5 447q-94 -80 -216 -134t-268 -54q-455 0 -455 411q0 141 47.5 293t133.5 298.5t206 277t262.5 228.5 t305 157t338.5 59q147 0 236.5 -65t89.5 -163q0 -35 -22 -80.5t-54 -93t-66 -92.5t-55 -78q-9 -6 -22 1.5t-9 19.5q43 67 63.5 120t20.5 114q0 85 -78 142t-245 57q-209 0 -383 -87.5t-298 -239t-193 -356.5t-69 -441q0 -209 75 -316.5t232 -107.5q181 0 313 100t184 284 q6 24 40 41.5t71 23.5q21 3 40 3q15 0 28 -2q31 -4 31 -22q-100 -346 -235 -596t-303.5 -408t-369 -232t-423.5 -74q-305 0 -463 126t-158 341z" />
<glyph unicode="H" horiz-adv-x="2776" d="M153 282q0 117 72.5 228t213.5 195t353.5 136.5t488.5 52.5h79q12 44 25 86.5t28 91.5q49 182 101 306t104.5 207t108 132.5t113.5 79.5q-79 27 -190 50t-237 23q-144 0 -240.5 -39.5t-152.5 -108.5q-56 -68 -69 -162q-5 -37 -5 -76q0 -60 12 -124q-2 -14 -11 -17t-20 9 q-13 63 -13 123q0 62 14 121q28 116 106 201t208 135t312 50q129 0 249 -29.5t216 -70.5q12 -18 -2.5 -33t-58.5 -34q-62 -24 -105.5 -66.5t-80 -117t-72 -182t-76.5 -259.5q-20 -80 -43.5 -157t-50.5 -148q202 -15 416 -46t410 -74q106 313 239 561t277 418t296.5 259 t299.5 89q138 0 138 -134q0 -44 -15 -101t-30 -90q-18 -6 -25 12q9 26 9 49q-1 40 -27 72q-42 50 -170 50q-135 0 -243.5 -64.5t-207 -208.5t-191 -377.5t-188.5 -571.5q44 -12 81 -23t74 -19q6 -6 -8.5 -19t-38.5 -25t-58 -21q-25 -7 -48 -7q-8 0 -16 1q-4 0 -16 6 q-8 -35 -16.5 -64t-17.5 -62q-39 -148 -39 -236q0 -124 79 -124q120 0 232 173q8 8 17 2t7 -20q-35 -53 -76.5 -104t-87 -92.5t-95 -67.5t-93.5 -26q-114 0 -160 92q-21 42 -21 109q0 78 29 189q18 74 36.5 143t42.5 136q-181 53 -391 93t-428 58q-172 -436 -424 -628 t-551 -192q-193 0 -285.5 82t-92.5 200zM308 344q0 -132 81.5 -201t228.5 -69q135 0 239.5 38t189 126t155 234t140.5 360q-43 4 -85.5 4h-86.5q-231 0 -394.5 -38.5t-267 -104.5t-152 -155.5t-48.5 -193.5z" />
<glyph unicode="I" horiz-adv-x="1821" d="M153 285q0 108 86.5 204.5t270.5 143.5q15 -3 16.5 -12t-4.5 -17q-188 -61 -188 -232q0 -129 101.5 -206.5t282.5 -77.5q240 0 431 101t335 336q-156 9 -239.5 120t-83.5 287q0 190 101.5 377t270.5 337.5t391 243t462 92.5q12 -6 8 -23.5t-19 -37t-35.5 -38.5t-38.5 -27 q-67 -18 -117 -53.5t-91 -100t-78 -168t-77 -262.5q-108 -414 -310 -704q40 6 75 18t51 23q8 3 12 -5t-2 -18q-24 -14 -67.5 -30t-90.5 -22q-193 -261 -445 -397.5t-543 -136.5q-225 0 -345 79.5t-120 205.5zM1202 944q0 -185 79 -281.5t217 -106.5q144 246 250 648 q34 138 74 236.5t89 170.5t112 124.5t146 98.5q-211 -24 -390 -114t-308 -213.5t-199 -271t-70 -291.5z" />
<glyph unicode="J" horiz-adv-x="2070" d="M0 -188q0 106 55.5 222t169 221t284.5 189t400 124q15 0 15 -12.5t-15 -18.5q-372 -71 -555.5 -245.5t-183.5 -396.5q0 -187 104 -282.5t306 -95.5q182 0 349 55.5t318 175.5t284.5 310.5t250.5 460.5q-159 6 -261 115.5t-102 292.5q0 191 101.5 378t270.5 338t391 243 t462 92q16 -8 8 -27t-24 -38.5t-38 -37t-31 -23.5q-65 -18 -114 -51.5t-90.5 -98t-80 -169.5t-78.5 -264q-102 -393 -249 -701q35 10 61 19t38 17q12 0 15 -7t-3 -13q-21 -16 -53.5 -28.5t-72.5 -21.5q-138 -282 -305 -490t-355 -344t-390 -202t-406 -66q-234 0 -355 93.5 t-121 286.5zM1460 940q0 -178 89 -279t245 -111q112 280 212 652q67 264 181 411.5t240 218.5q-211 -24 -390 -114t-308 -214t-199 -272t-70 -292z" />
<glyph unicode="K" horiz-adv-x="2979" d="M153 354q0 126 84.5 233t232.5 157q14 3 21 -6.5t1 -25.5q-80 -43 -125 -119.5t-45 -174.5q0 -146 103 -239t293 -93q185 0 323 48t237 150.5t165 270t108 407.5q37 211 83 354.5t98.5 238.5t112.5 150.5t127 88.5q-79 30 -187 50t-237 20q-190 0 -331 -63t-226 -175 t-113 -264q-12 -65 -12 -133q0 -94 22 -197q-3 -15 -15.5 -19.5t-18.5 7.5q-24 103 -24 201q0 84 18 164q38 175 143 308t281 211t411 78q126 0 246 -29.5t216 -70.5q12 -18 -0.5 -33t-60.5 -34q-65 -27 -113 -76.5t-84.5 -135t-67.5 -217.5t-65 -320q-47 -258 -149.5 -458 t-248.5 -335t-329 -204t-388 -69q-234 0 -360 98t-126 256zM1857 1079.5q1 14.5 17 28.5q138 179 287 338.5t297 278.5t284 188t254 69q61 0 94.5 -46t33.5 -110q0 -44 -11 -102.5t-26 -101.5q-24 -16 -30 8q4 21 4 41q0 49 -26 87q-37 54 -139 54q-196 0 -429 -165 t-467 -461q67 -240 133 -433t147.5 -330.5t180 -209.5t230.5 -72q71 0 126 35.5t89 90.5q8 9 19.5 -1.5t5.5 -25.5q-55 -105 -152 -172.5t-217 -67.5q-141 0 -249 85t-192 229t-147 334t-116 402q-2 15 -1 29.5z" />
<glyph unicode="L" horiz-adv-x="2073" d="M92 150q0 40 29 86t81.5 86.5t124.5 68t162 27.5q114 0 222.5 -29t222.5 -73q53 86 101.5 215t98.5 317q70 264 168.5 474.5t220 357t261 224.5t292.5 78q94 0 153.5 -66t59.5 -162q0 -62 -27.5 -143t-59.5 -133q-12 -10 -25.5 -4t-10.5 22q15 47 15 95v15q-3 56 -31 102 t-85 75t-142 29q-117 0 -201 -41t-155 -144t-133 -275.5t-126 -430.5q-108 -411 -297 -636q138 -53 290.5 -94t336.5 -41q153 0 232.5 55.5t131.5 160.5q12 9 23.5 1.5t8.5 -27.5q-74 -166 -197 -253t-328 -87q-181 0 -330.5 54t-290.5 116q-225 -170 -550 -170 q-124 0 -185 43t-61 107zM212 220q0 -61 69 -100.5t195 -39.5q110 0 198 23t158 91q-114 49 -230 85.5t-248 36.5q-141 0 -142 -96z" />
<glyph unicode="M" horiz-adv-x="3922" d="M153 525q0 156 89.5 281.5t246.5 181.5q12 6 16.5 -6t-1.5 -20q-94 -62 -133 -141.5t-39 -208.5q0 -102 33.5 -193t98 -160t162.5 -108.5t228 -39.5q266 0 511 123t476.5 336t454 501.5t444.5 620.5q-214 74 -449.5 125t-452.5 51q-250 0 -385 -140t-166 -376 q-6 -16 -16.5 -13t-13.5 19q35 304 221.5 464t487.5 160q124 0 262 -17.5t271 -44.5t255 -59.5t213 -63.5q12 3 31 9q12 -3 15 -15t-3 -21q-43 -24 -72.5 -66t-61.5 -104q-154 -310 -244.5 -646t-149.5 -681q142 255 334 511.5t410 487t450.5 424.5t453.5 323q14 0 20 -17.5 t-2 -29.5q-156 -152 -278 -341t-205 -389.5t-124 -395.5t-41 -357q0 -167 39.5 -260.5t110.5 -93.5q61 0 118 46.5t112 128.5q10 6 20 0t8 -20q-35 -53 -77.5 -104t-93 -92.5t-103 -67.5t-102.5 -26q-114 0 -168.5 104t-54.5 280q0 144 33.5 321t99.5 361.5t160 361 t214 316.5q-184 -138 -381 -331t-380 -413t-341 -453t-263 -455q-6 -12 -24 -29t-42.5 -31t-49.5 -23t-43 -9q-24 0 -18 21q58 475 167 847t256 686q-246 -369 -480.5 -659.5t-472.5 -488.5t-484 -302t-507 -104q-289 0 -444.5 145t-155.5 380z" />
<glyph unicode="N" horiz-adv-x="3049" d="M132 458q0 122 60 241t174 192q15 6 21 -6t0 -29q-55 -55 -87.5 -124t-32.5 -146q0 -193 129 -310t387 -117q443 0 740.5 364.5t405.5 1094.5q-138 112 -282.5 172t-300.5 60q-148 0 -244.5 -68t-139.5 -147q-10 -9 -20 -7t-15 19q27 59 80 119t122 107t153 76t178 29 q128 0 253 -44t241 -128q6 18 18 41t26 42t25 26.5t14 -4.5q-3 -41 -6 -79t-9 -76q135 -108 255.5 -256t224.5 -323t186 -370t141 -396q24 169 73.5 351t120 355t155 330t178.5 275t192 187t198 69q98 0 142 -78.5t44 -234.5q-4 -18 -19 -21t-21 15q-6 49 -46 95t-132 46 q-99 0 -200.5 -76.5t-198 -205.5t-180.5 -303t-150 -367.5t-106.5 -397.5t-46.5 -394q0 -35 -6 -45.5t-21 -10.5t-22 13.5t-13 32.5q-138 508 -334 898t-446 619q-67 -378 -191.5 -669.5t-291.5 -489.5t-371 -301t-432 -103q-144 0 -252 35t-179 97t-106 145t-35 181z" />
<glyph unicode="O" horiz-adv-x="1984" d="M214 712q0 234 100 461.5t268 407.5t387 288.5t462 108.5q167 0 294 -54t216.5 -150.5t135 -231.5t45.5 -296q0 -248 -99.5 -473t-265 -398t-379.5 -274t-440 -101q-176 0 -309.5 54t-226 151t-140.5 226t-48 281zM405 814q0 -158 46.5 -288t135.5 -222t219 -142.5 t300 -50.5q158 0 307.5 75t266.5 211.5t187.5 328.5t70.5 429q0 147 -38 276t-118 224t-200 151t-286 56q-206 0 -370 -81t-279.5 -223t-178.5 -332.5t-63 -411.5z" />
<glyph unicode="P" horiz-adv-x="2521" d="M153 448q0 59 20.5 119t57 113.5t90.5 96.5t121 71q10 6 17 0t1 -22q-91 -49 -134.5 -131.5t-43.5 -178.5q0 -82 28 -158t88 -131t152 -87t221 -32q147 0 258 37t202 129t166 250t151 400q-56 88 -76 194q2 12 11 18.5t15 -2.5q22 -88 65 -160q12 40 23.5 83t23.5 86 q76 273 168 454.5t210 292.5q-16 3 -47 3q-325 0 -546.5 -149.5t-310.5 -456.5q-8 -9 -19.5 -1.5t-11.5 30.5q105 307 349.5 484.5t643.5 177.5h50q116 77 260 114q16 0 16 -14t-16 -20q-92 -27 -169 -86q141 -18 255 -70t192 -131t121.5 -179t43.5 -209q0 -144 -57 -270.5 t-159.5 -218.5t-250.5 -146t-332 -54q-200 0 -332 98q-194 -414 -455 -603t-562 -189q-255 0 -376.5 127.5t-121.5 320.5zM1689 842q127 -86 345 -86q129 0 233.5 43t179.5 120t115 178t40 219q0 217 -130 369.5t-374 194.5q-152 -194 -254 -590q-35 -126 -73.5 -238 t-81.5 -210z" />
<glyph unicode="Q" horiz-adv-x="1848" d="M218.5 75q-0.5 13 27.5 39q24 18 70.5 35t70.5 17q41 0 94 -24.5t99 -24.5q238 0 457.5 82.5t387 234.5t268.5 361.5t101 464.5q0 141 -34 262.5t-101 210t-164 138t-226 49.5q-173 0 -315 -72t-247 -201t-161.5 -309t-56.5 -398q0 -166 72 -287.5t213 -142.5 q34 -6 62 -6q60 0 91 27q9 6 17 -3t2 -24q-24 -34 -82 -55t-130 -21q-188 0 -301 119t-113 347q0 218 79 415t215 347t315 238t379 88q170 0 297 -53t215 -141t132 -208t44 -256q0 -240 -107 -453.5t-288.5 -379t-419 -276t-495.5 -145.5q79 -26 174.5 -71t199.5 -95.5 t215 -103t221 -96.5q120 -46 216.5 -67t213.5 -21q156 0 259.5 41t176.5 123q6 6 18 -1t6 -22q-82 -117 -228 -201t-326 -84q-65 0 -119 6t-108 19.5t-108.5 34t-119.5 50.5q-153 70 -313.5 153t-310 155t-284.5 120q-130 46 -227 46h-8q-15 6 -15.5 19z" />
<glyph unicode="R" horiz-adv-x="2671" d="M153 350q0 140 81.5 248t199.5 152q30 12 18 -22q-179 -95 -179 -282q0 -150 95.5 -241t285.5 -91q153 0 268.5 35t210.5 144t180 312t177 538q138 510 384 747q-286 -9 -490.5 -109.5t-351.5 -312.5q-12 -6 -21 0t-3 22q144 211 387 342.5t587 145.5q114 77 252 114 q14 0 14 -11t-14 -17q-83 -21 -164 -86q129 0 231 -39.5t172.5 -107t107.5 -153.5t37 -180q0 -128 -48 -232.5t-135 -178t-212 -108.5q-89 -25 -193 -25q-42 0 -86 4q46 -240 102 -401t122 -256t147 -135t177 -40q104 0 181 108q6 6 19.5 6t7.5 -15q-64 -105 -150.5 -165 t-183.5 -60q-136 0 -231 78t-164 209t-115.5 303t-85.5 360q0 20 12 24q15 8 56.5 19.5t75.5 23.5q9 3 29.5 -1.5t49.5 -9t69 -6.5h9q37 0 83 11q132 30 205.5 136.5t73.5 286.5q0 88 -29.5 168.5t-86.5 140.5t-141 98.5t-198 48.5q-79 -102 -142 -253t-116 -347 q-91 -338 -212.5 -582t-269.5 -401t-319.5 -232t-358.5 -75q-212 0 -309.5 97t-97.5 253z" />
<glyph unicode="S" horiz-adv-x="1575" d="M153 402q0 132 69.5 224t188.5 142q15 6 22 -9t-3 -29q-55 -30 -87.5 -94t-32.5 -158q0 -187 138 -294.5t360 -107.5q290 0 414 114t124 299q0 173 -71 302.5t-155.5 245t-155 232.5t-70.5 264q0 85 38 165.5t107 143.5t164.5 99.5t209.5 36.5q156 0 246.5 -66t90.5 -158 q0 -53 -44 -128t-90 -130q-12 -6 -21 3.5t-7 21.5q16 24 26 59.5t10 78.5q0 49 -21 93.5t-61 77t-92 52.5t-110 20q-154 0 -225 -74t-71 -190q0 -92 35 -173.5t88 -163t113 -162.5t112 -169t87.5 -185t35.5 -211q0 -120 -60 -224t-164.5 -183t-243 -123t-297.5 -44 q-292 0 -444.5 113t-152.5 289z" />
<glyph unicode="T" horiz-adv-x="1821" d="M153 340q0 108 69.5 199t167.5 135q12 0 16.5 -13t-1.5 -22q-53 -41 -74 -89.5t-21 -113.5q0 -156 119 -242t333 -86q147 0 259.5 38t201 133.5t164 257t155.5 407.5q111 346 270.5 547t368.5 247q-203 53 -421 83.5t-442 30.5q-172 0 -301 -54t-212 -144 q-83 -92 -120 -214q-25 -82 -25 -172q0 -44 6 -89q-15 -30 -33 -6q-5 46 -5 90q0 106 30 208q42 145 143.5 259t263 181t385.5 67q326 0 597 -54t491 -121q21 -15 -3 -47q-27 -40 -69 -62q-33 -18 -56 -18q-6 0 -12 1q-30 9 -59 19t-62 18q-77 -6 -148 -48t-135.5 -123 t-123 -205t-114.5 -300q-158 -519 -445.5 -778.5t-689.5 -259.5q-221 0 -344.5 95t-123.5 245z" />
<glyph unicode="U" horiz-adv-x="2349" d="M213 1335q36 183 138.5 325.5t267 230t383.5 87.5q129 0 248.5 -27.5t215.5 -70.5q14 -12 -10 -36q-163 -130 -287.5 -291t-211.5 -341t-132 -369t-45 -373q0 -176 66 -258.5t201 -82.5q159 0 312 104.5t313 322.5t337.5 555t386.5 800q12 24 70 45.5t128 21.5 q49 0 48 -20q-56 -65 -123.5 -183.5t-135 -267.5t-130.5 -318t-112 -330t-78 -304.5t-29 -244.5q0 -175 117 -175q114 0 227 173q8 8 19.5 1t8.5 -24q-82 -132 -177 -208.5t-180 -76.5q-89 0 -144 60t-55 180q0 153 45.5 365.5t144.5 458.5q-279 -526 -554.5 -795 t-545.5 -269q-169 0 -262.5 104t-93.5 280q0 166 49 348.5t141.5 364t227 355.5t309.5 327q-79 30 -198.5 54.5t-250.5 24.5q-178 0 -308 -75t-208 -199t-102 -284q-9 -64 -10 -130q0 -98 21 -200q-3 -12 -15 -18t-20 6q-23 106 -23 208q0 86 16 169z" />
<glyph unicode="V" horiz-adv-x="2131" d="M214 1196q41 172 101 316t144 247t198 161t261 58q141 0 243 -70t169.5 -193t98.5 -290.5t31 -362.5t-32.5 -408.5t-91.5 -428.5q215 179 387.5 335t288.5 308t179 309t63 335q0 144 -61 233t-150 89q-55 0 -87.5 -26t-56.5 -82q-30 -12 -31 22q14 43 43.5 84.5t62 73.5 t66 52t62.5 20q73 0 133 -30.5t101.5 -81.5t64.5 -117t23 -133q0 -238 -109.5 -439t-286 -390t-397.5 -381t-445 -409q-37 0 -37 43q0 21 9 52q58 178 95 378q37 198 46 396q3 59 3 117q0 135 -15 259q-21 178 -78 314t-155 218t-242 82q-209 0 -344.5 -164.5t-221.5 -501.5 q-6 -12 -19 -10t-13 16z" />
<glyph unicode="W" horiz-adv-x="2595" d="M218 1254q-1 18 -1 36q0 128 38 244q43 134 123 235t198 161t266 60q190 0 300 -120q108 -120 144 -324q17 -99 18 -212q0 -122 -20 -262q-38 -270 -141 -571q83 175 184 359t216.5 359.5t241.5 334t255 278.5q15 6 24 -25t-3 -51q-49 -20 -85 -67q-53 -67 -73.5 -170 t-21.5 -227v-19q-1 -117 11 -243q12 -136 24.5 -272.5t18.5 -265.5q2 -43 2 -84q0 -81 -8 -153q77 111 172 212t193 202.5t190.5 204t165 218.5t117 246t44.5 284q0 102 -29.5 160t-81.5 58q-38 0 -63 -36.5t-51 -83.5q-9 -6 -18 0t-9 22q35 91 97 162.5t124 71.5 q102 0 153 -80.5t51 -195.5q0 -179 -57 -325.5t-149.5 -273.5t-211 -243.5t-241.5 -236.5t-241 -252t-210 -289q-24 -38 -44.5 -59t-44.5 -21q-15 0 -19.5 9t-4.5 25t4.5 34.5t4.5 36.5q5 74 5 152q0 110 -10 228q-17 201 -32 390t-15 343t49 244q-105 -144 -196 -284 t-177 -290t-167 -318t-167 -364q-46 -108 -60 -157t-42 -49q-24 0 -32 23q-2 5 -2 13q0 24 20 69q85 215 137.5 430t67.5 409q7 88 7 170q0 98 -10 188q-18 166 -72 289t-142 192t-208 69q-116 0 -203 -49t-147 -130t-91 -187t-31 -223q-6 -18 -20 -21.5t-14 12.5z" />
<glyph unicode="X" horiz-adv-x="2497" d="M153 178q0 30 14.5 81t39 110t58 120t75.5 113q10 12 25.5 4t9.5 -26q-49 -70 -66 -134q-11 -41 -11 -82q0 -24 4 -48q8 -70 65 -110t164 -40q129 0 247.5 53.5t226 155t209.5 246t196 325.5q-44 200 -66 357t-44 265.5t-50 167t-80 58.5q-62 0 -118 -66t-100 -152 q-14 -14 -27 -7t-10 29q35 73 80.5 140.5t95 121.5t95.5 86t83 32q79 0 119 -72t63 -187t39 -263t46 -298q86 182 197 332.5t237 259t259 168.5t269 60q52 0 84 -41t32 -125q0 -74 -32 -172t-82 -168q-12 -10 -22 -2t-10 22q30 74 30 143q0 79 -34 120.5t-116 41.5 q-106 0 -213 -52.5t-210.5 -145.5t-199 -224t-174.5 -287q49 -215 115 -387.5t148 -291.5t180 -184.5t218 -65.5q89 0 149 52.5t96 142.5q9 9 20 0.5t11 -28.5q-82 -185 -165 -255.5t-191 -70.5q-132 0 -242.5 69t-201 189t-156.5 278t-107 337q-231 -437 -495 -655 t-528 -218q-117 0 -183 49.5t-66 128.5z" />
<glyph unicode="Y" horiz-adv-x="2149" d="M21 135q0 117 48 227t138.5 201t222.5 152.5t304 79.5q14 -3 13.5 -15t-17.5 -27q-140 -18 -240 -64.5t-164.5 -117t-94 -161t-29.5 -192.5q0 -234 142 -367t409 -133q197 0 373 67.5t345.5 226t341 419.5t362.5 647q-85 -140 -189 -262t-215.5 -212.5t-228.5 -141.5 t-231 -51q-147 0 -211 79q-51 61 -51 162q0 29 4 60q24 170 75 339t100 326q50 153 70 247q17 80 17 129q0 9 -1 17q-3 51 -25.5 68.5t-60.5 17.5q-70 0 -133 -54t-96 -110q-12 -9 -23.5 0.5t-7.5 25.5q26 49 71 96.5t98 84t110.5 58t116.5 21.5q52 0 87 -27.5t45 -90.5 q4 -24 4 -54q0 -48 -10 -112q-16 -102 -65 -252q-61 -191 -110 -343.5t-75 -306.5q-6 -43 -6 -79q0 -75 25 -121q37 -67 157 -67q267 0 555.5 354.5t636.5 1049.5q35 30 79.5 39.5t82.5 9.5t32 -31q-316 -677 -594.5 -1126t-539.5 -720t-516 -382.5t-528 -111.5 q-290 0 -446.5 147t-156.5 381z" />
<glyph unicode="Z" horiz-adv-x="1920" d="M159 44q261 246 472 447t407 390t398 379t444 417q-144 49 -314.5 92t-345.5 43q-185 0 -272.5 -95t-117.5 -280q-10 -15 -24 -10.5t-17 21.5q21 116 61.5 214.5t105 169t158.5 108.5t226 38q152 0 281 -29t287 -79q70 -22 107 -22h6q37 2 81 38q14 14 73 16q27 0 18 -22 q-193 -182 -403 -377t-427 -399t-435 -409.5t-424 -402.5l34 2q57 0 115 -16q75 -20 170 -46t221 -49.5t298 -23.5q212 0 332 89.5t196 267.5q10 6 27 -3t11 -24q-62 -129 -129 -224t-152 -160t-194 -95.5t-247 -30.5q-110 0 -199.5 10.5t-164.5 29.5t-146.5 41t-147.5 45 q-52 15 -95 15q-35 0 -64 -10q-65 -22 -151 -110q-18 -6 -43 10.5t-16 33.5z" />
<glyph unicode="[" horiz-adv-x="1015" d="M243 -258q138 537 274.5 1089.5t244.5 1048.5q6 34 50 34h136h124.5t127.5 -1.5t146 -4.5q26 -6 11 -28t-52 -24q-73 6 -171.5 6h-187.5q-150 -572 -279.5 -1110t-214.5 -995q52 0 90 -1.5t73.5 -1.5t74 1.5t93.5 1.5q18 -9 12 -29t-57 -24h-116t-97 2t-105.5 3t-143.5 1 q-34 0 -33 32z" />
<glyph unicode="\" horiz-adv-x="660" d="M92 1908q6 24 33 37.5t39 -10.5q30 -199 79 -468t104 -550t109 -543.5t98 -447.5q0 -34 -29.5 -49t-46.5 9q-40 202 -90 457t-102 526t-103 539.5t-91 499.5z" />
<glyph unicode="]" horiz-adv-x="1080" d="M43 -263q15 23 51 26q74 -6 173 -7.5t187 1.5q150 571 281.5 1107.5t214.5 993.5q-53 4 -91.5 5t-72 1t-72 -1t-93.5 -1q-21 6 -15 26t57 26q67 0 115 -1.5t97 -1.5t106 -1.5t144 -4.5q35 0 33 -29q-68 -266 -138 -541t-136 -548.5t-129 -539t-116 -511.5q-6 -18 -15 -25 t-34 -7h-137h-124.5t-129 2t-143.5 2q-28 6 -13 29z" />
<glyph unicode="^" horiz-adv-x="853" d="M159 578q71 98 176 232.5t221 297.5q30 38 53 -6q43 -116 90.5 -234t89.5 -226q3 -15 -6 -35.5t-24 -35.5t-34 -24.5t-27 1.5q-44 104 -88 214.5t-85 201.5q-83 -108 -175 -221t-166 -195q-12 -10 -23 1t-2 29z" />
<glyph unicode="_" horiz-adv-x="1093" d="M-38.5 -161.5q11.5 14.5 34 29.5t52.5 27.5t54 16.5q52 2 162.5 5t239.5 5t252 2h202q16 -6 8 -31t-34 -31q-80 0 -197 -1.5t-249 -4.5t-268 -12.5t-252 -21.5q-16 2 -4.5 16.5z" />
<glyph unicode="`" horiz-adv-x="475" d="M56 1116.5q0 8.5 6 14.5q40 35 87 50t57 5q37 -43 91.5 -94.5t110.5 -92.5q6 -6 0 -17.5t-21 -11.5q-79 22 -171.5 59t-153.5 77q-6 2 -6 10.5z" />
<glyph unicode="a" d="M94 225q0 102 50 201t131.5 179.5t181 130.5t200.5 50q108 0 169 -52q30 20 78 36t84 16q12 0 14 -15q-70 -85 -121 -189t-79 -197t-34 -167q-2 -18 -1 -34q0 -47 13 -67q15 -18 52.5 -10.5t101.5 87.5q6 6 15 0t7 -18q-56 -80 -123.5 -128t-128.5 -48q-72 0 -92 100 q-7 33 -6 71q0 75 27 167q-83 -132 -179.5 -226t-204.5 -112q-73 0 -114 67.5t-41 157.5zM267 261q0 -67 23.5 -107t53.5 -40q37 0 91 46t111.5 123t114.5 172t101 193q-12 40 -57 65t-103 25q-71 0 -132.5 -36t-105.5 -99t-70.5 -150t-26.5 -192z" />
<glyph unicode="b" horiz-adv-x="979" d="M225 141q0 85 22.5 204t62.5 252t97 279.5t121 287.5q261 562 529.5 860t558.5 298q58 0 98 -26t61.5 -69t24.5 -97q1 -11 1 -22q0 -44 -10 -89q-18 -12 -27 3q-9 62 -64.5 106t-163.5 44q-172 0 -319 -86t-278 -278t-249 -497.5t-232 -744.5q20 34 59 72t88 72t103 55 t106 21q65 0 104.5 -58.5t39.5 -137.5q0 -118 -58 -223.5t-147.5 -186.5t-194 -130.5t-195.5 -49.5q-77 0 -107.5 37t-30.5 104zM393 212q-1 -14 -1 -26q0 -48 18 -70q24 -28 68 -28q59 0 117.5 39t106.5 102t77 140t29 153q0 88 -27.5 126t-70.5 38q-47 0 -98.5 -29.5 t-98.5 -89.5t-79 -149.5t-41 -205.5z" />
<glyph unicode="c" horiz-adv-x="702" d="M92 182q0 108 45 216.5t115 195t153.5 139.5t162.5 53q71 0 110.5 -40t39.5 -89q0 -18 -10 -39.5t-27.5 -42.5t-37 -40t-34.5 -25q-18 -6 -19 15q8 27 8 51q0 34 -16 63q-28 49 -106 49q-100 0 -159 -123t-59 -319q0 -144 114 -144q52 0 115 38t115 100q12 6 21.5 -3 t3.5 -23q-77 -98 -172 -156t-203 -58q-68 0 -114 47t-46 135z" />
<glyph unicode="d" horiz-adv-x="973" d="M92 188q0 120 43 228.5t117 192t175 132t218 48.5q65 0 114 -21q55 166 132 345.5t169 352t195 328.5t211 273t218 186t215 69q47 0 75 -24t41 -64q8 -26 8 -57q0 -17 -2 -35q-7 -50 -31 -99q-6 -6 -15 -4.5t-11 13.5q1 7 1 14q0 36 -26 56q-31 24 -87 23 q-166 0 -319 -111t-290 -339.5t-252 -580.5t-208 -838q-8 -38 -8 -69q0 -25 5 -46q12 -47 46 -47q35 0 65 28t55 70q6 6 17 0t7 -18q-14 -30 -43.5 -65t-65 -63t-73.5 -47t-70 -19q-66 0 -94 50q-23 41 -23 88q0 10 1 21q6 53 15.5 99t21.5 99q-61 -132 -171.5 -229.5 t-218.5 -127.5q-71 0 -114 52.5t-43 135.5zM261 234q0 -50 22.5 -82t62.5 -32q35 0 80.5 35t95.5 95t92.5 138t73.5 168q12 28 21 57t15 56q-12 37 -47 54.5t-79 17.5q-64 0 -125.5 -39t-107 -106.5t-75 -159.5t-29.5 -202z" />
<glyph unicode="e" horiz-adv-x="727" d="M92 206q0 94 40 197.5t103 190t144 139.5t164 53t134 -47t51 -106q0 -175 -464 -240q-3 -30 -4.5 -60.5t-1.5 -65.5q0 -79 37 -122t116 -43q59 0 120 34t99 84q12 6 18 -4t3 -22q-61 -80 -155 -137t-200 -57q-108 0 -156 54t-48 152zM270 436q147 16 218.5 57t71.5 103 q0 46 -28 78t-72 32q-70 0 -120 -66t-70 -204z" />
<glyph unicode="f" horiz-adv-x="531" d="M-909 -572q0 83 59 150q8 10 16 4t8 -16q-13 -25 -13 -54v-11q3 -35 26.5 -66t69 -51t119.5 -20q141 0 252 41t213.5 178.5t208.5 392.5t240 684l18 56q-59 -6 -111.5 -14t-102.5 -16q-14 2 -4.5 14t29 25t47.5 23.5t52 13.5t51 4.5t53 4.5q126 381 266 658t287.5 456 t300 264t302.5 85q58 0 99 -29.5t63 -74.5q21 -43 21 -95q0 -3 -1 -7q-1 -56 -25 -111q-24 -18 -31 9q-6 62 -68 107.5t-196 45.5q-83 0 -154.5 -15t-134.5 -60.5t-123.5 -133.5t-129 -233t-144.5 -356t-168 -507q76 3 156 3h156q15 -6 12.5 -18t-27.5 -15q-71 -3 -150 -4.5 t-161 -9.5q-6 -14 -10 -31t-10 -33q-120 -384 -258 -652.5t-287.5 -437t-303 -246t-303.5 -77.5q-102 0 -155.5 49.5t-53.5 125.5z" />
<glyph unicode="g" horiz-adv-x="730" d="M-346 -436q0 108 75 192.5t221 123.5q16 0 21 -10.5t-1 -19.5q-68 -24 -108 -73.5t-40 -130.5q0 -156 108 -253t282 -97q146 0 217.5 77t71.5 193q0 71 -21.5 126.5t-61.5 125.5q-53 91 -53 175q0 8 1 17q6 92 62 186q2 6 4 8t4 8q-34 -35 -72 -56t-74 -21 q-89 0 -137 52.5t-48 152.5q0 77 33.5 157.5t87 144.5t121 104t139.5 40q105 0 162.5 8t92.5 38q9 6 18 -1t6 -17q-24 -34 -54.5 -62t-77.5 -34q43 -49 43 -120q0 -76 -23 -133t-54 -106t-61.5 -90t-47.5 -85q-14 -33 -14 -70q0 -11 2 -24q5 -50 47 -114 q67 -105 99.5 -185.5t32.5 -171.5q0 -77 -35.5 -143t-99.5 -117t-158 -80t-208 -29q-234 0 -368 86t-134 228zM240 408q0 -177 116 -177h1q35 0 74.5 25.5t63.5 63.5q18 43 30 88.5t12 95.5q0 86 -29.5 138t-93.5 52q-80 0 -127 -69t-47 -217z" />
<glyph unicode="h" horiz-adv-x="994" d="M74 27q138 528 318 952.5t379 722.5t404 459t388 161q77 0 122 -35t62 -85q10 -29 10 -60q0 -24 -6 -50q-13 -58 -45 -104q-10 -10 -19.5 -7t-9.5 15q4 15 4 29q0 47 -38 89q-49 56 -157 55q-166 0 -314.5 -89.5t-289.5 -296.5t-276.5 -549.5t-277.5 -852.5 q47 83 107 157t130.5 129t150 87t166.5 32q38 0 54 -18t16 -44q0 -40 -28 -88q-64 -114 -104 -234t-40 -218q0 -43 9 -70.5t35 -27.5q30 0 66.5 32t61.5 72q10 6 19 -1t5 -17q-40 -67 -112 -119.5t-130 -52.5q-53 0 -86 29t-33 100q0 55 10.5 118t27 125t40 122t51.5 108 q15 37 15 52q0 27 -31 28q-59 0 -126.5 -45t-132 -126t-124.5 -195t-102 -252q-6 -20 -49.5 -42t-94.5 -22q-31 0 -25 27z" />
<glyph unicode="i" horiz-adv-x="508" d="M121.5 233q16.5 75 45.5 153t64.5 153.5t72.5 129.5q-34 -18 -76 -45.5t-69 -51.5q-9 -6 -15 4t-3 20q114 91 317 190q24 0 25 -27q-41 -71 -79 -154t-67 -164t-48 -157t-19 -125q0 -60 43 -60h1q34 0 65.5 28.5t74.5 74.5q6 6 15 -1t3 -23q-67 -79 -133 -128.5 t-127 -49.5q-107 0 -107 100q0 58 16.5 133zM446 982q0 20 8 35q35 43 101 109t137 112q6 2 15 -5t5 -13q-64 -59 -122 -140.5t-101 -161.5q-9 -9 -20 0t-17 26.5t-6 37.5z" />
<glyph unicode="j" horiz-adv-x="469" d="M-906 -448q6 8 15 8t12 -12q-3 -15 -3 -29q0 -69 60 -116q72 -57 220 -57q124 0 234 52t214 196.5t204 401t202 664.5q-64 -34 -120 -80q-9 -6 -15 3t-3 19q18 18 53 42.5t80 51t91 49.5t86 41q30 0 24 -27q-108 -427 -246 -716t-294.5 -465t-322 -252t-332.5 -76 q-108 0 -151 85q-23 47 -23 109q0 49 15 108zM414 982q0 20 10 35q35 43 100.5 109t135.5 112q9 2 18.5 -5t3.5 -13q-64 -59 -122.5 -140.5t-101.5 -161.5q-10 -9 -20 0t-17 26.5t-7 37.5z" />
<glyph unicode="k" horiz-adv-x="892" d="M74 30q64 340 164 643t223 558t262 458.5t281 343t280 214.5t261 75q77 0 122 -31t60 -78q9 -27 9 -57q0 -22 -5 -46q-11 -56 -45 -102q-21 -20 -27 11q4 15 4 30q0 45 -35 89q-46 58 -154 58q-166 0 -320.5 -97t-299 -301t-275.5 -522t-245 -760q59 114 155.5 192 t228.5 78q89 0 119 -44t30 -88q0 -99 -93 -168t-234 -81q34 -163 88 -250t131 -87q35 0 62 15.5t61 57.5q9 3 16.5 -4.5t4.5 -16.5q-95 -120 -240 -120q-117 0 -176 103t-97 308q-9 24 12 31q32 -7 64 -7q24 0 47 4q55 9 99.5 34t71 65t26.5 89q0 77 -77 77 q-108 0 -200.5 -103t-134.5 -303q-14 -52 -27 -109t-22 -101q-6 -24 -12 -34t-29 -24q-24 -12 -60.5 -21t-55.5 -9q-22 0 -18 30z" />
<glyph unicode="l" horiz-adv-x="460" d="M92 120q0 144 61 361t165 457.5t239 480.5t280 432t293 312t277 120q47 0 76 -23.5t39 -61.5q6 -22 7 -48q1 -20 -3 -40q-8 -50 -36 -98q-6 -6 -15 0.5t-13 15.5q1 6 1 12q0 30 -27 50q-32 24 -100 24q-126 0 -253 -94t-247 -248t-224.5 -353t-181 -411.5t-121.5 -421 t-45 -380.5q0 -92 52 -92q38 0 73 31t81 92q8 6 16.5 -1.5t5.5 -21.5q-62 -91 -145 -152.5t-151 -61.5q-58 0 -81 34t-23 86z" />
<glyph unicode="m" horiz-adv-x="1419" d="M74 27q24 67 51.5 149t55 165t51 163t41.5 150q2 14 2 24q0 32 -20 32q-24 0 -57.5 -34t-68.5 -80q-9 -6 -18 1t-3 18q46 71 110 121t139 50q49 0 66 -31q11 -20 10 -43q0 -14 -3 -30q-12 -67 -24.5 -113.5t-33.5 -104.5q80 140 176.5 231t207.5 91q56 0 85 -31t29 -73 q0 -120 -44 -242q100 169 193 257.5t225 88.5q61 0 87.5 -32t26.5 -66q0 -52 -23.5 -115t-52 -132t-51.5 -138t-23 -133q0 -77 49 -78q49 0 132 102q9 6 16.5 -3t1.5 -21q-61 -77 -126 -123.5t-126 -46.5q-102 0 -102 117q0 73 21.5 148t48 144t48 131t21.5 105q0 65 -46 65 q-92 0 -218 -170.5t-234 -487.5q-6 -18 -51 -35t-83 -17t-29 27q18 55 51 138.5t62.5 171t50.5 165.5t21 122q0 82 -53 82q-79 0 -201 -164t-234 -490q-6 -18 -49.5 -35t-76.5 -17q-15 0 -24.5 6t-3.5 21z" />
<glyph unicode="n" horiz-adv-x="988" d="M62 27q52 132 105 290.5t94 318.5q9 30 3 44t-21 14q-35 0 -65.5 -29t-54.5 -63q-9 -6 -16.5 3.5t-4.5 18.5q15 21 41.5 48.5t60 54t70 43t72.5 16.5q52 0 70 -32q11 -20 12 -46q0 -15 -4 -32q-14 -67 -31.5 -127t-42.5 -135q37 68 91 134.5t120 120t142.5 85.5t163.5 32 q37 0 57 -18t20 -44q0 -43 -23 -76q-65 -117 -109 -241.5t-44 -222.5q0 -79 52 -79q35 0 68 27t76 82q6 6 15 -1t7 -19q-56 -77 -128 -135.5t-142 -58.5q-53 0 -82.5 34t-29.5 89q0 108 39 234t104 255q9 21 9 45q0 30 -28 31q-114 0 -252 -155t-256 -493q-2 -8 -19 -16.5 t-38.5 -13t-42.5 -7.5t-34 -3q-16 0 -23 6t-1 21z" />
<glyph unicode="o" horiz-adv-x="792" d="M92 225q0 89 39 187t102 181t146 138t171 55q108 0 160 -64.5t52 -149.5q0 -120 -48 -223t-117 -182t-148.5 -123t-144.5 -44q-104 0 -158 63t-54 162zM243 310q0 -108 38.5 -162t99.5 -54q95 0 161.5 101t66.5 275q0 91 -37.5 153.5t-107.5 62.5q-100 0 -160.5 -95.5 t-60.5 -280.5z" />
<glyph unicode="p" horiz-adv-x="906" d="M-105 -700q0 156 51 363.5t130 428.5q-18 24 -20 40q-4 12 46 27q40 111 86 222t91 217q54 116 54 152v5q-5 31 -37 13q-47 -24 -102 -86q-6 -6 -14 5t-4 17q20 24 54 53t72 54t75 42t65 17q35 0 46 -29q4 -12 4 -25q0 -18 -9 -39q-41 -108 -105 -243q30 44 70.5 88 t85 81.5t93 60t97.5 22.5q68 0 110 -66t42 -154q0 -126 -51 -229t-133.5 -179t-190.5 -117t-219 -41q-52 0 -88 12q-53 -150 -94.5 -322.5t-41.5 -319.5q0 -58 47 -58q10 0 21 2q24 4 47 13.5t45 24.5q12 0 14 -13t-4 -25q-18 -8 -54 -19t-76 -22t-79.5 -17t-68.5 -6 q-24 0 -39.5 13t-15.5 37zM220 94q52 -32 140 -32q74 0 138 29t111.5 86t77 141t29.5 195q0 73 -28 120t-79 47q-71 0 -170 -126t-181 -354q-9 -24 -18 -50.5t-20 -55.5z" />
<glyph unicode="q" horiz-adv-x="927" d="M76 190q0 106 50 211.5t134 192t199 139.5t247 53q44 0 84 -12t66 -36q16 12 37.5 18t43 6t35.5 -3t14 -9q-102 -144 -185 -316.5t-147 -350t-105.5 -348.5t-53.5 -313q-2 -19 -2 -34q0 -27 7 -44q10 -26 48 -26q38 1 91 19q12 0 9 -15.5t-9 -21.5q-47 -16 -122 -33 t-139 -17q-71 0 -71 80q0 17 3 37q12 83 40 200t66 246t85 253t91 219q-40 -53 -87 -101.5t-96 -88t-97 -64.5t-87 -31q-67 0 -108 47t-41 143zM243 212q0 -104 71 -104q30 0 79 37t102 88.5t97 107t65 95.5q43 74 66.5 117t50.5 95q-3 30 -35.5 60t-93.5 30q-89 0 -163 -42 t-126 -114t-82.5 -167t-30.5 -203z" />
<glyph unicode="r" horiz-adv-x="651" d="M88 633q18 24 44.5 50.5t59.5 49.5t68.5 38t71.5 15q49 0 67.5 -22.5t18.5 -65.5q0 -47 -9.5 -105.5t-24.5 -120.5q62 148 135 231t161 83q46 0 70 -21t24 -55q0 -30 -23 -80t-39 -68q-6 -2 -12 2t-6 10q0 22 -17 37.5t-50 15.5q-108 0 -195.5 -146.5t-161.5 -418.5 q-3 -16 -21 -27t-41.5 -18.5t-48 -12t-42.5 -4.5q-35 0 -18 38q27 64 53 139t47 151.5t37 149t25 134.5q5 37 5 60v10q-2 24 -26 24q-30 0 -63 -26t-60 -65q-12 -9 -23.5 -1.5t-5.5 19.5z" />
<glyph unicode="s" horiz-adv-x="631" d="M-15 108q0 12 9 34t24.5 46t33.5 48.5t40 39.5q8 6 16.5 -3t2.5 -18q-18 -18 -27.5 -38.5t-9.5 -52.5q0 -56 36.5 -91t95.5 -35q79 0 124 44t45 108q0 59 -26.5 109.5t-57 98.5t-57 96.5t-26.5 103.5q0 80 68 134t200 54q67 0 109 -18t42 -46q0 -35 -17.5 -77.5 t-31.5 -70.5q-6 -6 -15 -1t-9 17q8 20 8 61q0 43 -23 71t-63 28q-53 0 -84.5 -32t-31.5 -91q0 -49 25.5 -93.5t58 -89.5t60 -95.5t27.5 -114.5q0 -111 -88.5 -172.5t-234.5 -61.5q-104 0 -163.5 34t-59.5 74z" />
<glyph unicode="t" horiz-adv-x="573" d="M124.5 700q7.5 12 27.5 26.5t48 25t52 10.5h25t25 3q40 89 83 172t85 151q18 20 51 37.5t63.5 26.5t50 10.5t16.5 -10.5q-53 -80 -103 -178t-96 -206q58 3 118 3h112q16 -6 13 -16.5t-29 -16.5q-46 0 -105.5 -4t-126.5 -10q-62 -150 -102 -292t-40 -232q0 -106 80 -106 t178 140q10 6 17 0t5 -22q-53 -86 -132.5 -149t-157.5 -63q-80 0 -118 38t-38 106q0 88 43 246t110 320q-79 -10 -147 -24q-15 2 -7.5 14z" />
<glyph unicode="u" horiz-adv-x="1018" d="M99 141q0 49 10.5 114t33.5 134t54 139t73 135q-34 -21 -64 -44t-56 -47q-9 -6 -16.5 4t-1.5 20q52 55 149 113.5t185 92.5q16 0 24 -8t2 -20q-99 -129 -159 -279.5t-60 -292.5q0 -88 55 -88q41 0 99.5 53t123 141t130.5 199t121 223q10 18 54 37t90 19q47 0 28 -24 q-44 -80 -75.5 -149.5t-53 -137t-32.5 -136.5t-11 -151q0 -100 52 -100t116 94q10 6 19.5 0t6.5 -18q-52 -80 -115 -122t-116 -42q-129 0 -129 150q0 156 56 310q-118 -211 -247 -335.5t-217 -124.5q-129 0 -129 141z" />
<glyph unicode="v" horiz-adv-x="936" d="M99 654q55 56 124 94t140 38q47 0 62 -28t15 -70q0 -58 -13 -138t-32.5 -167t-43 -172t-43.5 -153q85 22 169.5 80t152.5 135t109 167.5t41 183.5q0 80 -50 80q-26 0 -43.5 -11t-35.5 -39q-9 -6 -15 3t-3 19q21 35 75 72.5t112 37.5q50 0 75.5 -35t25.5 -88 q0 -89 -45.5 -179.5t-122.5 -173t-178 -151.5t-209 -115q-44 -16 -101 -30t-112 -14q-37 0 -21 40q52 130 89 281t52 271q2 19 2 35q0 73 -35 73q-46 0 -114 -70q-15 -6 -24.5 3t-2.5 21z" />
<glyph unicode="w" horiz-adv-x="1287" d="M68 660q14 38 71 82t122 44q73 0 105.5 -76.5t32.5 -251.5q0 -80 -6 -146t-15 -116q62 108 117 185t103 141q18 24 32.5 57t29.5 90q3 18 29.5 35.5t55.5 27t51 11t22 -14.5q-50 -102 -75 -235t-25 -247q0 -76 37 -111.5t89 -35.5q56 0 107 33.5t91 88.5t64.5 131 t24.5 158q-1 120 -47 154q-20 15 -41 15q-28 0 -57 -25q-12 -3 -18 4.5t-4 17.5q10 16 31.5 35t45 36.5t46.5 28t35 10.5q52 0 88 -56t36 -146q0 -120 -53 -226t-133 -186t-172.5 -126t-169.5 -46q-73 0 -108.5 46t-35.5 126q0 74 12 169t29 157q-61 -80 -129 -191 t-136 -227q-18 -35 -58 -57.5t-78 -22.5q-24 0 -18 34q22 74 36 183t14 213t-14 181t-50 93q-22 6 -49.5 -12t-44.5 -53q-6 -6 -15 1.5t-5 19.5z" />
<glyph unicode="x" horiz-adv-x="868" d="M30 246q6 6 16 0t6 -15q-10 -26 -10 -48q0 -17 6 -29q14 -30 51 -31q111 0 235 215q-20 76 -26 143t-9 115.5t-8.5 75t-20.5 26.5q-24 0 -49 -35.5t-39 -72.5q-6 -10 -17.5 -7t-8.5 13q6 26 25 59t45 62.5t58 49t70 19.5q34 0 51 -28t26 -70.5t13 -101t14 -116.5 q73 134 166.5 225t181.5 91q43 0 70 -26t27 -68q0 -28 -20.5 -74t-40.5 -81q-10 -6 -17 0t-7 17q20 33 20 61q0 13 -4 25q-14 36 -60 36q-80 0 -152 -58t-152 -207q37 -147 94 -236t116 -89q40 0 75 33.5t65 80.5q10 6 19 0t5 -18q-43 -68 -113.5 -125t-146.5 -57 q-77 0 -132.5 69t-101.5 221q-80 -142 -161 -216t-162 -74q-48 0 -48 61q0 89 51 185z" />
<glyph unicode="y" horiz-adv-x="961" d="M-543 -464q0 68 45.5 132.5t125.5 91.5q12 3 19 -6t-1 -18q-48 -50 -48 -126v-6q0 -129 79.5 -209.5t230.5 -80.5q108 0 197 34t167 120t152 231t150 363q38 102 66.5 181t59.5 175q-58 -91 -119.5 -168.5t-124.5 -132.5t-121.5 -86t-106.5 -31q-62 0 -89.5 37t-27.5 101 q0 108 44.5 247.5t120.5 268.5q-34 -21 -61 -39.5t-51 -42.5q-10 -6 -18 4t-2 20q21 20 58.5 46.5t80.5 51t87 49.5t88 43q30 0 25 -27q-49 -61 -87.5 -136t-66 -151t-42 -149.5t-14.5 -132.5q0 -85 55 -85q50 0 117.5 61.5t133.5 151.5t123 193.5t87 186.5q12 30 67.5 59 t99.5 29q26 0 20 -21q-67 -191 -133 -371t-137 -370q-152 -396 -382 -583.5t-488 -187.5q-178 0 -278.5 83.5t-100.5 199.5z" />
<glyph unicode="z" horiz-adv-x="739" d="M-30 46q68 68 144 143t153 148.5t151 145t136 129.5q-71 15 -158.5 25.5t-146.5 10.5q-89 0 -123 -98q-6 -8 -19 -2t-13 14q41 112 93.5 168t144.5 56q70 0 152 -15t125 -24q35 -9 60 0t49 30q10 9 29 9q37 0 30 -27q-169 -156 -312 -290.5t-271 -262.5q70 -24 145 -41.5 t150 -17.5q77 0 121 36.5t70 101.5q8 9 19 3t7 -18q-102 -270 -298 -270q-64 0 -130 15t-134 41q-21 6 -39 6q-17 0 -31 -5q-30 -11 -80 -57q-15 0 -23.5 15t-0.5 31z" />
<glyph unicode="{" horiz-adv-x="939" d="M264 50q18 85 43 148t49.5 121.5l49 117t42.5 131.5q12 47 5 82.5t-29 61.5t-53 42.5t-63 22.5q-16 15 -5 37t63 34q94 24 139 82t75 178q30 124 32.5 219t23.5 197q44 202 177 294.5t397 92.5q24 -6 21 -23.5t-33 -19.5q-175 0 -264.5 -72t-125.5 -242 q-14 -64 -21 -114.5t-11.5 -100t-10.5 -99.5t-21 -115q-24 -91 -88 -168.5t-158 -120.5q76 -18 107 -89t13 -157q-18 -80 -43 -143t-49.5 -124.5t-48 -123t-37.5 -135.5q-30 -156 26 -234.5t214 -78.5q14 -6 10 -23.5t-33 -19.5q-243 0 -333 95t-60 247z" />
<glyph unicode="|" horiz-adv-x="522" d="M246 -747v2729h92v-2729h-92z" />
<glyph unicode="}" horiz-adv-x="918" d="M-3 -271q3 19 33 22q176 0 265 72t127 241q14 65 20 116t11 99.5t11 99.5t22 116q24 91 88.5 167t155.5 118q-76 21 -107 92.5t-8 156.5q18 77 41.5 141t47.5 124t47 122t38 135q30 156 -24.5 234.5t-210.5 78.5q-16 6 -13.5 23.5t31.5 23.5q122 0 205 -26.5t129 -70.5 t60 -107t-2 -137q-18 -85 -42.5 -150.5t-49 -122.5t-49.5 -114.5t-43 -132.5q-12 -46 -4.5 -81t29 -61t52.5 -43t64 -23q18 -16 6 -37.5t-65 -33.5q-94 -24 -138 -82.5t-76 -178.5q-15 -62 -21 -116t-10.5 -104t-9.5 -98t-15 -98q-43 -205 -175 -295.5t-399 -90.5 q-24 2 -21 21z" />
<glyph unicode="~" horiz-adv-x="1176" d="M156 430q70 89 150.5 146t169.5 57q55 0 98.5 -18.5t86.5 -38.5t90 -38.5t111 -18.5q62 0 110 29.5t106 90.5q16 6 26 -1.5t4 -25.5q-76 -88 -158.5 -147.5t-172.5 -59.5q-67 0 -116 18.5t-91 39t-82 38.5t-89 18q-71 0 -116.5 -29.5t-98.5 -90.5q-14 -6 -24 5.5t-4 25.5 z" />
<glyph unicode="&#xa1;" horiz-adv-x="601" d="M-255 -826q61 126 144.5 294.5t167.5 339.5t158.5 322.5t118.5 250.5q24 27 43 19.5t10 -40.5q-37 -82 -89 -221t-107.5 -294t-104 -310.5t-80.5 -268.5q-21 -34 -73.5 -69t-101.5 -57t-79.5 -17.5t-6.5 51.5zM387 615q0 24 12 53.5t33.5 55.5t46.5 42.5t49 16.5 q27 0 42.5 -15t15.5 -58q0 -18 -12 -43t-33.5 -48t-49 -38t-55.5 -15q-18 0 -33.5 13t-15.5 36z" />
<glyph unicode="&#xa2;" horiz-adv-x="625" d="M34 357q0 114 46 221.5t119.5 191.5t161 136t170.5 56q21 49 43 99.5t47 102.5q15 21 35 16.5t13 -28.5q-24 -52 -45.5 -99.5t-43.5 -96.5q47 -16 77.5 -48t30.5 -66q0 -16 -9.5 -37.5t-23 -42.5t-30 -38.5t-29.5 -23.5q-6 -2 -12 2t-6 10q14 35 4 71.5t-54 58.5 q-64 -148 -126 -289.5t-123 -285.5h23q61 0 106.5 24.5t92.5 80.5q9 6 18 -3t3 -23q-52 -67 -127 -115.5t-152 -54.5q-37 -89 -74 -179.5t-70 -190.5q-18 -26 -38.5 -28.5t-16.5 26.5q43 102 79 193t73 179q-76 6 -119 50t-43 131zM196 430q0 -104 47 -145q59 138 115 273.5 t128 295.5q-9 2 -34 2q-120 0 -188 -111.5t-68 -314.5z" />
<glyph unicode="&#xa3;" horiz-adv-x="1083" d="M18 46q0 28 20 57t55.5 54t85 40t106.5 15q43 0 87 -10q18 44 37 105.5t33 140.5q-43 -6 -85.5 -10t-89.5 -14q-15 4 -6 16t29 24t48 23t52 14q15 0 32.5 1.5t31.5 1.5q24 102 72 186t111 144t139 94t156 34q46 0 73 -23.5t40 -59t9 -79.5t-22 -90q-9 -12 -19.5 -8 t-13.5 14q-6 55 -46.5 91.5t-122.5 36.5q-56 0 -93 -12t-63 -47t-45.5 -101t-42.5 -177h132.5t154.5 -3q15 -6 12 -17t-29 -17q-146 0 -278 -10q-18 -91 -49 -160t-71 -122q76 -30 162 -61t204 -31q58 0 87 14t63 44q12 6 20 0t2 -21q-68 -67 -129 -104t-151 -37 q-112 0 -194 32t-156 66q-62 -44 -129 -63.5t-129 -19.5q-88 0 -90 49zM111 99q0 -21 19.5 -32t53.5 -11q74 0 124 49q-77 30 -149 30q-49 0 -48 -36z" />
<glyph unicode="&#xa4;" horiz-adv-x="1074" d="M52 44q44 43 97 90.5t115 105.5q-50 70 -50 184q0 86 38 164t105 136q-21 44 -43 82t-47 79q-9 27 13 56t42 17q24 -43 50.5 -90.5t51.5 -99.5q44 24 94 40t109 16q105 0 179 -65q61 53 117.5 103t105.5 94q12 6 32.5 -9t8.5 -32q-47 -43 -102.5 -93.5t-119.5 -109.5 q46 -64 46 -156q0 -98 -41 -181t-112 -138q24 -43 45.5 -83t43.5 -78q8 -30 -12 -59t-44 -14q-24 43 -50 90.5t-50 100.5q-89 -47 -196 -47q-110 0 -168 49q-61 -52 -116.5 -101t-101.5 -92q-22 -9 -37 7.5t-3 33.5zM292 446q0 -100 52 -166t178 -66q58 0 111 25t92.5 66 t64 97t24.5 117q0 108 -58 171t-164 63q-67 0 -122.5 -26.5t-95.5 -67.5t-61 -98t-21 -115z" />
<glyph unicode="&#xa5;" horiz-adv-x="997" d="M78 314q8 12 28 24t48 23t52 11q34 6 63 6t63 3q20 53 25 83q-53 -6 -107 -12t-112 -18q-15 6 -6 18t29.5 24.5t48 21.5t51.5 12t50.5 4.5t51.5 1.5q12 156 -26.5 250t-118.5 94q-41 0 -68 -28q-12 -6 -19.5 0t-1.5 18q35 41 95.5 76.5t101.5 35.5q34 0 69 -26.5t59 -80 t37 -138t1 -198.5q129 240 243.5 341.5t226.5 101.5q49 0 72.5 -40t29.5 -92q-10 -28 -29 -16q-35 62 -132 62q-53 0 -101.5 -29t-96.5 -79t-90.5 -114t-80.5 -135q46 0 97 -1.5t110 -1.5q15 -6 12 -16.5t-29 -16.5h-106.5t-104.5 -7q-18 -41 -41 -95h216q16 -6 13 -18.5 t-32 -18.5h-107t-104 -4q-47 -128 -47 -226q0 -38 9.5 -53t37.5 -15q46 0 70 12q9 0 12 -10t-3 -18q-9 -6 -35 -10.5t-58.5 -9t-65 -7.5t-52.5 -3q-35 0 -50 17t-15 65q0 68 17.5 131t35.5 115q-56 -6 -113 -13t-115 -17q-16 4 -8 16z" />
<glyph unicode="&#xa6;" horiz-adv-x="525" d="M249 270h91v-1017h-91v1017zM249 962v1020h91v-1020h-91z" />
<glyph unicode="&#xa7;" horiz-adv-x="1378" d="M-153 -424q0 79 45.5 157.5t151.5 140.5q12 6 19 -4.5t1 -25.5q-61 -64 -61 -182q0 -140 89.5 -229.5t245.5 -89.5q166 0 247 90.5t81 250.5q0 166 -32 308.5t-69 280.5t-69 281.5t-32 315.5q0 153 49 285t147.5 228.5t251 150.5t357.5 54q185 0 270 -70t85 -178 q0 -68 -42.5 -129.5t-107.5 -104.5q-8 -6 -17 1t-7 24q16 24 25 53.5t9 75.5q0 94 -62 166t-190 72q-156 0 -242.5 -82t-86.5 -243q0 -163 30.5 -304t69 -281t69 -290.5t30.5 -324.5q0 -175 -58 -309t-165.5 -224.5t-260 -138.5t-339.5 -48t-309.5 86.5t-122.5 236.5z M578 -648q73 12 137.5 56t115.5 114t80 164t29 200q0 176 -27.5 329.5t-63 296t-63 281.5t-27.5 283q0 128 63 237t171 179q-73 -8 -140 -49.5t-117 -107.5t-79.5 -155.5t-29.5 -199.5q0 -182 29.5 -332t64.5 -292t64 -278t29 -290q0 -156 -69 -265t-167 -171z" />
<glyph unicode="&#xa8;" horiz-adv-x="534" d="M44 1038q0 18 10 41t27.5 45t40 37t50.5 15q16 0 29 -18t13 -36q0 -24 -10 -51t-27.5 -48t-39 -37t-43.5 -16q-20 0 -35 20.5t-15 47.5zM322 1038q0 18 11 41t29.5 45t42 37t49.5 15q16 0 30 -18t14 -36q0 -24 -11 -51t-29 -48t-40 -37t-43 -16t-37 20.5t-16 47.5z" />
<glyph unicode="&#xa9;" horiz-adv-x="1047" d="M184 680q0 82 37 161.5t100 142.5t149 100.5t187 37.5q65 0 122 -22t99.5 -60t67 -92t24.5 -118q0 -95 -36.5 -178.5t-101 -146.5t-151.5 -98t-189 -35q-147 0 -227.5 84t-80.5 224zM252 700q0 -126 70.5 -201t227.5 -75q71 0 134 29.5t110.5 78t75 116.5t27.5 144 q0 132 -78 206t-207 74q-82 0 -150.5 -30.5t-114 -81.5t-70.5 -118.5t-25 -141.5zM360 694q0 50 19.5 97t58 85.5t90.5 62t117 23.5q61 0 93.5 -17.5t32.5 -35.5q0 -24 -13.5 -65.5t-29.5 -60.5q-22 -6 -22 15q16 27 4 56q-10 20 -40.5 37.5t-73.5 17.5q-83 0 -121.5 -50.5 t-38.5 -130.5q0 -160 136 -160q52 0 81 18t45 47q6 6 13 0t7 -15q-18 -38 -63.5 -67t-114.5 -29q-86 0 -133 46.5t-47 125.5z" />
<glyph unicode="&#xaa;" horiz-adv-x="754" d="M170 648q0 58 25 115t69 100t101 71t118 28q59 0 95 -28q8 10 39 17t46 7t17 -8q-41 -47 -70.5 -102.5t-45.5 -102.5t-20 -85.5t6 -55.5q22 -26 68 35q6 6 12 0t3 -15q-37 -52 -72.5 -75.5t-59.5 -23.5q-37 0 -46 49.5t15 137.5q-56 -85 -103 -130t-103 -57 q-44 0 -69 33.5t-25 89.5zM267 674q0 -38 14.5 -57t28.5 -19q18 0 46 23.5t57 60t58.5 86.5t50.5 105q-15 43 -76 42q-80 0 -129.5 -60t-49.5 -181z" />
<glyph unicode="&#xab;" horiz-adv-x="936" d="M59 346q3 14 15 26q116 105 251 209.5t259 189.5q20 6 28.5 -15.5t-20.5 -39.5q-43 -28 -99.5 -71t-113.5 -87.5t-111 -89t-84 -75.5q65 -53 135.5 -126t114.5 -135q6 -15 0 -38.5t-19 -45t-29.5 -33.5t-35.5 -6q-59 89 -138.5 173.5t-143.5 137.5q-12 12 -9 26zM390 346 q3 14 15 26q117 105 252 209.5t258 189.5q21 6 29 -15.5t-20 -39.5q-44 -28 -100 -71t-113 -87.5t-110 -89t-85 -75.5q64 -53 135 -126t114 -135q6 -15 0 -38.5t-18.5 -45t-29.5 -33.5t-35 -6q-58 89 -138 173.5t-145 137.5q-12 12 -9 26z" />
<glyph unicode="&#xac;" horiz-adv-x="813" d="M50 688q6 16 36 22q49 2 135.5 4t178.5 3t177.5 3t138.5 2q24 -6 14 -42q-8 -18 -22 -53t-29.5 -74.5t-32 -84t-28.5 -81.5q-9 -15 -32.5 -22.5t-46.5 -7.5t-42 7.5t-19 22.5q10 27 25.5 69t31 85t29.5 79.5t20 55.5h-128t-145.5 -1t-141 -3.5t-107.5 -5.5q-18 6 -12 22z " />
<glyph unicode="&#xad;" horiz-adv-x="751" d="M118.5 456q19.5 42 59.5 54q41 3 104.5 9t135 10.5t139 7.5t119.5 3q12 -6 12 -22.5t-12.5 -37t-32 -38.5t-41.5 -24q-56 0 -122 -2t-132 -3.5t-127.5 -3t-100.5 -1.5q-21 6 -1.5 48z" />
<glyph unicode="&#xae;" horiz-adv-x="1047" d="M184 680q0 82 35.5 161.5t100 142.5t150 100.5t187.5 37.5q65 0 122 -22t99.5 -60t67 -92t24.5 -118q0 -95 -36.5 -178.5t-101 -146.5t-152.5 -98t-188 -35q-150 0 -229 84t-79 224zM252 700q0 -126 70 -201t226 -75q70 0 133 29.5t110 78t75 116.5t28 144 q0 132 -76.5 206t-205.5 74q-82 0 -150.5 -30.5t-114 -81.5t-70.5 -118.5t-25 -141.5zM350 531q24 95 60 191t79 169q9 15 33 24q-30 -6 -59 -12t-58 -21q-12 0 -3 15t26 24q85 41 190 41q68 0 103 -31t35 -77q0 -108 -158 -136q18 -79 37 -112.5t53 -33.5q24 0 40 14 q6 4 11 -2t2 -18q-15 -16 -41 -30t-55 -14q-53 0 -77.5 48t-39.5 146q0 14 3 18q9 6 25 12.5t24 9.5q6 6 12 3t17 -3q27 -6 48 12q24 15 25 56q0 91 -116 91q-16 -27 -34.5 -72t-37 -94t-33.5 -101t-25 -98q-8 -12 -30 -20t-46 -8q-9 0 -10 9z" />
<glyph unicode="&#xb0;" horiz-adv-x="343" d="M246 1017q0 71 54 128t136 57q53 0 88.5 -34t35.5 -90q0 -79 -54 -134.5t-137 -55.5q-61 0 -92 35t-31 94zM302 1029q0 -41 19 -65t69 -24q44 0 77.5 35.5t33.5 82.5q0 88 -83 88q-52 0 -84 -35t-32 -82z" />
<glyph unicode="&#xb1;" horiz-adv-x="924" d="M33 38q17 32 93 42q46 0 114 1t143 1t155 -1t154 -5q12 0 12 -10t-9 -24.5t-25 -25t-34 -10.5q-141 0 -297.5 -1.5t-304.5 -4.5q-18 6 -1 38zM171 440q17 32 93 43q38 3 86.5 3h103.5q24 64 47.5 129t48.5 132q4 12 20 22.5t35 15t34 1.5t15 -15q-30 -79 -55 -150 t-49 -135q71 -3 143 -3.5t139 -4.5q12 0 11 -10t-10 -22t-25 -23.5t-34 -14.5h-252q-40 -111 -76 -220q-6 -18 -23.5 -31t-34 -17.5t-29.5 -1.5t-13 15q22 71 40.5 132t41.5 123q-65 -3 -129.5 -3t-126.5 -3q-18 6 -1 38z" />
<glyph unicode="&#xb2;" horiz-adv-x="684" d="M141 460q-6 12 6 26q77 50 142 89.5t114 79t76.5 79.5t27.5 90q0 37 -18.5 59.5t-70.5 22.5q-49 0 -81.5 -37t-40.5 -80q-6 -9 -16 -4.5t-10 17.5q12 59 66 109.5t134 50.5q64 0 101.5 -29.5t37.5 -82.5q0 -46 -20.5 -83t-58.5 -70.5t-93.5 -69t-128.5 -77.5 q73 -24 164 -25q62 0 84 35q6 6 14 1t2 -18q-24 -43 -59 -67t-85 -24q-47 0 -80.5 9t-61.5 17t-50 9.5t-42 -11.5l-38 -24q-9 -4 -15 8z" />
<glyph unicode="&#xb3;" horiz-adv-x="613" d="M144 566q6 14 20 2q8 -26 45 -51t101 -25q59 0 89.5 34t30.5 92q0 44 -23 68t-63 24q-41 0 -68 -18q-9 -4 -12 8t3 18q99 35 133 70.5t34 71.5q0 26 -17.5 45t-41.5 19q-37 0 -65 -21t-40 -49q-6 -6 -15 0t-6 16q18 34 57.5 63t101.5 29t92.5 -23.5t30.5 -56.5 q0 -44 -42.5 -77.5t-104.5 -57.5q58 15 104 -10t46 -80q0 -43 -24 -80t-64.5 -64t-91 -43t-105.5 -16q-61 0 -89 29.5t-16 82.5z" />
<glyph unicode="&#xb4;" horiz-adv-x="481" d="M62 976q0 12 8 23q44 27 100 76t100 101q21 12 66 -4.5t88 -34.5q10 -3 11 -13t-5 -16q-30 -20 -75 -40.5t-94 -38.5t-98 -35.5t-89 -29.5q-12 0 -12 12z" />
<glyph unicode="&#xb5;" horiz-adv-x="1093" d="M-58 -436q26 138 71 287t102 298t123 290t137 261q12 12 33.5 28t45.5 28t47.5 19.5t38.5 10.5q15 0 23.5 -9t2.5 -18q-89 -129 -147.5 -256.5t-58.5 -265.5q0 -91 54 -93q40 0 99 49.5t123 130.5t129 187.5t120 218.5q3 10 21 21t40 18.5t43.5 12t36.5 4.5q44 0 32 -24 q-47 -80 -79.5 -151t-54 -138.5t-32 -136.5t-10.5 -152q0 -98 52 -98q46 0 104 67q9 6 18.5 0t3.5 -18q-43 -61 -106 -98t-116 -37q-122 0 -122 147q0 153 61 329q-59 -114 -123 -201t-124 -149t-112 -94t-86 -32q-44 0 -59 60t19 189q-58 -141 -104.5 -313.5t-52.5 -319.5 q0 -12 -18 -26t-44.5 -26t-54 -21t-48.5 -9q-30 0 -28 30z" />
<glyph unicode="&#xb6;" horiz-adv-x="1305" d="M-285 -516q0 99 57.5 156.5t139.5 83.5q14 0 19 -16t-5 -24q-24 -18 -36.5 -47.5t-12.5 -78.5q0 -108 57 -176t186 -68q92 0 170.5 95.5t167.5 329.5q24 67 47 136t49 140q-118 30 -193.5 114.5t-75.5 208.5q0 140 81.5 259t229.5 203.5t353.5 132t454.5 47.5 q15 -6 9 -29.5t-30 -29.5q-27 0 -55.5 -1.5t-52.5 -1.5q-37 -138 -78.5 -286.5t-86 -295t-90.5 -278.5t-93 -236q-129 -296 -353 -432.5t-530 -136.5q-160 0 -244.5 61.5t-84.5 169.5zM290 -666q146 34 262 140t207 318q43 98 89 228t90 278t89 303t81 302q-52 -6 -95 -15 t-81 -18q-38 -138 -79 -295t-85 -309t-89.5 -291t-88.5 -242q-65 -156 -134 -252t-166 -147z" />
<glyph unicode="&#xb7;" horiz-adv-x="367" d="M92 434q0 18 12.5 42.5t33.5 48t48.5 38.5t56.5 15q18 0 33.5 -14t15.5 -36q0 -24 -12.5 -55t-33.5 -55.5t-46.5 -41t-46.5 -16.5q-27 0 -44 15t-17 59z" />
<glyph unicode="&#xb8;" horiz-adv-x="352" d="M63 -367.5q-1 10.5 5 21.5q79 37 96.5 79t-5.5 103q-15 53 5 99.5t100 94.5q15 3 21.5 -4.5t4.5 -13.5q-35 -24 -48.5 -59t-1.5 -67q27 -68 -15.5 -144t-150.5 -120q-10 0 -11 10.5z" />
<glyph unicode="&#xb9;" horiz-adv-x="558" d="M153 470q41 108 92 216.5t93 201.5q-41 -12 -72.5 -16.5t-63.5 -11.5q-6 2 -6 13.5t10 14.5q55 9 122.5 33.5t129.5 58.5q8 2 16.5 -2t3.5 -14q-70 -108 -126 -243t-91 -243q-9 -12 -32 -21t-47 -9q-28 0 -29 22z" />
<glyph unicode="&#xba;" horiz-adv-x="598" d="M153 660q0 56 20.5 111t55.5 96.5t81 68t98 26.5t84.5 -43t32.5 -95q0 -56 -23.5 -110t-60 -95t-81 -67.5t-90.5 -26.5q-52 0 -84.5 35.5t-32.5 99.5zM249 718q0 -61 22.5 -93.5t56.5 -32.5q44 0 75 45t31 125q0 62 -23.5 97t-60.5 35q-102 0 -101 -176z" />
<glyph unicode="&#xbb;" horiz-adv-x="897" d="M-35.5 23.5q-8.5 20.5 17.5 40.5q38 35 86.5 77.5t102.5 87t105.5 86.5t95.5 72q-34 24 -69.5 63t-71 80.5t-64.5 84t-50 79.5q-6 16 9 34.5t35.5 32t43.5 18t38 -7.5q47 -89 116 -173.5t136 -139.5q12 -10 9 -25t-15 -25q-126 -88 -261 -196t-237 -203 q-18 -6 -26.5 14.5zM297 23.5q-7 20.5 17 40.5q37 35 85.5 77.5t102.5 87t106 86.5t96 72q-35 24 -70.5 63t-70.5 80.5t-64 84t-51 79.5q-6 16 9 34.5t35.5 32t44 18t37.5 -7.5q47 -89 116 -173.5t136 -139.5q12 -10 9 -25t-15 -25q-126 -88 -261 -196t-237 -203 q-18 -6 -25 14.5z" />
<glyph unicode="&#xbc;" horiz-adv-x="1348" d="M147 -92q132 160 244.5 293t222.5 264t232.5 274t278.5 319q21 14 50 3t17 -32q-134 -150 -259 -291.5t-245 -282.5t-237 -281t-233 -288q-28 -24 -55.5 -13.5t-15.5 35.5zM166 322q50 136 120.5 285t121.5 266q-50 -12 -91 -21.5t-80 -15.5q-6 2 -9 13t12 18 q70 12 159.5 39.5t160.5 67.5q12 6 21 0t5 -18q-46 -71 -87 -151.5t-76.5 -161.5t-65 -162.5t-49.5 -148.5q-10 -12 -45 -23t-69 -11q-35 0 -28 24zM688 206q56 55 128 118t151.5 124.5t163 118.5t159.5 99q12 3 18 -4.5t0 -13.5q-24 -34 -46 -72.5t-46 -83.5 q-26 -56 -57 -123t-63 -138q56 0 85 15t45 39q6 6 13 0t5 -15q-24 -44 -67 -72t-105 -34q-14 -35 -25.5 -67.5t-23.5 -66.5q-6 -12 -45.5 -21t-62.5 -9q-15 0 -15 15q15 41 27.5 79t28.5 76q-86 12 -150.5 25t-87.5 -1l-8 -10q-10 -6 -19 2t-3 20zM798 264q34 -9 83 -16.5 t101 -13.5q65 159 143 288q-173 -117 -327 -258z" />
<glyph unicode="&#xbd;" horiz-adv-x="1378" d="M147 -92q132 160 243 293t222.5 264t233.5 274t279 319q21 14 50 3t17 -32q-134 -150 -259 -291.5t-245 -282.5t-237 -281t-233 -288q-28 -24 -55.5 -13.5t-15.5 35.5zM166 322q50 136 119 285t123 266q-50 -12 -92.5 -21.5t-78.5 -15.5q-9 2 -10.5 13t13.5 18 q70 12 159.5 39.5t160.5 67.5q12 6 21 0t5 -18q-46 -71 -87 -151.5t-76.5 -161.5t-65 -162.5t-49.5 -148.5q-10 -12 -45 -23t-69 -11q-35 0 -28 24zM662.5 13.5q-5.5 16.5 6.5 30.5q99 58 191 110t164 103t115 102.5t43 112.5q0 50 -25.5 79t-86.5 29q-68 0 -107 -41 t-54 -111q-6 -10 -21 -4t-15 22q15 76 85.5 139t187.5 63q80 0 126 -44t46 -103q0 -53 -29 -97t-83 -86t-129 -83t-171 -91q44 -15 92.5 -25.5t119.5 -10.5q43 0 66.5 15t41.5 43q8 10 18 0t7 -25q-43 -61 -96 -101t-129 -40q-58 0 -101 10.5t-78 22t-61.5 14.5t-55.5 -13 q-18 -12 -28 -18.5t-20 -15.5q-14 -3 -19.5 13.5z" />
<glyph unicode="&#xbe;" horiz-adv-x="1522" d="M156 440q3 6 9.5 9t12.5 -3q16 -41 60 -71.5t119 -30.5q79 0 122 49t43 120q0 53 -25 85t-79 32q-30 0 -52 -7.5t-40 -20.5q-12 -4 -15 12t3 22q116 44 168 85t52 99q0 77 -80 77q-52 0 -84 -24.5t-56 -66.5q-10 -10 -21 -1t-3 25q24 43 76 79.5t129 36.5q79 0 116 -30.5 t37 -73.5q0 -53 -55.5 -95.5t-132.5 -77.5q86 21 135.5 -13.5t49.5 -99.5q0 -52 -29.5 -98.5t-78 -82t-113 -56.5t-134.5 -21q-65 0 -102.5 35.5t-31.5 106.5zM322 -92q132 160 245 293t223 264t231.5 274t277.5 319q21 14 51 3t16 -32q-134 -150 -259 -291.5t-244 -282.5 t-236 -281t-234 -288q-27 -24 -55 -13.5t-16 35.5zM862 206q56 55 129 118t152 124.5t162.5 118.5t160.5 99q12 3 18 -4.5t0 -13.5q-24 -34 -46 -72.5t-46 -83.5q-27 -56 -58.5 -123t-61.5 -138q56 0 85 15t44 39q6 6 13.5 0t4.5 -15q-24 -44 -67.5 -72t-105.5 -34 q-14 -35 -25 -67.5t-23 -66.5q-6 -12 -46 -21t-62 -9q-14 0 -14 15q14 41 26 79t29 76q-85 12 -150.5 25t-86.5 -1l-9 -10q-9 -6 -19 2t-4 20zM974 264q34 -9 83 -16.5t101 -13.5q64 159 141 288q-173 -117 -325 -258z" />
<glyph unicode="&#xbf;" horiz-adv-x="892" d="M-178 -534q0 120 45 202.5t114 142.5t153 102.5t164 83.5t146 88t99 115q24 52 6 90t-71 44q-20 4 -6 19.5t42.5 33.5t63 30.5t55.5 10.5q27 -6 46 -31t22 -60t-12 -77t-56 -82q-83 -88 -194 -150t-209 -127t-167 -147t-69 -212q0 -108 60 -177t171 -69q114 0 183.5 63 t92.5 152q15 15 34 0t15 -30q-20 -59 -62 -111t-96 -92t-120 -65t-134 -25q-70 0 -129 23.5t-100 62t-64 89.5t-23 103zM682 615q0 24 12 53.5t34 55.5t45 42.5t47 16.5q28 0 43.5 -15t15.5 -58q0 -18 -12.5 -43t-32.5 -48t-47.5 -38t-56.5 -15q-18 0 -33 13t-15 36z" />
<glyph unicode="&#xc0;" horiz-adv-x="3117" d="M155.5 261q-32.5 114 1 249t135.5 261q10 6 22 -1.5t8 -28.5q-70 -77 -77.5 -177t43 -187t158.5 -147t270 -60q260 0 489 107t433 291q70 62 141 132.5t147 147.5q-108 -6 -203 -14t-178 -20q-15 4 -6 16t28 26t45 24.5t50 13.5q40 3 124 4.5t192 4.5q173 179 383 386 t499 435q-205 67 -424.5 111.5t-423.5 44.5q-232 0 -379 -128t-179 -400q-6 -16 -17.5 -13t-14.5 19q38 301 225 460.5t485 159.5q126 0 264.5 -17t272 -42.5t255 -58.5t212.5 -63q10 -6 10 -16.5t-18 -30.5q-102 -110 -182 -253t-135 -311.5t-86 -356t-31 -383.5 q0 -148 35 -229.5t125 -81.5q124 0 233 173q9 6 19 0t6 -18q-79 -130 -176.5 -210t-179.5 -80q-124 0 -187 95t-63 271q0 246 56 501q-144 0 -284 -3.5t-272 -9.5q-102 -108 -195 -203t-183 -175q-246 -226 -506 -351t-568 -125q-167 0 -266.5 73.5t-132 187.5zM2055 903 q147 3 290 3h226q49 220 138.5 429.5t218.5 384.5q-270 -217 -482 -423.5t-391 -393.5zM2651 2188.5q-1 7.5 7 13.5q30 24 73 37t49 7q52 -44 125 -94t155 -97q6 -6 -1.5 -16.5t-24.5 -10.5q-37 9 -88.5 27t-103.5 39.5t-101.5 43.5t-82.5 40q-6 3 -7 10.5z" />
<glyph unicode="&#xc1;" horiz-adv-x="3117" d="M155.5 261q-32.5 114 1 249t135.5 261q10 6 22 -1.5t8 -28.5q-70 -77 -77.5 -177t43 -187t158.5 -147t270 -60q260 0 489 107t433 291q70 62 141 132.5t147 147.5q-108 -6 -203 -14t-178 -20q-15 4 -6 16t28 26t45 24.5t50 13.5q40 3 124 4.5t192 4.5q173 179 383 386 t499 435q-205 67 -424.5 111.5t-423.5 44.5q-232 0 -379 -128t-179 -400q-6 -16 -17.5 -13t-14.5 19q38 301 225 460.5t485 159.5q126 0 264.5 -17t272 -42.5t255 -58.5t212.5 -63q10 -6 10 -16.5t-18 -30.5q-102 -110 -182 -253t-135 -311.5t-86 -356t-31 -383.5 q0 -148 35 -229.5t125 -81.5q124 0 233 173q9 6 19 0t6 -18q-79 -130 -176.5 -210t-179.5 -80q-124 0 -187 95t-63 271q0 246 56 501q-144 0 -284 -3.5t-272 -9.5q-102 -108 -195 -203t-183 -175q-246 -226 -506 -351t-568 -125q-167 0 -266.5 73.5t-132 187.5zM2055 903 q147 3 290 3h226q49 220 138.5 429.5t218.5 384.5q-270 -217 -482 -423.5t-391 -393.5zM2758 2034q0 12 10 21q61 37 134.5 87.5t131.5 111.5q16 10 58 -4t68 -26q6 -6 10 -14t-6 -14q-30 -21 -78 -45.5t-101.5 -48t-110.5 -44.5t-104 -36q-12 0 -12 12z" />
<glyph unicode="&#xc2;" horiz-adv-x="3117" d="M155.5 261q-32.5 114 1 249t135.5 261q10 6 22 -1.5t8 -28.5q-70 -77 -77.5 -177t43 -187t158.5 -147t270 -60q260 0 489 107t433 291q70 62 141 132.5t147 147.5q-108 -6 -203 -14t-178 -20q-15 4 -6 16t28 26t45 24.5t50 13.5q40 3 124 4.5t192 4.5q173 179 383 386 t499 435q-205 67 -424.5 111.5t-423.5 44.5q-232 0 -379 -128t-179 -400q-6 -16 -17.5 -13t-14.5 19q38 301 225 460.5t485 159.5q126 0 264.5 -17t272 -42.5t255 -58.5t212.5 -63q10 -6 10 -16.5t-18 -30.5q-102 -110 -182 -253t-135 -311.5t-86 -356t-31 -383.5 q0 -148 35 -229.5t125 -81.5q124 0 233 173q9 6 19 0t6 -18q-79 -130 -176.5 -210t-179.5 -80q-124 0 -187 95t-63 271q0 246 56 501q-144 0 -284 -3.5t-272 -9.5q-102 -108 -195 -203t-183 -175q-246 -226 -506 -351t-568 -125q-167 0 -266.5 73.5t-132 187.5zM2055 903 q147 3 290 3h226q49 220 138.5 429.5t218.5 384.5q-270 -217 -482 -423.5t-391 -393.5zM2726 2086q52 30 133 89t131 117q14 15 36 -3q40 -53 103 -107t125 -80q14 -16 -15 -31.5t-65 -9.5q-58 24 -106 60t-98 75q-18 -15 -49 -33t-63 -38.5t-64 -39t-54 -27.5q-30 0 -14 28 z" />
<glyph unicode="&#xc3;" horiz-adv-x="3117" d="M155.5 261q-32.5 114 1 249t135.5 261q10 6 22 -1.5t8 -28.5q-70 -77 -77.5 -177t43 -187t158.5 -147t270 -60q260 0 489 107t433 291q70 62 141 132.5t147 147.5q-108 -6 -203 -14t-178 -20q-15 4 -6 16t28 26t45 24.5t50 13.5q40 3 124 4.5t192 4.5q173 179 383 386 t499 435q-205 67 -424.5 111.5t-423.5 44.5q-232 0 -379 -128t-179 -400q-6 -16 -17.5 -13t-14.5 19q38 301 225 460.5t485 159.5q126 0 264.5 -17t272 -42.5t255 -58.5t212.5 -63q10 -6 10 -16.5t-18 -30.5q-102 -110 -182 -253t-135 -311.5t-86 -356t-31 -383.5 q0 -148 35 -229.5t125 -81.5q124 0 233 173q9 6 19 0t6 -18q-79 -130 -176.5 -210t-179.5 -80q-124 0 -187 95t-63 271q0 246 56 501q-144 0 -284 -3.5t-272 -9.5q-102 -108 -195 -203t-183 -175q-246 -226 -506 -351t-568 -125q-167 0 -266.5 73.5t-132 187.5zM2055 903 q147 3 290 3h226q49 220 138.5 429.5t218.5 384.5q-270 -217 -482 -423.5t-391 -393.5zM2673 2067q35 49 91 96t108 47q38 0 66.5 -17.5t61 -38t71.5 -36.5t87 -16q55 0 90.5 35t66.5 99q6 6 16.5 2t7.5 -14q-37 -82 -89 -131.5t-144 -49.5q-43 0 -78.5 15t-67.5 35.5 t-63 36t-62 15.5q-41 0 -74 -26.5t-67 -69.5q-12 -6 -19.5 1.5t-1.5 16.5z" />
<glyph unicode="&#xc4;" horiz-adv-x="3117" d="M155.5 261q-32.5 114 1 249t135.5 261q10 6 22 -1.5t8 -28.5q-70 -77 -77.5 -177t43 -187t158.5 -147t270 -60q260 0 489 107t433 291q70 62 141 132.5t147 147.5q-108 -6 -203 -14t-178 -20q-15 4 -6 16t28 26t45 24.5t50 13.5q40 3 124 4.5t192 4.5q173 179 383 386 t499 435q-205 67 -424.5 111.5t-423.5 44.5q-232 0 -379 -128t-179 -400q-6 -16 -17.5 -13t-14.5 19q38 301 225 460.5t485 159.5q126 0 264.5 -17t272 -42.5t255 -58.5t212.5 -63q10 -6 10 -16.5t-18 -30.5q-102 -110 -182 -253t-135 -311.5t-86 -356t-31 -383.5 q0 -148 35 -229.5t125 -81.5q124 0 233 173q9 6 19 0t6 -18q-79 -130 -176.5 -210t-179.5 -80q-124 0 -187 95t-63 271q0 246 56 501q-144 0 -284 -3.5t-272 -9.5q-102 -108 -195 -203t-183 -175q-246 -226 -506 -351t-568 -125q-167 0 -266.5 73.5t-132 187.5zM2055 903 q147 3 290 3h226q49 220 138.5 429.5t218.5 384.5q-270 -217 -482 -423.5t-391 -393.5zM2844 2102q0 30 31 72t80 42q27 0 29 -41q0 -43 -31 -84.5t-75 -41.5q-34 0 -34 53zM3078 2102q0 30 31 72t77 42q27 0 27 -41q0 -43 -30 -84.5t-67 -41.5q-38 0 -38 53z" />
<glyph unicode="&#xc5;" horiz-adv-x="3117" d="M155.5 261q-32.5 114 1 249t135.5 261q10 6 22 -1.5t8 -28.5q-70 -77 -77.5 -177t43 -187t158.5 -147t270 -60q260 0 489 107t433 291q70 62 141 132.5t147 147.5q-108 -6 -203 -14t-178 -20q-15 4 -6 16t28 26t45 24.5t50 13.5q40 3 124 4.5t192 4.5q173 179 383 386 t499 435q-205 67 -424.5 111.5t-423.5 44.5q-232 0 -379 -128t-179 -400q-6 -16 -17.5 -13t-14.5 19q38 301 225 460.5t485 159.5q126 0 264.5 -17t272 -42.5t255 -58.5t212.5 -63q10 -6 10 -16.5t-18 -30.5q-102 -110 -182 -253t-135 -311.5t-86 -356t-31 -383.5 q0 -148 35 -229.5t125 -81.5q124 0 233 173q9 6 19 0t6 -18q-79 -130 -176.5 -210t-179.5 -80q-124 0 -187 95t-63 271q0 246 56 501q-144 0 -284 -3.5t-272 -9.5q-102 -108 -195 -203t-183 -175q-246 -226 -506 -351t-568 -125q-167 0 -266.5 73.5t-132 187.5zM2055 903 q147 3 290 3h226q49 220 138.5 429.5t218.5 384.5q-270 -217 -482 -423.5t-391 -393.5zM2888 2169q0 71 54 126t133 55q53 0 77.5 -30.5t24.5 -77.5q0 -70 -52.5 -127t-134.5 -57q-50 0 -76 32t-26 79zM2937 2193q0 -43 21.5 -70t69.5 -27q47 0 73.5 33.5t26.5 88.5 q-2 95 -90 95q-50 0 -75.5 -32.5t-25.5 -87.5z" />
<glyph unicode="&#xc6;" horiz-adv-x="4066" d="M156.5 261q-33.5 114 0 249t135.5 261q12 6 24 -1.5t10 -28.5q-71 -77 -78.5 -177t42.5 -187t158 -147t270 -60q262 0 490.5 107t432.5 291q71 62 140 131t145 149q-111 -6 -207.5 -14t-170.5 -20q-15 4 -6 16t27.5 26t45 24.5t50.5 13.5q35 3 120 4.5t193 4.5 q176 179 386 386t500 435q-206 67 -426 111.5t-424 44.5q-230 0 -377 -128t-181 -400q-6 -16 -17 -13t-14 19q35 301 224 460.5t485 159.5q126 0 262 -17t266.5 -42.5t248 -58t211.5 -63.5q8 -6 14 -13.5t-6 -33.5q-104 -193 -157.5 -373.5t-78.5 -400.5q104 100 245 169 t314 99q-117 49 -187.5 132.5t-70.5 189.5q0 82 41.5 158t121.5 131.5t197 89t267 33.5q82 0 156 -15.5t131 -39.5t89 -56.5t32 -63.5q0 -24 -12 -60.5t-28 -74.5t-34 -70t-26 -44q-6 -6 -17.5 0t-5.5 20q15 34 23 73t-14 83q-34 76 -133 130t-235 54q-184 0 -276 -85 t-92 -223q0 -108 72 -183t247 -127q9 -6 0 -22.5t-28 -37t-40.5 -35.5t-33.5 -19q-341 15 -527 -145.5t-186 -476.5q0 -108 32.5 -200.5t92.5 -160t144.5 -105.5t191.5 -38q252 0 411.5 117t230.5 377q9 16 20 10t15 -26q-41 -172 -89.5 -285.5t-92.5 -131.5 q-129 -59 -261 -88t-313 -29q-286 0 -436.5 127.5t-150.5 358.5q0 88 4.5 185t19.5 196q-163 0 -342.5 -5.5t-354.5 -11.5q-102 -108 -194 -201t-182 -173q-246 -226 -504.5 -351t-569.5 -125q-166 0 -266 73.5t-133.5 187.5zM2058 903q88 0 184 1.5t182 1.5h160h122 q30 220 88 434t137 380q-270 -217 -482.5 -424.5t-390.5 -392.5z" />
<glyph unicode="&#xc7;" horiz-adv-x="1774" d="M212 756q0 261 95 485.5t264.5 387t404 256t516.5 93.5q112 0 204 -10t159.5 -32t106 -51t38.5 -67q0 -24 -12 -65t-29.5 -86t-38.5 -86.5t-40 -65.5q-10 -6 -23 1.5t-7 19.5q64 114 26 176q-40 64 -170 124t-320 60q-240 0 -420 -74t-299 -211t-178 -330t-59 -433 q0 -173 46 -317t134 -249.5t217 -165.5t295 -60q220 0 368 135t210 365q8 12 23 9t15 -17q-12 -65 -36.5 -142.5t-52 -147.5t-53.5 -120t-45 -58q-89 -35 -203 -54.5t-240 -25.5q-20 -18 -25 -46t5 -53q26 -71 -16.5 -147t-150.5 -120q-9 3 -10.5 14.5t4.5 17.5 q79 37 96.5 79.5t-3.5 104.5q-12 40 -3 78t53 72q-425 6 -635.5 204t-210.5 552z" />
<glyph unicode="&#xc8;" horiz-adv-x="1575" d="M184 486q0 147 59 271.5t161.5 222.5t243.5 166t310 98q-116 49 -187 132.5t-71 189.5q0 82 41.5 158t122 131.5t196.5 89t268 33.5q82 0 155.5 -15.5t130.5 -39.5t89.5 -56.5t32.5 -63.5q0 -24 -11 -60.5t-28 -74.5t-33.5 -70t-25.5 -44q-9 -6 -18.5 0t-7.5 20 q18 34 25 73t-13 83q-37 76 -136 130t-234 54q-184 0 -276.5 -85t-92.5 -223q0 -108 73.5 -183t249.5 -127q8 -6 -2 -22.5t-29 -37t-41 -35.5t-34 -19q-340 15 -526 -145.5t-186 -476.5q0 -108 32 -200.5t92 -160t145 -105.5t191 -38q252 0 412 117t230 377q10 16 21 10 t14 -26q-37 -172 -87.5 -285.5t-93.5 -131.5q-130 -59 -262 -88t-310 -29q-290 0 -440 127.5t-150 358.5zM1032 2188.5q0 7.5 6 13.5q30 24 73.5 37t49.5 7q53 -44 125.5 -94t155.5 -97q6 -6 -2.5 -16.5t-23.5 -10.5q-38 9 -89.5 27t-104 39.5t-101.5 43.5t-83 40 q-6 3 -6 10.5z" />
<glyph unicode="&#xc9;" horiz-adv-x="1575" d="M184 486q0 147 59 271.5t161.5 222.5t243.5 166t310 98q-116 49 -187 132.5t-71 189.5q0 82 41.5 158t122 131.5t196.5 89t268 33.5q82 0 155.5 -15.5t130.5 -39.5t89.5 -56.5t32.5 -63.5q0 -24 -11 -60.5t-28 -74.5t-33.5 -70t-25.5 -44q-9 -6 -18.5 0t-7.5 20 q18 34 25 73t-13 83q-37 76 -136 130t-234 54q-184 0 -276.5 -85t-92.5 -223q0 -108 73.5 -183t249.5 -127q8 -6 -2 -22.5t-29 -37t-41 -35.5t-34 -19q-340 15 -526 -145.5t-186 -476.5q0 -108 32 -200.5t92 -160t145 -105.5t191 -38q252 0 412 117t230 377q10 16 21 10 t14 -26q-37 -172 -87.5 -285.5t-93.5 -131.5q-130 -59 -262 -88t-310 -29q-290 0 -440 127.5t-150 358.5zM1051 2034q-1 12 9 21q62 37 135.5 87.5t132.5 111.5q14 10 55.5 -4t70.5 -26q6 -6 9 -14t-7 -14q-30 -21 -78 -45.5t-102 -48t-111 -44.5t-101 -36q-12 0 -13 12z " />
<glyph unicode="&#xca;" horiz-adv-x="1575" d="M184 486q0 147 59 271.5t161.5 222.5t243.5 166t310 98q-116 49 -187 132.5t-71 189.5q0 82 41.5 158t122 131.5t196.5 89t268 33.5q82 0 155.5 -15.5t130.5 -39.5t89.5 -56.5t32.5 -63.5q0 -24 -11 -60.5t-28 -74.5t-33.5 -70t-25.5 -44q-9 -6 -18.5 0t-7.5 20 q18 34 25 73t-13 83q-37 76 -136 130t-234 54q-184 0 -276.5 -85t-92.5 -223q0 -108 73.5 -183t249.5 -127q8 -6 -2 -22.5t-29 -37t-41 -35.5t-34 -19q-340 15 -526 -145.5t-186 -476.5q0 -108 32 -200.5t92 -160t145 -105.5t191 -38q252 0 412 117t230 377q10 16 21 10 t14 -26q-37 -172 -87.5 -285.5t-93.5 -131.5q-130 -59 -262 -88t-310 -29q-290 0 -440 127.5t-150 358.5zM938 2086q52 30 133 89t131 117q14 15 36 -3q40 -53 103 -107t125 -80q14 -16 -15 -31.5t-65 -9.5q-58 24 -106 60t-98 75q-18 -15 -49 -33t-63 -38.5t-64 -39 t-54 -27.5q-30 0 -14 28z" />
<glyph unicode="&#xcb;" horiz-adv-x="1575" d="M184 486q0 147 59 271.5t161.5 222.5t243.5 166t310 98q-116 49 -187 132.5t-71 189.5q0 82 41.5 158t122 131.5t196.5 89t268 33.5q82 0 155.5 -15.5t130.5 -39.5t89.5 -56.5t32.5 -63.5q0 -24 -11 -60.5t-28 -74.5t-33.5 -70t-25.5 -44q-9 -6 -18.5 0t-7.5 20 q18 34 25 73t-13 83q-37 76 -136 130t-234 54q-184 0 -276.5 -85t-92.5 -223q0 -108 73.5 -183t249.5 -127q8 -6 -2 -22.5t-29 -37t-41 -35.5t-34 -19q-340 15 -526 -145.5t-186 -476.5q0 -108 32 -200.5t92 -160t145 -105.5t191 -38q252 0 412 117t230 377q10 16 21 10 t14 -26q-37 -172 -87.5 -285.5t-93.5 -131.5q-130 -59 -262 -88t-310 -29q-290 0 -440 127.5t-150 358.5zM1076 2102q0 30 30.5 72t79.5 42q28 0 28 -41q0 -43 -31 -84.5t-75 -41.5q-34 0 -32 53zM1308 2102q0 30 31 72t77 42q27 0 28 -41q0 -43 -30.5 -84.5t-67.5 -41.5 q-38 0 -38 53z" />
<glyph unicode="&#xcc;" horiz-adv-x="1821" d="M153 285q0 108 86.5 204.5t270.5 143.5q15 -3 16.5 -12t-4.5 -17q-188 -61 -188 -232q0 -129 101.5 -206.5t282.5 -77.5q240 0 431 101t335 336q-156 9 -239.5 120t-83.5 287q0 190 101.5 377t270.5 337.5t391 243t462 92.5q12 -6 8 -23.5t-19 -37t-35.5 -38.5t-38.5 -27 q-67 -18 -117 -53.5t-91 -100t-78 -168t-77 -262.5q-108 -414 -310 -704q40 6 75 18t51 23q8 3 12 -5t-2 -18q-24 -14 -67.5 -30t-90.5 -22q-193 -261 -445 -397.5t-543 -136.5q-225 0 -345 79.5t-120 205.5zM1202 944q0 -185 79 -281.5t217 -106.5q144 246 250 648 q34 138 74 236.5t89 170.5t112 124.5t146 98.5q-211 -24 -390 -114t-308 -213.5t-199 -271t-70 -291.5zM1480 2188.5q0 7.5 6 13.5q30 24 74 37t50 7q52 -44 125 -94t155 -97q6 -6 -2 -16.5t-24 -10.5q-37 9 -88.5 27t-104.5 39.5t-101.5 43.5t-83.5 40q-6 3 -6 10.5z" />
<glyph unicode="&#xcd;" horiz-adv-x="1821" d="M153 285q0 108 86.5 204.5t270.5 143.5q15 -3 16.5 -12t-4.5 -17q-188 -61 -188 -232q0 -129 101.5 -206.5t282.5 -77.5q240 0 431 101t335 336q-156 9 -239.5 120t-83.5 287q0 190 101.5 377t270.5 337.5t391 243t462 92.5q12 -6 8 -23.5t-19 -37t-35.5 -38.5t-38.5 -27 q-67 -18 -117 -53.5t-91 -100t-78 -168t-77 -262.5q-108 -414 -310 -704q40 6 75 18t51 23q8 3 12 -5t-2 -18q-24 -14 -67.5 -30t-90.5 -22q-193 -261 -445 -397.5t-543 -136.5q-225 0 -345 79.5t-120 205.5zM1202 944q0 -185 79 -281.5t217 -106.5q144 246 250 648 q34 138 74 236.5t89 170.5t112 124.5t146 98.5q-211 -24 -390 -114t-308 -213.5t-199 -271t-70 -291.5zM1662 2034q0 12 9 21q61 37 135 87.5t132 111.5q15 10 57 -4t69 -26q6 -6 9 -14t-6 -14q-30 -21 -78 -45.5t-101.5 -48t-110.5 -44.5t-103 -36q-12 0 -12 12z" />
<glyph unicode="&#xce;" horiz-adv-x="1821" d="M153 285q0 108 86.5 204.5t270.5 143.5q15 -3 16.5 -12t-4.5 -17q-188 -61 -188 -232q0 -129 101.5 -206.5t282.5 -77.5q240 0 431 101t335 336q-156 9 -239.5 120t-83.5 287q0 190 101.5 377t270.5 337.5t391 243t462 92.5q12 -6 8 -23.5t-19 -37t-35.5 -38.5t-38.5 -27 q-67 -18 -117 -53.5t-91 -100t-78 -168t-77 -262.5q-108 -414 -310 -704q40 6 75 18t51 23q8 3 12 -5t-2 -18q-24 -14 -67.5 -30t-90.5 -22q-193 -261 -445 -397.5t-543 -136.5q-225 0 -345 79.5t-120 205.5zM1202 944q0 -185 79 -281.5t217 -106.5q144 246 250 648 q34 138 74 236.5t89 170.5t112 124.5t146 98.5q-211 -24 -390 -114t-308 -213.5t-199 -271t-70 -291.5zM1545 2086q53 30 134 89t130 117q15 15 37 -3q41 -53 103.5 -107t123.5 -80q15 -16 -13.5 -31.5t-65.5 -9.5q-59 24 -106.5 60t-96.5 75q-18 -15 -48.5 -33t-63 -38.5 t-65 -39t-54.5 -27.5q-30 0 -15 28z" />
<glyph unicode="&#xcf;" horiz-adv-x="1821" d="M153 285q0 108 86.5 204.5t270.5 143.5q15 -3 16.5 -12t-4.5 -17q-188 -61 -188 -232q0 -129 101.5 -206.5t282.5 -77.5q240 0 431 101t335 336q-156 9 -239.5 120t-83.5 287q0 190 101.5 377t270.5 337.5t391 243t462 92.5q12 -6 8 -23.5t-19 -37t-35.5 -38.5t-38.5 -27 q-67 -18 -117 -53.5t-91 -100t-78 -168t-77 -262.5q-108 -414 -310 -704q40 6 75 18t51 23q8 3 12 -5t-2 -18q-24 -14 -67.5 -30t-90.5 -22q-193 -261 -445 -397.5t-543 -136.5q-225 0 -345 79.5t-120 205.5zM1202 944q0 -185 79 -281.5t217 -106.5q144 246 250 648 q34 138 74 236.5t89 170.5t112 124.5t146 98.5q-211 -24 -390 -114t-308 -213.5t-199 -271t-70 -291.5zM1641 2102q0 30 30.5 72t78.5 42q28 0 29 -41q0 -43 -30.5 -84.5t-74.5 -41.5q-34 0 -33 53zM1874 2102q0 30 30.5 72t77.5 42q26 0 26 -41q0 -43 -30 -84.5t-67 -41.5 t-37 53z" />
<glyph unicode="&#xd0;" horiz-adv-x="2509" d="M92 86q0 40 30.5 87t83 88t126 67t163.5 26q117 0 217 -22t197 -56q83 94 158.5 240.5t154.5 359.5q-110 -6 -211.5 -17t-178.5 -27q-12 6 5 25t51 31q46 6 141.5 13.5t204.5 13.5q22 53 40.5 111t41.5 120q61 188 133 335t163 255q-122 61 -259 93.5t-283 32.5 q-136 0 -234 -40t-168 -106t-109.5 -155t-54.5 -189q-6 -8 -13.5 -4t-12.5 15q12 129 68 238t149.5 189t222.5 124t292 44q142 0 274 -30.5t254 -89.5q156 126 384 176q10 0 11 -11t-11 -17q-178 -48 -319 -180q150 -83 278.5 -198.5t219.5 -254.5t142 -289t51 -301 q0 -169 -64 -313t-181 -248.5t-281.5 -163t-363.5 -58.5q-118 0 -219 15t-192 38t-173 51t-166 55q-120 -83 -263 -121t-318 -38q-99 0 -140 23t-41 63zM220 156q0 -46 39 -73t119 -27q129 0 233.5 26t194.5 94q-102 34 -209.5 53.5t-236.5 19.5q-70 0 -105 -24.5t-35 -68.5 zM968 258q76 -27 159 -54.5t177 -51t206 -37t246 -13.5q293 0 431 156t138 430q0 144 -45.5 289t-129 277t-200 245t-261.5 196q-71 -95 -129 -216t-106 -271q-24 -80 -50.5 -151t-51.5 -139q108 6 204.5 6t163.5 -3q6 -6 5 -13.5t-19 -13.5q-80 0 -174.5 -3t-191.5 -9 q-83 -212 -173.5 -364t-198.5 -260z" />
<glyph unicode="&#xd1;" horiz-adv-x="3049" d="M132 458q0 122 60 241t174 192q15 6 21 -6t0 -29q-55 -55 -87.5 -124t-32.5 -146q0 -193 129 -310t387 -117q443 0 740.5 364.5t405.5 1094.5q-138 112 -282.5 172t-300.5 60q-148 0 -244.5 -68t-139.5 -147q-10 -9 -20 -7t-15 19q27 59 80 119t122 107t153 76t178 29 q128 0 253 -44t241 -128q6 18 18 41t26 42t25 26.5t14 -4.5q-3 -41 -6 -79t-9 -76q135 -108 255.5 -256t224.5 -323t186 -370t141 -396q24 169 73.5 351t120 355t155 330t178.5 275t192 187t198 69q98 0 142 -78.5t44 -234.5q-4 -18 -19 -21t-21 15q-6 49 -46 95t-132 46 q-99 0 -200.5 -76.5t-198 -205.5t-180.5 -303t-150 -367.5t-106.5 -397.5t-46.5 -394q0 -35 -6 -45.5t-21 -10.5t-22 13.5t-13 32.5q-138 508 -334 898t-446 619q-67 -378 -191.5 -669.5t-291.5 -489.5t-371 -301t-432 -103q-144 0 -252 35t-179 97t-106 145t-35 181z M2374 2067q35 49 91.5 96t108.5 47q38 0 67 -17.5t61 -38t70.5 -36.5t87.5 -16q56 0 91 35t65 99q6 6 17.5 2t8.5 -14q-38 -82 -90 -131.5t-144 -49.5q-44 0 -79 15t-67 35.5t-63 36t-61 15.5q-40 0 -74 -26.5t-68 -69.5q-12 -6 -20 1.5t-2 16.5z" />
<glyph unicode="&#xd2;" horiz-adv-x="1984" d="M214 712q0 234 100 461.5t268 407.5t387 288.5t462 108.5q167 0 294 -54t216.5 -150.5t135 -231.5t45.5 -296q0 -248 -99.5 -473t-265 -398t-379.5 -274t-440 -101q-176 0 -309.5 54t-226 151t-140.5 226t-48 281zM405 814q0 -158 46.5 -288t135.5 -222t219 -142.5 t300 -50.5q158 0 307.5 75t266.5 211.5t187.5 328.5t70.5 429q0 147 -38 276t-118 224t-200 151t-286 56q-206 0 -370 -81t-279.5 -223t-178.5 -332.5t-63 -411.5zM1108 2188.5q0 7.5 6 13.5q30 24 74 37t50 7q52 -44 125 -94t155 -97q6 -6 -1.5 -16.5t-24.5 -10.5 q-37 9 -88.5 27t-104.5 39.5t-101.5 43.5t-83.5 40q-6 3 -6 10.5z" />
<glyph unicode="&#xd3;" horiz-adv-x="1984" d="M214 712q0 234 100 461.5t268 407.5t387 288.5t462 108.5q167 0 294 -54t216.5 -150.5t135 -231.5t45.5 -296q0 -248 -99.5 -473t-265 -398t-379.5 -274t-440 -101q-176 0 -309.5 54t-226 151t-140.5 226t-48 281zM405 814q0 -158 46.5 -288t135.5 -222t219 -142.5 t300 -50.5q158 0 307.5 75t266.5 211.5t187.5 328.5t70.5 429q0 147 -38 276t-118 224t-200 151t-286 56q-206 0 -370 -81t-279.5 -223t-178.5 -332.5t-63 -411.5zM1161 2034q0 12 9 21q62 37 135 87.5t132 111.5q15 10 57 -4t69 -26q6 -6 9.5 -14t-6.5 -14 q-30 -21 -77 -45.5t-101 -48t-111 -44.5t-104 -36q-12 0 -12 12z" />
<glyph unicode="&#xd4;" horiz-adv-x="1984" d="M214 712q0 234 100 461.5t268 407.5t387 288.5t462 108.5q167 0 294 -54t216.5 -150.5t135 -231.5t45.5 -296q0 -248 -99.5 -473t-265 -398t-379.5 -274t-440 -101q-176 0 -309.5 54t-226 151t-140.5 226t-48 281zM405 814q0 -158 46.5 -288t135.5 -222t219 -142.5 t300 -50.5q158 0 307.5 75t266.5 211.5t187.5 328.5t70.5 429q0 147 -38 276t-118 224t-200 151t-286 56q-206 0 -370 -81t-279.5 -223t-178.5 -332.5t-63 -411.5zM1118 2086q52 30 134 89t131 117q15 15 36 -3q41 -53 104 -107t124 -80q15 -16 -14 -31.5t-67 -9.5 q-58 24 -105.5 60t-96.5 75q-18 -15 -49 -33t-63 -38.5t-64.5 -39t-53.5 -27.5q-30 0 -16 28z" />
<glyph unicode="&#xd5;" horiz-adv-x="1984" d="M214 712q0 234 100 461.5t268 407.5t387 288.5t462 108.5q167 0 294 -54t216.5 -150.5t135 -231.5t45.5 -296q0 -248 -99.5 -473t-265 -398t-379.5 -274t-440 -101q-176 0 -309.5 54t-226 151t-140.5 226t-48 281zM405 814q0 -158 46.5 -288t135.5 -222t219 -142.5 t300 -50.5q158 0 307.5 75t266.5 211.5t187.5 328.5t70.5 429q0 147 -38 276t-118 224t-200 151t-286 56q-206 0 -370 -81t-279.5 -223t-178.5 -332.5t-63 -411.5zM1060 2067q35 49 91.5 96t108.5 47q38 0 66 -17.5t60.5 -38t71 -36.5t87.5 -16q55 0 90.5 35t66.5 99 q6 6 17 2t7 -14q-37 -82 -88.5 -131.5t-145.5 -49.5q-43 0 -77.5 15t-66.5 35.5t-63 36t-63 15.5q-40 0 -74 -26.5t-66 -69.5q-12 -6 -20 1.5t-2 16.5z" />
<glyph unicode="&#xd6;" horiz-adv-x="1984" d="M214 712q0 234 100 461.5t268 407.5t387 288.5t462 108.5q167 0 294 -54t216.5 -150.5t135 -231.5t45.5 -296q0 -248 -99.5 -473t-265 -398t-379.5 -274t-440 -101q-176 0 -309.5 54t-226 151t-140.5 226t-48 281zM405 814q0 -158 46.5 -288t135.5 -222t219 -142.5 t300 -50.5q158 0 307.5 75t266.5 211.5t187.5 328.5t70.5 429q0 147 -38 276t-118 224t-200 151t-286 56q-206 0 -370 -81t-279.5 -223t-178.5 -332.5t-63 -411.5zM1214 2102q0 30 30.5 72t79.5 42q28 0 28 -41q0 -43 -31 -84.5t-75 -41.5q-34 0 -32 53zM1448 2102 q0 30 30.5 72t75.5 42q27 0 28 -41q0 -43 -30.5 -84.5t-67.5 -41.5q-38 0 -36 53z" />
<glyph unicode="&#xd7;" horiz-adv-x="924" d="M159 178q73 65 149 131t152 137q-34 61 -65.5 121t-66.5 119q-2 18 24 36.5t38 -0.5q21 -38 53.5 -97t72.5 -130q62 55 120 111.5t120 115.5q12 6 31 7t34 -2t24 -9t3 -18q-77 -64 -153.5 -130t-146.5 -134q34 -64 68.5 -128.5t63.5 -119.5q2 -6 -6 -15t-18.5 -16 t-22.5 -8.5t-15 4.5q-30 55 -61.5 114t-64.5 120q-62 -59 -122 -114t-115 -107q-15 -8 -34 -12t-34 -2.5t-24.5 8t-3.5 18.5z" />
<glyph unicode="&#xd8;" horiz-adv-x="1980" d="M214 712q0 156 45 311.5t126 296t195 261.5t249 208t287.5 138t314.5 51q169 0 307 -61q41 55 74 102q18 15 44 9t18 -26q-36 -50 -83 -109q159 -89 244 -257t85 -390q0 -248 -100 -473t-264 -398t-378 -274t-440 -101q-136 0 -244 31t-193 89q-37 -52 -66.5 -93.5 t-53.5 -76.5q-15 -18 -41 -12t-20 22q26 40 60 89.5t74 103.5q-116 99 -178 241.5t-62 317.5zM405 814q0 -307 167 -498q116 164 254 354t279 387t278.5 382t251.5 340q-141 79 -339 79q-206 0 -371.5 -81.5t-281 -222.5t-177 -331.5t-61.5 -408.5zM612 276q88 -80 211 -124 t283 -44q158 0 307.5 75t265 211.5t186 330t70.5 430.5q0 187 -61.5 342.5t-190.5 246.5q-114 -150 -252 -337t-283.5 -385t-284.5 -392t-251 -354z" />
<glyph unicode="&#xd9;" horiz-adv-x="2349" d="M213 1335q36 183 138.5 325.5t267 230t383.5 87.5q129 0 248.5 -27.5t215.5 -70.5q14 -12 -10 -36q-163 -130 -287.5 -291t-211.5 -341t-132 -369t-45 -373q0 -176 66 -258.5t201 -82.5q159 0 312 104.5t313 322.5t337.5 555t386.5 800q12 24 70 45.5t128 21.5 q49 0 48 -20q-56 -65 -123.5 -183.5t-135 -267.5t-130.5 -318t-112 -330t-78 -304.5t-29 -244.5q0 -175 117 -175q114 0 227 173q8 8 19.5 1t8.5 -24q-82 -132 -177 -208.5t-180 -76.5q-89 0 -144 60t-55 180q0 153 45.5 365.5t144.5 458.5q-279 -526 -554.5 -795 t-545.5 -269q-169 0 -262.5 104t-93.5 280q0 166 49 348.5t141.5 364t227 355.5t309.5 327q-79 30 -198.5 54.5t-250.5 24.5q-178 0 -308 -75t-208.5 -199t-102 -284t11.5 -330q-3 -12 -15 -18t-20 6q-43 194 -7 377zM1718 2188.5q0 7.5 6 13.5q30 24 73 37t49 7 q53 -44 125 -94t155 -97q6 -6 -2 -16.5t-22 -10.5q-38 9 -90 27t-104 39.5t-102 43.5t-82 40q-6 3 -6 10.5z" />
<glyph unicode="&#xda;" horiz-adv-x="2349" d="M213 1335q36 183 138.5 325.5t267 230t383.5 87.5q129 0 248.5 -27.5t215.5 -70.5q14 -12 -10 -36q-163 -130 -287.5 -291t-211.5 -341t-132 -369t-45 -373q0 -176 66 -258.5t201 -82.5q159 0 312 104.5t313 322.5t337.5 555t386.5 800q12 24 70 45.5t128 21.5 q49 0 48 -20q-56 -65 -123.5 -183.5t-135 -267.5t-130.5 -318t-112 -330t-78 -304.5t-29 -244.5q0 -175 117 -175q114 0 227 173q8 8 19.5 1t8.5 -24q-82 -132 -177 -208.5t-180 -76.5q-89 0 -144 60t-55 180q0 153 45.5 365.5t144.5 458.5q-279 -526 -554.5 -795 t-545.5 -269q-169 0 -262.5 104t-93.5 280q0 166 49 348.5t141.5 364t227 355.5t309.5 327q-79 30 -198.5 54.5t-250.5 24.5q-178 0 -308 -75t-208.5 -199t-102 -284t11.5 -330q-3 -12 -15 -18t-20 6q-43 194 -7 377zM1712 2034q0 12 8 21q62 37 135.5 87.5t132.5 111.5 q14 10 56 -4t70 -26q6 -6 9 -14t-7 -14q-30 -21 -78 -45.5t-102 -48t-110 -44.5t-102 -36q-12 0 -12 12z" />
<glyph unicode="&#xdb;" horiz-adv-x="2349" d="M213 1335q36 183 138.5 325.5t267 230t383.5 87.5q129 0 248.5 -27.5t215.5 -70.5q14 -12 -10 -36q-163 -130 -287.5 -291t-211.5 -341t-132 -369t-45 -373q0 -176 66 -258.5t201 -82.5q159 0 312 104.5t313 322.5t337.5 555t386.5 800q12 24 70 45.5t128 21.5 q49 0 48 -20q-56 -65 -123.5 -183.5t-135 -267.5t-130.5 -318t-112 -330t-78 -304.5t-29 -244.5q0 -175 117 -175q114 0 227 173q8 8 19.5 1t8.5 -24q-82 -132 -177 -208.5t-180 -76.5q-89 0 -144 60t-55 180q0 153 45.5 365.5t144.5 458.5q-279 -526 -554.5 -795 t-545.5 -269q-169 0 -262.5 104t-93.5 280q0 166 49 348.5t141.5 364t227 355.5t309.5 327q-79 30 -198.5 54.5t-250.5 24.5q-178 0 -308 -75t-208.5 -199t-102 -284t11.5 -330q-3 -12 -15 -18t-20 6q-43 194 -7 377zM1588 2086q53 30 134 89t130 117q16 15 38 -3 q40 -53 102.5 -107t123.5 -80q16 -16 -13.5 -31.5t-65.5 -9.5q-59 24 -107 60t-96 75q-18 -15 -49 -33t-63.5 -38.5t-65 -39t-52.5 -27.5q-30 0 -16 28z" />
<glyph unicode="&#xdc;" horiz-adv-x="2349" d="M213 1335q36 183 138.5 325.5t267 230t383.5 87.5q129 0 248.5 -27.5t215.5 -70.5q14 -12 -10 -36q-163 -130 -287.5 -291t-211.5 -341t-132 -369t-45 -373q0 -176 66 -258.5t201 -82.5q159 0 312 104.5t313 322.5t337.5 555t386.5 800q12 24 70 45.5t128 21.5 q49 0 48 -20q-56 -65 -123.5 -183.5t-135 -267.5t-130.5 -318t-112 -330t-78 -304.5t-29 -244.5q0 -175 117 -175q114 0 227 173q8 8 19.5 1t8.5 -24q-82 -132 -177 -208.5t-180 -76.5q-89 0 -144 60t-55 180q0 153 45.5 365.5t144.5 458.5q-279 -526 -554.5 -795 t-545.5 -269q-169 0 -262.5 104t-93.5 280q0 166 49 348.5t141.5 364t227 355.5t309.5 327q-79 30 -198.5 54.5t-250.5 24.5q-178 0 -308 -75t-208.5 -199t-102 -284t11.5 -330q-3 -12 -15 -18t-20 6q-43 194 -7 377zM1726 2102q0 30 31 72t81 42q26 0 26 -41 q0 -43 -30 -84.5t-73 -41.5q-35 0 -35 53zM1960 2102q0 30 31 72t76 42q27 0 29 -41q0 -43 -31 -84.5t-69 -41.5q-37 0 -36 53z" />
<glyph unicode="&#xdd;" horiz-adv-x="2149" d="M21 135q0 117 48 227t138.5 201t222.5 152.5t304 79.5q14 -3 13.5 -15t-17.5 -27q-140 -18 -240 -64.5t-164.5 -117t-94 -161t-29.5 -192.5q0 -234 142 -367t409 -133q197 0 373 67.5t345.5 226t341 419.5t362.5 647q-85 -140 -189 -262t-215.5 -212.5t-228.5 -141.5 t-231 -51q-147 0 -211.5 78.5t-46.5 222.5q24 170 75 339t100 326q50 153 70 247t16.5 145.5t-26 69t-60.5 17.5q-70 0 -133 -54t-96 -110q-12 -9 -23.5 0.5t-7.5 25.5q26 49 71 96.5t98 84t110.5 58t116.5 21.5q52 0 87 -27.5t45 -90.5t-6 -165.5t-65 -252.5 q-61 -191 -110 -343.5t-75 -306.5q-18 -132 19 -199.5t157 -67.5q267 0 555.5 354.5t636.5 1049.5q35 30 79.5 39.5t82.5 9.5t32 -31q-316 -677 -594.5 -1126t-539.5 -720t-516 -382.5t-528 -111.5q-290 0 -446.5 147t-156.5 381zM1864 2034q0 12 10 21q61 37 134.5 87.5 t131.5 111.5q16 10 58 -4t68 -26q6 -6 10 -14t-6 -14q-30 -21 -77.5 -45.5t-101.5 -48t-111 -44.5t-104 -36q-12 0 -12 12z" />
<glyph unicode="&#xde;" horiz-adv-x="2407" d="M153 422q0 150 83.5 268t205.5 158q28 6 18 -22q-88 -49 -133 -131.5t-45 -178.5q0 -82 28 -158t88 -131t153.5 -87t222.5 -32q117 0 210.5 21t171.5 75t146 149t129 243q-35 24 -65 61q-2 12 6 20.5t17 4.5q30 -30 59 -46q43 99 82.5 224.5t81.5 282.5q35 117 68.5 215 t75.5 184q-211 -15 -332.5 -116.5t-169.5 -267.5q-9 -9 -20.5 -1.5t-11.5 29.5q28 77 74 150.5t115 133.5t164.5 100t221.5 52q108 202 246 314.5t313 155.5q16 0 17 -14t-13 -20q-136 -38 -231 -137.5t-175 -292.5q136 -6 243 -49t180.5 -112t114 -160t40.5 -193 q0 -152 -63 -268t-171 -192t-250.5 -116t-305.5 -40q-120 0 -206 36q-178 -282 -401 -408t-484 -126q-111 0 -202.5 31t-156 86t-102 133t-37.5 172zM1563 584q91 -24 191 -24q140 0 250 41t183 110t110 163t37 202q0 193 -106 316t-308 147q-21 -55 -39.5 -117t-36.5 -132 q-114 -434 -281 -706z" />
<glyph unicode="&#xdf;" horiz-adv-x="1038" d="M-956 -525q0 12 8 16.5t14 -4.5q37 -65 116.5 -110.5t193.5 -45.5q99 0 180 16.5t150 67.5t130.5 141t123 238t127.5 360t144 503q102 390 241.5 678.5t300.5 480.5t334.5 287.5t342.5 95.5q74 0 129.5 -24t92 -61.5t54.5 -84.5t18 -94q0 -141 -73 -251t-186 -202.5 t-242 -176t-240.5 -172.5t-185 -192t-73.5 -235q0 -76 31 -133t67.5 -108t67 -104t30.5 -127q0 -99 -80 -166.5t-251 -67.5q-95 0 -155.5 34t-60.5 74q0 12 9 34t24.5 46t36 48.5t41.5 39.5q6 6 15 -3t3 -18q-38 -37 -36 -89q0 -55 35 -91.5t97 -36.5q80 0 122.5 44 t42.5 108q0 59 -30.5 114.5t-67.5 113.5t-68 121t-31 141q0 120 72 214t182 179t237 168t236 177t181 207t72 257q0 100 -56 158t-162 58q-150 0 -280 -74t-246 -241t-220 -442t-203 -678q-102 -419 -224.5 -690t-264 -432.5t-296 -226t-320.5 -64.5q-132 0 -192 63t-58 162 z" />
<glyph unicode="&#xe0;" d="M94 225q0 102 50 201t131.5 179.5t181 130.5t200.5 50q108 0 169 -52q30 20 78 36t84 16q12 0 14 -15q-70 -85 -121 -189t-79 -197t-34 -167t12 -101q15 -18 52.5 -10.5t101.5 87.5q6 6 15 0t7 -18q-56 -80 -123.5 -128t-128.5 -48q-71 0 -91.5 100t20.5 238 q-83 -132 -179.5 -226t-204.5 -112q-73 0 -114 67.5t-41 157.5zM267 261q0 -67 23.5 -107t53.5 -40q37 0 91 46t111.5 123t114.5 172t101 193q-12 40 -57 65t-103 25q-71 0 -132.5 -36t-105.5 -99t-70.5 -150t-26.5 -192zM490 1116.5q0 8.5 6 14.5q40 35 87 50t57 5 q37 -43 91.5 -94.5t110.5 -92.5q6 -6 0 -17.5t-21 -11.5q-79 22 -171.5 59t-153.5 77q-6 2 -6 10.5z" />
<glyph unicode="&#xe1;" d="M94 225q0 102 50 201t131.5 179.5t181 130.5t200.5 50q108 0 169 -52q30 20 78 36t84 16q12 0 14 -15q-70 -85 -121 -189t-79 -197t-34 -167t12 -101q15 -18 52.5 -10.5t101.5 87.5q6 6 15 0t7 -18q-56 -80 -123.5 -128t-128.5 -48q-71 0 -91.5 100t20.5 238 q-83 -132 -179.5 -226t-204.5 -112q-73 0 -114 67.5t-41 157.5zM267 261q0 -67 23.5 -107t53.5 -40q37 0 91 46t111.5 123t114.5 172t101 193q-12 40 -57 65t-103 25q-71 0 -132.5 -36t-105.5 -99t-70.5 -150t-26.5 -192zM532 976q0 12 8 23q44 27 100 76t100 101 q21 12 66 -4.5t88 -34.5q10 -3 11 -13t-5 -16q-30 -20 -75 -40.5t-94 -38.5t-98 -35.5t-89 -29.5q-12 0 -12 12z" />
<glyph unicode="&#xe2;" d="M94 225q0 102 50 201t131.5 179.5t181 130.5t200.5 50q108 0 169 -52q30 20 78 36t84 16q12 0 14 -15q-70 -85 -121 -189t-79 -197t-34 -167t12 -101q15 -18 52.5 -10.5t101.5 87.5q6 6 15 0t7 -18q-56 -80 -123.5 -128t-128.5 -48q-71 0 -91.5 100t20.5 238 q-83 -132 -179.5 -226t-204.5 -112q-73 0 -114 67.5t-41 157.5zM267 261q0 -67 23.5 -107t53.5 -40q37 0 91 46t111.5 123t114.5 172t101 193q-12 40 -57 65t-103 25q-71 0 -132.5 -36t-105.5 -99t-70.5 -150t-26.5 -192zM432 995.5q-5 9.5 1 21.5q53 30 114.5 82.5 t111.5 114.5q14 14 36 -4q37 -52 90.5 -92t111.5 -68q15 -15 -16.5 -36t-71.5 -15q-53 21 -97.5 43t-87.5 48q-73 -52 -175 -104q-12 0 -17 9.5z" />
<glyph unicode="&#xe3;" d="M94 225q0 102 50 201t131.5 179.5t181 130.5t200.5 50q108 0 169 -52q30 20 78 36t84 16q12 0 14 -15q-70 -85 -121 -189t-79 -197t-34 -167t12 -101q15 -18 52.5 -10.5t101.5 87.5q6 6 15 0t7 -18q-56 -80 -123.5 -128t-128.5 -48q-71 0 -91.5 100t20.5 238 q-83 -132 -179.5 -226t-204.5 -112q-73 0 -114 67.5t-41 157.5zM267 261q0 -67 23.5 -107t53.5 -40q37 0 91 46t111.5 123t114.5 172t101 193q-12 40 -57 65t-103 25q-71 0 -132.5 -36t-105.5 -99t-70.5 -150t-26.5 -192zM368 1020q38 44 87 82t83 47q21 6 41.5 -4.5 t44.5 -24.5t54.5 -28t77.5 -14q46 0 78 20t56 60q10 6 22.5 1.5t9.5 -13.5q-34 -56 -81.5 -100t-134.5 -44q-40 0 -70 12t-53.5 25.5t-44 25t-38.5 11.5q-24 -4 -48.5 -22.5t-59.5 -51.5q-30 -6 -24 18z" />
<glyph unicode="&#xe4;" d="M94 225q0 102 50 201t131.5 179.5t181 130.5t200.5 50q108 0 169 -52q30 20 78 36t84 16q12 0 14 -15q-70 -85 -121 -189t-79 -197t-34 -167t12 -101q15 -18 52.5 -10.5t101.5 87.5q6 6 15 0t7 -18q-56 -80 -123.5 -128t-128.5 -48q-71 0 -91.5 100t20.5 238 q-83 -132 -179.5 -226t-204.5 -112q-73 0 -114 67.5t-41 157.5zM267 261q0 -67 23.5 -107t53.5 -40q37 0 91 46t111.5 123t114.5 172t101 193q-12 40 -57 65t-103 25q-71 0 -132.5 -36t-105.5 -99t-70.5 -150t-26.5 -192zM434 1038q0 18 10 41t27.5 45t40 37t50.5 15 q16 0 29 -18t13 -36q0 -24 -10 -51t-27.5 -48t-39 -37t-43.5 -16q-20 0 -35 20.5t-15 47.5zM712 1038q0 18 11 41t29.5 45t42 37t49.5 15q16 0 30 -18t14 -36q0 -24 -11 -51t-29 -48t-40 -37t-43 -16t-37 20.5t-16 47.5z" />
<glyph unicode="&#xe5;" d="M94 225q0 102 50 201t131.5 179.5t181 130.5t200.5 50q108 0 169 -52q30 20 78 36t84 16q12 0 14 -15q-70 -85 -121 -189t-79 -197t-34 -167t12 -101q15 -18 52.5 -10.5t101.5 87.5q6 6 15 0t7 -18q-56 -80 -123.5 -128t-128.5 -48q-71 0 -91.5 100t20.5 238 q-83 -132 -179.5 -226t-204.5 -112q-73 0 -114 67.5t-41 157.5zM267 261q0 -67 23.5 -107t53.5 -40q37 0 91 46t111.5 123t114.5 172t101 193q-12 40 -57 65t-103 25q-71 0 -132.5 -36t-105.5 -99t-70.5 -150t-26.5 -192zM522 1032q0 62 50.5 113t117.5 51q41 0 62.5 -26.5 t21.5 -63.5q0 -62 -49 -112t-117 -50q-44 0 -65 26t-21 62zM575 1060q0 -30 19.5 -52t51.5 -22q34 0 55 24.5t21 67.5q0 28 -16.5 51t-51.5 23q-37 0 -58 -25t-21 -67z" />
<glyph unicode="&#xe6;" horiz-adv-x="1287" d="M94 225q0 102 50 201t131.5 179.5t181 130.5t200.5 50q55 0 95 -13.5t74 -38.5q28 24 76 57t84 33q20 0 16 -16q-38 -43 -68 -86q83 64 172 64q79 0 130 -49t51 -104q0 -175 -463 -243q-4 -27 -4 -59.5v-66.5q0 -76 35.5 -119t114.5 -43q59 0 120.5 34t101.5 84 q12 6 18 -4t0 -22q-61 -80 -154.5 -137t-201.5 -57t-155.5 54t-47.5 152q0 110 53 230q-108 -175 -218.5 -298t-239.5 -138q-70 0 -111 67.5t-41 157.5zM267 261q0 -67 23.5 -107t53.5 -40q34 0 88 46t113 123t116 172t101 193q-12 40 -57 65t-103 25q-71 0 -132.5 -36 t-105.5 -99t-70.5 -150t-26.5 -192zM830 436q146 16 217 57t71 103q0 46 -27 78t-71 32q-70 0 -120 -66t-70 -204z" />
<glyph unicode="&#xe7;" horiz-adv-x="702" d="M92 182q0 108 45 216.5t114 195t152 139.5t163 53q70 0 111 -40t41 -89q0 -18 -12 -39.5t-29 -42.5t-37 -40t-36 -25q-6 -3 -12 1.5t-6 10.5q24 68 -6 117t-108 49q-98 0 -157.5 -123t-59.5 -322q0 -141 114 -141q55 0 117 37t112 98q12 6 22 -1.5t4 -23.5 q-46 -59 -106 -106.5t-110 -71.5q-58 -24 -73 -61t-1 -78q28 -77 -28.5 -166t-176.5 -137q-9 3 -9 15t6 18q86 43 112 92t5 117q-15 43 4.5 95.5t68.5 76.5q-14 -6 -33 -6h-34q-67 0 -112 47t-45 135z" />
<glyph unicode="&#xe8;" horiz-adv-x="727" d="M92 206q0 94 40 197.5t103 190t144 139.5t164 53t134 -47t51 -106q0 -175 -464 -240q-3 -30 -4.5 -60.5t-1.5 -65.5q0 -79 37 -122t116 -43q59 0 120 34t99 84q12 6 18 -4t3 -22q-61 -80 -155 -137t-200 -57q-108 0 -156 54t-48 152zM270 436q147 16 218.5 57t71.5 103 q0 46 -28 78t-72 32q-70 0 -120 -66t-70 -204zM348 1116.5q0 8.5 6 14.5q40 35 87 50t57 5q37 -43 91.5 -94.5t110.5 -92.5q6 -6 0 -17.5t-21 -11.5q-79 22 -171.5 59t-153.5 77q-6 2 -6 10.5z" />
<glyph unicode="&#xe9;" horiz-adv-x="727" d="M92 206q0 94 40 197.5t103 190t144 139.5t164 53t134 -47t51 -106q0 -175 -464 -240q-3 -30 -4.5 -60.5t-1.5 -65.5q0 -79 37 -122t116 -43q59 0 120 34t99 84q12 6 18 -4t3 -22q-61 -80 -155 -137t-200 -57q-108 0 -156 54t-48 152zM270 436q147 16 218.5 57t71.5 103 q0 46 -28 78t-72 32q-70 0 -120 -66t-70 -204zM400 976q0 12 8 23q44 27 100 76t100 101q21 12 66 -4.5t88 -34.5q10 -3 11 -13t-5 -16q-30 -20 -75 -40.5t-94 -38.5t-98 -35.5t-89 -29.5q-12 0 -12 12z" />
<glyph unicode="&#xea;" horiz-adv-x="727" d="M92 206q0 94 40 197.5t103 190t144 139.5t164 53t134 -47t51 -106q0 -175 -464 -240q-3 -30 -4.5 -60.5t-1.5 -65.5q0 -79 37 -122t116 -43q59 0 120 34t99 84q12 6 18 -4t3 -22q-61 -80 -155 -137t-200 -57q-108 0 -156 54t-48 152zM259 995.5q-5 9.5 1 21.5 q53 30 114.5 82.5t111.5 114.5q14 14 36 -4q37 -52 90.5 -92t111.5 -68q15 -15 -16.5 -36t-71.5 -15q-53 21 -97.5 43t-87.5 48q-73 -52 -175 -104q-12 0 -17 9.5zM270 436q147 16 218.5 57t71.5 103q0 46 -28 78t-72 32q-70 0 -120 -66t-70 -204z" />
<glyph unicode="&#xeb;" horiz-adv-x="727" d="M92 206q0 94 40 197.5t103 190t144 139.5t164 53t134 -47t51 -106q0 -175 -464 -240q-3 -30 -4.5 -60.5t-1.5 -65.5q0 -79 37 -122t116 -43q59 0 120 34t99 84q12 6 18 -4t3 -22q-61 -80 -155 -137t-200 -57q-108 0 -156 54t-48 152zM270 436q147 16 218.5 57t71.5 103 q0 46 -28 78t-72 32q-70 0 -120 -66t-70 -204zM317 1038q0 18 10 41t27.5 45t40 37t50.5 15q16 0 29 -18t13 -36q0 -24 -10 -51t-27.5 -48t-39 -37t-43.5 -16q-20 0 -35 20.5t-15 47.5zM595 1038q0 18 11 41t29.5 45t42 37t49.5 15q16 0 30 -18t14 -36q0 -24 -11 -51 t-29 -48t-40 -37t-43 -16t-37 20.5t-16 47.5z" />
<glyph unicode="&#xec;" horiz-adv-x="457" d="M105 102q0 56 16.5 131t45.5 153t64.5 153.5t72.5 129.5q-34 -18 -76 -45.5t-69 -51.5q-9 -6 -15 4t-3 20q114 91 317 190q24 0 25 -27q-41 -71 -79 -154t-67 -164t-48 -157t-19 -125q0 -61 44 -60q34 0 65.5 28.5t74.5 74.5q6 6 15 -1t3 -23q-67 -79 -133 -128.5 t-127 -49.5q-108 0 -107 102zM226 1116.5q0 8.5 6 14.5q40 35 87 50t57 5q37 -43 91.5 -94.5t110.5 -92.5q6 -6 0 -17.5t-21 -11.5q-79 22 -171.5 59t-153.5 77q-6 2 -6 10.5z" />
<glyph unicode="&#xed;" horiz-adv-x="457" d="M105 102q0 56 16.5 131t45.5 153t64.5 153.5t72.5 129.5q-34 -18 -76 -45.5t-69 -51.5q-9 -6 -15 4t-3 20q114 91 317 190q24 0 25 -27q-41 -71 -79 -154t-67 -164t-48 -157t-19 -125q0 -61 44 -60q34 0 65.5 28.5t74.5 74.5q6 6 15 -1t3 -23q-67 -79 -133 -128.5 t-127 -49.5q-108 0 -107 102zM326 976q0 12 8 23q44 27 100 76t100 101q21 12 66 -4.5t88 -34.5q10 -3 11 -13t-5 -16q-30 -20 -75 -40.5t-94 -38.5t-98 -35.5t-89 -29.5q-12 0 -12 12z" />
<glyph unicode="&#xee;" horiz-adv-x="457" d="M105 102q0 56 16.5 131t45.5 153t64.5 153.5t72.5 129.5q-34 -18 -76 -45.5t-69 -51.5q-9 -6 -15 4t-3 20q114 91 317 190q24 0 25 -27q-41 -71 -79 -154t-67 -164t-48 -157t-19 -125q0 -61 44 -60q34 0 65.5 28.5t74.5 74.5q6 6 15 -1t3 -23q-67 -79 -133 -128.5 t-127 -49.5q-108 0 -107 102zM186 995.5q-5 9.5 1 21.5q53 30 114.5 82.5t111.5 114.5q14 14 36 -4q37 -52 90.5 -92t111.5 -68q15 -15 -16.5 -36t-71.5 -15q-53 21 -97.5 43t-87.5 48q-73 -52 -175 -104q-12 0 -17 9.5z" />
<glyph unicode="&#xef;" horiz-adv-x="457" d="M105 102q0 56 16.5 131t45.5 153t64.5 153.5t72.5 129.5q-34 -18 -76 -45.5t-69 -51.5q-9 -6 -15 4t-3 20q114 91 317 190q24 0 25 -27q-41 -71 -79 -154t-67 -164t-48 -157t-19 -125q0 -61 44 -60q34 0 65.5 28.5t74.5 74.5q6 6 15 -1t3 -23q-67 -79 -133 -128.5 t-127 -49.5q-108 0 -107 102zM252 1038q0 18 10 41t27.5 45t40 37t50.5 15q16 0 29 -18t13 -36q0 -24 -10 -51t-27.5 -48t-39 -37t-43.5 -16q-20 0 -35 20.5t-15 47.5zM530 1038q0 18 11 41t29.5 45t42 37t49.5 15q16 0 30 -18t14 -36q0 -24 -11 -51t-29 -48t-40 -37 t-43 -16t-37 20.5t-16 47.5z" />
<glyph unicode="&#xf0;" horiz-adv-x="810" d="M102 206q0 126 50 244t132 203t179 119t188 -7q-18 175 -72 322t-155 302q-61 -47 -121 -95t-113 -92q-14 -4 -8 22.5t30 56.5q34 30 83 66t107 75q-30 44 -64 89.5t-74 92.5q-46 55 -60 118t1 126t54 121.5t101 100.5q12 3 18 -7.5t0 -22.5q-68 -80 -60 -169t81 -188 q35 -43 65.5 -89t57.5 -92l80 48t78 44q6 0 10 -9t-10 -25q-35 -21 -68.5 -42.5t-71.5 -45.5q237 -394 237 -784q0 -138 -47.5 -261t-120 -216.5t-158 -150.5t-161.5 -60q-83 0 -135.5 55.5t-52.5 150.5zM261 285q0 -71 29.5 -125.5t90.5 -54.5q47 0 95.5 38.5t88 104.5 t66 150.5t26.5 175.5q0 89 -29.5 126.5t-79.5 37.5q-126 0 -206.5 -124.5t-80.5 -328.5z" />
<glyph unicode="&#xf1;" horiz-adv-x="988" d="M62 27q52 132 105 290.5t94 318.5q9 30 3 44t-21 14q-35 0 -65.5 -29t-54.5 -63q-9 -6 -16.5 3.5t-4.5 18.5q15 21 41.5 48.5t60 54t70 43t72.5 16.5q53 0 70.5 -32t7.5 -78q-14 -67 -31.5 -127t-42.5 -135q37 68 91 134.5t120 120t142.5 85.5t163.5 32q37 0 57 -18 t20 -44q0 -43 -23 -76q-65 -117 -109 -241.5t-44 -222.5q0 -79 52 -79q35 0 68 27t76 82q6 6 15 -1t7 -19q-56 -77 -128 -135.5t-142 -58.5q-53 0 -82.5 34t-29.5 89q0 108 39 234t104 255q9 21 9 45q0 30 -28 31q-114 0 -252 -155t-256 -493q-2 -8 -19 -16.5t-38.5 -13 t-42.5 -7.5t-34 -3q-16 0 -23 6t-1 21zM380 1020q38 44 87 82t83 47q21 6 41.5 -4.5t44.5 -24.5t54.5 -28t77.5 -14q46 0 78 20t56 60q10 6 22.5 1.5t9.5 -13.5q-34 -56 -81.5 -100t-134.5 -44q-40 0 -70 12t-53.5 25.5t-44 25t-38.5 11.5q-24 -4 -48.5 -22.5t-59.5 -51.5 q-30 -6 -24 18z" />
<glyph unicode="&#xf2;" horiz-adv-x="792" d="M92 225q0 89 39 187t102 181t146 138t171 55q108 0 160 -64.5t52 -149.5q0 -120 -48 -223t-117 -182t-148.5 -123t-144.5 -44q-104 0 -158 63t-54 162zM243 310q0 -108 38.5 -162t99.5 -54q95 0 161.5 101t66.5 275q0 91 -37.5 153.5t-107.5 62.5q-100 0 -160.5 -95.5 t-60.5 -280.5zM413 1116.5q0 8.5 6 14.5q40 35 87 50t57 5q37 -43 91.5 -94.5t110.5 -92.5q6 -6 0 -17.5t-21 -11.5q-79 22 -171.5 59t-153.5 77q-6 2 -6 10.5z" />
<glyph unicode="&#xf3;" horiz-adv-x="792" d="M92 225q0 89 39 187t102 181t146 138t171 55q108 0 160 -64.5t52 -149.5q0 -120 -48 -223t-117 -182t-148.5 -123t-144.5 -44q-104 0 -158 63t-54 162zM243 310q0 -108 38.5 -162t99.5 -54q95 0 161.5 101t66.5 275q0 91 -37.5 153.5t-107.5 62.5q-100 0 -160.5 -95.5 t-60.5 -280.5zM486 976q0 12 8 23q44 27 100 76t100 101q21 12 66 -4.5t88 -34.5q10 -3 11 -13t-5 -16q-30 -20 -75 -40.5t-94 -38.5t-98 -35.5t-89 -29.5q-12 0 -12 12z" />
<glyph unicode="&#xf4;" horiz-adv-x="792" d="M92 225q0 89 39 187t102 181t146 138t171 55q108 0 160 -64.5t52 -149.5q0 -120 -48 -223t-117 -182t-148.5 -123t-144.5 -44q-104 0 -158 63t-54 162zM243 310q0 -108 38.5 -162t99.5 -54q95 0 161.5 101t66.5 275q0 91 -37.5 153.5t-107.5 62.5q-100 0 -160.5 -95.5 t-60.5 -280.5zM367 995.5q-5 9.5 1 21.5q53 30 114.5 82.5t111.5 114.5q14 14 36 -4q37 -52 90.5 -92t111.5 -68q15 -15 -16.5 -36t-71.5 -15q-53 21 -97.5 43t-87.5 48q-73 -52 -175 -104q-12 0 -17 9.5z" />
<glyph unicode="&#xf5;" horiz-adv-x="792" d="M92 225q0 89 39 187t102 181t146 138t171 55q108 0 160 -64.5t52 -149.5q0 -120 -48 -223t-117 -182t-148.5 -123t-144.5 -44q-104 0 -158 63t-54 162zM243 310q0 -108 38.5 -162t99.5 -54q95 0 161.5 101t66.5 275q0 91 -37.5 153.5t-107.5 62.5q-100 0 -160.5 -95.5 t-60.5 -280.5zM301 1020q38 44 87 82t83 47q21 6 41.5 -4.5t44.5 -24.5t54.5 -28t77.5 -14q46 0 78 20t56 60q10 6 22.5 1.5t9.5 -13.5q-34 -56 -81.5 -100t-134.5 -44q-40 0 -70 12t-53.5 25.5t-44 25t-38.5 11.5q-24 -4 -48.5 -22.5t-59.5 -51.5q-30 -6 -24 18z" />
<glyph unicode="&#xf6;" horiz-adv-x="792" d="M92 225q0 89 39 187t102 181t146 138t171 55q108 0 160 -64.5t52 -149.5q0 -120 -48 -223t-117 -182t-148.5 -123t-144.5 -44q-104 0 -158 63t-54 162zM243 310q0 -108 38.5 -162t99.5 -54q95 0 161.5 101t66.5 275q0 91 -37.5 153.5t-107.5 62.5q-100 0 -160.5 -95.5 t-60.5 -280.5zM336 1038q0 18 10 41t27.5 45t40 37t50.5 15q16 0 29 -18t13 -36q0 -24 -10 -51t-27.5 -48t-39 -37t-43.5 -16q-20 0 -35 20.5t-15 47.5zM614 1038q0 18 11 41t29.5 45t42 37t49.5 15q16 0 30 -18t14 -36q0 -24 -11 -51t-29 -48t-40 -37t-43 -16t-37 20.5 t-16 47.5z" />
<glyph unicode="&#xf7;" horiz-adv-x="924" d="M168 437.5q16 32.5 93 40.5q47 0 114 2.5t142 2.5t157 -2.5t156 -4.5q12 0 10 -11t-11 -23t-24.5 -23t-33.5 -14q-138 3 -296.5 1.5t-304.5 -7.5q-18 6 -2 38.5zM381 249q0 21 21.5 47t45.5 26q18 0 37 -21.5t19 -39.5q0 -24 -23 -48.5t-45 -24.5q-18 0 -36.5 21.5 t-18.5 39.5zM510 621q0 21 20 47t44 26q22 0 39 -21.5t17 -39.5q0 -24 -23 -50.5t-41 -26.5t-37 23t-19 42z" />
<glyph unicode="&#xf8;" horiz-adv-x="792" d="M82 -44q18 24 35.5 49t32.5 51q-58 58 -58 169q0 89 37 187t100 181t146 136.5t175 53.5q65 0 107 -24q21 27 42 55t45 62q21 15 39.5 10.5t8.5 -26.5q-24 -35 -49 -66.5t-45 -63.5q34 -26 49 -69t15 -89q0 -120 -48 -224.5t-117 -182t-148.5 -121.5t-146.5 -44 q-68 0 -114 27q-16 -18 -28.5 -37.5t-27.5 -41.5q-18 -22 -37 -16t-13 24zM243 310q0 -67 12 -108q43 62 77 110t68 95t72 100t90 123q-37 56 -102 56q-98 0 -157.5 -95.5t-59.5 -280.5zM273 156q37 -64 105 -64q99 0 162.5 101t63.5 277q0 64 -18 116q-88 -116 -157 -211.5 t-156 -218.5z" />
<glyph unicode="&#xf9;" horiz-adv-x="1018" d="M99 141q0 49 10.5 114t33.5 134t54 139t73 135q-34 -21 -64 -44t-56 -47q-9 -6 -16.5 4t-1.5 20q52 55 149 113.5t185 92.5q16 0 24 -8t2 -20q-99 -129 -159 -279.5t-60 -292.5q0 -88 55 -88q41 0 99.5 53t123 141t130.5 199t121 223q10 18 54 37t90 19q47 0 28 -24 q-44 -80 -75.5 -149.5t-53 -137t-32.5 -136.5t-11 -151q0 -100 52 -100t116 94q10 6 19.5 0t6.5 -18q-52 -80 -115 -122t-116 -42q-129 0 -129 150q0 156 56 310q-118 -211 -247 -335.5t-217 -124.5q-129 0 -129 141zM449 1116.5q0 8.5 6 14.5q40 35 87 50t57 5 q37 -43 91.5 -94.5t110.5 -92.5q6 -6 0 -17.5t-21 -11.5q-79 22 -171.5 59t-153.5 77q-6 2 -6 10.5z" />
<glyph unicode="&#xfa;" horiz-adv-x="1018" d="M99 141q0 49 10.5 114t33.5 134t54 139t73 135q-34 -21 -64 -44t-56 -47q-9 -6 -16.5 4t-1.5 20q52 55 149 113.5t185 92.5q16 0 24 -8t2 -20q-99 -129 -159 -279.5t-60 -292.5q0 -88 55 -88q41 0 99.5 53t123 141t130.5 199t121 223q10 18 54 37t90 19q47 0 28 -24 q-44 -80 -75.5 -149.5t-53 -137t-32.5 -136.5t-11 -151q0 -100 52 -100t116 94q10 6 19.5 0t6.5 -18q-52 -80 -115 -122t-116 -42q-129 0 -129 150q0 156 56 310q-118 -211 -247 -335.5t-217 -124.5q-129 0 -129 141zM504 976q0 12 8 23q44 27 100 76t100 101q21 12 66 -4.5 t88 -34.5q10 -3 11 -13t-5 -16q-30 -20 -75 -40.5t-94 -38.5t-98 -35.5t-89 -29.5q-12 0 -12 12z" />
<glyph unicode="&#xfb;" horiz-adv-x="1018" d="M99 141q0 49 10.5 114t33.5 134t54 139t73 135q-34 -21 -64 -44t-56 -47q-9 -6 -16.5 4t-1.5 20q52 55 149 113.5t185 92.5q16 0 24 -8t2 -20q-99 -129 -159 -279.5t-60 -292.5q0 -88 55 -88q41 0 99.5 53t123 141t130.5 199t121 223q10 18 54 37t90 19q47 0 28 -24 q-44 -80 -75.5 -149.5t-53 -137t-32.5 -136.5t-11 -151q0 -100 52 -100t116 94q10 6 19.5 0t6.5 -18q-52 -80 -115 -122t-116 -42q-129 0 -129 150q0 156 56 310q-118 -211 -247 -335.5t-217 -124.5q-129 0 -129 141zM389 995.5q-5 9.5 1 21.5q53 30 114.5 82.5t111.5 114.5 q14 14 36 -4q37 -52 90.5 -92t111.5 -68q15 -15 -16.5 -36t-71.5 -15q-53 21 -97.5 43t-87.5 48q-73 -52 -175 -104q-12 0 -17 9.5z" />
<glyph unicode="&#xfc;" horiz-adv-x="1018" d="M99 141q0 49 10.5 114t33.5 134t54 139t73 135q-34 -21 -64 -44t-56 -47q-9 -6 -16.5 4t-1.5 20q52 55 149 113.5t185 92.5q16 0 24 -8t2 -20q-99 -129 -159 -279.5t-60 -292.5q0 -88 55 -88q41 0 99.5 53t123 141t130.5 199t121 223q10 18 54 37t90 19q47 0 28 -24 q-44 -80 -75.5 -149.5t-53 -137t-32.5 -136.5t-11 -151q0 -100 52 -100t116 94q10 6 19.5 0t6.5 -18q-52 -80 -115 -122t-116 -42q-129 0 -129 150q0 156 56 310q-118 -211 -247 -335.5t-217 -124.5q-129 0 -129 141zM390 1038q0 18 10 41t27.5 45t40 37t50.5 15 q16 0 29 -18t13 -36q0 -24 -10 -51t-27.5 -48t-39 -37t-43.5 -16q-20 0 -35 20.5t-15 47.5zM668 1038q0 18 11 41t29.5 45t42 37t49.5 15q16 0 30 -18t14 -36q0 -24 -11 -51t-29 -48t-40 -37t-43 -16t-37 20.5t-16 47.5z" />
<glyph unicode="&#xfd;" horiz-adv-x="961" d="M-543 -464q0 68 45.5 132.5t125.5 91.5q12 3 19 -6t-1 -18q-50 -52 -48 -132q0 -129 79.5 -209.5t230.5 -80.5q108 0 197 34t167 120t152 231t150 363q38 102 66.5 181t59.5 175q-58 -91 -119.5 -168.5t-124.5 -132.5t-121.5 -86t-106.5 -31q-62 0 -89.5 37t-27.5 101 q0 108 44.5 247.5t120.5 268.5q-34 -21 -61 -39.5t-51 -42.5q-10 -6 -18 4t-2 20q21 20 58.5 46.5t80.5 51t87 49.5t88 43q30 0 25 -27q-49 -61 -87.5 -136t-66 -151t-42 -149.5t-14.5 -132.5q0 -85 55 -85q50 0 117.5 61.5t133.5 151.5t123 193.5t87 186.5q12 30 67.5 59 t99.5 29q26 0 20 -21q-67 -191 -133 -371t-137 -370q-152 -396 -382 -583.5t-488 -187.5q-178 0 -278.5 83.5t-100.5 199.5zM578 976q0 12 8 23q44 27 100 76t100 101q21 12 66 -4.5t88 -34.5q10 -3 11 -13t-5 -16q-30 -20 -75 -40.5t-94 -38.5t-98 -35.5t-89 -29.5 q-12 0 -12 12z" />
<glyph unicode="&#xfe;" horiz-adv-x="906" d="M-105 -700q0 146 52.5 351t132.5 435q-6 12 -12 23t-12 23q0 15 49 27q53 147 112 295t117.5 288t114 264.5t101.5 225.5q59 128 52.5 157.5t-40.5 11.5q-20 -12 -46.5 -33.5t-51.5 -51.5q-6 -4 -15 5t-3 19q20 20 54 49.5t71.5 54t74 41.5t64.5 17q37 0 47.5 -27 t-4.5 -65q-6 -18 -33.5 -82.5t-66 -154t-82 -192t-81.5 -195t-69 -161.5t-40 -91q30 44 69 88t83.5 81.5t93 60t97.5 22.5q71 0 111.5 -66t40.5 -154q0 -126 -51 -229t-133.5 -179t-190.5 -117t-219 -41q-52 0 -88 12q-50 -153 -93 -324t-43 -318q0 -70 71 -56 q24 4 45.5 13.5t45.5 21.5q10 3 13.5 -11t-2.5 -24q-18 -8 -54 -20t-75.5 -22t-79.5 -16t-68 -6q-59 0 -59 50zM225 94q49 -32 135 -32q147 0 252.5 114t105.5 334q0 76 -27.5 123t-81.5 47q-71 0 -170 -126t-178 -354q-9 -24 -18 -50.5t-18 -55.5z" />
<glyph unicode="&#xff;" horiz-adv-x="961" d="M-543 -464q0 68 45.5 132.5t125.5 91.5q12 3 19 -6t-1 -18q-50 -52 -48 -132q0 -129 79.5 -209.5t230.5 -80.5q108 0 197 34t167 120t152 231t150 363q38 102 66.5 181t59.5 175q-58 -91 -119.5 -168.5t-124.5 -132.5t-121.5 -86t-106.5 -31q-62 0 -89.5 37t-27.5 101 q0 108 44.5 247.5t120.5 268.5q-34 -21 -61 -39.5t-51 -42.5q-10 -6 -18 4t-2 20q21 20 58.5 46.5t80.5 51t87 49.5t88 43q30 0 25 -27q-49 -61 -87.5 -136t-66 -151t-42 -149.5t-14.5 -132.5q0 -85 55 -85q50 0 117.5 61.5t133.5 151.5t123 193.5t87 186.5q12 30 67.5 59 t99.5 29q26 0 20 -21q-67 -191 -133 -371t-137 -370q-152 -396 -382 -583.5t-488 -187.5q-178 0 -278.5 83.5t-100.5 199.5zM440 1038q0 18 10 41t27.5 45t40 37t50.5 15q16 0 29 -18t13 -36q0 -24 -10 -51t-27.5 -48t-39 -37t-43.5 -16q-20 0 -35 20.5t-15 47.5zM718 1038 q0 18 11 41t29.5 45t42 37t49.5 15q16 0 30 -18t14 -36q0 -24 -11 -51t-29 -48t-40 -37t-43 -16t-37 20.5t-16 47.5z" />
<glyph unicode="&#x152;" horiz-adv-x="2706" d="M214 712q0 156 45 311.5t126 296t194 261.5t248 208t287 138t314 51q159 0 282.5 -49t212.5 -138q77 83 210 135t324 52q83 0 158.5 -15.5t131 -39.5t87.5 -56.5t32 -63.5q0 -24 -11 -60.5t-27.5 -74.5t-34 -70t-25.5 -44q-6 -6 -17 0t-7 20q18 34 25 73t-13 83 q-38 76 -136 130t-234 54q-184 0 -275.5 -85t-91.5 -223q0 -108 72 -183t247 -127q10 -6 -1.5 -22.5t-28 -37t-38.5 -35.5t-34 -19q-340 15 -526 -145.5t-186 -476.5q0 -108 31 -200.5t91 -160t145 -105.5t193 -38q252 0 412 117t230 377q10 16 21 10t14 -26 q-41 -172 -90 -285.5t-91 -131.5q-130 -59 -262 -88t-313 -29q-301 0 -451 141q-120 -67 -251 -104t-269 -37q-172 0 -305.5 54t-226 151t-140.5 226t-48 281zM402 814q0 -158 46.5 -289.5t137 -224t221.5 -142.5t299 -50q152 0 307 76q-95 114 -95 302q0 147 58 271.5 t161.5 222.5t244.5 166t308 98q-114 49 -185 132.5t-71 189.5v10q-76 130 -209 208t-329 78q-206 0 -371.5 -81t-281 -223t-178.5 -334t-63 -410z" />
<glyph unicode="&#x153;" horiz-adv-x="1219" d="M92 225q0 89 39 187t102 181t145 138t172 55q80 0 129 -47t62 -127q61 80 138 127t156 47t132 -49t53 -104q0 -175 -464 -243q-3 -27 -4.5 -59.5t-1.5 -66.5q0 -76 37 -119t113 -43q62 0 122 34t100 84q12 6 18 -4t3 -22q-61 -80 -155 -137t-202 -57q-99 0 -146.5 44 t-55.5 126q-53 -80 -125 -125t-155 -45q-108 0 -160 63t-52 162zM243 310q0 -110 38.5 -164t99.5 -54q95 0 159 102t64 276q0 91 -36.5 153.5t-107.5 62.5q-98 0 -157.5 -95.5t-59.5 -280.5zM762 436q147 16 217.5 57t70.5 103q0 46 -27 78t-71 32q-70 0 -121 -66t-69 -204z " />
<glyph unicode="&#x178;" horiz-adv-x="2149" d="M21 135q0 117 48 227t138.5 201t222.5 152.5t304 79.5q14 -3 13.5 -15t-17.5 -27q-140 -18 -240 -64.5t-164.5 -117t-94 -161t-29.5 -192.5q0 -234 142 -367t409 -133q197 0 373 67.5t345.5 226t341 419.5t362.5 647q-85 -140 -189 -262t-215.5 -212.5t-228.5 -141.5 t-231 -51q-147 0 -211.5 78.5t-46.5 222.5q24 170 75 339t100 326q50 153 70 247t16.5 145.5t-26 69t-60.5 17.5q-70 0 -133 -54t-96 -110q-12 -9 -23.5 0.5t-7.5 25.5q26 49 71 96.5t98 84t110.5 58t116.5 21.5q52 0 87 -27.5t45 -90.5t-6 -165.5t-65 -252.5 q-61 -191 -110 -343.5t-75 -306.5q-18 -132 19 -199.5t157 -67.5q267 0 555.5 354.5t636.5 1049.5q35 30 79.5 39.5t82.5 9.5t32 -31q-316 -677 -594.5 -1126t-539.5 -720t-516 -382.5t-528 -111.5q-290 0 -446.5 147t-156.5 381zM1868 2102q0 30 30.5 72t79.5 42 q28 0 28 -41q0 -43 -30 -84.5t-74 -41.5q-34 0 -34 53zM2102 2102q0 30 30.5 72t77.5 42q26 0 26 -41q0 -43 -30.5 -84.5t-67.5 -41.5q-38 0 -36 53z" />
<glyph unicode="&#x2c6;" horiz-adv-x="601" d="M69 995.5q-5 9.5 1 21.5q53 30 114.5 82.5t111.5 114.5q14 14 36 -4q37 -52 90.5 -92t111.5 -68q15 -15 -16.5 -36t-71.5 -15q-53 21 -97.5 43t-87.5 48q-73 -52 -175 -104q-12 0 -17 9.5z" />
<glyph unicode="&#x2dc;" horiz-adv-x="681" d="M64 1020q38 44 87 82t83 47q21 6 41.5 -4.5t44.5 -24.5t54.5 -28t77.5 -14q46 0 78 20t56 60q10 6 22.5 1.5t9.5 -13.5q-34 -56 -81.5 -100t-134.5 -44q-40 0 -70 12t-53.5 25.5t-44 25t-38.5 11.5q-24 -4 -48.5 -22.5t-59.5 -51.5q-30 -6 -24 18z" />
<glyph unicode="&#x2000;" horiz-adv-x="1175" />
<glyph unicode="&#x2001;" horiz-adv-x="2350" />
<glyph unicode="&#x2002;" horiz-adv-x="1175" />
<glyph unicode="&#x2003;" horiz-adv-x="2350" />
<glyph unicode="&#x2004;" horiz-adv-x="783" />
<glyph unicode="&#x2005;" horiz-adv-x="587" />
<glyph unicode="&#x2006;" horiz-adv-x="391" />
<glyph unicode="&#x2007;" horiz-adv-x="391" />
<glyph unicode="&#x2008;" horiz-adv-x="293" />
<glyph unicode="&#x2009;" horiz-adv-x="470" />
<glyph unicode="&#x200a;" horiz-adv-x="130" />
<glyph unicode="&#x2010;" horiz-adv-x="751" d="M118.5 456q19.5 42 59.5 54q41 3 104.5 9t135 10.5t139 7.5t119.5 3q12 -6 12 -22.5t-12.5 -37t-32 -38.5t-41.5 -24q-56 0 -122 -2t-132 -3.5t-127.5 -3t-100.5 -1.5q-21 6 -1.5 48z" />
<glyph unicode="&#x2011;" horiz-adv-x="751" d="M118.5 456q19.5 42 59.5 54q41 3 104.5 9t135 10.5t139 7.5t119.5 3q12 -6 12 -22.5t-12.5 -37t-32 -38.5t-41.5 -24q-56 0 -122 -2t-132 -3.5t-127.5 -3t-100.5 -1.5q-21 6 -1.5 48z" />
<glyph unicode="&#x2012;" horiz-adv-x="751" d="M118.5 456q19.5 42 59.5 54q41 3 104.5 9t135 10.5t139 7.5t119.5 3q12 -6 12 -22.5t-12.5 -37t-32 -38.5t-41.5 -24q-56 0 -122 -2t-132 -3.5t-127.5 -3t-100.5 -1.5q-21 6 -1.5 48z" />
<glyph unicode="&#x2013;" horiz-adv-x="1536" d="M66 472q8 26 42 29q50 3 157 6t240.5 4.5t281 1.5h281.5h241h159q10 -6 5 -18t-20.5 -24.5t-33.5 -23.5t-36 -11q-79 4 -190 7t-239 4t-260 1h-252t-218 -3t-156 -5q-10 6 -2 32z" />
<glyph unicode="&#x2014;" horiz-adv-x="3072" d="M66 472q8 26 42 29q38 3 174 6t334 4.5t442 1.5h496h495h442.5h336h176.5q10 -6 5 -18t-20.5 -24.5t-33.5 -23.5t-36 -11q-59 4 -203.5 5t-342.5 4t-432.5 3h-476.5h-473.5t-422 -1t-324 -3t-176.5 -4q-10 6 -2 32z" />
<glyph unicode="&#x2018;" horiz-adv-x="288" d="M170 894q0 102 76 205t200 173q12 0 15 -9t-9 -25q-65 -41 -106.5 -101.5t-41.5 -131.5q0 -67 34 -84q8 -9 -2 -31.5t-32 -46t-48 -40.5t-48 -17q-14 6 -26 38t-12 70z" />
<glyph unicode="&#x2019;" horiz-adv-x="288" d="M150.5 796q-3.5 10 8.5 24q65 41 107 101.5t42 131.5q0 67 -35 84q-9 9 1.5 32t32 46t48 40t47.5 17q15 -6 27.5 -38t12.5 -70q0 -102 -76 -205t-200 -173q-12 0 -15.5 10z" />
<glyph unicode="&#x201a;" horiz-adv-x="373" d="M6 -261q-3 9 9 24q65 41 107 102t42 132q0 67 -35 83q-9 8 1.5 31.5t32 47t48 39.5t47.5 16q15 -6 27.5 -38t12.5 -68q0 -102 -77 -205t-200 -173q-12 0 -15 9z" />
<glyph unicode="&#x201c;" horiz-adv-x="564" d="M170 894q0 102 76 205t200 173q12 0 15 -9t-9 -25q-65 -41 -106.5 -101.5t-41.5 -131.5q0 -67 34 -84q8 -9 -2 -31.5t-32 -46t-48 -40.5t-48 -17q-14 6 -26 38t-12 70zM446 894q0 102 76 205t200 173q12 0 15.5 -9t-9.5 -25q-65 -41 -106.5 -101.5t-41.5 -131.5 q0 -67 35 -84q9 -9 -2 -31.5t-32 -46t-47.5 -40.5t-47.5 -17q-15 6 -27.5 38t-12.5 70z" />
<glyph unicode="&#x201d;" horiz-adv-x="564" d="M150.5 796q-3.5 10 8.5 24q65 41 107 101.5t42 131.5q0 67 -35 84q-9 9 1.5 32t32 46t48 40t47.5 17q15 -6 27.5 -38t12.5 -70q0 -102 -76 -205t-200 -173q-12 0 -15.5 10zM427 796q-3 10 9 24q65 41 106.5 101.5t41.5 131.5q0 67 -34 84q-8 9 2 32t31 46t48 40t49 17 q14 -6 26 -38t12 -70q0 -102 -76 -205t-200 -173q-12 0 -15 10z" />
<glyph unicode="&#x201e;" horiz-adv-x="651" d="M6 -261q-3 9 9 24q65 41 107 102t42 132q0 67 -35 83q-9 8 1.5 31.5t32 47t48 39.5t47.5 16q15 -6 27.5 -38t12.5 -68q0 -102 -77 -205t-200 -173q-12 0 -15 9zM282.5 -261q-3.5 9 9.5 24q65 41 106.5 102t41.5 132q0 67 -35 83q-9 8 2 31.5t32 47t47.5 39.5t47.5 16 q15 -6 27.5 -38t12.5 -68q0 -102 -76 -205t-200 -173q-12 0 -15.5 9z" />
<glyph unicode="&#x2022;" horiz-adv-x="634" d="M170 428q0 79 60 143.5t157 64.5q61 0 101 -38t40 -100q0 -88 -61 -153.5t-159 -65.5q-71 0 -104.5 40.5t-33.5 108.5z" />
<glyph unicode="&#x2026;" horiz-adv-x="1228" d="M92 74q0 18 12.5 42.5t33.5 48t48.5 38.5t56.5 15q18 0 33.5 -14t15.5 -34q0 -24 -12.5 -56t-33.5 -56t-46.5 -41t-46.5 -17q-27 0 -44 15t-17 59zM522 74q0 18 13 42.5t34 48t48.5 38.5t56.5 15q18 0 33 -14t15 -34q0 -24 -12 -56t-34 -56t-47 -41t-45 -17q-28 0 -45 15 t-17 59zM952 74q0 18 12 42.5t34 48t50 38.5t54 15q18 0 34 -14t16 -34q0 -24 -12 -56t-34 -56t-46.5 -41t-45.5 -17q-27 0 -44.5 15t-17.5 59z" />
<glyph unicode="&#x202f;" horiz-adv-x="470" />
<glyph unicode="&#x2039;" horiz-adv-x="604" d="M59 346q3 14 15 26q116 105 251 209.5t259 189.5q20 6 28.5 -15.5t-20.5 -39.5q-43 -28 -99.5 -71t-113.5 -87.5t-111 -89t-84 -75.5q65 -53 135.5 -126t114.5 -135q6 -15 0 -38.5t-19 -45t-29.5 -33.5t-35.5 -6q-59 89 -138.5 173.5t-143.5 137.5q-12 12 -9 26z" />
<glyph unicode="&#x203a;" horiz-adv-x="564" d="M-35.5 23.5q-8.5 20.5 17.5 40.5q38 35 86.5 77.5t102.5 87t105.5 86.5t95.5 72q-34 24 -69.5 63t-71 80.5t-64.5 84t-50 79.5q-6 16 9 34.5t35.5 32t43.5 18t38 -7.5q47 -89 116 -173.5t136 -139.5q12 -10 9 -25t-15 -25q-126 -88 -261 -196t-237 -203 q-18 -6 -26.5 14.5z" />
<glyph unicode="&#x205f;" horiz-adv-x="587" />
<glyph unicode="&#x20ac;" horiz-adv-x="1155" d="M4.5 390q7.5 12 29.5 25t49.5 23t51.5 14q6 0 13.5 1t17.5 1q4 22 8 40.5t10 39.5q-30 -6 -60 -9t-56 -9q-16 3 -8 15t28 24.5t48 23.5t52 13h20q71 156 221.5 263t356.5 107q99 0 159 -37t60 -81q0 -26 -15.5 -80t-31.5 -98q-6 -6 -20 2t-11 20q30 71 -6 130 q-24 37 -75 61t-116 24q-140 0 -240 -78t-144 -227q80 4 173 2t193 -2q16 -6 13 -18t-27 -14q-89 -4 -181.5 -7t-182.5 -9q-6 -20 -7 -42t-5 -48q77 0 160.5 -1t174.5 -1q15 -6 12 -17t-27 -17q-164 0 -320 -10v-15q0 -175 63 -265t169 -90q79 0 136 44t93 146q9 9 20 7.5 t11 -13.5q-20 -74 -46.5 -134t-55.5 -70q-30 -9 -82 -16.5t-105 -7.5q-181 0 -275 89t-94 265v42q-38 -3 -72 -9t-72 -12q-15 3 -7.5 15z" />
<glyph unicode="&#x2122;" horiz-adv-x="1212" d="M156 923q8 11 32 15q37 6 90.5 10t111.5 7t117 5t105 2q12 -4 -2 -24t-30 -26q-34 0 -71 1.5t-75 1.5q-28 -53 -49.5 -107.5t-46.5 -127.5q-22 -62 -22 -118q-2 -12 -31.5 -26t-64.5 -14q-14 0 -14 18q24 94 61 186t79 165q10 12 38 24q-58 0 -112 -1.5t-106 -4.5 q-18 3 -10 14zM488 504.5q-10 32.5 4 49.5q70 98 168.5 208.5t189.5 193.5q6 6 14.5 0t8.5 -12q-18 -80 -27.5 -147t-19.5 -137q53 74 119 151t145 147q16 10 16 -12q-28 -70 -38 -150t-10 -160q0 -34 6 -45t24 -11q20 0 30 12q6 6 12.5 -1t3.5 -13q-15 -16 -49.5 -36 t-58.5 -20t-37 16t-13 58q0 58 6 119.5t17 116.5q-61 -70 -106 -128.5t-101 -141.5q-9 -14 -21 -27t-24 -13t-13 12q18 182 40 308q-74 -77 -131 -160.5t-124 -203.5q-21 -6 -31 26.5z" />
<glyph unicode="&#x25fc;" horiz-adv-x="783" d="M0 0v783h783v-783h-783z" />
<glyph unicode="&#xfb01;" horiz-adv-x="967" d="M-906 -574q0 79 56 150q8 6 16 1t8 -13q-16 -30 -13 -65.5t26.5 -66t71 -51t120.5 -20.5q91 0 171.5 17.5t152.5 66t140.5 136t137.5 231.5t144 352t165 493q6 15 9 26t9 27q-62 -6 -114.5 -12t-94.5 -16q-15 4 -7.5 16t27 24t47.5 23t52 14t52 4.5t56 1.5 q122 381 262 659t287.5 456t300 264t302.5 86q58 0 99 -29t63 -75.5t20.5 -101t-25.5 -110.5q-18 -18 -31 9q-6 61 -66 107t-196 46q-126 0 -222.5 -38t-190 -172t-198 -393t-242.5 -702h109t112 3q70 0 125.5 3t108.5 9q18 -9 14 -27q-43 -61 -85.5 -143t-70.5 -162 q-34 -85 -54 -163.5t-20 -131.5q0 -65 43 -65q35 0 67 29.5t74 78.5q6 6 16 -3t4 -21q-65 -79 -133.5 -128.5t-129.5 -49.5q-108 0 -107 102q0 58 21 142t56 175t77.5 176t85.5 143q-37 0 -129.5 -4t-200.5 -10l-18 -64q-120 -384 -258 -652.5t-287 -436t-304 -244.5 t-305 -77q-102 0 -154 49.5t-52 126.5zM903 978.5q0 20.5 9 35.5q34 46 100 111.5t137 112.5q9 2 18 -5t3 -13q-64 -59 -123 -140t-101 -162q-8 -9 -19.5 0t-17.5 24.5t-6 36z" />
<glyph unicode="&#xfb02;" horiz-adv-x="988" d="M-909 -574q0 82 59 150q8 6 16 1t4 -13q-14 -30 -10 -65.5t27.5 -66t69 -51t119.5 -20.5q92 0 172 17.5t152 66t140 136t139 231.5t146 352t165 493q6 15 7 28t7 27q-55 -6 -107.5 -13t-102.5 -17q-14 4 -4.5 16t29 24t47.5 23t52 14t49 4.5t55 1.5q114 349 249 620 t281.5 452.5t299.5 274.5t304 93q53 0 98.5 -21t73.5 -56q82 71 162 113t154 42q46 0 75.5 -23.5t38.5 -61.5t1.5 -87.5t-34.5 -98.5q-6 -6 -15.5 -2t-9.5 18q6 38 -26.5 62t-103.5 24q-126 0 -253 -94t-245 -248t-223 -353t-181.5 -411.5t-121 -422.5t-44.5 -383 q0 -88 52 -88q37 0 72.5 31t78.5 92q12 6 19.5 -1.5t4.5 -23.5q-61 -92 -144 -152t-151 -60q-62 0 -84.5 32t-22.5 85q0 117 39.5 277t107.5 344q-70 0 -145 -4t-157 -10q-6 -14 -10 -31t-10 -33q-120 -384 -258 -652.5t-287.5 -436t-303 -244.5t-303.5 -77 q-106 0 -157.5 49.5t-51.5 126.5zM486 771q74 0 150 1.5t150 1.5q64 170 149 344.5t182 340t201 315t212 260.5q-34 18 -71 28.5t-89 10.5q-83 0 -155 -13.5t-139.5 -61.5t-132 -133.5t-135 -232t-150.5 -356.5t-172 -505z" />
</font>
</defs>
</svg>
