<svg xmlns="http://www.w3.org/2000/svg" width="1024" height="1024" viewBox="0 0 1024 1024"><path d="M511.36 460.8q26.496 0 38.016-16.705t11.52-32.833q0-11.52-6.337-24.192t-13.83-31.68q-7.49-19.01-14.98-47.233-7.49-28.225-9.8-70.85 38.01 24.193 59.9 48.385t36.86 42.624 26.49 29.952 29.95 11.52q24.19 0 36.29-15.553t12.09-32.833q0-16.128-6.91-25.92t-17.28-15.554q-8.07-4.608-21.32-5.185t-33.99-4.033-50.11-12.097-69.7-28.225q40.32-19.584 69.7-28.225t50.11-12.097 33.98-4.033 21.31-5.185q10.37-5.76 17.28-15.553t6.91-25.92q0-17.28-12.097-32.834t-36.27-15.55q-18.43 0-29.95 11.52T612.7 132.47t-36.86 42.63-59.9 48.38q2.31-42.62 9.79-70.85t15.56-47.23q8.06-19.01 14.4-31.68t6.335-24.19q0-16.13-11.52-32.83t-38-16.72-38.016 16.7-11.52 32.84q0 11.52 6.333 24.19t13.824 31.68q7.48 19.01 14.97 47.24 7.49 28.22 9.79 70.84-38.01-24.19-59.9-48.38t-36.86-42.62-26.49-29.96-29.95-11.52q-24.19 0-36.29 15.55t-12.09 32.84q0 16.13 6.91 25.92t17.28 15.55q8.07 4.61 20.74 5.18t33.41 4.03 50.69 12.1 70.27 28.22q-41.47 19.58-70.85 28.22t-50.11 12.09-33.98 4.032-21.31 5.187q-10.37 5.76-17.28 15.55t-6.914 25.93q0 17.28 12.1 32.83t36.29 15.55q18.43 0 29.95-11.52t26.5-29.95 36.862-42.62 59.902-48.38q-2.304 42.62-9.22 70.85t-14.973 47.23q-8.066 19.01-14.4 31.68t-6.34 24.19q0 16.125 11.52 32.83t38.02 16.71zM206.208 1024q26.496 0 38.016-16.705t11.52-32.833q0-11.52-6.337-24.192t-13.824-31.68q-7.49-19.01-14.976-47.233-7.49-28.225-9.793-70.85 38.016 24.193 59.904 48.385t36.864 42.624 26.496 29.952 29.952 11.52q24.192 0 36.29-15.553t12.096-32.833q0-16.128-6.912-25.92t-17.28-15.554q-8.064-4.608-21.313-5.185t-33.98-4.033-50.11-12.097-69.69-28.225q40.32-19.584 69.7-28.225t50.12-12.097 33.99-4.033 21.32-5.185q10.37-5.76 17.28-15.553t6.91-25.92q0-17.28-12.1-32.834t-36.29-15.55q-18.43 0-29.95 11.52t-26.5 29.95-36.86 42.63-59.9 48.39q2.304-42.62 9.79-70.85t15.55-47.23q8.07-19.01 14.4-31.68t6.34-24.19q0-16.13-11.52-32.83t-38.014-16.7-38.012 16.71-11.52 32.84q0 11.52 6.335 24.19t13.8 31.68q7.49 19.01 14.975 47.23 7.49 28.23 9.795 70.85-38.02-24.19-59.91-48.38T106 695.68t-26.5-29.96-29.96-11.52q-24.19 0-36.29 15.552T1.16 702.58q0 16.128 6.91 25.92t17.28 15.554q8.064 4.6 20.736 5.18t33.408 4.03 50.69 12.097 70.27 28.23q-41.47 19.59-70.85 28.23t-50.11 12.1-33.985 4.04-21.32 5.19q-10.37 5.76-17.28 15.55T0 884.61q0 17.28 12.097 32.833T48.387 933q18.43 0 29.95-11.52t26.497-29.952 36.864-42.623 59.904-48.382q-2.304 42.623-9.216 70.85T177.41 918.6q-8.064 19.01-14.4 31.68t-6.338 24.192q0 16.123 11.52 32.83t38.014 16.7zm612.352 0q26.496 0 38.016-16.703 11.52-16.705 11.52-32.833 0-11.52-6.337-24.192t-13.83-31.68q-7.49-19.01-14.98-47.233-7.49-28.23-9.8-70.85 38.01 24.19 59.9 48.38t36.86 42.62 26.49 29.95 29.95 11.52q24.19 0 36.29-15.56 12.09-15.56 12.09-32.84 0-16.13-6.92-25.92t-17.28-15.56q-8.06-4.61-21.31-5.19t-33.99-4.03-50.11-12.09-69.7-28.23q40.32-19.59 69.7-28.23t50.112-12.09 33.986-4.04 21.32-5.183q10.37-5.76 17.28-15.56t6.915-25.92q0-17.28-12.094-32.834-12.095-15.55-36.29-15.55-18.43 0-29.95 11.52t-26.494 29.95-36.865 42.623-59.9 48.387q2.308-42.62 9.797-70.85t15.55-47.23q8.07-19.01 14.4-31.68t6.34-24.19q0-16.13-11.52-32.832t-38.01-16.7-38.01 16.71-11.52 32.836q0 11.52 6.332 24.19t13.822 31.68q7.49 19.01 14.98 47.24 7.49 28.223 9.8 70.85-38.02-24.195-59.907-48.387t-36.87-42.624-26.497-29.95-29.96-11.52q-24.19 0-36.29 15.55t-12.1 32.84q0 16.13 6.91 25.92t17.28 15.56q8.066 4.605 20.74 5.18t33.41 4.03 50.69 12.1 70.28 28.24q-41.47 19.587-70.85 28.23t-50.11 12.094-33.98 4.03-21.31 5.184q-10.37 5.76-17.28 15.552t-6.91 25.92q0 17.28 12.093 32.83t36.29 15.55q18.43 0 29.95-11.52t26.5-29.95 36.86-42.63 59.906-48.39q-2.31 42.62-9.22 70.85t-14.98 47.23q-8.07 19.01-14.4 31.68t-6.34 24.19q0 16.13 11.52 32.83 11.52 16.71 38.012 16.71z"/></svg>