<svg xmlns="http://www.w3.org/2000/svg" width="1024" height="1024" viewBox="0 0 1024 1024"><path d="M955.008 768C998.88 692.64 1024 605.504 1024 512 1024 229.248 794.752 0 512 0S0 229.248 0 512s229.248 512 512 512c141.376 0 269.376-57.248 361.984-150.016L783.36 783.36C713.888 852.992 617.888 896 512 896c-211.744 0-384-172.256-384-384s172.256-384 384-384 384 172.256 384 384c0 45.504-8.736 88.992-23.36 129.504L871.616 640H768V257.376H512c-141.376 0-256 114.624-256 256s114.624 256 256 256c58.752 0 112.256-20.64 155.488-53.888C690.752 746.496 726.24 768 768 768h187.008zM640 448.256v65.12c0 70.624-57.504 128-128 128s-128-57.376-128-128 57.504-128 128-128h128v62.88z"/></svg>