<svg xmlns="http://www.w3.org/2000/svg" width="1024" height="1024" viewBox="0 0 1024 1024"><path d="M906.666 213.334H768v-128C768 38.188 729.814 0 682.666 0H341.334C294.188 0 256 38.186 256 85.334v128H117.334c-29.44 0-53.334 23.892-53.334 53.332S87.894 320 117.334 320h32v618.666c0 47.146 38.186 85.334 85.334 85.334h554.666c47.146 0 85.334-38.186 85.334-85.334L874.666 320h32c29.44 0 53.334-23.894 53.334-53.334s-23.894-53.332-53.334-53.332zm-245.332 0H362.666V153.6a46.8 46.8 0 0 1 46.934-46.934h204.8a46.8 46.8 0 0 1 46.934 46.934v59.734zM362.666 362.666v512c0 23.466-19.2 42.666-42.666 42.666s-42.666-19.2-42.666-42.666v-512C277.334 339.2 296.534 320 320 320s42.666 19.2 42.666 42.666zm192 0v512c0 23.466-19.2 42.666-42.666 42.666s-42.666-19.2-42.666-42.666v-512C469.334 339.2 488.534 320 512 320s42.666 19.2 42.666 42.666zm192 0v512c0 23.466-19.2 42.666-42.666 42.666s-42.666-19.2-42.666-42.666v-512C661.334 339.2 680.534 320 704 320s42.666 19.2 42.666 42.666z"/></svg>