<svg xmlns="http://www.w3.org/2000/svg" width="1024" height="1024" viewBox="0 0 1024 1024"><path d="M129.3 281.596S84.916 671.41 247.037 828.13c97.645 129.45 452.37 15.915 691.635 83.87 0 0-320.452-119.858-332.637-416.888-6.746-164.546-171.767-372.196-453.56-258.58L42.467 130.743 86.85 236.53 0 252.208zm429.436 422.147c-24.124-8.81-283.708-135.157-152.476-215.478 131.25-80.32 152.476 215.478 152.476 215.478zM330.302 305.196c75.783 38.928 10.857 69.496-27.15 32.987-29.844-28.078-16.834-52.45 27.15-32.987zm522.526 36.812s-9.627-172.182-123.52-130.272c-88.782 36.237-7.712 138.1 0 145.947 18.648 24.35 75.272 98.92 15.446 174.337 0 0 262.483 37.218 278.894-125.367 8.68-127.33-145.73-84.245-170.82-64.645z"/></svg>