<svg xmlns="http://www.w3.org/2000/svg" width="1024" height="1024" viewBox="0 0 1024 1024"><path d="M515.584 1024q58.88 0 84.48-37.12t25.6-72.96q0-25.6-14.08-53.76t-30.72-70.4-33.28-104.96-21.76-157.44q84.48 53.76 133.12 107.52t81.92 94.72 58.88 66.56 66.56 25.6q53.76 0 80.64-34.56t26.88-72.96q0-35.84-15.36-57.6t-38.4-34.56q-17.92-10.24-47.36-11.52t-75.52-8.96-111.36-26.88T530.944 512q89.6-43.52 154.88-62.72t111.36-26.88 75.52-8.96 47.36-11.52q23.04-12.8 38.4-34.56t15.36-57.6q0-38.4-26.88-72.96t-80.64-34.56q-40.96 0-66.56 25.6t-58.88 66.56-81.92 94.72-133.12 107.52q5.12-94.72 21.76-157.44t34.56-104.96 32-70.4 14.08-53.76q0-35.84-25.6-72.96T518.144 0t-84.48 37.12-25.6 72.96q0 25.6 14.08 53.76t30.72 70.4 33.28 104.96 21.76 157.44q-84.48-53.76-133.12-107.52t-81.92-94.72-58.88-66.56-66.56-25.6q-53.76 0-80.64 34.56t-26.88 72.96q0 35.84 15.36 57.6t38.4 34.56q17.92 10.24 46.08 11.52t74.24 8.96 112.64 26.88T502.784 512q-92.16 43.52-157.44 62.72t-111.36 26.88-75.52 8.96-47.36 11.52q-23.04 12.8-38.4 34.56t-15.36 57.6q0 38.4 26.88 72.96t80.64 34.56q40.96 0 66.56-25.6t58.88-66.56 81.92-94.72 133.12-107.52q-5.12 94.72-20.48 157.44t-33.28 104.96-32 70.4-14.08 53.76q0 35.84 25.6 72.96t84.48 37.12z"/></svg>