<svg xmlns="http://www.w3.org/2000/svg" width="1024" height="1024" viewBox="0 0 1024 1024"><path d="M477 .156l18.313 190.875L337.97 80.66l-40.25 68.28 174.404 81.095-174.406 81.72 40.25 67.688 157.342-110.38L477 459.94h80.5l-17.688-190.875 156.72 110.375 39.624-67.688-173.78-81.72 173.78-81.093-39.625-68.28-156.71 110.37L557.5.156H477zM179.28 564.22l18.282 190.874L40.25 644.72 0 713l174.406 81.125L0 875.813 40.25 943.5l157.313-110.375L179.28 1024h80.5l-17.686-190.875L398.814 943.5l39.623-67.688-173.78-81.687L438.437 713l-39.626-68.28L242.1 755.094 259.78 564.22h-80.5zm585.47 0l18.28 190.874L625.72 644.72 585.47 713l174.405 81.125-174.406 81.688 40.25 67.687 157.31-110.375L764.75 1024h80.5l-17.688-190.875L984.282 943.5l39.625-67.688-173.78-81.687L1023.905 713l-39.625-68.28-156.717 110.374L845.25 564.22h-80.5z"/></svg>