<svg xmlns="http://www.w3.org/2000/svg" width="1024" height="1024" viewBox="0 0 1024 1024"><path d="M434.592 960.224c227.264 0 427.872-125.952 427.872-335.84 0-76.576-35.808-123.488-50.816-148.192-12.512-14.816-12.512-27.168 17.504-29.632 117.344-17.28 194.752-81.504 194.752-204.96 0-66.688-54.944-146.88-154.816-146.88-47.424 0-105.376 45.632-105.376 95.008 0 27.2 27.968 59.648 67.904 59.648 44.96 0 70.432-47.296 62.944-67.072-2.464-12.352-10.464-27.168 6.976-27.168 32.512 0 69.952 41.984 69.952 81.504 0 69.152-64.928 116.672-167.328 116.672-54.944 0-102.368-33.888-154.816-33.888-132.352 0-209.76 104.896-209.76 196.288 0 103.712 79.904 153.088 139.84 153.088 67.392 0 87.392-39.488 87.392-71.616 0-37.024-22.496-61.728-69.952-61.728-37.44 0-54.944 39.488-52.448 59.264 2.496 9.888-4.992 17.28-12.512 17.28-9.984 0-39.936-32.096-39.936-74.048 0-29.664 20-127.136 124.864-127.136 112.352 0 190.624 102.4 190.624 186.368 0 118.528-133.216 244.512-360.448 244.512-227.264 0-357.088-103.712-357.088-254.368 0-69.152 29.984-133.344 67.392-160.512 15.008-9.888 22.496-7.392 29.984 4.928 17.504 12.352 57.44 45.632 82.4 45.632 32.48 0 49.952-40.672 49.952-75.296 0-29.632-34.944-49.984-64.896-49.984s-49.952 17.888-62.432 22.816c-17.472-27.168-27.456-61.728-27.456-88.896 0-79.008 57.44-128.608 112.384-128.608 47.424 0 87.392 37.216 79.904 84.16-2.496 12.352-2.496 22.208 2.496 22.208 19.968 0 64.896-29.632 64.896-83.968 0-76.544-57.408-116.064-132.352-116.064-122.336 0-197.248 86.432-197.248 177.824 0 54.304 19.968 103.712 52.448 145.696C97.44 409.472.064 493.44.064 641.632c.032 125.952 87.424 318.592 434.528 318.592z"/></svg>