<svg xmlns="http://www.w3.org/2000/svg" width="1024" height="1024" viewBox="0 0 1024 1024"><path d="M919.636 368.56c-32.855 0-55.838-8.145-61.497-21.783-5.66-13.634 4.81-35.626 27.992-58.834l70.607-70.607L784.772 45.43l-70.55 70.552C688.51 141.688 671.3 145.53 663.33 145.53c-5.877 0-10.547-1.93-14.693-6.088-5.62-5.636-15.036-20.503-14.96-56.81l-.12-2.046v-97.782H390.475v100.04c-.043 14.67-2.318 62.696-29.85 62.696-7.96 0-25.144-3.84-50.845-29.554l-70.59-70.553L67.286 217.335l70.542 70.607c23.207 23.197 33.688 45.184 28.04 58.828-5.65 13.64-28.608 21.79-61.413 21.79H4.625v243.175h99.832c32.8 0 55.756 8.146 61.41 21.784 5.656 13.65-4.824 35.66-28.033 58.88l-70.548 70.55 171.912 171.98 70.586-70.62c25.686-25.673 42.876-29.51 50.83-29.51 27.546 0 29.82 47.996 29.864 62.703V997.55h243.087v-97.776l.12-2.024c-.075-36.323 9.34-51.19 14.96-56.82 4.152-4.163 8.827-6.1 14.71-6.1 7.97 0 25.182 3.83 50.89 29.49l70.53 70.607L956.75 762.95l-70.618-70.557c-23.176-23.22-33.645-45.24-27.988-58.877s28.642-21.78 61.492-21.78h99.735V368.563h-99.74zM741.138 490.178c0 126.347-102.79 229.138-229.138 229.138s-229.138-102.79-229.138-229.138S385.652 261.04 512 261.04s229.138 102.79 229.138 229.137z"/></svg>