<svg xmlns="http://www.w3.org/2000/svg" width="1024" height="1024" viewBox="0 0 1024 1024"><path d="M957.066 822.462c0 39.555 22.615 73.797 55.634 90.57v13.854c-9.236 1.252-18.665 1.947-28.262 1.947-59.11 0-112.435-24.812-150.154-64.563-22.782 6.065-46.954 9.346-71.962 9.346-138.276 0-250.35-99.64-250.35-222.533S624.047 428.55 762.322 428.55s250.35 99.64 250.35 222.533c0 48.123-17.19 92.658-46.37 129.07a101.1 101.1 0 0 0-9.262 42.336zm-500.7-783.345c242.06 0 438.974 156.997 444.927 352.492-42.753-19.06-90.043-29.13-138.943-29.13-83.065 0-161.535 29.067-220.92 81.863-61.59 54.742-95.498 128.15-95.498 206.732 0 38.832 8.29 76.41 24.117 111.07l-13.688.196a546.885 546.885 0 0 1-69.403-4.395c-95.606 95.607-209.71 112.74-320.03 115.273v-23.39c59.583-29.18 111.266-82.367 111.266-143.118 0-8.484-.67-16.8-1.892-24.952-100.67-66.284-165.01-167.564-165.01-281.03.006-199.718 199.256-361.61 445.07-361.61z"/></svg>