<svg xmlns="http://www.w3.org/2000/svg" width="1168" height="1024" viewBox="0 0 1168 1024"><path d="M1063.296 253.696l105.088 14.848-93.44 49.472 67.744 61.888-98.08-12.384 60.704 126.24-121.44-91.584-100.448 121.28 46.72-150.944-147.168 79.2 102.752-111.36-7.04-27.392c-27.744 13.824-67.04 27.936-108.128 26.304-54.496 0-122.176-38.016-203.04-105.984 0 0-91.552-96.832-168.512-96.832-79.168 0-71.424 119.104-71.328 120.288h89.664v81.024c113.984 43.904 191.008 154.176 191.008 283.68 0 168-136.192 304.192-304.192 304.192S0 789.376 0 621.376C0 491.904 79.008 381.6 192.992 337.696v-81.024h80.128c-.096-.608-9.216-87.808 36.8-136.192 24.544-25.792 54.528-38.688 90.016-38.688 106.784 0 202.624 112.384 202.624 112.384 70.24 60.288 127.52 90.4 171.84 90.4 17.984 0 54.592-11.328 73.408-17.568l-57.824-45.504 100.448 7.392-77.056-118.784L939.488 199.2l14.016-84.16 23.328 76.736 93.44-111.36-21.024 123.744 107.424-24.736-93.376 74.272z"/></svg>