<svg xmlns="http://www.w3.org/2000/svg" width="1152" height="1024" viewBox="0 0 1152 1024"><path d="M480 0c265.096 0 480 173.914 480 388.448S745.096 776.896 480 776.896a595.29 595.29 0 0 1-74.834-4.71C302.06 874.88 182.994 893.294 64 896v-25.134c64.252-31.354 116-88.466 116-153.734 0-9.106-.712-18.048-2.03-26.794C69.412 619.124 0 510.35 0 388.448 0 173.914 214.904 0 480 0zm516 870.686c0 55.942 36.314 104.898 92 131.772V1024c-103.126-2.318-197.786-18.102-287.142-106.126a521.363 521.363 0 0 1-64.858 4.04c-95.47 0-183.408-25.758-253.614-69.04 144.674-.506 281.26-46.854 384.834-130.672 52.208-42.252 93.394-91.826 122.414-147.348C1020.4 515.988 1036 453.272 1036 388.448c0-10.448-.45-20.836-1.258-31.168C1107.312 417.214 1152 498.902 1152 588.956c0 104.488-60.158 197.722-154.24 258.764a152.354 152.354 0 0 0-1.76 22.966z"/></svg>