<svg xmlns="http://www.w3.org/2000/svg" width="1024" height="1024" viewBox="0 0 1024 1024"><path d="M832 128v65.504c0 70.752-57.248 128-128 128s-128-57.248-128-128V128H448v65.504c0 70.752-57.248 128-128 128s-128-57.248-128-128V128H0v896h1024V128H832zM320 896H192V768h128v128zm0-256H192V512h128v128zm256 256H448V768h128v128zm0-256H448V512h128v128zm128 256V768h128L704 896zm128-256H704V512h128v128zM256 192V64c0-35.36 28.64-64 64-64s64 28.64 64 64v128c0 35.36-28.64 64-64 64s-64-28.64-64-64zm384 0V64c0-35.36 28.64-64 64-64s64 28.64 64 64v128c0 35.36-28.64 64-64 64s-64-28.64-64-64z"/></svg>