<svg xmlns="http://www.w3.org/2000/svg" width="1024" height="1024" viewBox="0 0 1024 1024"><path d="M930.88 512c0-10.453-.81-20.715-1.568-30.987 40.98-13.11 73.29-25.62 94.22-36.78l-7.51-42.27c-23.488-3.382-58.123-4.172-101.11-2.582-5.695-20.11-12.81-39.58-21.343-58.33 33.93-26.19 59.94-48.89 75.74-66.45l-21.62-37.16c-23.26 4.79-56.1 15.82-95.97 31.92-12.23-16.83-25.51-32.82-40.05-47.63 22.83-36.11 39.45-66.26 48.23-88.11L826.77 106c-20.14 12.362-47.114 33.802-78.922 62.346-17.182-11.648-35.465-21.717-54.345-30.763C702.55 95.8 707.787 61.773 708.5 38.21l-40.63-14.67c-14.706 18.51-32.72 47.927-52.86 85.71-20.045-5.045-40.48-9.088-61.56-11.147-5.876-42.154-12.65-75.786-20.074-98.1h-43.243c-7.413 22.315-14.197 55.947-20.085 98.09-21.08 2.06-41.517 6.102-61.55 11.148-20.14-37.78-38.154-67.2-52.863-85.7L315.007 38.2c.706 23.552 5.965 57.59 15 99.37-18.89 9.046-37.164 19.116-54.348 30.764-31.82-28.544-58.8-49.995-78.94-62.347L163.6 133.57c8.79 21.86 25.41 52 48.246 88.12-14.56 14.817-27.84 30.806-40.053 47.638-39.883-16.096-72.725-27.125-95.98-31.915L54.21 274.57c15.787 17.558 41.803 40.257 75.744 66.454-8.544 18.752-15.66 38.22-21.344 58.336-42.987-1.58-77.62-.8-101.11 2.58L0 444.225c20.917 11.157 53.227 23.67 94.208 36.78-.757 10.282-1.568 20.543-1.568 30.996s.81 20.72 1.568 30.98c-40.98 13.13-73.29 25.63-94.208 36.8l7.5 42.27c23.487 3.38 58.122 4.17 101.108 2.58 5.685 20.12 12.8 39.59 21.344 58.34-33.94 26.2-59.947 48.89-75.744 66.46l21.61 37.16c23.254-4.78 56.097-15.81 95.98-31.91 12.213 16.84 25.493 32.81 40.053 47.63-22.84 36.13-39.45 66.28-48.24 88.14l33.12 27.58c20.15-12.35 47.13-33.79 78.94-62.35 17.18 11.66 35.46 21.72 54.35 30.76-9.04 41.79-14.29 75.81-14.99 99.36l40.63 14.68c14.71-18.49 32.73-47.91 52.86-85.7 20.04 5.06 40.47 9.1 61.55 11.16 5.89 42.16 12.67 75.78 20.09 98.09h43.24c7.43-22.31 14.2-55.93 20.09-98.09 21.08-2.06 41.518-6.1 61.56-11.15 20.14 37.797 38.16 67.216 52.868 85.71l40.63-14.675c-.713-23.55-5.96-57.58-14.995-99.36 18.88-9.047 37.15-19.106 54.35-30.765 31.807 28.556 58.794 49.996 78.92 62.35l33.12-27.57c-8.78-21.866-25.41-52.01-48.235-88.14 14.55-14.814 27.83-30.79 40.057-47.625 39.87 16.095 72.717 27.124 95.97 31.914l21.625-37.166c-15.79-17.57-41.814-40.26-75.745-66.456 8.53-18.75 15.65-38.22 21.34-58.333 42.97 1.58 77.61.8 101.11-2.58l7.505-42.273c-20.93-11.17-53.237-23.67-94.22-36.79.748-10.27 1.57-20.536 1.57-30.99zM671.34 263.104c25.172-24.992 66.004-24.992 91.178 0 25.184 24.992 25.184 65.515 0 90.507-25.173 25.01-66.005 25.01-91.18 0-25.183-24.99-25.183-65.51 0-90.5zM511.764 160c35.616 0 64.48 28.66 64.48 64s-28.864 64-64.48 64-64.48-28.66-64.48-64 28.864-64 64.48-64zM260.992 263.104c25.173-24.992 66.005-24.992 91.19 0s25.172 65.515 0 90.507c-25.174 25.01-66.006 25.01-91.19 0-25.184-24.99-25.184-65.51 0-90.5zM157.11 512c0-35.35 28.863-64 64.48-64s64.48 28.65 64.48 64-28.865 64-64.48 64-64.48-28.65-64.48-64zm195.07 248.896c-25.172 25.003-66.004 25.003-91.188 0-25.173-24.992-25.173-65.515 0-90.496 25.173-25.003 66.005-25.003 91.19 0 25.172 24.98 25.183 65.504 0 90.496zM511.766 864c-35.616 0-64.48-28.66-64.48-64 0-35.35 28.864-64 64.48-64s64.48 28.65 64.48 64c-.01 35.34-28.875 64-64.48 64zm0-192c-89.035 0-161.205-71.637-161.205-160s72.18-160 161.21-160 161.19 71.637 161.19 160-72.17 160-161.19 160zm250.752 88.896c-25.173 25.003-66.005 25.003-91.18 0-25.183-24.992-25.183-65.515 0-90.496 25.174-25.003 66.006-25.003 91.18 0 25.195 24.98 25.195 65.504 0 90.496zM801.92 576c-35.605 0-64.48-28.65-64.48-64s28.875-64 64.48-64c35.616 0 64.48 28.65 64.48 64s-28.864 64-64.48 64z"/></svg>