<svg xmlns="http://www.w3.org/2000/svg" width="1024" height="1024" viewBox="0 0 1024 1024"><path d="M665.6 870.4c0 56.525 45.773 102.4 102.4 102.4 56.525 0 102.4-45.875 102.4-102.4 0-56.627-45.875-102.4-102.4-102.4-56.627 0-102.4 45.773-102.4 102.4zm-512 0c0 56.525 45.824 102.4 102.4 102.4 56.474 0 102.4-45.875 102.4-102.4 0-56.627-45.926-102.4-102.4-102.4-56.576 0-102.4 45.773-102.4 102.4zm181.606-247.194l566.682-161.894C912.69 458.19 921.6 446.515 921.6 435.2V153.6H204.8V71.68c0-11.264-9.267-20.48-20.43-20.48H20.43C9.215 51.2 0 60.416 0 71.68v81.92h102.4l97.792 458.598 4.608 48.282v84.43c0 11.212 9.216 20.48 20.48 20.48h675.84c11.264 0 20.48-9.32 20.48-20.48V665.6H345.702c-58.88 0-60.11-28.21-10.496-42.394z"/></svg>