<svg xmlns="http://www.w3.org/2000/svg" width="1024" height="1024" viewBox="0 0 1024 1024"><path d="M292.813 755.2c-12.083 0-24.27-4.25-33.997-12.902L-.256 512l273.46-243.098c21.093-18.688 53.452-16.896 72.242 4.25s16.896 53.504-4.25 72.294L153.856 512 326.81 665.702c21.144 18.79 23.04 51.15 4.25 72.294-10.09 11.418-24.17 17.204-38.25 17.204zm457.984-.102L1024.257 512 765.183 281.702c-21.146-18.79-53.504-16.896-72.243 4.25-18.79 21.146-16.895 53.504 4.25 72.294L870.146 512l-187.34 166.502c-21.147 18.79-23.04 51.15-4.25 72.294C688.64 762.214 702.72 768 716.8 768c12.083 0 24.27-4.25 33.997-12.903zm-239.514 72.55l102.4-614.4c4.66-27.904-14.182-54.272-42.086-58.93-28.006-4.71-54.323 14.18-58.88 42.085l-102.4 614.4c-4.66 27.904 14.182 54.272 42.086 58.93 2.867.462 5.632.667 8.448.667 24.58 0 46.29-17.766 50.438-42.752z"/></svg>