<svg xmlns="http://www.w3.org/2000/svg" width="1024" height="1024" viewBox="0 0 1024 1024"><path d="M523.816 53.025c0-23.054-18.693-41.725-41.725-41.725-23.053 0-41.724 18.67-41.724 41.725v264.258c0 15.355-12.46 27.816-27.816 27.816s-27.816-12.462-27.816-27.817V53.025c0-23.054-18.67-41.725-41.725-41.725s-41.726 18.67-41.726 41.725v264.258c0 15.355-12.46 27.816-27.816 27.816s-27.816-12.462-27.816-27.817V53.025c0-23.054-18.67-41.725-41.725-41.725s-41.725 18.67-41.725 41.725v250.35c0 3.538.58 6.92 1.425 10.213-.824 5.763-1.425 11.594-1.425 17.602 0 64.423 48.69 165.698 111.266 179.206v432.76c0 38.41 31.132 69.54 69.54 69.54s69.542-31.13 69.542-69.54v-432.76c62.598-13.485 111.266-114.783 111.266-179.206 0-6.01-.58-11.84-1.425-17.602.825-3.294 1.426-6.676 1.426-10.214V53.024zM760.258 11.3l-8.523.868-5.385-.868c-61.44 0-139.083 152.346-139.083 305.983 0 129.58 35.47 238.133 83.45 269.043v356.832c0 38.41 31.132 69.54 69.54 69.54s69.542-31.13 69.542-69.54V80.843c0-38.41-31.133-69.54-69.542-69.54z"/></svg>