<svg xmlns="http://www.w3.org/2000/svg" width="1024" height="1024" viewBox="0 0 1024 1024"><path d="M523.816 53.025c0-23.054-18.693-41.725-41.725-41.725-23.05 0-41.72 18.67-41.72 41.725v264.258c0 15.355-12.46 27.816-27.817 27.816s-27.815-12.465-27.815-27.82V53.025c0-23.054-18.67-41.725-41.725-41.725s-41.726 18.67-41.726 41.726v264.258c0 15.355-12.46 27.816-27.816 27.816s-27.815-12.464-27.815-27.82V53.026c0-23.054-18.67-41.725-41.725-41.725s-41.726 18.67-41.726 41.726v250.35c0 3.538.58 6.92 1.425 10.213-.826 5.762-1.427 11.593-1.427 17.6 0 64.424 48.69 165.7 111.266 179.207v432.76c0 38.41 31.13 69.54 69.54 69.54s69.54-31.13 69.54-69.54v-432.76C475.15 496.91 523.82 395.613 523.82 331.19c0-6.01-.58-11.84-1.425-17.602.826-3.294 1.427-6.676 1.427-10.214V53.024zM760.258 11.3l-8.523.868-5.385-.868c-61.44 0-139.083 152.346-139.083 305.983 0 129.58 35.47 238.133 83.45 269.043v356.832c0 38.41 31.132 69.54 69.54 69.54s69.542-31.13 69.542-69.54V80.843c0-38.41-31.136-69.54-69.545-69.54z"/></svg>