<svg xmlns="http://www.w3.org/2000/svg" width="1024" height="1024" viewBox="0 0 1024 1024"><path d="M931.317 512c0-10.485-.81-20.768-1.568-31.06 40.94-13.09 73.37-25.57 94.26-36.705l-7.51-42.272c-23.45-3.37-58.2-4.107-101.13-2.517-5.71-20.16-12.84-39.67-21.41-58.453 33.91-26.155 60.04-48.853 75.79-66.4l-21.62-37.163c-23.21 4.79-56.14 15.904-95.97 31.98-12.25-16.876-25.57-32.897-40.17-47.745 22.82-36.064 39.54-66.25 48.31-88.075l-33.13-27.584c-20.12 12.34-47.14 33.867-78.92 62.39-17.22-11.68-35.54-21.772-54.48-30.838 9.04-41.728 14.35-75.82 15.07-99.34L668.2 23.553c-14.688 18.464-32.704 47.99-52.82 85.717-20.097-5.068-40.588-9.11-61.708-11.17-5.9-42.11-12.63-75.828-20.053-98.1h-43.26c-7.42 22.272-14.16 55.99-20.04 98.09-21.12 2.07-41.62 6.113-61.71 11.17-20.12-37.73-38.14-67.254-52.82-85.718L315.15 38.21c.704 23.52 6.027 57.61 15.07 99.338-18.93 9.067-37.26 19.157-54.483 30.837-31.774-28.523-58.803-50.048-78.91-62.39L163.7 133.58c8.756 21.813 25.492 52 48.308 88.075-14.592 14.848-27.915 30.87-40.17 47.744-39.83-16.08-72.758-27.19-95.97-31.98l-21.63 37.16c15.775 17.54 41.898 40.23 75.796 66.4-8.565 18.79-15.69 38.3-21.397 58.45-42.944-1.58-77.685-.86-101.13 2.51l-7.51 42.27c20.885 11.13 53.312 23.62 94.26 36.7-.767 10.3-1.588 20.58-1.588 31.07 0 10.47.81 20.77 1.57 31.06C53.3 556.13 20.87 568.61-.01 579.75l7.51 42.28c23.44 3.37 58.18 4.105 101.13 2.515 5.71 20.16 12.83 39.67 21.4 58.453-33.91 26.15-60.03 48.85-75.8 66.4l21.63 37.17c23.21-4.78 56.138-15.9 95.967-31.98 12.245 16.87 25.57 32.9 40.17 47.75-22.836 36.06-39.55 66.25-48.308 88.07L196.83 918c20.11-12.33 47.13-33.876 78.91-62.39 17.22 11.68 35.55 21.76 54.48 30.84-9.05 41.717-14.37 75.82-15.07 99.33l40.65 14.68c14.69-18.466 32.7-47.99 52.82-85.73 20.08 5.07 40.583 9.11 61.703 11.19 5.877 42.09 12.62 75.81 20.032 98.08h43.252c7.41-22.27 14.153-55.99 20.03-98.08 21.12-2.07 41.61-6.12 61.707-11.19 20.108 37.74 38.134 67.264 52.82 85.73l40.653-14.68c-.714-23.51-6.026-57.61-15.07-99.33 18.934-9.075 37.26-19.155 54.486-30.835 31.774 28.51 58.803 50.046 78.91 62.39l33.13-27.576c-8.767-21.83-25.49-52.01-48.308-88.08 14.59-14.85 27.914-30.88 40.17-47.76 39.83 16.09 72.757 27.2 95.97 31.98l21.62-37.16c-15.766-17.55-41.9-40.238-75.798-66.4 8.577-18.798 15.7-38.307 21.41-58.456 42.933 1.58 77.685.853 101.13-2.517l7.52-42.277c-20.884-11.144-53.31-23.624-94.26-36.7.757-10.3 1.58-20.594 1.58-31.07zM544 194.603c0-18.07 16.597-31.563 34.347-28.17 79.243 15.124 148.97 56.852 199.712 115.508 11.78 13.64 8.29 34.72-7.32 43.74l-6.94 4c-11.69 6.75-26.13 3.62-34.99-6.56-41.07-47.11-97.05-80.82-160.64-93.47-13.8-2.77-24.18-14.15-24.18-28.24v-6.8zM245.94 281.94c50.753-58.666 120.48-100.372 199.724-115.508 17.728-3.392 34.336 10.1 34.336 28.17v6.817c0 14.09-10.38 25.47-24.192 28.22-63.584 12.65-119.573 46.37-160.63 93.48-8.863 10.17-23.306 13.3-34.986 6.55l-6.944-4c-15.605-9.02-19.093-30.1-7.307-43.74zm-19.775 358.145l-4.95 2.86c-15.572 8.98-35.53 1.556-41.492-15.404C167.04 591.35 160 552.53 160 512c0-40.533 7.04-79.34 19.733-115.53 5.963-16.972 25.92-24.396 41.493-15.404l4.95 2.86c11.967 6.91 18.143 21.332 13.61 34.4A285.29 285.29 0 0 0 224 512c0 32.81 5.6 64.3 15.775 93.685 4.533 13.067-1.643 27.477-13.61 34.4zM480 829.397c0 18.06-16.608 31.563-34.347 28.18-79.243-15.135-148.97-56.852-199.723-115.508-11.776-13.64-8.288-34.72 7.317-43.74l6.944-4.01c11.7-6.74 26.13-3.62 34.99 6.56 41.06 47.11 97.05 80.83 160.63 93.49 13.81 2.74 24.19 14.13 24.19 28.21v6.81zm32-135.06c-100.693 0-182.336-81.633-182.336-182.337S411.307 329.664 512 329.664 694.336 411.307 694.336 512 612.693 694.336 512 694.336zm266.048 47.722c-50.74 58.65-120.47 100.37-199.712 115.5-17.74 3.39-34.336-10.11-34.336-28.17v-6.82c0-14.08 10.38-25.46 24.18-28.22 63.596-12.66 119.574-46.38 160.64-93.497 8.865-10.176 23.308-13.3 34.988-6.55l6.944 4c15.605 9.014 19.093 30.102 7.296 43.734zm66.208-114.53c-5.952 16.97-25.91 24.38-41.483 15.4l-4.95-2.86c-11.967-6.91-18.143-21.33-13.62-34.4C794.4 576.3 800 544.81 800 512s-5.6-64.3-15.787-93.685c-4.523-13.067 1.653-27.477 13.62-34.4l4.95-2.86c15.573-8.99 35.53-1.556 41.483 15.404C856.96 432.66 864 471.46 864 512c0 40.523-7.04 79.35-19.745 115.53z"/></svg>