<svg xmlns="http://www.w3.org/2000/svg" width="1024" height="1024" viewBox="0 0 1024 1024"><path d="M497.302 206.528c-63.146 63.146-48.448 145.28-69.568 225.28L73.6 74.24c-7.68-8.106-18.774-13.226-30.934-13.226C19.2 61.014 0 80 0 103.68v14.506c0 128.64 55.488 366.72 228.714 557.44L24.746 879.382c-33.066 33.046-33.066 86.806 0 119.872 33.066 33.088 86.826 33.088 119.68 0l203.308-203.52 121.6 121.6 104.96-95.36 177.302 177.28c32.832 33.088 86.614 33.088 119.658 0 33.088-33.066 33.088-86.826 0-119.872L590.698 596.48c80.874-22.186 163.626-6.614 226.794-69.782L1008.19 336c21.12-20.906 21.12-55.04 0-76.138-21.12-21.142-55.254-21.142-76.16 0L764.16 427.52c-12.586 12.586-33.088 12.586-45.674 0-12.8-12.586-12.8-33.066 0-45.654l167.68-167.894c21.098-20.906 21.098-55.04 0-76.16-21.12-21.098-55.254-21.098-76.138 0L642.134 305.494c-12.586 12.8-33.066 12.8-45.654 0-12.586-12.586-12.586-33.088 0-45.654L764.16 91.946c21.12-20.906 21.12-55.04 0-76.16s-55.254-21.12-76.16 0L497.302 206.528z"/></svg>