<svg xmlns="http://www.w3.org/2000/svg" width="1024" height="1024" viewBox="0 0 1024 1024"><path d="M842.688 1024C841.888 564.768 441.184 189.472 0 188.608V0c541.312 0 1024 460.608 1024 1024H842.688zm-155.488-.064H505.984c.608-112.768-56.672-238.976-147.328-333.472C268.512 595.2 108.736 535.168.448 535.744V347.2c338.08 7.296 679.872 326.624 686.752 676.736zM128.512 767.904c70.624 0 127.872 57.312 127.872 128 0 70.656-57.248 127.968-127.872 127.968S.64 966.56.64 895.904c0-70.688 57.248-128 127.872-128z"/></svg>