<svg xmlns="http://www.w3.org/2000/svg" width="1024" height="1024" viewBox="0 0 1024 1024"><path d="M565.334 597.334H266.668c-29.44 0-53.334 23.894-53.334 53.334s23.894 53.334 53.334 53.334h298.666c29.44 0 53.334-23.894 53.334-53.334s-23.894-53.334-53.334-53.334zM0 832c0 47.146 38.186 85.334 85.334 85.334h853.334c47.146 0 85.334-38.186 85.334-85.334L1024 192c0-47.146-38.186-85.334-85.334-85.334H85.334C38.186 106.666 0 144.854 0 192v640zm153.6-618.666h716.8a46.8 46.8 0 0 1 46.934 46.934V320H106.666v-59.734a46.798 46.798 0 0 1 46.934-46.932zm-46.934 277.332h810.666v273.066a46.8 46.8 0 0 1-46.934 46.934H153.6a46.798 46.798 0 0 1-46.934-46.932V490.666z"/></svg>