<svg xmlns="http://www.w3.org/2000/svg" width="1024" height="1024" viewBox="0 0 1024 1024"><path d="M309.344 522.72c0 21.344 3.424 42.016 9.376 61.248l-87.04 50.144L76.8 592.736c-27.936-7.456-56.736 9.184-64.416 36.896-7.456 27.968 9.184 56.544 37.344 64l125.216 33.504-33.696 124.576c-7.456 27.744 9.184 56.544 37.12 64 28.16 7.456 56.96-9.184 64.416-37.088l41.376-154.048 91.104-52.288c23.68 21.536 52.48 37.792 84.256 46.336v117.344l-113.504 95.744c-20.48 21.12-20.48 55.264 0 76.576 20.48 21.12 53.76 21.12 74.24 0L512 913.6l91.744 94.688c20.48 21.12 53.76 21.12 74.208 0 20.512-21.344 20.512-55.456 0-76.576L564.48 835.968V718.624c31.776-8.544 60.576-24.8 84.256-46.336l91.104 52.288 41.376 154.048c7.456 27.936 36.256 44.544 64.416 37.088 27.968-7.456 44.608-36.256 37.12-64l-33.696-124.576 125.216-33.504c28.16-7.456 44.8-36.032 37.344-64-7.648-27.712-36.48-44.32-64.416-36.896l-154.912 41.376-87.008-50.144c5.952-19.2 9.376-39.904 9.376-61.248s-3.424-42.016-9.376-61.44l87.008-49.92L947.2 452.736c27.936 7.456 56.736-9.184 64.416-36.896 7.456-27.936-9.184-56.544-37.344-64l-125.216-33.504 33.696-124.576c7.488-27.744-9.184-56.512-37.12-64-28.16-7.456-56.96 9.184-64.416 37.12L739.84 320.896l-91.104 52.256c-23.68-21.536-52.48-37.76-84.256-46.304v-96l113.472-117.12c20.512-21.12 20.512-55.264 0-76.576-20.48-21.12-53.76-21.12-74.208 0L512 131.904l-91.744-94.72c-20.48-21.12-53.76-21.12-74.24 0-20.48 21.344-20.48 55.456 0 76.576L459.52 230.88v96c-31.776 8.544-60.576 24.736-84.256 46.304l-91.104-52.256-41.376-154.016c-7.456-27.968-36.256-44.576-64.416-37.12-27.936 7.488-44.576 36.256-37.12 64l33.696 124.576-125.216 33.504c-28.16 7.456-44.8 36.064-37.344 64 7.68 27.744 36.48 44.384 64.416 36.896l154.88-41.376 87.04 49.92c-5.984 19.424-9.376 40.096-9.376 61.408zm202.656 96c-53.12 0-96-42.88-96-96s42.88-96 96-96 96 42.88 96 96-42.88 96-96 96z"/></svg>