<svg xmlns="http://www.w3.org/2000/svg" width="1024" height="1024" viewBox="0 0 1024 1024"><path d="M1024 447.786c0-29.866-12.374-56.96-32.214-76.374L587.734 31.36c-41.814-41.814-109.654-41.814-151.466 0L32.214 371.414C12.374 390.826 0 417.92 0 447.786v490.88C0 985.812 38.186 1024 85.334 1024h853.334c47.146 0 85.334-38.186 85.334-85.334l-.002-490.88zm-806.4-85.12h588.8a46.8 46.8 0 0 1 46.934 46.934v81.066c-.214 10.24-4.266 20.266-12.16 28.16L709.76 651.306l195.414 195.178c16.214 16.214 16.214 42.454 0 58.666s-42.454 16.214-58.666 0L645.334 704H378.24L177.494 905.174c-16.214 16.214-42.454 16.214-58.666 0-16.214-16.214-16.214-42.454 0-58.666l195.2-195.178-131.2-132.48c-8.534-8.534-12.586-19.626-12.16-30.934l-.002-78.316a46.8 46.8 0 0 1 46.934-46.934z"/></svg>