<svg xmlns="http://www.w3.org/2000/svg" width="1024" height="1024" viewBox="0 0 1024 1024"><path d="M531.264 114.112C541.536-28.928 434.688 3.056 434.688 3.056s-72.416 18.112-53.12 95.36c26.56 65.184 126.16 183.488 126.16 183.488s13.28-24.736 23.536-167.776zM839.84 240.608s-15.904-72.944-93.696-56c-65.952 24.576-187.216 120.528-187.216 120.528s24.32 14.032 166.992 28.624c51.184-14.528 111.952-17.104 113.92-93.152zM677.68 25.216S611.92-10.144 574.208 60c-24.224 66.08-30.176 220.608-30.176 220.608s26.48-9.376 130.336-108.256c103.84-98.88 3.296-147.12 3.296-147.12zm-108 307.472s6.128 27.408 91.84 142.384c35.088 56.064 84.816 77.936 145.664 20.944 0 0 42.976-61.04-22.112-106.896-62.704-31.968-215.392-56.432-215.392-56.432zm94.704 211.424C639.52 478.272 543.04 357.408 543.04 357.408s-10.864 31.04-27.888 167.12C497.36 666.832 608.8 638.064 608.8 638.064s72.88-16.224 55.584-93.952zM229.28 157.408s-38.64 63.888 29.488 105.088c64.784 27.552 218.8 41.328 218.8 41.328s-8.016-26.912-101.52-135.648c-51.744-44.592-107.152-66.976-146.768-10.768zM198.8 425.296s23.424 70.896 99.024 45.92c63.056-31.296 173.664-139.36 173.664-139.36s-25.664-11.424-169.072-11.088c-60.48 4.608-117.52 35.52-103.632 104.512zm320.4 598.72h65.184s-205.6-161.424-173.392-421.552c14.72-3.6 27.28-9.248 41.824-28.624 33.872-61.696 51.888-223.904 51.888-223.904s-34.096 20.112-134.048 99.904c-121.216 96.736-25.36 145.328-25.36 145.328s23.184 11.76 54.16 9.152C378.912 688.624 355.888 899.248 519.2 1024zM162.48 797.984c-12.672 41.648 27.168 93.552 27.168 93.552 130.416 131.552 255.328 103.232 255.328 103.232C367.12 833.616 171.888 767.104 162.48 797.984z"/></svg>