<svg xmlns="http://www.w3.org/2000/svg" width="1024" height="1024" viewBox="0 0 1024 1024"><path d="M341.334 640v234.666c0 23.466-19.2 42.666-42.666 42.666l-117.334.002c-29.44 0-53.334 23.892-53.334 53.332S151.894 1024 181.334 1024H608c29.44 0 53.334-23.894 53.334-53.334S637.44 917.334 608 917.334H490.666c-23.466 0-42.666-19.2-42.666-42.666V640l172.586-174.698C662.4 494.698 713.174 512 768 512c141.44 0 256-114.56 256-256S909.44 0 768 0C633.814 0 523.734 103.254 512.854 234.666H42.24c-23.254 0-42.24 19.2-42.24 42.668 0 11.968 4.906 22.826 12.8 30.528L341.334 640zM697.6 387.862l79.36-80.448c7.658-7.68 12.374-18.348 12.374-30.08 0-23.466-19.008-42.666-42.24-42.666H620.16c10.474-72.32 72.534-128 147.862-128 82.56 0 149.334 66.774 149.334 149.334s-66.774 149.334-149.334 149.334a150.594 150.594 0 0 1-70.422-17.474z"/></svg>