<svg xmlns="http://www.w3.org/2000/svg" width="1024" height="1024" viewBox="0 0 1024 1024"><path d="M0 512c0 282.88 229.12 512 512 512s512-229.12 512-512S794.88 0 512 0 0 229.12 0 512zm106.656 0c0-32.864 3.84-64.864 11.296-95.36l95.36 95.36-21.344 128 85.344 85.344v117.12C174.048 769.088 106.656 648.352 106.656 512zm312.128-394.464c29.856-7.264 61.024-10.88 93.216-10.88 35.616 0 70.176 4.704 103.04 13.216l-17.696 29.44 21.344 21.344h64l17.696-17.696c14.912 7.904 28.992 16.416 42.656 26.016L704 192l-42.656 42.656L704 256v21.344h-42.656V320s29.44 21.344 64 21.344c33.92 0 18.784-46.72 42.656-64 24.096-17.28 53.344-13.44 53.344-13.44l13.856 3.616c26.016 34.336 46.688 72.736 60.8 114.336V384s-30.08-21.344-85.344-21.344L704 384s-60.16 17.504-64 64c-6.624 80 21.344 106.656 21.344 106.656l106.656 64V826.24c-69.76 56.96-158.944 91.104-256 91.104-45.856 0-89.824-7.456-130.976-21.536l109.664-255.776-21.344-106.656s-84.704-106.656-128-106.656l-64 64-42.656-85.344 128-85.344 64-170.656-7.904-31.776z"/></svg>