<svg xmlns="http://www.w3.org/2000/svg" width="1024" height="1024" viewBox="0 0 1024 1024"><path d="M741.344 24.34c-91.402 0-176.788 45.052-229.322 118.048C459.454 69.378 374.06 24.34 282.656 24.34 126.81 24.34 0 151.128 0 307c0 188.762 115.28 289.77 248.774 406.716 77.966 68.3 166.34 145.714 239.308 250.664l24.534 35.282 23.708-35.848c70.626-106.774 157.046-183.39 240.61-257.468C904.012 593.71 1024 487.308 1024 307c0-155.872-126.792-282.66-282.656-282.66zm-3.06 638.402C664.426 728.2 581.746 801.488 511.48 897.524c-71.434-93.746-152.178-164.484-224.296-227.668C159.296 557.836 58.29 469.336 58.29 307c0-123.736 100.65-224.372 224.368-224.372 86.392 0 166.068 50.79 202.982 129.394l26.382 56.21 26.38-56.224c36.886-78.606 116.546-129.38 202.944-129.38 123.732 0 224.368 100.634 224.368 224.372-.002 154.096-100.368 243.094-227.43 355.742z"/></svg>