<svg xmlns="http://www.w3.org/2000/svg" width="1024" height="1024" viewBox="0 0 1024 1024"><path d="M426.666 224.598c-61.226-59.946-203.946-84.054-284.374 2.134C63.574 310.784 0 513.43 0 704.598c0 230.634 193.28 262.634 298.666 149.334 61.014-65.706 66.774-75.968 106.666-128h213.334c40.106 52.032 45.654 62.294 106.666 128 105.366 113.302 298.666 81.302 298.666-149.334 0-191.168-63.574-393.814-142.294-477.866-80.426-86.186-222.934-62.08-284.374-2.134-23.68 23.04-85.334 32-85.334 32s-61.65-8.96-85.33-32zm-85.332 140.8v61.846H403.2c24.746 0 44.8 19.2 44.8 42.688 0 23.466-20.054 42.666-44.8 42.666h-61.866v61.846c0 24.768-19.2 44.822-42.666 44.822s-42.666-20.032-42.666-44.822v-61.846h-61.868c-24.746 0-44.8-19.2-44.8-42.666 0-23.488 20.054-42.688 44.8-42.688l61.866-.002v-61.846c0-24.746 19.2-44.8 42.666-44.8s42.668 20.054 42.668 44.802zm384 29.866c0-29.44 23.894-53.334 53.334-53.334s53.334 23.894 53.334 53.334-23.894 53.334-53.334 53.334-53.334-23.894-53.334-53.334zm-106.668 128c0-29.462 23.894-53.334 53.334-53.334s53.334 23.872 53.334 53.334c0 29.418-23.894 53.334-53.334 53.334s-53.334-23.916-53.334-53.334z"/></svg>