<svg xmlns="http://www.w3.org/2000/svg" width="1024" height="1024" viewBox="0 0 1024 1024"><path d="M0 906.666C0 936.106 23.894 960 53.334 960c25.814 0 47.36-18.326 52.266-42.666h1.066c0-23.466 19.2-42.666 42.666-42.666s42.666 19.2 42.666 42.666v21.334c0 47.146 38.186 85.334 85.334 85.334h85.334c47.146 0 85.334-38.186 85.334-85.334V618.666c0-47.146-38.186-85.334-85.334-85.334h-85.334c-47.146 0-85.334 38.186-85.334 85.334V640c0 23.466-19.2 42.666-42.666 42.666s-42.666-19.2-42.666-42.666V512c0-223.786 181.548-405.334 405.334-405.334S917.334 288.212 917.334 512v128c0 23.466-19.2 42.666-42.666 42.666s-42.666-19.2-42.666-42.666v-21.334c0-47.146-38.186-85.334-85.334-85.334h-85.334c-47.146 0-85.334 38.186-85.334 85.334v320c0 47.146 38.186 85.334 85.334 85.334h85.334c47.146 0 85.334-38.186 85.334-85.334v-21.334c0-23.466 19.2-42.666 42.666-42.666s42.666 19.2 42.666 42.666h1.066c4.886 24.342 26.454 42.666 52.266 42.666 29.44 0 53.334-23.894 53.334-53.334V512C1024 229.12 794.88 0 512 0S0 229.12 0 512v394.666z"/></svg>