<svg xmlns="http://www.w3.org/2000/svg" width="1024" height="1024" viewBox="0 0 1024 1024"><path d="M704 0C527.264 0 384 143.264 384 320c0 20 2.368 39.264 5.888 58.112L0 768v256h384V896h128V768h128V640l5.888-5.888C664.736 637.632 684 640 704 640c176.736 0 320-143.264 320-320S880.736 0 704 0zm0 512c-10.016 0-20.992-1.248-34.752-3.744L603.008 496 512 587.008V640H384v128H256v128H128v-75.008l400-400-12.256-66.24C513.184 340.992 512 329.984 512 320c0-105.888 86.112-192 192-192s192 86.112 192 192-86.112 192-192 192zm-64-192c0-35.346 28.654-64 64-64s64 28.654 64 64c0 35.346-28.654 64-64 64s-64-28.654-64-64z"/></svg>