<svg xmlns="http://www.w3.org/2000/svg" width="1024" height="1024" viewBox="0 0 1024 1024"><path d="M1024 704c0 35.328-28.672 64-64 64v69.888c37.184 13.248 64 48.384 64 90.112 0 52.992-43.008 96-96 96-41.76 0-76.896-26.816-90.112-64H768c0 35.328-28.672 64-64 64s-64-28.672-64-64h-64c0 35.328-28.672 64-64 64s-64-28.672-64-64h-64c0 35.328-28.672 64-64 64s-64-28.672-64-64h-69.888c-13.216 37.184-48.384 64-90.112 64-53.024 0-96-43.008-96-96 0-41.76 26.784-76.864 64-90.112V768c-35.328 0-64-28.672-64-64s28.672-64 64-64v-64c-35.328 0-64-28.672-64-64s28.672-64 64-64v-64c-35.328 0-64-28.672-64-64s28.672-64 64-64v-69.888C26.784 172.896 0 137.728 0 96 0 42.976 42.976 0 96 0c41.728 0 76.896 26.784 90.112 64H256c0-35.328 28.672-64 64-64s64 28.672 64 64h64c0-35.328 28.672-64 64-64s64 28.672 64 64h64c0-35.328 28.672-64 64-64s64 28.672 64 64h69.888C851.104 26.784 886.24 0 928 0c52.992 0 96 42.976 96 96 0 41.728-26.816 76.896-64 90.112V256c35.328 0 64 28.672 64 64s-28.672 64-64 64v64c35.328 0 64 28.672 64 64s-28.672 64-64 64v64c35.328 0 64 28.672 64 64zM832 224c0-17.664-14.304-32-32-32H224c-17.664 0-32 14.336-32 32v576c0 17.696 14.336 32 32 32h576c17.696 0 32-14.304 32-32V224z"/></svg>