<svg xmlns="http://www.w3.org/2000/svg" width="1024" height="1024" viewBox="0 0 1024 1024"><path d="M728.992 512C866.746 424.666 960 256.792 960 64c0-21.676-1.192-43.034-3.478-64H67.48A589.397 589.397 0 0 0 64 64c0 192.792 93.254 360.666 231.006 448C157.254 599.334 64 767.208 64 960a589.85 589.85 0 0 0 3.478 64H956.52a589.85 589.85 0 0 0 3.478-64c.002-192.792-93.252-360.666-231.006-448zM160 960c0-186.912 80.162-345.414 224-397.708V461.706C240.162 409.416 160 250.914 160 64h704c0 186.914-80.162 345.416-224 397.706v100.586C783.838 614.586 864 773.088 864 960H160zm459.626-290.406C547.972 628.95 544.018 576.226 544 544.228V480c0-31.994 3.804-84.914 75.744-125.664 38.504-22.364 71.808-56.348 97.048-98.336H307.21c25.266 42.032 58.612 76.042 97.166 98.406 71.654 40.644 75.606 93.366 75.626 125.366V544c0 31.992-3.804 84.914-75.744 125.664C331.636 711.844 277.52 795.348 261.168 896h501.67c-16.364-100.708-70.53-184.248-143.212-226.406z"/></svg>