<svg xmlns="http://www.w3.org/2000/svg" width="1024" height="1024" viewBox="0 0 1024 1024"><path d="M874.666 320c0-106.026-85.974-192-192-192H341.334c-39.68 0-73.194-27.094-82.56-64 0 0-2.774-7.04-2.774-10.666C256 23.894 232.106 0 202.666 0s-53.332 23.894-53.332 53.334c0 4.054.426 7.894 1.302 11.734 11.07 95.572 92.138 169.598 190.698 169.598h341.334c47.146 0 85.334 38.186 85.334 85.334H85.334C38.188 320 0 358.186 0 405.334v533.334c0 47.146 38.186 85.334 85.334 85.334h853.334c47.146 0 85.334-38.186 85.334-85.334L1024 405.334c0-47.146-38.186-85.334-85.334-85.334h-64zM629.334 426.666c29.44 0 53.334 23.894 53.334 53.334s-23.894 53.334-53.334 53.334S576 509.44 576 480s23.894-53.334 53.334-53.334zm0 192c29.44 0 53.334 23.894 53.334 53.334s-23.894 53.334-53.334 53.334S576 701.44 576 672s23.894-53.334 53.334-53.334zm-234.668-192C424.106 426.666 448 450.56 448 480s-23.894 53.334-53.334 53.334S341.334 509.44 341.334 480s23.892-53.334 53.332-53.334zm0 192C424.106 618.666 448 642.56 448 672s-23.894 53.334-53.334 53.334S341.334 701.44 341.334 672s23.892-53.334 53.332-53.334zM160 426.666c29.44 0 53.334 23.894 53.334 53.334S189.44 533.334 160 533.334 106.666 509.44 106.666 480 130.56 426.666 160 426.666zm0 192c29.44 0 53.334 23.894 53.334 53.334S189.44 725.334 160 725.334 106.666 701.44 106.666 672 130.56 618.666 160 618.666zm0 192c29.44 0 53.334 23.894 53.334 53.334S189.44 917.334 160 917.334 106.666 893.44 106.666 864 130.56 810.666 160 810.666zm704-384c29.44 0 53.334 23.894 53.334 53.334S893.44 533.334 864 533.334 810.666 509.44 810.666 480 834.56 426.666 864 426.666zm0 192c29.44 0 53.334 23.894 53.334 53.334S893.44 725.334 864 725.334 810.666 701.44 810.666 672 834.56 618.666 864 618.666zm0 192c29.44 0 53.334 23.894 53.334 53.334S893.44 917.334 864 917.334 810.666 893.44 810.666 864 834.56 810.666 864 810.666zM682.666 917.334H341.334c-23.466 0-42.666-19.2-42.666-42.666s19.2-42.666 42.666-42.666h341.334c23.466 0 42.666 19.2 42.666 42.666s-19.2 42.666-42.668 42.666z"/></svg>