<svg xmlns="http://www.w3.org/2000/svg" width="1024" height="1024" viewBox="0 0 1024 1024"><path d="M512 0C229.25 0 0 229.25 0 512c0 226.25 146.688 418.126 350.156 485.812 25.594 4.688 34.938-11.126 34.938-24.626 0-12.188-.468-52.562-.718-95.312C242 908.812 211.908 817.498 211.908 817.498c-23.312-59.126-56.844-74.876-56.844-74.876-46.532-31.75 3.53-31.126 3.53-31.126 51.406 3.562 78.47 52.75 78.47 52.75 45.688 78.25 119.876 55.626 149 42.5 4.654-33 17.904-55.626 32.5-68.376-113.656-12.938-233.218-56.876-233.218-253.062 0-55.938 19.968-101.562 52.656-137.406-5.218-13-22.844-65.094 5.062-135.562 0 0 42.938-13.75 140.812 52.5 40.812-11.406 84.594-17.032 128.126-17.218 43.5.188 87.312 5.876 128.188 17.282 97.688-66.312 140.688-52.5 140.688-52.5 28 70.532 10.376 122.562 5.126 135.5 32.812 35.844 52.626 81.468 52.626 137.406 0 196.688-119.75 240-233.812 252.688 18.438 15.876 34.75 47 34.75 94.75 0 68.438-.688 123.626-.688 140.5 0 13.626 9.312 29.562 35.25 24.562 203.312-67.812 349.876-259.688 349.876-485.812 0-282.75-229.25-512-512-512z"/></svg>