<svg xmlns="http://www.w3.org/2000/svg" width="1024" height="1024" viewBox="0 0 1024 1024"><path d="M0 896c181.12 82.134 396.138 128 608 128 68.694 0 136.32-3.2 202.24-14.08 25.792-4.266 59.286-13.866 73.792-24.96 20.288-15.594 33.302-40.106 33.302-67.626 0-25.366-11.094-48.426-28.8-64H896c47.146 0 85.334-38.186 85.334-85.334S943.148 682.666 896 682.666h42.666c47.146 0 85.334-38.186 85.334-85.334s-38.186-85.334-85.334-85.334c47.146 0 85.334-38.186 85.334-85.334s-38.186-85.334-85.334-85.334l-382.698.004c-29.462 0-53.334-23.894-53.334-53.334l26.858-177.302c2.54-8.064 3.842-16.618 3.842-25.364C533.334 38.188 495.148 0 448 0c-39.466 0-72.746 26.88-82.346 63.146l-3.626 12.16C307.2 249.814 183.04 409.194 0 512v384z"/></svg>