<svg xmlns="http://www.w3.org/2000/svg" width="1024" height="1024" viewBox="0 0 1024 1024"><g transform="translate(-.04 -.105) scale(21.1802)"><circle cx="24.178" cy="24.176" r="4.167"/><path d="M47.37 20.046l-5.825-1.092a17.916 17.916 0 0 0-1.393-3.37l3.37-4.928c.312-.456.247-1.142-.144-1.532l-4.155-4.156c-.39-.39-1.076-.454-1.53-.143l-4.93 3.372a18.006 18.006 0 0 0-3.474-1.42L28.2.983C28.1.44 27.572 0 27.02 0h-5.877c-.553 0-1.082.44-1.185.983l-1.098 5.85a17.96 17.96 0 0 0-3.334 1.393l-4.866-3.33c-.456-.31-1.142-.247-1.532.144L4.972 9.196c-.39.39-.454 1.076-.143 1.532l3.35 4.896a18.055 18.055 0 0 0-1.378 3.33l-5.82 1.093C.44 20.15 0 20.68 0 21.232v5.877c0 .55.44 1.08.982 1.18l5.82 1.09a18.013 18.013 0 0 0 1.4 3.4l-3.31 4.842c-.313.456-.25 1.142.142 1.53L9.19 43.31c.395.394 1.08.456 1.536.147l4.84-3.314c1.04.563 2.146 1.02 3.3 1.375l1.096 5.853c.103.548.63.986 1.185.986h5.877a1.25 1.25 0 0 0 1.187-.98l1.09-5.796a18.2 18.2 0 0 0 3.438-1.4l4.902 3.35c.455.31 1.14.247 1.53-.146l4.153-4.153c.393-.39.455-1.072.145-1.53l-3.337-4.87a18.08 18.08 0 0 0 1.424-3.44l5.82-1.09c.54-.103.98-.632.98-1.185v-5.877c.003-.555-.438-1.084-.98-1.187zM24.177 34.26c-5.568 0-10.083-4.514-10.083-10.085 0-5.567 4.515-10.083 10.083-10.083 5.57 0 10.086 4.516 10.086 10.083 0 5.57-4.518 10.086-10.086 10.086z"/></g></svg>