<svg xmlns="http://www.w3.org/2000/svg" width="1024" height="1024" viewBox="0 0 1024 1024"><path d="M944.573 56.31c-31.457-31.457-73.288-48.783-117.78-48.783s-86.318 17.326-117.775 48.778c-15.96 15.964-28.247 34.888-36.567 56.325-26.37-16.102-56.34-24.535-87.15-24.535-44.13 0-85.63 17.188-116.84 48.404-64.9 64.9-64.94 170.48-.12 235.43l41.56 43.403-.004.476L51.65 874.06c-11.976 11.976-11.976 31.462 0 43.443l85.197 85.197c5.8 5.8 13.517 8.996 21.72 8.996 8.206 0 15.922-3.195 21.723-9l31.734-31.735c11.976-11.98 11.976-31.47 0-43.44l-31.734-31.74 31.734-31.74 31.734 31.74c5.8 5.8 13.517 9 21.724 9s15.918-3.195 21.72-8.996l31.738-31.74c11.976-11.98 11.976-31.47 0-43.45l-31.734-31.732 29.404-29.41 29.742 29.744c5.8 5.8 13.517 9 21.724 9s15.923-3.2 21.724-9l31.734-31.732c11.976-11.98 11.976-31.467 0-43.447l-29.742-29.745 193.275-193.28.476-.002 43.418 41.564c31.45 31.376 73.22 48.656 117.66 48.656 44.497 0 86.32-17.32 117.78-48.785 53.948-53.943 63.63-138.956 23.868-203.99 21.524-8.38 40.4-20.65 56.325-36.572 64.93-64.94 64.93-170.612-.01-235.55zm-315.74 240.563c-11.34 11.336-26.465 17.582-42.598 17.582-16.128 0-31.258-6.246-42.598-17.587-23.485-23.485-23.485-61.706 0-85.197 11.34-11.34 26.465-17.58 42.598-17.58s31.258 6.24 42.598 17.58c23.485 23.5 23.485 61.72 0 85.21zM886.98 174.085c0 16.128-6.247 31.258-17.583 42.593-11.34 11.34-26.465 17.587-42.598 17.587-16.13 0-31.26-6.246-42.6-17.582-11.34-11.34-17.58-26.465-17.58-42.598s6.24-31.258 17.58-42.593c11.34-11.34 26.46-17.587 42.6-17.587s31.25 6.246 42.59 17.587c11.332 11.336 17.58 26.465 17.58 42.593zm-80.19 240.563c0 16.128-6.247 31.258-17.583 42.593-11.34 11.35-26.465 17.59-42.598 17.59s-31.26-6.24-42.6-17.58-17.59-26.462-17.59-42.595c0-16.13 6.24-31.252 17.58-42.593 11.34-11.34 26.46-17.587 42.6-17.587 16.13 0 31.26 6.244 42.6 17.585 11.34 11.34 17.58 26.47 17.58 42.598z"/></svg>