<svg xmlns="http://www.w3.org/2000/svg" width="1024" height="1024" viewBox="0 0 1024 1024"><path d="M320 638.506a193.124 193.124 0 0 0-85.334-19.84c-106.026 0-192 85.974-192 192 0 106.048 85.974 192 192 192s192-85.952 192-192V384c0-23.466 19.2-42.666 42.666-42.666h362.666c23.466 0 42.666 19.2 42.666 42.666v254.506a193.17 193.17 0 0 0-85.33-19.84c-106.048 0-192 85.974-192 192 0 106.048 85.952 192 192 192s192-85.952 192-192V89.6A46.8 46.8 0 0 0 934.4 42.666H366.934A46.8 46.8 0 0 0 320 89.6v548.906z"/></svg>