<svg xmlns="http://www.w3.org/2000/svg" width="1024" height="1024" viewBox="0 0 1024 1024"><path d="M725.056 351.616H890.56c22.176 49.312 35.424 103.328 37.696 160.384H738.368c-.8-60.288-5.792-113.408-13.312-160.384zm-72.32-226.944c94.944 36.896 172.864 106.72 221.696 194.88H719.68c-17.568-89.76-44.256-153.568-66.944-194.88zm-138.56 194.88V95.68c34.112 1.504 67.264 6.912 98.944 15.776 24 40.416 55.008 107.904 74.56 208.096H514.176zM303.648 704.448c-7.488-47.008-12.672-99.808-13.472-160.384h191.936v160.384H303.648zm-.32-352.832h178.784V512H289.984c.8-60.352 5.856-113.376 13.344-160.384zm80.288-240.864c31.584-8.512 64.48-13.92 98.496-15.008v223.808H308.608c19.68-100.736 50.912-168.48 75.008-208.8zm-266.464 208.8c49.632-89.6 129.984-159.776 227.072-196.192-22.88 41.28-49.888 105.44-67.648 196.192H117.152zM257.92 512H64c2.112-56.992 14.944-111.168 37.056-160.384h170.112c-7.456 47.008-12.48 100.096-13.248 160.384zm13.664 192.448h-169.28C80.096 655.072 65.856 601.28 63.776 544.064h194.272c.768 60.576 6.016 113.312 13.536 160.384zm5.248 32.064c17.888 91.648 45.312 155.744 68.288 196.544-97.44-36.256-177.824-106.72-227.52-196.544h159.232zm205.28 0V960.32c-33.664-1.056-66.144-6.368-97.44-14.72-24.16-39.552-55.552-107.616-75.392-209.088h172.832zm204.96 0c-19.744 100.864-50.944 168.672-75.008 208.384-31.328 8.672-64.192 13.376-97.888 14.88V736.512h172.896zM514.176 544.064h191.936c-.736 60.576-6.016 113.344-13.504 160.384H514.176V544.064zM706.304 512H514.176V351.616h178.752c7.52 47.008 12.576 100.032 13.376 160.384zm31.936 32.064h189.632c-2.112 57.184-16.192 110.976-38.304 160.384H724.704c7.488-47.072 12.736-99.808 13.536-160.384zm135.936 192.448c-48.672 88.512-126.944 158.368-222.304 195.2 22.88-40.832 49.952-104.512 67.616-195.2h154.688z"/></svg>