<svg xmlns="http://www.w3.org/2000/svg" width="1024" height="1024" viewBox="0 0 1024 1024"><path d="M234.666 277.334v149.334l-64-.002c-47.146 0-85.334 38.186-85.334 85.334v426.666c0 47.146 38.186 85.334 85.334 85.334h682.666c47.146 0 85.334-38.186 85.334-85.334V512c0-47.146-38.186-85.334-85.334-85.334h-64V277.332c0-153.174-124.16-277.334-277.334-277.334C358.826 0 234.666 124.16 234.666 277.334zm106.668 149.332V277.332c0-94.294 76.374-170.666 170.666-170.666s170.666 76.374 170.666 170.666v149.334H341.334zm85.332 234.668C426.666 614.188 464.852 576 512 576s85.334 38.186 85.334 85.334c0 30.08-15.574 56.534-39.04 71.68 0 0 8.342 50.346 17.706 109.654 0 17.706-14.294 32-32 32h-64c-17.706 0-32-14.294-32-32l17.706-109.654c-23.466-15.148-39.04-41.6-39.04-71.68z"/></svg>