<svg xmlns="http://www.w3.org/2000/svg" width="1024" height="1024" viewBox="0 0 1024 1024"><path d="M954.368 134.86C936.755 141.057 67.533 447.387 50.38 453.428c-14.54 5.12-17.765 17.664-.51 24.525 20.53 8.243 194.354 77.875 194.354 77.875l115.2 46.13s554.906-407.45 562.38-412.978c7.58-5.53 16.283 4.863 10.804 10.802-5.478 5.99-402.995 435.866-402.995 435.866v.102l-23.142 25.754 30.67 16.486s238.08 128.205 255.08 137.318c14.9 7.987 34.2 1.382 38.5-17.1 5.07-21.812 145.666-627.764 148.79-641.28 4.044-17.563-7.58-28.263-25.14-22.068zM358.4 878.695c0 12.595 7.117 16.128 16.947 7.22 12.85-11.726 145.92-131.124 145.92-131.124L358.4 670.62v208.077z"/></svg>