<svg xmlns="http://www.w3.org/2000/svg" width="1024" height="1024" viewBox="0 0 1024 1024"><path d="M960 416v160c0 52.934-43.066 96-96 96-17.104 0-33.176-4.494-47.098-12.368C799.826 686.294 769.942 704 736 704c-24.564 0-47.004-9.276-64-24.504C655.004 694.724 632.564 704 608 704a95.596 95.596 0 0 1-32-5.484V928c0 52.934-43.066 96-96 96-52.936 0-96-43.066-96-96V533.324L207.982 627.16C193.444 635.558 176.856 640 160 640c-52.936 0-96-43.066-96-96 0-26.368 10.472-50.952 29.488-69.226.248-.238.496-.47.75-.7L333.408 256H288c-17.674 0-32-14.326-32-32V32c0-17.674 14.326-32 32-32h640c17.674 0 32 14.326 32 32v192c0 17.674-14.326 32-32 32h-44.222l72.842 145.69A31.963 31.963 0 0 1 960 416zm-64-256c0-17.674-14.326-32-32-32s-32 14.326-32 32 14.326 32 32 32 32-14.326 32-32zm0 263.554L812.222 256H428.398l-290.82 265.168C131.398 527.234 128 535.33 128 544c0 17.644 14.356 32 32 32 5.458 0 10.612-1.308 15.324-3.894.53-.324 1.07-.632 1.622-.926l224-119.416a31.992 31.992 0 0 1 31.52.8A31.992 31.992 0 0 1 448 480v448c0 17.644 14.356 32 32 32s32-14.356 32-32V608c0-17.672 14.326-32 32-32s32 14.328 32 32c0 17.644 14.356 32 32 32s32-14.356 32-32c0-17.674 14.326-32 32-32s32 14.326 32 32c0 17.644 14.356 32 32 32s32-14.356 32-32v-32c0-17.674 14.326-32 32-32s32 14.326 32 32c0 17.644 14.356 32 32 32s32-14.356 32-32V423.554z"/></svg>