<svg xmlns="http://www.w3.org/2000/svg" width="1024" height="1024" viewBox="0 0 1024 1024"><path d="M512 0C329.6 0 146.774 32.64 80.426 97.706 25.386 151.68 7.04 247.04.852 307.412c0 0-.854 5.974-.854 8.534 0 23.68 19.2 42.666 42.666 42.666 2.774 0 105.386-8.32 167.254-13.44 1.494-.214 2.986-.426 4.48-.854 23.04-.64 41.6-19.414 41.6-42.666l.214-84.054c.002-26.024 21.122-46.932 47.148-46.932h417.258c26.048 0 47.168 20.908 47.168 46.934l.214 84.054c0 23.254 18.56 42.026 41.6 42.666 1.472.426 2.986.64 4.48.854 61.866 5.12 164.48 13.44 167.254 13.44 23.466 0 42.666-18.986 42.666-42.666 0-2.56-.854-8.534-.854-8.534-6.186-60.374-24.512-155.734-79.552-209.706C877.226 32.64 694.4 0 512 0zm0 554.666c-47.146 0-85.334 38.186-85.334 85.334s38.186 85.334 85.334 85.334 85.334-38.186 85.334-85.334-38.188-85.334-85.334-85.334zm-64-192v-53.334c0-29.44-23.894-53.334-53.334-53.334s-53.332 23.896-53.332 53.336v53.332L53.546 670.08c-19.84 19.414-32.212 46.506-32.212 76.374V832c0 47.146 38.186 85.334 85.334 85.334h21.334v53.334C128 1000.106 151.894 1024 181.334 1024s53.334-23.894 53.334-53.334l-.002-53.332h554.666v53.334c0 29.44 23.894 53.334 53.334 53.334S896 1000.108 896 970.668v-53.334h21.334c47.146 0 85.334-38.186 85.334-85.334v-85.546c0-29.866-12.374-56.96-32.214-76.374L682.666 362.666v-53.334c0-29.44-23.894-53.334-53.334-53.334S576 279.894 576 309.334v53.332H448zm64 106.668c94.294 0 170.666 76.374 170.666 170.666S606.292 810.666 512 810.666 341.334 734.292 341.334 640 417.706 469.334 512 469.334z"/></svg>