<svg xmlns="http://www.w3.org/2000/svg" width="1024" height="1024" viewBox="0 0 1024 1024"><path d="M418.326 265.194l.448.618c9.6 7.68 15.552 19.626 15.552 32.854 0 23.466-18.986 42.666-42.666 42.666l-241.9.002c-47.146 0-85.334 38.186-85.334 85.334v164.714c0 23.466 19.2 42.666 42.666 42.666 13.014 0 24.534-5.782 32.448-14.954 1.472-1.706 6.614-7.04 7.658-8.086C170.218 589.226 201.174 576 235.094 576c70.634 0 128 57.366 128 128s-57.366 128-128 128c-34.134 0-65.28-13.44-88.32-35.2-.854-.832-5.974-5.76-7.254-7.658-7.894-9.174-19.626-15.146-32.854-15.146-23.488 0-42.666 19.2-42.666 42.666l.426 122.004c0 47.146 38.186 85.334 85.334 85.334h725.334c47.146 0 85.334-38.186 85.334-85.334V752.64c0-23.466-19.2-42.666-42.666-42.666-11.968 0-22.826 4.886-30.698 13.014l-8.342 8.96C855.658 754.346 824.32 768 789.76 768c-70.634 0-128-57.366-128-128s57.366-128 128-128c34.774 0 66.134 13.866 89.174 36.266l6.634 7.04c7.894 8.96 19.414 14.72 32.214 14.72 23.466 0 42.666-19.2 42.666-42.666V426.666c0-47.146-38.186-85.334-85.334-85.334H632.768c-23.466 0-42.666-19.2-42.666-42.666 0-11.968 4.906-22.806 13.014-30.698 35.582-27.114 58.644-70.208 58.644-118.634C661.76 66.774 594.986 0 512.426 0S363.092 66.774 363.092 149.334c.002 46.698 21.526 88.532 55.234 115.86z"/></svg>