<svg xmlns="http://www.w3.org/2000/svg" width="1024" height="1024" viewBox="0 0 1024 1024"><path d="M960 608V448c0-52.934-43.066-96-96-96-17.104 0-33.176 4.494-47.098 12.368C799.826 337.704 769.944 320 736 320c-24.564 0-47.004 9.274-64 24.504C655.004 329.274 632.564 320 608 320a95.596 95.596 0 0 0-32 5.484V96c0-52.934-43.066-96-96-96s-96 43.066-96 96v394.676L207.982 396.84C193.446 388.44 176.856 384 160 384c-52.934 0-96 43.066-96 96 0 26.368 10.472 50.954 29.49 69.226.248.238.496.47.75.7L333.41 768H288c-17.672 0-32 14.326-32 32v192c0 17.674 14.328 32 32 32h640c17.674 0 32-14.326 32-32V800c0-17.674-14.326-32-32-32h-44.222l72.844-145.69A31.987 31.987 0 0 0 960 608zm-64 256c0 17.674-14.326 32-32 32s-32-14.326-32-32 14.326-32 32-32 32 14.326 32 32zm0-263.554L812.224 768H428.398L137.58 502.834C131.4 496.764 128 488.67 128 480c0-17.644 14.356-32 32-32 5.46 0 10.612 1.31 15.324 3.894.53.324 1.07.632 1.622.926l224 119.416a31.992 31.992 0 0 0 31.52-.8A31.992 31.992 0 0 0 448 544V96c0-17.644 14.356-32 32-32s32 14.356 32 32v320c0 17.672 14.326 32 32 32s32-14.328 32-32c0-17.644 14.356-32 32-32s32 14.356 32 32c0 17.672 14.326 32 32 32s32-14.328 32-32c0-17.644 14.356-32 32-32s32 14.356 32 32v32c0 17.672 14.326 32 32 32s32-14.328 32-32c0-17.644 14.356-32 32-32s32 14.356 32 32v152.446z"/></svg>