<svg xmlns="http://www.w3.org/2000/svg" width="1024" height="1024" viewBox="0 0 1024 1024"><path d="M513.664 958.272c87.446 87.68 229.12 87.68 316.566 0 54.422-54.4 75.094-129.706 61.674-200.106 23.04-11.734 43.712-25.386 60.992-38.186 1.92-1.494 10.454-7.466 12.586-9.174 9.622-7.894 15.786-19.84 15.786-33.302 0-12.8-5.546-24.32-14.506-32l-176-145.066c-7.254-5.974-16.618-9.6-26.88-9.6-11.542 0-21.994 4.48-29.674 11.734-3.008 2.986-29.418 30.08-29.418 30.08-18.368 18.346-48 18.346-66.368 0l-179.606-179.84c-18.346-18.346-18.346-48.214 0-66.56l29.226-29.226c7.68-7.68 12.16-18.346 12.16-29.846 0-11.52-4.48-21.782-11.734-29.44L337.642 15.554C329.748 6.168 317.802-.02 304.576-.02c-14.08 0-26.454 6.826-34.346 17.28l-2.56 3.414c-32.854 44.374-75.734 114.774-75.734 180.906 0 182.186 406.208 587.734 586.666 587.734 3.414 0 6.826-.214 10.048-.214 3.2 33.494-8.128 68.032-33.706 93.866-45.866 45.846-120.128 45.846-165.994 0l-294.592-302.72c-62.506-62.506-163.626-62.506-226.134 0-62.506 62.506-62.506 163.626 0 226.134l96.64 95.36c20.906 20.714 54.614 20.714 75.52 0 20.694-20.886 20.694-54.614 0-75.498l-96.854-95.168c-20.694-20.886-20.694-54.614 0-75.498 20.906-20.714 54.614-20.714 75.52 0l294.614 302.696z"/></svg>