<svg xmlns="http://www.w3.org/2000/svg" width="1024" height="1024" viewBox="0 0 1024 1024"><path d="M697.824 327.04l-64.96-64.928-324.8 324.736c-53.824 53.792-53.824 141.056 0 194.848s141.056 53.792 194.88 0L892.704 392c89.728-89.664 89.728-235.072 0-324.736-89.664-89.696-235.104-89.696-324.768 0L157.856 477.28c-125.088 125.088-125.088 327.84 0 452.896 125.056 125.056 327.872 125.056 452.992 0l.832-.864.032.032L891.04 650.048l-64.992-64.928-280.16 280.096c-89.088 89.056-233.984 89.056-323.072 0-89.056-89.056-89.056-233.92 0-322.976l.896-.832-.032-.064 409.28-409.152c53.696-53.728 141.152-53.728 194.88 0s53.696 141.152 0 194.848L438.08 716.736c-17.92 17.92-47.04 17.92-64.96 0-17.888-17.888-17.888-47.04 0-64.928l324.8-324.768z"/></svg>