<svg xmlns="http://www.w3.org/2000/svg" width="1024" height="1024" viewBox="0 0 1024 1024"><path d="M0 938.666C0 985.812 38.186 1024 85.334 1024h853.334c47.146 0 85.334-38.186 85.334-85.334l-.002-512c0-47.146-38.186-85.334-85.334-85.334h-64V85.334C874.666 38.188 836.48 0 789.332 0H234.666c-47.146 0-85.332 38.186-85.332 85.334v256h-64C38.188 341.334 0 379.52 0 426.668v511.998zM768 153.6v247.466A46.8 46.8 0 0 1 721.066 448H302.934A46.8 46.8 0 0 1 256 401.066V153.6a46.8 46.8 0 0 1 46.934-46.934h418.134A46.798 46.798 0 0 1 768 153.6zm64 763.734H192c-23.466 0-42.666-19.2-42.666-42.666s19.2-42.666 42.666-42.666h640c23.466 0 42.666 19.2 42.666 42.666s-19.2 42.666-42.666 42.666zm-682.666-224c0-29.44 23.892-53.334 53.332-53.334S256 663.894 256 693.334s-23.894 53.332-53.334 53.332-53.332-23.892-53.332-53.332z"/></svg>