<svg xmlns="http://www.w3.org/2000/svg" width="1024" height="1024" viewBox="0 0 1024 1024"><path d="M416 960h160c52.934 0 96-43.066 96-96 0-17.104-4.494-33.176-12.368-47.098C686.296 799.826 704 769.944 704 736c0-24.564-9.276-47.004-24.504-64C694.724 655.004 704 632.564 704 608a95.596 95.596 0 0 0-5.484-32H928c52.934 0 96-43.066 96-96s-43.066-96-96-96H533.324l93.836-176.018C635.56 193.446 640 176.856 640 160c0-52.934-43.066-96-96-96-26.368 0-50.954 10.472-69.226 29.49-.238.248-.47.496-.7.75L256 333.41V288c0-17.672-14.326-32-32-32H32c-17.674 0-32 14.328-32 32v640c0 17.674 14.326 32 32 32h192c17.674 0 32-14.326 32-32v-44.222l145.69 72.844A31.993 31.993 0 0 0 416 960zm-256-64c-17.674 0-32-14.326-32-32s14.326-32 32-32 32 14.326 32 32-14.326 32-32 32zm263.556 0L256 812.222V428.398L521.168 137.58C527.234 131.4 535.33 128 544 128c17.644 0 32 14.356 32 32 0 5.46-1.308 10.612-3.894 15.324-.324.53-.632 1.07-.926 1.622l-119.418 224a31.992 31.992 0 0 0 .8 31.52A31.998 31.998 0 0 0 480 448h448c17.644 0 32 14.356 32 32s-14.356 32-32 32H608c-17.672 0-32 14.326-32 32s14.328 32 32 32c17.644 0 32 14.356 32 32s-14.356 32-32 32c-17.674 0-32 14.326-32 32s14.326 32 32 32c17.644 0 32 14.356 32 32s-14.356 32-32 32h-32c-17.674 0-32 14.326-32 32s14.326 32 32 32c17.644 0 32 14.356 32 32s-14.356 32-32 32H423.556z"/></svg>