<svg xmlns="http://www.w3.org/2000/svg" width="1024" height="1024" viewBox="0 0 1024 1024"><path d="M608 960H448c-52.934 0-96-43.066-96-96 0-17.104 4.494-33.176 12.368-47.098C337.706 799.826 320 769.944 320 736c0-24.564 9.276-47.004 24.504-64C329.276 655.004 320 632.564 320 608a95.596 95.596 0 0 1 5.484-32H96c-52.934 0-96-43.066-96-96 0-52.936 43.066-96 96-96h394.676L396.84 207.982C388.442 193.446 384 176.856 384 160c0-52.936 43.066-96 96-96 26.368 0 50.952 10.472 69.224 29.488.238.248.472.496.7.75L768 333.408V288c0-17.674 14.326-32 32-32h192c17.674 0 32 14.326 32 32v640c0 17.674-14.326 32-32 32H800c-17.674 0-32-14.326-32-32v-44.222l-145.69 72.844A31.98 31.98 0 0 1 608 960zm256-64c17.674 0 32-14.326 32-32s-14.326-32-32-32-32 14.326-32 32 14.326 32 32 32zm-263.554 0L768 812.222V428.398l-265.168-290.82C496.766 131.398 488.67 128 480 128c-17.644 0-32 14.356-32 32 0 5.458 1.308 10.612 3.894 15.324.324.53.632 1.07.926 1.622l119.416 224A31.998 31.998 0 0 1 544 448H96c-17.644 0-32 14.356-32 32s14.356 32 32 32h320c17.672 0 32 14.326 32 32s-14.328 32-32 32c-17.644 0-32 14.356-32 32s14.356 32 32 32c17.674 0 32 14.326 32 32s-14.326 32-32 32c-17.644 0-32 14.356-32 32s14.356 32 32 32h32c17.674 0 32 14.326 32 32s-14.326 32-32 32c-17.644 0-32 14.356-32 32s14.356 32 32 32h152.446z"/></svg>