<svg xmlns="http://www.w3.org/2000/svg" width="1024" height="1024" viewBox="0 0 1024 1024"><path d="M577.248 599.072v105.376H705.12V832.32H577.248v127.872H447.424V832.32h-127.84V704.448h127.84v-105.76c-109.92-28.64-191.136-128.288-191.136-247.136C256.288 210.336 370.784 95.84 512 95.84c141.248 0 255.68 114.496 255.68 255.712 0 119.328-79.872 219.264-190.432 247.52zM512 223.712c-70.624 0-127.872 57.216-127.872 127.84 0 70.592 57.248 127.84 127.872 127.84s127.872-57.248 127.872-127.84c0-70.624-57.248-127.84-127.872-127.84z"/></svg>