<svg xmlns="http://www.w3.org/2000/svg" width="1024" height="1024" viewBox="0 0 1024 1024"><path d="M384 586.656s203.936-122.368 318.752-74.016c23.808-36.256 47.264-75.328 70.208-115.232-112.32-27.52-260.96-2.752-260.96-2.752s190.208-114.112 306.656-78.4c23.36-42.112 46.048-83.648 67.968-122.304C793.856 187.68 704 202.656 704 202.656s119.136-71.488 226.592-83.584C964.384 64.224 995.776 21.184 1024 0 463.008 0 128 640 0 1024h64l192-320s64 64 256 0c45.472-15.168 90.944-57.248 135.584-113.92C534.976 561.536 384 586.688 384 586.688z"/></svg>