<svg xmlns="http://www.w3.org/2000/svg" width="1024" height="1024" viewBox="0 0 1024 1024"><path d="M913.826 679.694C847.142 575.49 732.748 529.63 658.316 577.26a116.454 116.454 0 0 0-17.744 13.982L561.12 466.98l183.462-287.972c15.016-27.73 20.558-60.758 13.266-93.974-6.972-31.75-24.516-58.438-48.102-77.226L697.468 0 480 340.114 262.53 0l-12.276 7.806c-23.586 18.79-41.13 45.476-48.1 77.226-7.292 33.216-1.75 66.244 13.264 93.974l183.464 287.972-79.454 124.262a116.33 116.33 0 0 0-17.744-13.982c-74.432-47.63-188.826-1.77-255.51 102.434-66.68 104.2-60.398 227.286 14.032 274.914 74.43 47.632 188.824 1.77 255.508-102.432L480 594.304l164.288 257.872c66.684 104.202 181.078 150.064 255.508 102.432 74.428-47.63 80.71-170.716 14.03-274.914zM234.852 800.43c-30.018 46.904-68.534 69.726-94.572 75.446h-.004c-8.49 1.868-20.294 3.01-28.324-2.128-8.898-5.694-14.804-20.748-15.8-40.276-1.616-31.644 9.642-68.836 30.888-102.034 30.014-46.906 68.53-69.726 94.562-75.444 8.496-1.866 20.308-3.01 28.336 2.126 8.898 5.694 14.802 20.75 15.798 40.272 1.618 31.65-9.64 68.84-30.884 102.038zM480 512c-17.672 0-32-14.328-32-32s14.328-32 32-32 32 14.328 32 32-14.328 32-32 32zm383.85 321.47c-.996 19.528-6.902 34.582-15.8 40.276-8.03 5.138-19.834 3.996-28.324 2.128h-.004c-26.04-5.718-64.554-28.542-94.572-75.446-21.244-33.198-32.502-70.388-30.884-102.038.996-19.522 6.9-34.578 15.798-40.272 8.028-5.136 19.84-3.992 28.336-2.126 26.034 5.716 64.548 28.538 94.562 75.444 21.246 33.198 32.502 70.39 30.888 102.034z"/></svg>