<svg xmlns="http://www.w3.org/2000/svg" width="1024" height="1024" viewBox="0 0 1024 1024"><path d="M193.856 218.72l21.952 21.952-89.856 89.856 70.016 70.016 90.272-90.272 20.512 20.512-90.272 90.304 69.12 69.088 205.312-205.312L240.928 36.352 36.352 240.928 104 308.608l89.856-89.888zm545.312 314.368L533.856 738.432l69.088 69.088 90.304-90.272 20.512 20.512-90.272 90.272 70.016 70.016 89.824-89.856 21.952 21.952L715.456 920l67.616 67.648L987.68 783.04 739.168 533.088zm215.136-262.656c24.992-25.024 25.184-65.44.384-90.272L842.304 67.808c-24.8-24.8-65.248-24.672-90.24.384l-69.44 69.44 202.24 202.24 69.44-69.44zM108.736 830.144l83.936 83.936 169.088-60.064-192.96-192.96-60.064 169.088zM660.8 158.176L184.48 634.528l203.808 203.808L864.64 361.984 660.8 158.176zM277.024 634.112L660.416 250.72l22.336 22.336L299.328 656.48l-22.304-22.368zm44.672 44.704l383.36-383.392 22.336 22.336L344 701.12l-22.304-22.304zm44.672 44.64L749.76 340.064l22.304 22.336-383.36 383.392-22.336-22.336zM62.528 960.32l98.112-35.744-62.368-62.368-35.744 98.112z"/></svg>