<svg xmlns="http://www.w3.org/2000/svg" width="1024" height="1024" viewBox="0 0 1024 1024"><path d="M384.945 52.825C342.03 19.635 283.682 15.83 230.618 31.473c-16.7 4.862-32.768 11.627-47.566 20.084C113.076 90.88 33.8 169.31 13.082 248.587-7.004 325.54 4.2 406.72 16.25 484.94c3.594-13.74 8.456-27.06 14.375-39.533 39.322-82.872 126.21-122.193 191.534-180.54v-33.614c0-11.416 9.51-20.717 20.71-20.717 11.41 0 20.71 9.513 20.71 20.717v35.305c32.98 30.23 62.57 65.324 92.17 98.727 16.06 18.18 31.92 36.785 47.78 55.177 6.13 7.188 12.47 14.375 18.39 21.986 4.44-55.81 13.74-110.143 22.62-168.702 12.05-79.277 3.8-172.085-59.62-220.92zM130.2 718.333c-33.19-10.57-60.885-34.248-81.603-62.788 17.546 70.82 39.322 141.22 60.885 206.967 40.38 123.884 176.313 125.575 264.47 79.277 82.45-43.34 69.976-185.83 56.446-300.84-8.88 13.32-19.238 26-25.37 40.59-4.227 10.57-13.74 17.76-25.58 14.58-9.936-2.75-18.814-15.01-14.586-25.58 15.01-36.58 47.143-64.48 50.314-105.92 2.537-31.93-1.48-62.16-20.084-89.01-23.043-32.98-52.218-63.21-79.277-92.81-24.523-26.85-48.2-55.178-74.415-80.335-56.657 46.94-129.592 82.88-166.8 147.78-21.35 37-32.344 88.37-18.814 130.02 12.896 39.534 43.972 84.775 85.408 98.093 25.58 8.032 14.587 48.2-10.994 39.955zm872.263-233.393c12.05-78.22 23.255-159.4 3.17-236.352-20.716-79.277-100.205-157.71-170.18-197.03-14.8-8.457-30.867-15.223-47.567-20.085-52.852-15.432-111.412-11.84-154.327 21.352-63.21 49.047-71.46 141.642-59.62 220.92 8.67 58.348 18.18 112.68 22.62 168.702 5.92-7.4 12.26-14.798 18.39-21.986 15.85-18.39 31.71-36.99 47.78-55.17 29.59-33.4 59.19-68.49 92.17-98.72v-35.31c0-11.41 9.51-20.71 20.71-20.71 11.41 0 20.72 9.52 20.72 20.72v33.41c65.53 58.347 152.21 97.88 191.53 180.54 6.13 12.473 10.99 25.79 14.58 39.744zM639.055 696.135c-11.84 3.17-21.352-4.017-25.58-14.587-5.92-14.587-16.28-27.483-25.37-40.59-13.53 115.005-26.002 257.282 56.447 300.83 87.945 46.3 223.88 44.396 264.47-79.276 21.564-65.748 43.338-136.146 60.885-206.967-20.717 28.54-48.412 52.218-81.603 62.788-25.58 8.245-36.362-31.923-10.994-40.167 41.436-13.318 72.3-58.348 85.408-98.092 13.53-41.436 2.537-92.807-18.815-130.015-37.208-64.91-110.355-100.85-166.8-147.78-26.213 25.15-49.89 53.48-74.414 80.33-27.06 29.59-56.24 60.04-79.28 92.8-18.61 26.85-22.41 56.87-20.09 89 3.17 41.43 35.3 69.13 50.31 105.91 4.01 10.78-4.65 23.04-14.59 25.79z"/></svg>