<svg xmlns="http://www.w3.org/2000/svg" width="1024" height="1024" viewBox="0 0 1024 1024"><path d="M639.996 448c-35.346 0-64-28.654-63.998-64.002 0-1.17.036-2.33.098-3.484 2.032-47.454 45.212-78.946 81.592-97.138 34.742-17.37 69.102-26.06 70.548-26.422 17.146-4.288 34.518 6.138 38.806 23.284 4.284 17.146-6.14 34.518-23.284 38.806-17.626 4.45-38.522 12.12-56.936 21.35 10.648 11.43 17.174 26.752 17.174 43.606 0 35.346-28.654 64-64 64zM280.242 319.044c-17.144-4.286-27.568-21.66-23.282-38.804 4.286-17.146 21.66-27.572 38.806-23.284 1.444.362 35.806 9.05 70.548 26.422 36.382 18.19 79.56 49.684 81.592 97.138.062 1.154.098 2.316.098 3.484 0 35.346-28.654 64-64 64s-64-28.654-64-64c0-16.854 6.526-32.176 17.174-43.606-18.414-9.23-39.312-16.9-56.936-21.35zM512 736c81.554 0 152.924-43.592 192.098-108.74l82.328 49.396C730.464 769.726 628.51 832 512 832s-218.464-62.274-274.426-155.344l82.328-49.396C359.076 692.408 430.444 736 512 736zm512-672c0-45.516-9.524-88.8-26.652-128C963.772 12.836 900.9 73.932 822.854 105.178 736.66 39.218 628.918 0 512 0S287.34 39.218 201.146 105.178C123.098 73.932 60.228 12.836 26.652-64 9.524-24.8 0 18.484 0 64c0 73.574 24.85 141.328 66.588 195.378C24.218 333.92 0 420.128 0 512c0 282.77 229.23 512 512 512s512-229.23 512-512c0-91.872-24.218-178.08-66.588-252.622C999.15 205.328 1024 137.574 1024 64zM512 928C282.25 928 96 741.75 96 512S282.25 96 512 96s416 186.25 416 416-186.25 416-416 416z"/></svg>