<svg xmlns="http://www.w3.org/2000/svg" width="1024" height="1024" viewBox="0 0 1024 1024"><path d="M512 0C229.23 0 0 229.23 0 512s229.226 512 512 512c282.77 0 512-229.23 512-512S794.77 0 512 0zm192 256c35.346 0 64 28.654 64 64s-28.654 64-64 64-64-28.654-64-64c0-35.346 28.654-64 64-64zm-384 0c35.346 0 64 28.654 64 64s-28.654 64-64 64-64-28.654-64-64c0-35.346 28.654-64 64-64zm367.01 554.56c-82.902 30.18-174.9-12.712-205.08-95.614-18.108-49.742-73.306-75.478-123.048-57.372-45.562 16.588-70.958 64.296-60.988 110.424h-64.86c-9.244-72.508 32.45-144.532 103.956-170.56 82.904-30.18 174.902 12.712 205.082 95.614 18.108 49.742 73.306 75.476 123.046 57.37 45.562-16.584 70.958-64.294 60.988-110.422h64.864c9.24 72.506-32.454 144.532-103.96 170.56z"/></svg>