<svg xmlns="http://www.w3.org/2000/svg" width="1024" height="1024" viewBox="0 0 1024 1024"><path d="M864 704c-45.152 0-85.92 18.752-115.008 48.832L317.984 537.344c1.312-8.256 2.016-16.704 2.016-25.312s-.704-17.088-2.016-25.312l431.008-215.488c29.088 30.08 69.856 48.832 115.008 48.832 88.352 0 160-71.648 160-160s-71.648-160-160-160-160 71.648-160 160c0 8.608.704 17.088 2.016 25.312L275.008 400.864c-29.088-30.08-69.856-48.832-115.008-48.832-88.352 0-160 71.648-160 160s71.648 160 160 160c45.152 0 85.92-18.752 115.008-48.832l431.008 215.488A161.134 161.134 0 0 0 704 864c0 88.352 71.648 160 160 160s160-71.648 160-160-71.648-160-160-160z"/></svg>