<svg xmlns="http://www.w3.org/2000/svg" width="1024" height="1024" viewBox="0 0 1024 1024"><path d="M512 1024c282.77 0 512-229.23 512-512S794.77 0 512 0 0 229.23 0 512s229.23 512 512 512zm0-928c229.75 0 416 186.25 416 416S741.75 928 512 928 96 741.75 96 512 282.25 96 512 96z"/><path d="M800 384H672c-17.674 0-32-14.328-32-32s14.326-32 32-32h128c17.674 0 32 14.328 32 32s-14.326 32-32 32zm-448 0H224c-17.672 0-32-14.328-32-32s14.328-32 32-32h128c17.672 0 32 14.328 32 32s-14.328 32-32 32zm256 472c-8.19 0-16.378-3.124-22.626-9.374C580.792 842.044 555.954 832 512 832s-68.79 10.044-73.374 14.626c-12.496 12.496-32.758 12.496-45.254 0-12.498-12.496-12.498-32.758 0-45.254C423.494 771.252 486.366 768 512 768c25.632 0 88.506 3.252 118.626 33.374 12.498 12.496 12.498 32.758 0 45.254C624.378 852.876 616.19 856 608 856zm128-280c-17.674 0-32-14.326-32-32v-64c0-17.672 14.326-32 32-32s32 14.328 32 32v64c0 17.674-14.326 32-32 32zm0 192c-17.674 0-32-14.326-32-32v-64c0-17.674 14.326-32 32-32s32 14.326 32 32v64c0 17.674-14.326 32-32 32zM288 576c-17.672 0-32-14.326-32-32v-64c0-17.672 14.328-32 32-32s32 14.328 32 32v64c0 17.674-14.328 32-32 32zm0 192c-17.672 0-32-14.326-32-32v-64c0-17.674 14.328-32 32-32s32 14.326 32 32v64c0 17.674-14.328 32-32 32z"/></svg>