<svg xmlns="http://www.w3.org/2000/svg" width="1024" height="1024" viewBox="0 0 1024 1024"><path d="M512 0C229.23 0 0 229.23 0 512s229.23 512 512 512 512-229.23 512-512S794.77 0 512 0zm64.094 380.516c2.032-47.454 45.21-78.948 81.592-97.138 34.742-17.372 69.104-26.06 70.548-26.422 17.146-4.288 34.52 6.138 38.806 23.284s-6.138 34.518-23.284 38.806c-17.624 4.45-38.522 12.12-56.936 21.35 10.648 11.43 17.174 26.752 17.174 43.606 0 35.346-28.654 64-64 64s-64-28.654-64-64c.002-1.17.038-2.332.1-3.486zM256.958 280.24c4.288-17.146 21.66-27.572 38.806-23.284 1.446.362 35.806 9.052 70.548 26.422 36.38 18.192 79.56 49.684 81.592 97.138.062 1.154.098 2.314.098 3.484 0 35.346-28.654 64-64 64s-64-28.654-64-64c0-16.854 6.526-32.176 17.174-43.606-18.414-9.23-39.31-16.9-56.936-21.35-17.142-4.286-27.566-21.66-23.282-38.804zm447.14 500.5C664.924 715.592 593.554 672 512 672c-81.556 0-152.924 43.592-192.098 108.74l-82.328-49.396C293.534 638.274 395.49 576 512 576c116.508 0 218.464 62.274 274.426 155.344l-82.328 49.396z"/></svg>