<svg xmlns="http://www.w3.org/2000/svg" width="1024" height="1024" viewBox="0 0 1024 1024"><path d="M512 0C229.23 0 0 229.23 0 512s229.23 512 512 512 512-229.23 512-512S794.77 0 512 0zM320 736c0 17.674-14.328 32-32 32s-32-14.326-32-32v-64c0-17.674 14.328-32 32-32s32 14.326 32 32v64zm0-192c0 17.674-14.328 32-32 32s-32-14.326-32-32v-64c0-17.672 14.328-32 32-32s32 14.328 32 32v64zm32-160H224c-17.672 0-32-14.328-32-32s14.328-32 32-32h128c17.672 0 32 14.328 32 32s-14.328 32-32 32zm278.626 462.626C624.378 852.876 616.19 856 608 856s-16.378-3.124-22.626-9.374C580.792 842.044 555.954 832 512 832s-68.79 10.044-73.374 14.626c-12.496 12.496-32.758 12.496-45.254 0-12.498-12.496-12.498-32.758 0-45.254C423.494 771.252 486.366 768 512 768c25.632 0 88.506 3.252 118.626 33.374 12.498 12.496 12.498 32.756 0 45.252zM768 736c0 17.674-14.326 32-32 32s-32-14.326-32-32v-64c0-17.674 14.326-32 32-32s32 14.326 32 32v64zm0-192c0 17.674-14.326 32-32 32s-32-14.326-32-32v-64c0-17.672 14.326-32 32-32s32 14.328 32 32v64zm32-160H672c-17.674 0-32-14.328-32-32s14.326-32 32-32h128c17.674 0 32 14.328 32 32s-14.326 32-32 32z"/></svg>