<svg xmlns="http://www.w3.org/2000/svg" width="1024" height="1024"><path d="M512 171.935c-146.586 0-265.45 118.863-265.45 265.45 0 73.292 29.634 139.685 77.7 187.75 24.03 24.033 39.54 175.338 71.307 188.782 31.767 13.444 201.325 13.444 233.092 0 31.762-13.443 47.07-164.75 71.1-188.782 48.063-48.065 77.9-114.458 77.9-187.75 0-146.587-119.07-265.45-265.654-265.45zM78.997 312.903c-31.53.76-61.1 19.92-73.37 51.112-16.357 41.59 4.163 88.75 45.753 105.107 20.202 7.945 41.756 6.81 60.386-.824l112.527 44.104c-6.28-24.162-10.717-48.95-10.717-75.018 0-17.796 2.144-34.983 5.153-51.936l-64.51-25.35c-8.44-18.282-23.28-33.684-43.49-41.63-10.396-4.09-21.227-5.818-31.737-5.565zm866.006 0c-10.526-.273-21.34 1.476-31.738 5.565-20.198 7.944-35.048 23.15-43.486 41.425l-64.51 25.35c3.034 17.017 5.36 34.27 5.36 52.14 0 26.108-4.577 51.043-10.927 75.225l112.733-44.31c18.63 7.633 39.98 8.563 60.18.618 41.59-16.357 62.11-63.105 45.75-104.695-12.267-31.19-41.792-50.492-73.37-51.313zM403.595 373.29c41.626 0 75.43 33.803 75.43 75.43 0 41.626-33.804 75.43-75.43 75.43-41.627 0-75.43-33.804-75.43-75.43 0-41.627 33.803-75.43 75.43-75.43zm216.81 0c41.627 0 75.43 33.803 75.43 75.43 0 41.626-33.803 75.43-75.43 75.43-41.626 0-75.43-33.804-75.43-75.43 0-41.627 33.804-75.43 75.43-75.43zm-358.81 225.878l-149.83 58.942c-18.63-7.634-40.183-8.563-60.385-.618C9.79 673.85-10.73 720.804 5.628 762.394c16.357 41.59 63.518 61.904 105.107 45.546 20.204-7.946 35.05-23.142 43.486-41.425l163.02-64.095c-2.6-10.254-5.34-21.79-7.83-30.09-4.91-16.373-13.623-28.878-8.652-23.906-14.858-14.86-27.71-31.525-39.158-49.257zm500.81 0c-11.503 17.753-24.495 34.386-39.365 49.256 4.988-4.988-3.765 7.537-8.656 23.907-2.463 8.25-5.243 19.708-7.83 29.888L869.78 766.52c8.434 18.275 23.284 33.48 43.482 41.424 41.59 16.358 88.75-3.956 105.107-45.546 16.36-41.59-4.164-88.545-45.75-104.902-20.2-7.945-41.55-7.015-60.18.62L762.4 599.17z" opacity=".8" color="#000" overflow="visible"/></svg>