<svg xmlns="http://www.w3.org/2000/svg" width="1024" height="1024" viewBox="0 0 1024 1024"><path d="M512 1024c282.77 0 512-229.23 512-512S794.77 0 512 0 0 229.23 0 512s229.23 512 512 512zm0-928c229.75 0 416 186.25 416 416S741.75 928 512 928 96 741.75 96 512 282.25 96 512 96zm288 160c17.6 0 32 14.4 32 32v96c0 35.2-28.8 64-64 64H640c-35.2 0-64-28.8-64-64H448c0 35.2-28.8 64-64 64H256c-35.2 0-64-28.8-64-64v-96c0-17.6 14.4-32 32-32h192c17.6 0 32 14.4 32 32v32h128v-32c0-17.6 14.4-32 32-32h192zM512 768c93.208 0 174.772-49.818 219.546-124.278l54.88 32.934C730.46 769.726 628.51 832 512 832c-48.458 0-94.384-10.796-135.54-30.082l33.162-55.278C440.976 760.354 475.586 768 512 768z"/></svg>