<svg xmlns="http://www.w3.org/2000/svg" width="1024" height="1024" viewBox="0 0 1024 1024"><path d="M512 1024c282.77 0 512-229.23 512-512S794.77 0 512 0 0 229.23 0 512s229.23 512 512 512zm0-928c229.75 0 416 186.25 416 416S741.75 928 512 928 96 741.75 96 512 282.25 96 512 96zM256 320c0-35.346 28.654-64 64-64s64 28.654 64 64c0 35.346-28.654 64-64 64s-64-28.654-64-64zm384 0c0-35.346 28.654-64 64-64s64 28.654 64 64c0 35.346-28.654 64-64 64s-64-28.654-64-64zm86.106 320h64.864c9.246 72.506-32.452 144.53-103.958 170.56-82.904 30.176-174.9-12.716-205.08-95.616-18.108-49.744-73.306-75.482-123.048-57.372-45.562 16.588-70.956 64.298-60.988 110.424h-64.86c-9.242-72.508 32.45-144.528 103.956-170.56 82.904-30.178 174.902 12.716 205.082 95.614 18.104 49.748 73.306 75.482 123.044 57.372 45.562-16.584 70.956-64.298 60.988-110.422z"/></svg>