<svg xmlns="http://www.w3.org/2000/svg" width="1024" height="1024" viewBox="0 0 1024 1024"><path d="M512 1024c282.77 0 512-229.23 512-512S794.77 0 512 0 0 229.23 0 512s229.23 512 512 512zm0-928c229.75 0 416 186.25 416 416S741.75 928 512 928 96 741.75 96 512 282.25 96 512 96zM192 512v64c0 140.8 115.2 256 256 256h128c140.8 0 256-115.2 256-256v-64H192zm192 244.988c-26.538-9.458-50.924-24.822-71.544-45.446C276.05 675.14 256 627.002 256 576h128v180.988zM576 768H448V576h128v192zm135.544-56.458c-20.624 20.624-45.01 35.988-71.544 45.446V576h128c0 51.002-20.048 99.14-56.456 135.542zM225.352 384c.002 0 0 0 0 0 9.768 0 18.108-7.056 19.724-16.69C251.234 330.626 282.744 304 320 304s68.766 26.626 74.924 63.31c1.616 9.632 9.956 16.69 19.722 16.69 9.768 0 18.108-7.056 19.724-16.688A116.848 116.848 0 0 0 435.998 348c0-63.962-52.038-116-116-116s-116 52.038-116 116c0 6.378.548 12.876 1.628 19.312 1.62 9.632 9.96 16.688 19.726 16.688zm384 0c.002 0 0 0 0 0 9.77 0 18.112-7.056 19.724-16.69C635.234 330.626 666.744 304 704 304s68.766 26.626 74.924 63.31c1.616 9.632 9.958 16.69 19.722 16.69s18.108-7.056 19.722-16.688A116.848 116.848 0 0 0 819.996 348c0-63.962-52.038-116-116-116s-116 52.038-116 116c0 6.378.544 12.876 1.626 19.312 1.624 9.632 9.964 16.688 19.73 16.688z"/></svg>