<svg xmlns="http://www.w3.org/2000/svg" width="1024" height="1024" viewBox="0 0 1024 1024"><path d="M512 1024c282.77 0 512-229.23 512-512S794.77 0 512 0 0 229.23 0 512s229.23 512 512 512zm0-928c229.75 0 416 186.25 416 416S741.75 928 512 928 96 741.75 96 512 282.25 96 512 96z"/><path d="M640 672c0 88.366-57.308 160-128.002 160s-128.002-71.634-128.002-160 57.308-160 128.002-160S640 583.634 640 672zM416 340c-8.19 0-16.378-3.124-22.626-9.374-19.334-19.332-63.412-19.332-82.746 0-12.496 12.498-32.758 12.498-45.254 0-12.498-12.496-12.498-32.758 0-45.254 44.528-44.53 128.726-44.53 173.254 0 12.498 12.496 12.498 32.758 0 45.254C432.38 336.876 424.19 340 416 340zm320 0c-8.19 0-16.378-3.124-22.626-9.374-19.332-19.332-63.414-19.332-82.746 0-12.496 12.498-32.758 12.498-45.254 0-12.498-12.496-12.498-32.758 0-45.254 44.528-44.53 128.726-44.53 173.254 0 12.498 12.496 12.498 32.758 0 45.254C752.38 336.876 744.19 340 736 340z"/></svg>