<svg xmlns="http://www.w3.org/2000/svg" width="1024" height="1024" viewBox="0 0 1024 1024"><path d="M512 1024c282.77 0 512-229.23 512-512S794.77 0 512 0 0 229.23 0 512s229.23 512 512 512zm0-928c229.75 0 416 186.25 416 416S741.75 928 512 928 96 741.75 96 512 282.25 96 512 96zM384 704c0-70.692 57.308-128 128-128s128 57.308 128 128c0 70.692-57.308 128-128 128s-128-57.308-128-128zm256-352c0-53.02 28.654-96 64-96s64 42.98 64 96-28.654 96-64 96-64-42.98-64-96zm-384 0c0-53.02 28.654-96 64-96s64 42.98 64 96-28.654 96-64 96-64-42.98-64-96z"/></svg>