<svg xmlns="http://www.w3.org/2000/svg" width="1024" height="1024" viewBox="0 0 1024 1024"><path d="M512 0C229.23 0 0 229.23 0 512s229.23 512 512 512 512-229.23 512-512S794.77 0 512 0zm192 256c35.346 0 64 28.654 64 64s-28.654 64-64 64-64-28.654-64-64 28.654-64 64-64zm-384 0c35.346 0 64 28.654 64 64s-28.654 64-64 64-64-28.654-64-64 28.654-64 64-64zm384.098 524.74C664.924 715.592 593.554 672 512 672c-81.556 0-152.924 43.592-192.098 108.74l-82.328-49.396C293.534 638.274 395.49 576 512 576c116.508 0 218.464 62.274 274.426 155.344l-82.328 49.396z"/></svg>