<svg xmlns="http://www.w3.org/2000/svg" width="1024" height="1024" viewBox="0 0 1024 1024"><path d="M512 1024c282.77 0 512-229.23 512-512S794.77 0 512 0 0 229.23 0 512s229.23 512 512 512zm0-928c229.75 0 416 186.25 416 416S741.75 928 512 928 96 741.75 96 512 282.25 96 512 96zM256 320c0-35.346 28.654-64 64-64s64 28.654 64 64-28.654 64-64 64-64-28.654-64-64zm384 0c0-35.346 28.654-64 64-64s64 28.654 64 64-28.654 64-64 64-64-28.654-64-64z"/><path d="M675.882 540.118c-37.49-37.49-98.276-37.49-135.766 0s-37.49 98.276 0 135.766a95.757 95.757 0 0 0 3.684 3.492C630.328 757.888 832 677.534 832 576c-62 40-110.45 9.786-156.118-35.882zm-327.764 0c37.49-37.49 98.276-37.49 135.766 0s37.49 98.276 0 135.766a95.757 95.757 0 0 1-3.684 3.492C393.672 757.888 192 677.534 192 576c62 40 110.45 9.786 156.118-35.882z"/></svg>