<svg xmlns="http://www.w3.org/2000/svg" width="1024" height="1024" viewBox="0 0 1024 1024"><path d="M256 656v96c0 8.674 7.328 16 16 16h112V640H272c-8.672 0-16 7.326-16 16zm192-16h128v128H448V640zm304 0H640v128h112c8.674 0 16-7.326 16-16v-96c0-8.674-7.326-16-16-16z"/><path d="M512 0C229.23 0 0 229.23 0 512s229.23 512 512 512 512-229.23 512-512S794.77 0 512 0zm64.096 380.516c2.034-47.454 45.212-78.946 81.592-97.138 34.742-17.37 69.102-26.06 70.548-26.422 17.146-4.288 34.518 6.138 38.806 23.284 4.284 17.144-6.14 34.518-23.284 38.804-17.624 4.45-38.522 12.12-56.936 21.35 10.648 11.43 17.174 26.752 17.174 43.606 0 35.346-28.654 64-64 64s-64-28.654-64-64c.002-1.17.04-2.33.1-3.484zM256.958 280.24c4.288-17.146 21.66-27.572 38.806-23.284 1.446.362 35.806 9.052 70.548 26.422 36.38 18.192 79.56 49.684 81.592 97.138.062 1.154.098 2.314.098 3.484 0 35.346-28.654 64-64 64s-64-28.654-64-64c0-16.854 6.526-32.176 17.174-43.606-18.414-9.23-39.31-16.9-56.936-21.35-17.142-4.286-27.566-21.66-23.282-38.804zM832 752c0 44.112-35.888 80-80 80H272c-44.112 0-80-35.888-80-80v-96c0-44.112 35.888-80 80-80h480c44.112 0 80 35.888 80 80v96z"/></svg>