<svg xmlns="http://www.w3.org/2000/svg" width="1024" height="1024" viewBox="0 0 1024 1024"><path d="M512 0C229.23 0 0 229.23 0 512s229.23 512 512 512 512-229.23 512-512S794.77 0 512 0zm192 256c35.348 0 64 42.98 64 96s-28.652 96-64 96-64-42.98-64-96 28.652-96 64-96zm-384 0c35.346 0 64 42.98 64 96s-28.654 96-64 96-64-42.98-64-96 28.654-96 64-96zm192 640c-166.868 0-305.422-139.872-320-318.304 93.77 54.114 204.05 85.064 320 85.064s226.23-30.806 320-84.92C817.426 756.278 678.872 896 512 896z"/></svg>