<svg xmlns="http://www.w3.org/2000/svg" width="1024" height="1024" viewBox="0 0 1024 1024"><path d="M512 0C229.23 0 0 229.23 0 512s229.226 512 512 512c282.77 0 512-229.23 512-512S794.77 0 512 0zm192 236c63.962 0 116 52.038 116 116 0 6.378-.546 12.876-1.628 19.312-1.618 9.632-9.958 16.688-19.724 16.688s-18.108-7.056-19.722-16.69C772.766 334.626 741.256 318 704 318s-68.766 16.626-74.924 53.31c-1.616 9.632-9.956 16.69-19.722 16.69h-.002c-9.766 0-18.106-7.056-19.722-16.688A116.636 116.636 0 0 1 588 352c0-63.962 52.038-116 116-116zm-384 0c63.962 0 116 52.038 116 116 0 6.378-.548 12.876-1.628 19.312-1.618 9.632-9.956 16.688-19.724 16.688s-18.106-7.056-19.722-16.69C388.766 334.626 357.256 318 320 318s-68.766 16.626-74.924 53.31c-1.616 9.632-9.956 16.69-19.722 16.69-9.766 0-18.106-7.056-19.724-16.688A116.85 116.85 0 0 1 204 352c0-63.962 52.038-116 116-116zM192 576h192v247.846C273.906 795.24 192 694.722 192 576zm256 256V576h128v256H448zm192-8.154V576h192c0 118.722-81.904 219.24-192 247.846z"/></svg>