<svg xmlns="http://www.w3.org/2000/svg" width="1024" height="1024" viewBox="0 0 1024 1024"><path d="M512 0C229.23 0 0 229.23 0 512s229.23 512 512 512 512-229.23 512-512S794.77 0 512 0zm192 256c35.346 0 64 28.654 64 64s-28.654 64-64 64-64-28.654-64-64 28.654-64 64-64zm-384 0c35.346 0 64 28.654 64 64s-28.654 64-64 64-64-28.654-64-64 28.654-64 64-64zm223.8 423.376a97.332 97.332 0 0 1-3.684-3.492c-18.74-18.74-28.112-43.3-28.118-67.864-.004 24.562-9.376 49.124-28.118 67.864a95.757 95.757 0 0 1-3.684 3.492C393.672 757.888 192 677.534 192 576c62 40 110.45 9.786 156.118-35.882 37.49-37.49 98.276-37.49 135.766 0 18.74 18.74 28.112 43.3 28.118 67.864.004-24.562 9.376-49.124 28.118-67.864 37.49-37.49 98.276-37.49 135.766 0C721.55 585.786 770 616 832 576c0 101.534-201.672 181.888-288.2 103.376z"/></svg>