<svg xmlns="http://www.w3.org/2000/svg" width="1024" height="1024" viewBox="0 0 1024 1024"><path d="M366.312 283.378c-34.742-17.37-69.102-26.06-70.548-26.422-17.146-4.288-34.518 6.138-38.806 23.284-4.284 17.144 6.14 34.518 23.282 38.804 17.626 4.45 38.522 12.12 56.936 21.35-10.648 11.43-17.174 26.752-17.174 43.606 0 35.346 28.654 64 64 64s64-28.654 64-64c0-1.17-.036-2.33-.098-3.484-2.032-47.454-45.212-78.946-81.592-97.138z"/><path d="M512 0C229.23 0 0 229.23 0 512s229.23 512 512 512 512-229.23 512-512S794.77 0 512 0zM236.498 823.664A79.508 79.508 0 0 0 272 832h480a79.483 79.483 0 0 0 35.502-8.338C714.124 888.576 617.674 928 512 928c-105.672 0-202.124-39.424-275.502-104.336zM256 752v-96c0-8.674 7.328-16 16-16h112v128H272c-8.672 0-16-7.326-16-16zm192 16V640h128v128H448zm192 0V640h112c8.674 0 16 7.326 16 16v96c0 8.674-7.326 16-16 16H640zm183.662 19.502A79.483 79.483 0 0 0 832 752v-96c0-44.112-35.888-80-80-80H272c-44.112 0-80 35.888-80 80v96a79.508 79.508 0 0 0 8.336 35.502C135.424 714.124 96 617.674 96 512 96 282.25 282.25 96 512 96s416 186.25 416 416c0 105.674-39.424 202.124-104.338 275.502z"/><path d="M728.236 256.956c-1.448.362-35.806 9.052-70.548 26.422-36.378 18.192-79.558 49.684-81.592 97.138a67.023 67.023 0 0 0-.098 3.484c0 35.346 28.654 64 64 64s64-28.654 64-64c0-16.854-6.526-32.176-17.174-43.606 18.414-9.23 39.31-16.9 56.936-21.35 17.142-4.286 27.566-21.66 23.284-38.804-4.29-17.146-21.662-27.572-38.808-23.284z"/></svg>