<svg xmlns="http://www.w3.org/2000/svg" width="1024" height="1024" viewBox="0 0 1024 1024"><path d="M512 1024c282.77 0 512-229.23 512-512S794.77 0 512 0 0 229.23 0 512s229.23 512 512 512zm0-928c229.75 0 416 186.25 416 416S741.75 928 512 928 96 741.75 96 512 282.25 96 512 96zm0 502.76c115.95 0 226.23-30.806 320-84.92C817.426 692.278 678.872 832 512 832c-166.868 0-305.422-139.872-320-318.304 93.77 54.112 204.05 85.064 320 85.064zM256 352c0-53.02 28.654-96 64-96s64 42.98 64 96-28.654 96-64 96-64-42.98-64-96zm384 0c0-53.02 28.654-96 64-96s64 42.98 64 96-28.654 96-64 96-64-42.98-64-96z"/></svg>