<svg xmlns="http://www.w3.org/2000/svg" width="1024" height="1024" viewBox="0 0 1024 1024"><path d="M512 0C229.23 0 0 229.228 0 512c0 282.77 229.228 512 512 512 282.77 0 512-229.23 512-512C1024 229.228 794.77 0 512 0zm192 256c35.346 0 64 42.98 64 96s-28.654 96-64 96-64-42.98-64-96 28.654-96 64-96zm-352 56.062c59.646 0 102 22.332 102 57.282 0 7.398 3.812 42.994-.17 49.594-14.828-24.576-54.81-42.188-101.83-42.188s-87.002 17.612-101.83 42.188c-3.982-6.6-.17-42.196-.17-49.594 0-34.95 42.354-57.282 102-57.282zM500.344 832c-119.242 0-223.858-64.28-282.892-160.952 70.41 55.06 194.534 65.81 325.288 39.978 140.248-27.706 249.11-91.542 288.454-176.594C809.54 702.392 669.676 832 500.344 832z"/></svg>