<svg xmlns="http://www.w3.org/2000/svg" width="1024" height="1024" viewBox="0 0 1024 1024"><path d="M512 0C229.23 0 0 229.23 0 512s229.23 512 512 512 512-229.23 512-512S794.77 0 512 0zM310.628 330.626c-12.496 12.498-32.758 12.498-45.254 0-12.498-12.496-12.498-32.758 0-45.254 44.528-44.53 128.726-44.53 173.254 0 12.498 12.496 12.498 32.758 0 45.254C432.38 336.876 424.19 340 416 340s-16.378-3.124-22.626-9.374c-19.334-19.332-63.412-19.332-82.746 0zM511.998 832c-70.694 0-128.002-71.634-128.002-160s57.308-160 128.002-160S640 583.634 640 672s-57.308 160-128.002 160zm246.63-501.374C752.38 336.876 744.19 340 736 340s-16.378-3.124-22.626-9.374c-19.332-19.332-63.414-19.332-82.746 0-12.496 12.498-32.758 12.498-45.254 0-12.498-12.496-12.498-32.758 0-45.254 44.528-44.53 128.726-44.53 173.254 0 12.498 12.498 12.498 32.758 0 45.254z"/></svg>