<svg xmlns="http://www.w3.org/2000/svg" width="1024" height="1024" viewBox="0 0 1024 1024"><path d="M512 0C229.23 0 0 229.23 0 512s229.23 512 512 512 512-229.23 512-512S794.77 0 512 0zm192 256c35.346 0 64 28.654 64 64s-28.654 64-64 64-64-28.654-64-64 28.654-64 64-64zm-384 0c35.346 0 64 28.654 64 64s-28.654 64-64 64-64-28.654-64-64 28.654-64 64-64zm192 576c-116.51 0-218.464-62.274-274.426-155.344l82.328-49.396C359.076 692.408 430.444 736 512 736s152.924-43.592 192.098-108.74l82.328 49.396C730.464 769.726 628.51 832 512 832z"/></svg>