<svg xmlns="http://www.w3.org/2000/svg" width="1024" height="1024" viewBox="0 0 1024 1024"><path d="M320 768V0H192v768H32l224 224 224-224H320zm608-320H672a32.005 32.005 0 0 1-28.214-16.9 32.002 32.002 0 0 1 1.59-32.85L868.208 64H672c-17.672 0-32-14.328-32-32s14.328-32 32-32h256c11.8 0 22.644 6.496 28.214 16.9a32.002 32.002 0 0 1-1.59 32.85L731.794 384H928c17.672 0 32 14.328 32 32s-14.328 32-32 32zm92.622 529.69l-192.002-384a32 32 0 0 0-57.246 0l-191.996 384c-7.904 15.806-1.496 35.03 14.31 42.932a31.882 31.882 0 0 0 14.288 3.386c11.736 0 23.04-6.484 28.644-17.698L691.778 896h216.446l55.156 110.31c7.902 15.806 27.124 22.21 42.932 14.31 15.806-7.902 22.214-27.124 14.31-42.93zM723.778 832l76.22-152.446L876.224 832H723.778z"/></svg>