<svg xmlns="http://www.w3.org/2000/svg" width="1024" height="1024" viewBox="0 0 1024 1024"><path d="M309.334 522.71c0 21.334 3.414 42.026 9.386 61.248l-87.04 50.134L76.8 592.704c-27.946-7.466-56.746 9.174-64.426 36.886-7.466 27.968 9.174 56.534 37.334 64l125.226 33.494-33.706 124.586c-7.466 27.754 9.174 56.534 37.12 64 28.16 7.466 56.96-9.174 64.426-37.078l41.386-154.048 91.094-52.288c23.68 21.546 52.48 37.782 84.266 46.336v117.334L346.026 931.67c-20.48 21.12-20.48 55.254 0 76.586 20.48 21.12 53.76 21.12 74.24 0L512 913.558l91.734 94.698c20.48 21.12 53.76 21.12 74.218 0 20.502-21.334 20.502-55.466 0-76.586L564.48 835.926V718.592c31.786-8.534 60.586-24.79 84.266-46.336l91.094 52.288 41.386 154.048c7.466 27.926 36.246 44.544 64.426 37.078 27.968-7.466 44.608-36.246 37.12-64l-33.706-124.586 125.226-33.494c28.16-7.466 44.8-36.032 37.334-64-7.658-27.712-36.48-44.33-64.426-36.886L792.298 634.07l-87.018-50.134c5.952-19.2 9.366-39.914 9.366-61.248s-3.414-42.026-9.366-61.44l87.018-49.92L947.2 452.714c27.946 7.466 56.746-9.194 64.426-36.906 7.466-27.946-9.174-56.534-37.334-64l-125.226-33.494 33.706-124.586c7.488-27.734-9.174-56.512-37.12-64-28.16-7.466-56.96 9.174-64.426 37.12L739.84 320.874l-91.094 52.266c-23.68-21.546-52.48-37.76-84.266-46.294v-96l113.472-117.12c20.502-21.12 20.502-55.254 0-76.586-20.48-21.12-53.76-21.12-74.218 0L512 131.904l-91.734-94.72c-20.48-21.12-53.76-21.12-74.24 0-20.48 21.334-20.48 55.466 0 76.586L459.52 230.89v96c-31.786 8.534-60.586 24.746-84.266 46.294l-91.094-52.266-41.386-154.026c-7.466-27.968-36.266-44.586-64.426-37.12-27.946 7.488-44.586 36.266-37.12 64l33.706 124.586-125.226 33.494c-28.16 7.466-44.8 36.054-37.334 64 7.68 27.734 36.48 44.374 64.426 36.906l154.88-41.386 87.04 49.92c-5.974 19.412-9.386 40.084-9.386 61.418zm202.666 96c-53.12 0-96-42.88-96-96s42.88-96 96-96 96 42.88 96 96-42.88 96-96 96z"/></svg>