<svg xmlns="http://www.w3.org/2000/svg" width="1024" height="1024" viewBox="0 0 1024 1024"><path d="M392.33 755.598v-477.47l389.374 238.74-389.374 238.73zM560.393 14.722C719.5 30.214 862.765 121.45 943.673 261.592s88.28 309.825 22.144 455.36l-84.343-48.694c49.155-115.306 41.98-248.11-21.625-358.272-63.598-110.16-175.027-182.773-299.46-197.863v-97.4zM917.438 800.78C824.464 930.824 673.82 1009.278 512 1009.278S199.537 930.824 106.562 800.78l84.35-48.7C266.198 852.3 384.8 912.49 512 912.49s245.8-60.19 321.085-160.41l84.356 48.7zm-859.26-83.824C-7.956 571.42-.585 401.734 80.32 261.596c80.91-140.144 224.178-231.38 383.283-246.874v97.4c-124.435 15.086-235.862 87.704-299.46 197.863-63.603 110.16-70.78 242.966-21.626 358.272l-84.343 48.698z"/></svg>