<svg xmlns="http://www.w3.org/2000/svg" width="1024" height="1024" viewBox="0 0 1024 1024"><path d="M85.334 938.666c0 47.146 38.186 85.334 85.334 85.334h682.666c47.146 0 85.334-38.186 85.334-85.334L938.666 512c0-47.146-38.186-85.334-85.334-85.334H341.334V277.332c0-94.294 76.374-170.666 170.666-170.666s170.666 76.374 170.666 170.666v10.666c0 29.44 23.894 53.334 53.334 53.334s53.334-23.894 53.334-53.334v-10.664C789.334 124.16 665.174 0 512 0 358.806 0 234.666 124.16 234.666 277.334v149.334l-64-.002c-47.146 0-85.334 38.186-85.334 85.334l.002 426.666zm341.332-277.332C426.666 614.188 464.852 576 512 576s85.334 38.186 85.334 85.334c0 30.08-15.574 56.534-39.04 71.68 0 0 8.342 50.346 17.706 109.654 0 17.706-14.294 32-32 32h-64c-17.706 0-32-14.294-32-32l17.706-109.654c-23.466-15.148-39.04-41.6-39.04-71.68z"/></svg>