<svg xmlns="http://www.w3.org/2000/svg" width="1024" height="1024" viewBox="0 0 1024 1024"><path d="M412.23 511.914c-47.708-24.518-94.086-36.958-137.88-36.958-5.956 0-11.952.18-17.948.708-55.88 4.624-106.922 19.368-139.75 30.828-8.708 3.198-17.634 6.576-26.83 10.306L0 828.192c61.702-22.832 116.292-33.938 166.27-33.938 80.846 0 139.528 30.208 187.992 61.304 22.962-77.918 78.044-266.09 94.482-322.324-11.95-7.284-24.076-14.57-36.514-21.32zm116.118 79.156l-90.446 314.148c26.832 15.372 117.098 64.05 186.212 64.05 55.792 0 118.252-14.296 190.834-43.792L901.304 623.5c-58.632 18.922-114.876 28.52-167.464 28.52-95.95 0-163.114-31.098-205.492-60.95zM292.822 368.79c77.118.798 134.152 30.208 181.416 60.502l92.752-317.344c-19.546-11.196-70.806-39.094-107.858-48.6-24.386-5.684-50.02-8.616-77.204-8.616-51.796.976-108.388 13.946-172.888 39.8L120.6 405.128c64.808-24.436 120.644-36.34 172.086-36.34.046.002.136.002.136.002zM1024 198.124c-58.814 22.832-116.208 34.466-171.028 34.466-91.686 0-159.292-31.802-203.094-62.366l-91.95 318.236c61.746 39.708 128.29 59.878 198.122 59.878 56.948 0 115.94-13.68 175.462-40.688l-.182-2.222 3.734-.886L1024 198.124z"/></svg>