<svg xmlns="http://www.w3.org/2000/svg" width="1022" height="1024" viewBox="0 0 1022 1024"><path d="M512 0C229.76 0 0 229.696 0 512h128c0-26.432 21.632-48 48-48 26.496 0 48 21.568 48 48h128c0-26.432 21.632-48 48-48 26.496 0 48 21.568 48 48v320c0 35.264-28.64 64-64 64-35.264 0-64-28.736-64-64H192c0 105.888 86.24 192 192 192 105.984 0 192-86.112 192-192V512c0-26.432 21.632-48 48-48 26.496 0 47.936 21.568 47.936 48h128c0-26.432 21.76-48 48-48 26.496 0 48 21.568 48 48h128C1023.936 229.696 794.432 0 512 0z"/></svg>