<svg xmlns="http://www.w3.org/2000/svg" width="1024" height="1024" viewBox="0 0 1024 1024"><path d="M889.366 737.92c-44.8-58.454-98.986-96.426-176.618-117.952L640 874.666c0 23.466-19.2 42.666-42.666 42.666s-42.666-19.2-42.666-42.666V672c0-29.44-23.894-53.334-53.334-53.334S448 642.56 448 672v202.666c0 23.466-19.2 42.666-42.666 42.666s-42.666-19.2-42.666-42.666l-72.746-254.698c-77.654 21.76-131.84 59.498-176.64 117.952-17.708 23.04-27.308 69.334-27.948 94.08v106.666c0 47.146 38.186 85.334 85.334 85.334h661.334c47.146 0 85.334-38.186 85.334-85.334V832c-.642-24.746-10.242-71.04-27.97-94.08zM501.334 533.334c143.786 0 224-183.04 224-307.628S625.066 0 501.334 0s-224 101.12-224 225.706 77.652 307.628 224 307.628z"/></svg>