<svg xmlns="http://www.w3.org/2000/svg" width="1056" height="1024" viewBox="0 0 1056 1024"><path d="M958.816 799.424V609.12h-93.12v191.008h-97.184v94.496H542.976v-95.2h225.536V704.32H288.8v95.136l192.96.672v95.136H288.128v-94.432h-97.152v-192.32H97.824v190.304H0V510.688h95.84v-92.512h95.136v-97.824H288.8v-95.808h95.808v96.096l287.456.768v-96.864h95.808v97.152h97.824v95.168h94.496V512h96.448v287.424h-97.824zM384.608 416.16H288.8V512h95.808v-95.84zm383.264 0h-95.808V512h95.808v-95.84zM190.976 128.736H288.8v95.808h-97.824v-95.808zm674.72 0v95.808h-97.824v-95.808h97.824z"/></svg>