<svg xmlns="http://www.w3.org/2000/svg" width="1170" height="1024" viewBox="0 0 1170 1024"><path d="M658.286 512q0-59.43-23.143-113.43t-62.57-93.428-93.43-62.57-113.43-23.144-113.428 23.143-93.43 62.575-62.57 93.43T73.142 512t23.143 113.43 62.57 93.428 93.43 62.57 113.43 23.144 113.428-23.143 93.43-62.575 62.57-93.43T658.286 512zm438.857 0q0-59.43-23.143-113.43t-62.57-93.428-93.43-62.57-113.43-23.144H584q68 51.43 107.714 128t39.714 164.57-39.714 164.572T584 804.57h220.57q59.43 0 113.43-23.143t93.43-62.57 62.57-93.43 23.143-113.43zm73.143 0q0 74.286-29.143 142t-78 116.57-116.57 78-142 29.144h-438.86q-74.285 0-142-29.143t-116.57-78-78-116.57T0 512t29.144-142 78-116.57 116.57-78 142-29.144h438.858q74.286 0 142 29.143t116.57 78 78 116.57 29.144 142z"/></svg>