<svg xmlns="http://www.w3.org/2000/svg" width="1024" height="1024" viewBox="0 0 1024 1024"><path d="M525.344 384c46.112 10.656 82.752 49.92 93.408 92.8 3.68 20.064 21.12 35.2 42.048 35.2 23.456 0 42.656-19.2 42.656-42.656 0-30.688-25.792-77.44-60.992-112.416-34.592-34.144-75.776-58.24-109.696-58.24-23.456 0-42.656 19.872-42.656 43.296.032 20.896 15.168 38.4 35.232 42.016zM127.456 501.344c0 21.536 1.696 42.88 5.344 63.392l-74.464 24.32C30.176 598.24 14.816 628.32 24 656.224c9.184 28.16 39.264 43.296 67.2 34.336l74.464-24.32c18.976 38.4 44.384 73.184 74.656 102.624l-46.08 63.552c-17.28 23.904-11.936 57.184 11.936 74.464 23.68 17.312 57.184 12.16 74.464-11.744l46.112-63.552c36.896 19.616 77.664 33.28 120.736 39.264v78.496c0 29.44 23.904 53.344 53.344 53.344s53.344-23.904 53.344-53.344v-78.496c43.104-5.984 83.84-19.616 120.736-39.264l46.08 63.552c17.312 23.904 50.784 29.024 74.464 11.744 23.872-17.28 29.216-50.56 11.968-74.464l-46.304-63.552a366.92 366.92 0 0 0 74.656-102.624l74.656 24.32c27.936 8.96 58.016-6.176 67.168-34.336 9.184-27.936-6.176-58.016-34.336-67.168l-74.464-24.32c3.616-20.512 5.344-41.824 5.344-63.392s-1.696-42.88-5.344-63.36l74.464-24.352c28.16-9.184 43.488-39.264 34.336-67.168-9.184-28.16-39.264-43.296-67.168-34.336l-74.656 24.32c-18.784-38.368-44.16-73.184-74.656-102.816l46.304-63.36c17.248-23.904 11.936-57.184-11.968-74.464-23.648-17.28-57.184-12.16-74.464 11.744l-46.08 63.36c-37.12-19.424-77.664-33.056-120.736-39.008v-78.56C554.176 23.904 530.272 0 500.832 0s-53.344 23.904-53.344 53.344v78.528c-43.104 5.952-83.84 19.616-120.736 39.008l-46.112-63.36c-17.28-23.904-50.784-28.992-74.464-11.744-23.904 17.28-29.216 50.56-11.936 74.464l46.08 63.36c-30.304 29.664-55.68 64.448-74.656 102.816L91.2 312.096c-27.936-8.96-58.016 6.176-67.2 34.336-9.184 27.936 6.176 58.016 34.336 67.168l74.464 24.352c-3.616 20.512-5.344 41.824-5.344 63.392zm106.688 0c0-147.2 119.456-266.656 266.656-266.656s266.656 119.456 266.656 266.656S648 768 500.8 768 234.144 648.544 234.144 501.344z"/></svg>