<svg xmlns="http://www.w3.org/2000/svg" width="1170" height="1024" viewBox="0 0 1170 1024"><path d="M0 512q0-74.286 29.143-142t78-116.57 116.57-78 142-29.144H804.57q74.288 0 142 29.143t116.573 78 78 116.57 29.143 142-29.143 142-78 116.57-116.57 78-142 29.142h-438.86q-74.286 0-142-29.143t-116.57-78-78-116.57T0 512zm804.57 292.57q59.43 0 113.43-23.142t93.43-62.57 62.57-93.43 23.143-113.43T1074 398.57t-62.57-93.43T918 242.57t-113.43-23.143-113.428 23.143-93.43 62.57-62.57 93.43T512 512t23.142 113.428 62.57 93.43 93.43 62.57 113.43 23.143z"/></svg>