<svg xmlns="http://www.w3.org/2000/svg" width="1024" height="1024" viewBox="0 0 1024 1024"><path d="M512 200.574c-173.432 0-314.026 138.9-314.026 310.245 0 171.34 140.594 310.24 314.026 310.24 173.434 0 314.028-138.902 314.028-310.244 0-171.347-140.59-310.246-314.028-310.246zM422.98 681.74V347.51l272.563 167.116-272.564 167.11zM560.392 14.72C719.5 30.214 862.765 121.45 943.672 261.592s88.28 309.825 22.145 455.36l-84.343-48.694c49.155-115.306 41.98-248.11-21.625-358.272-63.6-110.16-175.03-182.773-299.46-197.863v-97.4zm357.046 786.06C824.464 930.824 673.82 1009.278 512 1009.278S199.537 930.824 106.562 800.78l84.35-48.7C266.198 852.3 384.8 912.49 512 912.49s245.8-60.19 321.085-160.41l84.356 48.7zm-859.26-83.824C-7.956 571.42-.585 401.734 80.32 261.596c80.91-140.144 224.178-231.38 383.283-246.874v97.4c-124.435 15.086-235.862 87.704-299.46 197.863-63.603 110.16-70.78 242.966-21.626 358.272l-84.343 48.698z"/></svg>