<svg xmlns="http://www.w3.org/2000/svg" width="1024" height="1024" viewBox="0 0 1024 1024"><path d="M640 146.588v135.958c36.206 15.804 69.5 38.408 98.274 67.18C798.716 410.166 832 490.526 832 576s-33.286 165.834-93.726 226.274S597.476 896 512 896s-165.834-33.286-226.274-93.726S192 661.474 192 576s33.286-165.834 93.726-226.274c28.774-28.774 62.068-51.378 98.274-67.182V146.588C198.952 201.668 64 373.06 64 576c0 247.424 200.578 448 448 448s448-200.576 448-448c0-202.94-134.95-374.332-320-429.412zM448 0h128v512H448z"/></svg>