<svg xmlns="http://www.w3.org/2000/svg" width="1024" height="1024" viewBox="0 0 1024 1024"><path d="M768 256V128c0-47.146-38.186-85.334-85.334-85.334H341.334C294.188 42.666 256 80.852 256 128v128H85.334C38.188 256 0 294.186 0 341.334V896c0 47.146 38.186 85.334 85.334 85.334h853.334c47.146 0 85.334-38.186 85.334-85.334L1024 341.334c0-47.146-38.186-85.334-85.334-85.334H768zM409.6 149.334h204.8a46.798 46.798 0 0 1 46.934 46.932V256H362.666v-59.734a46.798 46.798 0 0 1 46.934-46.932zm-153.6 256V832c0 23.466-19.2 42.666-42.666 42.666s-42.666-19.2-42.666-42.666l-.002-426.666c0-23.466 19.2-42.666 42.666-42.666S256 381.866 256 405.334zm597.334 0V832c0 23.466-19.2 42.666-42.666 42.666s-42.666-19.2-42.666-42.666L768 405.334c0-23.466 19.2-42.666 42.666-42.666s42.668 19.198 42.668 42.666z"/></svg>