<svg xmlns="http://www.w3.org/2000/svg" width="1024" height="1024" viewBox="0 0 1024 1024"><path d="M512 184C288.682 184 95.118 314.042 0 504c95.118 189.958 288.682 320 512 320 223.312 0 416.876-130.042 512-320-95.116-189.958-288.688-320-512-320zm252.45 169.704C824.612 392.078 875.592 443.478 913.884 504c-38.292 60.522-89.274 111.922-149.436 150.296C688.854 702.514 601.558 728 512 728c-89.56 0-176.858-25.486-252.452-73.704C199.39 615.924 148.41 564.524 110.116 504c38.292-60.524 89.274-111.924 149.434-150.296a466.84 466.84 0 0 1 11.86-7.3C261.45 373.732 256 403.226 256 434c0 141.382 114.616 256 256 256 141.384 0 256-114.618 256-256 0-30.774-5.452-60.268-15.408-87.598a481.38 481.38 0 0 1 11.858 7.302zM512 408c0 53.02-42.98 96-96 96s-96-42.98-96-96 42.98-96 96-96 96 42.982 96 96z"/></svg>