<svg xmlns="http://www.w3.org/2000/svg" width="1024" height="1024" viewBox="0 0 1024 1024"><path d="M1024 804.57V1024H0V804.57q25.714 0 48.57-8t33.715-15.713 26.857-21.43q17.143-15.428 29.43-21.713t32.285-6.286 31.714 6.286 30 21.714q16.58 14.286 26.86 21.714t33.15 15.43 49.15 8q25.713 0 48.57-8.287t33.143-15.43 27.43-21.428q12-10.857 18.57-15.43t17.715-8.57 24.857-4q20 0 32.287 6.286t29.43 21.714q16 13.714 26.858 21.43t33.71 15.713 48.57 8 48.57-8 33.714-15.714 26.85-21.43q17.144-15.428 29.43-21.713t32.286-6.286q19.43 0 31.714 6.286t29.43 21.714q16 13.714 26.85 21.43t33.714 15.713 48.57 8zm0-182.856v109.714q-20 0-31.714-6.286t-30-21.714q-16.57-14.286-26.857-21.714t-33.15-15.43-48.57-8q-26.29 0-49.15 8t-33.145 15.43-26.858 21.714q-12.57 10.857-18.86 15.43t-17.71 8.57-25.14 4q-20 0-32.287-6.287t-29.43-21.71q-16.57-14.28-26.856-21.71t-33.143-15.43-49.14-8q-25.713 0-48.57 8.29T430.286 682t-27.43 21.43q-12 10.856-18.57 15.428t-17.714 8.57-24.85 4q-20 0-32.28-6.285T280 703.43q-16-13.715-26.857-21.43t-33.714-15.714-48.58-8q-26.29 0-49.15 8t-33.142 15.43-26.85 21.714q-17.143 15.424-29.43 21.71T0 731.43V621.714Q0 576 32 544t77.714-32h36.57V256H292.57v256h146.29V256h146.286v256H731.43V256h146.285v256h36.57Q960 512 992 544t32 77.715zM292.57 128q0 44-20.57 67.714t-52.57 23.714q-30.287 0-51.715-21.43t-21.43-51.713q0-16.57 5.43-29.143t13.43-19.43 17.713-16 17.714-18 13.43-25.428T219.43-.002q21.714 0 47.43 42.286t25.713 85.714zm292.573 0q0 44-20.57 67.714T512 219.428q-30.285 0-51.713-21.43t-21.43-51.713q0-16.57 5.43-29.143t13.43-19.43 17.713-16 17.714-18 13.43-25.428T512-.002q21.714 0 47.43 42.286t25.713 85.714zm292.57 0q0 44-20.57 67.714t-52.57 23.714q-30.287 0-51.715-21.43t-21.43-51.713q0-16.57 5.43-29.143t13.43-19.43 17.713-16 17.72-18 13.43-25.428 5.43-38.286q21.72 0 47.43 42.286t25.72 85.714z"/></svg>