<svg xmlns="http://www.w3.org/2000/svg" width="1024" height="1024" viewBox="0 0 1024 1024"><path d="M848.415 35.703l-172.52 172.52C623.96 192.467 568.95 184 512 184 288.682 184 95.118 314.042 0 504c41.122 82.124 100.648 153.04 173.022 207.096L14.06 870.058l67.882 67.884 835.44-835.44zM416 312c42.24 0 78.082 27.294 90.92 65.196L385.196 498.92C347.294 486.082 320 450.24 320 408c0-53.02 42.98-96 96-96zM110.116 504c38.292-60.524 89.274-111.924 149.434-150.296 3.918-2.5 7.876-4.922 11.862-7.3C261.45 373.732 256 403.226 256 434c0 54.89 17.286 105.738 46.7 147.418l-60.924 60.924C189.33 605.5 144.574 558.46 110.116 504zM768 434c0-27.166-4.256-53.334-12.102-77.898L434.09 677.91C458.658 685.752 484.832 690 512 690c141.382 0 256-114.618 256-256zm62.026-152.026l-69.362 69.362c1.264.786 2.53 1.568 3.786 2.368C824.612 392.078 875.592 443.478 913.884 504c-38.292 60.522-89.274 111.922-149.436 150.296C688.854 702.514 601.558 728 512 728a468.97 468.97 0 0 1-113.962-14.04l-76.894 76.894C380.862 812.316 445.094 824 512 824c223.31 0 416.876-130.042 512-320-45.022-89.916-112.118-166.396-193.974-222.026z"/></svg>