<svg xmlns="http://www.w3.org/2000/svg" width="1024" height="1024" viewBox="0 0 1024 1024"><path d="M512 95.488C281.568 95.488 95.52 281.568 95.52 512c0 230.368 186.048 416.512 416.48 416.512 230.4 0 416.512-186.112 416.512-416.512 0-230.432-186.144-416.512-416.512-416.512zm-1.472 166.56c29.792 0 53.984 24.16 53.984 54.016 0 29.824-24.192 54.016-53.984 54.016-29.856 0-54.016-24.192-54.016-54.016-.032-29.856 24.16-54.016 54.016-54.016zm7.296 638.464c-113.312 0-200.32-84.608-200.32-194.08 0-105.76 80.064-194.144 187.424-194.048 0 0 201.536-9.92 201.536-194.656 0-111.04-67.2-178.144-194.72-194.656C741.28 135.808 900.48 295.008 900.48 511.776c.032 211.52-174.048 388.736-382.656 388.736zm-5.344-250.464c-29.824 0-54.016 24.16-54.016 54.016 0 29.824 24.192 54.016 54.016 54.016s54.016-24.192 54.016-54.016c0-29.856-24.192-54.016-54.016-54.016z"/></svg>